<?xml version="1.0" encoding="utf-8"?>
<!-- Generator: Adobe Illustrator 27.0.0, SVG Export Plug-In . SVG Version: 6.00 Build 0)  -->
<svg version="1.1" id="_圖層_2" xmlns="http://www.w3.org/2000/svg" xmlns:xlink="http://www.w3.org/1999/xlink" x="0px" y="0px"
	 viewBox="0 0 712 36.6" style="enable-background:new 0 0 712 36.6;" xml:space="preserve">
<style type="text/css">
	.st0{fill:#FFFFFF;}
</style>
<g id="_圖層_1-2">
	<g>
		<path class="st0" d="M49.7,22v9.2c0,2.2-0.4,3.4-1.8,4C46.6,35.9,44.7,36,42,36c-0.2-1.2-0.7-3-1.3-4.2c1.6,0,3.2,0,3.7,0
			c0.6,0,0.7-0.2,0.7-0.7v-8l-3.9,1L40,19.8c1.5-0.3,3.2-0.7,5.2-1.1v-6.8h-4.7V7.6h4.6V0.2h4.6v7.3h4.1v4.3h-4.1v5.7l2.9-0.7
			l0.6,4.2C53.2,21,49.7,22,49.7,22z M74.4,18c-1.4,4.7-3.7,8.4-6.7,11.2c2.6,1.3,5.7,2.3,9,2.9c-1,1-2.3,3-2.9,4.3
			c-3.9-0.9-7.2-2.3-10.1-4.2c-3.1,1.9-6.7,3.2-10.6,4.1c-0.5-1.3-1.5-3.2-2.3-4.2c3.3-0.6,6.4-1.6,9-2.9c-2.1-2.1-3.9-4.6-5.4-7.5
			l1.4-0.5h-2.3v-4.3h16.9l0.8-0.2C71.4,16.7,74.4,18,74.4,18z M54.9,16.4c-0.6-0.9-2.2-2.7-3.1-3.3C56.4,11,57,8.2,57,5.5v-4h13.8
			v8.4c0,1.1,0,1.6,0.6,1.6h2.1c0.7,0,1.6-0.1,2.2-0.3c0.1,1.2,0.2,2.8,0.3,3.8c-0.6,0.2-1.6,0.3-2.5,0.3H71c-3.8,0-4.6-1.6-4.6-5.5
			V5.7h-5C61.3,9.6,60.2,13.9,54.9,16.4L54.9,16.4z M59,21.2c1.2,2,2.8,3.9,4.8,5.4c1.8-1.5,3.4-3.3,4.5-5.4H59z"/>
		<path class="st0" d="M105.6,7.1c2.1,2.1,6.2,3,11.5,3.3c-0.9,0.9-2,2.6-2.6,3.7c-4.4-0.5-7.8-1.8-10.2-3.9
			c-1.5,1.7-4.7,3.2-11.3,3.9c-0.3-0.7-0.9-1.7-1.6-2.5H81.2V8.1H93v2.4c7.5-0.8,8.4-2.5,8.4-3.9V5.9H99c-0.8,1.3-1.8,2.4-2.7,3.3
			c-0.7-0.7-2.5-1.8-3.4-2.4c2.1-1.7,3.7-4.3,4.6-6.9l4.1,0.9c-0.2,0.6-0.4,1.2-0.7,1.7H112l0.7-0.2l3.2,1c-1,2.1-2.3,4.6-3.6,6.1
			l-3.6-1.3c0.3-0.5,0.9-1.4,1.3-2.2h-4.3L105.6,7.1L105.6,7.1z M106.7,29.9c3.6,1.3,7.4,2.9,9.7,4l-4.2,2.5
			c-2.2-1.3-6.3-3.2-10.2-4.6l2.4-1.9h-11l3.4,1.5c-3.2,2-8.2,3.9-12.2,5c-0.8-0.9-2.4-2.6-3.4-3.4c3.8-0.7,7.9-1.9,10.7-3.2h-5.6
			V14.2h26.1v15.7H106.7z M92,5.5H82V2.1h10V5.5L92,5.5z M90.8,18.6h16.9v-1.7H90.8V18.6z M90.8,22.8h16.9v-1.7H90.8V22.8z
			 M90.8,27.2h16.9v-1.7H90.8V27.2z"/>
		<path class="st0" d="M157.4,27.4h-11c3.8,1.7,7.7,3.8,10.2,5.3l-3.1,3.5c-2.5-1.7-6.8-4.2-10.7-6l2.2-2.8h-11.9l3.5,2.8
			c-3.4,2.2-8.2,4.6-12.1,6.2c-0.6-1-1.8-2.5-2.6-3.4c3.5-1.3,8.1-3.6,10.7-5.5h-10.7v-4.2h2.8l-0.6-20.4c2.2-0.6,4.7-1.6,6.5-2.4
			l1.9,3.8V2h14.2v21.1h3.9c0.1-1.1,0.1-2.2,0.2-3.4h-3.3v-3.6h3.4c0-1.1,0.1-2.2,0.1-3.3h-3.2V9.1h3.3c0-1.2,0-2.4,0-3.6h-3.5V1.8
			h7.5c-0.1,6.8-0.3,15.4-0.7,21.4h2.8L157.4,27.4L157.4,27.4z M128.6,23.2h4V4.4c-1.5,0.4-3,0.8-4.4,1.2l0.1,3.5h3.4v3.7h-3.3
			l0.1,3.3h3.3v3.7h-3.2V23.2L128.6,23.2z M135.8,5.5v17.7h7.6V5.5H135.8z M142.4,10.3h-5.7V7.5h5.8L142.4,10.3z M136.8,12.2h5.6
			v8.7h-5.6V12.2z M138.8,18.3h1.8v-3.4h-1.8V18.3z"/>
		<path class="st0" d="M174.4,13.7c-0.5,5.7-1.5,10.3-3.1,14.1c3.6,3.1,8.4,3.7,14.2,3.8c2.3,0,10.4,0,13-0.1c-0.7,1-1.4,3-1.6,4.2
			h-11.5c-6.6,0-11.9-0.8-15.9-4.1c-1.2,2-2.7,3.6-4.3,4.8c-0.7-0.9-2.4-2.5-3.4-3c1.9-1.3,3.4-3,4.7-5.1c-1.3-2-2.5-4.5-3.4-7.5
			l3.4-1.1c0.5,1.7,1.2,3.2,1.9,4.5c0.7-2,1.2-4.3,1.5-6.9h-6.2c1.6-2.9,3.6-7,5.2-10.9H163v-4h12c-1.5,3.5-3.3,7.6-5,10.9h0.9
			l0.8-0.1L174.4,13.7L174.4,13.7z M182.6,6.7H176V3.2h6.6V0.3h4.4v2.9h8.6v5.2h2.1V12h-2.1v5.1H187V19h8.9v3.3H187v1.9h10.2v3.6
			H187v2.6h-4.4v-2.6H174v-3.6h8.6v-1.9h-7.1V19h7.1v-1.9h-6.8v-3.5h6.8V12h-8.8V8.4h8.8V6.7z M186.9,6.7v1.7h4.5V6.7H186.9z
			 M191.4,12h-4.5v1.7h4.5V12z"/>
		<path class="st0" d="M207.5,15.1c0-2.1,1.6-3.7,3.6-3.7s3.6,1.6,3.6,3.7s-1.6,3.7-3.6,3.7S207.5,17.2,207.5,15.1z M207.5,29.8
			c0-2.1,1.6-3.7,3.6-3.7s3.6,1.6,3.6,3.7s-1.6,3.7-3.6,3.7S207.5,32,207.5,29.8z"/>
		<path class="st0" d="M229.6,18c-1.2-1.2-3.9-2.8-6-3.8l2.5-3.4c2.1,0.9,4.8,2.3,6.1,3.5L229.6,18L229.6,18z M247.4,21v1.5h12.3
			c0,0,0,0.9-0.1,1.5c-0.4,7.1-0.9,10.1-1.9,11.1c-0.7,0.8-1.4,1.1-2.3,1.2c-0.9,0.1-2.3,0.2-3.8,0.1c0-1-0.4-2.4-0.9-3.3
			c1.1,0.1,2.1,0.1,2.6,0.1s0.8,0,1.1-0.4c0.3-0.3,0.5-1,0.7-2.4l-1.6,0.7c-0.3-0.9-1.1-2.5-1.8-3.6l2.3-0.9c0.5,0.6,1,1.4,1.3,2.1
			c0.1-0.8,0.2-1.8,0.3-3h-12.4V25c-3.2,1.3-6.6,2.5-9.3,3.6l-1-2.9c-1.4,3.5-2.9,7.1-4.4,10.2l-4.1-2.5c1.7-3,4-7.9,5.7-12.4
			l3.6,2.5l-0.2,0.6c0.7-0.2,1.4-0.4,2.2-0.6v-14H233V5.4h9.4v4.1H240v12.9l2.7-0.8l0.6,3.1V3.9h3.9c0.4-1.2,0.8-2.6,1-3.7l5,0.8
			c-0.5,1-0.9,2-1.4,2.9h6.7v12.2h-10.9v1.5h12.8V21H247.4L247.4,21z M231.1,7.9c-1.2-1.3-3.9-3-6-4l2.7-3.4
			c2.1,0.9,4.8,2.4,6.1,3.6L231.1,7.9L231.1,7.9z M237.3,34.1c1.9-1.7,2.9-4.6,3.4-7.4l3.2,0.9c-0.6,3.2-1.4,6.4-3.6,8.3L237.3,34.1
			L237.3,34.1z M247.2,27.5c0.4,2.1,0.6,4.8,0.4,6.6l-2.9,0.2c0.2-1.7,0.2-4.5-0.2-6.6L247.2,27.5z M254,6.9h-6.6v1.6h6.6V6.9z
			 M254,13.1v-1.5h-6.6v1.5H254z M250.8,27.1c0.6,1.6,1.2,3.7,1.4,5l-2.7,0.7c-0.2-1.4-0.8-3.5-1.3-5.1
			C248.2,27.6,250.8,27.1,250.8,27.1z"/>
		<path class="st0" d="M288.6,25.9c3.1,2.4,7.8,4.3,12.4,5.3c-1,0.9-2.3,2.6-2.9,3.8c-4.8-1.3-9.6-3.8-13-7v8.6h-4.9v-8.5
			c-3.6,3.2-8.3,5.8-13,7.2c-0.6-1.1-2-2.8-3-3.7c4.4-1.1,9.1-3.1,12.3-5.5h-8.3v-3.2h12V21h-15.4v-3.8h15.4v-1.7h-11.6v-3.2h11.6
			v-1.6h-14.5V7h14.5V5.3c-4.2,0.2-8.4,0.2-12.3,0.2c-0.1-1.1-0.6-2.8-0.9-3.8c9.8,0,21.2-0.6,28.2-1.6l2.7,3.6
			c-3.7,0.6-8.1,1-12.7,1.3v2h14.4v3.8h-14.4v1.6h11.6v4.8h3.8V21h-3.8v4.9H288.6L288.6,25.9z M285.1,17.2h6.9v-1.7h-6.9V17.2z
			 M285.1,22.6h6.9V21h-6.9V22.6z"/>
		<path class="st0" d="M317.3,13.7c-0.5,5.7-1.5,10.3-3,14.1c3.6,3.1,8.4,3.7,14.2,3.8c2.3,0,10.4,0,13-0.1c-0.7,1-1.4,3-1.6,4.2
			h-11.5c-6.6,0-11.9-0.8-15.9-4.1c-1.2,2-2.7,3.6-4.3,4.8c-0.7-0.9-2.4-2.5-3.4-3c1.9-1.3,3.4-3,4.6-5.1c-1.3-2-2.5-4.5-3.4-7.5
			l3.4-1.1c0.5,1.7,1.2,3.2,1.9,4.5c0.7-2,1.2-4.3,1.5-6.9h-6.2c1.6-2.9,3.5-7,5.2-10.9H306v-4h12c-1.5,3.5-3.3,7.6-5,10.9h0.9
			l0.8-0.1L317.3,13.7L317.3,13.7z M325.5,6.7h-6.6V3.2h6.6V0.3h4.4v2.9h8.5v5.2h2.1V12h-2.1v5.1h-8.5V19h8.9v3.3h-8.9v1.9h10.2v3.6
			h-10.2v2.6h-4.4v-2.6h-8.6v-3.6h8.6v-1.9h-7.1V19h7.1v-1.9h-6.8v-3.5h6.8V12h-8.8V8.4h8.8V6.7z M329.9,6.7v1.7h4.5V6.7H329.9z
			 M334.4,12h-4.5v1.7h4.5V12z"/>
		<path class="st0" d="M361.1,10.2h-15.2V6.6h6.4c-0.6-1.5-1.6-3.4-2.5-4.9l3.6-1.7c1,1.6,2.3,3.7,2.9,5.2l-2.6,1.4h7.4L361.1,10.2
			L361.1,10.2z M359.5,12.9c3.8-2.1,4.3-4.8,4.3-7.3V1.5H377v8.4c0,1.1,0.1,1.6,0.5,1.6h1.6c0.5,0,1.4-0.1,1.9-0.3
			c0.1,1.2,0.2,2.8,0.3,3.8c-0.5,0.2-1.4,0.3-2.2,0.3h-2c-3.7,0-4.4-1.6-4.4-5.5V5.7H368l0,0c0,3.8-1.1,8.1-6,10.7
			c-0.4-0.7-1.6-2.1-2.5-2.9v1.9h-12V12h12V12.9L359.5,12.9z M359.6,20.7h-12v-3.5h12V20.7z M380.4,18c-1.3,4.8-3.4,8.4-6.2,11.3
			c2.4,1.2,5.1,2.2,8.1,2.8c-1,0.9-2.2,2.9-2.9,4.1c-3.4-0.8-6.4-2.1-9.1-3.8c-2.7,1.7-5.7,3-9.1,3.9c-0.4-1-1.1-2.4-1.8-3.4v1.4h-8
			v1.6h-3.9V22.5h12v9.6c2.6-0.6,5-1.5,7.2-2.8c-2-2-3.8-4.5-5.1-7.2l2.5-0.9h-3.6V17h16.3l0.8-0.2L380.4,18L380.4,18z M355.5,26.2
			h-4v4.3h4V26.2z M365.8,21.2c1.1,2.1,2.7,3.9,4.6,5.5c1.7-1.5,3.1-3.4,4.2-5.5H365.8L365.8,21.2z"/>
		<path class="st0" d="M392.6,15.4v21h-4.5V1.7h15v13.7H392.6z M392.6,5v2h6.1V5H392.6z M398.7,12.1V9.9h-6.1V12h6.1V12.1z
			 M410.2,27.7v8h-4.1v-8h-3.8c-0.4,2.7-1.7,6.4-5,8.7c-0.7-0.8-2.1-2-3-2.6c2.5-1.5,3.6-4.1,4-6h-3.9V24h4.1v-3H395v-3.6h18.9V21
			h-3.7v2.9h4.3v3.8C414.5,27.7,410.2,27.7,410.2,27.7z M406.1,23.9V21h-3.6v2.9H406.1z M421,31c0,2.4-0.4,3.6-1.8,4.4
			c-1.4,0.8-3.4,0.9-6.4,0.9c-0.2-1.3-0.8-3.4-1.4-4.6c1.8,0.1,3.7,0.1,4.3,0c0.6,0,0.8-0.2,0.8-0.8V15.5h-10.7V1.7H421V31L421,31z
			 M410.1,5v2h6.3V5H410.1z M416.4,12.1V9.9h-6.3v2.2C410.1,12.1,416.4,12.1,416.4,12.1z"/>
		<path class="st0" d="M462.6,6.7c-1.5,1.3-3.2,2.6-4.6,3.6c1.7,0.9,3.6,1.6,5.6,2.2c-1,0.9-2.1,2.5-2.8,3.6c-1.6-0.5-3-1.1-4.5-1.9
			v3.3c0,0.9,0.1,1.2,0.6,1.2h1.9c0.5,0,1.5,0,2-0.2c0.1,0.9,0.2,2.2,0.3,3.1c-0.5,0.2-1.4,0.2-2.3,0.2h-2.4c-3.3,0-3.9-1.3-3.9-4.5
			v-2.2h-3.6c-0.1,2.7-1,5.6-4.3,7.7c-0.4-0.7-1.6-1.8-2.3-2.5v1.2h-7.7c-0.2,0.9-0.3,1.8-0.4,2.7h8.1c0,0,0,1-0.1,1.6
			c-0.4,5.2-0.9,7.7-1.9,8.7c-0.8,0.9-1.8,1.2-3.1,1.3c-1,0.1-3.1,0.1-5.1,0c-0.1-1.2-0.6-2.8-1.3-3.8c2,0.2,3.9,0.2,4.7,0.2
			c0.6,0,1,0,1.4-0.4c0.5-0.4,0.8-1.7,1.1-4.3h-8.2c0.5-2.5,1.2-6.4,1.5-9.4h6.9v-2.7h-5.7v-0.6c-1.2,0.6-2.3,1.1-3.5,1.5
			c-0.5-1-1.7-2.6-2.5-3.4c2.3-0.7,4.5-1.7,6.6-3c-1-0.8-2.5-1.7-3.6-2.3l2.7-2.4c1.3,0.7,3,1.6,4.1,2.4c0.8-0.8,1.6-1.6,2.3-2.5
			h-7.7V1.6h10.2l0.8-0.2l2.9,1.4c-1.6,3.8-4.2,6.8-7.3,9.2h5.1v7.7c2.4-1.6,2.8-3.4,2.8-5.2v-2.8h7.5c-3.4-2.7-6-6.1-7.9-10.2
			l3.7-1.1c0.6,1.3,1.3,2.5,2.2,3.6c1.3-1.1,2.7-2.5,3.7-3.6l3.3,2.4c-1.6,1.3-3.3,2.7-4.8,3.7c0.7,0.6,1.4,1.2,2.1,1.7
			c1.5-1.2,3.3-2.8,4.3-4L462.6,6.7L462.6,6.7z M459.7,23.8c-1,2.8-2.4,5.1-4.3,6.9c1.8,1,3.4,1.9,4.5,2.7l-2.3,3.1
			c-1.3-0.9-3.2-2.1-5.3-3.4c-2.5,1.5-5.5,2.6-8.7,3.3c-0.4-1-1.2-2.5-2-3.3c2.5-0.4,4.9-1.2,7-2.2c-1.9-1-3.8-2.1-5.4-3l1.6-1.9
			h-0.9v-3h12.7l0.7-0.1L459.7,23.8L459.7,23.8z M446.8,26c1.6,0.9,3.4,1.7,5.2,2.7c0.9-0.8,1.8-1.7,2.5-2.7H446.8z"/>
		<path class="st0" d="M482.1,9.2c-0.4,1.1-1,2.1-1.6,3.1h18.2v19.1c0,2.3-0.4,3.5-2,4.2c-1.5,0.7-3.8,0.8-6.9,0.8
			c-0.2-1.3-0.8-3.2-1.4-4.5c2,0.1,4.3,0.1,4.9,0.1c0.7,0,0.9-0.2,0.9-0.8v-2.3h-14.7c-0.7,2.9-1.9,5.7-4.3,7.7
			c-0.6-1-2.4-2.9-3.4-3.5c3.4-2.9,3.6-7,3.6-10.6v-3.1c-1.5,1.5-3,3-4.8,4.2c-0.7-1-2.1-2.7-3-3.6c3.9-2.6,7.1-6.5,9.4-10.8h-8.5
			V4.9H479c0.6-1.6,1.1-3.1,1.6-4.7l4.8,1.1c-0.4,1.2-0.8,2.4-1.2,3.6H503v4.3L482.1,9.2L482.1,9.2z M494.1,25.1v-2.5h-14
			c0,0.8,0,1.6-0.1,2.5H494.1L494.1,25.1z M494.1,16.3h-14v2.4h14V16.3z"/>
		<path class="st0" d="M522.8,3.3c-1,3.2-2.3,7.2-3.4,10.1c2.3,3,2.8,5.8,2.8,8c0,2.5-0.5,4.1-1.8,5.1c-0.6,0.5-1.3,0.7-2.2,0.9
			c-0.7,0.1-1.6,0.1-2.5,0.1c0-1.1-0.4-2.8-1-4c0.7,0,1.2,0.1,1.7,0c0.4,0,0.8-0.1,1-0.3c0.5-0.4,0.7-1.2,0.7-2.3
			c0-1.9-0.5-4.4-2.7-7.1c0.7-2.4,1.6-5.5,2.2-8.1h-3.8v30.5h-4.1V1.7h9.3l0.6-0.2L522.8,3.3L522.8,3.3z M543.8,23.2
			c-1.7,1.3-3.7,2.8-5.5,3.9c1.6,2.2,3.8,4,6.3,5.2c-1,0.9-2.4,2.7-3.1,4c-5.8-3.2-8.9-9.1-10.8-16.7h-2.3v10.9l5.4-1.2
			c0,1.3,0,3.2,0.2,4.2c-7.6,1.9-9.1,2.5-10,3.1c-0.4-1-1.3-2.8-2-3.6c0.8-0.5,1.8-1.5,1.8-3.4V1.8h17.6v17.8h-6.8
			c0.4,1.5,0.9,2.9,1.6,4.2c1.6-1.2,3.3-2.6,4.5-3.8L543.8,23.2L543.8,23.2z M528.5,5.7v3h8.6v-3H528.5z M528.5,15.6h8.6v-3.1h-8.6
			V15.6z"/>
		<path class="st0" d="M564.1,2.8c-2.8,6.4-7.4,12.9-11.6,17c-0.9-1-3-3-4.1-3.9c4.1-3.4,8.2-9.1,10.6-14.7L564.1,2.8L564.1,2.8z
			 M575,20.5c3.2,4.3,6.8,9.8,8.7,13.4l-4.8,2.5c-0.5-1.1-1.2-2.4-2-3.8c-18.9,1.5-21.5,1.7-23.4,2.4c-0.3-1-1.2-3.6-1.9-4.9
			c1.3-0.4,2.3-1.4,3.9-3.1s6.5-8.2,9.6-14.7l5.4,2.2c-3,5.2-6.8,10.4-10.5,14.6l14.3-0.9c-1.2-1.9-2.5-4-3.8-5.6L575,20.5L575,20.5
			z M575.8,1.2c1.7,5.4,5.2,10.9,10,13.8c-1,1-2.7,3.2-3.5,4.6c-4.5-3.4-7.9-8.6-10.1-13.7H566V1.2H575.8L575.8,1.2z"/>
		<path class="st0" d="M623.2,30.5c0,2.6-0.5,4-2.2,4.8c-1.6,0.8-4.1,0.9-7.6,0.9c-0.2-1.3-0.9-3.6-1.5-5c2.2,0.1,4.8,0.1,5.5,0.1
			s1-0.2,1-0.9V6.9h-27.3V2.5h32L623.2,30.5L623.2,30.5z M614.5,13.7h-23v-4h23V13.7z M598.1,29.6v2.8h-4.5V16.6h18.9v13.1
			L598.1,29.6L598.1,29.6z M598.1,20.5v5.2h9.8v-5.2H598.1z"/>
	</g>
</g>
</svg>
