<?xml version="1.0" encoding="utf-8"?>
<!-- Generator: Adobe Illustrator 27.0.0, SVG Export Plug-In . SVG Version: 6.00 Build 0)  -->
<svg version="1.1" id="_圖層_2" xmlns="http://www.w3.org/2000/svg" xmlns:xlink="http://www.w3.org/1999/xlink" x="0px" y="0px"
	 viewBox="0 0 783.6 101.4" style="enable-background:new 0 0 783.6 101.4;" xml:space="preserve">
<style type="text/css">
	.st0{fill:#FFFFFF;}
</style>
<g id="_圖層_1-2">
	<g>
		<g>
			<path class="st0" d="M31.1,29.4c-3.7,16-9.5,36-18.5,47.8C9.3,75,3.4,72,0,70.5c8.7-10.8,14.1-29.6,16.4-43.6L31.1,29.4
				L31.1,29.4z M58.7,2.5v82.8c0,7.8-1.8,11.4-6.6,13.4c-5.1,2-12.5,2.5-23,2.5c-0.8-3.8-3.1-9.8-5.1-13.3c7,0.3,15.1,0.3,17.5,0.2
				c2.4,0,3.2-0.8,3.2-2.8V2.5H58.7z M83.2,25.8C92,41,100.9,60.4,103.6,73.9l-14.1,5.5c-2.2-13-10.4-33.2-19-48.8
				C70.6,30.5,83.2,25.8,83.2,25.8z"/>
			<path class="st0" d="M149.6,69.8c-1.8-2.8-4.9-6.8-7.9-10.4v41.9h-12.7V61.7c-4.1,3.6-8.1,7-12.4,9.5c-0.9-3.5-3.4-10.6-4.9-13
				c10.8-5.9,21.3-16.4,27.8-27.8H115V18.9h19c-1.9-4-5.4-9.2-8.8-13.2l10.2-5.3c3.8,4.1,7.9,9.7,9.9,13.5l-8.6,4.9h10.1l2.2-0.5
				l6.8,4.9c-3,7.8-7.5,15.6-12.5,22.4c4.4,3.9,12.2,11.4,14.4,13.4L149.6,69.8L149.6,69.8z M214.6,85.2v12.7H152V85.2h26.1V45.4
				h-21.4V33.1h21.4V1.6h13.3v31.5H212v12.4h-20.5v39.8C191.5,85.2,214.6,85.2,214.6,85.2z"/>
			<path class="st0" d="M304.6,85.7c6.8,0,15.5-0.5,19.9-1.4c0.4,3.1,1.2,8.9,1.8,11.9c-4.1,1.1-13.8,1.2-22.4,1.2h-42.7
				c-19.1,0-28.1-5.8-28.1-25.6V16h-4.3V4.7H321V16h-75.1v56.7c0,9.3,3.1,13,14.3,13L304.6,85.7L304.6,85.7z M250.8,51.2h29.9v28.9
				h-29.9L250.8,51.2L250.8,51.2z M261.2,71.5h8.5V59.8h-8.5V71.5z M304.4,46.5h-42.6V20.9h42.6V46.5L304.4,46.5z M291.6,29.3h-17.8
				v8.8h17.8V29.3z M316,80.1h-30.6V51.2H316V80.1z M304.8,59.8H296v11.7h8.8C304.8,71.5,304.8,59.8,304.8,59.8z"/>
			<path class="st0" d="M516.5,42.9c7.2,20.9,20.3,37.8,40.5,46c-3.2,2.7-7.5,8.4-9.5,12c-19.6-9.1-32.2-24.8-40.6-45.5
				c-5.9,17.9-17.6,34.7-40.5,45.6c-2.1-3.5-5.9-8.2-9.6-10.8c24.8-10.9,35.1-28.8,39.3-47.2h-37.3V29.7h39.5
				c1.1-10.1,1-19.9,1.1-28.7h14.1c-0.1,8.8-0.2,18.7-1.3,28.7h42.6v13.2L516.5,42.9L516.5,42.9z"/>
			<path class="st0" d="M605.1,85.6c-2.6-4.2-7-10.7-11.3-16.2c-2.9,11.1-7.8,21.8-16.6,30.2c-2-2.6-6.2-6.7-9.2-8.7
				c11-9.6,15-23.7,16.4-37h-15V42.2h15.7c0.1-2.2,0.1-4.5,0.1-6.5v-7h-14.1V17.4h14.1V2h12v15.3h13.5v11.3h-13.5v7.1
				c0,2,0,4.2-0.1,6.4h15.3v11.6h-16l-0.2,2.4c4.3,4.3,15.1,17.1,17.7,20.2L605.1,85.6L605.1,85.6z M658,88.1c1.5,0,2-1,2.3-7.3
				c2.2,1.8,7.3,3.7,10.4,4.4c-1.3,10.9-4.3,14-11.3,14H652c-9.5,0-11.6-3.4-11.6-14.1V66.5H636c-1.8,15.9-6.6,27.8-25.7,35
				c-1.2-3-4.5-7.5-7-9.6c15.8-5.2,19.2-14,20.7-25.4h-8.1V4.7H664v61.7h-11.6V85c0,2.8,0.2,3.1,1.8,3.1L658,88.1L658,88.1z
				 M627.8,22.3h23.7V16h-23.7V22.3z M627.8,38.8h23.7v-6.3h-23.7V38.8z M627.8,55.2h23.7v-6.4h-23.7V55.2z"/>
			<path class="st0" d="M779,14.8c-4.4,10.3-10.9,18.9-19,25.9c7,3.5,15,6.1,23.5,7.7c-1.7,3.1-3.6,8.6-4.1,12.1
				c-11-2.8-20.9-6.9-29.5-12.3c-7.7,5.2-16.4,9-25.4,11.9h49.8v40.3h-12.9V95H735v5.7h-12.2v-40c-1.1,0.3-2.2,0.6-3.2,1
				c-0.8-1.8-2.2-4.7-3.8-7.1l-2.5,3.1c-1.3-2.6-3.5-6.7-5.7-10.5v54h-12.2V58.5c-2.7,8.9-6,17.2-9.5,22.6c-1.1-3.7-3.9-9.6-6-12.9
				c6-8.2,11.3-23,14-35.5h-11.6V20.9h13.1V1h12.2v20h9.8v5.9c7.6-6.4,14.3-16.4,18.1-26.8l11.2,3.1c-1,2.4-2.1,4.9-3.2,7.4h25.4
				l2.3-0.4L779,14.8L779,14.8z M739.7,40.5c-3.4-3.1-6.4-6.3-9.1-9.9c-2,2.5-4.1,4.8-6.3,6.8c-1.4-2.4-4.9-7.6-7-10.1v5.5h-9.5
				c2.7,2.6,11.3,12.8,13.1,15.5C727.7,46.2,733.9,43.6,739.7,40.5L739.7,40.5z M735,71.2v12.7h26.5V71.2H735z M738,21.7
				c2.9,4.6,6.8,8.7,11.5,12.4c4.7-3.6,8.7-7.6,11.8-12.4C761.3,21.7,738,21.7,738,21.7z"/>
		</g>
	</g>
</g>
</svg>
