<?xml version="1.0" encoding="UTF-8"?>
<svg id="_圖層_2" data-name="圖層 2" xmlns="http://www.w3.org/2000/svg" xmlns:xlink="http://www.w3.org/1999/xlink" viewBox="0 0 783.94 339.58">
  <defs>
    <style>
      .cls-1 {
        fill: #fff;
      }

      .cls-2 {
        fill: none;
        stroke: url(#_未命名漸層_27);
        stroke-miterlimit: 10;
        stroke-width: 3px;
      }
    </style>
    <linearGradient id="_未命名漸層_27" data-name="未命名漸層 27" x1="524.8" y1="454.63" x2="259.15" y2="-115.05" gradientUnits="userSpaceOnUse">
      <stop offset="0" stop-color="#fff" stop-opacity=".8"/>
      <stop offset=".2" stop-color="#fff" stop-opacity="0"/>
      <stop offset=".5" stop-color="#fff" stop-opacity="0"/>
      <stop offset=".8" stop-color="#fff" stop-opacity="0"/>
      <stop offset="1" stop-color="#fff" stop-opacity=".8"/>
    </linearGradient>
  </defs>
  <g id="_圖層_1-2" data-name="圖層 1">
    <g>
      <rect class="cls-2" x="1.5" y="1.5" width="780.94" height="336.58" rx="14.47" ry="14.47"/>
      <g>
        <path class="cls-1" d="M176.48,95.37h-19.12v3.47c0,2.88-.89,4.05-3.2,4.78-2.32,.63-5.57,.59-9.85,.59-.39-1.46-1.23-3.42-2.02-4.74,2.86,.1,6.7,.1,7.54,.1,.99-.05,1.28-.24,1.28-.98v-3.22h-18.97v-4.93h18.97v-2.05h.05l-.05-.05c2.07-.44,4.19-1.07,6.21-1.81h-20.35v-4.54h29.76l1.23-.24,3.74,3.22c-3.99,2.1-8.77,4-13.75,5.47h18.52v4.93Zm-.79-28.27h-42.81v-4.88h18.13c-.3-1.03-.64-2.1-1.03-2.93l6.06-1.03c.59,1.17,1.18,2.59,1.58,3.95h18.08v4.88Zm-37.15,12.94v-10.69h31.87v10.69h-31.87Zm5.86-4h19.8v-2.73h-19.8v2.73Z"/>
        <path class="cls-1" d="M221.12,83.5c-2.22,4.78-5.47,8.49-9.46,11.37,4.73,1.66,10.25,2.78,16.31,3.32-1.23,1.32-2.81,3.86-3.6,5.42-7.14-.88-13.5-2.54-18.82-5.13-5.67,2.68-12.22,4.3-19.16,5.22-.59-1.37-2.22-3.95-3.45-5.13,6.16-.63,11.87-1.76,16.75-3.56-3.01-2.1-5.62-4.69-7.78-7.66l1.63-.68h-2.32v-5.32h24.88l1.08-.24,3.94,2.39Zm-31.53-.34h-5.47v-10.59h7.04c-.49-1.51-1.43-3.47-2.32-5.03l4.38-1.22c-2.46,.15-4.98,.24-7.34,.29-.1-1.46-.79-3.66-1.33-4.93,12.96-.44,27.79-1.61,36.75-3.32l3.94,4.69c-5.32,.98-11.68,1.76-18.23,2.34,.99,1.95,1.92,4.54,2.22,6.3l-3.65,.88h8.57c1.18-2.25,2.46-5.13,3.2-7.32l6.26,1.46c-1.13,2.05-2.41,4.05-3.55,5.86h7v10.59h-5.71v-5.57h-31.78v5.57Zm17.1-17.77c-4.14,.39-8.42,.68-12.61,.88,1.13,1.81,2.27,4,2.76,5.57l-2.56,.73h9.41c-.3-1.71-1.03-4.15-1.87-6.05l4.88-1.12Zm-8.57,21.29c2.02,2.2,4.53,4.05,7.49,5.66,2.61-1.56,4.93-3.42,6.7-5.66h-14.19Z"/>
        <path class="cls-1" d="M233.7,80.91c1.03-3.32,1.82-8.84,2.07-12.74l3.6,.49c-.15,4-.89,9.76-1.87,13.52l-3.79-1.27Zm12.71-4.69c-.25-1.66-.84-3.95-1.43-6.25v34.17h-5.12V58.56h5.12v8.89l2.81-.83c.89,2.64,1.92,6.15,2.32,8.25h28.03v10.25h-29.12v-9.86l-2.61,.98Zm31.09,12.25c-1.97,3.56-4.73,6.4-8.23,8.69,3.3,1.03,6.9,1.66,10.84,2.1-1.23,1.17-2.76,3.51-3.55,4.98-5.07-.73-9.61-1.95-13.55-3.81-4.43,1.86-9.36,3.03-14.53,3.81-.49-1.42-1.63-3.71-2.61-4.93,3.94-.44,7.83-1.12,11.33-2.2-2.36-1.66-4.38-3.56-6.11-5.81h-2.91v-4.54h24.58l1.03-.2,3.69,1.9Zm-21.48-14.65h-5.03v-13.67h25.17v13.67h-5.27v-9.47h-14.88v9.47Zm-2.02,7.76h3.3v-3.22h-3.3v3.22Zm16.06-12.84h-12.91v-2.78h12.91v2.78Zm-12.91,1.56h12.91v2.93h-12.91v-2.93Zm.79,20.99c1.48,1.32,3.25,2.44,5.32,3.47,1.97-.98,3.79-2.1,5.27-3.47h-10.59Zm3.74-9.71h3.35v-3.22h-3.35v3.22Zm7.73,0h3.45v-3.22h-3.45v3.22Z"/>
        <path class="cls-1" d="M311.59,78.13v12.79c4.34-2.73,7.73-6.35,10.2-11.03l5.71,2.59c-7.39,13.43-20.25,18.99-38.82,21.68-.54-1.66-1.72-4-2.96-5.52,9.31-1.12,17.1-2.98,23.3-6.25h-3.69v-14.26h-19.36v-5.47h6.75v-10.89h5.96v10.89h7.34v-14.01h6.31v3.86h14.19v5.47h-14.19v4.69h17.64v5.47h-18.38Zm-9.31,3.32c-2.81,4.34-7.19,8.79-11.13,11.62-.94-1.12-3.1-3.32-4.38-4.3,3.69-2.25,7.69-5.76,9.85-9.23l5.67,1.9Z"/>
        <path class="cls-1" d="M353.87,71.25h-17.59v-4.59h7.98c-.74-1.81-1.97-4.25-3.01-6.1l4.29-1.76c1.28,2,2.81,4.78,3.55,6.49l-2.91,1.37h7.69v4.59Zm26.75,26.85c0,2.44-.44,3.81-1.92,4.69-1.43,.83-3.6,.93-6.8,.93-.2-1.37-.84-3.56-1.53-4.83,2.02,.1,3.99,.05,4.63,0,.64,0,.84-.19,.84-.88v-16.7h-15.47c-.1,7.37-.89,16.94-4.48,23.04-.84-.78-2.91-2.34-3.99-2.83h-9.06v1.9h-4.63v-16.7h14.29v13.67c2.96-6.15,3.2-14.45,3.2-20.94v-19.09h24.93v37.74Zm-42.27-18.11h13.94v4.39h-13.94v-4.39Zm13.99-2.15h-13.94v-4.39h13.94v4.39Zm-4.48,13.57h-5.03v5.47h5.03v-5.47Zm12.51-25.97v3.51h5.32v-3.51h-5.32Zm0,11.33h5.32v-3.27h-5.32v3.27Zm5.27,18.8v2.25h-3.99v-14.35h12.46v12.11h-8.47Zm0-8.06v4.05h4.19v-4.05h-4.19Zm10.2-22.07h-5.42v3.51h5.42v-3.51Zm0,11.33v-3.27h-5.42v3.27h5.42Z"/>
        <path class="cls-1" d="M432.31,66.12s0,1.95-.05,2.64c-.64,21.82-1.18,29.58-3.2,32.17-1.38,1.81-2.76,2.34-4.73,2.68-1.87,.24-4.83,.2-7.73,.1-.1-1.61-.89-4.05-1.92-5.66,3.15,.29,6.06,.29,7.34,.29,.99,0,1.53-.2,2.17-.83,1.43-1.56,2.07-8.89,2.61-26.12h-10.54c-1.28,2.93-2.81,5.61-4.34,7.71-.79-.73-2.46-1.85-3.79-2.73v22.8h-13.15v3.56h-5.32v-36.27h5.57c.64-2.44,1.23-5.57,1.43-7.86l6.4,.88c-.84,2.44-1.72,4.88-2.56,6.98h7.64v7.91c2.86-4.1,5.22-10.01,6.65-15.72l5.57,1.27c-.49,2.1-1.18,4.15-1.92,6.2h13.89Zm-29.51,5.42h-7.83v7.91h7.83v-7.91Zm0,22.51v-9.57h-7.83v9.57h7.83Zm16.36-2.64c-1.38-2.93-4.43-7.71-6.85-11.28l4.58-2.59c2.46,3.37,5.71,8.01,7.24,10.84l-4.98,3.03Z"/>
        <path class="cls-1" d="M484.05,97.12v5.71h-44.29v-5.71h19.02v-9.81h-13.35v-5.61h13.35v-8.59h-10.2c-1.43,2.68-2.96,5.18-4.58,7.08-1.18-.93-3.79-2.68-5.27-3.47,3.84-4.1,7.04-10.84,8.72-17.48l6.06,1.32c-.69,2.34-1.48,4.64-2.32,6.88h7.59v-8.79h6.16v8.79h16.6v5.66h-16.6v8.59h14.73v5.61h-14.73v9.81h19.12Z"/>
        <path class="cls-1" d="M499.43,82.14c-2.02-1.42-6.26-3.71-9.16-5.27l3.15-4.3c2.71,1.32,7.09,3.42,9.26,4.74l-3.25,4.83Zm-8.47,17.58c2.61-3.66,6.4-9.71,9.36-15.38l4.29,3.91c-2.61,5.13-5.71,10.69-8.72,15.43l-4.93-3.95Zm10.59-30.9c-1.92-1.46-6.11-3.76-8.97-5.37l3.3-4.2c2.76,1.37,7.04,3.52,9.16,4.88l-3.5,4.69Zm21.82,9.52v6.15h10.05v19.48h-5.57v-1.76h-14.83v2h-5.27v-19.72h10.05v-6.15h-13.1v-5.57h13.1v-5.71c-3.25,.49-6.5,.83-9.61,1.12-.2-1.42-.99-3.66-1.63-4.98,8.38-.83,17.59-2.44,23.01-4.59l4.53,4.59c-3.2,1.22-6.85,2.15-10.74,2.88v6.69h12.51v5.57h-12.51Zm4.48,11.42h-14.83v7.18h14.83v-7.18Z"/>
        <path class="cls-1" d="M562.4,90.43c-6.5,2.88-13.79,5.96-19.36,8.25l-1.97-6.2c1.87-.63,4.09-1.42,6.55-2.39l-.99-28.51,6.11-.24,.89,26.41c2.46-1.03,4.98-2.05,7.44-3.03l1.33,5.71Zm20.4,13.72c-1.82-3.17-5.57-7.66-9.21-11.77-3.6,5.08-8.47,8.98-14.98,11.86-.84-1.27-3.25-3.9-4.68-5.13,15.62-5.86,20.69-17.67,22.51-37.74l6.45,.59c-1.03,10.01-2.81,18.16-6.01,24.8,4.09,4.2,8.67,9.13,10.94,12.55l-5.03,4.83Zm-18.47-25.04c-1.23-3.37-4.38-8.49-7.34-12.11l5.32-2.64c3.2,3.56,6.31,8.35,7.78,11.72l-5.76,3.03Z"/>
        <path class="cls-1" d="M613.7,65.49l4.19,1.17c-2.27,19.77-9.46,31.78-20.4,37.44-.99-1.42-3.45-3.86-4.93-4.88,5.62-2.59,10.15-6.64,13.3-12.4-1.63-2.05-4.04-4.59-6.36-6.93-.79,1.37-1.63,2.64-2.46,3.71-1.03-.98-3.6-2.83-4.93-3.71,4.29-4.88,7.19-12.94,8.72-21.33l5.91,1.03c-.44,2.1-.94,4.1-1.48,6.1h7.29l1.13-.2Zm-10.25,5.71c-.44,1.27-.89,2.44-1.38,3.61,1.97,1.9,4.43,4.15,6.36,6.2,1.08-2.93,1.87-6.2,2.46-9.81h-7.44Zm30.54,17.09c-1.63-2.39-4.93-5.96-7.93-9.13v25.04h-6.21V58.6h6.21v16.21l2.17-1.56c3.4,3.32,8.38,8.1,10.74,11.08l-4.98,3.95Z"/>
        <path class="cls-1" d="M59.85,172.49c.1,1.17,.34,2.93,.59,3.86-6.7,1.81-9.46,2.64-10.84,3.17,1.82,.15,3.89,.2,6.01,.2,5.67,0,14.48-.49,19.9-1.27-.64,1.56-1.63,4.39-1.68,5.96-4.09,.24-12.76,.59-18.52,.59-6.5,0-10.69-.54-14.24-2.59-2.02-1.12-3.79-2.73-4.83-2.73-1.13,0-2.86,3.32-4.09,6.1l-3.89-5.52c1.72-2.1,3.6-3.76,5.32-4.74,.99-2.44,1.87-5.47,2.51-8.4h-6.06c1.18-2.93,2.51-6.79,3.69-10.59h-4.53v-5.18h11.68c-1.03,3.47-2.32,7.37-3.5,10.74h1.77l.89-.2,2.46,.88c-.49,2.59-1.13,5.32-1.92,7.81,4.09-.68,8.33-1.9,11.77-3.47h-7.34v-8.98h25.32v8.98h-1.03l2.76,1.76c-1.38,.98-2.91,2-4.38,2.83,2.07,1.22,3.99,2.39,5.27,3.27l-2.86,3.56c-2.71-2.15-8.33-5.61-12.32-8.05l2.66-3.03,3.55,2.1c1.18-.78,2.41-1.66,3.4-2.44h-8.03c-1.63,1.46-3.69,2.73-5.91,3.91v3.08l6.4-1.61Zm-25.42-22.55c-.54-2.2-1.87-5.71-2.71-8.35l5.17-1.56c.94,2.64,2.22,5.91,2.91,8.05l-5.37,1.86Zm14.14,23.19c-1.68,.59-3.35,1.07-5.07,1.47-.64-1.12-1.92-2.83-2.91-3.81-.49,1.66-1.08,3.22-1.72,4.69,.84,.54,1.77,1.22,3.01,1.95,1.77,1.03,3.94,1.61,6.36,1.95-.3-1.07-.94-2.34-1.43-3.03,.89-.34,1.77-.98,1.77-2.83v-.39Zm25.57-16.5H41.13v-4h33.01v4Zm-2.27-5.52h-28.28v-9.81h28.28v9.81Zm-20.35-6.59h-3.01v3.37h3.01v-3.37Zm-1.08,19.38h14.09v-2.54h-14.09v2.54Zm8.67-19.38h-3.15v3.37h3.15v-3.37Zm7.54,0h-3.15v3.37h3.15v-3.37Z"/>
        <path class="cls-1" d="M124,178.88c0,3.03-.64,4.69-2.51,5.61-1.87,.98-4.63,1.12-8.72,1.12-.25-1.61-1.13-4.25-2.02-5.76,2.61,.15,5.47,.15,6.31,.1,.84-.05,1.18-.34,1.18-1.12v-31.05h-30.3v37.79h-5.71v-43.3h41.78v36.61Zm-8.67-22.8h-24.58v-4.88h24.58v4.88Zm-16.85,20.06v3.22h-5.42v-19.53h20.05v16.31h-14.63Zm0-11.52v6.74h9.21v-6.74h-9.21Z"/>
        <path class="cls-1" d="M148.3,176.15h-10v4.3h-5.42v-37.49h15.42v33.2Zm-10-28.02v8.59h4.53v-8.59h-4.53Zm4.53,22.85v-9.18h-4.53v9.18h4.53Zm23.2-20.7v4.64h9.75v5.03h-3.6v3.81h4.73v5.03h-4.73v10.64c0,2.78-.54,4.25-2.51,5.13-1.87,.83-4.58,.98-8.23,.98-.2-1.61-1.08-3.91-1.82-5.47,2.36,.1,5.07,.1,5.81,.1,.79,0,1.03-.2,1.03-.88v-10.5h-17.24v-5.03h17.24v-3.81h-15.72v-5.03h9.51v-4.64h-11.08v-5.08h11.08v-5.22h5.76v5.22h11.08v5.08h-11.08Zm-10,19.19c2.02,2.34,4.68,5.66,5.91,7.81l-5.12,2.98c-1.13-2.1-3.65-5.66-5.67-8.2l4.88-2.59Z"/>
        <path class="cls-1" d="M192.55,167.26v12.06c0,2.54-.49,3.91-1.92,4.74-1.38,.93-3.4,1.07-6.4,1.07-.15-1.37-.79-3.61-1.48-5.08,1.72,.1,3.4,.1,3.94,.05,.59,0,.79-.15,.79-.78v-10.2l-3.74,1.32-1.38-5.56c1.48-.39,3.2-.93,5.12-1.51v-8.79h-4.48v-5.37h4.48v-9.18h5.07v9.18h3.15v5.37h-3.15v7.13l2.66-.83,.94,5.08-3.6,1.32Zm35.52-17.58h-27.34l3.15,1.47c-.74,2.15-1.82,4.44-3.05,6.49l2.32-.2c.34-.88,.64-1.76,.94-2.59l4.09,2.29c-1.48,3.61-3.4,7.47-5.42,10.84l2.36-.59c.15-.59,.3-1.17,.39-1.81l3.99,.78v-1.22c-.84-.78-2.41-2.2-3.4-2.88,2.56-3.03,4.73-7.71,5.96-12.35l4.48,1.12c-.39,1.32-.84,2.68-1.33,4.05h3.79c-.49-1.22-1.08-2.49-1.72-3.51l3.89-1.32c.94,1.42,1.87,3.32,2.46,4.83h3.99v4.34h-5.07v3.47h4.29v3.91h-4.29v3.56h4.09v3.91h-4.09v4h5.47v4.39h-13.99v2.29h-4.53v-18.11c-1.82,8.59-5.67,14.74-12.37,18.5-.64-.98-2.07-2.73-3.01-3.51,4.19-2.1,7.29-5.32,9.21-9.42-4.68,1.37-5.91,1.9-6.6,2.44-.25-.93-.99-3.03-1.53-4.2,.99-.24,1.82-1.27,2.81-2.83,.59-.83,1.77-2.93,3.05-5.57-3.01,.34-3.99,.63-4.68,.98-.25-.98-1.03-3.17-1.58-4.34,.64-.15,1.23-.83,1.77-1.76,.44-.93,1.92-4.2,2.71-7.47h-2.81v-4.93h12.61c-.44-1.03-1.03-2.05-1.58-2.88l4.24-1.51c.99,1.32,1.92,3.03,2.51,4.39h13.79v4.93Zm-10.1,9.76h-3.94v3.47h3.94v-3.47Zm0,7.37h-3.94v3.56h3.94v-3.56Zm0,7.47h-3.94v4h3.94v-4Z"/>
        <path class="cls-1" d="M252.27,151.3c-.54,1.32-1.23,2.59-1.97,3.86h22.91v24.12c0,2.88-.54,4.44-2.56,5.32-1.92,.93-4.73,.98-8.72,.98-.25-1.61-1.03-4.05-1.77-5.61,2.51,.15,5.37,.15,6.21,.15,.84-.05,1.13-.29,1.13-.98v-2.93h-18.52c-.84,3.66-2.41,7.23-5.47,9.71-.79-1.22-3.01-3.66-4.24-4.44,4.24-3.66,4.58-8.88,4.58-13.42v-3.95c-1.87,1.95-3.84,3.76-6.11,5.32-.89-1.32-2.71-3.42-3.84-4.49,4.98-3.27,8.92-8.2,11.82-13.62h-10.69v-5.47h13.2c.79-2,1.43-3.95,1.97-5.91l6.06,1.37c-.49,1.51-1.03,3.03-1.58,4.54h24.04v5.47h-26.46Zm15.22,20.06v-3.17h-17.69c0,1.03-.05,2.05-.1,3.17h17.78Zm0-11.08h-17.69v3.08h17.69v-3.08Z"/>
        <path class="cls-1" d="M330.36,163.94c-6.95,14.84-23.11,19.97-41.88,21.72-.44-1.61-1.43-4.15-2.36-5.61,7.78-.54,15.12-1.66,21.33-3.86-1.38-1.42-3.35-3.08-5.12-4.54-1.97,.98-4.09,1.9-6.36,2.68-.69-1.32-2.36-3.47-3.6-4.49,10.15-3.12,16.95-7.91,20.69-12.64l6.36,1.46c-.99,1.12-1.92,2.2-3.01,3.27h8.82l1.08-.29,4.04,2.29Zm-6.5-17.97c-6.36,11.23-20.35,17.28-34.54,19.92-.54-1.46-1.68-3.86-2.71-5.13,4.98-.73,10-1.95,14.53-3.71-1.33-1.37-3.1-2.98-4.83-4.39-1.43,.78-2.91,1.51-4.48,2.2-.89-1.32-2.71-3.32-3.99-4.15,7.93-2.93,13.79-7.08,17.1-10.89l6.31,1.46c-.84,.88-1.72,1.76-2.66,2.64h10.4l1.03-.24,3.84,2.29Zm-21.58,3.08c-.44,.34-.94,.63-1.43,.98,2.07,1.46,4.14,3.22,5.57,4.74,3.15-1.61,5.96-3.56,8.13-5.71h-12.27Zm7.93,18.01c-.94,.63-1.92,1.27-2.86,1.9,2.02,1.46,4.24,3.27,5.76,4.83,3.35-1.81,6.16-4.05,8.28-6.74h-11.18Z"/>
        <path class="cls-1" d="M350.77,141.73c-1.08,3.08-2.36,6.2-3.84,9.28v34.61h-5.57v-25c-1.08,1.51-2.17,2.93-3.3,4.2-.44-1.42-1.87-4.83-2.76-6.3,4.09-4.44,7.83-11.42,10.05-18.45l5.42,1.66Zm30.1,.73v42.62h-5.57v-2.39h-18.52v2.83h-5.32v-43.06h29.41Zm-5.57,35.2v-30.17h-18.52v30.17h18.52Zm-7.09-19.97v4.2h4.73v13.08h-13.65v-13.08h4.38v-4.2h-5.67v-4.2h5.67v-4.98h4.53v4.98h5.96v4.2h-5.96Zm.34,8.2h-5.03v5.13h5.03v-5.13Z"/>
        <path class="cls-1" d="M417.39,155.74c5.27,3.76,12.86,9.37,16.41,13.23l-4.98,4.44c-3.05-3.61-9.75-9.18-15.08-13.23v25.29h-6.4v-23.82c-4.48,4.74-9.75,8.98-15.67,12.01-.94-1.56-2.76-3.95-4.04-5.27,8.97-4.15,16.65-11.72,21.23-19.19h-19.66v-5.96h42.71v5.96h-15.32c-.84,1.51-1.82,3.03-2.86,4.49v5.08l3.65-3.03Z"/>
        <path class="cls-1" d="M482.72,178.88c0,3.03-.64,4.69-2.51,5.61-1.87,.98-4.63,1.12-8.72,1.12-.25-1.61-1.13-4.25-2.02-5.76,2.61,.15,5.47,.15,6.31,.1,.84-.05,1.18-.34,1.18-1.12v-31.05h-30.3v37.79h-5.71v-43.3h41.78v36.61Zm-8.67-22.8h-24.58v-4.88h24.58v4.88Zm-16.85,20.06v3.22h-5.42v-19.53h20.05v16.31h-14.63Zm0-11.52v6.74h9.21v-6.74h-9.21Z"/>
        <path class="cls-1" d="M534.81,147.49s0,1.95-.05,2.64c-.64,21.82-1.18,29.58-3.2,32.17-1.38,1.81-2.76,2.34-4.73,2.68-1.87,.24-4.83,.2-7.73,.1-.1-1.61-.89-4.05-1.92-5.66,3.15,.29,6.06,.29,7.34,.29,.99,0,1.53-.2,2.17-.83,1.43-1.56,2.07-8.89,2.61-26.12h-10.54c-1.28,2.93-2.81,5.61-4.34,7.71-.79-.73-2.46-1.85-3.79-2.73v22.8h-13.15v3.56h-5.32v-36.27h5.57c.64-2.44,1.23-5.57,1.43-7.86l6.4,.88c-.84,2.44-1.72,4.88-2.56,6.98h7.64v7.91c2.86-4.1,5.22-10.01,6.65-15.72l5.57,1.27c-.49,2.1-1.18,4.15-1.92,6.2h13.89Zm-29.51,5.42h-7.83v7.91h7.83v-7.91Zm0,22.51v-9.57h-7.83v9.57h7.83Zm16.36-2.64c-1.38-2.93-4.43-7.71-6.85-11.28l4.58-2.59c2.46,3.37,5.71,8.01,7.24,10.84l-4.98,3.03Z"/>
        <path class="cls-1" d="M567.18,152.23v5.47h15.86v16.45c0,2.88-.59,4.49-2.66,5.37-2.02,.93-4.88,.98-8.67,.98-.25-1.71-1.13-4.15-1.97-5.71,2.46,.15,5.37,.15,6.11,.1,.84,0,1.08-.2,1.08-.83v-10.69h-9.75v21.97h-6.11v-21.97h-9.11v17.14h-5.91v-22.8h15.03v-5.47h-19.16v-5.66h19.76c-.74-1.76-1.68-3.76-2.51-5.37l5.81-1.81c1.23,2.25,2.86,5.18,3.69,7.18h18.18v5.66h-19.66Z"/>
        <path class="cls-1" d="M628.18,178.49c3.1,0,7.04-.24,9.06-.63,.2,1.42,.54,4.05,.84,5.42-1.87,.49-6.26,.54-10.2,.54h-19.41c-8.67,0-12.76-2.64-12.76-11.62v-25.39h-1.97v-5.13h41.88v5.13h-34.14v25.78c0,4.25,1.43,5.91,6.5,5.91h20.2Zm-24.49-15.67h13.6v13.13h-13.6v-13.13Zm4.73,9.23h3.84v-5.32h-3.84v5.32Zm19.66-11.37h-19.36v-11.62h19.36v11.62Zm-5.81-7.81h-8.08v4h8.08v-4Zm11.08,23.09h-13.89v-13.13h13.89v13.13Zm-5.07-9.23h-3.99v5.32h3.99v-5.32Z"/>
        <path class="cls-1" d="M655.73,167.6c-.39-1.17-1.18-2.98-2.02-4.74v22.7h-5.03v-18.84c-.99,3.42-2.12,6.49-3.35,8.74-.44-1.66-1.53-4.25-2.27-5.76,2.27-3.47,4.24-9.76,5.32-15.28h-4.04v-5.37h4.34v-9.08h5.03v9.08h3.3v5.37h-3.3v2.15c1.08,1.51,3.89,6,4.53,7.18l-2.51,3.86Zm31.19,3.37c-1.43,2.68-3.25,5.08-5.42,7.18,.94,1.03,1.92,1.61,3.05,1.76,.94,.1,1.53-1.66,1.87-5.08,.84,1.12,2.76,2.54,3.69,3.08-1.28,6.05-3.25,7.76-5.37,7.62-2.91-.24-5.32-1.71-7.24-4.15-2.32,1.61-4.98,2.98-7.78,4.05-.64-1.03-2.02-2.78-3.01-3.71,3.15-1.07,6.01-2.59,8.47-4.39-1.03-2.25-1.82-4.83-2.51-7.81h-6.7c-.05,.34-.05,.73-.1,1.07,2.02,1.61,4.83,3.86,6.26,5.27l-3.55,3.42c-.84-.98-2.27-2.25-3.69-3.52-1.13,3.47-3.15,6.98-6.7,9.76-.74-.93-2.81-2.73-3.89-3.32,5.22-3.81,6.55-8.79,6.7-12.69h-2.91v-4.44h13.75c-.84-4.98-1.33-10.74-1.68-17.09-1.92,3.61-4.34,7.27-6.7,10.15l2.76-.29c-.25-.73-.44-1.51-.64-2.2l3.4-.88c.79,2.29,1.63,5.22,1.97,7.03l-3.65,1.07c-.05-.44-.15-1.03-.3-1.66-5.91,.88-7.04,1.22-7.73,1.51-.25-.78-.89-2.88-1.38-3.95,.84-.2,1.63-.98,2.46-2.15,.44-.54,1.33-1.86,2.36-3.56-2.61,.34-3.45,.59-3.94,.83-.25-.88-.94-2.83-1.38-3.91,.64-.2,1.23-.78,1.77-1.76,.54-.88,2.36-4.39,3.3-7.81l4.19,1.07c-1.13,2.83-2.71,5.81-4.24,8.15l2.22-.2c.49-.98,.99-2,1.38-3.03l4.09,1.37c-.1-2.34-.2-4.88-.3-7.42h4.83c.2,9.57,.84,18.06,2.07,24.7h4.53c-.84-.73-1.77-1.46-2.56-2.1l2.22-1.81c-2.32,.39-3.05,.63-3.5,.88-.2-.83-.89-2.93-1.33-4,.79-.24,1.53-1.03,2.41-2.25,.44-.49,1.33-1.81,2.27-3.47-2.56,.34-3.35,.59-3.84,.83-.3-.88-.94-2.78-1.43-3.91,.64-.15,1.18-.78,1.72-1.66,.49-.83,2.12-4.15,2.96-7.37l4.19,1.12c-.99,2.64-2.41,5.32-3.84,7.52l2.22-.15c.44-.98,.89-2.05,1.28-3.03l4.24,1.37c-1.82,3.66-4.24,7.42-6.55,10.35l2.71-.29c-.25-.68-.44-1.42-.69-2.05l3.35-.93c.84,2.29,1.87,5.32,2.27,7.08l-3.5,1.22c-.1-.59-.25-1.27-.44-2-1.23,.19-2.27,.34-3.1,.49,1.33,.98,2.91,2.15,3.74,2.98l-1.28,1.17h3.94v4.44h-5.71l3.94,1.46Zm-9.26-1.46c.39,1.61,.84,2.98,1.33,4.25,1.13-1.32,2.12-2.73,2.91-4.25h-4.24Z"/>
        <path class="cls-1" d="M716.73,180.2c0,2.39-.44,3.61-2.07,4.39-1.58,.73-3.79,.83-6.8,.83-.25-1.37-1.03-3.27-1.77-4.54,1.77,.1,3.69,.1,4.29,.1,.64,0,.84-.2,.84-.83v-4.98c-2.46,1.76-4.93,3.42-7.14,4.83l-1.23-3.42c-.54,3.32-1.63,6.64-3.5,9.18-.84-1.12-3.05-3.22-4.09-3.91,2.61-3.81,2.81-9.18,2.81-13.43v-10.98h18.67v22.75Zm-2.76-36.61c2.07,3.51,4.68,8.3,5.86,11.23l-5.12,2.05c-.3-.88-.74-1.9-1.23-3.08-12.46,1.22-14.48,1.51-15.91,2.1-.3-1.12-1.23-3.76-1.82-5.22,.89-.19,1.72-.88,2.71-1.95,.99-1.07,3.99-4.83,5.81-8.69l5.91,1.66c-1.68,2.83-3.89,5.66-6.06,8.1l7.19-.54c-.74-1.42-1.43-2.78-2.07-3.95l4.73-1.71Zm-10.49,24.9c0,1.86-.1,4.05-.34,6.25,2.22-.98,5.12-2.44,8.08-4v-1.61l-2.36,2.29c-1.23-1.27-3.5-3.17-5.37-4.69v1.76Zm0-6.15v3.47l2.46-2.1c1.68,1.17,3.79,2.88,5.27,4.15v-5.52h-7.73Zm24.34-.83c-5.91,0-7.49-2.15-7.49-7.57v-13.87h5.81v5.76h12.12v4.98h-12.12v3.22c0,1.81,.3,2.49,1.87,2.49h7.19c1.38,0,3.45-.15,4.53-.39,.1,1.51,.34,3.61,.54,4.93-1.03,.34-3.1,.44-4.98,.44h-7.49Zm6.21,18.65c1.68,0,2.02-.83,2.27-5.32,1.18,.88,3.55,1.76,5.07,2.1-.59,6.4-2.12,8.3-6.8,8.3h-7c-5.81,0-7.24-1.71-7.24-7.03v-15.33h5.81v4.88h12.46v5.13h-12.46v5.32c0,1.71,.34,1.95,2.27,1.95h5.62Z"/>
        <path class="cls-1" d="M226.89,258.05v5.96h-42.76v-5.96h42.76Zm-2.66-32.03v5.86h-37.34v-5.86h37.34Zm-3.89,15.57v5.91h-30.05v-5.91h30.05Z"/>
        <path class="cls-1" d="M279.96,261.52v4.59h-29.81v-4.59h12.56v-2.2h-9.8v-4.39h9.8v-2.25h-9.46v-4.3l-3.25,4.39c-.59-1.27-1.77-3.17-2.96-4.93v19.04h-5.67v-17.53c-1.58,3.76-3.45,7.22-5.37,9.67-.54-1.66-1.77-4.05-2.71-5.52,2.76-3.17,5.47-8.35,7.29-13.08h-6.26v-5.42h7.04v-5.66c-2.07,.39-4.09,.73-6.01,.98-.3-1.32-.99-3.27-1.63-4.44,5.42-.93,11.48-2.34,15.27-4.05l3.89,4.44c-1.77,.68-3.74,1.32-5.86,1.85v6.88h5.27v5.42h-5.27v1.42c1.28,1.07,5.12,5.03,6.21,6.3v-11.81h9.46v-2h-11.08v-4.49h11.08v-2.05c-3.2,.15-6.36,.24-9.31,.29-.1-1.27-.74-3.17-1.28-4.34,8.08-.24,17.59-.88,23.35-2l3.35,4.34c-3.05,.59-6.7,1.03-10.49,1.32v2.44h10.59v4.49h-10.59v2h9.8v16.35h-9.8v2.25h9.8v4.39h-9.8v2.2h11.63Zm-21.63-18.75h4.38v-2.39h-4.38v2.39Zm4.38,5.91v-2.49h-4.38v2.49h4.38Zm5.62-8.3v2.39h4.53v-2.39h-4.53Zm4.53,5.81h-4.53v2.49h4.53v-2.49Z"/>
        <path class="cls-1" d="M303.76,249.7v12.4c0,2.1-.3,3.27-1.68,4-1.33,.73-3.01,.78-5.42,.78-.2-1.27-.79-3.12-1.43-4.34,1.33,.05,2.71,.05,3.15,.05,.49,0,.64-.15,.64-.59v-12.3h-5.12v-17.72h4.38c.15-1.22,.34-2.54,.49-3.76h-6.75v13.86c0,7.32-.49,17.77-3.55,24.26-.84-.88-3.01-2.44-4.14-2.98,2.56-5.96,2.71-14.6,2.71-21.24v-18.89h21.73v4.98h-4.43c-.39,1.32-.79,2.59-1.18,3.76h5.76v17.72h-5.17Zm-5.37,2.88c-.69,3.76-1.92,7.71-3.4,10.3-.89-.68-2.86-1.66-3.94-2.15,1.48-2.29,2.46-5.71,3.01-9.03l4.34,.88Zm5.91-16.6h-5.91v2.98h5.91v-2.98Zm-5.91,9.67h5.91v-2.98h-5.91v2.98Zm8.38,15.04c-.44-1.95-1.53-5.32-2.61-7.81l3.69-1.32c1.13,2.44,2.41,5.66,2.86,7.66l-3.94,1.46Zm12.56-.29c-2.32,2.49-6.06,5.13-9.06,6.59-.89-1.03-2.51-2.54-3.65-3.51,3.01-1.32,6.4-3.86,8.13-5.86l4.58,2.78Zm-2.51-28.85c.2-1.12,.34-2.29,.44-3.42h-7.59v-4.88h20.89v4.88h-7.59c-.34,1.17-.69,2.34-1.03,3.42h7.54v25.82h-18.47v-25.82h5.81Zm7.54,4.25h-8.42v3.12h8.42v-3.12Zm0,7.08h-8.42v3.12h8.42v-3.12Zm0,7.13h-8.42v3.17h8.42v-3.17Zm.69,7.66c2.22,1.86,5.22,4.49,6.7,6.3l-4.38,2.93c-1.33-1.81-4.24-4.59-6.5-6.59l4.19-2.64Z"/>
        <path class="cls-1" d="M340.28,230.86h-3.69v-4.88h9.41c-.44-1.17-.99-2.34-1.43-3.32l5.22-1.46c.79,1.46,1.58,3.22,2.12,4.78h6.75v4.05c2.96-2.64,5.03-5.76,6.26-8.54l5.57,.93c-.34,.78-.74,1.46-1.13,2.25h8.57l1.03-.15,3.55,1.17c-3.01,12.35-10.59,17.77-21.58,20.46-.59-1.32-1.77-3.32-2.76-4.34,2.36-.44,4.48-1.07,6.5-1.95-1.13-1.37-2.66-3.03-4.09-4.54-.49,.39-.99,.78-1.48,1.12-.89-1.22-2.76-2.93-3.99-3.61,.89-.63,1.77-1.27,2.61-1.95h-12.07v6.88c0,1.51,.2,2,1.43,2h6.31c1.13,0,2.96-.1,3.94-.34,.1,1.42,.25,3.52,.49,4.78-.94,.34-2.76,.39-4.29,.39h-6.4c-5.47,0-6.85-1.86-6.85-6.93v-6.79Zm21.92,30.46h18.97v4.78h-43.75v-4.78h18.82v-2.59h-16.16v-4.59h16.16v-2.59c-5.07,.24-10.15,.39-14.88,.39-.1-1.42-.74-3.42-1.23-4.64,12.51-.24,26.95-1.12,36.11-2.73l2.41,4.74c-4.73,.83-10.44,1.46-16.45,1.86v2.98h16.65v4.59h-16.65v2.59Zm6.36-23.58c.79-.54,1.48-1.03,2.17-1.66-1.58-1.47-3.89-3.22-6.01-4.74-.34,.39-.79,.83-1.18,1.27,1.68,1.66,3.65,3.61,5.03,5.13Zm-.74-8.69c1.87,1.32,3.94,2.73,5.62,4.05,.89-1.22,1.63-2.54,2.22-4.05h-7.83Z"/>
        <path class="cls-1" d="M433.25,240.53v6.3h-45.32v-6.3h45.32Z"/>
        <path class="cls-1" d="M454.99,253.71h-15.62v-5.81h15.62v5.81Zm-1.08-19.72h-13.55v-5.61h13.55v5.61Zm16.36,7.81c2.07,9.32,6.36,16.6,14.78,19.72-1.33,1.17-3.1,3.61-3.89,5.17-6.31-2.78-10.3-7.52-12.96-13.86-2.07,5.22-6.26,10.5-14.39,14.35-.89-1.42-3.01-3.66-4.43-4.78,13.2-6,14.58-15.52,14.58-21.82v-4.49h6.31v5.71Zm-8.62-6.98c-1.53,3.95-3.4,7.42-5.37,10.15-1.28-.98-4.29-2.64-5.86-3.37,4.09-4.54,7-12.35,8.42-20.21l6.5,1.07c-.49,2.25-1.03,4.44-1.68,6.59h14.83l1.13-.34,4.29,2.49c-1.28,5.17-3.35,10.4-5.12,14.16-1.18-.68-3.6-1.86-5.03-2.39,.94-2.05,2.07-5.17,2.91-8.15h-15.03Z"/>
        <path class="cls-1" d="M497.61,243.65c-1.63-1.51-4.98-3.47-7.69-4.69l3.2-4.25c2.71,1.03,6.21,2.73,7.88,4.25l-3.4,4.69Zm-6.85,19.77c1.82-3.76,4.43-9.96,6.36-15.67l4.73,3.03c-1.63,5.22-3.79,10.84-5.81,15.62l-5.27-2.98Zm30.54-25.97v2.34h13.4v22.16c0,2.29-.39,3.37-1.87,4.1-1.43,.73-3.45,.78-6.31,.78-.15-1.32-.74-3.08-1.28-4.25,1.53,.05,3.15,.05,3.65,0,.49,0,.69-.15,.69-.63v-3.22c-.64,.54-1.28,1.17-1.63,1.66-.94-1.07-1.68-2.54-2.17-4.25-.64,1.71-1.63,3.22-3.05,4.39-.3-.49-.84-1.17-1.43-1.71v7.76h-5.12v-7.62c-.54,.49-1.08,1.03-1.38,1.46-.89-1.07-1.53-2.44-2.07-4.05-.59,1.81-1.58,3.42-2.96,4.64-.34-.54-.99-1.27-1.58-1.81v7.62h-4.98v-27.05h12.96v-2.34h-6.95v-7.62h-6.7v-3.08l-3.1,4.2c-1.58-1.56-4.93-3.71-7.64-4.93l3.3-4.3c2.51,1.07,5.67,2.83,7.44,4.25v-1.17h6.7v-3.47h5.47v3.47h8.42v-3.47h5.71v3.47h6.75v5.03h-6.75v7.62h-7.54Zm-7,8.79c.1,4.25,.64,7.91,1.87,10.25v-11.86h-7.98v13.47c1.68-1.9,2.32-4.59,2.51-7.13h1.03l-.1-1.17h-2.22v-3.56h4.88Zm.39-13.62h8.42v-2.78h-8.42v2.78Zm6.6,12.01v12.89c1.58-1.76,2.27-4.2,2.46-6.54h1.03l-.1-1.17h-2.27v-3.56h4.88c.15,4.59,.79,8.4,2.27,10.74v-12.35h-8.28Z"/>
        <path class="cls-1" d="M567.67,260.35c2.36,.39,4.98,.54,7.64,.54,2.12,.05,9.41,0,12.12-.05-.79,1.32-1.72,4-2.02,5.61h-10.44c-9.9,0-17.54-1.76-22.66-9.23-1.63,3.76-3.74,7.13-6.75,9.57-.89-1.17-2.91-3.08-4.14-3.95,5.32-4.15,7.49-12.11,8.18-18.75l6.11,.68c-.3,1.9-.69,3.86-1.18,5.81,1.58,3.86,4.09,6.3,7.09,7.86v-17.28h-14.14v-17.77h34.68v17.77h-14.48v6h16.06v5.37h-16.06v7.81Zm-14.34-24.7h22.56v-6.69h-22.56v6.69Z"/>
      </g>
    </g>
  </g>
</svg>