<?xml version="1.0" encoding="UTF-8"?>
<svg id="_圖層_2" data-name="圖層 2" xmlns="http://www.w3.org/2000/svg" xmlns:xlink="http://www.w3.org/1999/xlink" viewBox="0 0 837.11 681.37">
  <defs>
    <style>
      .cls-1 {
        fill: #e3de47;
      }

      .cls-2 {
        fill: #fff;
      }

      .cls-3 {
        fill: #fdfdfd;
      }

      .cls-4 {
        fill: none;
        stroke: url(#_未命名漸層_20);
        stroke-miterlimit: 10;
        stroke-width: 5px;
      }
    </style>
    <linearGradient id="_未命名漸層_20" data-name="未命名漸層 20" x1="783.16" y1="731.68" x2="53.95" y2="-50.31" gradientUnits="userSpaceOnUse">
      <stop offset=".1" stop-color="#fff" stop-opacity=".6"/>
      <stop offset=".3" stop-color="#fff" stop-opacity="0"/>
      <stop offset=".5" stop-color="#fff" stop-opacity="0"/>
      <stop offset=".7" stop-color="#fff" stop-opacity="0"/>
      <stop offset=".9" stop-color="#fff" stop-opacity=".6"/>
    </linearGradient>
  </defs>
  <g id="_圖層_1-2" data-name="圖層 1">
    <g>
      <path class="cls-2" d="M470.7,180.43c.03,1.72,.06,3.43,.09,5.15,.39-1.68,.17-3.41-.09-5.15Z"/>
      <path class="cls-2" d="M638.43,293.83c-8.61-8.08-17.8-15.38-27.54-21.98-.21,0-.42-.01-.63-.02-2.1-.08-2.7,1.78-3.69,3.04-3.13,3.98-6.44,7.85-9.15,12.11-2.58,4.07-5.8,5.15-10.45,5.12-26.6-.22-53.21-.11-79.82-.11-6.56,0-14.41,1.87-14.41-4.61,0-58.87,.04-117.74-.08-176.61,0-1.5,.96-8.11,1.75-9.38,.78-1.24,1.52-1.39,3.06-1.66,2.47-.44,4.96-1.19,4.96-2.53,0-1.78-1.83-4.66-8.32-5.36-9.75,0-12.5-.37-22.82-.37,0,9.49,0,18.98-.03,28.47,0,1.23,.74,3.03-.7,3.64-1.45,.61-2.2-1.07-3.11-2.01-5.13-5.35-10.48-10.5-15.36-16.07-3.01-3.44-4.47-2.4-6.39,.87-2.39,4.06-5.13,7.91-8,12.29-.57-1.28-.94-1.74-.94-2.19-.03-16.28,.02-32.56-.07-48.84-.01-2.71,1.52-3.36,3.6-3.98,3.54-1.07,6.33-2.98,6.6-7.49-11.64-1.16-23.14-2.12-34.58-3.57-3.89-.49-4.8,.38-4.77,4.31,.19,20.18-.06,40.36,.2,60.54,.06,4.64-1.41,5.78-5.71,5.59-7.52-.33-15.06,.03-22.59-.14-3.38-.08-3.95,1.13-3.17,4.24,.77,3.06,2.01,4.61,5.44,4.44,5.68-.28,11.39,.15,17.06-.15,3.89-.21,5.18,.7,4.72,4.99-4.03,37.54-13.22,73.65-28.49,108.13-.96,2.16-1.83,4.13,.69,5.73,2.33,1.49,3.29-.64,4.47-1.9,8.59-9.13,15.19-19.78,22.22-30.11,1.43-2.1,2.43-4.5,4.17-7.78,1.44,3.76,1.07,6.28,1.07,8.73,.03,31.37,.09,62.75-.05,94.12-.02,3.99,1.05,5.33,5.05,5.17,6.7-.27,12.79-2.16,18.65-5.33,3.97-2.14,5.56-5,5.54-9.75-.19-45.79-.14-91.58-.13-137.37,0-1.8-.54-3.76,1.27-5.53,3.92,8.98,7.41,18.08,7.48,27.76,.05,7.53,4.51,10.42,9.87,12.97,4.52,2.15,7.96,.73,10.72-3.53,1.88-2.91,1.92-6.45,3.51-9.43,.69-.88,1.08-1.79,1.29-2.71-.03-1.72-.06-3.43-.09-5.15-.12-.79-.24-1.59-.31-2.37-1.15-6.05-4.32-10.93-8.52-15.23-4.89-5-10.56-8.99-16.87-11.7-5.91-2.55-7.83-6.52-7.31-12.73,.34-4.06,1.81-5.74,5.84-5.7,8.18,.08,16.37,.19,24.57-.18,2.75,.83,2.01,3.18,2.02,5.08,.07,14.28,.33,28.56,.59,42.83,.26,1.74,.48,3.47,.09,5.15,.04,1.94,.07,3.89,.11,5.83,.58,31.37,.14,62.75,.2,94.13,0,2.38-.38,4.35-2.42,5.73-.51,.44-1.02,.88-1.52,1.33q-4.72,4.22,.76,7.6c5,3.09,9.99,6.19,14.99,9.28,10.35,6.41,10.53,6.51,16.7-4.3,2.15-3.76,4.62-4.84,8.79-4.82,40.98,.17,81.97,.11,122.95,.11,2.18,0,4.39,.14,6.32-1.14,2.29-1.51,3.42-3,.76-5.5Z"/>
      <path class="cls-2" d="M431.76,628.91c-58.78-37.08-83.2-94.14-93.65-160.04-1.97,1.89-1.53,3.81-2,5.4-.48,1.63-.75,3.32-1.04,5-9.64,55.77-39.44,97.22-87.59,125.72-14.46,8.56-29.44,15.98-44.96,22.35-2.07,.85-4.12,2.04-5.45-1.02-1.27-2.92,1.28-3.49,2.83-4.48,12.31-7.83,24.01-16.47,35.11-25.98,40.15-34.38,60.38-79,66.31-130.97,1.12-9.83,2.9-9.08-7.75-9.08-29.23,0-58.45,.01-87.68-.04-1.89,0-4.36,.94-5.42-1.5-.79-1.81-1.66-4.11-1.2-5.83,.6-2.22,3.21-1.12,4.9-1.12,31.09-.07,62.17-.14,93.26,.05,4.4,.03,5.69-1.2,5.86-5.67,.93-24.53,1.58-49.05,1.18-73.59-.08-4.69,1.2-5.66,5.77-5.09,12.4,1.55,24.88,2.48,37.32,3.71,1.44,.14,3.48-.44,4.08,1.27,.7,2-.99,3.43-2.28,4.77-.35,.36-.78,.81-1.22,.88-6.8,1.06-6.15,6.17-6.18,11.14-.11,19.26-1.07,38.5-2.35,57.71-.26,3.91,.83,4.9,4.65,4.86,18.07-.2,36.15-.14,54.23-.03,2.82,.02,4.72-.88,6.45-3.1,5.11-6.57,10.5-12.92,15.58-19.5,1.93-2.5,3.41-3.11,6.15-.97,10.43,8.12,21.16,15.85,30.94,24.8,3.25,2.97,2.84,5.39-1.39,6.68-1.74,.53-3.66,.58-5.5,.58-34.63,.03-69.27,.1-103.9-.09-4.46-.02-5.04,1.25-4.14,5.28,10.58,47.89,37.74,83.73,78.27,109.88,11.99,7.73,24.65,14.17,37.72,19.8,1.55,.67,4.05,.62,3.99,3.19-.06,2.61-2.45,2.44-4.14,2.88-13.35,3.53-21.46,12.27-25.09,25.51-.54,1.96-1,3.95-1.68,6.68Z"/>
      <path class="cls-2" d="M195.64,318.41c-41.63,0-83.27,.01-124.9-.04-2.01,0-4.35,.98-5.55-2.27-1.93-5.23-1.42-6.39,3.83-6.39,31.44-.02,62.88-.15,94.31,.12,4.91,.04,5.77-1.62,5.77-6.35-.12-79.84-.09-159.69-.09-239.53,0-7.55,.02-7.58,7.31-6.86,11.67,1.15,23.35,2.32,35.01,3.59,1.55,.17,3.86-.47,4.34,1.83,.44,2.12-1.22,3.57-2.7,4.83-.13,.11-.27,.28-.42,.3-8.19,1.16-6.62,7.73-6.63,13.42,0,27.94,.09,55.87-.12,83.81-.03,4.4,1.26,5.54,5.18,5.47,12.4-.2,24.81-.16,37.21,0,2.88,.04,4.66-1.04,6.35-3.41,5.11-7.2,10.53-14.15,15.61-21.37,1.72-2.44,2.95-2.71,5.24-.83,10.46,8.63,21.27,16.79,30.85,26.57,3.18,3.25,2.65,5.9-1.67,7.19-1.92,.57-4.03,.54-6.05,.54-29.06,.03-58.12,.15-87.17-.1-4.7-.04-5.56,1.56-5.55,6.12,.15,39.65,.15,79.3,0,118.96-.02,4.34,.84,5.85,5.24,5.78,18.86-.27,37.72-.18,56.58-.05,3.2,.02,5.36-.98,7.3-3.74,5.07-7.22,10.49-14.18,15.65-21.34,1.66-2.3,2.91-2.79,5.26-.74,10.38,9.03,20.95,17.8,31.38,26.76,3.66,3.15,3.25,5.48-1.17,7.04-1.57,.55-3.33,.7-5.01,.7-41.8,.04-83.6,.03-125.41,.03v-.02Z"/>
      <path class="cls-2" d="M548.38,577.43c0-15.3,.02-30.61-.02-45.91,0-1.63,.77-3.92-.91-4.71-1.86-.88-2.66,1.55-3.8,2.61-9.67,9.02-19.92,17.26-31.01,24.43-1.64,1.06-3.32,2.02-4.95,.19-1.7-1.9,.19-3.1,1.15-4.31,26.46-33.26,43.89-71.14,55.76-111.79,1.4-4.79,2.65-6.27,7.72-4.19,10.44,4.28,21.2,7.79,31.81,11.67,1.35,.49,3.53,.51,3.53,2.29,0,1.69-1.66,2.84-3.27,3.57-.46,.21-.96,.6-1.4,.54-6.54-.86-7.95,4.33-10.01,8.66-3.73,7.83-8.06,15.32-12.63,22.66-.83,1.34,0,4.92,.19,8.65,.21,4.14,.27,8.75,.27,9.84-.03,19.55,.02,39.11,.02,58.66,0,18.53-.15,37.07,.04,55.6,.04,4.06-1.43,6.27-4.94,7.8-7.19,3.14-14.58,5.06-22.49,5.21-3.87,.07-5.24-.89-5.17-5.06,.25-15.47,.1-30.94,.1-46.42Z"/>
      <path class="cls-2" d="M543.87,395.89c10.11,0,20.23-.1,30.34,.06,3.3,.05,4.42-1.04,4.35-4.4-.19-8.33,0-16.67-.08-25.01-.03-2.83,.83-3.91,3.85-3.61,11.4,1.13,22.83,1.99,34.25,3.04,1.54,.14,3.89-.46,4.22,1.8,.29,1.98-1.32,4.01-3.01,4.29-8.08,1.32-6.6,7.36-6.6,12.75,0,2.21,.18,4.44-.05,6.63-.35,3.3,.82,4.53,4.19,4.5,16.01-.12,32.02-.13,48.03,0,3.37,.03,4.33-1.23,4.26-4.5-.19-8.16,.01-16.33-.1-24.5-.04-2.87,.42-4.38,3.88-4.03,11.74,1.18,23.51,2.05,35.26,3.11,1.4,.13,3.43-.3,3.76,1.72,.3,1.82-.99,3.81-2.49,4.06-8.62,1.45-6.79,8.01-6.82,13.63-.05,10.44,.06,9.66,10.26,10.66,10.27,1,17.23-2.15,22.26-11.25,2.13-3.85,4.45-9.53,8.59-9.93,3.75-.36,6.98,4.72,10.52,7.3,6.03,4.39,11.55,9.39,16.71,14.78,2.89,3.02,2.38,5.4-1.6,6.59-1.89,.57-3.99,.58-5.99,.58-18.37,.04-36.74,.15-55.11-.06-4.26-.05-6.34,.81-5.71,5.56,.36,2.67,.07,5.44,.06,8.16-.01,7.29-.3,7.68-7.44,9.81-7.17,2.13-14.53,2.75-21.97,3.08-3.53,.15-4.28-1.28-4.19-4.44,.18-5.95-.07-11.91,.1-17.86,.08-3.01-.81-4.27-3.98-4.25-16.18,.11-32.36,.11-48.54,0-3.15-.02-4.09,1.16-3.95,4.21,.21,4.58-.06,9.19,.1,13.78,.1,2.78-.99,4.52-3.44,5.58-8.57,3.68-17.59,4.42-26.76,4.27-2.44-.04-2.54-1.66-2.54-3.49,.02-6.13-.27-12.27,.09-18.37,.27-4.55-.92-6.12-5.76-6.05-19.04,.3-38.09,.12-57.14,.12-2.17,0-4.23,.31-5.1-2.75-1.41-4.94-1.2-5.51,3.96-5.53,9.78-.04,19.55-.01,29.33-.01Z"/>
      <path class="cls-2" d="M680.62,602.37c-27.79,0-55.58,0-83.36,0-2.31,0-4.53,.42-5.6-2.83-2.01-6.13-1.91-6.52,4.52-6.52,38.74,0,77.47-.07,116.2,.09,4.43,.02,7.47-1,10.04-4.92,4.07-6.23,8.88-11.97,13.19-18.05,1.71-2.42,3.05-3.09,5.58-.95,10.08,8.5,20.46,16.64,29.8,26,3.02,3.03,2.58,5.16-1.54,6.52-1.71,.57-3.64,.65-5.47,.65-27.79,.04-55.58,.03-83.36,.02Z"/>
      <path class="cls-3" d="M680.5,493.04c-22.4,0-44.8,0-67.19,0-3.99,0-8.1-5.28-7.09-9.07,.51-1.9,1.86-.81,2.86-.81,29.81-.01,59.61-.08,89.42,.09,3.83,.02,6.18-1.19,8.34-4.3,4.34-6.27,9.16-12.19,13.59-18.39,1.6-2.24,2.73-2.82,5.05-.82,9.72,8.39,19.86,16.3,28.86,25.53,3.46,3.55,2.81,6.1-2.14,7.22-2.43,.55-5.01,.52-7.53,.52-21.39,.04-42.77,.02-64.16,.02Z"/>
      <g>
        <path class="cls-1" d="M513.26,85.52c38.99,.17,77.98,.09,116.97,.1,2.35,0,4.75,.19,6.89-.97,3.52-1.91,4.83-4.18-2.24-8.08-7.36-4.06-13.73-9.68-19.28-15.99-3.8-4.33-5.27-4.08-7.32-1.33-3.42,4.61-7.35,8.84-10.51,13.61-2.48,3.73-5.43,4.64-9.64,4.57-15.22-.25-30.2,.37-45.67,.09-21.09-.37-40.38-2.12-58.39-13.42-5.06-3.18-5.42-2.68-5.43,3.24,0,4.71-.01,9.42-.02,14.13,0,2.8,2.27,5.07,5.07,5.07,0,0,27.85-1.04,29.58-1.03Z"/>
        <path class="cls-1" d="M634.58,197.61c-4.77-3.44-9.28-7.24-13.9-10.88q-6.17-4.87-11.51,1c-6.14,6.76-10.53,7.7-18.97,4.1-6.26-2.67-12.53-5.33-19.38-8.24,0,3.83,.04,6.86-.02,9.88-.03,1.28,.67,3.03-.87,3.66-1.4,.58-2.33-.99-3.35-1.76-3.75-2.85-7.69-5.5-11.08-8.74-3.79-3.62-6.29-3.22-9.73,.7-6.72,7.64-10.86,8.21-20.23,4.17-5.77-2.49-11.54-4.94-17.75-7.59,0,29.52,0,58.17,.01,86.82,0,1.44-.5,3.44,1.64,3.67,6.03,.66,11.55-1.18,16.85-3.93,4.02-2.09,2.7-5.83,2.7-9.02,0-3.03,.92-4.44,4.04-4.11,1.49,.16,3.03,.19,4.51,0,3.32-.43,4.31,.95,4.33,4.26,.06,9.09,.67,9.49,9.71,7.39,2.43-.56,4.77-1.55,7.18-2.26,3.63-1.06,4.75-3.42,4.71-7.21-.17-17.12,.11-34.25-.19-51.37-.08-4.68,2.83-5.9,5.77-5.94,3.32-.04,1.69,3.42,1.7,5.23,.13,20.18,.21,40.36-.02,60.53-.05,4.35,1.53,5.23,5.26,4.88,4.21-.4,8.19-1.49,12.14-2.99,3.79-1.44,5.9-3.8,5.08-8.05-.69-3.59,.62-4.97,4.18-4.48,1.48,.2,3.03,.21,4.51,0,3.48-.51,4.28,1.14,4.13,4.33-.18,3.61-1.25,7.95,4.33,8.78,.03,0-.07,.92-.11,1.41,.21,0,.42,0,.63,.02-.72-2.32,.93-2.38,2.44-2.75,2.76-.68,5.48-1.51,8.22-2.23,4.71-1.23,6.6-3.94,6.48-9.18-.36-14.74,0-29.5-.19-44.25-.06-5.09-.41-9.64,6.15-11.03,2.68-.57,3.78-2.5,.58-4.81Zm-92.75,28.29c0,6.43-.11,12.87,.05,19.3,.07,2.85-.87,4.12-3.73,3.81-.99-.11-2.02-.14-3,0-4.72,.73-6.35-1.04-6.2-6.05,.36-12.01,.27-24.04,.02-36.06-.08-4.03,1.06-5.7,5.07-5.09,1.14,.17,2.35,.14,3.5,0,3.22-.38,4.46,.88,4.35,4.27-.21,6.6-.06,13.21-.06,19.81Zm64.16-.4c0,6.43-.09,12.87,.04,19.3,.06,2.88-.58,4.34-3.86,4.26-10.99-.26-8.8,1.07-8.91-8.64-.13-11.34,.12-22.69-.13-34.02-.08-3.75,1.26-4.87,4.62-4.57,1.49,.13,3.01,.1,4.51,0,2.77-.18,3.85,.98,3.79,3.86-.15,6.6-.05,13.2-.05,19.81Z"/>
        <path class="cls-1" d="M619.68,111.79c-4.65-3.32-9.13-6.87-13.73-10.27-3.37-2.49-6.87-6.93-10.18-6.81-3.73,.14-6.16,5.61-9.2,8.71-1.99,2.03-3.65,3.81-7.03,4-18.12,1.04-35.7-.33-51.92-9.63-.43-.25-.94-.37-1.39-.59-2.71-1.33-3.28-.47-3.24,2.49,.18,12.88,.08,25.77,.08,38.66h.03c0,13.06,.07,26.11-.06,39.16-.03,2.84,.76,3.86,3.65,3.81,7.01-.13,13.56-1.86,19.75-5.11,2.04-1.07,3.72-2.48,3.3-5.12-.66-4.18,1.54-4.65,4.94-4.56,7.52,.21,15.05,.07,22.58,.07,7.76,0,7.93-.01,7.92,7.9,0,3.58,1.19,4.74,4.67,4.59,6.66-.29,12.79-2.29,18.81-4.98,2.8-1.25,3.9-3.11,3.86-6.29-.16-12.71,.16-25.44-.15-38.14-.15-5.91-.16-10.86,6.98-12.66,3.47-.88,3.29-3.1,.33-5.22Zm-34.34,42.32c.04,2.93-1.01,3.87-3.76,3.84-9.36-.09-18.72-.11-28.08,.01-2.77,.04-3.89-.82-3.8-3.76,.18-5.75,.05-11.52,.05-17.27,0-5.76,.15-11.52-.06-17.27-.12-3.17,1.04-4.06,4.04-4.01,9.19,.16,18.38,.14,27.57,0,2.89-.04,4.1,.6,4.04,3.9-.21,11.51-.16,23.03-.02,34.55Z"/>
      </g>
      <rect class="cls-4" x="2.5" y="2.5" width="832.11" height="676.37"/>
    </g>
  </g>
</svg>