<?xml version="1.0" encoding="utf-8"?>
<!-- Generator: Adobe Illustrator 27.0.0, SVG Export Plug-In . SVG Version: 6.00 Build 0)  -->
<svg version="1.1" id="_圖層_2" xmlns="http://www.w3.org/2000/svg" xmlns:xlink="http://www.w3.org/1999/xlink" x="0px" y="0px"
	 viewBox="0 0 445.3 193" style="enable-background:new 0 0 445.3 193;" xml:space="preserve">
<style type="text/css">
	.st0{fill:#FFFFFF;}
</style>
<g id="_圖層_1-2">
	<g>
		<path class="st0" d="M0,25.7h84.4v10.2H49.2V39H77v31.3H52c3.5,0.5,8.7,1.3,15.5,2.5c7.7,1.4,13.2,2.2,16.5,2.5l-4.9,10.5
			c-11.2-2.8-22-5.3-32.3-7.4l4.6-8.1h-19l5.3,8.1c-7.5,2.1-18.2,4.4-32,7c-0.5-0.9-1.3-2.5-2.5-4.6C2,78.2,1,76.4,0.3,75.2
			c12-1.4,22.1-3,30.6-4.9H7.4V39h27.8v-3.2H0C0,35.9,0,25.7,0,25.7z M2.5,6h15.1V0.7h14.1V6h20.7V0.7h14.1V6h15.5v10.2H66.4v6.7
			H17.6v-6.7H2.5V6z M21.8,47.8V51h13.4v-3.2H21.8z M21.8,58.3v3.5h13.4v-3.5H21.8z M31.6,16.5h20.7v-3.2H31.6V16.5z M62.6,47.8
			H49.2V51h13.4V47.8z M49.2,61.9h13.4v-3.5H49.2V61.9z"/>
		<path class="st0" d="M96.7,43.6h28.1V39h-17.9v-6c-3.3,1.6-6.9,3.4-10.9,5.3c-1.2-2.6-3.2-6.3-6-11.2c-0.7-0.9-1.2-1.6-1.4-2.1
			c19.7-6.8,32.4-15.1,38.3-25l16.9,1c-0.2,0.2-0.6,0.8-1.1,1.8c-0.7,0.7-1.2,1.3-1.4,1.8c8.4,9.4,19.8,15.8,34.1,19.3
			c-2.4,4.2-4.8,8.8-7.4,13.7c-3.8-1.4-7.3-2.9-10.5-4.6v6h-17.6v4.6h27.8v12.3h-11.2l8.4,4.2c-0.9,0.9-2.1,2.3-3.5,4.2
			c-2.1,2.8-3.8,4.9-4.9,6.3h16.2v11.6H91.7V70.6h15.5c-2.1-3-4.6-6.3-7.4-9.8l8.1-4.9H96.7C96.7,55.9,96.7,43.6,96.7,43.6z
			 M120.6,66.8l-6.3,3.9h10.5V55.9h-13.4c0.9,1.2,2.2,2.7,3.9,4.6C117.6,63.3,119.4,65.4,120.6,66.8L120.6,66.8z M133.2,14.8
			c-4.2,4.5-9.3,8.6-15.1,12.3h28.5C141.9,23.5,137.4,19.4,133.2,14.8z M143.8,67.1c0.7-0.9,1.8-2.3,3.2-4.2c2.3-3,4.1-5.4,5.3-7
			h-12.3v14.8h10.2L143.8,67.1L143.8,67.1z"/>
		<path class="st0" d="M180.3,65.4h84v14.4h-84C180.3,79.8,180.3,65.4,180.3,65.4z M185.2,6.7H259v14.8h-73.8L185.2,6.7L185.2,6.7z
			 M189.4,35.8h65.7v14.4h-65.7L189.4,35.8L189.4,35.8z"/>
		<path class="st0" d="M283.3,85.1V73.5h-13.7V62.9h13.7v-4.2h-11.6V21.8h11.6v-3.9h-13V7h13V0.7h11.6V7h12.6v10.9h-12.6v3.9h11.2
			v36.9h-11.2v4.2h13v10.5h-13v11.6H283.3z M280.8,30.9v5.3h3.9v-5.3H280.8z M280.8,44.3v5.3h3.9v-5.3H280.8z M297.4,30.9h-3.9v5.3
			h3.9V30.9z M297.4,49.6v-5.3h-3.9v5.3H297.4z M310,84.7V14.1h15.1V1h11.6v13h15.1v70.7h-10.5v-4.9h-20.7v4.9H310L310,84.7z
			 M320.5,26v15.5h4.6V26H320.5z M320.5,52.7v15.8h4.6V52.7C325.1,52.7,320.5,52.7,320.5,52.7z M341.3,26h-4.6v15.5h4.6V26z
			 M336.7,52.7v15.8h4.6V52.7C341.3,52.7,336.7,52.7,336.7,52.7z"/>
		<path class="st0" d="M364.1,13.7l1.8,1.4c2.6-4.9,4.9-9.7,7-14.4l12.3,4.2c-2.6,4.2-6.1,9.5-10.5,15.8c1.4,0.9,2.6,1.8,3.5,2.5
			c0.5-0.7,1.3-1.9,2.5-3.5c1.4-2.6,2.6-4.4,3.5-5.6l9.5,5.6c-2.8,4.7-7.1,11.1-13,19.3l6.7-2.1c0.7,1.9,1.6,4.7,2.8,8.4
			c1.2,3.5,2,6.3,2.5,8.4v-5.6h17.9v10.9c-0.9,5.4-3.2,10.2-6.7,14.4h4.2c2.3,0,3.5-1.2,3.5-3.5V44H394V7h13l1.4-6l14.1,0.7L420.7,7
			h19.3v36.9h-16.5v2.8c1.4,2.8,2.6,5.4,3.5,7.7c3.3-2.8,6.4-5.8,9.5-9.1l8.4,7.4c-2.4,2.1-5.5,4.8-9.5,8.1c-1.2,0.9-2,1.6-2.5,2.1
			c3.5,3.1,7.6,5.9,12.3,8.4c-1.4,2.1-3,5-4.9,8.8c-0.5,0.9-0.8,1.6-1,2.1c-8-5.4-13.2-10.3-15.8-14.8v7c0,6.1-2.8,9.2-8.4,9.5
			c-2.6,0.2-6.2,0.3-10.9,0.3c-0.7-3.1-1.4-6.2-2.1-9.5c-2.4,2.8-5.3,5.7-8.8,8.8c0-0.2-0.1-0.7-0.4-1.4c-0.5-1.2-1.2-2.9-2.1-5.3
			l-4.9,1.4c-0.2-1.6-0.9-4.3-2.1-8.1c-0.9-4.2-1.6-7.4-2.1-9.5l6.3-1.4l3.2,10.9c3.8-2.8,6.2-6.6,7.4-11.2h-6v-2.5l-7,2.1l-1.8-6
			l-2.5,0.3v32.7h-10.9V54.2h-1c-0.7,0-1.8,0.1-3.2,0.3c-3,0.2-5.2,0.5-6.3,0.7L357.1,44l7.4-0.3c0.7-0.9,1.8-2.5,3.2-4.6
			c2.1-2.8,3.8-5,4.9-6.7c-2.8-1.9-7-4.8-12.6-8.8c0.7,0.5-0.1-0.1-2.5-1.8L364.1,13.7L364.1,13.7z M369.4,61.9
			c-0.7,8.2-1.4,15.3-2.1,21.4l-8.4-1.1c0-0.7,0.1-1.6,0.4-2.8c0.9-5.2,1.8-11.2,2.5-18.3L369.4,61.9L369.4,61.9z M381,43.2
			c0-0.5-0.1-1-0.4-1.8c-0.2-0.9-0.5-1.5-0.7-1.8l-2.5,3.5L381,43.2L381,43.2z M405.6,17.2v4.6h22.5v-4.6H405.6z M405.6,29.5v4.6
			h22.5v-4.6H405.6z"/>
		<path class="st0" d="M58,130.5l-16.2,2.8c-1.4-6.3-4.9-9.4-10.5-9.1c-9.1-0.2-13.8,8-14.1,24.6c4-5.4,9.8-8.2,17.6-8.4
			c15.5,0.9,23.8,9.1,25,24.6c-0.9,16.9-10.4,25.7-28.5,26.4C10.2,192-0.1,178.8,0.3,151.6c0.7-26.2,10.9-39.7,30.6-40.4
			C45.7,111.1,54.7,117.6,58,130.5L58,130.5z M43.2,166c-0.2-8.2-4.5-12.4-12.6-12.6c-8,0.2-12.2,4.2-12.6,11.9
			c0.2,8.4,4.7,12.9,13.4,13.4C38.8,177.9,42.8,173.7,43.2,166L43.2,166z"/>
		<path class="st0" d="M79.9,135.4l13.4,4.2v-10.2h15.5v41.8c-0.2,4,1.6,5.9,5.6,5.6h4.9c3.5,0,5.6-1.9,6.3-5.6
			c0.5-3,0.9-6.9,1.4-11.6c2.1,0.9,5.4,2.1,9.8,3.5c2.1,0.7,3.8,1.3,4.9,1.8c-0.7,5.4-1.6,10.4-2.8,15.1c-1.6,7-7.3,10.4-16.9,10.2
			h-12.3c-11.2,0.2-16.8-5.2-16.5-16.2v-33.4c-3.5,12.6-6.8,23.6-9.8,32.7l-13.4-5.3c0.2-0.9,0.7-2.6,1.4-4.9
			C75.3,151.2,78.1,141.9,79.9,135.4L79.9,135.4z M106,108.7c7,3.8,15.5,8.8,25.3,15.1l-9.1,12.3c-9.8-6.8-18.2-12.2-25-16.2
			L106,108.7L106,108.7z M141.1,134c4.2,6.3,9.6,15,16.2,26l-13,7.4c-0.9-1.6-2.7-4.7-5.3-9.1c-4.9-8.2-8.4-14.1-10.5-17.6
			L141.1,134L141.1,134z"/>
		<path class="st0" d="M171.1,177.2h35.1v-13h-28.8v-13.4h28.8v-11.9h-16.9c-1.2,2.4-3.1,5.9-5.6,10.5c0.2-0.5,0-0.1-0.7,1.1
			c-1.9-1.2-6.3-3.5-13.4-7c6.3-9.4,10.8-19.7,13.4-30.9l14.8,2.5c-0.9,3.5-2,6.9-3.2,10.2h11.6V109h15.1v16.2h27.8v13.7h-27.8v11.9
			h24.2v13.4h-24.2v13h31.3v13h-81.6V177.2L171.1,177.2z"/>
		<path class="st0" d="M272.9,131.5c5.4,4.2,10.2,8.4,14.4,12.6l-10.2,10.2c-4.5-4.9-9-9.5-13.7-13.7L272.9,131.5L272.9,131.5z
			 M274.3,109.4c5.9,4.2,10.9,8.3,15.1,12.3l-9.8,10.2c-4.7-4.7-9.5-9.1-14.4-13.4L274.3,109.4L274.3,109.4z M274.3,157.2l13.4,4.6
			c-0.5,1.9-1.3,4.9-2.5,9.1c-2.6,9.4-4.6,16.6-6,21.8l-13.7-4.2C269,178.6,271.9,168.2,274.3,157.2z M290.1,113.2
			c20.9-0.5,39-1.3,54.5-2.5l1.4,11.6c-7,0.7-13.9,1.2-20.7,1.4v8.4h23.5v12.3h-23.5v8.8h20v39h-14.1v-4.6h-26.4v4.6h-14.1v-39h20
			v-8.8H288v-12.3h22.9v-7.7c-2.1,0.2-5.4,0.3-9.8,0.3c-4.2,0.2-7.4,0.3-9.5,0.3v-1.8C291.3,120.9,290.8,117.5,290.1,113.2
			L290.1,113.2z M304.9,164.9v11.6h26.4v-11.6H304.9L304.9,164.9z"/>
		<path class="st0" d="M363.3,193v-81.5h79.8V193h-13v-2.8h-53.4v2.8L363.3,193L363.3,193z M427,138.2h-10.2
			c0.2,0.9,0.7,1.8,1.4,2.5h10.5v8.1h-4.2c1.6,1.6,3.5,2.9,5.6,3.9V122h-53.4v32.3c3.5-1.6,6.6-3.5,9.1-5.6h-7.7v-8.1h14.8
			c0.5-0.7,0.8-1.5,1-2.5h-14.4v-8.1h4.6l-2.5-4.6l10.5-1.1c0.2,0.9,0.7,2.1,1.4,3.5c0.5,0.9,0.8,1.6,1,2.1h1c0.5-2.1,0.7-4.4,0.7-7
			h9.5c0,0.7-0.1,1.9-0.4,3.5c0,1.6-0.1,2.8-0.4,3.5h5.6c0.5-0.7,1-1.9,1.8-3.5c0.5-1.2,0.8-2,1-2.5l10.2,0.7l-3.2,5.3h6.3
			L427,138.2L427,138.2z M417.1,167.7c0.5-1.4,0.8-2.9,1-4.6c0.7,0.2,1.8,0.6,3.2,1.1c2.8,0.9,4.9,1.5,6.3,1.8
			c-0.2,0.7-0.5,1.6-0.7,2.8c-0.2,1.6-0.5,2.8-0.7,3.5c-1.4,4.2-4.9,6.2-10.5,6h-21.4c-6.6,0.2-9.7-2.6-9.5-8.4v-8.1
			c-2.1,0.9-4.2,2.1-6.3,3.5l-1.8-4.2v19.3h53.4v-23.2c-0.7,0.9-1.4,2.7-2.1,5.3c-0.2,0.5-0.4,0.8-0.4,1.1
			c-3.8-1.9-7.3-4.3-10.5-7.4c0,2.1-0.1,4-0.4,5.6c-0.2,4.2-2.6,6.4-7,6.7h-9.1c-0.2-0.7-0.6-1.8-1-3.2c-0.2-0.9-0.5-1.8-0.7-2.5
			h6.7c1.2,0,1.8-0.4,1.8-1.1c0.2-0.5,0.4-0.8,0.4-1.1h-12.3v6.7c0,1.9,0.9,2.8,2.8,2.8h15.1C415.6,170.2,416.9,169.4,417.1,167.7
			L417.1,167.7z M414.7,153c-0.5-0.5-1.2-1.5-2.1-3.2c-0.2-0.5-0.5-0.8-0.7-1.1h-13c-0.5,1.2-1.5,2.6-3.2,4.2L414.7,153L414.7,153z
			 M408,140.7c-0.2-0.2-0.4-0.7-0.4-1.4c-0.2-0.5-0.4-0.8-0.4-1.1h-3.9c0,0.9-0.2,1.8-0.7,2.5H408L408,140.7z"/>
	</g>
</g>
</svg>
