<?xml version="1.0" encoding="utf-8"?>
<!-- Generator: Adobe Illustrator 27.0.0, SVG Export Plug-In . SVG Version: 6.00 Build 0)  -->
<svg version="1.1" id="_圖層_2" xmlns="http://www.w3.org/2000/svg" xmlns:xlink="http://www.w3.org/1999/xlink" x="0px" y="0px"
	 viewBox="0 0 987.8 235.9" style="enable-background:new 0 0 987.8 235.9;" xml:space="preserve">
<style type="text/css">
	.st0{fill:none;stroke:url(#SVGID_1_);stroke-width:2;stroke-miterlimit:10;}
	.st1{fill:#E2DD47;}
</style>
<g id="_圖層_1-2">
	<g>
		
			<linearGradient id="SVGID_1_" gradientUnits="userSpaceOnUse" x1="625.1143" y1="-161.3734" x2="362.6458" y2="401.4934" gradientTransform="matrix(1 0 0 -1 0 238)">
			<stop  offset="0" style="stop-color:#FFFFFF;stop-opacity:0.8"/>
			<stop  offset="0.2" style="stop-color:#FFFFFF;stop-opacity:0"/>
			<stop  offset="0.5" style="stop-color:#FFFFFF;stop-opacity:0"/>
			<stop  offset="0.8" style="stop-color:#FFFFFF;stop-opacity:0"/>
			<stop  offset="1" style="stop-color:#FFFFFF;stop-opacity:0.8"/>
		</linearGradient>
		<path class="st0" d="M15.5,1h956.8c8,0,14.5,6.5,14.5,14.5v204.9c0,8-6.5,14.5-14.5,14.5H15.5c-8,0-14.5-6.5-14.5-14.5V15.5
			C1,7.5,7.5,1,15.5,1z"/>
		<g>
			<g>
				<path class="st1" d="M179.2,154.7c0,8.9-1.9,13.7-7.4,16.5c-5.5,2.9-13.6,3.3-25.6,3.3c-0.7-4.7-3.3-12.5-5.9-16.9
					c7.7,0.4,16,0.4,18.5,0.3s3.5-1,3.5-3.3V63.5H73.4v110.8H56.6v-127h122.5L179.2,154.7L179.2,154.7z M153.7,87.8H81.6V73.5h72.1
					V87.8z M104.3,146.7v9.4H88.4V98.8h58.8v47.8H104.3L104.3,146.7z M104.3,112.9v19.8h27v-19.8H104.3z"/>
				<path class="st1" d="M325.8,79.7h-22.2l9.5,2.4c-1.5,1.7-2.9,3.4-4.3,5h17v38.5h-90.5V87.1h17.9c-1.2-1.7-2.3-3.4-3.6-5l7.4-2.4
					h-24.9v8.6c0,24.8-2.3,61.7-17.2,85.3c-3.3-2.9-10.8-7.2-15.3-8.9c14.2-21.6,15.3-53.8,15.3-76.5V46h110.8L325.8,79.7
					L325.8,79.7z M308.6,59h-76.4v7.7h76.4C308.6,66.8,308.6,59,308.6,59z M241.4,130.1h79.5v44.2h-17.5v-4.1h-45.4v4.1h-16.6V130.1
					z M251.1,116.3h21.1v-20h-21.1V116.3z M262.5,97c3.3,3.9,6.9,9.3,8.4,13l-10.5,5.9c-1.3-3.9-4.8-9.4-8.1-13.6L262.5,97L262.5,97
					z M258.1,140.4v5.1h45.4v-5.1H258.1z M303.4,159.8v-5.4h-45.4v5.4H303.4z M292.6,87.1c1.6-2.4,3.5-5.2,4.8-7.4h-33
					c1.9,2.3,3.6,5.2,4.8,7.4H292.6L292.6,87.1z M309.2,96.3H288v20h21.2V96.3z M288.1,110.3c3-3.4,6.9-9.6,9.1-13.7l10.7,5.7
					c-3.5,5.2-7.2,10-10.1,13.3L288.1,110.3L288.1,110.3z"/>
				<path class="st1" d="M396.5,115.9c-4.6,1.4-9.2,2.9-13.9,4.2v36.2c0,7.9-1.3,12.2-5.6,14.9c-4.5,2.7-10.5,3.3-20.1,3.1
					c-0.4-4.1-2.3-11.2-4.2-15.8c5.1,0.3,10.1,0.3,11.9,0.1c1.7,0,2.5-0.6,2.5-2.4v-31.6c-4.8,1.4-9.5,2.7-13.7,3.9l-3.8-16.3
					c4.9-1,11-2.6,17.5-4.2V83.2h-15.2V67.6H367V40.7h15.6v26.9h13.1v15.6h-13.1v20.6l11.7-3.3L396.5,115.9L396.5,115.9z M419,40.6
					h15.3v60.3c0,28.8-3,55.5-28.2,73.4c-2.9-3.4-8.8-8.7-12.3-11.3c10-6.9,16-15,19.6-24.2c-5.8,2.4-11.6,4.6-16.9,6.6l-6.5-14.8
					c7.2-1.9,17.2-4.9,27.7-8.2c0.6-4.4,0.9-9,1-13.6H399V94H419V79.2h-21.4V63.9H419L419,40.6L419,40.6z M485.7,139.9h-25v34.2
					h-16.2V40.6h16.2v23.3h22.5v15.3h-22.5V94h21.1v14.9h-21.1v15.8h25V139.9L485.7,139.9z"/>
				<path class="st1" d="M555.9,79.1c-6.4,38.7-22,67.6-42.2,82.6c-2.9-4-9.7-10.7-13.9-13.2c16.6-11.2,29-30.8,35.4-55.8H505V75.5
					h36.4l3.2-0.6C544.6,74.9,555.9,79.1,555.9,79.1z M627.7,76.7c-10.7,10.6-23.3,22.5-33.5,30.6c11,16.5,25.7,29.9,43.9,37.8
					c-4.2,3.7-10,10.9-12.9,15.9c-20.4-10.7-35.7-28.2-47-49.5v41.1c0,9.9-1.9,14.9-7.7,18c-5.6,3-14.3,3.9-26,3.9
					c-0.7-5.3-3.8-13.9-6.4-19c8,0.3,15.6,0.3,18.3,0.3c2.5,0,3.3-0.9,3.3-3.3V40.6h18.3v34.9c2.3,6.4,4.9,12.5,8,18.5
					c9.1-8.6,19.1-19.5,25.6-28.3L627.7,76.7L627.7,76.7z"/>
				<path class="st1" d="M746.6,42.7c6.7,20.9,21.4,41.2,41.5,51.5c-3.5,3.6-9.4,10.9-12.1,15.8c-3.8-2.4-7.5-5.3-11-8.3
					c-1.6,42.2-3.3,58.7-8.4,64.6c-3.6,4.7-7.5,6.2-13.2,6.9c-4.9,0.7-13.3,0.7-21.8,0.4c-0.3-5.1-2.6-12.3-5.6-17.2
					c8,0.6,15.5,0.7,19.1,0.7c2.6,0,4.2-0.3,5.8-2c2.9-3.1,4.5-15.9,5.8-45.7h-28.5c-3.6,27.5-13,52-50.4,65.9
					c-2.2-4.9-7.2-11.9-11.4-15.8c32.7-10.4,40.2-29.4,43.1-50.1h-24.4V100c-3.5,3.7-7.1,7.2-10.8,10.3c-3-3.4-10.4-9.7-14.5-12.6
					c16.3-11.6,29.2-30.8,35.8-52.3l18.1,4.3c-5.3,16-13.3,30.9-22.7,43.1h74.8c-9.4-10.2-16.8-22.2-21.8-34.2h-23V42.7L746.6,42.7
					L746.6,42.7z"/>
				<path class="st1" d="M935.6,62.2h-25.1c4.3,3.3,8.7,7,11.1,9.7l-9.5,8.4h19.2v24.9h-17.6V93.1h-89.2v12.2h-16.6V80.4h5.2
					c-2.6-3-8-8.6-11.1-11c8.5-7.5,16.6-18.8,21.1-30.1l15.2,4.3c-0.7,1.9-1.6,3.9-2.6,5.7h31.8v11.9c6.4-5.7,12-13.7,15.2-21.9
					l15.5,4c-0.7,2-1.6,4-2.6,6h40L935.6,62.2L935.6,62.2z M844.7,80.4c-2.9-3.9-8.7-9.4-13.2-13.3l5.3-4.7h-8.5
					c-4.5,7-9.7,13.2-14.5,18H844.7L844.7,80.4z M842.7,137.5h78.2v36.9h-17.2v-3.9h-61v3.9h-17.5V99h88v31.9h-70.5L842.7,137.5
					L842.7,137.5z M842.7,111.3v7.4h53.8v-7.4H842.7z M842.7,150v8h61v-8H842.7z M872.9,69.4c-2.8-2.3-5.8-4.6-8.1-6l1.3-1H847
					c3.2,2.9,6.5,6.2,8.5,8.6l-10.4,9.4h16.5c-1.2-2.7-2.3-5.7-3.8-8.2L872.9,69.4L872.9,69.4z M908.6,80.4
					c-3.6-4-9.7-9.2-14.3-12.9l6.2-5.3h-12.9c-3,4.3-6.7,8.3-10.1,11.2c-1-1-2.5-2.2-4-3.4c2,3,4.2,7,5.5,10.4L908.6,80.4
					L908.6,80.4z"/>
			</g>
		</g>
	</g>
</g>
</svg>
