<?xml version="1.0" encoding="utf-8"?>
<!-- Generator: Adobe Illustrator 27.0.0, SVG Export Plug-In . SVG Version: 6.00 Build 0)  -->
<svg version="1.1" id="_圖層_2" xmlns="http://www.w3.org/2000/svg" xmlns:xlink="http://www.w3.org/1999/xlink" x="0px" y="0px"
	 viewBox="0 0 1471.6 193.7" style="enable-background:new 0 0 1471.6 193.7;" xml:space="preserve">
<style type="text/css">
	.st0{fill:#E3DE47;}
</style>
<g id="_圖層_1-2">
	<g>
		<path class="st0" d="M69.2,19.4c-5.6,18-12.8,40.7-19,56.8c13.2,16.2,15.7,30.3,15.7,42.1c0,13.5-2.9,21.9-9.7,26.8
			c-3.1,2.4-7.2,3.9-12,4.5c-3.9,0.6-9.1,0.6-13.8,0.6c-0.2-6.3-2.1-15.8-5.6-21.9c3.7,0.4,6.8,0.4,9.1,0.2c2.3,0,4.3-0.4,6.2-1.6
			c2.5-1.8,3.5-5.9,3.5-11.9c0-9.4-2.9-22.5-14.9-36.4c4.5-13.1,9.1-31.9,12.4-46.2H22.9v160.5H0V10.8h48.9l3.5-1
			C52.4,9.8,69.1,19.4,69.2,19.4z M115.4,57.3c-0.4,8.4-0.6,16.4-1.2,24.3h56.8c0,0-0.2,7.2-0.2,10.2c-2.1,59.5-4.1,83-10.3,90.8
			c-4.8,6.1-9.5,8.2-16.3,9.2c-6,1-16.1,1-26.6,0.6c-0.4-7.2-3.3-17.2-7.4-24.1c9.3,1,17.6,1.2,21.7,1.2c3.3,0,5.4-0.8,7-3.1
			c3.7-4.1,5.8-20.9,7-62.8h-33.7c-5.2,38.4-18,68.9-54.1,88.8c-3.1-5.9-10.1-14.3-15.7-18.8C86.7,150.5,89.8,110.2,91,57.3H64.6
			V34.8h50.2c-1.7-7.8-5.2-19.4-8.3-28.4L129,1c3.7,9,8.1,21.5,9.7,28.8l-16.9,4.9h60.3v22.5L115.4,57.3L115.4,57.3z"/>
		<path class="st0" d="M284.2,57.1c-9.1,55.2-31.4,96.5-60.3,118c-4.1-5.7-13.8-15.3-19.8-18.8c23.7-15.9,41.5-44,50.6-79.8h-43.1
			V51.9h52l4.5-0.8L284.2,57.1L284.2,57.1z M386.8,53.6c-15.3,15.1-33.2,32.1-47.9,43.8c15.7,23.5,36.7,42.7,62.8,54
			c-6,5.3-14.2,15.5-18.4,22.7c-29.1-15.3-51-40.3-67.1-70.8V162c0,14.1-2.7,21.3-10.9,25.8c-8,4.3-20.4,5.5-37.2,5.5
			c-1-7.6-5.4-19.8-9.1-27.2c11.4,0.4,22.3,0.4,26.2,0.4c3.5,0,4.8-1.2,4.8-4.7V2h26.2v49.9c3.3,9.2,7,17.8,11.4,26.4
			c13-12.3,27.2-27.8,36.5-40.5L386.8,53.6L386.8,53.6z"/>
		<path class="st0" d="M489.4,9.8C483.9,23.9,477,38.4,469,52.2v140.3h-23.3V87.3c-4.8,5.9-9.7,11.4-14.5,16.6
			c-2.3-5.9-9.1-19-13.2-25c19.2-18.4,38-47.5,48.7-76.5L489.4,9.8L489.4,9.8z M525.5,134.2c-8.5,17.6-21.1,37.4-31.6,49.9
			c-4.3-3.7-13.4-10.2-19-13.1c10.3-11.2,21.5-28.2,28.5-43.4L525.5,134.2L525.5,134.2z M558.8,121.3v71.8H534v-71.8h-53.9V99.2H534
			v-18h-40.5V10.8h108.4v70.4h-43.1v18h53.5v22.1C612.2,121.3,558.8,121.3,558.8,121.3z M516.9,59.7h60.5V32.3h-60.5
			C516.9,32.3,516.9,59.7,516.9,59.7z M584,127.4c11.8,13.5,24.4,31.1,30.3,43.1l-19.4,11.7c-5.6-12.1-18.2-30.9-29.1-44.8
			L584,127.4L584,127.4z"/>
		<path class="st0" d="M819.7,10.8v182.8h-25.6v-9H669v9h-24.6V10.8H819.7z M794.1,162.2V33.3H669v128.8L794.1,162.2L794.1,162.2z
			 M743.1,78.3v16.6h34.3v53.8h-89.8V94.9H720V78.3h-41.7V59.1H720V39.5h23.1v19.6h42.7v19.2H743.1L743.1,78.3z M754.7,112.9H709
			v17.8h45.6C754.7,130.7,754.7,112.9,754.7,112.9z"/>
		<path class="st0" d="M999.1,106.1c-4.8,14.9-11.2,27.6-19.2,38c22.1,9.2,42.5,18.8,57,27.8l-18.2,21.5c-14-9.4-34.9-20-58-30.5
			c-21.3,16.2-50.4,25.1-89.4,30.7c-2.3-6.5-10.1-18.4-15.3-24.5c32.6-2.9,57.4-8.4,75.8-18.2c-17.8-7.4-36.1-13.9-52.4-19
			c5.4-7.4,11.2-16.2,16.7-25.8h-40.2V83.2h52.6c5.6-10.8,10.1-21.7,13.6-31.7l28.7,5.3c-3.3,8.4-7.2,17.4-11.6,26.4h36.3
			c1-5.7,1.7-12.1,2.3-18.6l29.7,1.8V46.6H884.7v22.9h-25V24.1H933c-2.3-5.9-5-12.3-7.2-17.8L953.5,0c3.5,7.4,7.8,16.6,10.7,24.1
			h69.6v45.4h-26c-0.8,4.7-1.7,9.2-2.5,13.7h32.4v22.9L999.1,106.1L999.1,106.1z M927.4,106.1c-3.1,5.3-6,10.2-9.1,15.1
			c11.6,3.7,23.3,8,35.5,12.5c6.6-7.6,11.8-16.8,15.7-27.6H927.4z"/>
		<path class="st0" d="M1105.8,76.9c-2.9,26.4-8.1,61.8-15.1,84.9l-24.8-9.8c7.2-21.7,13.2-52.3,15.9-79.6L1105.8,76.9z
			 M1144.6,60.3v94.9c0,9.6,1.7,11.2,11.6,11.2h29.5c10.3,0,12.2-6.5,13.6-38.4c5.8,4.3,16.3,8.6,23.1,10.2
			c-2.9,38.9-9.5,50.9-34.9,50.9h-34.3c-26.8,0-34.3-8.2-34.3-33.9V60.3L1144.6,60.3L1144.6,60.3z M1142.7,5.3
			c18.6,11.7,44.8,29.6,57.2,42.3l-18.2,19c-11.2-12.5-36.5-31.9-55.7-44.8L1142.7,5.3L1142.7,5.3z M1232.7,65.8
			c11.6,24.3,22.3,55,26.6,76.1l-25,10.2c-3.1-20.9-13.8-53.2-24.6-77.1C1209.8,75,1232.7,65.8,1232.7,65.8z"/>
		<path class="st0" d="M1320.1,147.6c-5.4,17.2-14.9,34.8-24.6,45.8c-4.1-3.5-13-9.2-18.2-11.9c9.3-9.6,17.1-24.3,21.3-38.7
			L1320.1,147.6L1320.1,147.6z M1351.4,141.5h-62.8V9.6h62.8V141.5L1351.4,141.5z M1330,28.8h-20.4v18.8h20.4V28.8L1330,28.8z
			 M1330,65.9h-20.4v19h20.4V65.9z M1330,102.9h-20.4v19.2h20.4V102.9z M1340.9,142.5c6.8,10.2,14.4,23.9,17.8,32.9l-19,9.2
			c-2.9-9.4-10.3-23.9-16.9-34.6L1340.9,142.5L1340.9,142.5z M1471.6,160.1h-9.5V171c0,10.2-2.1,15.3-8.9,18.6
			c-6.8,3.3-16.5,3.5-29.9,3.5c-0.8-5.7-3.7-14.1-6.4-19.4c8.1,0.2,16.9,0.2,19.4,0.2c2.7,0,3.5-0.8,3.5-3.1v-10.6h-53.1v33.1h-21.5
			v-33.1h-11.2v-17h11.2V91.6h37.2v-7.8h-47.3V66.7h25.8v-8h-17.6V42.5h17.6V35h-22.3V17.8h22.3V2.2h21.5v15.5h21.1V2.2h21.9v15.5
			h22.3V35h-22.3v7.6h19.2v16.2h-19.2v8h26v17.2h-47.7v7.8h38.4v51.5h9.5L1471.6,160.1L1471.6,160.1z M1386.7,108.6v9.4h15.7v-9.4
			C1402.4,108.6,1386.7,108.6,1386.7,108.6z M1386.7,143.2h15.7v-10.2h-15.7V143.2z M1402.4,42.5h21.1V35h-21.1V42.5z M1402.4,66.7
			h21.1v-8h-21.1V66.7z M1423.7,108.6v9.4h16.1v-9.4H1423.7z M1439.8,143.1v-10.2h-16.1v10.2H1439.8z"/>
	</g>
</g>
</svg>
