<?xml version="1.0" encoding="utf-8"?>
<!-- Generator: Adobe Illustrator 27.0.0, SVG Export Plug-In . SVG Version: 6.00 Build 0)  -->
<svg version="1.1" id="_圖層_2" xmlns="http://www.w3.org/2000/svg" xmlns:xlink="http://www.w3.org/1999/xlink" x="0px" y="0px"
	 viewBox="0 0 543.5 244.4" style="enable-background:new 0 0 543.5 244.4;" xml:space="preserve">
<style type="text/css">
	.st0{fill:url(#SVGID_1_);}
	.st1{fill:#FFFFFF;}
</style>
<g id="_圖層_1-2">
	<g>
		
			<linearGradient id="SVGID_1_" gradientUnits="userSpaceOnUse" x1="363.7281" y1="-73.526" x2="179.7118" y2="321.096" gradientTransform="matrix(1 0 0 -1 0 246)">
			<stop  offset="0" style="stop-color:#FFFFFF;stop-opacity:0.8"/>
			<stop  offset="0.2" style="stop-color:#FFFFFF;stop-opacity:0"/>
			<stop  offset="0.5" style="stop-color:#FFFFFF;stop-opacity:0"/>
			<stop  offset="0.8" style="stop-color:#FFFFFF;stop-opacity:0"/>
			<stop  offset="1" style="stop-color:#FFFFFF;stop-opacity:0.8"/>
		</linearGradient>
		<path class="st0" d="M519.5,244.4H24c-13.2,0-24-10.8-24-24V24C0,10.8,10.8,0,24,0h495.5c13.2,0,24,10.8,24,24v196.5
			C543.4,233.7,532.7,244.4,519.5,244.4z M24,3.1C12.5,3.1,3.1,12.5,3.1,24v196.5c0,11.5,9.4,20.9,20.9,20.9h495.5
			c11.5,0,20.9-9.4,20.9-20.9V24c0-11.5-9.4-20.9-20.9-20.9C519.5,3.1,24,3.1,24,3.1z"/>
		<g>
			<path class="st1" d="M57.9,54.1l6.8,1.9c-3.7,32.3-15.5,51.9-33.3,61.2c-1.6-2.3-5.6-6.3-8-8c9.2-4.2,16.6-10.8,21.7-20.2
				c-2.7-3.3-6.6-7.5-10.4-11.3c-1.3,2.2-2.7,4.3-4,6.1c-1.7-1.6-5.9-4.6-8-6.1c7-8,11.8-21.1,14.2-34.8l9.7,1.7
				c-0.7,3.4-1.5,6.7-2.4,10h11.9L57.9,54.1z M41.2,63.4c-0.7,2.1-1.5,4-2.2,5.9c3.2,3.1,7.2,6.8,10.4,10.1c1.8-4.8,3.1-10.1,4-16
				H41.2z M91.1,91.3c-2.7-3.9-8.1-9.7-13-14.9v40.9H68V42.8h10.1v26.5l3.5-2.6c5.6,5.4,13.7,13.2,17.5,18.1L91.1,91.3L91.1,91.3z"
				/>
			<path class="st1" d="M123.1,43.5h8v73.9h-8V90.1h-4v0.8c0,6.5-0.9,18.5-5.8,26.4c-1.4-1.2-4.8-3-6.7-3.9
				c4.2-6.9,4.8-17.1,4.8-22.7v-0.6h-4.3v-8h16V74h-12.8V46.7h8.1v19.1h4.8C123.1,65.7,123.1,43.5,123.1,43.5z M182.2,74.2v7.7
				h-48.9v-7.7h5.4c-1.3-1.3-3.5-3.4-4.8-4.3c4.4-2.9,7-7.7,8-13.2l7.1,1c-0.3,1.9-0.9,3.8-1.5,5.4c2,1.8,4.1,3.8,5.2,5.3l-4.1,5
				c-0.9-1.3-2.4-2.9-3.9-4.4c-1.4,1.9-3,3.8-4.8,5.2h13.5V56.5h-17.5V49h17.5v-6.1h8.5V49h18.2v7.5h-18.2v12.7
				c3.8-2.9,5.6-7.3,6.3-12.4l7.2,0.7c-0.2,1.8-0.6,3.4-1.1,4.9c3,2.3,6.2,5.1,7.9,7.1l-4.5,4.7L182.2,74.2L182.2,74.2z M137.4,84.8
				h41.4v32.3h-8.9v-2h-24.1v2.1h-8.4C137.4,117.2,137.4,84.9,137.4,84.8z M145.9,91v17.6h24.1V91H145.9z M166.6,106h-17.7V93.6
				h17.7V106z M161,98h-6.7v3.5h6.7V98z M161.9,74.2h4.4c-0.9-1.1-2.9-3.1-4.4-4.2V74.2z M177.2,74.2c-1.3-1.6-3.5-3.7-5.6-5.7
				c-1.4,2.2-3.1,4.1-5,5.7L177.2,74.2L177.2,74.2z"/>
			<path class="st1" d="M217.5,45.9c-2.2,5.5-4.8,11.2-8,16.5v54.7h-9.1v-41c-1.9,2.3-3.8,4.5-5.6,6.5c-0.9-2.3-3.5-7.4-5.1-9.7
				c7.5-7.2,14.8-18.5,19-29.8L217.5,45.9L217.5,45.9z M231.6,94.3c-3.3,6.9-8.2,14.6-12.3,19.5c-1.7-1.4-5.2-4-7.4-5.1
				c4-4.4,8.4-11,11.1-16.9L231.6,94.3L231.6,94.3z M244.5,89.3v28h-9.7v-28h-21v-8.6h21v-7h-15.8V46.3h42.2v27.4h-16.8v7h20.8v8.6
				H244.5L244.5,89.3z M228.2,65.3h23.6V54.6h-23.6V65.3z M254.3,91.7c4.6,5.3,9.5,12.1,11.8,16.8l-7.6,4.5
				c-2.2-4.7-7.1-12-11.4-17.5L254.3,91.7z"/>
			<path class="st1" d="M346.2,46.3v71.3h-10V114h-48.8v3.5h-9.6V46.3H346.2L346.2,46.3z M336.3,105.3V55h-48.8v50.2
				C287.5,105.3,336.3,105.3,336.3,105.3z M316.4,72.6V79h13.4v21h-35V79h12.6v-6.5h-16.3v-7.5h16.3v-7.7h9v7.7H333v7.5H316.4
				L316.4,72.6z M320.9,86.1h-17.8V93h17.8V86.1z"/>
			<path class="st1" d="M432.4,81.3H401v36h-10.5v-36h-31v-9.9h31V42.9H401v28.5h31.5V81.3z"/>
			<path class="st1" d="M516.2,100.3h-27.5v17.1h-9.9v-17.1h-36.2v-9.1h12.7V70.4h23.5v-9.6h-17.2c-3.3,5.7-7.2,10.8-10.9,14.5
				c-1.9-1.6-6-4.8-8.3-6.1c7.2-6.1,13.4-16.3,16.9-26.5l9.7,2.5c-0.7,2.2-1.6,4.4-2.6,6.5h45.5v9.2h-23.1v9.6h21.2v8.8h-21.2v12.1
				h27.5L516.2,100.3L516.2,100.3z M478.8,91.2V79.1h-13.9v12.1H478.8z"/>
			<path class="st1" d="M44.2,156.4c-1.1,2.4-2.5,4.9-3.9,7.2v45.6h-8.7V176c-1.5,1.9-3.1,3.6-4.6,5.2c-0.9-2-3.6-6.6-5.1-8.6
				c5.7-5.3,11.6-13.4,15.1-21.2l7.2,2.6v-2.8h7.6c0.2-1.4,0.5-2.9,0.8-4.4h-6.3v-6.6h7.3c0.3-1.9,0.6-3.8,0.8-5.5l8,0.6l-0.7,4.9
				h11.9v11h4.3v7.3H44.2V156.4z M44.2,137.7c-4.3,6.9-10.9,14.4-17.1,19.3c-1-2-3.2-5.5-4.8-7.3c5-3.9,10.6-10.2,13.3-15.1
				L44.2,137.7L44.2,137.7z M98.6,168.9h-5.5v29.9c0,4.2-0.6,6.8-3.3,8.2c-2.6,1.5-6.2,1.7-11,1.7c-0.3-2.3-1.2-5.7-2.2-8.3h-8.2
				v8.7h-8.5v-8.7H44.4c0.7-3.4,1.5-8.1,2-12.1h-2.9v-6.8h16.3v-3.8H46.5v-16.7h28.8v16.7h-6.9v3.8h8.8v6.8h-8.8v5.3h10.3v6.3h4.3
				c1-0.1,1.2-0.3,1.2-1.2v-29.7H77v-8.6h21.6L98.6,168.9L98.6,168.9z M59.8,193.5v-5.3h-6c-0.2,1.8-0.5,3.5-0.7,5.3H59.8z
				 M53.4,171.7h14.3v-4.5H53.4C53.4,167.1,53.4,171.7,53.4,171.7z M60.6,146.7c-0.2,1.5-0.5,3-0.7,4.4h6v-4.4H60.6L60.6,146.7z
				 M97.3,147.6h-19v-8.4h19V147.6z"/>
			<path class="st1" d="M121.4,172.9c-3.1-2.2-9.5-6.1-14.1-8.4l5.3-6.9c4.3,2,10.9,5.4,14.2,7.6L121.4,172.9L121.4,172.9z
				 M110.1,201.8c3.4-5.4,7.9-14.1,11.6-22.3l7.5,5.9c-3.2,7.3-6.9,15.4-10.6,22.2L110.1,201.8L110.1,201.8z M125.7,151.9
				c-3.1-2.7-9.6-7-14-9.9l5.7-6.5c4.4,2.6,11,6.6,14.2,9.1L125.7,151.9z M159.8,151.6c-0.4,1-0.9,1.9-1.3,2.8
				c6.7,10.3,14.9,16.5,25.4,21.4c-2.4,2-5.1,5.3-6.3,8c-1.3-0.8-2.6-1.4-3.9-2.2v27.1h-9.8V206h-20.2v3.1h-9.3V181
				c-1.4,0.9-3,1.7-4.4,2.5c-1.4-2.4-4-5.7-6.4-7.8c12-5.3,22.2-14.8,27.4-27L159.8,151.6L159.8,151.6z M152.2,138.5
				c-4.7,7.9-11.7,16.7-17.4,22.1c-1.8-1.7-5.6-4.5-7.9-5.8c6-4.8,12.2-12.3,16.2-19.4L152.2,138.5L152.2,138.5z M169.1,178.4
				c-5.8-4.2-10.8-9.3-15.4-15.8c-4.4,6.2-9.6,11.5-15.5,15.8H169.1z M163.9,197.7v-10.9h-20.2v10.9H163.9z M173.9,159.6
				c-3.6-5-11.6-13.4-17.2-19.5l7.6-4.8c5.6,5.7,13.8,13.6,17.9,18.6L173.9,159.6L173.9,159.6z"/>
			<path class="st1" d="M217.5,137.6c-2.2,5.5-4.8,11.2-8,16.5v54.7h-9.1v-41c-1.9,2.3-3.8,4.5-5.6,6.5c-0.9-2.3-3.5-7.4-5.1-9.7
				c7.5-7.2,14.8-18.5,19-29.8L217.5,137.6L217.5,137.6z M231.6,186.1c-3.3,6.9-8.2,14.6-12.3,19.5c-1.7-1.4-5.2-4-7.4-5.1
				c4-4.4,8.4-11,11.1-16.9L231.6,186.1L231.6,186.1z M244.5,181.1v28h-9.7v-28h-21v-8.6h21v-7h-15.8V138h42.2v27.4h-16.8v7h20.8
				v8.6H244.5L244.5,181.1z M228.2,157.1h23.6v-10.7h-23.6V157.1z M254.3,183.5c4.6,5.3,9.5,12.1,11.8,16.8l-7.6,4.5
				c-2.2-4.7-7.1-12-11.4-17.5L254.3,183.5L254.3,183.5z"/>
			<path class="st1" d="M346.2,138v71.3h-10v-3.5h-48.8v3.5h-9.6V138L346.2,138L346.2,138z M336.3,197v-50.2h-48.8V197H336.3z
				 M316.4,164.3v6.5h13.4v21h-35v-21h12.6v-6.5h-16.3v-7.5h16.3v-7.7h9v7.7H333v7.5H316.4L316.4,164.3z M320.9,177.8h-17.8v6.9
				h17.8V177.8z"/>
			<path class="st1" d="M431.8,195.9v9.4H360v-9.4h18.6c1.4-6.5,2.8-13.9,4.2-21.8h-13.7v-9.3h15.1c0.7-4.6,1.4-9.2,1.9-13.6h-21.6
				v-9.4h62v9.4h-29.8c-0.6,4.4-1.4,9-2.1,13.6h14.9l1.7-0.3l7.6,0.6c-0.5,9.3-1.5,20.6-2.7,30.9L431.8,195.9L431.8,195.9z
				 M393.2,174.1c-1.4,7.9-2.7,15.4-4,21.8H406c0.8-7.3,1.5-15.2,2-21.8H393.2L393.2,174.1z"/>
			<path class="st1" d="M516.2,192.1h-27.5v17.1h-9.9v-17.1h-36.2V183h12.7v-20.9h23.5v-9.6h-17.2c-3.3,5.7-7.2,10.8-10.9,14.5
				c-1.9-1.6-6-4.8-8.3-6.1c7.2-6.1,13.4-16.3,16.9-26.6l9.7,2.5c-0.7,2.2-1.6,4.4-2.6,6.5h45.5v9.2h-23.1v9.6h21.2v8.8h-21.2V183
				h27.5L516.2,192.1L516.2,192.1z M478.8,183v-12.1h-13.9V183H478.8z"/>
		</g>
	</g>
</g>
</svg>
