<?xml version="1.0" encoding="utf-8"?>
<!-- Generator: Adobe Illustrator 27.0.0, SVG Export Plug-In . SVG Version: 6.00 Build 0)  -->
<svg version="1.1" id="_圖層_2" xmlns="http://www.w3.org/2000/svg" xmlns:xlink="http://www.w3.org/1999/xlink" x="0px" y="0px"
	 viewBox="0 0 635.7 52.7" style="enable-background:new 0 0 635.7 52.7;" xml:space="preserve">
<style type="text/css">
	.st0{fill:#4E6875;}
</style>
<g id="_圖層_1-2">
	<g>
		<path class="st0" d="M0.3,19.3l-0.3-2l0.9-0.2V9.7h1.6v7.2c0.5-0.1,1.1-0.2,1.6-0.2V8.1h-3V1.2h6.7v6.9H6v2.7h2.2v1.8H6v3.7
			L8.3,16v1.9C5.6,18.4,2.9,18.8,0.3,19.3L0.3,19.3z M3,3.1v3.1h2.9V3.1H3z M9.1,3.4v-2h10.6v2h-7.6v3.3h6.7V14h-6.7v3.5h7.8v1.8
			h-11v-1.8H10V3.4H9.1z M16.8,8.5h-4.7V12h4.7V8.5z"/>
		<path class="st0" d="M23.5,3.9V2.1h4V0.4h2v1.7h3.8v1.7L23.5,3.9L23.5,3.9z M24.1,10.3V4.9h1.6v3.9h5.5v-4h1.6v5.5h-3.3L29,11.8
			h4.2v5.9c0.1,1.4-0.6,2.1-2,2.1h-1.9c-0.1-0.4-0.2-1-0.3-1.6h1.7c0.6,0,0.9-0.2,0.9-0.7v-4.1h-3c-0.1,0.2-0.1,0.4-0.2,0.7
			c-0.2,0.7-0.4,1.2-0.5,1.5l1.6-0.2c-0.1-0.4-0.2-0.9-0.4-1.2l1.1-0.4c0.5,1.1,0.9,2.2,1.3,3.3l-1.1,0.5c-0.1-0.3-0.2-0.6-0.3-0.9
			c-1.5,0.2-2.9,0.4-3.9,0.6L25.9,16l0.7-0.1c0.1-0.3,0.2-0.7,0.3-1.2c0.2-0.6,0.3-1,0.3-1.2h-1.6V20h-1.7v-8.1h3.6
			c0.2-0.5,0.3-1,0.3-1.5L24.1,10.3L24.1,10.3z M30.1,8.5l-1.6-1.2C28,7.6,27.4,8,26.6,8.5l-0.7-1.2c0.6-0.3,1.1-0.7,1.6-1L26,5.2
			l0.9-0.9l1.6,1.3c0.5-0.4,1-0.8,1.4-1.3l0.9,0.8C30.4,5.6,30,6,29.5,6.4L31,7.5L30.1,8.5L30.1,8.5z M34.5,19.9V8l-0.9,1.5
			c-0.2-0.8-0.4-1.6-0.6-2.2c1.2-2,2.1-4.2,2.6-6.8l1.9,0.4c-0.3,1-0.7,2.1-1.1,3h2c0-0.2,0.2-0.6,0.3-1.2c0.3-1,0.5-1.7,0.6-2
			l2,0.3l-0.9,2.9h2.5v1.7h-2.4v2.7h2.1V10h-2.1v2.7h2.1v1.8h-2.1v2.7H43v1.6h-6.6V20C36.3,20,34.5,20,34.5,19.9z M36.3,5.6v2.7h2.3
			V5.6H36.3z M36.3,10v2.7h2.3V10H36.3z M36.3,14.5v2.7h2.3v-2.7C38.6,14.5,36.3,14.5,36.3,14.5z"/>
		<path class="st0" d="M65,9.5c-0.6-0.2-1.3-0.6-2.3-1.1c-0.2-0.1-0.4-0.2-0.5-0.2v1.6h-4.8v2.5h6.2v2.1h-6.2v2.9h8.1v1.9H47.1v-1.9
			h8v-2.9h-6.2v-2.1H55V9.8h-4.7V8.3c-0.9,0.5-1.9,1-3,1.5c-0.5-0.8-0.9-1.5-1.2-2c3.7-1.5,6.3-3.2,8-5h-4.6V1H57
			c2,2.9,5,5.1,9.2,6.5c-0.1,0.1-0.1,0.2-0.2,0.3C65.5,8.6,65.2,9.2,65,9.5L65,9.5z M56.5,3.2c-1.4,1.7-3.2,3.2-5.3,4.5h10.3
			C59.6,6.7,57.9,5.2,56.5,3.2L56.5,3.2z"/>
		<path class="st0" d="M77.6,14V7.3h-3.4V17h14.6v1.9H74.1v1.2h-2.2V7.3h-2.3V5.2h2.3V1.4h2.2v3.8h3.4V0.6h2.2v4.6h4.5V0.6h2.2v4.6
			H89v2.1h-2.6V14H77.6L77.6,14z M79.8,7.3v4.6h4.5V7.3H79.8z"/>
		<path class="st0" d="M105,19.9v-6.2h1.6c-1.5-0.8-2.8-1.8-3.9-3l0.3-0.2h-0.1c-1.3,1.2-2.7,2.2-4.3,3.1h1.5c0,0.5-0.1,1.1-0.2,1.9
			c0-0.1,0,0,0,0.2c-0.2,1.9-1.4,3.4-3.6,4.6c-0.5-0.4-1.1-0.8-1.8-1.2c2.1-1,3.2-2.2,3.2-3.4c0.1-0.5,0.2-1,0.2-1.6
			c-1.3,0.8-2.8,1.4-4.4,1.9c-0.3-0.6-0.6-1.2-0.9-1.9c3.2-0.9,5.7-2.1,7.5-3.5h-5.6V1.2h16.3v9.2H105c1.8,1.4,4.2,2.4,7.5,3.1
			c-0.3,0.7-0.6,1.4-0.8,2.1c-1.5-0.4-3-0.9-4.4-1.6v5.9H105L105,19.9z M96.6,3v2.1h4.8V3H96.6z M96.6,6.6v2.1h4.8V6.6H96.6z
			 M108.4,3h-4.8v2h4.8C108.4,5.1,108.4,3,108.4,3z M103.6,6.6v2.1h4.8V6.6H103.6z"/>
		<path class="st0" d="M115.7,10.1V8.5h19.9v1.6h-10.3V20h-1.9v-1.6c-1.3,0.1-3,0.3-4.9,0.5c-1,0.1-1.8,0.2-2.5,0.2l-0.2-1.6
			l1.7-0.1V10L115.7,10.1L115.7,10.1z M118.2,7.4V1.2H133v6.2C133,7.4,118.2,7.4,118.2,7.4z M119.5,10.1v1.5h3.9v-1.5H119.5z
			 M119.5,12.9v1.4h3.9v-1.4H119.5z M119.5,17.3c0.4,0,0.9,0,1.6-0.2c1,0,1.8-0.1,2.3-0.2v-1.4h-3.9V17.3L119.5,17.3z M120.5,2.6
			v1.2h10.3V2.6H120.5z M120.5,4.9V6h10.3V4.9H120.5z M134.7,19.9c-1.7-0.5-3.1-1.2-4.2-2c-0.7,0.5-2,1.3-3.9,2.2
			c-0.2-0.5-0.6-1.1-1-1.7c1.4-0.4,2.5-0.9,3.4-1.5c-0.9-1-1.7-2.2-2.4-3.7l0.6-0.3h-1.1v-1.6h8.1V13c-0.7,1.5-1.4,2.7-2.4,3.8
			c1,0.5,2.2,1,3.5,1.3C135.2,18.6,135,19.2,134.7,19.9L134.7,19.9z M132.4,12.8h-3.9c0.6,1.1,1.3,2.1,2,2.8
			C131.2,14.9,131.9,14,132.4,12.8z"/>
		<path class="st0" d="M140.4,8.5V6.3l-0.5,0.3c-0.6-0.6-0.9-0.9-1.1-1.1c1-0.8,1.8-1.6,2.3-2.6l1.7,0.2l-0.3,0.5h6.8
			c-0.1,0.3-0.1,0.8-0.1,1.6c-0.1,0.8-0.1,1.3-0.1,1.6c0,1.3-0.7,2-2.1,2h-1.5l-0.2-0.5h-4.9V8.5z M141.1,19.8l-2.1-0.3
			c0.6-0.9,1-1.9,1.3-2.8l2,0.2C141.9,18,141.5,18.9,141.1,19.8z M139.3,2.6V1.3h3V0.4h1.9V3h-1.9V2.5
			C142.3,2.5,139.3,2.5,139.3,2.6z M141.7,4.8c-0.2,0.2-0.4,0.5-0.6,0.7h4.8v2.1h0.5c0.7,0.1,1-0.2,0.9-0.9c0.1-0.4,0.1-1,0.1-2
			h-5.7V4.8z M141.5,16.6V9.4h14.9v1.1h-6.2v0.8h5.5v1h-5.5v0.8h5.5v1h-5.5v0.8h7.5c-0.1,0.5-0.1,0.7,0,0.5
			c-0.1,1.1-0.2,1.8-0.2,2.2c-0.1,1.5-1,2.2-2.7,2.2h-3.4c-0.1-0.4-0.2-0.9-0.4-1.3h3c1,0,1.6-0.2,1.6-0.9c0.1-0.4,0.2-1,0.2-1.6
			h-12.1v0.5L141.5,16.6L141.5,16.6z M141.9,6.5v1h2.5v-1H141.9z M143.6,10.5v0.8h4.7v-0.8H143.6z M143.6,12.3v0.8h4.7v-0.8H143.6z
			 M143.6,14.1v0.8h4.7v-0.8H143.6z M144.3,19.5c-0.1-0.3-0.2-0.7-0.3-1.2s-0.2-1-0.3-1.2l1.9-0.2c0.4,1.1,0.6,1.9,0.7,2.5
			L144.3,19.5L144.3,19.5z M145.5,3.2V0.4h1.8v0.8h3v1.2h-3v0.7L145.5,3.2L145.5,3.2z M148.5,19.1c-0.2-0.7-0.6-1.4-1-2.1l1.8-0.3
			c0.1,0.2,0.3,0.5,0.5,1c0.3,0.5,0.6,0.9,0.7,1.1L148.5,19.1L148.5,19.1z M150.4,5.8l-1-1.4c1.3-1.2,2.2-2.5,2.8-4.1l1.8,0.2
			c-0.1,0.1-0.1,0.3-0.2,0.5c-0.1,0.2-0.2,0.4-0.4,0.8h5.2v1.4h-1.2c-0.4,1.3-1,2.4-1.9,3.2c1.1,0.4,2.2,0.7,3.2,1
			c-0.4,0.7-0.7,1.2-0.8,1.6c-1.9-0.6-3.1-1.1-3.7-1.6c-1,0.7-2.3,1.2-3.9,1.6c0-0.1,0-0.1-0.1-0.2c-0.3-0.6-0.6-1-0.8-1.2
			c1.5-0.4,2.6-0.8,3.5-1.2c-0.6-0.6-1-1.2-1.3-1.8C151.1,5.1,150.8,5.5,150.4,5.8L150.4,5.8z M152.4,18.2c-0.3-0.4-0.6-1-1-1.6
			l1.6-0.3c0.3,0.4,0.7,0.9,1,1.5L152.4,18.2z M152.5,3.3c0.4,1,0.9,1.8,1.6,2.3c0.7-0.6,1.1-1.3,1.5-2.3H152.5z"/>
		<path class="st0" d="M180.1,19.6c-4.6-2.5-7.4-6-8.2-10.7c-0.8,4.6-3.6,8.2-8.4,10.9c-0.4-0.7-1-1.4-1.6-2
			c5.2-2.7,8.1-6.8,8.5-12.3c0.1-1.3,0.2-3,0.2-4.9h2.5C173,0.8,173,1.3,173,2.1c-0.1,0.7-0.1,1.2-0.1,1.5c0.5,7.1,3.4,11.8,8.9,14
			C181,18.3,180.5,19,180.1,19.6L180.1,19.6z"/>
		<path class="st0" d="M185.8,19.7V3.6h2.2c0.2-0.6,0.4-1.4,0.7-2.5c0.1-0.3,0.1-0.6,0.2-0.7l2.3,0.3c-0.2,1-0.5,1.9-0.8,2.9h3.5v16
			h-2.1v-1.5h-3.9v1.6H185.8L185.8,19.7z M187.9,5.7V10h3.9V5.7C191.8,5.7,187.9,5.7,187.9,5.7z M187.9,12v4.3h3.9V12H187.9z
			 M196.9,19.6c-0.1-0.8-0.2-1.5-0.4-2h1.5c0.7,0,1.3,0.1,1.6,0.1c1.5,0,2.2-0.7,2.2-2.1c0.1-0.9,0.1-2.7,0.2-5.6
			c0.1-2,0.1-3.4,0.1-4.3h-4.5c-0.5,1.1-1,2.1-1.5,3c-0.1-0.1-0.3-0.2-0.5-0.3c-0.3-0.2-0.7-0.4-1.4-0.7c1.3-2.3,2.2-4.7,3-7.2
			l2.2,0.5c-0.1,0.2-0.2,0.5-0.3,0.9c-0.2,0.8-0.4,1.4-0.7,1.8h5.9c-0.1,6-0.2,10.1-0.3,12.3c0.1,2.5-1.1,3.7-3.5,3.6
			C199.3,19.6,198.1,19.6,196.9,19.6L196.9,19.6z M198.6,14.1c-0.9-1.4-1.9-2.9-3-4.4l1.7-1.1c1,1.1,2.1,2.5,3.2,4.2L198.6,14.1
			L198.6,14.1z"/>
		<path class="st0" d="M208.6,7.9V5.7h8.3c0.1-1.2,0.1-2.9,0.1-5.2h2.5l-0.2,5.2h8.3v2.2h-8.2c0.7,4.7,3.6,8,8.6,9.8
			c-0.6,0.5-1.1,1.2-1.6,2c-4.5-2-7.3-4.9-8.3-8.7c-0.9,3.7-3.6,6.7-8.3,8.9c-0.2-0.2-0.5-0.6-0.9-1.2c-0.3-0.4-0.6-0.7-0.7-0.8
			c5.2-2.2,8.1-5.5,8.4-10L208.6,7.9L208.6,7.9z"/>
		<path class="st0" d="M233.2,20V2.9h5.3c0.3-0.9,0.5-1.8,0.7-2.5l2.6,0.2c-0.2,0.7-0.5,1.4-0.7,2.3h8.2V20H247v-1.3h-11.5V20H233.2
			L233.2,20z M235.5,4.8v2.8H247V4.8H235.5z M235.5,9.5v2.8H247V9.5H235.5z M235.5,14.1v2.8H247v-2.8
			C247,14.1,235.5,14.1,235.5,14.1z"/>
		<path class="st0" d="M255.3,9.3c-0.1-0.2-0.2-0.6-0.4-1.1s-0.3-0.8-0.4-1c1.8-1.9,3.2-4.2,4.1-7l2,0.4l-0.8,1.9h4.7v2
			c-1.1,4.7-3.9,8.3-8.3,10.8c-0.2-0.2-0.5-0.6-0.9-1c-0.3-0.3-0.5-0.6-0.6-0.7c1.6-0.8,3-1.7,4-2.7c-0.3-0.3-0.8-0.6-1.4-1.1
			c-0.4-0.3-0.8-0.6-1-0.7l1.1-1.3c0.8,0.5,1.6,1,2.5,1.6c0-0.1,0.1-0.1,0.2-0.2c0.2-0.2,0.4-0.6,0.7-1c-0.8-0.6-1.7-1.2-2.6-1.7
			l1.1-1.3c0.2,0.1,0.5,0.3,0.9,0.6c0.7,0.4,1.1,0.7,1.5,0.8c0.3-0.7,0.6-1.5,0.8-2.4h-3.6C258.1,5.9,256.9,7.5,255.3,9.3L255.3,9.3
			z M256.9,20l-2.1-0.7c0.4-0.8,1.1-2.2,2.1-4.1l2,0.6C258.5,16.8,257.8,18.2,256.9,20z M261.5,19.5c-0.2-0.5-0.4-1.4-0.8-2.6
			c-0.2-0.4-0.3-0.8-0.4-1.1l2-0.2c0,0.2,0.2,0.4,0.3,0.8c0.4,1.1,0.8,2,1,2.8L261.5,19.5L261.5,19.5z M264.5,7.2V5.3h2.4
			c0.1-1.8,0.2-3.4,0.2-4.9h2C269,0.9,269,1.7,269,2.9c-0.1,1.1-0.1,1.9-0.1,2.5h4.9v1.9h-4.5c0.6,2.5,2.3,4.4,5,5.6
			c-0.5,0.6-1,1.2-1.4,1.8c-2.6-1.5-4.3-3.4-4.9-5.7c-0.5,2.4-2.1,4.4-4.8,6c-0.2-0.3-0.6-0.8-1.1-1.4c-0.1-0.2-0.2-0.3-0.2-0.3
			c2.9-1.6,4.4-3.6,4.8-6L264.5,7.2L264.5,7.2z M266.6,19.4c-0.1-0.1-0.1-0.3-0.2-0.5c-0.5-1.2-1-2.2-1.4-3.1l2.1-0.4
			c0.2,0.4,0.5,1,0.8,1.8c0.3,0.7,0.6,1.3,0.7,1.7L266.6,19.4z M271.7,4.7c-0.2-0.2-0.5-0.6-1-1.2c-0.5-0.7-0.9-1.1-1.1-1.4l1.5-0.9
			c0.8,0.8,1.6,1.6,2.2,2.4L271.7,4.7L271.7,4.7z M272,19.5c-0.6-1.3-1.3-2.6-2.1-4l2-0.7c0.8,1.5,1.6,2.8,2.3,3.9L272,19.5
			L272,19.5z"/>
		<path class="st0" d="M277.7,6.9L277.2,5h1.2c1.4-2.1,2.5-3.8,3.2-5l2,0.8c-0.9,1.3-1.9,2.6-3,4.1c1.4-0.1,2.8-0.2,4.1-0.2L283.4,3
			l1.5-0.9c1.4,1.6,2.6,3,3.6,4.3l-1.6,1.2c-0.1-0.2-0.2-0.4-0.4-0.7c-0.2-0.3-0.4-0.5-0.5-0.6c-1.1,0.1-2.7,0.2-4.8,0.3
			C279.6,6.8,278.4,6.8,277.7,6.9z M278.5,19.9V8.2h8.5v9.4c0,1.4-0.6,2.1-2,2.1h-1c-0.6,0-1,0.1-1.3,0.1c-0.1-0.3-0.1-0.7-0.2-1.2
			c-0.1-0.3-0.1-0.5-0.1-0.6h1.8c0.7,0,1-0.2,1-0.7v-1.2h-4.7v3.8L278.5,19.9L278.5,19.9z M280.4,9.9v1.6h4.7V9.9H280.4z M280.4,13
			v1.6h4.7V13H280.4z M291.4,9.5c-1.8,0.1-2.7-0.8-2.6-2.6V0.5h2v3c1.5-0.5,3.1-1.3,4.9-2.3l1.1,1.6c-2,1-4,1.9-6.1,2.7v1.1
			c-0.1,0.8,0.4,1.2,1.2,1.2h1.6c0.8,0,1.3-0.3,1.4-1c0-0.5,0.1-0.7,0.1-0.5c0-0.6,0.1-1.1,0.2-1.6c0.3,0.1,0.7,0.2,1.2,0.3
			c0.3,0.1,0.5,0.2,0.7,0.2c-0.1,0.6-0.2,1.3-0.3,2.1c0-0.1,0,0-0.1,0.2c-0.2,1.3-1.1,1.9-2.7,1.9L291.4,9.5L291.4,9.5z M291.4,19.6
			c-1.8,0-2.6-0.8-2.6-2.5v-6.6h2v2.6c1.6-0.6,3.3-1.3,5.1-2.4l1.1,1.7c-2.4,1.1-4.5,2.1-6.2,2.7v1.5c-0.1,0.8,0.4,1.1,1.2,1.1h1.7
			c0.8,0,1.3-0.2,1.3-0.8c0.1-0.6,0.2-1.3,0.2-2.2c0.2,0.1,0.5,0.2,0.9,0.3c0.4,0.2,0.8,0.3,1,0.3c-0.1,0.6-0.1,1.3-0.2,2.1
			l-0.1,0.2c-0.3,1.3-1.2,2-2.7,2L291.4,19.6L291.4,19.6z"/>
		<path class="st0" d="M302.8,15.1V9.4h15.6v5.7h-6.7v1h7.4v1.1h-7.4v0.9h8.9v1.3h-19.9v-1.3h8.9v-0.9h-7.4v-1.1h7.4v-1L302.8,15.1
			L302.8,15.1z M300.7,8.5V7.3h19.7v1.2H300.7z M302.6,6.4V1.1h15.9v5.2L302.6,6.4L302.6,6.4z M304.8,2.3v1h11.6v-1H304.8z
			 M304.8,4.3v1h11.6v-1H304.8z M304.8,10.6v1.1h4.7v-1.1H304.8z M304.8,12.8V14h4.7v-1.1L304.8,12.8L304.8,12.8z M316.3,10.6h-4.7
			v1.1h4.7V10.6z M311.6,12.8V14h4.7v-1.1L311.6,12.8L311.6,12.8z"/>
		<path class="st0" d="M323.9,7.7v-2h1.9V0.4h2v5.3h1.8v2.1h-1.8v7.6c0.7-0.2,1.3-0.3,2-0.5c0,0.8,0,1.5,0.1,2
			c-2.6,0.5-4.5,0.9-5.9,1.3l-0.3-2c0.7-0.1,1.4-0.2,2.1-0.4V7.7H323.9L323.9,7.7z M329.7,11V9.4h14V11h-9.4
			c-0.3,0.5-0.6,0.9-0.9,1.3h9.5c0,1.5-0.1,3.1-0.2,4.8s-1,2.5-2.6,2.5h-2.2c-0.2-0.8-0.3-1.4-0.4-1.8c0.4,0,1.1,0.1,2,0.1
			c0.8,0,1.2-0.3,1.2-1c0.1-0.8,0.2-1.8,0.2-3h-1.3c-0.8,2.5-2.5,4.6-5.1,6.2c-0.3-0.4-0.8-0.8-1.3-1.2c2.4-1.3,3.9-3,4.5-4.9h-1.8
			c-1,2.1-2.9,3.9-5.7,5.2c-0.4-0.7-0.8-1.1-1.1-1.4c2.4-1,4-2.2,4.9-3.8h-2.1c-0.1,0.1-0.1,0.1-0.2,0.2c-0.3,0.3-0.8,0.7-1.4,1.1
			c-0.4-0.6-0.9-1-1.2-1.4c1.3-0.7,2.3-1.6,3.2-2.8L329.7,11L329.7,11z M331.2,8.3V1.2h10.9v7.1H331.2z M333.2,2.7v1.4h7V2.7H333.2z
			 M333.2,5.4v1.4h7V5.4H333.2z"/>
		<path class="st0" d="M346.3,9.7h21.1v1.6h-21.1V9.7z"/>
		<path class="st0" d="M370.2,4.3V2.4h8.6v-2h2.2v2h8.7v1.9H381v1.8h7.8v11.2c0,1.6-0.8,2.4-2.5,2.5c-0.6,0-1.7,0.1-3.3,0.1
			c-0.1-0.2-0.1-0.4-0.2-0.7c-0.1-0.6-0.2-1-0.3-1.3h2.5c1.1,0,1.6-0.3,1.5-1.1V7.9h-13.3v12h-2.1V6.1h7.6V4.3H370.2L370.2,4.3z
			 M374.6,12.5v-1.6h2.5c-0.1-0.1-0.1-0.2-0.2-0.3c-0.6-1-1-1.6-1.1-1.7l2-0.4c0.2,0.2,0.5,0.7,1.1,1.5c0.2,0.4,0.4,0.6,0.4,0.7
			l-0.8,0.3h2.1c0.2-0.3,0.6-0.9,1.1-1.8c0.3-0.4,0.4-0.6,0.5-0.7l2,0.4C384,8.8,384,8.8,383.9,9c-0.5,0.8-0.9,1.4-1.1,1.9h2.5v1.6
			H381v1.7h4.8v1.7H381v3.5h-2.1v-3.5h-4.7v-1.7h4.7v-1.7H374.6L374.6,12.5z"/>
		<path class="st0" d="M395.7,10.4c-0.8-1-1.6-2.2-2.6-3.4l1.8-1c0.9,1,1.8,2,2.7,3.1L395.7,10.4L395.7,10.4z M398,14.4
			c-0.1-0.2-0.2-0.5-0.3-0.8c-0.2-0.4-0.3-0.7-0.4-0.8l-1.6,7.1l-2.1-0.6c0.7-2.1,1.3-4.5,1.8-7.4c0.2,0.1,0.5,0.1,0.9,0.2
			c0.4,0.2,0.7,0.3,0.9,0.3v-0.1c1.8-1,3.3-2.4,4.4-4.1h-3.7V6.6h3.4V4.3h-2.5V2.6h2.5V0.4h2v2.1h3.7V0.4h2v2.1h3v1.7h-3v2.3h3.7
			v1.7h-4c1,1.6,2.5,2.8,4.4,3.7l-1,1.9c-1.2-0.7-2.2-1.5-3-2.3v4.1H402v0.9c-0.1,0.8,0.4,1.2,1.3,1.1h5.1c1,0,1.5-0.3,1.6-1
			c0-0.2,0.1-0.6,0.2-1.2c0-0.3,0.1-0.6,0.2-0.7c0.6,0.3,1.2,0.5,1.8,0.7c-0.1,0.8-0.3,1.6-0.5,2.2c-0.3,1.3-1.3,1.9-3,1.9h-6.2
			c-1.6-0.1-2.5-0.9-2.5-2.4v-4.3C399.2,13.4,398.6,13.9,398,14.4L398,14.4z M396.2,5c-0.4-0.6-1-1.3-1.8-2.3
			c-0.4-0.5-0.7-0.9-0.8-1.1l1.9-1l2.6,3.1L396.2,5L396.2,5z M401.8,12.1v2.1h5.2v-2.1H401.8z M403.7,8.3c-0.5,0.8-1,1.5-1.6,2.1
			h5.8c-0.3-0.3-0.8-1-1.3-1.9c-0.1-0.1-0.1-0.2-0.2-0.2H403.7L403.7,8.3z M403.2,4.3v2.3h3.7V4.3C406.9,4.3,403.2,4.3,403.2,4.3z"
			/>
		<path class="st0" d="M417.5,11.8c-0.2-0.3-0.5-0.7-1-1.3c-0.2-0.3-0.4-0.5-0.5-0.7c2.6-1.9,4.4-4.1,5.4-6.6l2.1,0.9
			C422,7.2,420,9.8,417.5,11.8L417.5,11.8z M417.9,19.1l-0.6-2c0.2,0,0.5,0,1-0.1h0.9c2.1-3,4-6,5.6-9.1l2.3,1.1
			c-1.5,2.5-3.3,5.1-5.2,7.9l8.4-0.5c-0.4-0.5-0.9-1.2-1.6-2.1c-0.5-0.7-0.9-1.2-1.1-1.6l1.7-1.1c1,1.2,2.5,3.1,4.6,5.7
			c0.5,0.6,1,1.1,1.2,1.4l-2,1.3l-1.4-1.8c-2.1,0.1-5.3,0.3-9.7,0.7C420.2,19,418.8,19.1,417.9,19.1L417.9,19.1z M434.9,11.1
			c-3.2-2.1-5.5-4.9-6.8-8.2H423V1.1h6.7c1.4,3.4,3.6,6,6.6,7.8c-0.1,0.1-0.1,0.2-0.2,0.3C435.6,10.1,435.2,10.7,434.9,11.1
			L434.9,11.1z"/>
		<path class="st0" d="M440.3,20V1.2h18.1V20h-2v-0.9h-14V20H440.3L440.3,20z M442.3,2.9v14.8h14V2.9H442.3z M444.3,12.2V8.7h9.9
			v3.4c0,0,0.1,0,0.1-0.1h0.1l1.1,1c-0.6,0.4-1.2,0.9-1.9,1.4l2.1,1.1l-0.9,1.2c-1.3-0.8-3-1.6-4.9-2.5l0.8-1.1l1.6,0.7
			c0.4-0.3,0.9-0.7,1.6-1.4c0.1-0.1,0.2-0.1,0.2-0.2h-4.3c-0.3,0.3-0.5,0.6-0.8,0.7v2.7h0.2c0.6-0.1,1.3-0.2,2.2-0.3
			c-0.1,0.3-0.1,0.7-0.1,1.2c-2.7,0.3-4.6,0.5-5.9,0.7l-0.2-1.2c0.7-0.1,1.3-0.2,2-0.2v-1.6c-1.1,0.7-2.3,1.3-3.7,1.8
			c-0.1,0-0.1-0.2-0.2-0.4c-0.3-0.5-0.5-0.9-0.7-1.1c2-0.6,3.7-1.4,5.1-2.4L444.3,12.2L444.3,12.2z M444,5.5V4.3h4.3V3h1.9v1.3h4.3
			v1.2h-4.3v1.1h5.2v1.2h-12.3V6.6h5.2V5.5H444L444,5.5z M446.2,9.9v1.2h6.2V9.9H446.2z"/>
		<path class="st0" d="M463,12.1c-0.1-0.4-0.2-1.1-0.4-2.1c-0.1-0.4-0.1-0.7-0.2-0.8c1.4-2.3,2.6-5.3,3.5-8.9l2,0.4
			c-0.4,1.5-0.9,3-1.4,4.3v14.9h-2V9.4c-0.2,0.4-0.5,1-1,1.7C463.4,11.5,463.1,11.9,463,12.1L463,12.1z M468.2,3.5V2h2.3V0.4h2V2
			h4.8V0.4h2V2h2.9v1.6h-2.9v2.5h-3.5v1.2h5.4v4.3h-5.4v1.2h5.4v1.4h-5.4v1.2h4.9v1.2h-4.9v1.1h6.4v1.6h-14.8v-1.6h6.3v-1.1h-4.9
			v-1.2h4.9v-1.2h-5.4v-1.4h5.4v-1.2h-5.4V7.2h5.4V6.1h-3.5V3.5H468.2L468.2,3.5z M470.5,8.6v1.5h3.5V8.6
			C473.9,8.6,470.5,8.6,470.5,8.6z M472.5,3.5v1.3h4.8V3.5H472.5z M479.4,8.6h-3.5v1.5h3.5V8.6z"/>
		<path class="st0" d="M495.9,13h2.2v1.9h-2.2v3.8h-2.3v-3.8h-8.2v-1.6l8.2-11.7h2.3V13z M487.8,13h5.8V5.5c0-0.6,0.1-1,0.1-1.1v0.1
			c0,0.1-0.1,0.1-0.2,0.2c-0.1,0.2-0.1,0.3-0.2,0.3c0,0.1-0.1,0.1-0.2,0.2c-0.2,0.3-0.3,0.5-0.3,0.6s-0.2,0.3-0.4,0.6
			c-0.7,0.9-1.2,1.7-1.6,2.3c0,0.1-0.2,0.2-0.3,0.4c-0.1,0.2-0.2,0.4-0.3,0.5c-0.5,0.7-1.1,1.5-1.9,2.6
			C488,12.7,487.9,12.9,487.8,13L487.8,13z"/>
		<path class="st0" d="M508.3,1.6c3.9,0.1,5.9,3,6,8.7c0,5.8-2,8.7-6,8.6c-4,0-6-2.9-6.1-8.6C502.4,4.6,504.4,1.7,508.3,1.6z
			 M508.3,17.1c2.2,0.1,3.4-2.2,3.4-6.7c0-4.7-1.1-6.9-3.4-6.8c-2.2,0-3.4,2.2-3.4,6.8S506.1,17.1,508.3,17.1z"/>
		<path class="st0" d="M524.5,1.6c3.9,0.1,5.9,3,6,8.7c0,5.8-2,8.7-6,8.6c-4,0-6-2.9-6.1-8.6C518.6,4.6,520.6,1.7,524.5,1.6z
			 M524.5,17.1c2.2,0.1,3.4-2.2,3.4-6.7c0-4.7-1.1-6.9-3.4-6.8c-2.2,0-3.4,2.2-3.4,6.8S522.3,17.1,524.5,17.1z"/>
		<path class="st0" d="M535.5,11.8c-0.2-0.3-0.5-0.7-1-1.3c-0.2-0.3-0.4-0.5-0.5-0.7c2.6-1.9,4.4-4.1,5.4-6.6l2.1,0.9
			C540.1,7.2,538,9.8,535.5,11.8L535.5,11.8z M535.9,19.1l-0.6-2c0.2,0,0.5,0,1-0.1h0.9c2.1-3,4-6,5.6-9.1l2.3,1.1
			c-1.5,2.5-3.3,5.1-5.2,7.9l8.4-0.5c-0.4-0.5-0.9-1.2-1.6-2.1c-0.5-0.7-0.9-1.2-1.2-1.6l1.7-1.1c1,1.2,2.5,3.1,4.6,5.7
			c0.5,0.6,1,1.1,1.2,1.4l-2,1.3l-1.4-1.8c-2.1,0.1-5.3,0.3-9.7,0.7C538.2,19,536.8,19.1,535.9,19.1L535.9,19.1z M552.9,11.1
			c-3.2-2.1-5.5-4.9-6.8-8.2H541V1.1h6.7c1.4,3.4,3.6,6,6.6,7.8c-0.1,0.1-0.1,0.2-0.2,0.3C553.6,10.1,553.2,10.7,552.9,11.1
			L552.9,11.1z"/>
		<path class="st0" d="M575.7,19.5c-5.2-1.5-8.5-4.6-9.8-9.4h-3.5c0,4.2-1.2,7.5-3.3,9.8l-1.7-1.7c2-2,2.9-5.1,2.7-9.4V1.6H575v9.5
			h-2.2V10h-4.5c1.2,3.7,4,6.2,8.7,7.5c-0.2,0.2-0.5,0.6-1,1.4C575.9,19.2,575.8,19.4,575.7,19.5L575.7,19.5z M562.4,3.8V8h10.4V3.8
			C572.8,3.8,562.4,3.8,562.4,3.8z"/>
		<path class="st0" d="M1.7,52.5c-0.5-0.7-1.1-1.3-1.6-1.8c2.1-1.4,4.2-3.2,6.3-5.2L8.3,47C6,49.1,3.9,50.9,1.7,52.5z M2.4,44.7
			V34.1h15.3v10.7L2.4,44.7L2.4,44.7z M4.7,36.2v6.5h10.8v-6.5C15.4,36.2,4.7,36.2,4.7,36.2z M18,52.4c-1-0.9-2.6-2.2-4.8-3.9
			c-0.8-0.7-1.3-1.2-1.7-1.5l1.7-1.6c2.5,2,4.6,3.8,6.6,5.2L18,52.4L18,52.4z"/>
		<path class="st0" d="M23.8,35.4v-1.7h18.7v1.7h-5.8v1.7h5v5.6H30.9l1.8,0.2c-0.1,0.1-0.2,0.3-0.4,0.7c-0.3,0.4-0.5,0.7-0.7,0.8H43
			v1.7h-3.9c-0.7,1.2-1.6,2.2-2.6,3c1.9,0.5,3.8,1,5.7,1.4l-0.9,1.9c-1.8-0.6-4.1-1.3-6.8-2.1c-2.2,1.1-5.5,1.9-10,2.4
			c-0.1-0.1-0.1-0.3-0.2-0.5c-0.2-0.7-0.4-1.2-0.5-1.5c3.2-0.2,5.8-0.6,7.7-1.2l-3.1-0.8l-0.7,0.7l-2-0.7c0.2-0.3,0.5-0.7,1-1.2
			c0.5-0.7,1-1.2,1.2-1.5h-4.8v-1.7h6.1c0.2-0.2,0.4-0.5,0.6-0.8c0.3-0.4,0.5-0.7,0.6-0.8h-5.8v-5.6h5v-1.7L23.8,35.4L23.8,35.4z
			 M26.6,38.9V41h3v-2.1H26.6z M34,48.5c1-0.7,1.9-1.5,2.5-2.4h-6.2l-0.8,1.2L34,48.5z M31.7,35.5v1.7h3v-1.7H31.7z M31.7,38.9V41h3
			v-2.1H31.7z M39.8,38.9h-3.1V41h3.1V38.9z"/>
		<path class="st0" d="M46.7,37.6v-1.8h3v-2.9h2v2.9h2.6v1.8h-2.6v1.9l0.7-0.6c0.3,0.3,0.4,0.4,0.3,0.2c0.9,0.7,1.6,1.3,2,1.7
			l-1.3,1.3l-1.7-1.6v4.7h-2v-4.8c-0.7,1.4-1.6,2.7-2.9,4c-0.1-0.2-0.1-0.4-0.2-0.7c-0.2-0.8-0.3-1.3-0.4-1.6
			c1.3-1.3,2.3-2.8,3.1-4.5L46.7,37.6L46.7,37.6z M48.2,51.3c-0.6-0.3-1.2-0.6-1.9-0.8c0.5-0.8,1.1-2.3,1.9-4.3l2,0.6
			C49.6,48.3,49,49.9,48.2,51.3L48.2,51.3z M54.1,52c-1.9,0-2.9-0.9-2.9-2.6v-3.3h2.1v2.7c-0.1,0.9,0.5,1.4,1.6,1.3h3
			c1,0,1.6-0.3,1.7-1.2c0-0.2,0.1-0.6,0.2-1.2c0,0.2,0,0,0.1-0.4c0.2,0.1,0.5,0.2,1,0.3c0.5,0.2,0.8,0.4,1.1,0.4
			c-0.2,0.9-0.3,1.6-0.5,2c-0.4,1.3-1.4,1.9-3,1.9C58.5,52,54.1,52,54.1,52z M57,48.9c-0.8-1-1.6-1.9-2.3-2.7l1.5-1.2
			c0.3,0.3,0.7,0.7,1.2,1.2s1,1,1.3,1.3L57,48.9L57,48.9z M55.2,44.8V33.7h9.6v11.1C64.8,44.8,55.2,44.8,55.2,44.8z M57.3,35.3V37
			h5.4v-1.7H57.3z M57.3,38.4V40h5.4v-1.6H57.3z M57.3,41.5v1.7h5.4v-1.7H57.3z M64.4,50.7c-0.2-0.3-0.4-0.7-0.8-1.2
			c-0.7-1.2-1.2-2-1.6-2.6l1.8-0.9c0.9,1.3,1.8,2.6,2.5,3.9L64.4,50.7z"/>
		<path class="st0" d="M72.7,41.3c-1.1-1-2.2-2-3.4-2.9l1.3-1.5c1.5,1.1,2.7,2,3.4,2.8L72.7,41.3L72.7,41.3z M70.3,52.3l-0.9-2.2
			c0.8-0.8,1.6-1.5,2.3-2v-4.3h-2.1v-1.9h4.2v6.2c0.9,1.4,2.5,2,4.7,2c3.4,0,7.1,0,11,0c-0.1,0.1-0.1,0.3-0.2,0.7
			c-0.2,0.5-0.4,0.9-0.4,1.2h-6.4c-1.6,0-3.1,0-4.3-0.1c-2.3-0.1-4.1-0.8-5.2-2.1C71.6,50.9,70.8,51.7,70.3,52.3L70.3,52.3z
			 M73.3,37.2c-1.2-1-2.3-2-3.4-2.9l1.3-1.4c0.7,0.4,1.5,1.1,2.6,2c0.4,0.3,0.8,0.6,1,0.7C74.7,35.6,73.3,37.2,73.3,37.2z
			 M75.1,37.1v-3.4h13.4v3.4H87v1.1h-4.2v1.2h4.9v6.2h-4.9v1.3h6v1.5h-6v1.7h-2.1v-1.7h-5.9v-1.5h5.9v-1.3h-4.9v-6.2h4.9v-1.2h-4.2
			v-1.1H75.1L75.1,37.1z M77.1,35.4v1.4h3.7v-1.4H77.1z M77.9,40.6v1.3h2.9v-1.3H77.9z M77.9,43.1v1.3h2.9v-1.3H77.9z M86.5,35.3
			h-3.7v1.4h3.7V35.3z M85.8,40.6h-3v1.3h3V40.6z M82.8,43.1v1.3h3v-1.3H82.8z"/>
		<path class="st0" d="M93.5,35.6c0-0.1,0-0.3-0.1-0.6c-0.1-0.4-0.2-0.8-0.2-1c3,0,6.2-0.1,9.8-0.4l0.4,1.5c-0.4,0-0.9,0-1.6,0.1
			c-1.2,0.1-2,0.2-2.6,0.2v1.4h4.4v1.6h-4.4v1.2h4.1v6.7h-4.1v1.3h4.1V49h-4.1v1.3c0.5,0,1.2,0,2.1-0.1c1,0,1.7,0,2.1-0.1v0.5
			c1.5-1.8,2.3-5.1,2.3-9.9V39h-1.5v-2h1.6v-3.9h2l-0.1,3.9h3.9c0,5.2-0.1,9.3-0.2,12.4c0,1.9-0.8,2.8-2.4,2.8
			c-0.4,0-1.2,0.1-2.1,0.1c-0.1-0.2-0.1-0.5-0.2-1s-0.2-0.8-0.2-1h1.7c0.9,0,1.3-0.5,1.3-1.5V48c0.2-4.2,0.2-7.3,0.2-9.2h-2.1v1.6
			c-0.1,5.6-1.1,9.7-3.1,12.2c-0.4-0.4-0.8-0.8-1.2-1.2c-3.3,0-6.9,0.2-10.7,0.5l-0.2-1.7l4.9-0.1v-1.3H93v-1.4h4.3v-1.3h-4.1v-6.7
			h4.1v-1.2h-4.8v-1.6h4.8v-1.3c-0.4,0-1.1,0.1-2.1,0.1C94.6,35.6,94,35.6,93.5,35.6L93.5,35.6z M95.1,40.8v1.3h2.4v-1.3H95.1z
			 M95.1,43.5v1.3h2.4v-1.3H95.1z M101.7,40.8h-2.4v1.3h2.4V40.8z M99.3,43.5v1.3h2.4v-1.3H99.3z"/>
		<path class="st0" d="M128.7,44.4L127,46l-4.4-5l1.6-1.4L128.7,44.4L128.7,44.4z"/>
		<path class="st0" d="M139.2,37.6v-1.8h3v-2.9h2v2.9h2.6v1.8h-2.6v1.9l0.7-0.6c0.3,0.3,0.4,0.4,0.3,0.2c0.9,0.7,1.6,1.3,2.1,1.7
			l-1.3,1.3l-1.7-1.6v4.7h-2v-4.8c-0.7,1.4-1.6,2.7-2.9,4c-0.1-0.2-0.1-0.4-0.2-0.7c-0.2-0.8-0.3-1.3-0.4-1.6
			c1.3-1.3,2.4-2.8,3.1-4.5L139.2,37.6L139.2,37.6z M140.7,51.3c-0.6-0.3-1.2-0.6-1.9-0.8c0.5-0.8,1.1-2.3,1.9-4.3l2,0.6
			C142.1,48.3,141.5,49.9,140.7,51.3L140.7,51.3z M146.6,52c-1.9,0-2.9-0.9-2.9-2.6v-3.3h2.1v2.7c-0.1,0.9,0.5,1.4,1.6,1.3h3
			c1,0,1.6-0.3,1.7-1.2c0.1-0.2,0.1-0.6,0.2-1.2c0,0.2,0,0,0.1-0.4c0.2,0.1,0.6,0.2,1,0.3c0.5,0.2,0.9,0.4,1.1,0.4
			c-0.2,0.9-0.3,1.6-0.5,2c-0.4,1.3-1.4,1.9-3,1.9L146.6,52L146.6,52z M149.5,48.9c-0.8-1-1.6-1.9-2.3-2.7l1.5-1.2
			c0.3,0.3,0.7,0.7,1.1,1.2c0.6,0.5,1,1,1.3,1.3L149.5,48.9L149.5,48.9z M147.7,44.8V33.7h9.6v11.1
			C157.3,44.8,147.7,44.8,147.7,44.8z M149.8,35.3V37h5.4v-1.7H149.8z M149.8,38.4V40h5.4v-1.6H149.8z M149.8,41.5v1.7h5.4v-1.7
			H149.8z M156.9,50.7c-0.2-0.3-0.4-0.7-0.8-1.2c-0.7-1.2-1.2-2-1.6-2.6l1.8-0.9c0.9,1.3,1.8,2.6,2.5,3.9L156.9,50.7L156.9,50.7z"/>
		<path class="st0" d="M180.5,52.4c-2-1.4-3.4-2.5-4.2-3.4c-1.4,1.3-2.9,2.5-4.7,3.6c-0.4-0.7-0.9-1.3-1.4-2c1.9-0.9,3.5-2,4.7-3.4
			c-1-1.6-1.7-3.6-2.1-5.8c-0.1,0.1-0.1,0.2-0.2,0.4c-0.2,0.2-0.4,0.6-0.8,1.2c-0.4-0.6-0.7-1.2-1.1-1.6c0,1.3-0.1,3.3-0.2,6
			c-0.1,0.8-0.1,1.4-0.1,1.8c0,1.8-0.9,2.6-2.6,2.6c-0.4,0-1.1,0.1-2.1,0.1c-0.1-0.3-0.2-0.8-0.3-1.5c-0.1-0.2-0.1-0.4-0.2-0.5
			c0.5,0,1,0.1,1.6,0.1c1,0,1.4-0.4,1.4-1.4c0.2-1.9,0.2-3.8,0.2-5.7H166c-0.1,4.3-1,7.4-2.7,9.5c-0.1-0.1-0.3-0.2-0.5-0.4
			c-0.5-0.5-0.9-0.9-1.1-1.2c1.5-2,2.2-5,2.3-9c0-0.4,0-1.1,0.1-2V38H162v-2h3.8v-3.3h2.1V36h3.5v2h-5.3l-0.1,2.9h4.5
			c1.6-2.3,2.8-5,3.5-8.2l2.2,0.3c-0.2,1-0.6,2-1.1,3.1h6.4v2h-1.4c-0.4,3.9-1.3,7-2.7,9c1,1.2,2.5,2.2,4.3,3
			c-0.3,0.4-0.7,1-1.1,1.8C180.6,52.3,180.5,52.4,180.5,52.4L180.5,52.4z M176.3,45.5c1-1.6,1.6-4,2-7.1h-3.8l-0.2,0.4
			C174.6,41.5,175.3,43.8,176.3,45.5z"/>
		<path class="st0" d="M187.9,45.4v-2H202v2h-5.9v4.3h8.1v1.9h-18.6v-1.9h8.2v-4.3H187.9z M188.4,42.6c-0.4-0.7-0.7-1.2-1.1-1.6
			c2.6-0.7,3.9-1.9,3.9-3.8h-3.4v2.1h-2.2v-4.2h8.1V33h2.2v2.2h8.2v4.2h-1.3c-0.2,1.6-0.9,2.5-2.2,2.5h-2.8c-1.1,0-1.7-0.6-1.7-1.8
			v-2.8H193C193.1,39.9,191.5,41.6,188.4,42.6L188.4,42.6z M202,37.2h-3.9v2.4c0,0.4,0.2,0.7,0.7,0.7h1.4c0.6,0,0.8-0.4,0.8-1.5
			c0.3,0.1,0.6,0.2,1.1,0.3L202,37.2L202,37.2z"/>
		<path class="st0" d="M221.1,44.4l-1.7,1.6l-4.4-5l1.6-1.4L221.1,44.4L221.1,44.4z"/>
		<path class="st0" d="M231.7,37.6v-1.8h3v-2.9h2v2.9h2.6v1.8h-2.6v1.9l0.7-0.6c0.3,0.3,0.4,0.4,0.3,0.2c0.9,0.7,1.6,1.3,2.1,1.7
			l-1.3,1.3l-1.7-1.6v4.7h-2v-4.8c-0.7,1.4-1.6,2.7-2.9,4c-0.1-0.2-0.1-0.4-0.2-0.7c-0.2-0.8-0.3-1.3-0.4-1.6
			c1.3-1.3,2.4-2.8,3.1-4.5L231.7,37.6L231.7,37.6z M233.2,51.3c-0.6-0.3-1.2-0.6-1.9-0.8c0.5-0.8,1.1-2.3,1.9-4.3l2,0.6
			C234.6,48.3,233.9,49.9,233.2,51.3L233.2,51.3z M239.1,52c-1.9,0-2.9-0.9-2.9-2.6v-3.3h2.1v2.7c-0.1,0.9,0.5,1.4,1.6,1.3h3
			c1,0,1.6-0.3,1.7-1.2c0.1-0.2,0.1-0.6,0.2-1.2c0,0.2,0,0,0.1-0.4c0.2,0.1,0.6,0.2,1,0.3c0.5,0.2,0.9,0.4,1.1,0.4
			c-0.2,0.9-0.3,1.6-0.5,2c-0.4,1.3-1.4,1.9-3,1.9L239.1,52L239.1,52z M242,48.9c-0.8-1-1.6-1.9-2.3-2.7l1.5-1.2
			c0.3,0.3,0.7,0.7,1.1,1.2c0.6,0.5,1,1,1.3,1.3L242,48.9L242,48.9z M240.1,44.8V33.7h9.6v11.1C249.7,44.8,240.1,44.8,240.1,44.8z
			 M242.3,35.3V37h5.4v-1.7H242.3z M242.3,38.4V40h5.4v-1.6H242.3z M242.3,41.5v1.7h5.4v-1.7H242.3z M249.3,50.7
			c-0.2-0.3-0.4-0.7-0.8-1.2c-0.7-1.2-1.2-2-1.6-2.6l1.8-0.9c0.9,1.3,1.8,2.6,2.5,3.9L249.3,50.7L249.3,50.7z"/>
		<path class="st0" d="M254.7,36v-1.4h3.3v-1.8h1.9v1.8h3.2V36h-3.2v1.2h2.8v1.4h-2.8v1.2h3.5v1.4h-8.9v-1.4h3.6v-1.2h-2.8v-1.4h2.8
			V36H254.7L254.7,36z M255.3,52.4V42.3h7.3v7.8c0,1.4-0.7,2.1-2,2.1h-1.8c-0.1-0.4-0.2-1-0.4-1.6c0.2,0,0.5,0,0.9,0.1h0.6
			c0.7,0,1-0.2,0.9-0.7v-1h-3.7v3.5L255.3,52.4L255.3,52.4z M257.1,43.7V45h3.7v-1.3H257.1z M257.1,46.4v1.3h3.7v-1.3H257.1z
			 M264,35.8c0,0,0-0.2-0.1-0.3c-0.1-0.6-0.1-1.1-0.2-1.4c2.7,0,5.9-0.2,9.6-0.5l0.3,1.6c-2.1,0.2-4.9,0.4-8.3,0.5
			C264.7,35.7,264.3,35.8,264,35.8L264,35.8z M271.5,48.7v-1h-2.3V50c0,1.4-0.7,2.2-2.2,2.2h-2.1c0-0.2-0.1-0.5-0.2-0.9
			s-0.1-0.8-0.2-1c0.3,0,0.9,0.1,1.7,0.1c0.8,0,1.1-0.3,1.1-0.9v-1.9h-3.1V46h3.1v-1.9h-3.6v-1.7h3.6v-1.8h-3V39h6.9l-0.8-0.4
			c0.3-0.5,0.6-1.3,1-2.1c0.2-0.3,0.3-0.5,0.3-0.7l1.6,0.6c-0.4,0.8-0.9,1.6-1.4,2.6h1.3v3.5h1.1v1.7h-1.1v4.5L271.5,48.7
			L271.5,48.7z M265.2,38.8c-0.4-0.9-0.8-1.6-1.1-2.1l1.4-0.5c0,0.1,0.1,0.2,0.2,0.3c0.4,0.7,0.8,1.3,1,1.8L265.2,38.8L265.2,38.8z
			 M268.2,38.6c-0.2-0.7-0.5-1.5-0.9-2.2l1.5-0.5c0.1,0.3,0.3,0.6,0.5,1.1s0.3,0.9,0.4,1.2L268.2,38.6z M271.5,40.6h-2.3v1.8h2.3
			V40.6z M269.2,44.1V46h2.3v-1.9H269.2z"/>
		<path class="st0" d="M279.5,47.7c-0.3-0.2-0.8-0.4-1.5-0.6c-0.3-0.1-0.5-0.2-0.7-0.2c1-3,1.7-5.5,2.2-7.8l2.2,0.7
			C281.1,42.4,280.3,45.1,279.5,47.7L279.5,47.7z M286.1,51.8c-2.3,0-3.4-1-3.4-3.2V37.2h2.4V48c-0.1,1.2,0.5,1.8,1.7,1.7h2.5
			c1.1,0,1.8-0.5,2-1.6c0-0.2,0-0.5,0.1-0.9c0.1-0.8,0.2-1.4,0.2-1.8c0.3,0,0.7,0.2,1.1,0.4c0.5,0.2,0.9,0.3,1.1,0.4
			c-0.2,1.2-0.4,2.3-0.6,3.3c-0.3,1.5-1.5,2.3-3.7,2.2L286.1,51.8L286.1,51.8z M289.3,39.1c-1-1.2-2.5-2.7-4.6-4.8l1.6-1.6
			c1.9,1.6,3.4,3.2,4.7,4.5L289.3,39.1L289.3,39.1z M295.4,46.4c-1-2-2.1-4.3-3.5-6.7l2-1.1c1,1.8,2.2,4,3.6,6.7L295.4,46.4
			L295.4,46.4z"/>
		<path class="st0" d="M303.5,44.9v-7.5h14.1v7.5h-6v1.6h8.8v1.8h-19.7v-1.8h8.7v-1.6H303.5L303.5,44.9z M301.7,52.7
			c-0.2-0.6-0.4-1.2-0.8-1.8c2.5-0.6,5-1.3,7.6-2.1l1,1.4c-0.4,0.1-1,0.3-1.8,0.6C306,51.4,304,52,301.7,52.7L301.7,52.7z
			 M301.2,38.2V34h18.6v4.1h-2.1v-2.3h-14.4v2.4H301.2L301.2,38.2z M305.6,39v1.5h9.9V39H305.6z M305.6,41.8v1.6h9.9v-1.6H305.6z
			 M319.4,52.5c-2.7-0.8-5.3-1.6-7.8-2.4l0.8-1.4c0.9,0.2,2.4,0.6,4.4,1.2c1.6,0.4,2.8,0.7,3.5,0.8L319.4,52.5L319.4,52.5z"/>
		<path class="st0" d="M324.2,37.6v-1.8h3v-2.9h2v2.9h2.6v1.8h-2.6v1.9l0.7-0.6c0.3,0.3,0.4,0.4,0.3,0.2c0.9,0.7,1.6,1.3,2,1.7
			l-1.3,1.3l-1.7-1.6v4.7h-2v-4.8c-0.7,1.4-1.6,2.7-2.9,4c-0.1-0.2-0.1-0.4-0.2-0.7c-0.2-0.8-0.3-1.3-0.4-1.6
			c1.3-1.3,2.4-2.8,3.1-4.5L324.2,37.6L324.2,37.6z M325.7,51.3c-0.6-0.3-1.2-0.6-1.9-0.8c0.5-0.8,1.1-2.3,1.9-4.3l2,0.6
			C327.1,48.3,326.4,49.9,325.7,51.3L325.7,51.3z M331.6,52c-1.9,0-2.9-0.9-2.9-2.6v-3.3h2.1v2.7c-0.1,0.9,0.5,1.4,1.6,1.3h3
			c1,0,1.6-0.3,1.7-1.2c0-0.2,0.1-0.6,0.2-1.2c0,0.2,0,0,0.1-0.4c0.2,0.1,0.5,0.2,1,0.3c0.5,0.2,0.9,0.4,1.1,0.4
			c-0.2,0.9-0.3,1.6-0.5,2c-0.4,1.3-1.4,1.9-3,1.9L331.6,52L331.6,52z M334.4,48.9c-0.8-1-1.6-1.9-2.3-2.7l1.5-1.2
			c0.3,0.3,0.7,0.7,1.1,1.2c0.5,0.5,1,1,1.3,1.3L334.4,48.9L334.4,48.9z M332.6,44.8V33.7h9.6v11.1
			C342.2,44.8,332.6,44.8,332.6,44.8z M334.8,35.3V37h5.4v-1.7H334.8z M334.8,38.4V40h5.4v-1.6H334.8z M334.8,41.5v1.7h5.4v-1.7
			H334.8z M341.8,50.7c-0.2-0.3-0.4-0.7-0.8-1.2c-0.7-1.2-1.2-2-1.6-2.6l1.8-0.9c0.9,1.3,1.8,2.6,2.5,3.9L341.8,50.7L341.8,50.7z"/>
		<path class="st0" d="M358.5,38.9v2.7c0,2.1-0.9,3.7-2.7,4.7l-0.7-0.9c1.4-0.8,2-1.9,2-3.4h-1.6v-3.1H358.5z"/>
		<path class="st0" d="M370.5,44.8c-0.2-0.9-0.4-1.8-0.7-2.7c1.9-2.7,3.3-5.8,4.4-9.2l2.3,0.7c-0.6,1.7-1.2,3.1-1.7,4.2v14.8h-2.1
			V41.8c-0.1,0.1-0.2,0.3-0.3,0.5C371.8,43,371.2,43.9,370.5,44.8z M377.4,36.9c-0.1-0.8-0.2-1.5-0.4-2.1c3.9-0.2,7.9-0.4,11.8-0.8
			l0.5,2c-1.5,0.2-3.2,0.3-4.9,0.4v5.4h5.6V44h-5.6v5.6h5.1v1.9h-12.6v-1.9h5.3V44h-5.8v-2.1h5.8v-5.2
			C380.6,36.8,379,36.9,377.4,36.9L377.4,36.9z"/>
		<path class="st0" d="M393.5,44.6c-0.2-1-0.4-1.9-0.6-2.9c1.8-2.6,3.1-5.6,4.2-8.9l2.1,0.6c-0.5,1.4-1,2.8-1.6,4v14.9h-2.1V41.6
			C395,42.6,394.3,43.7,393.5,44.6L393.5,44.6z M399.6,36.3v-2H413v2h-1.6V49c0.1,2.1-0.9,3.1-3,3.1c-0.6,0-1.7,0.1-3.4,0.1
			c-0.1-0.4-0.2-1-0.3-1.8l-0.1-0.2h2.9c1.3,0.1,1.8-0.4,1.7-1.5V36.3H399.6L399.6,36.3z M400,47.6v-8.9h6.9v8.9H400z M401.9,40.5
			v5.2h3v-5.2C405,40.5,401.9,40.5,401.9,40.5z"/>
		<path class="st0" d="M417.1,51.4V34.3h6.1V51h-1.9v-1.2H419v1.6L417.1,51.4L417.1,51.4z M419,36.3v4.8h2.3v-4.8H419z M419,42.9v5
			h2.3v-5H419z M424.6,37.3v-1.9h4.1v-2.5h2.1v2.5h4.3v1.9h-4.3v2.4h5.2v1.9h-12.2v-1.9h4.9v-2.4H424.6z M423.9,45.6v-1.9h7.6v-1.6
			h2.1v1.6h2.4v1.9h-2.4v4c0,1.7-0.8,2.5-2.5,2.5c-0.8,0-1.8,0.1-3,0.1c-0.1-0.3-0.1-0.7-0.2-1.4c-0.1-0.4-0.2-0.6-0.2-0.7
			c0.7,0,1.5,0.1,2.5,0.1s1.5-0.3,1.4-1.2v-3.5L423.9,45.6L423.9,45.6z M427.3,49.7c-0.7-0.8-1.5-1.7-2.5-2.7l1.6-1.2
			c0.4,0.4,0.9,0.9,1.6,1.6c0.4,0.5,0.8,0.8,1,1.1L427.3,49.7L427.3,49.7z"/>
		<path class="st0" d="M441.3,52.5V42.1c-0.1,0.2-0.3,0.5-0.6,0.9c-0.4,0.8-0.8,1.3-1,1.7c-0.1-0.4-0.2-1.2-0.4-2.4
			c-0.1-0.3-0.1-0.5-0.1-0.6c1.5-2.6,2.6-5.5,3.4-9l2,0.4c-0.4,1.6-0.9,3.2-1.4,4.6v14.7L441.3,52.5L441.3,52.5z M444.7,49V35.8h1.8
			V49H444.7z M448.7,44.9c-0.4-0.3-0.9-0.6-1.6-1c1.1-1.3,1.9-2.7,2.3-4.2l1.9,0.2l-0.4,1.2h7.5V43h-4.1c0,0.3,0,0.7-0.1,1.3v1h5
			v1.8h-4.7c0.9,1.7,2.6,2.8,4.9,3.5c-0.4,0.6-0.8,1.2-1.1,1.8c-2.5-1-4.2-2.3-5-3.9c-0.6,1.6-2.6,3-6.1,4.2
			c-0.3-0.5-0.6-1.1-1.1-1.8c3.5-1,5.3-2.2,5.7-3.7h-4.7v-1.8h5c0-0.7,0.1-1.5,0.1-2.3H450C449.6,43.7,449.1,44.3,448.7,44.9
			L448.7,44.9z M447.3,39.3v-1.7h7.5l0.2-2.1h-6.8v-1.7h8.9l-0.2,3.9h2.2v1.7L447.3,39.3L447.3,39.3z"/>
		<path class="st0" d="M464.1,50.3c-0.3-0.1-0.9-0.3-1.7-0.6c0.3-0.7,0.9-1.9,1.6-3.8c0-0.2,0.1-0.4,0.2-0.4L466,46
			C465.2,48.1,464.6,49.5,464.1,50.3z M462.7,37v-1.8h4.1V33h2v2.2h4V37H462.7L462.7,37z M463.6,44.5v-6h8.3v6h-3v5.2
			c0,1.6-0.7,2.4-2.2,2.4c-0.4,0-1,0.1-1.9,0.1c-0.1-0.6-0.2-1.2-0.4-1.9c0.2,0,0.4,0,0.8,0.1h0.7c0.7,0,1-0.3,1-0.9v-5L463.6,44.5
			L463.6,44.5z M465.6,40.3v2.5h4.4v-2.5H465.6z M470.9,48.9c-0.2-0.5-0.7-1.5-1.4-3l1.6-0.6c0.5,0.9,1,1.9,1.4,2.9L470.9,48.9z
			 M472.7,40.1v-1.9h2v-2.5c0-1.2,0.1-2.2,0.1-2.9h2c0,1.2-0.1,2.9-0.2,5.3h5.3V40h-5.4c-0.1,5.2-1.5,9.3-4.2,12.5
			c-0.3-0.2-0.9-0.7-1.7-1.3c2.6-2.8,3.9-6.5,3.9-11.2L472.7,40.1L472.7,40.1z M478.8,52c-1.4,0-2.1-0.7-2.1-2.1v-8.6h2v8
			c0,0.5,0.2,0.8,0.7,0.8h0.3c0.5,0,0.8-0.3,0.9-1c0.1-1.1,0.2-2.1,0.2-3.1c0.8,0.3,1.4,0.4,1.6,0.5c-0.1,1.4-0.2,2.5-0.3,3.5
			c-0.2,1.4-1,2.1-2.4,2C479.7,52,478.8,52,478.8,52z M480,37.4c-0.7-0.8-1.5-1.6-2.5-2.5l1.4-1.1c0.9,0.8,1.8,1.6,2.5,2.4L480,37.4
			L480,37.4z"/>
		<path class="st0" d="M486,37.1v-2h8.4v-2.3h2.3v2.3h8.4v2h-8.4v6c2.1,2.8,5.1,4.9,8.9,6.2c-0.5,0.7-0.9,1.3-1.1,2
			c-3.4-1.3-6-3.1-7.7-5.4v6.7h-2.3v-6.7c-1.9,2.3-4.4,4.2-7.6,5.6c-0.4-0.7-0.8-1.3-1.2-1.9c3.8-1.4,6.7-3.6,8.9-6.4v-6L486,37.1
			L486,37.1z M492.2,44.1c-0.5-0.7-1.3-1.4-2.2-2.3c-0.7,1.1-1.5,2.2-2.5,3.3c-0.4-0.5-0.9-1-1.4-1.5c1.8-1.6,2.9-3.6,3.5-5.8l2,0.2
			c-0.1,0.3-0.2,0.8-0.5,1.5c-0.1,0.3-0.2,0.5-0.2,0.6c0.8,0.6,1.7,1.4,2.7,2.4L492.2,44.1L492.2,44.1z M503.6,44.7
			c-0.2-0.2-0.5-0.5-1-1c-0.8-0.9-1.5-1.5-2-2c-0.5,0.7-1.1,1.5-1.7,2.2c-0.5-0.5-1-1-1.5-1.4c1.4-1.3,2.3-2.8,2.8-4.8l2,0.2
			c-0.2,0.7-0.4,1.4-0.7,2c0.5,0.4,1.3,1.1,2.3,2c0.5,0.4,0.9,0.8,1.1,1L503.6,44.7L503.6,44.7z"/>
		<path class="st0" d="M510,44.3c-0.2-0.3-0.5-0.7-1-1.3c-0.2-0.3-0.4-0.5-0.5-0.7c2.6-1.9,4.4-4.1,5.4-6.6l2.1,0.9
			C514.5,39.7,512.5,42.3,510,44.3L510,44.3z M510.4,51.6l-0.6-2c0.2,0,0.5,0,1-0.1h0.9c2.1-3,4-6,5.6-9.1l2.3,1.1
			c-1.5,2.5-3.3,5.1-5.2,7.9l8.4-0.5c-0.4-0.5-0.9-1.2-1.6-2c-0.5-0.7-0.9-1.2-1.2-1.6l1.7-1.2c1,1.2,2.5,3.1,4.6,5.7
			c0.5,0.6,1,1.1,1.2,1.4l-2,1.3l-1.4-1.8c-2.1,0.1-5.3,0.3-9.7,0.7C512.7,51.5,511.3,51.6,510.4,51.6L510.4,51.6z M527.4,43.6
			c-3.2-2.1-5.5-4.9-6.8-8.2h-5.1v-1.7h6.7c1.4,3.4,3.6,6,6.6,7.8c-0.1,0.1-0.1,0.2-0.2,0.3C528,42.6,527.6,43.2,527.4,43.6
			L527.4,43.6z"/>
		<path class="st0" d="M532.8,52.5V33.7h18.1v18.8h-2v-0.9h-14v0.9H532.8z M534.8,35.4v14.8h14V35.4H534.8z M536.8,44.7v-3.5h9.9
			v3.5c0,0,0.1,0,0.1-0.1h0.1l1.1,1c-0.6,0.4-1.2,0.9-1.9,1.4l2.1,1.1l-0.9,1.2c-1.3-0.8-3-1.6-4.9-2.5l0.8-1.2l1.6,0.7
			c0.4-0.3,0.9-0.7,1.6-1.4c0.1,0,0.2-0.1,0.2-0.2h-4.3c-0.3,0.3-0.5,0.6-0.8,0.7v2.7h0.2c0.6,0,1.3-0.2,2.2-0.3
			c-0.1,0.3-0.1,0.7-0.1,1.2c-2.7,0.3-4.7,0.5-5.9,0.7l-0.2-1.2c0.7-0.1,1.3-0.2,2-0.2v-1.6c-1.1,0.7-2.3,1.3-3.7,1.8
			c0,0-0.1-0.2-0.2-0.4c-0.3-0.5-0.5-0.8-0.7-1.1c2-0.6,3.7-1.4,5.1-2.4L536.8,44.7L536.8,44.7z M536.5,38v-1.2h4.3v-1.3h1.9v1.3
			h4.3V38h-4.3v1.1h5.2v1.2h-12.3v-1.2h5.2V38H536.5L536.5,38z M538.6,42.3v1.2h6.2v-1.2H538.6z"/>
		<path class="st0" d="M556.5,52.5c-0.1-0.1-0.3-0.3-0.5-0.5s-0.5-0.5-1.1-1.1c2.1-1.6,3.4-4.1,3.7-7.4l2.2,0.2
			c-0.1,0.2-0.1,0.4-0.2,0.7c-0.2,0.9-0.4,1.5-0.5,2c0.9,1.8,2.2,2.8,3.9,3.1V43h2.2v2h6.7v1.9h-6.7v3h8.5c-0.2,0.5-0.4,1.2-0.7,2
			c-2.7,0-5.5-0.1-8.5-0.2c-3.2-0.1-5.3-1.1-6.4-2.9C558.7,50,557.8,51.2,556.5,52.5L556.5,52.5z M557.1,37.6v-2h6.7v-2.7h2.2v2.7
			h6.7v2H566v2.8h8.5v2h-19.4v-2h8.6v-2.8H557.1L557.1,37.6z"/>
		<path class="st0" d="M579.6,52.5c-0.1-0.1-0.3-0.3-0.5-0.5s-0.5-0.5-1.1-1.1c2.1-1.6,3.4-4.1,3.7-7.4l2.2,0.2
			c-0.1,0.2-0.1,0.4-0.2,0.7c-0.2,0.9-0.4,1.5-0.5,2c0.9,1.8,2.2,2.8,3.9,3.1V43h2.2v2h6.7v1.9h-6.7v3h8.5c-0.2,0.5-0.4,1.2-0.7,2
			c-2.7,0-5.5-0.1-8.5-0.2c-3.2-0.1-5.3-1.1-6.4-2.9C581.9,50,580.9,51.2,579.6,52.5L579.6,52.5z M580.2,37.6v-2h6.7v-2.7h2.2v2.7
			h6.7v2h-6.7v2.8h8.5v2h-19.4v-2h8.6v-2.8H580.2L580.2,37.6z"/>
		<path class="st0" d="M602,50.1V34.5h5.6v15.2h-1.9v-1.4h-1.8v1.8H602L602,50.1z M603.8,36.4v9.9h1.8v-9.9H603.8z M612,51.9
			c-1.9,0-2.9-0.9-2.9-2.8V33.8h10.8v10h-8.7v4.9c-0.1,0.9,0.4,1.4,1.5,1.3h4.3c1,0,1.6-0.4,1.8-1.3c0.2-0.9,0.3-1.8,0.4-2.9
			c0.3,0.1,0.7,0.2,1.4,0.5c0.3,0,0.5,0.1,0.6,0.2c-0.2,1.4-0.4,2.5-0.6,3.3c-0.3,1.4-1.5,2-3.4,2H612V51.9z M611.2,35.8V42h2.4
			v-6.2H611.2z M617.9,35.8h-2.5V42h2.5V35.8z"/>
		<path class="st0" d="M635.7,34.5l-0.5,12h-2l-0.4-12H635.7L635.7,34.5z M635.5,51.2h-2.6v-2.5h2.6V51.2z"/>
	</g>
</g>
</svg>
