<?xml version="1.0" encoding="utf-8"?>
<!-- Generator: Adobe Illustrator 27.0.0, SVG Export Plug-In . SVG Version: 6.00 Build 0)  -->
<svg version="1.1" id="_圖層_2" xmlns="http://www.w3.org/2000/svg" xmlns:xlink="http://www.w3.org/1999/xlink" x="0px" y="0px"
	 viewBox="0 0 436.5 52.4" style="enable-background:new 0 0 436.5 52.4;" xml:space="preserve">
<style type="text/css">
	.st0{fill:#FFFFFF;}
</style>
<g id="_圖層_1-2">
	<g>
		<path class="st0" d="M16.9,19.6c-1.4,0-2.6-0.9-3.6-3c-1,0.9-2.2,1.9-3.6,3c-0.4-0.5-0.9-1-1.5-1.6c1.7-1.1,3.1-2.3,4.3-3.5
			c-0.7-2.2-1.1-5.1-1.2-8.7H4v2.7h5.6c0,1.1-0.1,2.8-0.2,5v0.6c0,2.1-0.9,3.1-2.8,3.1c-0.5,0-1.2,0.1-2.1,0.1
			c0-0.3-0.1-0.6-0.2-1.1c-0.1-0.5-0.1-0.9-0.2-1.1H6c0.9,0.1,1.4-0.4,1.4-1.3c0.1-0.4,0.1-1,0.1-1.7c0.1-0.8,0.1-1.3,0.1-1.7H4
			c0.1,3.8-0.6,7-2.1,9.5c-0.1,0-0.3-0.2-0.5-0.3c-0.7-0.5-1.1-0.8-1.4-1c0.8-1.3,1.3-2.6,1.6-3.8c0.2-1.1,0.3-2.9,0.3-5.2V3.8h9.3
			c-0.1-0.8-0.1-2-0.1-3.7h2.1c0,1.6,0,2.9,0.1,3.7h6.5v2h-6.4c0.2,2.8,0.4,5,0.8,6.6c0.8-1.1,1.7-2.9,2.7-5.2l2,0.8
			c-1.4,3-2.7,5.3-3.9,6.8C15,14.8,15,14.9,15,15c0.6,1.6,1.2,2.4,1.8,2.4c0.4,0,0.7-0.3,0.8-0.9c0.3-1,0.4-2,0.5-2.8
			c0.3,0.2,0.8,0.4,1.4,0.6c0.2,0.1,0.4,0.1,0.4,0.1c-0.2,1.5-0.4,2.6-0.6,3.2C18.9,19,18.1,19.6,16.9,19.6L16.9,19.6z M16.9,3.7
			c-0.8-0.8-1.7-1.5-2.6-2.2l1.5-1.1c0.9,0.7,1.8,1.4,2.6,2.1L16.9,3.7L16.9,3.7z"/>
		<path class="st0" d="M25.6,19.8V12c-0.6,0.6-1.2,1.2-1.9,1.9c-0.1-0.8-0.3-1.5-0.6-2.2c1.6-1.6,3.1-3.6,4.4-5.9l1.7,1.1
			c-0.1,0.1-0.2,0.3-0.4,0.6c-0.5,1-1,1.7-1.4,2.1v10.3H25.6L25.6,19.8z M24.4,7c-0.3-0.9-0.6-1.6-0.9-2.1c1.4-1.2,2.8-2.8,4-4.7
			l1.6,1.2C27.9,3.5,26.3,5.3,24.4,7z M29.7,18.5c-0.6-0.3-1.1-0.5-1.6-0.7c0.7-1.3,1.2-2.4,1.6-3.5l1.6,0.5
			c-0.1,0.1-0.1,0.3-0.2,0.5C30.8,16.2,30.3,17.3,29.7,18.5L29.7,18.5z M28.9,13.1v-1.6h14v1.6h-6.8c0.6,0.8,1.1,1.6,1.5,2.2
			l-1.6,0.9c-0.5-0.9-1-1.8-1.6-2.8l0.9-0.3L28.9,13.1L28.9,13.1z M29.3,3.5V1.9h5.5V0.1h2v1.8h5.8v1.6h-5.8v1.4h5.2v5.3H29.5V4.9
			h5.2V3.5H29.3L29.3,3.5z M31.4,6.5v2.2h1.9V6.5H31.4z M34.3,19.4c-1.6,0-2.4-0.7-2.4-2v-3.1h1.9v2.4c-0.1,0.8,0.4,1.2,1.3,1.1h1.5
			c0.8,0,1.3-0.2,1.4-0.7c0.2-0.5,0.3-1.1,0.3-1.6c0.8,0.3,1.4,0.5,1.8,0.6c-0.2,0.8-0.3,1.4-0.5,1.8c-0.3,1.1-1.2,1.6-2.6,1.6
			L34.3,19.4L34.3,19.4z M34.8,6.5v2.2h1.9V6.5H34.8z M40.3,6.5h-2v2.2h2V6.5z M41.5,18.1c-0.5-1-1.1-2.1-1.9-3.4l1.6-0.7
			c0.8,1.1,1.4,2.3,2,3.4C43.1,17.4,41.5,18.1,41.5,18.1z"/>
		<path class="st0" d="M47.1,19.8v-19h18.2v19h-2v-0.9h-14v0.9H47.1L47.1,19.8z M49.2,2.6v14.6h14V2.6C63.2,2.6,49.2,2.6,49.2,2.6z
			 M50,6.5V4.9h6.8V3.1h1.8v1.7h1.6l-0.7-1.2l1.2-0.4c0.1,0.2,0.3,0.5,0.6,0.9c0.2,0.3,0.3,0.6,0.4,0.7h0.7v1.6h-3.7
			c0,1.8,0.2,3.3,0.4,4.4c0.6-1,1.2-2.2,1.7-3.6l1.5,0.7c-1,2.2-1.9,3.9-2.8,5.1c0,0.1,0.1,0.2,0.2,0.4c0,0.2,0.1,0.4,0.2,0.5
			c0.2,0.5,0.5,0.7,0.7,0.7c0.3,0,0.4-0.2,0.5-0.7c0.1-0.3,0.3-1,0.5-2.1c0.3,0.2,0.7,0.5,1.2,0.7c-0.1,0.5-0.2,1.1-0.4,1.8
			c-0.1,0.3-0.1,0.5-0.2,0.6c-0.3,1.1-1,1.7-1.9,1.6c-0.9,0-1.6-0.6-2-1.9c-0.2,0.2-0.5,0.6-0.9,1.1c-0.4,0.4-0.8,0.8-1,1
			c-0.2-0.2-0.6-0.7-1.3-1.4h0.1c-1,0.1-2.5,0.3-4.5,0.6C50.5,16,50.3,16,50.2,16l-0.3-1.7c2.5-0.2,4.7-0.4,6.4-0.7v0.8
			c0.5-0.5,1-1,1.5-1.6c-0.4-1.4-0.7-3.5-0.8-6.4L50,6.5L50,6.5z M50.7,12.7v-5h5.1v5C55.8,12.7,50.7,12.7,50.7,12.7z M52.1,9.1v2.2
			h2.1V9.1H52.1z"/>
		<path class="st0" d="M71.7,15.4c-0.8-0.4-1.6-0.7-2.3-0.9c1.6-3.1,2.8-6.4,3.8-9.9l2.4,0.7C74.4,8.6,73.1,12,71.7,15.4L71.7,15.4z
			 M74.6,19.4c-0.1-0.8-0.2-1.6-0.5-2.2c0.7,0,1.5,0.1,2.6,0.1c1.2,0.1,1.8-0.4,1.6-1.6V0.3h2.4v16c0.1,2-0.9,3-3,3L74.6,19.4
			L74.6,19.4z M87,15.1c-1.1-3-2.4-6.2-4-9.8l2.2-0.7c0.7,1.6,1.9,4.4,3.5,8.2c0.3,0.7,0.6,1.1,0.7,1.5L87,15.1L87,15.1z"/>
		<path class="st0" d="M93.9,6c-0.4-0.5-0.9-1-1.4-1.4C94,3.4,95.2,1.9,96.1,0l2.2,0.2c-0.1,0.2-0.2,0.4-0.4,0.7s-0.3,0.6-0.4,0.7
			h5.2v1.7h-3.4l1.2,1.6l-1.9,0.5c-0.2-0.3-0.6-0.8-1.2-1.5c-0.2-0.3-0.3-0.5-0.4-0.6h-0.7C95.7,4.3,94.8,5.1,93.9,6L93.9,6z
			 M93.6,19.5c-0.4-0.7-0.8-1.3-1.2-1.9c3.3-0.8,5.7-1.9,7.2-3.4h-3.9l-0.1,0.7h-2.1l1-5.8h6.7V7.4h-7V5.7h16.3v5.2h-7.1v1.7h8.1
			c-0.1,1.2-0.1,2.3-0.2,3.2c-0.1,1.7-1,2.5-3,2.5c-0.7,0-1.7,0.1-2.9,0.1c-0.1-0.2-0.1-0.5-0.2-0.9c-0.1-0.4-0.2-0.7-0.2-0.9
			c0.5,0.1,1.4,0.1,2.9,0.1c0.8,0.1,1.3-0.3,1.3-1.1v-0.5c0.1-0.4,0.1-0.7,0.1-0.8h-5.9v5.6h-2.2v-4.8
			C99.6,16.9,97.1,18.4,93.6,19.5L93.6,19.5z M96.5,10.8l-0.3,1.7h5.2v-1.7H96.5z M103.6,5.4c-0.1-0.1-0.3-0.3-0.7-0.5
			c-0.4-0.3-0.7-0.6-0.9-0.7c1.3-1.3,2.2-2.7,2.8-4.2l2.2,0.2c-0.1,0.1-0.1,0.3-0.2,0.5c-0.2,0.5-0.4,0.8-0.5,1h5.9v1.7h-3.9
			c0.5,0.5,1,1,1.4,1.6l-1.9,0.5c-0.2-0.2-0.4-0.4-0.7-0.8c-0.5-0.6-0.8-1-1.1-1.2h-0.7C104.8,4.1,104.2,4.8,103.6,5.4L103.6,5.4z
			 M108.6,7.4h-5v1.7h5V7.4z"/>
		<path class="st0" d="M115.6,10.8V8.4h20v2.5C135.6,10.8,115.6,10.8,115.6,10.8z"/>
		<path class="st0" d="M139.1,6v-2h2V0.2h2.1v3.8h1.5v2h-1.5v3.2l1.6-0.5v2.1l-1.6,0.5v5.9c0.1,1.4-0.6,2.1-2.1,2.2h-1.7
			c-0.1-0.7-0.2-1.3-0.4-2h1.3c0.6,0,0.9-0.2,0.8-0.7V12c-0.8,0.3-1.4,0.5-2.1,0.7l-0.2-2.2l2.3-0.7V6L139.1,6L139.1,6z M145.3,5.5
			V3.6h3.1V0.2h2.1v10.9c0.2,4.1-0.8,7.1-2.9,8.9c-0.6-0.4-1.2-0.8-1.9-1.1c1.3-1.3,2-2.4,2.2-3.4l-3.4,0.6l-0.2-2.1
			c1.2-0.1,2.5-0.3,3.9-0.5c0.1-0.7,0.1-1.4,0.1-2.3v-0.6h-3v-2h3v-3L145.3,5.5L145.3,5.5z M152.5,19.8V0.2h2.1v3.4h3.7v1.9h-3.7v3
			h3.3v2h-3.3v3h4v2h-4v4.3H152.5z"/>
		<path class="st0" d="M173.6,6.2v2.7c0.1,2.1-0.9,3.7-2.7,4.7l-0.7-0.9c1.4-0.8,2.1-1.9,2.1-3.4h-1.6V6.2H173.6L173.6,6.2z"/>
		<path class="st0" d="M185.3,5.8v-2h2.1V0.2h2.1v3.7h1.6v2h-1.6v3.6l1.7-0.5v2.1l-1.7,0.5v5.7c0.1,1.5-0.6,2.3-2.1,2.3
			c-0.8,0-1.5,0.1-2.1,0.1c-0.1-0.4-0.1-1-0.2-1.8c-0.1-0.2-0.1-0.3-0.1-0.3c0.6,0,1.1,0.1,1.6,0.1c0.7,0,1-0.2,0.9-0.9v-4.5
			c-0.7,0.2-1.4,0.4-2.2,0.7l-0.2-2.4c0.8-0.2,1.6-0.3,2.5-0.5V5.8H185.3L185.3,5.8z M191.4,12.7v-1.8h3.6c0.3-0.6,0.7-1.2,1-1.7
			l2.1,0.3c-0.1,0.1-0.1,0.2-0.2,0.3c-0.1,0.2-0.3,0.6-0.6,1.1h7.5v1.8h-2.3c-0.7,1.5-1.4,2.7-2.2,3.5c1.5,0.7,3,1.2,4.4,1.7
			l-1.1,1.8c-1.3-0.7-3-1.4-5-2.3c-1.5,0.9-3.9,1.7-7.1,2.4c-0.1-0.1-0.2-0.3-0.3-0.7c-0.1-0.2-0.4-0.6-0.7-1.2
			c2.8-0.4,4.8-0.9,5.9-1.4l-2.1-0.9c-0.1,0.1-0.1,0.1-0.2,0.2c-0.1,0.2-0.2,0.3-0.2,0.3l-1.8-0.8c0.7-0.8,1.3-1.6,2-2.6L191.4,12.7
			L191.4,12.7z M191.4,8.8V7h3.6c-0.2-0.3-0.5-0.7-0.9-1.3c-0.3-0.4-0.5-0.7-0.6-0.9l2-0.6c0.1,0.2,0.3,0.4,0.5,0.7
			c0.7,0.9,1.2,1.6,1.4,2L197.1,7h1.9c0.2-0.3,0.5-0.8,0.9-1.4c0.4-0.7,0.7-1.1,0.9-1.4l2.1,0.6c-0.2,0.2-0.4,0.6-0.7,1.1
			c-0.4,0.5-0.7,0.9-0.8,1.2h3.5v1.8H191.4L191.4,8.8z M192,4V2.3h5V0.1h2.1v2.2h5V4L192,4L192,4z M195.1,14.1l3,1.2
			c0.8-0.7,1.5-1.5,2-2.6h-3.9C195.8,13.2,195.5,13.7,195.1,14.1z"/>
		<path class="st0" d="M211.7,8.5c-0.8-0.6-1.9-1.4-3.4-2.5c-0.2-0.1-0.3-0.2-0.3-0.2l1.2-1.6c0.3,0.2,0.7,0.5,1.3,0.9
			c1.1,0.8,2,1.4,2.6,1.8L211.7,8.5L211.7,8.5z M209.1,19.8l-1-2.4c0.8-0.7,1.6-1.4,2.4-2.2v-4.1h-2.2v-2h4.4v6.2
			c0.8,1.4,2.2,2,4.2,2c3.1,0,6.8,0,11.3,0c-0.3,0.6-0.5,1.3-0.7,2h-7c-1.7,0-3.1,0-4.2-0.1c-2.4-0.1-4-0.8-4.8-2.2
			C210.5,17.9,209.7,18.9,209.1,19.8L209.1,19.8z M212.5,4.4c-1.3-1.1-2.6-2-3.8-2.9L210,0c1.3,0.9,2.6,1.8,3.9,2.7L212.5,4.4z
			 M214.6,5.9V4h3.4c-0.1-0.1-0.2-0.2-0.3-0.4c-0.8-1.1-1.4-1.9-1.9-2.5l1.9-1c0.3,0.4,0.8,0.9,1.3,1.6c0.4,0.6,0.8,1,1,1.2l-1.9,1
			h3.3c0.4-0.7,1-1.7,1.8-3c0.2-0.3,0.3-0.6,0.4-0.7l2.1,0.8c-0.1,0.1-0.2,0.3-0.3,0.5c-0.5,0.7-1.1,1.5-1.8,2.5h3.5v2h-5.4
			l-0.1,2.5v0.3h6.1v2h-6.3c0,0.1,0,0.3-0.1,0.7c0.1-0.2,0-0.2-0.1,0.2l0.5-0.5c2.1,1.5,3.9,2.9,5.4,4.2l-1.6,1.6
			c-1-0.9-2.4-2.1-4.3-3.7c-0.3-0.2-0.5-0.4-0.6-0.5c-0.9,1.7-2.6,3.2-5.2,4.4c-0.2-0.3-0.5-0.7-1.1-1.3c-0.2-0.2-0.3-0.4-0.3-0.4
			c3.1-1.3,4.8-2.9,5.1-4.7h-5.2v-2h5.5V5.9L214.6,5.9L214.6,5.9z"/>
		<path class="st0" d="M231.9,3.9V1.6h18.8v2.2h-7.2c-0.8,1.3-1.6,2.5-2.5,3.7h1.3v12.2h-2.5V8.9c-1.8,2.1-4.2,4.1-7.2,6.2
			c-0.6-0.9-1-1.5-1.5-2c4.5-2.9,7.7-6,9.5-9.3L231.9,3.9L231.9,3.9z M249.4,14.7c-2.4-2-4.5-3.7-6.3-5l1.5-1.6
			c2.2,1.5,4.4,3.1,6.6,4.7L249.4,14.7L249.4,14.7z"/>
		<path class="st0" d="M268,5.2v1.1h5.7c0,0.2,0,0.5-0.1,0.9c0,0.4,0,0.7-0.1,0.8c-0.1,1-0.6,1.5-1.6,1.6v7.3h-15v-6.3l-1.6,0.3
			c-0.2-0.6-0.4-1.1-0.7-1.6c3.1-0.4,5-1,5.7-1.8h-2.6l-0.1,0.6h-2l0.7-4.2h4.7V2.9h-5.2V1.6h5.2V0.2h2v1.4h3V0.2h2v1.4h4.9v3.7H268
			L268,5.2z M255.3,19.9c-0.2-0.5-0.5-1-0.7-1.6c1-0.1,2.4-0.3,4.4-0.7c1.4-0.2,2.5-0.3,3.2-0.4l0.7,1.2
			C259.8,19,257.3,19.5,255.3,19.9z M258,5.3l-0.2,1.1h3c0.1-0.3,0.2-0.7,0.2-1V5.3H258z M259,10.5v1h10.8v-1H259z M259,12.6v1h10.8
			v-1H259z M259,14.7v1.1h10.8v-1.1H259z M266,8.9V7.5h-3.5c-0.3,0.8-0.9,1.3-1.7,1.7h8.9c0-0.1,0-0.2-0.1-0.3
			c-0.1-0.2-0.2-0.4-0.2-0.6h1.6c0.4,0,0.7-0.1,0.7-0.4V7.5H268v1.3L266,8.9L266,8.9z M262.9,5.4c0,0.1,0,0.3-0.1,0.5v0.4h3.1V5.2
			h-3V5.4L262.9,5.4z M262.9,2.9v1.1h3V2.9H262.9z M273.5,19.8c-2.1-0.3-4.7-0.8-7.6-1.5l0.7-1.2c0.2,0,0.5,0.1,0.9,0.2
			c2.8,0.4,5,0.8,6.6,1L273.5,19.8L273.5,19.8z M271,2.9h-3v1.1h3V2.9z"/>
		<path class="st0" d="M279.2,19.7c-0.1-0.1-0.2-0.3-0.4-0.5c-0.6-0.7-1-1.2-1.2-1.4c4.5-2.4,6.8-6.1,6.8-11.2h-6.2V4.3h6.3
			c0-0.4,0-1.2,0.1-2.1c0-0.9,0-1.6,0.1-2h2.4c0,0.9-0.1,2.2-0.2,3.9c0-0.1,0,0,0,0.2h9.2c-0.2,4.2-0.3,7.8-0.5,10.8
			c-0.1,2.7-1.4,4.1-4.1,4c-1.2,0-2.6,0.1-4.2,0.1c-0.1-0.5-0.2-1.1-0.4-2c-0.1-0.2-0.1-0.3-0.1-0.3c0.9,0,2.2,0.1,3.9,0.1
			c1.8,0.1,2.6-0.9,2.5-2.9c0.1-1.1,0.2-3.2,0.2-6.2c0-0.7,0.1-1.1,0.1-1.4h-6.8C286.8,12.6,284.3,17,279.2,19.7L279.2,19.7z"/>
		<path class="st0" d="M313.6,11.7l-1.7,1.6l-4.4-5l1.6-1.4L313.6,11.7L313.6,11.7z"/>
		<path class="st0" d="M323.8,16.1v-1.7h9.4v-0.2l2.9-1.6h-8V11h11.3v1.6l-3.5,1.8h7.9v1.7h-8.3v1.1c0,1.6-0.7,2.4-2.4,2.3
			c-0.6,0-1.8,0.1-3.7,0.1c-0.1-0.8-0.2-1.4-0.4-1.8c0.5,0,1.5,0.1,3,0.1c0.9,0,1.3-0.3,1.2-1v-0.8
			C333.1,16.1,323.8,16.1,323.8,16.1z M337.1,4.5V3.4h3V2.1h-3.2V0.7h5.2v7.6h1.1v3.9h-2V9.7h-14.9v2.4h-2V8.2h1.1V1.1
			c1.9-0.3,3.3-0.6,4.4-0.9l0.7,1.6c-0.5,0.1-1.3,0.2-2.4,0.4c-0.4,0.1-0.6,0.2-0.7,0.2v1.1h3v1.2h-3v1.2h3V7h-3v1.2h12.8V7h-3V5.8
			h3V4.5L337.1,4.5L337.1,4.5z M330.7,3.1c0.7-0.3,1.3-0.7,1.9-1c-0.5-0.4-1.1-0.7-1.7-1.1l0.8-1c0.2,0.1,0.5,0.3,1,0.6
			c0.5,0.3,0.9,0.6,1.1,0.7c0.6-0.4,1.2-0.8,1.7-1.3l1,0.9c-0.2,0.1-0.4,0.3-0.7,0.5c-0.4,0.3-0.7,0.5-0.8,0.7
			c0.2,0.1,0.5,0.3,0.9,0.5c0.4,0.3,0.7,0.5,0.8,0.6l-0.8,1l0.6,0.5c-0.5,0.4-1,0.8-1.5,1.2c0.2,0.1,0.4,0.2,0.7,0.4
			c0.4,0.3,0.8,0.6,1.1,0.7l-1,1.2c-0.7-0.5-1.3-1-1.8-1.4c-0.8,0.5-1.6,1-2.4,1.4c-0.2-0.4-0.5-0.8-0.7-1.2
			c0.7-0.3,1.3-0.7,1.9-1.1c-0.5-0.3-1-0.7-1.6-1.1l0.6-0.6l-0.1,0.1C331.2,3.8,330.9,3.4,330.7,3.1L330.7,3.1z M333.7,2.9
			c-0.5,0.3-1.1,0.7-1.7,1c0.2,0.1,0.4,0.3,0.7,0.5c0.5,0.3,0.9,0.6,1.1,0.7c0.4-0.3,0.9-0.7,1.4-1.2C334.7,3.5,334.2,3.2,333.7,2.9
			L333.7,2.9z"/>
		<path class="st0" d="M348.1,9.6l-0.7-1.8c2.4-0.7,4.5-1.6,6.4-2.8V3.9c-2.2,1.3-4.2,2.2-6.2,2.7L347,5c2-0.4,3.9-1.2,5.8-2.2h-5.6
			V1.1h8.6v7.1h-2V6.8C352.2,8,350.2,8.9,348.1,9.6L348.1,9.6z M349.2,19.8v-9.6h4.6c0.2-0.6,0.4-1.1,0.6-1.6l2.1,0.2l-0.5,1.4h8.3
			v9.6h-2.1v-1h-10.8v1L349.2,19.8L349.2,19.8z M351.4,11.8v2h10.8v-2H351.4z M351.4,15.4v1.9h10.8v-1.9
			C362.2,15.4,351.4,15.4,351.4,15.4z M357.7,9.3l-0.6-1.8c2.4-0.6,4.4-1.5,6.2-2.7V3.7c-1.8,1.2-3.9,2.2-6.2,2.9l-0.7-1.7
			c1.6-0.3,3.4-1,5.4-2h-5.1V1.1h8.5v7.8h-2V6.6C361.7,7.7,359.8,8.6,357.7,9.3z"/>
		<path class="st0" d="M377.5,17.7c-0.8-0.5-1.5-1.1-2.1-1.8c-0.7,1-2,2.2-3.9,3.7c-0.5-0.7-1-1.2-1.5-1.6c1.8-1.1,3-2.3,3.9-3.4
			l-1.6-1.5l-0.2,0.8l-1.9-0.7c0.7-2.3,1.3-4.6,1.8-6.8h-1.6v-2h2c0.2-1.4,0.4-2.8,0.6-4.2l2.2,0.2c-0.2,1.3-0.5,2.6-0.7,4h4v1.9
			c-0.3,3.3-0.9,6-1.8,7.9c0.8,0.7,1.6,1.3,2.4,2L377.5,17.7L377.5,17.7z M376.2,6.3h-2.3c-0.1,0.4-0.3,1.1-0.5,2
			c-0.3,1.3-0.5,2.2-0.7,2.8c0.2,0.1,0.4,0.3,0.7,0.5c0.3,0.3,0.8,0.7,1.5,1.1C375.6,11.1,376,9,376.2,6.3L376.2,6.3z M378.6,11.2V9
			h4.8V6.6l3.3-3.3h-7.3V1.2h10v2.2l-3.7,3.8V9h4.3v2.1h-4.3v5.7c0,1.8-0.9,2.6-2.8,2.6c-0.7,0-1.6,0.1-2.7,0.1c0-0.1,0-0.1-0.1-0.2
			c-0.1-0.9-0.2-1.6-0.3-1.9h2.3c0.9,0,1.4-0.4,1.3-1.2v-5L378.6,11.2L378.6,11.2z"/>
		<path class="st0" d="M393.4,3.8V2.1h3.2V0.2h2V2h3.1v1.7h-3.1v1.6h2.8v8.2h-2.8v1.6h3.4v1.8h-3.4v2.9h-2v-2.9h-3.4v-1.8h3.4v-1.6
			h-2.8V5.3h2.8V3.8C396.6,3.8,393.4,3.8,393.4,3.8z M395.1,7v1.7h1.7V7C396.8,7,395.1,7,395.1,7z M395.1,10.1v1.8h1.7v-1.8H395.1z
			 M400,7h-1.8v1.7h1.8V7z M398.2,10.1v1.8h1.8v-1.8H398.2z M402.5,13.9v-2h9.9v2h-4v3.4h4.6v1.8h-11.5v-1.8h4.8v-3.4H402.5
			L402.5,13.9z M404.2,11.4c-0.3-0.6-1-1.7-2.1-3.4c-0.2-0.2-0.3-0.4-0.3-0.5c0.8-1.1,1.6-2.3,2.4-3.8l1.6,0.7
			c-0.8,1.4-1.5,2.5-2,3.1c0.3,0.4,0.9,1.2,1.6,2.3c0.2,0.3,0.4,0.6,0.5,0.7L404.2,11.4L404.2,11.4z M402.3,3.2v-2h10.4v2L402.3,3.2
			L402.3,3.2z M407.7,11.3c-0.5-1-1.3-2.2-2.4-3.8c1.1-1.7,1.9-3,2.3-3.8l1.6,0.7c-0.8,1.4-1.5,2.4-2,3.1l0.1,0.1
			c0.9,1.2,1.6,2.2,2.1,3L407.7,11.3L407.7,11.3z M411.3,11.3c-1-1.6-1.9-2.8-2.6-3.8c0.8-0.9,1.6-2.2,2.5-3.8l1.6,0.7
			c-0.4,0.6-0.9,1.4-1.6,2.5c-0.2,0.3-0.4,0.5-0.5,0.7c0.8,0.9,1.5,1.9,2.3,3L411.3,11.3L411.3,11.3z"/>
		<path class="st0" d="M416.7,13.3v-1.6h3v-1.4h2v1.4h2.6v1.6h-2.6V15l0.7-0.7c0.2,0.1,0.4,0.3,0.7,0.6c0.4,0.3,1,0.7,1.7,1.2
			l-1.2,1.2c-0.1-0.1-0.3-0.3-0.6-0.5c-0.6-0.4-1-0.8-1.3-1.1v3.9h-2v-4.1c-0.8,1.2-1.6,2.2-2.6,2.9c-0.1-0.3-0.4-0.9-0.8-1.7
			c1.3-0.9,2.4-2,3.2-3.4L416.7,13.3L416.7,13.3z M416.5,7.6V6.4h1.4V0.9h8.4V2h-6.4v0.9h6.2v0.8h-6.2v0.9h6.2v0.8h-6.2v0.9h6.8v1.2
			h-1.8c0.9,0.9,1.6,1.6,2,2.1l-1.4,0.8c-0.1-0.1-0.1-0.1-0.2-0.2c-0.2-0.2-0.3-0.4-0.5-0.5c-1.1,0.1-2.8,0.1-5.2,0.2
			c-1.2,0.1-2,0.1-2.5,0.1l-0.2-1.3h1.2c0.3-0.4,0.6-0.8,0.8-1.2L416.5,7.6L416.5,7.6z M420.9,7.6l-0.8,1.1c0.4,0,1,0,1.8-0.1
			c0.8,0,1.4,0,1.8-0.1l-0.8-0.7l0.2-0.2L420.9,7.6L420.9,7.6z M425.3,16.1c-0.1,0-0.2-0.2-0.3-0.3c-0.4-0.4-0.7-0.7-0.9-0.9
			c1.3-0.9,2.3-2,3-3.3l1.5,0.7C427.8,13.8,426.7,15.1,425.3,16.1L425.3,16.1z M425.1,19.4l-0.2-1.5l1.5-0.1c0.8-1,1.7-2.5,2.8-4.4
			L431,14c-0.2,0.3-0.6,0.8-1.1,1.6c-0.8,1.1-1.3,1.8-1.6,2.1c1.3,0,2.6,0,3.9-0.2l-1.2-1.5l1.5-0.7c1.3,1.4,2.3,2.6,3,3.7l-1.6,0.8
			l-0.7-1C429.2,19.2,426.6,19.3,425.1,19.4L425.1,19.4z M427.6,3.9c-0.2-0.5-0.4-1.1-0.7-1.6c2.5-0.5,4.8-1.1,6.9-1.9l0.7,1.5
			C431.9,2.8,429.6,3.4,427.6,3.9L427.6,3.9z M427.9,9.9c-0.2-0.7-0.4-1.2-0.7-1.6c2.7-0.4,5.3-1.2,7.8-2.1l0.7,1.5
			C433,8.7,430.4,9.4,427.9,9.9L427.9,9.9z M428,6.8c0-0.1-0.1-0.3-0.2-0.6c-0.2-0.4-0.3-0.7-0.4-0.9c2.2-0.4,4.6-1.1,7-2l0.7,1.4
			C432.8,5.6,430.5,6.3,428,6.8L428,6.8z M428,11.8v-1.4h4.6v0.1c0.9,1.6,2.2,2.9,3.9,3.9c-0.2,0.2-0.4,0.5-0.7,0.9
			c-0.2,0.3-0.3,0.5-0.4,0.6c-1.6-1-2.9-2.4-3.9-4C431.4,11.8,428,11.8,428,11.8z"/>
		<path class="st0" d="M32,36.3v-1.7h8.8v-2H43v2h8.5v1.7h-5.8c0.7,0.5,1.8,1.2,3.2,2.1c0.9,0.7,1.5,1.1,2,1.4l-1.5,1.5L47.7,40
			c-4.9,0.1-9.5,0.2-14,0.4l-0.3-1.8h2.5c0.8-0.8,1.5-1.5,2.1-2.3C37.9,36.3,32,36.3,32,36.3z M34.2,52.2V41.4h15v8.1
			c0.1,1.6-0.8,2.5-2.7,2.5h-1.2c-0.9,0-1.6,0.1-2,0.1c-0.1-0.2-0.2-0.7-0.3-1.4c-0.1-0.2-0.1-0.4-0.2-0.5c0.4,0,0.9,0,1.6,0.1h1.3
			c0.9,0,1.4-0.3,1.3-1.1v-0.3H36.5v3.3L34.2,52.2L34.2,52.2z M36.5,43v1.5h10.6V43H36.5z M36.5,45.9v1.5h10.6v-1.5H36.5z
			 M38.6,38.5c0.8,0,2,0,3.7-0.1h3.3c-0.8-0.6-1.5-1.2-2.3-1.6l0.6-0.5h-3.2c-0.2,0.3-0.6,0.6-1.1,1.1
			C39.1,37.9,38.8,38.3,38.6,38.5L38.6,38.5z"/>
		<path class="st0" d="M65.7,40.1v-1.8h5v-2.6h-5v-1.9H73v10.9h-4.8v3.9c-0.1,0.9,0.4,1.3,1.3,1.3h1.2c1.1,0,1.7-0.4,1.7-1.2
			c0.1-0.3,0.1-0.8,0.2-1.6c0,0.2,0,0,0.1-0.4c0.8,0.2,1.5,0.5,2.1,0.7c-0.2,1-0.3,1.8-0.5,2.5c-0.3,1.3-1.3,1.9-3.1,1.9h-2.6
			c-1.8,0-2.7-0.8-2.6-2.5v-4.6h-2.9c0.2,3.5-2.1,6-6.9,7.5c-0.3-0.5-0.7-1.2-1.3-2c4.2-1.1,6.2-3,6-5.6h-4.3V33.9
			c2.6-0.2,4.9-0.6,7-1.2l0.7,2c-2.3,0.5-4.1,0.8-5.5,0.9v2.6h5.1v1.8h-5.1v2.7h11.9v-2.7L65.7,40.1L65.7,40.1z"/>
		<path class="st0" d="M96.5,52.1c-3.8-1.2-6.6-2.5-8.5-4c-1.8,1.5-4.6,2.9-8.5,4.2c-0.8-1.2-1.3-1.9-1.5-2.1
			c3.5-0.9,6.2-2.1,8.2-3.7c-1.5-1.8-2.8-3.9-3.8-6.4l2.1-1.1c0.9,2.5,2.1,4.4,3.4,5.8c1.2-1.3,2.3-3.2,3.4-5.9l2.1,1
			c-1.2,2.8-2.4,5-3.9,6.6c2,1.6,4.8,2.7,8.2,3.5C97.5,50.3,97.1,51,96.5,52.1L96.5,52.1z M80,40.9c-0.7-0.7-1.2-1.2-1.6-1.6
			c2.5-2,4.7-4,6.5-6.2l1.9,1.3C84.8,36.7,82.5,38.9,80,40.9L80,40.9z M95.9,40.5c-1.5-1.5-3.7-3.5-6.6-6.1l1.6-1.4
			c2.3,1.9,4.6,3.8,6.8,5.8L95.9,40.5L95.9,40.5z"/>
		<path class="st0" d="M101.1,42.2v-2h2.3l0.7-6.5h14.6c-0.1,2.2-0.1,4.4-0.2,6.5h2.5v2h-2.5c-0.1,1.8-0.1,3.3-0.2,4.6h1.9v2h-2
			c-0.2,2.2-1.4,3.3-3.9,3.2h-4c-0.1-0.6-0.2-1.2-0.5-1.9h3.9c1.4,0,2.1-0.4,2.1-1.3h-10.9l-0.1,1h-2.5l0.9-7.5L101.1,42.2
			L101.1,42.2z M116,46.8c0.1-1.4,0.2-2.9,0.2-4.6h-10.7l-0.5,4.6H116L116,46.8z M106.3,35.6l-0.5,4.5h10.5l0.2-4.5
			C116.5,35.6,106.3,35.6,106.3,35.6z M111.6,46.6c-0.9-0.8-2-1.8-3.3-2.8l1.4-1.4c0.1,0.1,0.3,0.3,0.6,0.5c0.7,0.5,1.6,1.2,2.8,2
			L111.6,46.6L111.6,46.6z M112,40c-1-1-2.1-1.9-3.3-2.8l1.3-1.5c0.3,0.2,0.7,0.5,1.2,1c0.3,0.2,1,0.8,2.1,1.6L112,40L112,40z"/>
		<path class="st0" d="M124.3,42.3v-1.6h19.9v1.6h-10.3v9.9H132v-1.6c-1.3,0.1-3,0.3-4.9,0.5c-1,0.1-1.8,0.2-2.5,0.2l-0.2-1.6
			l1.7-0.1v-7.4H124.3L124.3,42.3z M126.8,39.6v-6.2h14.8v6.2C141.6,39.6,126.8,39.6,126.8,39.6z M128,42.3v1.5h3.9v-1.5H128z
			 M128,45.1v1.4h3.9v-1.4H128z M128,49.6c0.4,0,0.9,0,1.6-0.2c1,0,1.8-0.1,2.3-0.2v-1.4H128V49.6L128,49.6z M129,34.9V36h10.4v-1.2
			H129z M129,37.2v1.1h10.4v-1.1H129z M143.3,52.1c-1.7-0.5-3.1-1.2-4.2-2c-0.7,0.5-2,1.3-3.9,2.2c-0.2-0.5-0.6-1.1-1-1.7
			c1.4-0.4,2.5-0.9,3.4-1.5c-0.9-1-1.7-2.2-2.4-3.7l0.6-0.3h-1.1v-1.6h8.1v1.7c-0.7,1.5-1.4,2.7-2.4,3.8c1,0.5,2.2,1,3.5,1.3
			C143.8,50.8,143.6,51.5,143.3,52.1L143.3,52.1z M140.9,45h-3.9c0.6,1.2,1.3,2.1,2,2.8C139.8,47.1,140.4,46.2,140.9,45z"/>
		<path class="st0" d="M148,35.6v-1.4h8.1v-1.6h2.2v1.6h8.2v1.4h-8.2v1.2h7.1v1.4h-7.1v1.2h8.6v1.4h-19.5v-1.4h8.6v-1.2H149v-1.4
			h7.1v-1.2H148L148,35.6z M149.8,52.2V42.1h14.9v7.4c0.1,1.6-0.8,2.4-2.6,2.5h-3.4c-0.1-0.2-0.2-0.7-0.4-1.4
			c-0.1-0.2-0.1-0.3-0.1-0.4c0.7,0,1.7,0.1,3,0.1c1,0,1.4-0.3,1.4-1.1v-0.4H152v3.4L149.8,52.2L149.8,52.2z M152,43.5v1.3h10.7v-1.3
			H152z M152,46.2v1.2h10.7v-1.2H152z"/>
		<path class="st0" d="M178,37v-1.9h4.8v-2.5h2v2.5h5.1V37h-5.1v5.6c1.3,2.7,3.2,4.8,5.7,6.2c-0.6,0.8-0.9,1.4-1.1,1.8
			c-1.9-1.3-3.4-3-4.5-4.9v6.6h-2v-6.6c-1,1.9-2.6,3.6-4.6,5.2c-0.4-0.5-0.7-1-1.1-1.4v2h-1.7v-1.6h-2.3v1.6h-1.8V34h5.8v9
			c1.3-1.5,2.1-3.2,2.5-5l1.6,0.2c-0.1,0.3-0.2,0.8-0.4,1.3c-0.1,0.3-0.1,0.5-0.2,0.7l1.9,1.8l-1.1,1.5c-0.5-0.6-1-1.2-1.5-1.7
			c-0.4,0.9-1,1.8-1.6,2.6c-0.2-0.3-0.6-0.7-1.2-1.2v6.2c2.3-1.5,4.2-3.7,5.7-6.4V37H178L178,37z M173.1,35.8v3h2.3v-3H173.1z
			 M173.1,40.5v2.9h2.3v-2.9H173.1z M173.1,45.2v3h2.3v-3H173.1z M189.3,43.8c-0.6-0.7-1.2-1.4-2-2.3c-0.1,0.3-0.4,0.7-0.7,1.3
			c-0.2,0.2-0.3,0.4-0.3,0.5c-0.2-0.2-0.4-0.5-0.8-0.7c-0.2-0.2-0.4-0.4-0.5-0.5c1-1.3,1.7-2.7,2.1-4.2l1.6,0.2
			c-0.2,0.7-0.4,1.3-0.6,1.9c0.8,0.8,1.6,1.6,2.2,2.3L189.3,43.8L189.3,43.8z"/>
		<path class="st0" d="M194.4,51.9V35.8h2.2c0.2-0.6,0.4-1.4,0.7-2.5c0.1-0.3,0.1-0.6,0.2-0.7l2.3,0.3c-0.2,1-0.5,1.9-0.8,2.9h3.5
			v16h-2.1v-1.5h-3.9v1.6L194.4,51.9L194.4,51.9z M196.5,37.9v4.3h3.9v-4.3H196.5z M196.5,44.2v4.3h3.9v-4.3H196.5z M205.4,51.9
			c-0.1-0.8-0.2-1.5-0.4-2h1.5c0.7,0,1.3,0.1,1.6,0.1c1.5,0,2.2-0.7,2.2-2.1c0.1-0.9,0.1-2.7,0.2-5.6c0.1-2,0.1-3.5,0.1-4.3h-4.5
			c-0.5,1.1-1,2.1-1.5,3c-0.1,0-0.3-0.2-0.5-0.3c-0.3-0.2-0.7-0.4-1.4-0.7c1.3-2.3,2.2-4.7,3-7.2l2.2,0.5c-0.1,0.2-0.2,0.5-0.3,0.9
			c-0.2,0.8-0.4,1.4-0.7,1.8h5.9c-0.1,6-0.2,10.1-0.3,12.3c0.1,2.5-1.1,3.7-3.5,3.6C207.9,51.8,206.7,51.9,205.4,51.9L205.4,51.9z
			 M207.2,46.4c-0.9-1.4-1.9-2.9-3-4.3l1.7-1.1c1,1.2,2.1,2.5,3.2,4.2L207.2,46.4L207.2,46.4z"/>
		<path class="st0" d="M221.9,50.9V37.7c-1.3,1.2-3,2.3-5.2,3.2v-2.2c2.9-1.3,4.8-2.9,5.8-4.8h1.9v17H221.9L221.9,50.9z"/>
		<path class="st0" d="M230.2,46.7l2.5-0.6c0.4,2.1,1.6,3.2,3.6,3.2c2.2-0.2,3.3-1.4,3.4-3.8c-0.1-2.5-1.2-3.7-3.5-3.8
			c-1.5,0-2.6,0.6-3.3,1.6l-2-0.1l0.7-9.2h9.7v2.1h-7.6l-0.5,5c0.9-0.9,2.1-1.3,3.5-1.3c3.4,0.1,5.2,1.9,5.4,5.4
			c-0.1,3.7-2.1,5.6-5.9,5.8C233,51.1,231,49.6,230.2,46.7L230.2,46.7z"/>
		<path class="st0" d="M247.3,41.3c-0.1-0.2-0.3-0.4-0.5-0.7c-0.2-0.3-0.4-0.7-0.8-1.2c2-1.8,3.5-4,4.7-6.7l2.5,0.2
			c-0.3,0.7-0.7,1.4-1,2h12.7v2h-6.6V40h6.2v2h-6.2v3.8h7.5v2h-7.5v4.5H256v-4.5h-10.1v-2h3V40h7.1v-3.2h-5
			C250.1,38.2,248.8,39.7,247.3,41.3L247.3,41.3z M251.2,41.9v3.8h4.8v-3.8H251.2z"/>
		<path class="st0" d="M270.4,52.4c-0.1,0-0.1-0.2-0.2-0.4c-0.5-0.8-0.9-1.3-1.1-1.6c4-1.2,6.5-2.8,7.6-5.1H271v-5.4l-0.7,0.6
			c-0.1-0.1-0.2-0.3-0.3-0.5c-0.2-0.3-0.5-0.7-1-1.3c2.6-1.8,4.6-3.8,6.1-6.1l2.5,0.3c-0.3,0.5-0.7,1-1,1.5h7.7V36l-2.3,2.3h4.6v7
			H279c-0.1,0.2-0.2,0.5-0.3,0.7h2.1v2.7c-0.1,0.8,0.4,1.2,1.5,1.2h2.5c0.9,0,1.5-0.3,1.6-1.1c0-0.1,0-0.3,0.1-0.5
			c0.1-0.8,0.2-1.5,0.2-1.9c0.2,0,0.6,0.2,1.1,0.3s0.8,0.3,1,0.3c0,0.1,0,0.2-0.1,0.3c-0.1,1.2-0.2,2-0.4,2.5
			c-0.3,1.3-1.3,1.9-3,1.9h-3.9c-1.9,0-2.9-0.8-2.8-2.5v-3.2C277.5,48.6,274.8,50.7,270.4,52.4L270.4,52.4z M281.4,36.2H275
			c-0.6,0.8-1.3,1.5-2.1,2.1h6.3L281.4,36.2z M273.1,40.1v3.4h4.2c0,0,0-0.1,0.1-0.2v-0.2c0.2-0.9,0.3-1.9,0.3-3H273.1L273.1,40.1z
			 M284.5,40.1H280c-0.1,1.3-0.2,2.3-0.4,3l-0.1,0.3h5L284.5,40.1L284.5,40.1z"/>
		<path class="st0" d="M292.6,52.1c-0.1-0.7-0.2-1.4-0.3-2.1h1.2c0.7,0,1-0.2,1-0.8V45c-0.7,0.2-1.5,0.4-2.2,0.7l-0.2-2.3
			c0.8-0.2,1.6-0.4,2.4-0.6v-4.3h-2.2v-2h2.2v-3.8h2v3.8h1.6v1.2c1.7-1.4,3.1-3.1,4.1-5l2.4,0.2c-0.3,0.5-0.7,1.1-1.1,1.6h6v1.6
			l-1.6,1.8h2.9v7.5h-1.9v-5.8h-7.8v5.8h-1.9v-6l-0.2,0.2c-0.3-0.5-0.6-0.9-0.9-1.3v0.3h-1.6v3.8l1.7-0.4V44l-1.7,0.4v5.3
			c0,1.4-0.7,2.1-2,2.3c-0.2,0-0.5,0-0.9,0.1L292.6,52.1L292.6,52.1z M298.1,46.9v-1.6h5.8v-1c0-0.5,0.1-0.9,0.1-1.2h2
			c0,0.9,0,1.6-0.1,2.1h6v1.6h-5.8c0.9,1.7,2.9,2.8,5.9,3.2c-0.2,0.3-0.3,0.6-0.5,1.1c-0.2,0.4-0.4,0.7-0.5,0.9
			c-3.1-0.8-5.1-2.1-6.1-3.9c-0.8,1.6-2.9,3-6.4,4.1c-0.1-0.2-0.2-0.4-0.4-0.7c-0.3-0.5-0.6-0.9-0.7-1.2c3.6-0.8,5.6-1.9,6.2-3.5
			L298.1,46.9L298.1,46.9z M302.3,36c-0.5,0.5-1,1.1-1.6,1.7h4.8L307,36H302.3L302.3,36z M302.4,44.1c-0.2-0.3-0.6-0.7-1.2-1.3
			c1.6-0.8,2.7-1.8,3.1-3.2l1.8,0.2c-0.1,0.3-0.2,0.6-0.4,0.9c0.5,0.3,1.2,0.7,2.1,1.3c0.5,0.3,0.8,0.5,1,0.6l-1.1,1.3
			c-0.8-0.7-1.7-1.3-2.7-2C304.3,42.7,303.4,43.4,302.4,44.1L302.4,44.1z"/>
		<path class="st0" d="M316.8,52.2c-0.6-0.5-1.1-1-1.6-1.6c0.8-1.4,1.3-2.7,1.5-3.9s0.3-3.3,0.3-6.2v-7h16.9v4.9h-14.8v2.7
			c0,2.8-0.2,4.9-0.5,6.4C318.4,49,317.8,50.6,316.8,52.2z M320.1,41.3v-1.6h14v1.6h-7.3l-2.3,2.3c1.9,0,3.7,0,5.5-0.1l-1.4-1.2
			l1.5-1c0.2,0.2,0.4,0.4,0.7,0.6c1,0.8,2.1,1.8,3.5,3l-1.5,1.2c-0.4-0.4-0.8-0.8-1.2-1.2L328,45v1.6h5.8v1.6H328v1.6h7v1.6h-16.2
			v-1.6h7.1v-1.6h-5.8v-1.6h5.8V45c-0.3,0-0.9,0-1.6,0.1c-0.7,0-1.2,0-1.6,0.1c-0.7,0-1.3,0-1.8,0.2l-0.7-1.6h1.6
			c0.6-0.6,1.3-1.4,2.2-2.4H320.1z M319.1,35.2v1.7h12.6v-1.7H319.1z"/>
		<path class="st0" d="M338.3,48.6v-1.7h9.4v-0.2l2.9-1.6h-8v-1.6h11.3V45l-3.5,1.8h7.9v1.7h-8.3v1.2c0,1.6-0.7,2.3-2.4,2.3
			c-0.6,0-1.8,0.1-3.7,0.1c-0.1-0.8-0.2-1.4-0.4-1.8c0.5,0,1.5,0.1,3,0.1c0.9,0,1.3-0.3,1.2-1v-0.8
			C347.7,48.6,338.3,48.6,338.3,48.6z M351.7,37v-1.2h3v-1.2h-3.2v-1.5h5.2v7.5h1.1v3.9h-2v-2.4h-14.9v2.4h-2v-3.9h1.1v-7.1
			c1.9-0.3,3.3-0.6,4.4-0.9l0.7,1.6c-0.5,0.1-1.3,0.2-2.4,0.4c-0.4,0.1-0.6,0.2-0.7,0.2v1.1h3V37h-3v1.2h3v1.2h-3v1.2h12.8v-1.2h-3
			v-1.2h3V37H351.7L351.7,37z M345.2,35.6c0.7-0.3,1.3-0.7,1.9-1c-0.5-0.4-1.1-0.7-1.7-1.1l0.8-1c0.2,0.1,0.5,0.3,1,0.6
			c0.5,0.3,0.9,0.5,1.1,0.7c0.6-0.4,1.2-0.8,1.7-1.3l1,0.9c-0.2,0.1-0.4,0.3-0.7,0.5c-0.4,0.3-0.7,0.5-0.8,0.7
			c0.2,0.1,0.5,0.3,0.9,0.5c0.4,0.3,0.7,0.5,0.8,0.6l-0.8,1l0.6,0.5c-0.5,0.4-1,0.8-1.5,1.2c0.2,0.1,0.4,0.2,0.7,0.4
			c0.4,0.3,0.8,0.5,1.1,0.7l-1,1.2c-0.7-0.5-1.3-1-1.8-1.4c-0.8,0.5-1.6,1-2.4,1.4c-0.2-0.4-0.5-0.8-0.7-1.2
			c0.7-0.3,1.3-0.7,1.9-1.1c-0.5-0.3-1-0.7-1.6-1.1l0.6-0.6l-0.1,0.1C345.8,36.3,345.5,35.9,345.2,35.6L345.2,35.6z M348.2,35.3
			c-0.5,0.3-1.1,0.7-1.7,1c0.2,0.1,0.4,0.3,0.7,0.5c0.5,0.3,0.9,0.5,1.1,0.7c0.4-0.3,0.9-0.7,1.4-1.2
			C349.2,36,348.7,35.7,348.2,35.3L348.2,35.3z"/>
		<path class="st0" d="M362.5,35.2v-1.8h18.3v1.8h-15.7v14c0,0.4,0.3,0.7,0.8,0.7h15.1v1.7H365c-1.2-0.1-1.8-0.6-1.9-1.7V35.2H362.5
			L362.5,35.2z M366.5,48.4v-5.5h6.1v5.5H366.5z M368.2,41.6v-5.1h10.3v5.1H368.2z M368.2,44.4v2.5h2.6v-2.5H368.2z M370.1,38.1v2
			h6.3v-2H370.1z M374.1,48.4v-5.5h6.1v5.5H374.1z M375.7,44.4v2.5h2.8v-2.5H375.7z"/>
		<path class="st0" d="M385,46.8l-0.2-2l6.7-0.6v-2.7c-1,0.1-2.5,0.2-4.4,0.3c1.1,0,1,0-0.5,0l-0.3-2.1c5.6-0.2,10.5-0.5,14.8-1
			l0.3,2c-0.7,0-1.7,0.1-3,0.2c-2,0.2-3.5,0.3-4.5,0.3v2.7l9.9-0.7l0.2,2l-10,0.7v2c-0.1,1.2,0.5,1.7,1.6,1.6h3.9
			c1,0,1.6-0.4,1.7-1.2c0.2-0.5,0.3-1.3,0.3-2.1c0.8,0.3,1.6,0.5,2.2,0.7c-0.1,0.9-0.2,1.8-0.5,2.6c-0.3,1.3-1.3,2-3.2,2h-5.4
			c-2-0.1-3-1-3-3v-2.4L385,46.8L385,46.8z M385.3,39.1v-4.3h8.1v-2.2h2.3v2.2h7.9V39h-2.2v-2.2h-13.8v2.3H385.3z"/>
	</g>
</g>
</svg>
