<?xml version="1.0" encoding="utf-8"?>
<!-- Generator: Adobe Illustrator 27.0.0, SVG Export Plug-In . SVG Version: 6.00 Build 0)  -->
<svg version="1.1" id="_圖層_2" xmlns="http://www.w3.org/2000/svg" xmlns:xlink="http://www.w3.org/1999/xlink" x="0px" y="0px"
	 viewBox="0 0 486.8 152.5" style="enable-background:new 0 0 486.8 152.5;" xml:space="preserve">
<style type="text/css">
	.st0{fill:#FFFFFF;}
</style>
<g id="_圖層_1-2">
	<g>
		<path class="st0" d="M74.4,0.3h13.4v15.5h7v12.3h-7v9.1l10.5,8.1L92,56.9l-4.2-4.2v32H74.4V54.8c-1.9,4.2-4.1,8.6-6.7,13
			c-0.2-1.2-0.5-3.2-0.7-6c-0.9-6.3-1.5-10.9-1.8-13.7c3-5.2,6.1-11.8,9.1-20H66V15.8h8.4L74.4,0.3L74.4,0.3z M113.8,41.5
			c2.3,5.6,5,10.3,8.1,14.1c3.3-4,5.7-8.7,7.4-14.1l12.3,4.2c-2.6,7.3-5.9,13.5-9.8,18.6c5.1,3.1,11.7,5.6,19.7,7.7
			c-0.2,0.2-0.5,0.6-0.7,1.1c-3.5,4.7-6,8.3-7.4,10.9c-8.7-3.5-15.8-6.9-21.4-10.2c-5.9,4-13.5,7.6-22.8,10.9
			c-2.6-4-5.3-7.8-8.1-11.6c8.4-2.3,15.5-5.3,21.1-8.8c-3.8-4.9-7-10.8-9.8-17.6L113.8,41.5L113.8,41.5z M92.7,36.5
			c5.8-3.3,11.5-7.5,16.9-12.6H96.2V11.2h20V0.3h13v10.9h20.4v12.6h-14.8c0.7,0.5,1.8,1.2,3.2,2.1c4,2.8,8.4,6.1,13.4,9.8L143.7,46
			c-0.9-0.9-2.5-2.2-4.6-3.9c-6.1-4.7-11-8.3-14.8-10.9l6.7-7.4h-17.6l7.4,7c-7.3,6.3-13.9,11.5-20,15.5
			C98.2,43.1,95.5,39.8,92.7,36.5z"/>
		<path class="st0" d="M158.4,84.7V2.8h80.1v81.9h-13.7v-3.5h-52.7v3.5H158.4L158.4,84.7z M222.8,33h-48.5v-6.7h18.3v-2.5h-16.2v-7
			h16.2V13h-20.4v44.6c7.3-2.1,12.6-4.2,16.2-6.3h-11.2V35.8h42.9v14.4l4.6,3.9c-1.9,1.9-3.8,3.4-5.6,4.6l6,2.8V13h-20.4v3.9h15.8v7
			h-15.8v2.5h18.3V33z M176.4,66.4c-0.2-0.5-0.6-1.1-1.1-1.8c-1.4-2.6-2.5-4.3-3.2-5.3v13h52.7V62.2l-4.9,7c-2.1-1.2-6-3.2-11.6-6
			c0,0.7-0.1,1.8-0.4,3.2c0,1.4-0.1,2.5-0.4,3.2c-7.3,0.5-15.9,1.3-26,2.5l-1.4-6.3l9.1-1.1v-4.2C185.8,62.5,181.5,64.5,176.4,66.4
			L176.4,66.4z M189,42.2V45h19v-2.8H189z M206.2,53.1l4.9,2.1c1.6-1.2,3.2-2.5,4.6-3.9H202l-1.4,1.4V64l7.7-0.7l-7.4-3.9
			L206.2,53.1L206.2,53.1z"/>
		<path class="st0" d="M253.3,84.7V26h23.9l1-4.9h-32.3V9.8h20c-0.5-0.9-1.3-2.3-2.5-4.2c-1.2-1.6-2.1-2.9-2.8-3.9l15.5-1.4
			c0.9,1.6,2.5,4,4.6,7c0.7,1.2,1.2,2,1.4,2.5h12c2.6-3.8,4.7-6.9,6.3-9.5L317,1.8c-2.3,3.1-4.3,5.7-6,8.1h20v11.3h-37.3l-1,4.9
			h30.9v58.7h-14.4v-4.2h-41.5v4.2L253.3,84.7L253.3,84.7z M267.7,36.9v4.2h41.5v-4.2H267.7z M267.7,51.3v4.6h41.5v-4.6H267.7z
			 M267.7,66.1v4.2h41.5v-4.2H267.7z"/>
		<path class="st0" d="M416.8,52.7v17.6c0.2,6.6-3.2,9.7-10.2,9.5c-1.4,0.2-4.7,0.3-9.8,0.3c0-0.5-0.1-1.2-0.4-2.1
			c-0.5-2.1-1.2-5.2-2.1-9.1c1.2,0.2,3.3,0.3,6.3,0.3c2.1,0,3.2-1.1,3.2-3.2v-2.5h-11.2v21.1h-13V63.6H370v15.8h-12.6V52.7h22.1
			v-3.9h-15.8V34.8h-8.8v4.6c0.2,20.4-2.3,35.6-7.7,45.7c-1.2-0.9-3-2.5-5.6-4.6c-2.6-1.9-4.6-3.4-6-4.6c4.5-8,6.6-20.6,6.3-38V6.7
			H376V0h14.1v6.7h30.6v11.6h-12.3v5.3h12.3v11.3h-12.3v14.1h-15.8v3.9L416.8,52.7L416.8,52.7z M354.9,18.3v5.3h8.8v-5.3H354.9z
			 M376.7,18.3v5.3h18.6v-5.3H376.7z M376.7,34.8v4.6h18.6v-4.6H376.7z"/>
		<path class="st0" d="M27.4,150.2H16.1v-35.5c-5.1,3.7-10.4,6.4-16.1,8.3v-9.7c8.1-3.1,14.4-7.8,18.7-14.1h8.8L27.4,150.2
			L27.4,150.2z"/>
		<path class="st0" d="M34.8,137.5l11.3-2.3c1.1,4.9,3.8,7.4,8.3,7.6c4.8-0.5,7.4-3.3,7.8-8.5c-0.2-5.7-2.9-8.6-8.3-8.8
			c-3.4,0.2-6,1.2-7.8,3h-9.2l1.8-28.8h31.8v9.2H48.1L47,120.7c3.1-2,6.4-3,9.9-3c10.6,0.3,16.1,5.7,16.6,16.1
			c-0.3,11.1-6.7,16.7-19.1,17.1C44.1,150.8,37.5,146.4,34.8,137.5L34.8,137.5z"/>
		<path class="st0" d="M129.3,117.4v8.1h-15.2v7.6h18.7v8.5h-18.7V152h-9.4v-10.4H77.9v-8.5h7.6v-12.9c-1.1,0.9-2.2,2.1-3.5,3.5
			c-0.5-0.8-1-1.8-1.6-3.2c-1.4-2.6-2.5-4.5-3.2-5.8c5.7-4.6,10.1-10.6,13.1-18l10.8,0.9c-0.9,1.5-1.8,3.2-2.8,4.8h32.7v8.3h-17.1
			v6.7L129.3,117.4L129.3,117.4z M93.3,110.8c-1.5,2.2-3.3,4.4-5.3,6.7h16.6v-6.7C104.6,110.8,93.3,110.8,93.3,110.8z M94.5,125.5
			v7.6h10.1v-7.6H94.5z"/>
		<path class="st0" d="M152.1,96.7l10.6,0.7c-0.6,1.1-1.4,2.2-2.3,3.5h20.5v6l-5.8,5.8h11.5V134h-21.2c-0.2,0.1-0.3,0.5-0.5,0.9
			c-0.3,0.5-0.5,0.9-0.7,1.1h6.7v4.1c-0.2,2.5,0.9,3.6,3.2,3.5h4.6c2.1,0,3.3-0.8,3.5-2.5c0.3-1.8,0.5-3.9,0.7-6.2
			c1.4,0.6,4,1.5,7.8,2.5c0.3,0.1,0.5,0.2,0.7,0.2c-0.3,3.1-0.9,5.7-1.6,7.8c-0.8,3.7-3.8,5.4-9,5.3h-10.4c-5.8,0.3-8.6-2.2-8.3-7.6
			v-3.5c-3.7,4.6-10.4,8.8-20.3,12.7c-1.8-2.8-3.8-5.3-6-7.6c10.3-3.2,16.8-6.8,19.6-10.8h-14.5v-15.7c-0.6-0.8-1.7-2.3-3.2-4.6
			c-0.8-1.1-1.3-1.8-1.6-2.3C143.4,107.3,148.7,102.4,152.1,96.7L152.1,96.7z M149.8,120v6.7h8.5c0.5-2.3,0.8-4.5,0.9-6.7H149.8z
			 M168.5,108.2h-13.8c-1.4,1.5-2.9,3-4.6,4.4h14.1L168.5,108.2z M177.9,126.7V120h-9.4c-0.2,1.2-0.4,2.8-0.7,4.8
			c-0.2,0.9-0.2,1.5-0.2,1.8H177.9z"/>
		<path class="st0" d="M250.8,138.6h-14.5c2.6,2.9,7.6,4.8,15,5.8c-0.6,0.9-1.5,2.5-2.5,4.8c-0.5,1.1-0.9,1.8-1.1,2.3
			c-8.4-1.7-14-4.5-16.6-8.3c-2.1,3.5-7.8,6.5-17.1,9c-0.2-0.3-0.5-0.8-0.9-1.4c-1.5-2.8-2.7-4.6-3.5-5.5c8.8-1.8,14.1-4.1,15.9-6.7
			h-13.6v-6.9h15v-4.2c-0.5,0.5-1.1,0.8-2.1,1.2c-0.9-1.2-2-2.4-3.2-3.5v4.6h-7.4v-14.8l-1.8-3.2v3.7h-3.7v7.1l3.5-0.5
			c-0.2,3.4-0.2,6.3,0,8.8c-1.1,0.1-2.2,0.4-3.5,0.7v11.8c0.1,4.9-1.9,7.6-6.2,8.1c-1.5,0.1-3.5,0.2-5.8,0.2
			c-0.2-2.9-0.6-5.7-1.4-8.3h2.8c1.5,0,2.3-0.8,2.3-2.5v-7.4l-4.4,0.9L195,125l5.3-0.7v-8.8h-4.6V107h4.6v-9.9h8.3v9.9h3.7v1.8
			c4-3.4,7.3-7.4,9.9-12h9.9c-0.6,1.4-1.3,2.6-2.1,3.7h15.4v5.8l-3.2,3.7h6.2v19.8h-7.4v-5.3l-3.2,3.9c-1.4-1.1-3.5-2.5-6.4-4.4
			c-0.5,0.5-1.3,1.2-2.5,2.1c0.8-0.6,0.6-0.5-0.5,0.5h6.7c0,2-0.1,3.7-0.2,5.1h15.9L250.8,138.6L250.8,138.6z M227.7,116.7l7.1,0.5
			c0,0.2-0.1,0.4-0.2,0.7c-0.2,0.8-0.3,1.2-0.5,1.4c3.4,1.8,5.7,3.1,6.9,3.7v-6.4h-19.6v6.9C224.9,121.9,226.9,119.7,227.7,116.7
			L227.7,116.7z M225.2,106.8c-0.9,1.2-1.8,2.3-2.8,3.2h10.1l2.8-3.2H225.2z"/>
		<path class="st0" d="M258.4,98.8h48.9v15.7h-40.1v9c0.5,11.5-1.7,21.1-6.5,28.8c-0.2-0.2-0.3-0.4-0.5-0.7c-1.8-2-3.9-4.1-6.2-6.2
			c1.8-3.4,3-6.8,3.5-10.4c0.6-3.1,0.9-8.2,0.9-15.4L258.4,98.8L258.4,98.8z M268.7,116.1H307v6.4h-7.4c1.5,1.2,3.5,2.9,6,5.1
			c1.2,1.1,2.1,1.8,2.8,2.3l-6,4.8l-2.8-2.8l-7.8,0.2v2.8h15v6.4h-15v2.3h17.8v6.4H265v-6.4h18v-2.3h-14.8v-6.4H283v-2.5l-7.1,0.2
			c-1.7,0-3.5,0.1-5.5,0.5l-2.3-6.2h4.4c1.4-1.4,2.8-2.8,4.1-4.4h-7.8L268.7,116.1L268.7,116.1z M267.1,105.7v2.5h31.3v-2.5H267.1z
			 M293.9,126.7c-0.9-0.8-1.9-1.7-3-2.8l2.3-1.4h-5.8l-4.4,4.4C286.7,126.9,290.3,126.8,293.9,126.7L293.9,126.7z"/>
		<path class="st0" d="M313.2,135.4h26.5l3.5-2.5H325v-6.2h32.5v5.5l-5.3,3.2H369v6.9h-20.7v2.3c0,4.4-2.4,6.8-7.1,6.9h-5.8
			c-3.1,0.1-5.2,0.2-6.5,0.2c-0.8-3.8-1.3-6.1-1.6-6.7c0.8,0.1,3.6,0.2,8.5,0.2c2.1,0,3.1-0.8,3-2.3v-0.7h-25.6L313.2,135.4
			L313.2,135.4z M345.5,96.2l3.9,3.5c-1.4,0.9-2.6,1.8-3.7,2.8c1.1,0.6,2.3,1.4,3.7,2.3l-2.3,2.8l2.3,2.1c-0.3,0.3-0.9,0.8-1.8,1.4
			c-0.8,0.8-1.4,1.3-1.8,1.6c1.1,0.8,2.5,1.6,4.1,2.5l-3,3.7H357v-2.3h-6.7v-4.4h6.9v-2.1h-6.9v-4.4h7.1v-2.3h-8.1v-5.5h16.8
			l-1.1,21h3v12h-8.3v-6.2h-37.1v6.2h-8.3v-12h2.5L316,98.8c6.5-0.9,11.4-1.8,14.8-2.5l2.1,6.4c-2.1,0.5-4.8,0.9-8.1,1.4v1.6h7.1
			v4.4H325v2.1h6.9v4.4h-6.7v2.3h9.7c-0.2-0.3-0.5-0.8-0.9-1.4c-0.8-1.4-1.4-2.3-1.8-2.8c1.7-0.8,3.1-1.5,4.1-2.1
			c-0.5-0.3-1.1-0.8-2.1-1.4c-0.6-0.5-1.1-0.8-1.6-1.2l2.1-2.1c-0.9-0.9-1.8-2-2.5-3.2c0.5-0.3,1.2-0.7,2.3-1.2
			c0.9-0.6,1.6-1,2.1-1.2c-0.5-0.3-1.1-0.8-1.8-1.4c-0.9-0.5-1.6-0.8-2.1-1.2l3-3.5c1.1,0.5,2.5,1.3,4.4,2.5
			c0.5,0.3,0.8,0.5,1.1,0.7c0.5-0.5,1.2-1.1,2.3-1.8C344.3,97.1,345,96.6,345.5,96.2L345.5,96.2z M341.1,115.8
			c-1.5,1.1-3.1,2.1-4.8,3h8.8c-0.5-0.5-1.2-1.1-2.3-1.8C342,116.5,341.4,116.1,341.1,115.8L341.1,115.8z M341.1,105.7
			c-0.8,0.5-1.9,1.1-3.5,1.8c0.6,0.3,1.4,0.8,2.3,1.4c0.5,0.3,0.8,0.5,1.1,0.7c0.5-0.2,1.1-0.6,1.8-1.4c0.5-0.3,0.8-0.5,0.9-0.7
			c-0.3-0.3-0.8-0.6-1.4-0.9C341.8,106.1,341.4,105.8,341.1,105.7L341.1,105.7z"/>
		<path class="st0" d="M375.2,105.9v-7.4h51.6v7.4H386v35.7c-0.2,1.4,0.5,2,2.1,1.8h39.2v7.1h-43.1c-4.8,0-7.1-2.2-7.1-6.7v-38
			L375.2,105.9L375.2,105.9z M388.3,125h17.3v16.1h-17.3V125z M392.3,123v-14.8h29V123H392.3z M395,130.8v4.8h3.9v-4.8H395z
			 M400.6,114v3.2h12.7V114H400.6z M407.9,125.3h17.5v16.1h-17.5C407.9,141.4,407.9,125.3,407.9,125.3z M414.6,130.8v4.8h3.9v-4.8
			H414.6z"/>
		<path class="st0" d="M454.5,97.2h9.7v5.1h21v14.1h-6.2l1.1,5.8c-1.4,0.2-3.6,0.3-6.7,0.5c-6.5,0.5-11.4,0.8-14.8,1.2v4.2l27.4-1.8
			l0.7,8.5l-11.1,0.7c2.6,0.9,5.6,1.8,9,2.8c-0.2,0.3-0.3,0.9-0.5,1.8c-0.6,2.5-1.1,4.3-1.4,5.5c-0.6,3.5-3.8,5.2-9.7,5.1h-14.3
			c-6.6,0-9.9-3.2-9.9-9.7V137l-16.6,1.1l-0.7-8.8l17.3-0.9v-4.4l-11.1,0.7l-1.4-8.1h-3.5v-14.5h21.4L454.5,97.2L454.5,97.2z
			 M442.5,116.1c7.1-0.3,17.3-0.9,30.6-1.8c1.1-0.2,1.9-0.2,2.5-0.2v-3.2h-33.2V116.1z M474.5,139.6c0.3-1.4,0.5-2.8,0.7-4.4
			l-16.6,1.1v2.5c-0.3,2.8,1,4,3.9,3.7h7.8C472.9,142.7,474.2,141.7,474.5,139.6L474.5,139.6z"/>
	</g>
</g>
</svg>
