<?xml version="1.0" encoding="utf-8"?>
<!-- Generator: Adobe Illustrator 27.0.0, SVG Export Plug-In . SVG Version: 6.00 Build 0)  -->
<svg version="1.1" id="_圖層_2" xmlns="http://www.w3.org/2000/svg" xmlns:xlink="http://www.w3.org/1999/xlink" x="0px" y="0px"
	 viewBox="0 0 712 84.7" style="enable-background:new 0 0 712 84.7;" xml:space="preserve">
<style type="text/css">
	.st0{fill:#FFFFFF;}
</style>
<g id="_圖層_1-2">
	<g>
		<path class="st0" d="M70.7,12c2.4,5.5,6.2,10.6,10.6,13.6c-1.2,0.9-2.8,2.7-3.6,3.9c-1.4-1.1-2.8-2.4-4-3.9v3.3h-7.8v6.3h-4.8
			v-6.3h-7.9v-3.3c-1.3,1.5-2.8,2.9-4.3,4.1c-0.8-1.1-2.2-2.8-3.3-3.6c4.4-3,8.2-8.4,10.6-14h-9.3V7.5h14.2V0.3h4.8v7.2h14.3V12
			H70.7z M61.2,24.3V12h-0.3c-1.7,4.6-4,8.8-6.7,12.3H61.2L61.2,24.3z M72.7,24.3c-2.7-3.5-4.9-7.8-6.6-12.3h-0.2v12.3H72.7z"/>
		<path class="st0" d="M105.2,0.3c0,1.6-0.1,3.6-0.3,5.8c0.5,5.1,2.8,19.2,16,25c-1.4,1.1-2.7,2.6-3.3,3.9
			c-8.4-4-12.6-11.3-14.8-17.7c-1.9,6.5-5.9,13.3-13.8,17.8c-0.8-1.2-2.2-2.6-3.7-3.6c15.4-8.1,14.6-24.9,14.8-31.2L105.2,0.3
			L105.2,0.3z"/>
		<path class="st0" d="M150.3,29.7c3.9,0,4.5-1,5.1-6.4c1.2,0.7,3.2,1.5,4.5,1.7c-0.9,7-2.5,9.1-9.4,9.1H138c-7.3,0-9.5-1.4-9.5-7.1
			V9.6h4.7v5.1h17.2v-8h-23.3V2.3h28v18.5h-4.7V19h-17.2v8c0,2.3,0.7,2.7,4.8,2.7H150.3L150.3,29.7z"/>
		<path class="st0" d="M179.4,15c-3.3,3.6-7.9,6.6-12.6,8.2c-0.6-1.1-2-2.8-3-3.6c3.9-1,7.9-3,10.8-5.2H165v-4.1h7.2
			c-0.6-1.1-1.3-2.3-2-3.3l2.2-1c-1.6,0.1-3.2,0.1-4.8,0.2c-0.1-1-0.6-2.6-1-3.5c9.1-0.2,19.5-1,25.4-2.3l3.7,3.1
			c-3.4,0.8-7.5,1.4-11.8,1.8v5h2.5c1.1-1.5,2.2-3.6,2.8-5.2l4.5,1.4c-0.9,1.3-1.9,2.7-2.9,3.8h7.6v4.1h-10c3.9,1.8,7.9,4.2,10.4,6
			l-2.8,3c-2.8-2.2-7.6-5.1-12.2-7.2v5.2h-1.7c1.4,1.4,3.4,3.4,4.4,4.7l-3.4,2.5c-0.9-1.4-2.8-3.5-4.2-5.1l3.1-2.1h-2.7L179.4,15
			L179.4,15z M164,31.3c2-2,3.8-4.9,4.8-7.7l4,1.6c-1.1,2.9-2.8,6.3-4.8,8.4L164,31.3L164,31.3z M185.7,30.6c1.5,0,1.7-0.5,1.9-3.7
			c0.9,0.7,2.8,1.4,4,1.6c-0.5,4.8-1.8,6-5.6,6h-6.1c-4.8,0-6-1.2-6-5.1v-5.7h4.4v5.7c0,1.1,0.3,1.3,2.1,1.3h5.3V30.6z M179.4,5.6
			c-1.8,0.1-3.5,0.2-5.3,0.3c1.1,1.3,2.1,3,2.5,4.2l-0.3,0.1h3.1V5.6L179.4,5.6z M194,23.2c1.6,2.3,3.9,5.5,5,7.5l-4.2,2.1
			c-1-2-3.1-5.3-4.8-7.7L194,23.2L194,23.2z"/>
		<path class="st0" d="M214.7,19.2c-0.1,0.5-0.2,1-0.3,1.5c2,1.9,6.1,6.6,7.1,7.8l-3,3.7c-1.3-2-3.4-4.8-5.3-7
			c-1.3,3.7-3.5,7.2-7.1,9.8c-0.6-0.9-2.3-2.7-3.2-3.4c4.9-3.5,6.7-8.2,7.3-12.5h-6.7V15h7V9H209c-0.8,1.9-1.6,3.6-2.6,5
			c-0.8-0.8-2.6-2-3.6-2.6c2-2.7,3.5-7,4.2-11.3l4.3,0.9c-0.3,1.3-0.6,2.6-1,3.9h10V9H215v6h6.2v4.2H214.7L214.7,19.2z M236.7,3.4
			v30.1h-4.6v-2.1h-5.5v2.7h-4.4V3.5L236.7,3.4L236.7,3.4z M232.1,27.2V7.6h-5.5v19.6H232.1L232.1,27.2z"/>
		<path class="st0" d="M258.8,24.6c-5,2.2-10.6,4.6-14.9,6.3l-1.5-4.8c1.4-0.5,3.1-1.1,5-1.8l-0.7-21.8l4.7-0.2l0.7,20.3
			c1.9-0.8,3.8-1.6,5.7-2.3L258.8,24.6L258.8,24.6z M274.5,35.2c-1.4-2.4-4.3-5.9-7.1-9c-2.8,3.9-6.5,6.9-11.5,9.1
			c-0.6-1-2.5-3-3.6-3.9c12-4.5,15.9-13.6,17.3-29l5,0.5c-0.8,7.7-2.2,13.9-4.6,19c3.1,3.2,6.7,7,8.4,9.6L274.5,35.2L274.5,35.2z
			 M260.3,16c-1-2.6-3.4-6.5-5.6-9.3l4.1-2c2.5,2.7,4.8,6.4,6,9L260.3,16L260.3,16z"/>
		<path class="st0" d="M316.8,28.9v4.5h-34.4v-4.5h13.5V0.7h4.8v10.7h13.4v4.5h-13.4v13H316.8L316.8,28.9z"/>
		<path class="st0" d="M332.4,1.6c-0.8,2.4-1.8,4.8-3,7.1v26.6h-4.3V16.1c-0.8,1.2-1.7,2.2-2.5,3.2c-0.3-1.1-1.4-3.7-2.1-4.8
			c3.1-3.4,6-8.8,7.7-14.2C328.2,0.3,332.4,1.6,332.4,1.6z M355.5,2.1v32.7h-4.3V33H337v2.2h-4.1v-33h22.6V2.1z M351.2,29.1V6H337
			v23.1H351.2z M345.8,13.8V17h3.6v10h-10.5V17h3.4v-3.2h-4.4v-3.2h4.4V6.8h3.5v3.8h4.6v3.2H345.8L345.8,13.8z M346,20.1h-3.9V24
			h3.9V20.1z"/>
		<path class="st0" d="M380.4,0.3c0,1.6-0.1,3.6-0.3,5.8c0.5,5.1,2.8,19.2,16,25c-1.4,1.1-2.7,2.6-3.3,3.9
			c-8.4-4-12.6-11.3-14.8-17.7c-2.1,6.6-6.1,13.4-13.9,17.9c-0.8-1.2-2.2-2.6-3.7-3.6c15.4-8.1,14.6-24.9,14.8-31.2L380.4,0.3
			L380.4,0.3z"/>
		<path class="st0" d="M423.9,6.9c2,2,6.1,2.9,11.2,3.2c-0.9,0.9-2,2.5-2.5,3.6c-4.2-0.5-7.5-1.7-9.9-3.8c-1.4,1.6-4.6,3.1-10.9,3.8
			c-0.3-0.7-0.9-1.6-1.5-2.4h-10V7.8h11.4v2.3c7.2-0.8,8.2-2.4,8.2-3.8V5.7h-2.4c-0.8,1.2-1.7,2.4-2.7,3.2c-0.7-0.7-2.4-1.8-3.3-2.3
			c2-1.7,3.6-4.1,4.4-6.7l3.9,0.9c-0.2,0.6-0.4,1.1-0.6,1.6H430l0.7-0.2l3.1,0.9c-1,2.1-2.3,4.4-3.5,5.9l-3.5-1.3
			c0.4-0.6,0.9-1.4,1.3-2.2h-4.2L423.9,6.9L423.9,6.9z M425,28.9c3.5,1.3,7.2,2.8,9.4,3.9l-4,2.4c-2.2-1.2-6.1-3.1-9.8-4.4l2.3-1.8
			h-10.7l3.3,1.5c-3.1,1.9-8,3.8-11.8,4.9c-0.8-0.9-2.3-2.5-3.3-3.3c3.6-0.7,7.7-1.8,10.3-3.1h-5.4V13.7h25.2v15.2H425L425,28.9z
			 M410.8,5.3h-9.7V2.1h9.7V5.3z M409.5,18h16.4v-1.6h-16.4V18z M409.5,22.1h16.4v-1.6h-16.4V22.1z M409.5,26.3h16.4v-1.7h-16.4
			V26.3z"/>
		<path class="st0" d="M450.8,18.3c0.8,1,3.6,5.7,4.2,6.9l-3.1,3.3c-0.5-1.6-1.6-4.2-2.5-6.3v13h-4.2V21.8c-0.9,3.8-2.3,7.7-4.2,9.9
			c-0.4-1.6-1.4-3.8-2-5.3c1.6-1.9,3.1-5.3,3.7-8.2l2.6,0.9v-2.3h-5.8v-4.2h5.7V0.2h4.2v12.4h5.6v4.2h-5.6v2.5L450.8,18.3
			L450.8,18.3z M441.2,12c-0.1-2.3-0.8-5.9-1.7-8.6l3.1-0.8c1,2.7,1.8,6.3,2,8.6L441.2,12L441.2,12z M455.6,3.1c-1,3-2.1,6.5-3,8.7
			l-2.9-0.8c0.8-2.4,1.7-6.1,2.1-8.7L455.6,3.1L455.6,3.1z M470.2,25.1v10.1H466v-9.4l-10.6,1.9l-0.7-4.2l11.2-2V0.2h4.2v20.6
			l3.9-0.7l0.7,4.2C474.8,24.2,470.2,25.1,470.2,25.1z M457.3,11.5c2.2,1.2,5,3,6.4,4.3l-2.3,3.6c-1.3-1.4-4-3.4-6.2-4.6
			C455.2,14.7,457.3,11.5,457.3,11.5z M462.8,10.1c-1.2-1.5-3.8-3.5-5.9-4.9l2.2-3c2.1,1.2,4.8,3.2,6,4.5L462.8,10.1L462.8,10.1z"/>
		<path class="st0" d="M507.8,24.8c0.7,1.4,1.7,3.3,2.1,4.5c0.2-0.8,0.3-2,0.3-3.7c0.9,0.7,2.7,1.3,3.8,1.6
			c-0.5,5.8-1.7,7.4-5.8,7.4h-6.7c-4.8,0-6.1-1.2-6.1-4.9v-6.8h-1.6c-0.7,6.4-3,10.5-13,12.6c-0.3-1.1-1.5-3-2.3-3.8
			c8.6-1.5,10.2-4.1,10.8-8.8h-6.9V9.5H493c0.4-1.1,0.8-2.2,1-3.1l4.7,0.6c-0.5,0.9-1,1.7-1.4,2.5h12.8v13.4h-10.4v6.8
			c0,1.2,0.3,1.4,2.3,1.4h5.9c1.1,0,1.7-0.3,2-1.6l-2.4,0.9c-0.1-0.2-0.2-0.5-0.3-0.8c-4.7,0.4-5.7,0.6-6.2,0.8
			c-0.2-0.5-0.7-1.7-1.1-2.3c0.4-0.1,0.8-0.5,1.1-0.9c0.3-0.5,1.2-2.2,1.6-4l3.3,0.8c-0.5,1.3-1.4,2.7-2.2,3.9l2.6-0.2
			c-0.3-0.6-0.6-1.3-0.8-1.9L507.8,24.8L507.8,24.8z M487.3,5.8h-7.9V2.1h7.9V0.3h4.4v1.8h4v3.8h-4V8h-4.4
			C487.3,7.9,487.3,5.8,487.3,5.8z M486.8,14.7h6.8v-2.1h-6.8V14.7z M486.8,19.7h6.8v-2.1h-6.8V19.7z M500.4,5.9h-3.5V2.1h3.5V0.3
			h4.4v1.9h8.2V6h-8.2v2h-4.4V5.9L500.4,5.9z M505.5,12.6h-7.2v2.1h7.2C505.5,14.7,505.5,12.6,505.5,12.6z M505.5,17.6h-7.2v2.1h7.2
			V17.6z"/>
		<path class="st0" d="M522.7,11.4c-0.7,0.6-1.4,1.2-2,1.7c-0.7-0.9-2.2-2.4-3.2-2.9c4.2-3,7.3-6.8,9-10l4.6,0.9
			c-0.6,0.9-1.2,1.9-1.8,2.8h5.8c-0.3-0.9-0.8-1.9-1.2-2.7L538,0c0.7,1.2,1.4,2.6,1.8,3.9h10.8v3.4h-11.5v1.6h9.8v2.9h-9.8v1.5h9.9
			v2.9h-9.9v1.6h12.5v3.4h-24.4v1h-4.5L522.7,11.4L522.7,11.4z M532,29.2c-2.7,2.1-7.3,4.1-11.3,5c-0.6-1-1.9-2.6-2.8-3.4
			c3.9-0.5,8.4-1.8,10.7-3.1L532,29.2L532,29.2z M537.6,26.9v8.2h-4.5v-8.2h-14.7v-3.6h14.7v-1.9h4.5v1.9h14.8v3.6
			C552.4,26.9,537.6,26.9,537.6,26.9z M534.8,7.3h-7.6v1.6h7.6C534.8,8.8,534.8,7.3,534.8,7.3z M534.8,11.7h-7.6v1.5h7.6V11.7z
			 M534.8,16.1h-7.6v1.6h7.6V16.1z M541.6,27.3c3.3,1.1,8.3,2.9,10.9,4l-2.8,2.9c-2.4-1.2-7.3-3.1-10.8-4.4L541.6,27.3L541.6,27.3z"
			/>
		<path class="st0" d="M586.4,29.4h5.1v3.1h-5.1v2.8h-4.5v-2.8h-24v-3.1h5.4v-9.1h-4.2v-3.1h0.2c-0.7-0.4-1.5-0.9-1.9-1.1
			c1.9-1.7,2.2-3.9,2.2-5.5V8.3h14.3v6.2h-11.4c-0.3,1-0.7,1.9-1.4,2.7h14.6c-0.3-0.9-1-2.1-1.6-2.8c1.8-0.2,3.6-0.5,5.2-1
			c-1.1-0.8-2-1.8-2.7-2.8l1.2-0.3h-2.2V7.9c-0.5-0.6-1.2-1.3-1.6-1.5c2.9-1,3.3-2.1,3.3-3.4V1.1h10.3v3.1c0,0.7,0,1,0.6,1h1.3
			c0.5,0,1.5-0.1,1.9-0.2c0.1,0.9,0.1,1.8,0.2,2.7c-0.5,0.2-1.4,0.2-2.1,0.2h-1.6l2.1,0.7c-0.8,2-2.2,3.6-3.8,4.9
			c1.6,0.4,3.5,0.8,5.5,0.9c-0.7,0.7-1.6,1.9-2,2.8h0.9v3.1h-4.2V29.4L586.4,29.4z M564.5,4.1h-6.4V1.8h6.4V0.2h4v1.6h6.2v2.3h-6.2
			v1.1h5.2v2.2h-14.6V5.1h5.3L564.5,4.1L564.5,4.1z M563,10.5v0.2c0,0.5,0,1.1-0.1,1.7h2.1v-1.9H563z M567.7,20.3v1.3h14.2v-1.3
			H567.7z M567.7,25.5h14.2v-1.3h-14.2V25.5z M581.9,29.4v-1.3h-14.2v1.3H581.9z M570.4,10.5h-2.2v1.9h2.2V10.5z M588.9,17.2
			c-2.3-0.4-4.4-0.9-6.1-1.7c-1.8,0.8-3.8,1.3-6,1.7H588.9L588.9,17.2z M580.7,4c-0.2,1.4-0.8,2.8-2.3,3.9h8.8h0.2h-0.1
			c-2.8,0-3.2-1.2-3.2-3.7V4H580.7L580.7,4z M580.1,10.2c0.6,0.7,1.4,1.3,2.4,1.8c1-0.5,1.7-1.1,2.4-1.8H580.1L580.1,10.2z"/>
		<path class="st0" d="M602.1,25.1v3.2h-4.2V2.2h12.6v22.9H602.1L602.1,25.1z M602.1,6.3v5.3h4.3V6.3H602.1L602.1,6.3z M606.4,21.1
			v-5.5h-4.3v5.5H606.4z M630.3,30.1c0,2.4-0.5,3.5-2,4.3c-1.5,0.7-3.7,0.8-6.8,0.8c-0.2-1.2-0.9-3.2-1.6-4.3c2,0.1,4.3,0.1,5,0
			c0.7,0,1-0.2,1-0.9v-6.6h-8.1c-0.9,4.4-2.7,8.9-6.5,11.9c-0.7-0.9-2.5-2.4-3.4-2.9c5.7-4.6,6.2-11.6,6.2-17.3V1.7h16.3L630.3,30.1
			L630.3,30.1z M625.9,19.4v-4.8h-7.5v0.6c0,1.3,0,2.7-0.2,4.2H625.9L625.9,19.4z M618.5,5.8v4.8h7.5V5.8H618.5L618.5,5.8z"/>
		<path class="st0" d="M670.9,24.8H667v6.5h-4.6v-1.5h-6.8V31c0,2.2-0.5,3.1-2,3.8c-1.4,0.6-3.5,0.6-6.7,0.6c-0.2-1-0.9-2.6-1.5-3.5
			c1.8,0.1,4,0.1,4.7,0.1s1-0.3,1-0.9v-1.2h-11.5v-3.2h11.5v-1.8h-15v-3.4h15v-1.6h-11.2v-3h11.2v-1.6h-10.3V7.7h10.3V6.2H637V2.7
			h14.1V0.2h4.6v2.4h14.5v3.5h-14.5v1.5h10.8V15h-10.8v1.7h11.4v4.6h3.9L670.9,24.8L670.9,24.8z M651,12.3v-1.8h-5.9v1.8H651z
			 M655.6,10.5v1.8h6.1v-1.8H655.6z M655.6,21.4h6.8v-1.6h-6.8V21.4z M662.4,24.8h-6.8v1.8h6.8V24.8z"/>
		<path class="st0" d="M689.8,23.7c-4.6,1.7-9.5,3.5-13.3,4.8l-1.9-4.3c1.4-0.4,3.3-0.9,5.2-1.5V8.4h-4.2V4.2h12.9v4.1h-4.2v13
			l4.7-1.5L689.8,23.7L689.8,23.7z M694.8,27.8l3.5,2.4c-2.5,1.9-6.5,3.9-9.8,4.9c-0.6-0.9-1.8-2.2-2.7-3c3.1-0.9,6.8-2.8,8.7-4.3
			h-3.8V8.1h5.9c0.2-0.9,0.3-1.8,0.5-2.6h-8V1.7h21.4v3.8h-8.3c-0.3,0.9-0.6,1.8-1,2.6h7.9v19.8L694.8,27.8L694.8,27.8z M694.9,13.7
			h9.9v-2.4h-9.9V13.7z M694.9,19.1h9.9v-2.4h-9.9V19.1z M694.9,24.6h9.9v-2.4h-9.9V24.6z M703.6,27.9c2.4,1.3,5.8,3.3,7.5,4.7
			l-3.6,2.6c-1.6-1.4-4.8-3.5-7.3-4.9L703.6,27.9L703.6,27.9z"/>
		<path class="st0" d="M17.7,52.5c-1,3.2-2.2,6.9-3.2,9.8c2.2,3,2.7,5.6,2.7,7.8c0,2.4-0.5,4.1-1.7,4.9c-0.5,0.4-1.3,0.7-2,0.8
			c-0.6,0.1-1.6,0.1-2.3,0.1c0-1.1-0.3-2.7-1-3.9c0.6,0.1,1.2,0.1,1.6,0c0.4,0,0.7-0.1,1-0.3c0.4-0.3,0.6-1.2,0.6-2.2
			c0-1.8-0.5-4.2-2.5-6.8c0.7-2.3,1.5-5.4,2-7.8h-2.8v29.5H6.5V51h7.9l0.6-0.2L17.7,52.5L17.7,52.5z M15.9,82.5
			c1.2-1.7,2.2-4.2,2.8-6.3l3.3,1.3c-0.6,2.1-1.5,4.7-2.6,6.4C19.4,83.9,15.9,82.5,15.9,82.5z M38.8,75.2h-9.1c1,0.9,2,1.8,2.7,2.4
			L30,79.8c-1-1.1-2.9-2.9-4.2-4.1l0.8-0.6h-7.5v-2.5H35v-1.3H18V69h17v-1.3H19v-2.5h19.7V69h1.7v2.3h-1.7L38.8,75.2L38.8,75.2z
			 M21.8,54.5c-1,0-2,0-3,0.1c-0.1-0.9-0.6-2.2-1-3c6.9-0.2,15-0.9,19.5-2.1l2.6,2.8c-1.5,0.4-3.1,0.7-4.9,0.9l3,0.9
			c-0.5,1-1.1,2.1-1.7,3.1h2.4V60H31v1.5h9.2v2.7H18.3v-2.7h8.6V60h-7.5v-2.7h1.9c-0.4-0.6-0.9-1.5-1.3-2L21.8,54.5L21.8,54.5z
			 M37.2,83.8c-0.4-1-1.1-2.3-1.8-3.7c-0.4,3.2-1.4,4-4.1,4h-4.5c-3.9,0-4.8-1-4.8-4.2v-3.8h3.9V80c0,0.9,0.2,1,1.4,1h3.6
			c0.8,0,1.1-0.3,1.2-2.1c0.8,0.5,2.3,1,3.4,1.2c-0.5-0.9-1-1.9-1.5-2.7l3.3-1.3c1.3,2,2.7,4.5,3.4,6.2L37.2,83.8L37.2,83.8z
			 M28.4,54.1c-1.6,0.2-3.3,0.3-4.9,0.3c0.5,0.7,1.1,1.5,1.4,2l-2,0.8h4.6c-0.3-0.8-0.8-1.7-1.3-2.4L28.4,54.1z M32.4,57.3
			c0.9-1.2,1.7-2.6,2.3-3.9c-1.6,0.3-3.3,0.5-5.1,0.6c0.5,0.8,1.1,1.8,1.4,2.5l-2,0.8L32.4,57.3L32.4,57.3z"/>
		<path class="st0" d="M58.6,73.5c-0.6-1.1-1.8-3-3-4.6v15.6h-4.4V70.4c-1.5,3.2-3.2,6.1-5.1,8.1c-0.4-1.3-1.5-3.2-2.2-4.3
			c2.4-2.4,4.9-6.4,6.5-10h-5.3V60h6.1v-4.2c-1.7,0.3-3.4,0.5-5.1,0.7c-0.2-1-0.7-2.5-1.1-3.5c4.8-0.6,10.3-1.8,13.9-3.2l2.3,3.7
			c-1.7,0.6-3.7,1-5.7,1.5v5h5.6v4.2h-5.6v0.2c1.1,0.9,4.8,4.5,5.6,5.5L58.6,73.5L58.6,73.5z M75.4,83.8c-0.2-1.2-0.5-2.6-1-4.1
			c-11.6,1.8-13.4,2.2-14.8,2.8c-0.2-0.9-1-3.1-1.5-4.4c1.1-0.4,1.9-1.9,2.9-4.9c1-2.8,4.1-13.3,5.5-22.7l4.9,0.9
			c-1.6,8.9-4,18-6.6,25.4l8.4-1.2c-1-3.1-2.2-6.3-3.3-9.2l4.2-1.5c2.3,5.5,5,12.5,5.9,17C80,82,75.4,83.8,75.4,83.8z"/>
		<path class="st0" d="M94.4,70.6c-0.3-0.8-1-2.1-1.6-3.3v17.2h-3.9V68.8c-1,3.4-2.2,6.5-3.5,8.7c-0.3-1.3-1.3-3.4-2-4.5
			c2-2.9,4-8.1,5-12.3h-4v-4.1h4.5v-7h3.9v7h3.6v4.1h-3.6v1.7c0.9,1,3.4,4.5,4,5.4L94.4,70.6L94.4,70.6z M110.2,80.2h8.7v3.1h-16.8
			v1.2h-4V73.7c-0.5,0.5-1,0.9-1.4,1.3c-0.3-0.8-1.4-2.8-2.1-3.7c2-1.7,4-4,5.3-6.5h-2.8v-7.5h9.4v7.5h-4.2l1.5,0.5
			c-0.3,0.6-0.6,1.3-1,1.9h3.3c-0.2-0.5-0.3-1-0.5-1.4l3.7-1h-1.4v-7.5h9.5v7.5h-8c0.3,0.8,0.6,1.6,0.9,2.4h7.6V70h-7.8v1.5h6.5v2.8
			h-6.5v1.5h6.5v2.8h-6.5L110.2,80.2L110.2,80.2z M102.1,55.2H96V52h6.1v-2.5h3.9v7.2h-3.9V55.2L102.1,55.2z M100.4,62h2.8v-2h-2.8
			V62z M106.3,71.4V70h-4.2v1.5C102.2,71.4,106.3,71.4,106.3,71.4z M106.3,74.3h-4.2v1.5h4.2V74.3z M102.2,80.2h4.2v-1.5h-4.2V80.2z
			 M119.2,52v3.2h-6.6v1.4h-3.9v-7.1h3.9V52H119.2z M111.3,62h2.9v-2h-2.9V62z"/>
		<path class="st0" d="M152.3,78.6h5.1v3.1h-5.1v2.8h-4.5v-2.8h-24v-3.1h5.4v-9.1H125v-3.1h0.2c-0.7-0.4-1.5-0.9-1.9-1.1
			c1.9-1.7,2.2-3.9,2.2-5.5v-2.3h14.3v6.2h-11.4c-0.3,1-0.7,1.9-1.4,2.7h14.6c-0.3-0.9-1-2.1-1.6-2.8c1.8-0.2,3.6-0.5,5.2-1
			c-1.1-0.8-2-1.8-2.7-2.8l1.2-0.3h-2.2v-2.4c-0.5-0.6-1.2-1.3-1.6-1.5c2.9-1,3.3-2.1,3.3-3.4v-1.8h10.3v3.1c0,0.7,0,1,0.6,1h1.3
			c0.5,0,1.5-0.1,1.9-0.2c0.1,0.9,0.1,1.8,0.2,2.7c-0.5,0.2-1.4,0.2-2.1,0.2h-1.6l2.1,0.8c-0.8,2-2.2,3.6-3.8,4.9
			c1.6,0.5,3.5,0.8,5.5,0.9c-0.7,0.7-1.6,2-2,2.9h0.9v3.1h-4.2L152.3,78.6L152.3,78.6z M130.5,53.3h-6.4v-2.2h6.4v-1.6h4v1.6h6.2
			v2.2h-6.2v1.1h5.2v2.2h-14.6v-2.2h5.3L130.5,53.3L130.5,53.3z M128.9,59.7V60c0,0.5,0,1.1-0.1,1.7h2.1v-1.9L128.9,59.7L128.9,59.7
			z M133.6,69.5v1.3h14.2v-1.3H133.6z M133.6,74.8h14.2v-1.3h-14.2V74.8z M147.9,78.7v-1.3h-14.2v1.3H147.9z M136.3,59.7h-2.2v1.9
			h2.2V59.7z M154.9,66.5c-2.3-0.4-4.4-0.9-6.1-1.7c-1.8,0.8-3.8,1.3-6,1.7H154.9L154.9,66.5z M146.6,53.2c-0.2,1.4-0.8,2.8-2.3,3.9
			h8.8h0.2h-0.1c-2.8,0-3.2-1.2-3.2-3.7v-0.2H146.6L146.6,53.2z M146.1,59.5c0.6,0.7,1.4,1.3,2.4,1.8c1-0.5,1.7-1.1,2.4-1.8H146.1z"
			/>
		<path class="st0" d="M168.1,74.4v3.2h-4.2V51.5h12.6v22.9H168.1L168.1,74.4z M168.1,55.6v5.3h4.3v-5.3H168.1z M172.3,70.4v-5.5
			H168v5.5H172.3z M196.4,79.3c0,2.4-0.5,3.5-2,4.3c-1.5,0.7-3.7,0.8-6.8,0.8c-0.2-1.2-0.9-3.2-1.6-4.3c2,0.1,4.3,0.1,5,0
			c0.7,0,1-0.2,1-0.9v-6.6h-8.2c-0.9,4.4-2.7,8.9-6.5,11.9c-0.7-0.9-2.5-2.4-3.4-2.9c5.7-4.7,6.2-11.7,6.2-17.3V51h16.3V79.3
			L196.4,79.3z M191.9,68.7v-4.8h-7.5v0.6c0,1.3,0,2.7-0.2,4.2H191.9L191.9,68.7z M184.5,55.1v4.8h7.5v-4.8H184.5z"/>
		<path class="st0" d="M11.3,3.9h9.1c6.2,0,11.3,5,11.3,11.2v9.1c0,6.2-5,11.2-11.3,11.2h-9.1C5,35.5,0,30.4,0,24.2v-9.1
			C0,8.9,5,3.9,11.3,3.9z"/>
	</g>
</g>
</svg>
