<?xml version="1.0" encoding="utf-8"?>
<!-- Generator: Adobe Illustrator 27.0.0, SVG Export Plug-In . SVG Version: 6.00 Build 0)  -->
<svg version="1.1" id="_圖層_2" xmlns="http://www.w3.org/2000/svg" xmlns:xlink="http://www.w3.org/1999/xlink" x="0px" y="0px"
	 viewBox="0 0 712 36.8" style="enable-background:new 0 0 712 36.8;" xml:space="preserve">
<style type="text/css">
	.st0{fill:#FFFFFF;}
</style>
<g id="_圖層_1-2">
	<path class="st0" d="M65,30.8c3.8,1.2,7.9,2.8,10.5,3.8l-5.6,2c-2.2-1.2-6.1-2.8-10-4.1l3.4-1.8H52.5l3.1,1.4
		c-3.2,1.9-8.2,3.6-12.2,4.6c-0.8-0.8-2.4-2.4-3.4-3.2c3.6-0.6,7.6-1.6,10.4-2.7H45V15.9h26v14.9C71.1,30.8,65,30.8,65,30.8z
		 M75.3,14.7H40.2v-3.4h15.3V9.8H45.4V2.5h10.1v-2H60v2h10.6v7.3H60v1.4h15.3V14.7L75.3,14.7z M49.6,20.1h16.8v-1.5H49.6V20.1z
		 M49.6,24.1h16.8v-1.5H49.6V24.1z M49.6,28.2h16.8v-1.6H49.6V28.2z M55.5,7.1V5.3h-5.7v1.8C49.8,7.1,55.5,7.1,55.5,7.1z M60,5.3
		v1.8h6V5.3H60z"/>
	<path class="st0" d="M106.1,31c3.6,1.1,7.2,2.2,9.5,3.1l-4.1,2.7c-2.5-1.1-6.9-2.7-11.2-4l2.2-1.8h-8.2l2.5,1.7
		c-3.2,1.7-8.5,3.3-13,4c-0.7-0.8-2-2.3-2.9-3.1c3.5-0.5,7.7-1.5,10.4-2.5h-4.9V19.9c-1.4,0.1-2.8,0.3-4.2,0.4
		c-0.4-1-1.6-2.9-2.2-3.8c1.7-0.1,3.4-0.2,5.1-0.3c-0.6-0.7-1.3-1.4-1.8-1.8c2.3-0.7,4.8-1.7,6.2-3H88V8.2h20.8v3.2h-1.3l3.3,1.7
		c-2.2,1.5-5,2.7-8.2,3.7h8.8V31H106.1L106.1,31z M86.3,10.6h-4.2V3.2h13.2c-0.3-0.6-0.6-1.1-0.9-1.6L99,0c0.6,0.9,1.3,2.1,1.8,3.2
		h13.9v7.4h-4.4V6.9h-24L86.3,10.6L86.3,10.6z M93.7,12.2c-1.1,1.4-2.8,2.6-4.5,3.6c2.5-0.3,4.8-0.7,7.1-1.1v-3.3H91L93.7,12.2
		L93.7,12.2z M90.8,19.3v1.5h15.8v-1.5H91H90.8z M106.6,23.1H90.8v1.5h15.8V23.1z M90.8,28.5h15.8V27H90.8V28.5z M100.3,13.7
		c2.3-0.6,4.4-1.4,6.1-2.4h-6C100.3,11.4,100.3,13.7,100.3,13.7z"/>
	<path class="st0" d="M156.8,28.5h-8.7v3.8c0,2.1-0.4,3.2-2,3.8s-3.8,0.6-6.7,0.6c-0.2-1.2-0.8-2.9-1.3-4c1.9,0.1,4.1,0.1,4.7,0.1
		s0.8-0.2,0.8-0.7v-3.6h-11c1.6,1.2,3.3,2.5,4.2,3.6l-3.5,2.9c-1.1-1.5-3.8-3.7-5.9-5.1l1.6-1.4h-7.8v-3.6h22.3v-1.4
		c-7.7,0.1-15.1,0.3-20.5,0.3l-0.1-3.3c3.7,0,8.5,0,13.7,0V19h-11.2V7.9h11.2V6.5h-14.3V3h14.3V0.6h4.5V3h14.2v3.5h-14.2v1.4h11.8
		V19h-2.6c1.9,1,3.8,2.2,5,3.1l-2.8,2.4c-0.5-0.4-1-0.9-1.6-1.3l-2.8,0.1v1.5h8.7V28.5L156.8,28.5z M129.7,12.1h6.9v-1.4h-6.9V12.1z
		 M136.7,16.2v-1.5h-6.9v1.5H136.7z M141.2,10.7v1.4h7.3v-1.4H141.2z M148.4,16.2v-1.5h-7.3v1.5H148.4z M141.2,20.4h4.9
		c-0.6-0.2-1.1-0.5-1.6-0.7l0.8-0.6h-4.1L141.2,20.4L141.2,20.4z"/>
	<path class="st0" d="M172.3,24.6c-0.1-0.5-0.2-1.1-0.3-1.7c-7.1,1-8.4,1.4-9.2,1.8c-0.2-0.9-1-3-1.5-4.1c1.1-0.3,1.9-1.1,3.2-2.5
		c0.4-0.5,1.3-1.6,2.3-3.1c-2.8,0.4-3.7,0.6-4.3,0.9c-0.2-0.9-0.9-2.9-1.4-4c0.8-0.2,1.4-0.9,2.2-2.1c0.8-1.1,3.1-5.3,4.3-9.4
		l4.2,1.7c-1.3,3.1-3.2,6.4-5,9.1l2.6-0.2c1-1.6,2-3.4,2.8-5.2l3.9,2.4c-1.5,2.7-3.2,5.4-5.2,8l2.9-0.8c0.9,2.6,1.8,6,2.1,8.1
		C175.8,23.5,172.3,24.7,172.3,24.6z M166.4,26.5c-0.3,3.6-0.9,7.4-1.8,9.8c-0.7-0.4-2.5-0.9-3.4-1.2c0.9-2.3,1.4-5.9,1.6-9.1
		L166.4,26.5L166.4,26.5z M170.3,25.9c0.4,2.6,0.8,5.9,0.9,8.2l-3.4,0.6c0-2.2-0.3-5.6-0.7-8.2C167,26.5,170.3,25.9,170.3,25.9z
		 M171.2,19.4c-0.2-0.9-0.5-1.9-0.7-2.7c-0.8,1-1.7,2.1-2.5,3.1L171.2,19.4z M173.9,24.8c0.6,1.7,1.3,3.9,1.6,5.3l-3.2,1
		c-0.2-1.4-0.9-3.8-1.5-5.4L173.9,24.8L173.9,24.8z M184.8,21.9c-1.3,6-4.2,10.5-8.2,12.9c-0.6-0.9-1.8-2.4-2.6-3.2
		c2.4-1.3,4.5-3.9,5.7-6.8h-3.5v-3.7h5.2l0.7-0.1L184.8,21.9L184.8,21.9z M197.6,22.2c-1.8,1.4-3.6,2.9-5.1,4.1
		c1.5,2.2,3.4,4.2,5.7,5.3c-1,0.9-2.4,2.5-3.1,3.7c-2.3-1.5-4.1-3.8-5.6-6.5v3.3c0,2-0.4,3.2-1.7,3.9s-3.1,0.7-5.6,0.7
		c-0.2-1.2-0.7-3-1.2-4.2c1.4,0.1,3.1,0.1,3.5,0c0.5,0,0.7-0.1,0.7-0.5V18.7h-7.5V4.6h5.5c0.5-1.4,1-2.9,1.2-4.1l5.3,0.9
		c-0.6,1.1-1.2,2.2-1.8,3.2h8.4v14.1h-6.8V20c0.4,1.1,0.7,2.1,1.2,3.1c1.3-1.2,2.6-2.6,3.5-3.8L197.6,22.2L197.6,22.2z M181.9,10
		h9.9V8.1h-9.9V10z M181.9,15.3h9.9v-2.1h-9.9V15.3z"/>
	<path class="st0" d="M206.8,15.4c0-2.1,1.6-3.7,3.6-3.7s3.6,1.6,3.6,3.7s-1.6,3.7-3.6,3.7S206.8,17.5,206.8,15.4z M206.8,30.1
		c0-2.1,1.6-3.7,3.6-3.7s3.6,1.6,3.6,3.7s-1.6,3.7-3.6,3.7S206.8,32.3,206.8,30.1z"/>
	<path class="st0" d="M223.3,19.1c0-9.9,3.3-14.3,8.2-14.3s8.2,4.4,8.2,14.3s-3.3,14.7-8.2,14.7S223.3,29,223.3,19.1z M234.3,19.1
		c0-8.1-1.2-9.9-2.8-9.9s-2.8,1.8-2.8,9.9s1.2,10.2,2.8,10.2S234.3,27.2,234.3,19.1z"/>
	<path class="st0" d="M247.8,27.1c0.7,1.2,2,2,3.3,2c2.1,0,4.1-2.2,4.4-8.8c-1.2,1.5-2.7,2.4-4.5,2.4c-3.5,0-6.4-2.8-6.4-8.7
		s3.5-9.2,7.6-9.2c4.5,0,8.8,4.4,8.8,13.7c0,10.7-4.4,15.2-9.7,15.2c-2.9,0-5.1-1.5-6.4-3.2L247.8,27.1z M255.4,16.3
		c-0.3-5.3-1.6-7.2-3.2-7.2s-2.4,1.6-2.4,4.9s1,4.6,2.4,4.6C253.3,18.6,254.4,18,255.4,16.3L255.4,16.3z"/>
	<path class="st0" d="M265.4,30.1c6.1-6.7,10-11.7,10-16.5c0-2.7-1-4.3-2.9-4.3c-1.6,0-3,1.2-4.1,2.7l-3.2-3.2
		c2.4-2.6,4.7-4.1,8.1-4.1c4.6,0,7.7,3.4,7.7,8.5s-3.6,10.1-7.9,15.6c1.5-0.1,2.8-0.3,4.2-0.3h4.8v4.7h-16.6L265.4,30.1L265.4,30.1z
		"/>
	<path class="st0" d="M299.6,11.4c-0.7-1.1-2-2-3.3-2c-2.1,0-4.1,2.2-4.4,8.8c1.2-1.5,2.7-2.4,4.5-2.4c3.5,0,6.4,2.8,6.4,8.7
		s-3.5,9.2-7.6,9.2c-4.5,0-8.8-4.4-8.8-13.7c0-10.7,4.4-15.2,9.7-15.2c2.9,0,5.1,1.5,6.4,3.2L299.6,11.4L299.6,11.4z M297.6,24.6
		c0-3.2-1-4.6-2.4-4.6c-1,0-2.2,0.6-3.2,2.3c0.3,5.3,1.6,7.2,3.2,7.2C296.8,29.4,297.6,27.9,297.6,24.6L297.6,24.6z"/>
	<path class="st0" d="M309.9,20h12v4.3h-12V20z"/>
	<path class="st0" d="M327.9,29.8l2.9-3.6c1.4,1.8,3,2.9,4.8,2.9c2.1,0,3.7-1.2,3.7-3.6c0-2.8-1.4-4.5-6-4.5v-4.1
		c3.9,0,5.4-1.9,5.4-4.3c0-2.1-1.1-3.3-3-3.3c-1.4,0-2.7,1-4.1,2.5l-3-3.4c2.2-2.2,4.7-3.6,7.6-3.6c4.8,0,7.9,2.7,7.9,7.3
		c0,3.2-1.4,5.3-3.8,6.5v0.1c2.4,0.9,4.5,3.2,4.5,7.2c0,4.9-3.8,7.8-8.4,7.8C332.3,33.8,329.6,32.1,327.9,29.8L327.9,29.8z"/>
	<path class="st0" d="M349.4,30.3l2.7-3.5c1.2,1.3,2.7,2.3,4.6,2.3c2,0,3.5-1.7,3.5-4.9s-1.4-4.8-3.3-4.8c-1.1,0-1.7,0.4-2.9,1.2
		l-2.6-1.7l0.7-13.7H365V10h-8l-0.5,5.8c0.8-0.3,1.5-0.5,2.4-0.5c3.5,0,6.9,2.8,6.9,8.7s-3.9,9.6-8.4,9.6
		C353.7,33.8,351.3,32.3,349.4,30.3L349.4,30.3z"/>
	<path class="st0" d="M370.8,30.1c6-6.7,10-11.7,10-16.5c0-2.7-1-4.3-2.9-4.3c-1.6,0-3,1.2-4.1,2.7l-3.2-3.2
		c2.4-2.6,4.7-4.1,8.1-4.1c4.6,0,7.7,3.4,7.7,8.5s-3.6,10.1-7.9,15.6c1.5-0.1,2.8-0.3,4.2-0.3h4.8v4.7h-16.6L370.8,30.1L370.8,30.1z
		"/>
	<path class="st0" d="M394.3,20h12v4.3h-12V20z"/>
	<path class="st0" d="M412.7,30.3l2.7-3.5c1.2,1.3,2.7,2.3,4.6,2.3c2,0,3.5-1.7,3.5-4.9s-1.4-4.8-3.3-4.8c-1.1,0-1.7,0.4-2.9,1.2
		l-2.6-1.7l0.7-13.7h12.9V10h-8l-0.5,5.8c0.8-0.3,1.5-0.5,2.4-0.5c3.5,0,6.9,2.8,6.9,8.7s-3.9,9.6-8.4,9.6
		C417,33.8,414.5,32.3,412.7,30.3L412.7,30.3z"/>
	<path class="st0" d="M444.4,10h-9.9V5.3h15.9v3.5c-4.7,7.7-6,14-6.1,24.5h-6C438.9,23.1,440.4,17.5,444.4,10z"/>
	<path class="st0" d="M455.2,26.4c0-3.7,1.8-5.6,3.9-7.3V19c-1.8-1.6-3.3-4-3.3-6.9c0-4.4,3.2-7.2,7.8-7.2s7.3,3,7.3,7.2
		c0,3-1.5,5.2-3.2,6.7v0.1c2.2,1.6,4.2,3.8,4.2,7.5c0,4.2-3,7.4-8.3,7.4S455.2,30.7,455.2,26.4L455.2,26.4z M466.2,26.7
		c0-2.5-1.4-3.9-4-5.5c-1.1,1.2-2,2.8-2,5s1.3,3.7,3.2,3.7C465.4,29.8,466.2,28.6,466.2,26.7L466.2,26.7z M466.1,12.3
		c0-2-1-3.5-2.6-3.5c-1.4,0-2.5,1.1-2.5,3.2c0,2.2,1.4,3.8,3.3,4.9C465.5,15.6,466.1,14.1,466.1,12.3L466.1,12.3z"/>
</g>
</svg>
