<?xml version="1.0" encoding="utf-8"?>
<!-- Generator: Adobe Illustrator 27.0.0, SVG Export Plug-In . SVG Version: 6.00 Build 0)  -->
<svg version="1.1" id="_圖層_2" xmlns="http://www.w3.org/2000/svg" xmlns:xlink="http://www.w3.org/1999/xlink" x="0px" y="0px"
	 viewBox="0 0 1063.8 258.5" style="enable-background:new 0 0 1063.8 258.5;" xml:space="preserve">
<style type="text/css">
	.st0{fill:none;stroke:url(#SVGID_1_);stroke-width:2;stroke-miterlimit:10;}
	.st1{fill:#E2DD47;}
</style>
<g id="_圖層_1-2">
	<g>
		
			<linearGradient id="SVGID_1_" gradientUnits="userSpaceOnUse" x1="674.2545" y1="-174.5439" x2="389.5356" y2="436.0339" gradientTransform="matrix(1 0 0 -1 0 260)">
			<stop  offset="0" style="stop-color:#FFFFFF;stop-opacity:0.8"/>
			<stop  offset="0.2" style="stop-color:#FFFFFF;stop-opacity:0"/>
			<stop  offset="0.5" style="stop-color:#FFFFFF;stop-opacity:0"/>
			<stop  offset="0.8" style="stop-color:#FFFFFF;stop-opacity:0"/>
			<stop  offset="1" style="stop-color:#FFFFFF;stop-opacity:0.8"/>
		</linearGradient>
		<path class="st0" d="M15.5,1h1032.9c8,0,14.5,6.5,14.5,14.5V243c0,8-6.5,14.5-14.5,14.5H15.5C7.5,257.5,1,251,1,243V15.5
			C1,7.5,7.5,1,15.5,1z"/>
		<g>
			<g>
				<path class="st1" d="M117.2,83.3c-3.2,6.1-6.8,12.2-10.9,18.2v79.8H87.5v-56.1c-4.4,4.7-8.9,9.1-13.6,12.9
					c-2.2-4.4-6.8-12.2-10-16.2C78,110.8,92,92.1,98.6,77L117.2,83.3L117.2,83.3z M94.5,58.5c-5.4,8.6-11.6,16.8-17.4,22.6
					c-2.7-3-9-9.6-12.7-12.6c9.8-8.5,18.5-21.8,23.8-35.2l16.6,4.7c-0.8,2-1.7,4.1-2.7,6.1h34.6v14.3h-22.5
					c4.6,3.9,9.3,8.2,11.9,11.5l-12,10.8c-3.2-4.7-10.6-12.1-16.6-17.1l6-5.2L94.5,58.5L94.5,58.5z M204.5,123.8
					c-7.4,10.7-17,20.1-27.9,28.3c4.4,6.3,9.4,10.1,14.1,10.1c3.8,0,5.4-5.5,6.3-19.6c4,3.8,10.5,7.4,15.4,8.9
					c-2.9,23.7-9.2,29.1-22.8,29.1c-11.1,0-21.1-6.9-29-18.4c-12.2,6.9-25.2,12.1-38.3,16.3c-2.2-3.9-7.8-11.8-11.2-15.5
					c14.6-3.8,28.7-8.8,41-15.5c-3.8-7.9-6.7-17.1-9.2-26.7l-29.3,2.8l-1.7-17l27.7-2.5c-1.3-8-2.1-16-2.5-24.2h19.3
					c0.3,7.5,1.1,15.2,2.2,22.5l27.9-2.5c-6.3-4.1-15.1-9.1-21.7-12.6l10.8-10.7c8.4,3.9,19.5,9.9,25.8,13.8l-7.9,8.8l13-1.3
					l1.9,16.5l-46.1,4.4c1.7,6.4,3.8,12.6,6,18.1c7.6-5.8,13.9-12.2,18.9-19.6L204.5,123.8L204.5,123.8z M161.5,58.5
					c-4.4,7.8-9.5,15.2-14.7,20.6c-2.9-3-10-8.5-13.9-11c9-8.2,16.5-21.5,20.6-34.7l17.1,4.1c-0.8,2.4-1.6,4.5-2.4,6.9h43.3v14.1
					H184c4.3,3.3,8.7,6.9,11.2,9.6l-12.8,11c-3.2-4.2-10.5-10.7-16.2-14.9l6.8-5.7H161.5L161.5,58.5z"/>
				<path class="st1" d="M331.6,79.7c3.3,45.8,13,82.1,24.6,82.1c3.3,0,5.2-8.3,6-28.3c4.3,4.4,11.2,9.1,16.5,11
					c-2.9,29.7-9.2,36.9-24.2,36.9c-27.1,0-39-46.5-42.8-101.7h-78.8V61.5h77.8c-0.3-8.5-0.5-17.3-0.5-25.9h20.3
					c-0.2,8.6-0.2,17.4,0.2,25.9h25c-4.3-5.3-12.2-11.8-18.5-16.5l12.5-10.2c7.1,4.9,16.5,12.2,20.8,17.4l-10.8,9.3h14.9v18.2
					L331.6,79.7L331.6,79.7z M281.5,150.2c9.7-1.7,19.8-3.6,29.5-5.5l1.4,16.6c-26,5.6-53.9,11.5-74.3,15.7l-5.2-18.8
					c8.1-1.3,18.5-2.8,29.9-4.7v-37.8h-23.9V97.6h68v18.1h-25.4L281.5,150.2L281.5,150.2z"/>
				<path class="st1" d="M513,123.8c8.4,7.5,19.5,14.3,30.9,18.2c-4.1,3.3-9.8,9.9-12.5,14.4c-8.6-3.9-17.1-9.7-24.9-16.5v11.6
					h-28.8v10.2h51.7v15.4H408.8v-15.4h49.8v-10.2h-28v-9.7c-7.8,6.4-16.3,12.1-25.2,16c-2.7-4.4-8.1-11-12-14.3
					c11.6-4.2,23.3-11.5,32-19.8h-30.6v-15.2h30.3V61.8h-21.9V46.7h21.9V34.9h18.9v11.8h49.6V34.9h19.3v11.8h21.7v15.1h-21.7v46.8
					H542v15.2H513L513,123.8z M503.1,136.8c-4.3-4.1-8.1-8.5-11.4-13H447c-3.2,4.6-7.1,8.9-11.2,13h22.8v-9.7h19.2v9.7H503.1
					L503.1,136.8z M443.8,61.8v6.9h49.6v-6.9C493.4,61.8,443.8,61.8,443.8,61.8z M443.8,88.5h49.6v-6.9h-49.6V88.5z M443.8,108.6
					h49.6v-7.1h-49.6V108.6z"/>
				<path class="st1" d="M583.2,162.4V174h-13.5v-52c-2.4,3.8-4.8,7.2-7.3,10.4c-0.6-4.7-4-15.9-6.3-20.9
					c9.7-13,16.2-32.2,20.3-52.9h-15v-17h47.9v17h-16.3c-2.2,10.7-5.1,21.5-8.6,31.7h23.5v72.1L583.2,162.4L583.2,162.4z
					 M595.3,106.7h-12v39.4h12V106.7z M665.8,162.1c3.2,0.3,6.5,0.5,10,0.5c5.1,0,26.3,0,33.1-0.2c-2.1,3.6-4.3,11.1-5.1,15.7h-29.2
					c-19.8,0-34.7-3.6-45-18.4c-3.2,8.8-8.1,16.5-15.7,22.4l-12.5-11.8c12.7-9.4,17.3-26.1,19-45.7l15.7,2.7c-0.5,4.4-1,8.8-1.7,13
					c3.5,8.3,8.1,13.8,14.1,17v-36.6h-37.7v-15.1h81l2.7-0.8l12.2,3.8c-2.7,8.3-6.5,18.2-9.5,24.5l-14.3-4.7c0.8-2,1.7-4.9,2.7-7.7
					h-19.8v13h35.3v14.9h-35.3L665.8,162.1L665.8,162.1z M628.2,81.7c-4.3,6.9-9,13.5-14,18.1c-1.6-3.4-4.9-9.4-7.8-12.4
					c6.3-5,12.8-14.1,17-23.2h-11.6V50h16.3V35.1h14.6V50H656v14.1h-13c4,3.4,13.5,13,15.7,15.7l-8.9,11c-1.6-2.7-4.1-6.6-7-10.5
					v21.8h-14.6L628.2,81.7L628.2,81.7z M673.6,85.8c-3.8,6.1-8.2,11.6-12.8,15.4c-1.6-3.3-4.8-8.9-7.5-11.9
					c7.1-5.2,14.1-14.9,18.4-25.1h-12.5V50h14.4V35.1h14.7V50h17.4v14.1H691c5.4,5.7,15.4,17,17.9,20.1l-10.3,12.6
					c-2.1-4.4-6.2-11.6-10.3-17.9v23.2h-14.7L673.6,85.8L673.6,85.8z"/>
				<path class="st1" d="M870.4,151.7v18.8h-144v-18.8h60.4V70.6h-51.8V51.1h126.6v19.5h-53.2v81.2L870.4,151.7L870.4,151.7z"/>
				<path class="st1" d="M919.1,109.2c-6.2-5.2-19.5-12.6-29.6-17l10-14c9.8,3.8,23.3,10.2,30.1,15.4L919.1,109.2L919.1,109.2z
					 M895,167.1c8.6-11.9,20.6-31.2,30-49.5l14,12.6c-8.4,16.3-18.5,34.2-27.9,49.5L895,167.1L895,167.1z M928.2,67.6
					c-6.3-5.3-19.3-12.9-29.5-17.4l10.3-13.8c10,3.9,23.5,10.8,30.1,15.9L928.2,67.6z M1018.6,181.4c-1.1-4.1-3-8.9-5.5-13.8
					c-52.8,6.3-60.8,7.5-66.1,10.2c-1.1-4.1-4.3-13.4-6.7-18.7c3.7-1.1,6.7-4.4,10.3-10.1c2.8-4.2,10.5-18.1,16.8-33.6h-29.8V97.9
					h37.6V75.7h-31.2V58h31.2V34.6h19.2V58h32.3v17.7h-32.3v22.1h38.2v17.6h-43.1c-6.3,14.3-14.3,28.4-22,40.3l37.2-3.8
					c-3.3-5.6-7-11.3-10.6-16.2l15.4-7.5c10.5,13.7,22,31.9,26.2,44.6L1018.6,181.4L1018.6,181.4z"/>
			</g>
		</g>
	</g>
</g>
</svg>
