<?xml version="1.0" encoding="utf-8"?>
<!-- Generator: Adobe Illustrator 27.0.0, SVG Export Plug-In . SVG Version: 6.00 Build 0)  -->
<svg version="1.1" id="_圖層_2" xmlns="http://www.w3.org/2000/svg" xmlns:xlink="http://www.w3.org/1999/xlink" x="0px" y="0px"
	 viewBox="0 0 644.8 56.2" style="enable-background:new 0 0 644.8 56.2;" xml:space="preserve">
<style type="text/css">
	.st0{fill:#FFFFFF;}
</style>
<g id="_圖層_1-2">
	<g>
		<path class="st0" d="M0,16.8h55.3v6.7h-23v2.1h18.2v20.5H34.1c2.3,0.3,5.7,0.8,10.1,1.6c5.1,0.9,8.7,1.5,10.8,1.6l-3.2,6.9
			c-7.4-1.8-14.4-3.5-21.2-4.8l3-5.3H21.2l3.5,5.3c-4.9,1.4-11.9,2.9-21,4.6c-0.3-0.6-0.8-1.6-1.6-3c-0.8-1.7-1.4-2.9-1.8-3.7
			c7.8-0.9,14.5-2,20-3.2H4.8V25.6H23v-2.1H0V16.8L0,16.8z M1.6,3.9h9.9V0.5h9.2v3.5h13.6V0.5h9.2v3.5h10.1v6.7H43.6V15h-32v-4.4
			H1.6V3.9z M14.3,31.3v2.1H23v-2.1H14.3z M14.3,38.2v2.3H23v-2.3H14.3z M20.7,10.8h13.6V8.8H20.7V10.8z M41,31.3h-8.8v2.1H41
			C41,33.4,41,31.3,41,31.3z M32.3,40.5H41v-2.3h-8.8V40.5z"/>
		<path class="st0" d="M63.4,28.6h18.4v-3H70.1v-3.9c-2.2,1.1-4.5,2.2-7.1,3.5c-0.8-1.7-2.1-4.1-3.9-7.4c-0.5-0.6-0.8-1.1-0.9-1.4
			C71,11.9,79.4,6.4,83.2,0l11.1,0.7c-0.2,0.2-0.4,0.5-0.7,1.1c-0.5,0.5-0.8,0.9-0.9,1.1c5.5,6.1,13,10.4,22.4,12.7
			c-1.5,2.8-3.2,5.8-4.8,9c-2.5-0.9-4.8-1.9-6.9-3v3.9H91.8v3H110v8.1h-7.4l5.5,2.8c-0.6,0.6-1.4,1.5-2.3,2.8
			c-1.4,1.8-2.5,3.2-3.2,4.2h10.6V54h-53v-7.6h10.1c-1.4-2-3-4.2-4.8-6.5l5.3-3.2h-7.4L63.4,28.6L63.4,28.6z M79.1,43.8l-4.2,2.5
			h6.9v-9.7H73c0.6,0.8,1.5,1.8,2.5,3C77.1,41.5,78.3,42.9,79.1,43.8L79.1,43.8z M87.4,9.7c-2.8,2.9-6.1,5.6-9.9,8.1h18.7
			C93,15.4,90.1,12.8,87.4,9.7z M94.3,44c0.5-0.6,1.2-1.5,2.1-2.8c1.5-2,2.7-3.5,3.5-4.6h-8.1v9.7h6.7L94.3,44L94.3,44z"/>
		<path class="st0" d="M118.2,42.9h55.1v9.5h-55.1C118.2,52.3,118.2,42.9,118.2,42.9z M121.5,4.4h48.4v9.7h-48.4
			C121.5,14.1,121.5,4.4,121.5,4.4z M124.2,23.5h43.1V33h-43.1C124.2,33,124.2,23.5,124.2,23.5z"/>
		<path class="st0" d="M185.8,55.8v-7.6h-9v-6.9h9v-2.8h-7.6V14.3h7.6v-2.5h-8.5V4.6h8.5V0.5h7.6v4.2h8.3v7.1h-8.3v2.5h7.4v24.2
			h-7.4v2.8h8.5v6.9h-8.5v7.6L185.8,55.8L185.8,55.8z M184.1,20.3v3.5h2.5v-3.5H184.1z M184.1,29v3.5h2.5V29
			C186.7,29,184.1,29,184.1,29z M195,20.3h-2.5v3.5h2.5V20.3z M195,32.5V29h-2.5v3.5H195z M203.3,55.5V9.2h9.9V0.7h7.6v8.5h9.9v46.3
			h-6.9v-3.2h-13.6v3.2L203.3,55.5L203.3,55.5z M210.2,17v10.1h3V17H210.2z M210.2,34.6v10.4h3V34.6H210.2z M223.8,17h-3v10.1h3V17z
			 M220.8,34.6v10.4h3V34.6H220.8z"/>
		<path class="st0" d="M238.8,9l1.1,0.9c1.7-3.2,3.2-6.4,4.6-9.4l8.1,2.8c-1.7,2.8-4,6.2-6.9,10.4c0.9,0.6,1.7,1.1,2.3,1.6
			c0.3-0.5,0.8-1.2,1.6-2.3c0.9-1.7,1.7-2.9,2.3-3.7l6.2,3.7c-1.8,3.1-4.7,7.3-8.5,12.7l4.4-1.4c0.5,1.2,1.1,3.1,1.8,5.5
			c0.8,2.3,1.3,4.2,1.6,5.5v-3.7h11.8v7.1c-0.6,3.5-2.1,6.7-4.4,9.5h2.8c1.5,0,2.3-0.8,2.3-2.3V28.8h-11.5V4.6h8.5l0.9-3.9l9.2,0.5
			l-1.1,3.5h12.7v24.2h-10.8v1.8c0.9,1.8,1.7,3.5,2.3,5.1c2.1-1.8,4.2-3.8,6.2-6l5.5,4.8c-1.5,1.4-3.6,3.2-6.2,5.3
			c-0.8,0.6-1.3,1.1-1.6,1.4c2.3,2,5,3.8,8.1,5.5c-0.9,1.4-2,3.3-3.2,5.8c-0.3,0.6-0.5,1.1-0.7,1.4c-5.2-3.5-8.7-6.8-10.4-9.7v4.6
			c0,4-1.8,6.1-5.5,6.2c-1.7,0.2-4.1,0.2-7.1,0.2c-0.5-2-0.9-4.1-1.4-6.2c-1.5,1.8-3.5,3.8-5.8,5.8c0-0.2-0.1-0.5-0.2-0.9
			c-0.3-0.8-0.8-1.9-1.4-3.5l-3.2,0.9c-0.1-1.1-0.6-2.8-1.4-5.3c-0.6-2.8-1.1-4.8-1.4-6.2l4.1-0.9l2.1,7.1c2.5-1.8,4.1-4.3,4.8-7.4
			h-3.9v-1.6l-4.6,1.4l-1.1-3.9l-1.6,0.2v21.4h-7.1V35.5h-0.7c-0.5,0-1.1,0.1-2.1,0.2c-2,0.2-3.4,0.3-4.1,0.5l-1.8-7.4l4.8-0.2
			c0.5-0.6,1.1-1.6,2.1-3c1.4-1.8,2.5-3.3,3.2-4.4c-1.8-1.2-4.6-3.1-8.3-5.8c0.5,0.3-0.1-0.1-1.6-1.1L238.8,9L238.8,9z M242.2,40.6
			c-0.5,5.4-0.9,10.1-1.4,14.1l-5.5-0.7c0-0.5,0.1-1.1,0.2-1.8c0.6-3.4,1.1-7.4,1.6-12L242.2,40.6L242.2,40.6z M249.8,28.3
			c0-0.3-0.1-0.7-0.2-1.1c-0.1-0.6-0.3-1-0.5-1.1l-1.6,2.3H249.8z M266,11.3v3h14.8v-3H266z M266,19.4v3h14.8v-3H266z"/>
		<path class="st0" d="M352.9,53.7h-12.7l-8.8-13.8l-9,13.8h-12.7l13.8-18.4l-12.7-17.8h12l8.5,13.8l8.5-13.8h12l-12.9,18
			L352.9,53.7L352.9,53.7z"/>
		<path class="st0" d="M409.3,14.8l-10.6,1.8c-0.9-4.1-3.2-6.1-6.9-6c-6-0.1-9.1,5.2-9.2,16.1c2.6-3.5,6.5-5.4,11.5-5.5
			c10.1,0.6,15.6,6,16.4,16.1c-0.6,11.1-6.8,16.8-18.7,17.3c-13.8,0.5-20.6-8.2-20.3-26c0.5-17.2,7.1-26,20-26.5
			C401.2,2.1,407.1,6.3,409.3,14.8L409.3,14.8z M399.6,38c-0.1-5.4-2.9-8.1-8.3-8.3c-5.2,0.1-8,2.8-8.3,7.8c0.1,5.5,3.1,8.5,8.8,8.8
			C396.7,45.9,399.3,43.1,399.6,38L399.6,38z"/>
		<path class="st0" d="M419.5,18l8.8,2.8v-6.7h10.1v27.4c-0.1,2.6,1.1,3.8,3.7,3.7h3.2c2.3,0,3.7-1.2,4.1-3.7c0.3-2,0.6-4.5,0.9-7.6
			c1.4,0.6,3.5,1.4,6.5,2.3c1.4,0.5,2.5,0.8,3.2,1.2c-0.5,3.5-1.1,6.8-1.8,9.9c-1.1,4.6-4.8,6.8-11.1,6.7h-8.1
			c-7.4,0.2-11-3.4-10.8-10.6V21.4c-2.3,8.3-4.5,15.4-6.5,21.4l-8.8-3.5c0.1-0.6,0.5-1.7,0.9-3.2C416.4,28.3,418.2,22.3,419.5,18
			L419.5,18z M436.5,0.5c4.6,2.5,10.1,5.8,16.6,9.9l-6,8.1c-6.5-4.4-11.9-8-16.4-10.6C430.8,7.8,436.5,0.5,436.5,0.5z M459.6,17
			c2.8,4.1,6.3,9.8,10.6,17l-8.5,4.8c-0.6-1.1-1.8-3.1-3.5-6c-3.2-5.4-5.5-9.2-6.9-11.5C451.3,21.4,459.6,17,459.6,17z"/>
		<path class="st0" d="M475,45.4h23v-8.5h-18.9v-8.8H498v-7.8H487c-0.8,1.5-2,3.8-3.7,6.9c0.1-0.3,0-0.1-0.5,0.7
			c-1.2-0.8-4.1-2.3-8.8-4.6c4.1-6.1,7.1-12.9,8.8-20.3l9.7,1.6c-0.6,2.3-1.3,4.5-2.1,6.7h7.6V0.7h9.9v10.6h18.2v9H508v7.8h15.9v8.8
			H508v8.5h20.5v8.5H475L475,45.4L475,45.4z"/>
		<path class="st0" d="M537.5,15.4c3.5,2.8,6.7,5.5,9.5,8.3l-6.7,6.7c-2.9-3.2-5.9-6.2-9-9C531.2,21.4,537.5,15.4,537.5,15.4z
			 M538.4,0.9c3.8,2.8,7.1,5.5,9.9,8.1l-6.5,6.7c-3.1-3.1-6.2-6-9.5-8.8L538.4,0.9L538.4,0.9z M538.4,32.3l8.8,3
			c-0.3,1.2-0.8,3.2-1.6,6c-1.7,6.2-3,10.9-3.9,14.3l-9-2.8C534.9,46.3,536.8,39.5,538.4,32.3L538.4,32.3z M548.7,3.4
			c13.7-0.3,25.6-0.8,35.7-1.6l0.9,7.6c-4.6,0.5-9.1,0.8-13.6,0.9v5.5h15.4V24h-15.4v5.8h13.1v25.6h-9.2v-3h-17.3v3h-9.2V29.7h13.1
			V24h-15v-8.1h15v-5.1c-1.4,0.1-3.5,0.2-6.5,0.2c-2.8,0.1-4.8,0.2-6.2,0.2v-1.1C549.5,8.4,549.2,6.2,548.7,3.4L548.7,3.4z
			 M558.4,37.3v7.6h17.3v-7.6H558.4z"/>
		<path class="st0" d="M592.5,55.8V2.3h52.3v53.5h-8.5v-1.8h-35v1.8H592.5L592.5,55.8z M634.2,19.8h-6.7c0.2,0.6,0.5,1.1,0.9,1.6
			h6.9v5.3h-2.8c1.1,1.1,2.3,1.9,3.7,2.5v-20h-35v21.2c2.3-1.1,4.3-2.3,6-3.7h-5.1v-5.3h9.7c0.3-0.5,0.5-1,0.7-1.6h-9.5v-5.3h3
			l-1.6-3l6.9-0.7c0.2,0.6,0.5,1.4,0.9,2.3c0.3,0.6,0.5,1.1,0.7,1.4h0.7c0.3-1.4,0.5-2.9,0.5-4.6h6.2c0,0.5-0.1,1.2-0.2,2.3
			c0,1.1-0.1,1.8-0.2,2.3h3.7c0.3-0.5,0.7-1.2,1.2-2.3c0.3-0.8,0.5-1.3,0.7-1.6l6.7,0.5l-2.1,3.5h4.2L634.2,19.8L634.2,19.8z
			 M627.8,39.2c0.3-0.9,0.5-1.9,0.7-3c0.5,0.2,1.2,0.4,2.1,0.7c1.8,0.6,3.2,1,4.2,1.2c-0.2,0.5-0.3,1.1-0.5,1.8
			c-0.2,1.1-0.3,1.8-0.5,2.3c-0.9,2.8-3.2,4.1-6.9,3.9h-14.1c-4.3,0.2-6.4-1.7-6.2-5.5v-5.3c-1.4,0.6-2.8,1.4-4.2,2.3l-1.2-2.8v12.7
			h35V32.3c-0.5,0.6-0.9,1.8-1.4,3.5c-0.2,0.3-0.2,0.5-0.2,0.7c-2.5-1.2-4.8-2.8-6.9-4.8c0,1.4-0.1,2.6-0.2,3.7
			c-0.2,2.8-1.7,4.2-4.6,4.4h-6c-0.2-0.5-0.4-1.2-0.7-2.1c-0.2-0.6-0.3-1.2-0.5-1.6h4.4c0.8,0,1.2-0.2,1.2-0.7
			c0.2-0.3,0.2-0.5,0.2-0.7h-8.1V39c0,1.2,0.6,1.8,1.8,1.8h9.9C626.8,40.8,627.7,40.3,627.8,39.2L627.8,39.2z M626.2,29.5
			c-0.3-0.3-0.8-1-1.4-2.1c-0.2-0.3-0.3-0.5-0.5-0.7h-8.5c-0.3,0.8-1,1.7-2.1,2.8L626.2,29.5L626.2,29.5z M621.8,21.4
			c-0.2-0.1-0.2-0.5-0.2-0.9c-0.2-0.3-0.2-0.5-0.2-0.7h-2.5c0,0.6-0.2,1.1-0.5,1.6H621.8L621.8,21.4z"/>
	</g>
</g>
</svg>
