<?xml version="1.0" encoding="utf-8"?>
<!-- Generator: Adobe Illustrator 27.0.0, SVG Export Plug-In . SVG Version: 6.00 Build 0)  -->
<svg version="1.1" id="_圖層_2" xmlns="http://www.w3.org/2000/svg" xmlns:xlink="http://www.w3.org/1999/xlink" x="0px" y="0px"
	 viewBox="0 0 500.5 42.1" style="enable-background:new 0 0 500.5 42.1;" xml:space="preserve">
<style type="text/css">
	.st0{fill:#231815;}
</style>
<g id="_圖層_1-2">
	<g>
		<path class="st0" d="M71,8.7c-0.7-0.9-1.4-1.9-2.2-2.9c-0.4,1.1-1.2,2.2-2.3,3.5c-0.3-0.4-0.8-0.8-1.2-1.2
			c1.6-1.7,2.7-3.9,3.1-6.5l1.7,0.1c-0.2,0.9-0.4,1.8-0.6,2.5c0.5,0.5,1.1,1.2,1.9,2.1c0.4,0.5,0.7,0.8,0.9,1.1L71,8.7L71,8.7z
			 M67.1,11.4V9.7h5.3V0.3h1.9v9.4h5.3v1.7h-5.3v2.5h7v1.6H65.4v-1.6h7v-2.5H67.1z M80,8.8c-0.4-0.6-1.2-1.6-2.3-3
			c-0.3,0.6-1,1.6-2.1,2.9c-0.4-0.4-0.8-0.8-1.3-1.1c1.6-1.8,2.6-3.8,3-6l1.7,0.2c0,0.2-0.1,0.4-0.2,0.7c-0.1,0.5-0.3,1.1-0.5,1.8
			c0.5,0.6,1.2,1.3,2.1,2.3c0.4,0.4,0.7,0.8,0.9,1L80,8.8L80,8.8z"/>
		<path class="st0" d="M84.1,5V3.4h1.4v-3H87v3h1.3V5H87v3.1c0.2,0,0.4-0.1,0.7-0.2c0.3,0,0.5-0.1,0.7-0.1c0,0.7,0,1.2,0,1.7L87,9.8
			v4.5c0,1.1-0.5,1.7-1.5,1.7c-0.4,0-0.8,0.1-1.3,0.1c0-0.3-0.1-0.7-0.2-1.2c0-0.2-0.1-0.3-0.1-0.4h0.9c0.4,0,0.7-0.2,0.7-0.5v-3.8
			L84,10.5l-0.2-1.8l1.7-0.3V5L84.1,5L84.1,5z M88.6,3.4V1.9h4.7V0.3h1.7v1.5h5v1.5h-9.5l1.3,0.5C91,5.1,90.5,6,90,6.7l0.7,0.5
			c0.4-0.7,0.7-1.3,1-1.9l1.2,0.6C92,7.5,91.1,9,90.2,10.4l1.2-0.1c0.1-0.3,0.2-0.7,0.2-1.1h1.3c-0.3,3.4-1.8,5.8-4.4,7
			c0,0-0.1-0.1-0.1-0.3c-0.3-0.5-0.6-0.8-0.8-1.1c1.9-0.9,3.1-2,3.5-3.4c-0.2,0-0.4,0.1-0.8,0.1c-0.8,0.1-1.6,0.2-2.4,0.4l-0.3-1.3
			c0.1,0,0.3-0.1,0.6-0.1c0.2,0,0.4-0.1,0.5-0.1c0.5-0.8,0.9-1.5,1.3-2.2c-0.2-0.1-0.6-0.3-1-0.6c-0.6-0.3-1.1-0.6-1.5-0.9l0.7-1.1
			l0.5,0.3c0.6-0.9,1.1-1.8,1.5-2.7C90.3,3.4,88.6,3.4,88.6,3.4z M92.4,9c0-0.3-0.1-0.7-0.2-1.2c0-0.2-0.1-0.3-0.1-0.4
			c0.9-1.1,1.7-2.4,2.3-4l1.5,0.1c-0.3,0.7-0.6,1.3-0.9,1.9h1.5c0.2-0.6,0.4-1.2,0.5-1.7L98.5,4c-0.1,0.4-0.3,0.9-0.6,1.5h1.9v1.3
			h-1.9v1.6h1.8v1.3h-1.8v1.5h1.8v1.3h-1.8v1.5h2.1v1.3h-5.3v0.9h-1.4v-8c-0.1,0.1-0.2,0.2-0.3,0.3C92.7,8.8,92.5,8.9,92.4,9z
			 M94.6,6.8v1.6h1.8V6.8H94.6z M94.6,9.7v1.5h1.8V9.7H94.6z M94.6,12.5v1.5h1.8v-1.5H94.6z"/>
		<path class="st0" d="M116.2,16.1c-1.2,0-2.1-0.8-2.9-2.4c-0.8,0.8-1.8,1.6-2.9,2.4c-0.3-0.4-0.7-0.8-1.2-1.3
			c1.4-0.9,2.5-1.8,3.4-2.9c-0.5-1.8-0.9-4.2-1-7h-5.8V7h4.5c0,0.9,0,2.3-0.1,4v0.5c0,1.7-0.8,2.5-2.3,2.5c-0.4,0-0.9,0.1-1.7,0.1
			c0-0.2,0-0.5-0.1-0.9c0-0.4-0.1-0.7-0.1-0.9h1.4c0.8,0,1.1-0.3,1.1-1.1c0-0.4,0.1-0.8,0.1-1.4c0-0.6,0.1-1.1,0.1-1.4h-2.9
			c0.1,3.1-0.5,5.6-1.7,7.7c-0.1,0-0.2-0.1-0.4-0.3c-0.5-0.4-0.9-0.7-1.1-0.8c0.6-1.1,1-2.1,1.3-3.1c0.2-0.9,0.3-2.4,0.3-4.2V3.2
			h7.5c0-0.6-0.1-1.6-0.1-3h1.7c0,1.3,0,2.3,0.1,3h5.2v1.6h-5.2c0.1,2.3,0.3,4.1,0.7,5.4c0.6-0.9,1.3-2.3,2.2-4.2l1.6,0.7
			c-1.1,2.4-2.2,4.3-3.2,5.5c0,0,0.1,0.1,0.1,0.2c0.5,1.3,1,1.9,1.5,1.9c0.3,0,0.5-0.2,0.7-0.7c0.2-0.8,0.3-1.6,0.4-2.3
			c0.3,0.1,0.6,0.3,1.1,0.5c0.2,0,0.3,0.1,0.3,0.1c-0.1,1.2-0.3,2.1-0.5,2.6C117.8,15.5,117.1,16.1,116.2,16.1L116.2,16.1z
			 M116.2,3.2c-0.7-0.6-1.3-1.2-2.1-1.8l1.2-0.9c0.8,0.5,1.5,1.1,2.1,1.7L116.2,3.2L116.2,3.2z"/>
		<path class="st0" d="M121.2,10.8l-0.1-1.3c0.4,0,1,0,1.8-0.1c0.8,0,1.4,0,1.8-0.1V9.1l1.7-0.9h-4.7V7h6.8v1.1l-2,1.2
			c0.8-0.1,1.6-0.1,2.5-0.1l-0.1,1.2l-2.7,0.1v0.7c0,1-0.6,1.5-1.7,1.5h-0.9c-0.4,0-0.7,0.1-1,0.1c0-0.4-0.1-0.8-0.3-1.2
			c0.5,0,1,0.1,1.5,0.1c0.6,0,0.9-0.2,0.9-0.7v-0.3C123.6,10.7,122.5,10.7,121.2,10.8L121.2,10.8z M121.2,2.7V1.5h3.3V0.3h1.5v1.2
			h3.2v1.3C129.3,2.7,121.2,2.7,121.2,2.7z M123,16.3c-0.5-0.2-1.1-0.3-1.7-0.5c0-0.1,0.1-0.3,0.3-0.5c0.5-0.8,0.9-1.6,1.1-2.1
			l1.7,0.3c0,0,0,0.1-0.1,0.2C123.8,14.8,123.4,15.6,123,16.3L123,16.3z M122,6.2V3.5h6.5v2.7C128.5,6.2,122,6.2,122,6.2z
			 M123.4,4.5v0.9h3.6V4.5H123.4z M126.7,16.1l-0.9-2.5l1.7-0.2c0.3,0.7,0.6,1.5,0.9,2.5L126.7,16.1L126.7,16.1z M129.3,13
			c-0.4-0.4-0.8-0.7-1.3-1c1.2-1.3,2-2.5,2.3-3.8c-0.2-0.2-0.6-0.5-1-0.9c-0.2-0.2-0.4-0.4-0.5-0.5l0.8-1.1c0.4,0.3,0.8,0.5,1.1,0.8
			c0-0.3,0.1-0.8,0.1-1.5c0-0.3,0.1-0.6,0.1-0.7h-1.4V2.9h1.4V0.3h1.5v2.6h2.8c-0.1,3.6,0,6.1,0.3,7.5c0.1,0.3,0.2,0.5,0.3,0.5
			c0.2,0,0.3-0.2,0.3-0.5c0-0.3,0.1-0.8,0.1-1.4c0-0.3,0.1-0.5,0.1-0.7c0.4,0.1,0.8,0.3,1.1,0.4c0,1-0.1,1.8-0.3,2.3
			c-0.2,1-0.6,1.5-1.4,1.5c-0.9,0-1.5-0.6-1.7-1.7c-0.3-1.2-0.4-3.3-0.4-6.3h-1.3c0,1.2-0.1,2.3-0.3,3.3l1.7,1.3l-0.9,1.3l-1.1-1.1
			C131.1,10.5,130.4,11.7,129.3,13L129.3,13z M130.8,15.9c0,0-0.1-0.1-0.1-0.2c-0.4-1-0.8-1.8-1.1-2.3l1.7-0.3
			c0.4,0.8,0.9,1.6,1.3,2.5L130.8,15.9L130.8,15.9z M135.4,16.1c-0.5-1-1.1-1.9-1.7-2.7l1.7-0.4c0.6,0.8,1.2,1.7,1.7,2.7L135.4,16.1
			z"/>
		<path class="st0" d="M143.9,9.8c-0.1-0.2-0.4-0.6-0.8-1.1c1.7-0.3,2.6-0.9,2.6-1.9h-3.1v9.4h-1.7V5.4h3.9
			c-0.1-0.2-0.3-0.4-0.5-0.8c-0.3-0.4-0.5-0.7-0.6-0.8l1.7-0.4c0.4,0.5,0.9,1.1,1.4,1.9l-0.5,0.1h2.9c0.3-0.3,0.7-0.9,1.2-1.7
			c0.1-0.1,0.1-0.2,0.2-0.3h-10.5V1.9h7.1V0.3h1.9v1.6h6.9v1.4h-5.2l1.6,0.4c-0.1,0.2-0.3,0.4-0.5,0.8c-0.3,0.4-0.5,0.7-0.6,0.9h3.9
			v8.4c0,1.4-0.7,2.1-2.1,2.1c-0.5,0-1.2,0.1-2.3,0.1c0-0.1-0.1-0.3-0.1-0.5c-0.1-0.4-0.2-0.8-0.3-1.1c0.3,0,0.6,0,1.1,0.1h0.9
			c0.8,0,1.1-0.3,1.1-0.9V6.8h-3.6v0.7c0,0.4,0.1,0.6,0.6,0.5h0.6c0.4,0,0.6-0.2,0.6-0.9c0.4,0.2,0.8,0.3,1.1,0.4
			c-0.1,1.1-0.7,1.6-1.7,1.5h-1.1c-0.9,0.1-1.4-0.4-1.3-1.4V6.8h-1.4C146.9,8.3,145.9,9.3,143.9,9.8L143.9,9.8z M144.6,14.1V9.8h6.4
			v4.4H144.6z M149.6,12.9v-1.8h-3.4v1.8H149.6z"/>
		<path class="st0" d="M159.1,16.2V0.9h14.7v15.3h-1.7v-0.7h-11.4v0.7H159.1L159.1,16.2z M171.3,10.4c-0.9-0.4-1.7-0.9-2.3-1.6
			c0,0.2,0,0.5-0.1,0.9v0.6c-0.1,0.8-0.6,1.2-1.5,1.3h-1.7v-0.1c0-0.2-0.1-0.5-0.3-0.7h1.5c0.4,0,0.6-0.1,0.6-0.5
			c0-0.1,0.1-0.2,0.1-0.4h-3.2v1.7c0,0.6,0.3,0.9,0.9,0.9h3c0.7,0,1-0.2,1.1-0.7c0.1-0.3,0.2-0.7,0.3-1.1c0.4,0.2,0.9,0.3,1.3,0.5
			c0,0.1-0.1,0.2-0.1,0.4c-0.1,0.4-0.2,0.7-0.3,0.9c-0.3,0.8-0.9,1.2-2.1,1.2h-3.7c-1.3,0-1.9-0.5-1.9-1.7V9.8
			c-0.1,0-0.2,0.1-0.4,0.2c-0.2,0.1-0.6,0.4-1.3,0.7c-0.1-0.4-0.3-0.7-0.6-1.1v4.7h11.4v-12h-11.4v7.2c1.3-0.5,2.3-1.1,3-1.9h-2.5
			V6.4h3.3c0,0,0-0.1,0.1-0.1c0.2-0.3,0.3-0.6,0.3-0.8h-3.2V4.4h1.5c-0.3-0.4-0.6-0.9-1-1.3l1.3-0.3c0.4,0.4,0.8,0.9,1.1,1.4
			l-0.4,0.2h1.2c0.1-0.6,0.2-1.2,0.3-1.8h1.3c-0.1,0.7-0.2,1.3-0.3,1.8h2l-0.5-0.2c0.3-0.3,0.6-0.8,1.1-1.5l1.3,0.3
			c-0.3,0.4-0.6,0.9-1,1.3h1.7v1.1h-2.7c0.1,0.3,0.3,0.7,0.5,0.9h2.7v1.1h-1.9c0.7,0.8,1.5,1.2,2.3,1.5c0,0.1-0.2,0.4-0.3,0.7
			C171.5,10,171.4,10.2,171.3,10.4L171.3,10.4z M165.5,7.6c-0.3,0.4-0.7,0.8-1.1,1.2h4.5c-0.4-0.4-0.7-0.8-0.9-1.2H165.5L165.5,7.6z
			 M166.4,5.5c-0.1,0.3-0.2,0.7-0.3,0.9h1.4c-0.1-0.3-0.3-0.6-0.4-0.9H166.4z"/>
		<path class="st0" d="M177.3,5V3.5h1.6V0.3h1.5v3.1h1.2V5h-1.2v1.7c0.5,0.5,1.1,1,1.6,1.5l-0.7,1.5c-0.3-0.4-0.6-0.8-0.9-1.2v7.8
			h-1.5V8.6c-0.4,1.4-0.9,2.6-1.5,3.7c0-0.4-0.2-0.9-0.3-1.7c0-0.2-0.1-0.4-0.1-0.5c0.7-1.2,1.3-2.9,1.9-5.1L177.3,5L177.3,5z
			 M190.9,16.1c-1,0-1.8-0.6-2.5-1.7c-0.8,0.5-1.7,1-2.8,1.5c-0.2-0.4-0.5-0.8-0.9-1.3c1.4-0.5,2.4-1,3-1.4
			c-0.4-0.9-0.6-1.8-0.7-2.7h-2.6c0,0.1,0,0.3-0.1,0.5v0.3c0.2,0.1,0.6,0.3,1,0.5c0.6,0.4,1.1,0.6,1.4,0.7L186,14
			c-0.2-0.1-0.6-0.4-1-0.7c-0.4-0.3-0.7-0.5-0.9-0.6c-0.3,1.1-1,2.3-2.3,3.5c-0.4-0.4-0.7-0.8-1.1-1.2c1.4-1,2.1-2.4,2.2-4.4h-1.2
			V9.4h5.1c0-0.3-0.1-0.5-0.1-0.8c-0.3-2-0.5-4.8-0.5-8.2h1.5c0,3.6,0.1,6.2,0.4,8c0,0.1,0,0.2,0.1,0.5v0.5h1.7
			c0-0.1-0.1-0.2-0.3-0.4c-0.2-0.3-0.4-0.6-0.5-0.7l1.3-0.3c0.1,0.2,0.3,0.5,0.6,0.9c0.2,0.3,0.3,0.5,0.4,0.6h1.4v1.3h-4.4
			c0,0.1,0.1,0.3,0.1,0.6c0.1,0.3,0.2,0.7,0.4,1.3c0.1-0.1,0.2-0.2,0.5-0.4c0.6-0.5,1-0.9,1.3-1.3l1.1,0.9c-0.8,0.8-1.6,1.5-2.3,2
			v0.1c0.4,0.5,0.8,0.8,1.3,0.7c0.3,0,0.5-0.2,0.7-0.5c0.2-0.7,0.4-1.2,0.4-1.5c0,0,0.1,0.1,0.2,0.1c0.5,0.3,0.8,0.5,1.1,0.6
			c-0.1,0.6-0.4,1.2-0.7,1.8C192.2,15.8,191.6,16.2,190.9,16.1L190.9,16.1z M182.1,8l-0.4-1.1h0.7c0.2-0.3,0.5-0.8,0.9-1.5
			c0.2-0.2,0.3-0.4,0.3-0.5c-0.2-0.2-0.6-0.6-1.1-1.1c-0.5-0.5-0.8-0.8-1-1.1l0.7-0.7l0.3,0.3c0.4-0.6,0.8-1.3,1.1-2l1.3,0.5
			c-0.5,0.8-1,1.5-1.6,2.3c0.4,0.3,0.6,0.5,0.8,0.9c0.4-0.7,0.8-1.2,1.1-1.7l1,0.6c-0.3,0.4-0.8,1.2-1.5,2.3
			c-0.5,0.8-0.9,1.3-1.1,1.7l1.4-0.1c-0.1-0.3-0.3-0.7-0.5-1l0.9-0.4c0.2,0.3,0.4,0.9,0.8,1.5c0.2,0.4,0.3,0.8,0.4,0.9l-0.9,0.5
			l-0.3-0.6c-0.4,0-1,0.1-1.8,0.2C182.9,7.9,182.4,8,182.1,8L182.1,8z M188.6,7.8l-0.3-1.1h0.3c0.2,0,0.3-0.1,0.4-0.1
			c0.2-0.3,0.5-0.8,0.9-1.3c0.1-0.2,0.2-0.4,0.3-0.5c-0.9-1-1.6-1.7-2.1-2.3l0.7-0.7l0.4,0.5c0.3-0.4,0.6-0.9,1-1.7l0.2-0.4l1.1,0.4
			c-0.1,0.2-0.2,0.4-0.5,0.7c-0.4,0.7-0.8,1.3-1.1,1.7l0.9,0.9l1.1-1.8l1,0.5c-0.9,1.5-1.8,2.9-2.6,3.9l1.3-0.1L191,5.6l0.9-0.4
			c0.2,0.3,0.4,0.9,0.7,1.8c0.1,0.3,0.2,0.6,0.3,0.7l-0.9,0.4l-0.2-0.6C190.2,7.6,189.1,7.7,188.6,7.8L188.6,7.8z"/>
		<path class="st0" d="M195.8,5.6l-0.4-1.5h1c1.1-1.7,2-3,2.6-4.1l1.7,0.7c-0.7,1-1.5,2.1-2.5,3.3c1.1-0.1,2.3-0.2,3.3-0.2l-1.1-1.3
			l1.2-0.7c1.1,1.3,2.1,2.4,2.9,3.5l-1.3,0.9c-0.1-0.1-0.2-0.3-0.3-0.5c-0.2-0.2-0.3-0.4-0.4-0.5c-0.9,0-2.2,0.1-3.9,0.3
			C197.3,5.5,196.4,5.5,195.8,5.6L195.8,5.6z M196.5,16.1V6.6h6.8v7.6c0,1.1-0.5,1.7-1.7,1.7h-0.8c-0.5,0-0.8,0.1-1.1,0.1
			c0-0.3-0.1-0.6-0.2-1c0-0.2-0.1-0.4-0.1-0.5h1.5c0.5,0,0.8-0.2,0.8-0.5v-1H198v3H196.5L196.5,16.1z M198,8v1.3h3.8V8H198z
			 M198,10.5v1.3h3.8v-1.3H198z M206.9,7.7c-1.5,0-2.2-0.7-2.1-2.1V0.4h1.7v2.5c1.2-0.4,2.5-1.1,4-1.9l0.9,1.3
			c-1.6,0.8-3.2,1.5-4.9,2.2v0.9c0,0.7,0.3,1,1,0.9h1.3c0.7,0,1-0.3,1.1-0.8C210,5,210,4.9,210,5c0-0.5,0.1-0.9,0.1-1.3
			c0.3,0,0.6,0.1,1,0.3c0.2,0.1,0.4,0.2,0.5,0.2c0,0.5-0.1,1.1-0.3,1.7c0,0,0,0-0.1,0.2c-0.2,1-0.9,1.5-2.2,1.5L206.9,7.7L206.9,7.7
			z M206.9,15.9c-1.4,0-2.1-0.6-2.1-2.1V8.5h1.7v2.1c1.3-0.4,2.7-1.1,4.1-1.9l0.9,1.4c-1.9,0.9-3.6,1.7-5.1,2.2v1.2
			c0,0.6,0.3,0.9,1,0.9h1.4c0.7,0,1-0.2,1.1-0.7c0.1-0.5,0.1-1.1,0.2-1.8c0.2,0,0.4,0.1,0.7,0.3c0.4,0.1,0.6,0.2,0.8,0.3
			c0,0.5-0.1,1.1-0.2,1.7l-0.1,0.1c-0.3,1.1-1,1.6-2.2,1.6L206.9,15.9L206.9,15.9z"/>
		<path class="st0" d="M223.8,5.2v2.2c0,1.7-0.7,3-2.2,3.8l-0.6-0.7c1.1-0.7,1.7-1.6,1.7-2.7h-1.3V5.2L223.8,5.2L223.8,5.2z"/>
		<path class="st0" d="M248.4,6.2c-0.7-0.2-1.3-0.4-1.9-0.7v5.6l1,1c-0.8,0.5-1.7,0.9-2.6,1.3c1.1,0.4,2.2,0.8,3.3,1.1l-0.8,1.5
			c-2.5-1.1-5.3-2.2-8.6-3.3l0.7-1.1c1.2,0.4,2.4,0.8,3.5,1.2c0.9-0.4,1.8-0.9,2.5-1.3H237v2.7l3.5-0.7l0.1,1.3
			c-1.6,0.3-3.6,0.7-6,1.3l-0.5-1.4l1.1-0.3V5.8c-0.2,0.1-0.6,0.3-1,0.5c-0.3,0.1-0.5,0.2-0.7,0.3c-0.1-0.3-0.4-0.7-0.8-1.3
			c0,0-0.1-0.1-0.1-0.1c3.8-1.4,6.4-3,7.7-4.8l2.1,0.1l-0.5,0.6c1.6,1.7,4,2.9,7,3.8C248.8,5.2,248.6,5.8,248.4,6.2L248.4,6.2z
			 M239,3.8c-0.8,0.5-1.8,1.1-2.8,1.6h9.8c-1.1-0.5-2.1-1.1-2.9-1.7v0.8H239L239,3.8L239,3.8z M237,6.6v1.2h7.8V6.6H237z M237,9v1.3
			h7.8V9H237z M241.1,2c-0.5,0.5-1.1,1-1.7,1.4h3.2C242.1,3,241.6,2.5,241.1,2z"/>
		<path class="st0" d="M252.3,4.7V2.9h6.8V0.4h1.7v2.5h6.7v1.7h-6.9c0.4,1.6,0.9,2.9,1.5,4.1c1.8-1.1,3.1-2,3.9-2.6l1.1,1.5
			c-1.3,0.9-2.7,1.7-4,2.5c1,1.3,2.6,2.5,4.8,3.7c-0.5,0.5-1,1-1.3,1.5c-3.8-2.1-6.1-5-7.2-8.8c-0.6,0.8-1.2,1.6-2,2.4l0.3-0.1v5
			l3.2-1.4c0.1,0.7,0.1,1.3,0.2,1.8c-1.3,0.4-3.2,1.1-5.6,2.2l-0.7-1.6l1.1-0.5v-4.1c-1,0.8-2.2,1.7-3.5,2.5c0-0.1-0.1-0.4-0.3-0.7
			c-0.2-0.5-0.4-0.9-0.5-1.1c3-1.7,5.3-3.8,7-6.2L252.3,4.7L252.3,4.7z"/>
		<path class="st0" d="M270.7,10.1c-0.2-0.8-0.4-1.6-0.6-2.3c1.7-2.4,2.9-4.9,3.7-7.5l1.9,0.4c-0.5,1.2-1,2.4-1.5,3.6v11.9h-1.7V7.6
			C271.9,8.4,271.3,9.2,270.7,10.1L270.7,10.1z M275.6,4.9V3.3h4.6c0-0.1-0.1-0.4-0.3-0.8c-0.3-0.8-0.5-1.5-0.6-1.9l1.9-0.3
			c0,0.2,0.1,0.4,0.3,0.8c0.3,0.8,0.5,1.4,0.6,1.8l-1.7,0.3h5.5v1.7h-4.2v3.4h3.8v1.7h-3.8v3.8h4.6v1.5h-11.1v-1.5h4.6V9.9h-3.8V8.3
			h3.8V4.9L275.6,4.9L275.6,4.9z"/>
		<path class="st0" d="M289.4,11.6c-0.1-0.3-0.2-0.8-0.5-1.3c0-0.2-0.1-0.3-0.1-0.4c1.5-1.3,3-3,4.4-5.1l1.5,1
			c-0.3,0.5-0.8,1.2-1.5,2.1c0,0-0.1,0.1-0.1,0.1v8.2h-1.8V9.9C290.7,10.5,290.1,11,289.4,11.6L289.4,11.6z M289.9,6
			c-0.3-0.8-0.6-1.4-0.8-1.7c1.6-1.2,2.9-2.6,4-4.1l1.5,1.1C293,3.2,291.4,4.8,289.9,6L289.9,6z M295,8V6.3h9.9V8h-2.7v5.4
			c0,1.6-0.8,2.5-2.5,2.5H297c-0.1-0.5-0.3-1.1-0.4-1.7c0.5,0,1.3,0.1,2.4,0.1c0.9,0,1.4-0.4,1.3-1.2V8H295L295,8z M295.8,3V1.4h8.4
			V3C304.2,3,295.8,3,295.8,3z"/>
		<path class="st0" d="M307.4,9V7h16.1v2H307.4z"/>
		<path class="st0" d="M327.6,16.1V7.6c-0.4,0.8-0.8,1.5-1.2,2.2c-0.1-0.8-0.3-1.6-0.5-2.3c1.1-2,2-4.4,2.7-7.2l1.7,0.3
			c-0.3,1.1-0.7,2.2-1.1,3.4v12.1H327.6L327.6,16.1z M330.4,12.8V2.7h1.5v10.2H330.4z M332.6,11V9.4h3.7V8h1.6v1.4h4V11h-3.2
			c1,1.1,2.3,2.2,3.8,3.2c-0.4,0.3-0.7,0.6-0.9,1.1c-1.6-1-2.8-2.2-3.6-3.4v4.3h-1.6v-4.1c-1,1.2-2.4,2.3-4.2,3.3
			c-0.3-0.5-0.6-0.9-1-1.1c1.8-0.9,3.3-2,4.5-3.3L332.6,11L332.6,11z M333.2,5.5c-0.3-0.4-0.6-0.8-1-1.3c1.3-1.1,2.4-2.4,3-4
			l1.7,0.2c-0.2,0.4-0.4,0.8-0.7,1.2h5.6v1.4h-0.9c-0.7,1.1-1.5,2-2.4,2.7c0.9,0.5,2.1,0.9,3.8,1.1l-0.7,1.5c-2-0.5-3.5-1-4.5-1.6
			c-1.1,0.7-2.7,1.3-4.5,1.8c0-0.1-0.1-0.3-0.2-0.5c-0.2-0.4-0.4-0.7-0.5-0.9c1.5-0.3,2.8-0.8,3.9-1.3c-0.5-0.5-1-1-1.5-1.5
			C334,4.7,333.6,5.1,333.2,5.5L333.2,5.5z M337.1,4.9c0.8-0.5,1.4-1.2,1.9-1.9h-3.7v0.1C335.9,3.8,336.5,4.4,337.1,4.9z"/>
		<path class="st0" d="M346.5,16.1V9.8c-0.1,0.2-0.4,0.4-0.7,0.7c-0.3,0.3-0.5,0.5-0.6,0.7c0-0.1-0.1-0.3-0.2-0.6
			c-0.1-0.3-0.2-0.7-0.3-1.2c1.2-1.2,2.4-2.8,3.6-4.8l1.3,1c-0.1,0.2-0.3,0.4-0.5,0.8c-0.2,0.3-0.5,0.7-0.9,1.4v8.4L346.5,16.1
			L346.5,16.1z M345.6,5.8c-0.2-0.6-0.5-1.2-0.7-1.7c1.3-1.1,2.4-2.4,3.3-3.9l1.5,0.9C348.4,3,347.1,4.5,345.6,5.8z M349.5,11V9.5
			h2.2V8h1.5v1.5h2.2V11h-2.2v2.1c0.4,0,1.1-0.1,2.1-0.3c0.2,0,0.4-0.1,0.5-0.1v1.5c-0.5,0-1.2,0.1-2.2,0.3
			c-1.9,0.2-3.3,0.4-4.4,0.5l-0.2-1.7c0.9-0.1,1.8-0.1,2.7-0.2V11L349.5,11L349.5,11z M349.8,3.9V2.3h1.9v-2h1.5v2h1.9v1.5h-1.9v2
			h2.3v1.5h-6.1V5.8h2.3v-2L349.8,3.9L349.8,3.9z M356,7.4V5.9h4.9v1.5h-1.5v6.7c0,1.1-0.5,1.8-1.8,1.8c-0.3,0-0.9,0.1-1.8,0.1
			c0-0.1,0-0.2-0.1-0.5c-0.1-0.5-0.2-0.9-0.2-1.1c0.4,0,0.9,0.1,1.5,0.1s0.8-0.2,0.8-0.7V7.4L356,7.4L356,7.4z M356.2,2.9V1.3h4.2
			v1.5L356.2,2.9L356.2,2.9z"/>
		<path class="st0" d="M363.5,15.3v-1.7h6.1V0.5h2.1v4.8h6.4V7h-6.4v6.6h7.6v1.7H363.5L363.5,15.3z"/>
		<path class="st0" d="M382.3,5.1V3.5h1.5V0.4h1.7v3h1.3v1.7h-1.3v3l1.3-0.3c0,0.6,0,1.2,0.1,1.7l-1.3,0.3v4.4
			c0,1.1-0.5,1.8-1.7,1.9h-1.4v-0.1c0-0.4-0.1-0.9-0.3-1.5h1c0.5,0,0.8-0.1,0.7-0.6v-3.5c-0.5,0.1-1.1,0.3-1.7,0.5L382,8.8l1.9-0.4
			V5.1C383.8,5.1,382.3,5.1,382.3,5.1z M387.1,3.2V1.9h4.5V0.3h1.7v1.5h4.6v1.4H387.1L387.1,3.2z M387.2,16.1V8.5h10.3v5.8
			c0.1,1.1-0.5,1.7-1.7,1.7c-0.6,0-1.1,0.1-1.7,0.1c0-0.4-0.1-0.9-0.3-1.4h1.4c0.5,0,0.8-0.2,0.7-0.5V9.8h-7.1v6.3L387.2,16.1
			L387.2,16.1z M388.3,7.6V4.2h8.2v3.4H388.3z M389.9,5.3v1.1h5V5.3H389.9z M390,14.3v-3.4h4.7v3.4H390z M391.2,11.9v1.4h2.1v-1.4
			H391.2z"/>
		<path class="st0" d="M401.3,7.5V5.9h14.7v1.6h-6.2v2.3h5.5v1.6h-5.5v2.8c2.8,0,5.1,0,6.8-0.1c-0.2,0.5-0.4,1-0.5,1.7
			c-2.4,0-4.8,0-7.2-0.1c-2.3,0-3.9-0.9-4.9-2.5c-0.5,0.9-1.3,1.9-2.3,3c-0.1-0.1-0.3-0.4-0.6-0.7c-0.3-0.3-0.5-0.5-0.6-0.7
			c1.7-1.5,2.7-3.6,2.9-6.3l1.7,0.2c-0.1,0.9-0.3,1.8-0.5,2.5c0.8,1.6,2,2.5,3.4,2.8V7.5H401.3L401.3,7.5z M414.3,5.2V3.7h-11.2v1.5
			h-1.7V2.1h6.5V0.3h1.9v1.8h6.3v3.1L414.3,5.2L414.3,5.2z"/>
		<path class="st0" d="M428.5,1.6l-0.4,9.7h-1.7l-0.3-9.7L428.5,1.6L428.5,1.6z M428.3,15.1h-2.1v-2.1h2.1
			C428.3,13.1,428.3,15.1,428.3,15.1z"/>
		<path class="st0" d="M1.9,41.9v-8.4c-0.1,0.1-0.2,0.2-0.3,0.5c-0.4,0.8-0.8,1.4-1.1,1.7C0.3,35,0.1,34.2,0,33.4
			c1.3-2,2.3-4.5,3.1-7.4l1.7,0.5C4.5,27.8,4,29,3.5,30.2v11.7L1.9,41.9L1.9,41.9z M4.8,30.6v-1.4h11.3v1.4H4.8z M5.5,33v-1.3h9.7
			V33H5.5z M5.5,35.3v-1.3h9.7v1.3H5.5z M5.6,41.9v-5.6h9.6v5.6h-1.7v-0.9H7.2v0.9C7.2,41.9,5.6,41.9,5.6,41.9z M6.3,28.2v-1.3h8.2
			v1.3C14.5,28.2,6.3,28.2,6.3,28.2z M7.2,37.7v2.1h6.2v-2.1C13.5,37.7,7.2,37.7,7.2,37.7z"/>
		<path class="st0" d="M19.1,28.9v-1.2h4.2L22,26.3l1.7-0.3c0.6,0.4,1.1,1,1.7,1.6l-0.1,0.1h2.9l-0.2-0.1c0.7-0.6,1.3-1.1,1.8-1.6
			l1.7,0.3c-0.4,0.4-0.9,0.9-1.3,1.3h4.3v1.2h-6.8v0.9h5.9v1.1h-5.9v0.9h7.2V33H18.8v-1.3h7.1v-0.9H20v-1.1h5.8v-0.9L19.1,28.9
			L19.1,28.9z M32.4,41.8c-1,0-1.9-0.3-2.5-1.1c-0.1-0.2-0.3-0.3-0.4-0.5c-1.1,0.5-2.3,1-3.6,1.5c0-0.2-0.2-0.5-0.5-1
			c-0.1-0.1-0.2-0.2-0.2-0.3c0.1,0,0.2-0.1,0.4-0.1c1.5-0.3,2.5-0.7,3.2-1.1c-0.3-0.7-0.6-1.4-0.8-2.3h-3.9v1l2.7-0.2v1.2l-2.7,0.3
			V40c0,1.1-0.6,1.6-1.8,1.7h-2.1c0-0.2-0.1-0.5-0.3-0.9c0-0.1-0.1-0.2-0.1-0.3c0.4,0,0.9,0.1,1.5,0.1c0.7,0,1.1-0.3,1.1-0.8v-0.5
			L19,39.6l-0.3-1.3l3.6-0.2v-1.1h-3.6v-1.3h3.6v-0.9l-2.7,0.1c0-0.1,0-0.3-0.1-0.5c0-0.2-0.1-0.4-0.1-0.5c2.5,0,4.7-0.1,6.6-0.3
			l0.2,1h-0.2c-0.7,0.1-1.4,0.1-2.1,0.1v0.9h3.6c-0.1-0.7-0.1-1.4-0.1-2.3h1.6c0,0.8,0.1,1.5,0.2,2.3h2.8c0,0-0.1-0.1-0.2-0.2
			c-0.4-0.3-0.9-0.8-1.6-1.3l1-0.9c0.2,0.1,0.4,0.3,0.8,0.6c0.5,0.4,0.8,0.7,1.1,0.9l-1.1,0.9h2.5v1.3h-5c0.1,0.6,0.3,1.1,0.5,1.5
			c0.8-0.4,1.5-0.9,2.1-1.5l1,0.9c-0.8,0.7-1.6,1.3-2.4,1.8c0.1,0,0.2,0.1,0.3,0.2c0.1,0.1,0.2,0.2,0.3,0.2c0.3,0.2,0.6,0.3,0.9,0.3
			c0.4,0,0.6-0.2,0.7-0.5c0.1-0.3,0.2-0.8,0.4-1.6c0.2,0.1,0.4,0.2,0.7,0.3c0.3,0.1,0.5,0.2,0.6,0.3c-0.1,0.5-0.3,1.1-0.5,1.6
			C34,41.4,33.4,41.8,32.4,41.8L32.4,41.8z"/>
		<path class="st0" d="M41.4,35.5c-0.1-0.2-0.4-0.6-0.8-1.1c1.7-0.3,2.6-0.9,2.6-1.9h-3.1v9.4h-1.7V31.1h3.8
			c-0.1-0.2-0.3-0.4-0.5-0.8c-0.3-0.4-0.5-0.7-0.6-0.8l1.7-0.4c0.4,0.5,0.9,1.1,1.4,1.9l-0.5,0.1h2.9c0.3-0.4,0.7-0.9,1.2-1.7
			c0.1-0.1,0.2-0.2,0.2-0.3H37.4v-1.4h7.1v-1.6h1.9v1.6h6.9V29H48l1.6,0.4c-0.1,0.2-0.3,0.4-0.5,0.8c-0.3,0.4-0.5,0.7-0.6,0.9h3.8
			v8.4c0,1.4-0.7,2.1-2.1,2.1c-0.5,0-1.2,0.1-2.3,0.1c0-0.1-0.1-0.3-0.1-0.5c-0.1-0.4-0.2-0.8-0.3-1.1c0.3,0,0.6,0,1.1,0.1h0.9
			c0.8,0,1.2-0.3,1.1-0.9v-6.7H47v0.7c0,0.4,0.2,0.6,0.6,0.5h0.6c0.3,0,0.5-0.2,0.6-0.9c0.4,0.2,0.8,0.3,1.1,0.4
			c-0.1,1.1-0.7,1.6-1.7,1.5h-1.1c-0.9,0.1-1.4-0.4-1.3-1.4v-0.9h-1.4C44.4,34,43.4,35,41.4,35.5L41.4,35.5z M42.1,39.9v-4.4h6.4
			v4.4H42.1z M47.1,38.6v-1.8h-3.5v1.8H47.1z"/>
		<path class="st0" d="M56.6,41.9V26.7h14.7v15.3h-1.7v-0.7H58.3v0.7C58.3,41.9,56.6,41.9,56.6,41.9z M68.8,36.2
			c-0.9-0.4-1.7-0.9-2.3-1.6c0,0.2,0,0.5-0.1,0.9V36c-0.1,0.8-0.6,1.2-1.5,1.3h-1.7v-0.1c0-0.2-0.1-0.5-0.3-0.7h1.5
			c0.4,0,0.6-0.2,0.6-0.5c0-0.1,0.1-0.2,0.1-0.4h-3.2v1.7c0,0.6,0.3,0.9,0.9,0.9h3c0.7,0,1-0.2,1.1-0.7c0.1-0.3,0.2-0.7,0.3-1.1
			c0.4,0.2,0.9,0.3,1.3,0.5c0,0.1-0.1,0.2-0.1,0.4c-0.1,0.4-0.2,0.7-0.3,0.9c-0.3,0.8-0.9,1.2-2.1,1.2h-3.7c-1.3,0-1.9-0.5-1.9-1.7
			v-1.9c-0.1,0-0.2,0.1-0.4,0.2c-0.2,0.1-0.6,0.4-1.3,0.7c-0.1-0.3-0.3-0.7-0.6-1.1V40h11.4V28H58.3v7.2c1.3-0.5,2.3-1.1,3-1.9h-2.5
			v-1.1h3.3c0,0,0-0.1,0.1-0.1c0.2-0.4,0.3-0.6,0.3-0.8h-3.2v-1.1h1.5c-0.3-0.4-0.6-0.9-1-1.3l1.3-0.3c0.4,0.4,0.8,0.9,1.1,1.4
			l-0.4,0.2h1.2c0.1-0.6,0.2-1.2,0.3-1.8h1.3c-0.1,0.7-0.2,1.3-0.3,1.8h2L65.7,30c0.3-0.3,0.6-0.8,1.1-1.5l1.3,0.3
			c-0.3,0.4-0.6,0.9-1,1.3h1.7v1.1h-2.7c0.1,0.4,0.3,0.7,0.5,0.9h2.7v1.1h-1.9c0.7,0.8,1.5,1.2,2.3,1.5c0,0.1-0.2,0.3-0.3,0.7
			C69,35.7,68.9,36,68.8,36.2L68.8,36.2z M63,33.3c-0.3,0.4-0.7,0.8-1.1,1.2h4.5c-0.4-0.4-0.7-0.8-0.9-1.2H63L63,33.3z M63.9,31.2
			c-0.1,0.4-0.2,0.7-0.3,0.9H65c-0.1-0.3-0.3-0.6-0.4-0.9C64.6,31.2,63.9,31.2,63.9,31.2z"/>
		<path class="st0" d="M74.5,34.7v-2h16.1v2H74.5z"/>
		<path class="st0" d="M93.5,40.8l-0.3-1.7c1.1-0.1,2.2-0.3,3.4-0.4c0.2-0.8,0.4-1.8,0.7-3c0.4-1.8,0.7-3.1,0.9-3.9l1.7,0.3
			c-0.7,2.5-1.3,4.7-1.8,6.4l2-0.3c0,0.6,0,1.2,0,1.7C98.4,39.9,96.2,40.3,93.5,40.8L93.5,40.8z M93.4,30.8v-1.6h2.5v-3.1h1.7v3.1
			h2.6v1.6H93.4z M94.9,37.5c0-0.3-0.1-0.7-0.3-1.2c-0.3-1.9-0.6-3.3-0.9-4.3l1.5-0.3c0,0.2,0.1,0.5,0.2,0.9c0.4,1.9,0.8,3.4,1,4.5
			L94.9,37.5L94.9,37.5z M100.6,41.9v-8.1h2.9v-7.8h1.7v3h4.1v1.6h-4.1v3.2h3.4v8.1h-1.7v-1.1h-4.7v1.1
			C102.3,41.9,100.6,41.9,100.6,41.9z M102.3,35.4v4h4.7v-4H102.3z"/>
		<path class="st0" d="M113.2,40.1c-0.3-0.1-0.7-0.2-1.4-0.5c0.3-0.5,0.7-1.5,1.3-3c0-0.2,0.1-0.3,0.1-0.3l1.5,0.4
			C114,38.4,113.5,39.5,113.2,40.1L113.2,40.1z M112.1,29.4v-1.5h3.3v-1.8h1.6v1.8h3.2v1.5L112.1,29.4L112.1,29.4z M112.8,35.5v-4.9
			h6.7v4.9H117v4.2c0,1.3-0.6,1.9-1.8,1.9c-0.3,0-0.8,0.1-1.5,0.1c-0.1-0.5-0.2-1-0.3-1.5c0.1,0,0.3,0,0.7,0.1h0.6
			c0.5,0,0.8-0.2,0.8-0.7v-4L112.8,35.5L112.8,35.5z M114.4,32v2.1h3.5V32H114.4z M118.6,39c-0.2-0.4-0.6-1.2-1.1-2.4l1.3-0.5
			c0.4,0.8,0.8,1.5,1.1,2.3L118.6,39z M120.1,31.9v-1.5h1.6v-2c0-1,0.1-1.8,0.1-2.3h1.7c0,0.9,0,2.4-0.1,4.3h4.3v1.5h-4.4
			c-0.1,4.2-1.2,7.5-3.4,10.1c-0.2-0.2-0.7-0.5-1.4-1.1c2.1-2.3,3.2-5.3,3.2-9L120.1,31.9L120.1,31.9z M125.1,41.5
			c-1.2,0-1.7-0.6-1.7-1.7v-7h1.6v6.5c0,0.4,0.2,0.7,0.6,0.7h0.3c0.4,0,0.6-0.3,0.7-0.8c0.1-0.9,0.1-1.7,0.1-2.5
			c0.7,0.2,1.1,0.3,1.3,0.4c0,1.1-0.1,2-0.3,2.8c-0.2,1.2-0.8,1.7-1.9,1.7L125.1,41.5L125.1,41.5z M126,29.7c-0.6-0.7-1.2-1.3-2-2
			l1.1-0.9c0.8,0.6,1.4,1.3,2.1,1.9L126,29.7L126,29.7z"/>
		<path class="st0" d="M130.9,36.9v-1.6h3.4v-1.7h1.7v1.7h3.3v1.6H136v2.4l3.7-0.3c0,0.5-0.1,1-0.1,1.5c-3.7,0.3-6.6,0.6-8.9,0.9
			l-0.3-1.7c0.4,0,0.9,0,1.7-0.1c0.9,0,1.6-0.1,2.1-0.1v-2.6L130.9,36.9L130.9,36.9z M130.7,28.5v-1.6h9v1.6h-4.3
			c-0.8,1.3-1.5,2.4-2,3.2l3.6-0.3l-0.9-1.4l1.3-0.7c0.3,0.5,0.8,1.3,1.5,2.3c0.5,0.7,0.8,1.2,1,1.5l-1.4,0.9l-0.6-1.1
			c-0.2,0-0.6,0.1-1.1,0.1c-2.8,0.2-4.7,0.4-5.7,0.5l-0.3-1.8h0.8c0.4-0.5,0.9-1.5,1.8-2.9c0.1-0.1,0.1-0.2,0.2-0.3L130.7,28.5
			L130.7,28.5z M140.5,37.9v-10h1.7v10H140.5z M141.2,41.7c-0.1-0.7-0.2-1.2-0.3-1.7h2.2c0.7,0,1-0.3,1-1.1V26.1h1.8v13.4
			c0.1,1.4-0.6,2.2-2.1,2.2h-1.2C141.9,41.7,141.5,41.7,141.2,41.7z"/>
		<path class="st0" d="M158.6,30.9v2.2c0,1.7-0.7,3-2.2,3.8l-0.6-0.7c1.1-0.7,1.7-1.6,1.7-2.7h-1.3v-2.5L158.6,30.9L158.6,30.9z"/>
		<path class="st0" d="M167.9,29v-1.4h2.6v-1.5h1.6v1.5h2.5V29h-2.5v1.3h2.3v6.6h-2.3v1.3h2.7v1.5h-2.7v2.3h-1.6v-2.3h-2.7v-1.5h2.7
			v-1.3h-2.3v-6.6h2.3V29C170.5,29,167.9,29,167.9,29z M169.3,31.6V33h1.4v-1.4H169.3z M169.3,34.1v1.5h1.4v-1.5H169.3z M173.3,31.6
			h-1.5V33h1.5V31.6z M171.9,34.1v1.5h1.5v-1.5H171.9z M175.3,37.1v-1.6h8v1.6h-3.2v2.7h3.7v1.5h-9.3v-1.5h3.9v-2.7H175.3
			L175.3,37.1z M176.7,35.1c-0.3-0.5-0.8-1.4-1.7-2.7c-0.1-0.2-0.2-0.3-0.3-0.4c0.7-0.9,1.3-1.9,1.9-3l1.3,0.5
			c-0.7,1.1-1.2,2-1.7,2.5c0.3,0.3,0.7,1,1.3,1.9c0.2,0.3,0.3,0.5,0.4,0.6L176.7,35.1L176.7,35.1z M175.2,28.5v-1.6h8.4v1.6H175.2z
			 M179.5,35.1c-0.4-0.8-1.1-1.8-1.9-3c0.9-1.4,1.5-2.4,1.9-3l1.3,0.5c-0.7,1.1-1.2,2-1.7,2.5l0.1,0.1c0.8,1,1.3,1.8,1.7,2.4
			L179.5,35.1L179.5,35.1z M182.4,35.1c-0.8-1.3-1.6-2.3-2.1-3c0.6-0.8,1.3-1.8,2-3l1.3,0.5c-0.3,0.5-0.8,1.1-1.3,2
			c-0.2,0.2-0.3,0.4-0.4,0.5c0.6,0.8,1.2,1.5,1.9,2.4L182.4,35.1L182.4,35.1z"/>
		<path class="st0" d="M186.8,36.7v-1.3h2.4v-1.1h1.6v1.1h2.1v1.3h-2.1v1.4l0.5-0.5c0.1,0.1,0.3,0.2,0.6,0.5c0.4,0.2,0.8,0.5,1.4,1
			l-1,1c-0.1-0.1-0.2-0.2-0.5-0.4c-0.5-0.3-0.8-0.6-1.1-0.9v3.1h-1.6v-3.3c-0.6,1-1.3,1.8-2.1,2.3c-0.1-0.3-0.3-0.7-0.7-1.4
			c1.1-0.7,1.9-1.6,2.6-2.8L186.8,36.7L186.8,36.7z M186.6,32v-0.9h1.1v-4.5h6.8v0.9h-5.2v0.7h5V29h-5v0.7h5v0.7h-5v0.7h5.5V32h-1.5
			c0.8,0.8,1.3,1.3,1.6,1.7l-1.1,0.7c0,0-0.1-0.1-0.2-0.2c-0.1-0.2-0.3-0.3-0.4-0.4c-0.9,0-2.3,0.1-4.2,0.2c-1,0-1.7,0.1-2.1,0.1
			l-0.1-1.1h1c0.3-0.3,0.5-0.6,0.7-0.9L186.6,32L186.6,32z M190.2,32l-0.7,0.9c0.3,0,0.8,0,1.5-0.1c0.7,0,1.1,0,1.5-0.1l-0.7-0.6
			L192,32L190.2,32L190.2,32z M193.8,38.9c0,0-0.1-0.1-0.3-0.3c-0.3-0.3-0.6-0.6-0.7-0.7c1-0.7,1.8-1.6,2.5-2.7l1.2,0.5
			C195.7,37,194.8,38.1,193.8,38.9L193.8,38.9z M193.6,41.6l-0.2-1.2l1.2-0.1c0.6-0.8,1.4-2,2.3-3.6l1.5,0.5
			c-0.2,0.2-0.5,0.7-0.9,1.3c-0.6,0.9-1.1,1.5-1.3,1.7c1.1,0,2.1,0,3.1-0.1l-1-1.2l1.2-0.5c1.1,1.2,1.9,2.2,2.5,3l-1.3,0.7l-0.6-0.8
			C196.9,41.4,194.8,41.5,193.6,41.6L193.6,41.6z M195.6,29c-0.1-0.4-0.3-0.9-0.5-1.3c2-0.4,3.9-0.9,5.6-1.5l0.6,1.2
			C199.1,28.2,197.2,28.7,195.6,29L195.6,29z M195.8,34c-0.2-0.6-0.4-1-0.5-1.3c2.2-0.3,4.3-0.9,6.3-1.7l0.5,1.2
			C199.9,33,197.8,33.6,195.8,34z M195.9,31.4c0-0.1-0.1-0.2-0.2-0.5c-0.1-0.4-0.2-0.6-0.3-0.7c1.8-0.4,3.7-0.9,5.6-1.6l0.5,1.1
			C199.8,30.4,197.9,31,195.9,31.4L195.9,31.4z M195.9,35.5v-1.1h3.7v0.1c0.7,1.3,1.8,2.3,3.1,3.1c-0.1,0.2-0.3,0.4-0.6,0.7
			c-0.1,0.2-0.2,0.4-0.3,0.5c-1.3-0.8-2.4-1.9-3.1-3.2C198.7,35.5,195.9,35.5,195.9,35.5z"/>
		<path class="st0" d="M205,38.9v-1.4h7.4v-0.4l3.4-1.1h-9.5v-1.3h12.7V36l-4.3,1.5h6.2v1.4h-6.8v0.9c0,1.3-0.7,2-2,2h-2.9
			c-0.1-0.4-0.2-0.9-0.3-1.5h2.3c0.8,0,1.1-0.2,1.1-0.7v-0.7H205L205,38.9z M205.2,29v-1.5h7.1v-1.5h1.7v1.5h7V29L205.2,29L205.2,29
			z M207.1,33.7V30h11.7v3.7H207.1z M208.9,31.3v1.1h8.2v-1.1C217.1,31.3,208.9,31.3,208.9,31.3z"/>
		<path class="st0" d="M224.1,34.4v-3.2h2.7c-0.4-0.7-0.8-1.4-1.2-2.1l1.7-0.3c0.4,0.7,0.9,1.4,1.3,2.1l-0.9,0.3h3.6
			c-0.2-0.5-0.6-1.3-1.1-2.3l1.8-0.3c0.4,0.7,0.7,1.4,0.9,2.3l-1.6,0.3h3c0.6-1,1.1-1.9,1.5-2.7l1.8,0.5c-0.4,0.7-0.9,1.5-1.5,2.3
			h3.1v3.2h-1.8v-1.7h-11.6v1.6H237v1.5c-0.8,1.3-2,2.4-3.4,3.3c1.5,0.5,3.5,0.9,6,1c-0.2,0.3-0.4,0.9-0.8,1.7c-3-0.3-5.4-1-7.2-1.8
			c-1.6,0.8-4,1.5-7.2,2c-0.2-0.5-0.4-1.1-0.8-1.7c2.6-0.3,4.7-0.7,6.2-1.2c-1.1-0.7-2.1-1.8-3.1-3.4h-0.9v-1.3L224.1,34.4
			L224.1,34.4z M224.8,28.4c0-0.1-0.1-0.3-0.1-0.6c-0.1-0.4-0.2-0.7-0.3-0.9c4.3,0,8.9-0.1,13.8-0.4l0.3,1.5
			C233.9,28.3,229.3,28.4,224.8,28.4L224.8,28.4z M234.9,35.7h-6.1c0.8,1.1,1.7,1.9,2.9,2.6C232.9,37.7,234,36.9,234.9,35.7z"/>
		<path class="st0" d="M242.9,41V27.2h4.9v13.5h-1.5v-1h-1.9V41L242.9,41L242.9,41z M244.5,28.8v3.9h1.9v-3.9
			C246.3,28.8,244.5,28.8,244.5,28.8z M244.5,34.2v4h1.9v-4H244.5z M249.1,29.6v-1.5h3.3V26h1.7v2.1h3.4v1.5h-3.4v1.9h4.2v1.5h-9.9
			v-1.5h4v-1.9C252.4,29.6,249.1,29.6,249.1,29.6z M248.5,36.3v-1.5h6.2v-1.3h1.7v1.3h1.9v1.5h-1.9v3.2c0,1.4-0.6,2.1-2.1,2.1
			c-0.7,0-1.5,0.1-2.5,0.1c0-0.2-0.1-0.6-0.2-1.1c-0.1-0.3-0.1-0.5-0.1-0.6c0.6,0,1.2,0.1,2,0.1c0.8,0,1.2-0.3,1.1-0.9v-2.8H248.5
			L248.5,36.3z M251.2,39.7c-0.5-0.7-1.2-1.4-2-2.2l1.3-1c0.3,0.3,0.7,0.7,1.3,1.3c0.4,0.4,0.6,0.7,0.8,0.9L251.2,39.7L251.2,39.7z"
			/>
		<path class="st0" d="M261.8,41.7V30.6h6.2V26h1.8v4.5h6.2v8.9c0.1,1.4-0.6,2.1-2.1,2.1h-1.1c-0.6,0-1,0.1-1.3,0.1
			c-0.1-0.5-0.3-1.1-0.4-1.7h2.1c0.7,0,1-0.3,1-0.9v-7h-10.7v9.6H261.8z M265,30.2c-1-0.9-2-1.8-3-2.6l1.2-1.1
			c1,0.8,2.1,1.6,3.1,2.5L265,30.2L265,30.2z M265.4,39.1v-5.3h7.1v5.3H265.4z M267,35.2v2.3h3.8v-2.3H267z M272.5,30.3l-1.1-1.2
			c1.1-0.9,2.2-1.8,3.1-2.6l1.2,1.1C274.4,28.8,273.4,29.6,272.5,30.3z"/>
		<path class="st0" d="M281.1,34c-0.2-0.5-0.7-1.4-1.5-2.7l1.4-0.6c0.2,0.4,0.5,0.9,0.9,1.5c0.3,0.5,0.5,0.9,0.7,1.1L281.1,34
			L281.1,34z M281.3,41.8l-1.6-0.5c0.4-1.7,0.9-3.8,1.3-6.1l1.6,0.5C282.1,37.8,281.6,39.8,281.3,41.8z M281.3,29.6
			c-0.5-0.9-1-1.9-1.5-2.8l1.5-0.5c0.2,0.3,0.5,0.8,0.9,1.6c0.3,0.5,0.5,0.8,0.7,1.1L281.3,29.6L281.3,29.6z M283,28.9v-1.4h2.4V26
			h1.5v1.5h2.4v1.4h-2.4v1.3h2.1v6.4h-2.1V38h2.6v1.2c0.4-1,0.5-2.5,0.5-4.5v-7.8h4.9v13.2c0,1.1-0.5,1.7-1.4,1.7
			c-0.2,0-0.5,0-0.9,0.1h-0.9c0,0,0-0.1-0.1-0.3c0-0.6-0.1-1-0.2-1.3h0.5c0.3,0,0.5,0.1,0.6,0.1c0.6,0,0.8-0.2,0.8-0.7v-2.9h-2.1
			c0,2-0.5,3.8-1.7,5.4c-0.4-0.2-0.9-0.4-1.4-0.8c0.5-0.8,0.9-1.3,1.1-1.8h-2.5v2.5h-1.5v-2.5h-2.7V38h2.7v-1.3h-2.1v-6.4h2.1v-1.3
			L283,28.9L283,28.9z M284.7,31.4v1.3h2.9v-1.3C287.6,31.4,284.7,31.4,284.7,31.4z M284.7,34v1.4h2.9V34H284.7z M291.5,28.4V31h2
			v-2.6H291.5z M291.5,34.8v0.3h2v-2.7h-2V34.8L291.5,34.8z"/>
		<path class="st0" d="M300.6,34.1c-0.5-0.5-1.2-1.1-2.2-1.9c0.1,0.1,0,0-0.3-0.3l1.1-1.3c0.9,0.7,1.8,1.4,2.6,2.1L300.6,34.1
			L300.6,34.1z M300.2,41.8l-1.8-0.5c0.5-1.5,1.1-3.4,1.7-5.8c0.2,0,0.4,0.1,0.7,0.3c0.4,0.1,0.8,0.2,1,0.3
			C301,38.7,300.5,40.7,300.2,41.8L300.2,41.8z M301,29.7c-0.9-0.8-1.7-1.5-2.5-2.2l1.1-1.3c0.3,0.3,0.8,0.6,1.5,1.1
			c0.5,0.4,0.9,0.7,1.1,0.9C302.2,28.3,301,29.7,301,29.7z M302.8,42c0,0-0.1-0.1-0.2-0.1c-0.3-0.3-0.6-0.6-1.1-0.9
			c1.4-0.9,2.1-2.2,2.1-3.9v-2.4h1.7c0,1,0,1.8-0.1,2.5C305.1,39.1,304.4,40.8,302.8,42L302.8,42z M302.5,29.5v-1.6h4.6v-1.8h1.7
			v1.8h4.9v1.6h-5.6c-0.3,0.3-0.7,0.8-1.3,1.5c-0.6,0.6-1,1.1-1.3,1.4c1.6,0,3.2-0.1,4.7-0.3c-0.1-0.1-0.2-0.2-0.4-0.5
			c-0.4-0.4-0.6-0.7-0.8-0.9l1.3-0.7c1.4,1.5,2.5,2.7,3.4,3.7l-1.5,1l-0.9-1.2c-2.8,0.1-5.6,0.3-8.7,0.5l-0.3-1.5h1.1
			c1-1.2,1.8-2.2,2.3-2.9L302.5,29.5L302.5,29.5z M306.8,41.5v-6.9h1.7v6.9H306.8z M311.7,41.5c-1.1,0-1.7-0.5-1.7-1.6v-5.3h1.6v5
			c0,0.3,0.1,0.4,0.5,0.4h0.3c0.3,0,0.4-0.1,0.5-0.5c0.1-0.8,0.1-1.6,0.1-2.3c0.4,0.2,0.9,0.3,1.3,0.4c0,1-0.1,1.7-0.3,2.3
			c-0.2,1.1-0.7,1.6-1.7,1.5L311.7,41.5L311.7,41.5z"/>
		<path class="st0" d="M328,31.5v-1.3h2.2v-1.9h-2.6v-1.5h4.2v9.7h0.9v1.5h-15.7v-1.5h1.1v-9.2c1-0.2,2.2-0.6,3.6-1.1l0.6,1.3
			c-0.9,0.4-1.8,0.6-2.6,0.8V30h2.5v1.4h-2.5v1.9h2.5v1.3h-2.5v1.9h3.2v-3.4h1.5v3.4h1.4v-4.2h-2.9v-6.1h1.6v1.7h2.9v1.4h-2.9v1.7
			h2.9v5.6h2.9v-1.9H328v-1.3h2.2v-1.9C330.2,31.5,328,31.5,328,31.5z M317.9,41.9c-0.1-0.3-0.4-0.8-0.8-1.5c1.6-0.4,3.5-1.1,5.5-2
			l0.9,1.4c-0.4,0.1-0.9,0.3-1.6,0.6C320.1,41.2,318.8,41.7,317.9,41.9z M331.9,41.9c-1.8-0.8-3.7-1.5-5.7-2l0.7-1.4
			c0.9,0.3,2.1,0.7,3.8,1.3c0.9,0.3,1.5,0.5,2,0.6L331.9,41.9L331.9,41.9z"/>
		<path class="st0" d="M336.1,29.6v-2.5h6.6V26h1.8v1.1h6.4v2.5h-1.6l-0.1,1.1h2.3v1.2h-2.4l-0.1,1.7h-11.4l0.2-1.7h-2.3v-1.2h2.5
			l0.1-1.6h11.2v-0.8h-11.5v1.3L336.1,29.6L336.1,29.6z M336.2,42c-0.2-0.5-0.4-0.9-0.6-1.2c0.5-0.1,1.2-0.2,2.2-0.3
			c0.7-0.1,1.9-0.3,3.8-0.5l0.6,1C340.1,41.4,338.1,41.7,336.2,42z M337.3,39.8v-5.5h12.4v5.5C349.6,39.8,337.3,39.8,337.3,39.8z
			 M339,35.2V36h8.9v-0.7H339z M339,36.7v0.7h8.9v-0.7H339z M339,38.1v0.7h8.9v-0.7H339z M339.3,32.6h3.2l0.1-0.8h-3.2L339.3,32.6z
			 M339.6,30l-0.1,0.8h3.2l0.1-0.8H339.6z M344.1,32.6h3.3l0.1-0.8h-3.3L344.1,32.6z M347.7,30h-3.2l-0.1,0.8h3.2L347.7,30z
			 M350.8,42c-1.5-0.3-3.6-0.7-6.1-1.1l0.5-1c1.9,0.2,3.9,0.5,6,0.9L350.8,42L350.8,42z"/>
		<path class="st0" d="M355.7,42c-0.2-0.1-0.4-0.2-0.8-0.5c-0.4-0.2-0.7-0.4-0.9-0.5c0.7-1,1.1-2,1.3-3c0.2-1,0.3-2.4,0.3-4.4v-6.8
			h13.5v12.7c0.1,1.5-0.6,2.2-2.2,2.1c-0.6,0-1.3,0.1-2.1,0.1c0-0.1-0.1-0.3-0.1-0.6c-0.1-0.5-0.2-0.9-0.3-1.1c0.2,0,0.5,0,0.9,0.1
			h0.9c0.8,0,1.2-0.2,1.1-0.9V37h-4.2v4.5h-1.8V37h-4C357.3,38.6,356.8,40.3,355.7,42L355.7,42z M357.5,33.6c0,0.2,0,0.5-0.1,1v0.8
			h4v-2.7h-3.9L357.5,33.6L357.5,33.6z M357.5,28.5v2.7h3.9v-2.7H357.5z M367.4,28.5h-4.2v2.7h4.2V28.5z M363.2,32.8v2.7h4.2v-2.7
			H363.2z"/>
		<path class="st0" d="M372.9,30.7v-1.5h1.6v-3.1h1.5v3.1h1.2v1.5H376v1.7c0.5,0.5,1.1,1,1.6,1.5l-0.7,1.5c-0.3-0.4-0.6-0.8-0.9-1.2
			v7.8h-1.5v-7.6c-0.4,1.4-0.9,2.6-1.5,3.7c0-0.3-0.2-0.9-0.3-1.7c0-0.2-0.1-0.4-0.1-0.5c0.7-1.2,1.3-2.9,1.9-5.1H372.9L372.9,30.7z
			 M386.5,41.9c-1,0-1.8-0.5-2.5-1.7c-0.8,0.5-1.7,1-2.8,1.5c-0.2-0.4-0.5-0.8-0.9-1.3c1.4-0.5,2.4-1,3-1.4
			c-0.4-0.9-0.6-1.8-0.7-2.7h-2.6c0,0.1,0,0.3-0.1,0.5v0.3c0.2,0.1,0.5,0.3,1,0.5c0.6,0.3,1.1,0.6,1.4,0.7l-0.8,1.3
			c-0.2-0.1-0.5-0.3-1-0.7c-0.4-0.3-0.7-0.5-0.9-0.6c-0.3,1.2-1,2.3-2.3,3.5c-0.4-0.4-0.7-0.8-1.1-1.2c1.4-1,2.1-2.4,2.2-4.4h-1.2
			v-1.3h5c0-0.3-0.1-0.5-0.1-0.8c-0.3-2-0.5-4.8-0.5-8.2h1.5c0,3.6,0.1,6.2,0.4,8c0,0.1,0,0.2,0.1,0.5v0.5h1.7
			c0-0.1-0.1-0.2-0.3-0.4c-0.2-0.3-0.4-0.5-0.5-0.7l1.3-0.3c0.1,0.2,0.3,0.5,0.6,0.9c0.2,0.3,0.3,0.5,0.4,0.6h1.4v1.3h-4.5
			c0,0.1,0.1,0.3,0.1,0.6c0.1,0.3,0.2,0.7,0.4,1.3c0.1-0.1,0.2-0.2,0.5-0.4c0.6-0.5,1-0.9,1.3-1.3l1.1,0.9c-0.8,0.8-1.5,1.5-2.3,2
			v0.1c0.4,0.5,0.8,0.8,1.3,0.7c0.3,0,0.5-0.2,0.7-0.5c0.2-0.7,0.4-1.2,0.4-1.5c0,0,0.1,0.1,0.2,0.1c0.5,0.3,0.8,0.5,1.1,0.6
			c-0.1,0.6-0.4,1.2-0.7,1.8C387.8,41.5,387.3,41.9,386.5,41.9L386.5,41.9z M377.8,33.8l-0.4-1.1h0.7c0.2-0.3,0.5-0.8,0.9-1.5
			c0.2-0.2,0.3-0.4,0.3-0.5c-0.2-0.2-0.6-0.6-1.1-1.1c-0.5-0.5-0.8-0.8-1-1.1l0.7-0.7l0.3,0.3c0.4-0.6,0.8-1.3,1.1-2l1.3,0.5
			c-0.5,0.8-1,1.5-1.6,2.3c0.4,0.3,0.6,0.5,0.8,0.9c0.4-0.7,0.8-1.2,1.1-1.7l1,0.6c-0.3,0.4-0.8,1.2-1.5,2.3
			c-0.5,0.8-0.9,1.3-1.1,1.7l1.4-0.1c-0.1-0.3-0.3-0.7-0.5-1l0.9-0.4c0.2,0.4,0.4,0.9,0.8,1.5c0.2,0.4,0.3,0.8,0.4,0.9l-0.9,0.5
			l-0.3-0.6c-0.4,0-1,0.1-1.8,0.2C378.5,33.7,378,33.7,377.8,33.8L377.8,33.8z M384.2,33.5l-0.3-1.1h0.3c0.2,0,0.3-0.1,0.4-0.1
			c0.2-0.3,0.5-0.8,0.9-1.3c0.1-0.2,0.2-0.4,0.3-0.5c-0.9-1-1.6-1.7-2.1-2.3l0.7-0.7l0.4,0.5c0.3-0.4,0.6-0.9,1-1.7l0.2-0.4l1.1,0.4
			c-0.1,0.2-0.2,0.4-0.5,0.7c-0.4,0.8-0.8,1.3-1.1,1.7l0.9,0.9l1.1-1.8l1,0.5c-0.9,1.5-1.8,2.9-2.6,3.9l1.3-0.1l-0.4-0.9l0.9-0.4
			c0.2,0.4,0.4,1,0.7,1.8c0.1,0.3,0.2,0.5,0.3,0.7l-0.9,0.4l-0.2-0.6C385.9,33.3,384.8,33.4,384.2,33.5L384.2,33.5z"/>
		<path class="st0" d="M391.5,31.3l-0.4-1.5h1c1.1-1.7,2-3,2.6-4.1l1.7,0.7c-0.7,1-1.5,2.1-2.5,3.3c1.1-0.1,2.3-0.1,3.3-0.2
			l-1.1-1.3l1.2-0.7c1.1,1.3,2.1,2.4,2.9,3.5l-1.3,0.9c-0.1-0.1-0.2-0.3-0.3-0.5c-0.2-0.2-0.3-0.4-0.4-0.5c-0.9,0-2.2,0.1-3.9,0.3
			C393,31.2,392.1,31.3,391.5,31.3L391.5,31.3z M392.1,41.8v-9.4h6.8v7.6c0,1.1-0.5,1.7-1.7,1.7h-0.8c-0.5,0-0.8,0.1-1.1,0.1
			c0-0.3-0.1-0.6-0.2-1c0-0.2-0.1-0.4-0.1-0.5h1.5c0.5,0,0.8-0.2,0.8-0.5v-1h-3.8v3H392.1L392.1,41.8z M393.7,33.7V35h3.8v-1.3
			H393.7z M393.7,36.2v1.3h3.8v-1.3H393.7z M402.6,33.4c-1.5,0-2.2-0.7-2.1-2.1v-5.2h1.7v2.5c1.2-0.4,2.5-1.1,4-1.9L407,28
			c-1.6,0.8-3.2,1.5-4.9,2.2V31c0,0.7,0.3,1,1,0.9h1.3c0.7,0,1-0.3,1.1-0.8c0-0.4,0.1-0.5,0.1-0.4c0-0.5,0.1-0.9,0.1-1.3
			c0.3,0,0.6,0.1,1,0.3c0.2,0.1,0.4,0.2,0.5,0.2c0,0.5-0.1,1.1-0.3,1.7c0,0,0,0-0.1,0.2c-0.2,1-0.9,1.5-2.2,1.5L402.6,33.4
			L402.6,33.4z M402.6,41.6c-1.4,0-2.1-0.6-2.1-2.1v-5.3h1.7v2.1c1.3-0.4,2.7-1.1,4.1-1.9l0.9,1.4c-2,0.9-3.6,1.7-5,2.2v1.2
			c0,0.6,0.3,0.9,1,0.9h1.4c0.7,0,1-0.2,1.1-0.7c0.1-0.5,0.1-1.1,0.2-1.8c0.2,0,0.4,0.1,0.7,0.3c0.4,0.1,0.6,0.2,0.8,0.3
			c0,0.5-0.1,1.1-0.2,1.7L407,40c-0.3,1.1-1,1.6-2.2,1.6C404.8,41.6,402.6,41.6,402.6,41.6z"/>
		<path class="st0" d="M410.1,29v-1.4h4.3c-0.1-0.1-0.2-0.2-0.4-0.5c-0.4-0.4-0.6-0.7-0.7-0.9l1.9-0.3c0.2,0.2,0.7,0.8,1.4,1.7h2.5
			c0.2-0.3,0.5-0.7,0.9-1.3c0.1-0.2,0.2-0.3,0.3-0.4l1.9,0.3c-0.1,0.1-0.2,0.2-0.3,0.5c-0.3,0.4-0.5,0.8-0.7,0.9h4.8v1.4h-5.6v1.3h4
			V33h1.7v1.5h-1.7v2.7h-3.8c1.2,1.3,3,2.3,5.2,2.9c-0.1,0.2-0.4,0.5-0.7,1.1c0,0.1-0.1,0.2-0.1,0.3c-2-0.8-3.6-1.6-4.6-2.7v3.2
			h-1.7v-4.8h-2.2v4.8h-1.7v-3c-0.8,0.9-2.2,1.8-4,2.6c-0.3-0.5-0.6-1-0.9-1.5c2.3-0.7,3.9-1.7,4.9-2.9H411v-1.3h3.9v-1.3H410V33
			h4.8v-1.3h-3.6v-1.3h3.6v-1.3L410.1,29L410.1,29z M416.5,29v1.3h2.2V29H416.5z M416.5,31.6V33h2.2v-1.3
			C418.7,31.6,416.5,31.6,416.5,31.6z M416.5,34.4v1.3h2.2v-1.3H416.5z M422.7,31.6h-2.4V33h2.4C422.7,33,422.7,31.6,422.7,31.6z
			 M420.3,35.8h2.4v-1.3h-2.4V35.8z"/>
		<path class="st0" d="M428.6,38.6v-1.4h2V26.8h12.1v10.4h2v1.4H428.6L428.6,38.6z M429.9,42c-0.2-0.5-0.4-1-0.8-1.5
			c2.1-0.3,3.9-0.9,5.4-1.7l0.9,1.3C433.6,40.8,431.8,41.5,429.9,42L429.9,42z M432.3,28.2v1.3h8.6v-1.3H432.3z M432.3,30.7V32h8.6
			v-1.3C441,30.7,432.3,30.7,432.3,30.7z M432.3,33.2v1.4h8.6v-1.4H432.3z M432.3,35.8v1.4h8.6v-1.4H432.3z M443.3,42.1
			c-2.3-1.1-4.1-1.8-5.5-2.1l0.7-1.2c1.8,0.5,3.6,1.1,5.6,1.8C443.8,40.9,443.5,41.4,443.3,42.1L443.3,42.1z"/>
		<path class="st0" d="M447.8,41.7v-13h1.8c0.1-0.5,0.3-1.1,0.5-2c0-0.3,0.1-0.5,0.1-0.6l1.9,0.3c-0.2,0.8-0.4,1.6-0.7,2.3h2.9v13
			h-1.7v-1.2h-3.1v1.3L447.8,41.7L447.8,41.7z M449.6,30.3v3.5h3.1v-3.5H449.6z M449.6,35.4v3.5h3.1v-3.5H449.6z M456.8,41.6
			c-0.1-0.7-0.2-1.2-0.3-1.7h1.2c0.6,0,1,0.1,1.3,0.1c1.2,0,1.8-0.6,1.8-1.7c0-0.7,0.1-2.2,0.1-4.5c0-1.6,0.1-2.8,0.1-3.5h-3.6
			c-0.4,0.9-0.8,1.7-1.2,2.5c-0.1,0-0.2-0.1-0.4-0.3c-0.2-0.1-0.6-0.3-1.1-0.6c1-1.9,1.8-3.8,2.4-5.8l1.8,0.4c0,0.2-0.1,0.4-0.3,0.7
			c-0.2,0.6-0.4,1.1-0.5,1.5h4.8c-0.1,4.8-0.2,8.1-0.3,10c0,2-0.9,3-2.9,2.9C458.8,41.6,457.8,41.6,456.8,41.6L456.8,41.6z
			 M458.2,37.1c-0.8-1.2-1.6-2.3-2.5-3.5l1.4-0.9c0.8,0.9,1.7,2.1,2.6,3.4L458.2,37.1L458.2,37.1z"/>
		<path class="st0" d="M467.7,33.8c-0.4-0.3-1-0.6-1.7-1c1.3-1.7,2.4-3.7,3.1-6l1.9,0.3c-0.3,0.8-0.5,1.5-0.9,2.2h3.3V26h1.9v3.3
			h5.8V31h-5.8v3.2h5.2V36h-5.2v3.6h6.6v1.5h-15.7v-1.5h7.2V36h-5.7v-1.7h5.7V31h-4.1C468.9,31.9,468.4,32.9,467.7,33.8z"/>
		<path class="st0" d="M487,34.1c-0.9-0.9-1.8-1.7-2.7-2.4l1.2-1.2c1,0.7,2,1.5,2.8,2.3L487,34.1L487,34.1z M486.6,41.8l-1.8-0.6
			c0.8-2.2,1.4-4.2,1.9-5.9c0.5,0.2,1.1,0.4,1.7,0.6c-0.2,0.6-0.5,1.7-0.9,3.1C487.1,40.2,486.8,41.1,486.6,41.8L486.6,41.8z
			 M487.5,29.8c-1.1-1-1.9-1.8-2.6-2.3l1.1-1.2c1,0.7,1.9,1.4,2.7,2.2L487.5,29.8z M489.7,28.7l-0.2-1.6c3.8-0.1,7.2-0.2,10.2-0.5
			l0.2,1.5c-1.4,0.1-2.8,0.2-4.2,0.3v2.4h4.9v1.6h-4.9v2.4h3.9v7h-1.7v-0.9h-6.2v0.9h-1.8v-7h3.9v-2.4h-4.8v-1.6h4.8v-2.3
			C492.4,28.6,491,28.6,489.7,28.7L489.7,28.7z M491.6,36.4v3.2h6.2v-3.2H491.6z"/>
	</g>
</g>
</svg>
