<?xml version="1.0" encoding="utf-8"?>
<!-- Generator: Adobe Illustrator 27.0.0, SVG Export Plug-In . SVG Version: 6.00 Build 0)  -->
<svg version="1.1" id="_圖層_2" xmlns="http://www.w3.org/2000/svg" xmlns:xlink="http://www.w3.org/1999/xlink" x="0px" y="0px"
	 viewBox="0 0 712 36.9" style="enable-background:new 0 0 712 36.9;" xml:space="preserve">
<style type="text/css">
	.st0{fill:#FFFFFF;}
</style>
<g id="_圖層_1-2">
	<path class="st0" d="M69.5,22.5c2.1,1.9,4.8,3.5,7.6,4.5c-1,0.8-2.4,2.4-3.1,3.6c-2.1-1-4.2-2.4-6.1-4.1v2.9h-7.1v2.5h12.7v3.8
		H43.8v-3.8h12.3v-2.5h-6.9V27c-1.9,1.6-4,3-6.2,4c-0.7-1.1-2-2.7-3-3.5c2.8-1,5.7-2.8,7.9-4.9h-7.6v-3.8h7.5V7.2h-5.4V3.5h5.4V0.6
		h4.7v2.9h12.2V0.6h4.8v2.9h5.4v3.7h-5.4v11.5h7.2v3.8H69.5L69.5,22.5z M67.1,25.7c-1-1-2-2.1-2.8-3.2h-11c-0.8,1.1-1.8,2.2-2.8,3.2
		h5.6v-2.4h4.7v2.4H67.1z M52.5,7.2v1.7h12.2V7.2H52.5z M52.5,13.8h12.2v-1.7H52.5V13.8z M52.5,18.7h12.2V17H52.5V18.7z"/>
	<path class="st0" d="M93.3,20.9l1,4.1c-4.1,2-8.4,4.1-12,5.6L80.5,26c1.4-0.5,3.2-1.1,5.1-1.9V13.8h-4.2V9.4h4.2V1h4.3v8.4h3.6v4.4
		h-3.6v8.5L93.3,20.9L93.3,20.9z M110.8,31.9c2.1,0,2.5-0.9,2.8-4.8c1,0.7,2.8,1.4,4.1,1.7c-0.6,5.4-1.9,7.3-6.5,7.3h-8.3
		c-5.3,0-6.8-1.4-6.8-6.7v-10L94,20.3l-1.7-4.1l3.8-1.6V4.3h4.5v8.3l3.2-1.4V0.5h4.3v8.8l4.3-1.8l3.5,1.1l-0.2,0.7
		c-0.2,5.4-0.8,12.4-1.7,17.1l-3.8-1c0.4-3.1,0.7-8,0.9-12.6l-3,1.3v13.7h-4.3V15.9l-3.2,1.4v12c0,2.2,0.3,2.6,2.7,2.6H110.8
		L110.8,31.9z"/>
	<path class="st0" d="M134.7,2c-1,2.6-2.2,5.3-3.6,7.8v26.8h-4.7V17.1c-0.8,1-1.6,2-2.5,2.9c-0.4-1.2-1.7-3.7-2.5-4.8
		c3.5-3.5,6.9-9,8.9-14.5L134.7,2L134.7,2z M157.5,30.7v4.4H133v-4.5h13.6c1.3-5,2.7-12.5,3.2-18.1l4.8,0.7
		c-1,5.8-2.4,12.5-3.8,17.4C150.8,30.7,157.5,30.7,157.5,30.7z M143.5,7c-0.3-1.7-1.1-4.1-1.7-6l4.4-1.1c0.8,1.9,1.6,4.3,2,5.9
		L144.1,7h12v4.4h-21.7V7H143.5z M139,29.6c-0.3-4-1.2-10.8-2.3-16l4.2-0.9c1.2,5.1,2.3,11.7,2.7,15.6L139,29.6L139,29.6z"/>
	<path class="st0" d="M197.9,32.4v3.2h-35v-3.2h4.5V16.8h9.6c0.1-0.5,0.2-1,0.2-1.5h-13.8v-3.4h14.2c0.1-0.5,0.1-1.1,0.2-1.6H165
		V1.9h30.9v8.4h-13.4c-0.1,0.5-0.2,1-0.2,1.6h14.5v3.4h-15.1l-0.3,1.5h11.8v15.6H197.9L197.9,32.4z M173.8,5h-4.4v2.2h4.4V5z
		 M171.8,19.6V21h16.8v-1.4H171.8z M188.6,23.3h-16.8v1.5h16.8V23.3z M171.8,28.6h16.8V27h-16.8V28.6z M171.8,32.4h16.8V31h-16.8
		V32.4z M178.1,7.2h4.4V5h-4.4V7.2z M186.7,7.2h4.5V5h-4.5V7.2z"/>
	<path class="st0" d="M207.6,15.4c0-2.1,1.6-3.7,3.6-3.7s3.6,1.6,3.6,3.7s-1.6,3.7-3.6,3.7S207.6,17.5,207.6,15.4z M207.6,30.1
		c0-2.1,1.6-3.7,3.6-3.7s3.6,1.6,3.6,3.7s-1.6,3.7-3.6,3.7S207.6,32.3,207.6,30.1z"/>
	<path class="st0" d="M245.6,15.7c2.6,7.6,7.3,13.6,14.6,16.6c-1.2,1-2.7,3-3.4,4.3c-7.1-3.3-11.6-8.9-14.6-16.4
		c-2.1,6.5-6.3,12.5-14.6,16.4c-0.7-1.3-2.1-2.9-3.5-3.9c8.9-4,12.6-10.4,14.2-17h-13.4v-4.8H239c0.4-3.6,0.4-7.2,0.4-10.3h5.1
		c0,3.2-0.1,6.7-0.5,10.3h15.4v4.8L245.6,15.7L245.6,15.7z"/>
	<path class="st0" d="M270.5,18.2c-1.2-1.2-3.9-2.8-6.1-3.7l2.5-3.3c2.1,0.8,4.9,2.2,6.2,3.4L270.5,18.2L270.5,18.2z M264.9,33.9
		c1.5-3,3.6-7.9,5.1-12.4l3.8,2.4c-1.3,4.1-3,8.6-4.6,12.4L264.9,33.9z M272,8.2c-1.3-1.2-3.9-3-6.1-4l2.6-3.2
		c2.1,0.9,4.8,2.4,6.2,3.6L272,8.2z M299.9,31.8c0,1.9-0.4,3-1.6,3.6c-1.1,0.7-2.8,0.8-5.1,0.8c-0.2-1-0.8-2.8-1.4-3.8
		c1.4,0.1,2.8,0.1,3.3,0c0.5,0,0.7-0.2,0.7-0.7v-9c-0.9,1-1.9,1.9-2.8,2.9l-1.1-2.4c-0.4,4.9-1.7,10.1-4.8,13.6
		c-0.7-0.7-2.5-1.9-3.4-2.4c0.8-1,1.5-2,2-3.1h-7.4V34h-4V18.1h3.9v-5.9h-5V8h5V1.8h4.2v6.3h4.4v4.2h-4.4v5.9h3.7v12.3
		c1.7-4.1,1.9-9,1.9-13V1.8h11.8L299.9,31.8L299.9,31.8z M282.2,22h-3.8v5.4h3.8V22z M292.2,17.3c0,1.4,0,2.8-0.1,4.3
		c1.1-0.7,2.3-1.7,3.8-2.8v-3l-1.2,0.9c-0.6-0.8-1.4-2-2.4-3.1L292.2,17.3L292.2,17.3z M292.2,5.9v5.3l1.1-0.7
		c0.8,0.9,1.8,1.8,2.6,2.8V5.9H292.2z"/>
	<path class="st0" d="M339.5,5.3c-1.2,4.1-3,7.5-5.4,10.4c2.3,1.8,5,3.3,8.1,4.3c-0.9,0.9-2.3,2.7-2.9,3.9h-0.1v12.6h-4.5v-1.2h-7.3
		v1.3h-4.3V24l-0.9,0.4c-0.3-0.6-0.9-1.5-1.4-2.2v1.1h-4.3v5.1l4.6-1l0.4,4.1c-5.5,1.4-11.4,2.7-15.8,3.7l-0.8-4.4l1.8-0.3v-13h3.8
		v12.2l2-0.4V14.8H307V2h13.5v9.6c2.9-2.7,5.2-6.8,6.5-11l4.4,1.1c-0.3,0.9-0.6,1.7-1,2.6h5.5l0.8-0.2L339.5,5.3L339.5,5.3z
		 M310.9,10.8h5.1V5.9h-5.2L310.9,10.8z M320.7,20.5c2.7-1.2,5.3-2.8,7.5-4.8c-0.9-1.1-1.7-2.3-2.4-3.4c-0.7,1-1.5,1.9-2.3,2.7
		c-0.7-0.7-2.1-1.9-3.1-2.6v2.5h-3.9v4.5h4.3L320.7,20.5L320.7,20.5z M336,22.3c-1.8-1-3.4-2.2-4.9-3.5c-1.5,1.4-3.1,2.5-4.8,3.5
		H336z M334.7,31.3v-5.1h-7.3v5.1H334.7z M328.4,8.1l-0.3,0.6c0.8,1.3,1.8,2.7,2.9,4c1.1-1.4,2.1-2.9,2.9-4.6H328.4z"/>
	<path class="st0" d="M381.2,28.2v5.3h-34.7v-5.3H381.2L381.2,28.2z M378,5.8v5.1h-28.2V5.8H378z"/>
	<path class="st0" d="M402.2,28.2c-2.9,0.5-5.8,1-8.6,1.4v6.3h-4.5v-5.6l-2.4,0.4l-0.7-4.3c0.9-0.1,2-0.2,3.1-0.4V4.3h0.2l0,0
		c3.7-1.1,7.8-2.8,10.3-4.2l3.7,3.5c-2.9,1.2-6.4,2.4-9.6,3.4v2.6h7.9v4h-7.9v3.9h7.8v4h-7.8v4c2.7-0.4,5.5-0.8,8.4-1.2L402.2,28.2
		L402.2,28.2z M420.7,18.6c-1,4.7-3,8.3-5.5,11.1c2.1,1.4,4.7,2.4,7.7,3c-1,0.9-2.3,2.8-2.9,4c-3.2-0.9-5.9-2.2-8.3-4
		c-2.6,1.9-5.6,3.1-9.1,4.1c-0.5-1.2-1.4-3-2.3-4c3.1-0.7,5.9-1.7,8.2-3.2c-1.8-2.1-3.2-4.6-4.3-7.4l2.4-0.6h-3.8v-3.9h1.4
		c-0.7-0.9-2.3-2.2-3-2.8c3.8-2.3,4.2-5.6,4.2-8.3V2h4.3l0,0h3.8l0,0h4.3v9.1c0,1.1,0.1,1.5,0.6,1.5h1.8c0.5,0,1.4-0.1,2-0.2
		c0.1,1.1,0.2,2.6,0.4,3.5c-0.6,0.2-1.4,0.3-2.3,0.3h-2.2c-3.7,0-4.4-1.5-4.4-5.1V5.9h-3.8v1c0,3.6-0.9,8.1-4.9,10.9h12.3l0.8-0.1
		L420.7,18.6z M408.1,21.7c0.9,2,2.1,3.8,3.5,5.3c1.5-1.5,2.7-3.3,3.5-5.3H408.1L408.1,21.7z"/>
	<path class="st0" d="M484,30.7v4.5h-35.5v-4.5h4.8V13.5h4.8v17.2h6.8V7.5h-15.1V3.1h33.1v4.5h-13.1V16h11v4.5h-11v10.2H484
		L484,30.7z"/>
	<path class="st0" d="M510.4,15.7c2.6,7.6,7.3,13.6,14.6,16.6c-1.2,1-2.7,3-3.4,4.3c-7.1-3.3-11.6-8.9-14.6-16.4
		c-2.1,6.5-6.3,12.5-14.6,16.4c-0.7-1.3-2.1-2.9-3.5-3.9c8.9-4,12.6-10.4,14.2-17h-13.4v-4.8h14.2c0.4-3.6,0.4-7.2,0.4-10.3h5.1
		c0,3.2-0.1,6.7-0.5,10.3h15.4v4.8L510.4,15.7L510.4,15.7z"/>
	<path class="st0" d="M563.6,5.3c-1.2,4.1-3,7.5-5.4,10.4c2.3,1.8,5,3.3,8.1,4.3c-0.9,0.9-2.3,2.7-2.9,3.9h-0.1v12.6h-4.5v-1.2h-7.3
		v1.3h-4.3V24l-0.9,0.4c-0.3-0.6-0.9-1.5-1.4-2.2v1.1h-4.3v5.1l4.6-1l0.4,4.1c-5.5,1.4-11.4,2.7-15.8,3.7l-0.8-4.4l1.8-0.3v-13h3.8
		v12.2l2-0.4V14.8H531V2h13.5v9.6c2.9-2.7,5.2-6.8,6.5-11l4.4,1.1c-0.3,0.9-0.6,1.7-1,2.6h5.5l0.8-0.2L563.6,5.3L563.6,5.3z
		 M535.1,10.8h5.1V5.9H535L535.1,10.8z M544.9,20.5c2.7-1.2,5.3-2.8,7.5-4.8c-0.9-1.1-1.7-2.3-2.4-3.4c-0.7,1-1.5,1.9-2.3,2.7
		c-0.7-0.7-2.1-1.9-3.1-2.6v2.5h-3.9v4.5h4.3L544.9,20.5L544.9,20.5z M560.2,22.3c-1.8-1-3.4-2.2-4.9-3.5c-1.5,1.4-3.1,2.5-4.8,3.5
		H560.2z M558.9,31.3v-5.1h-7.3v5.1H558.9z M552.5,8.1l-0.3,0.6c0.8,1.3,1.8,2.7,2.8,4c1.1-1.4,2.1-2.9,2.8-4.6H552.5L552.5,8.1z"/>
	<path class="st0" d="M603.4,4.3v31.5h-5.1v-3.1h-20.7v3.1h-4.9V4.3H603.4L603.4,4.3z M598.3,28V9h-20.7v19H598.3z"/>
</g>
</svg>
