<?xml version="1.0" encoding="utf-8"?>
<!-- Generator: Adobe Illustrator 27.0.0, SVG Export Plug-In . SVG Version: 6.00 Build 0)  -->
<svg version="1.1" id="_圖層_2" xmlns="http://www.w3.org/2000/svg" xmlns:xlink="http://www.w3.org/1999/xlink" x="0px" y="0px"
	 viewBox="0 0 575.2 67.7" style="enable-background:new 0 0 575.2 67.7;" xml:space="preserve">
<style type="text/css">
	.st0{fill:#231815;}
</style>
<g id="_圖層_1-2">
	<g>
		<path class="st0" d="M1.1,15.2L0,13.7c0.5-0.3,1-0.6,1.5-0.9v-12h1.9v10.9c0.3-0.2,0.7-0.4,1.3-0.8c1-0.7,1.9-1.2,2.5-1.6
			c0.1,0.8,0.2,1.4,0.3,2.1c-1.2,0.7-2.9,1.7-5.2,3.1C1.8,14.8,1.4,15,1.1,15.2L1.1,15.2z M7.7,5.4C6.9,3.9,6.1,2.5,5.3,1.1l1.5-0.9
			c0.4,0.7,1,1.7,1.8,3c0.3,0.5,0.6,0.9,0.7,1.2L7.7,5.4L7.7,5.4z M14.7,15.7c-1-1.3-1.9-2.5-2.9-3.6c-0.9,1.3-2.6,2.7-5.1,4
			C6.4,15.5,6,15,5.6,14.5c4.4-1.8,6.6-4.9,6.4-9.3C12,4.4,12,2.8,12,0.6h1.9c0,1,0,2.4-0.1,4.1v0.5c-0.1,2.2-0.5,4-1,5.2
			c0.7,0.7,1.6,1.7,2.9,3.2c0.3,0.3,0.5,0.5,0.6,0.6L14.7,15.7L14.7,15.7z"/>
		<path class="st0" d="M19.3,16.1V7.6c-0.1,0.1-0.2,0.2-0.3,0.5c-0.4,0.8-0.8,1.4-1.1,1.7c-0.1-0.7-0.3-1.5-0.4-2.3
			c1.3-2,2.3-4.5,3.1-7.4l1.7,0.5C22,1.9,21.5,3.1,21,4.3v11.8L19.3,16.1L19.3,16.1z M22.3,4.8V3.4h11.3v1.4
			C33.5,4.8,22.3,4.8,22.3,4.8z M23,7.1V5.8h9.7v1.3C32.7,7.1,23,7.1,23,7.1z M23,9.4V8.1h9.7v1.3C32.7,9.4,23,9.4,23,9.4z
			 M23.1,16.1v-5.6h9.6v5.6H31v-0.9h-6.2v0.9H23.1z M23.8,2.4V1.1H32v1.3L23.8,2.4L23.8,2.4z M24.7,11.8v2.1H31v-2.1H24.7z"/>
		<path class="st0" d="M35.4,3V1.8h4.2l-1.3-1.3L40,0.1c0.6,0.4,1.2,1,1.7,1.6l-0.1,0.1h2.9l-0.2-0.1c0.7-0.6,1.3-1.1,1.8-1.6
			l1.7,0.3c-0.4,0.4-0.9,0.9-1.3,1.3h4.3V3h-6.8v0.9h5.9V5h-5.9v0.9H51v1.3H35.1V5.9h7.1V5h-5.8V3.9h5.8V3H35.4L35.4,3z M48.7,15.9
			c-1,0-1.9-0.4-2.5-1.1c-0.1-0.2-0.3-0.3-0.4-0.5c-1.1,0.5-2.3,1-3.6,1.5c0-0.2-0.2-0.5-0.5-1c-0.1-0.1-0.2-0.2-0.2-0.3
			c0.1,0,0.2-0.1,0.4-0.1c1.5-0.4,2.5-0.7,3.2-1.1c-0.3-0.7-0.6-1.4-0.8-2.3h-3.8v1l2.7-0.2V13l-2.7,0.3v0.9c0,1.1-0.6,1.6-1.8,1.7
			h-2.1c0-0.2-0.1-0.5-0.3-0.9c0-0.1-0.1-0.2-0.1-0.3c0.4,0,0.9,0.1,1.5,0.1c0.7,0,1.1-0.3,1.1-0.8v-0.5l-3.4,0.3l-0.3-1.3l3.7-0.2
			v-1.1h-3.7V9.8h3.7V8.9L36.1,9c0-0.1,0-0.3-0.1-0.5c0-0.2-0.1-0.4-0.1-0.5c2.5,0,4.7-0.1,6.6-0.3l0.2,1h-0.2
			c-0.7,0.1-1.3,0.1-2.1,0.1v0.9H44c-0.1-0.7-0.1-1.4-0.1-2.3h1.6c0,0.8,0.1,1.5,0.2,2.3h2.8c0,0-0.1-0.1-0.2-0.2
			c-0.4-0.4-0.9-0.8-1.6-1.3l1-0.9c0.2,0.1,0.4,0.3,0.8,0.6c0.5,0.4,0.8,0.7,1.1,0.9l-1.1,0.9H51v1.3h-5c0.1,0.6,0.3,1.1,0.5,1.5
			c0.8-0.4,1.5-0.9,2.1-1.5l1,0.9c-0.8,0.7-1.6,1.3-2.4,1.8c0.1,0,0.2,0.1,0.3,0.2c0.1,0.1,0.2,0.2,0.3,0.2c0.3,0.2,0.6,0.3,0.9,0.3
			c0.4,0,0.6-0.2,0.7-0.5c0.1-0.3,0.2-0.8,0.4-1.6c0.2,0.1,0.4,0.2,0.7,0.3c0.3,0.1,0.5,0.2,0.6,0.3c-0.1,0.5-0.3,1.1-0.5,1.6
			C50.3,15.5,49.7,15.9,48.7,15.9L48.7,15.9z"/>
		<path class="st0" d="M63,9.5l-1.4,1.3L58,6.8l1.3-1.1L63,9.5z"/>
		<path class="st0" d="M70.2,4.9V3.3h2.1v-3h1.7v3h1.9v1.6h-1.9v2.3l0.4-0.4c0.2,0.2,0.6,0.6,1.1,1c0.5,0.5,0.9,0.9,1.1,1.1
			l-1.1,1.2c-0.6-0.7-1.1-1.2-1.5-1.6v7.5h-1.7V8.3c-0.5,1.4-1.1,2.7-1.9,3.9c0,0,0-0.1-0.1-0.3c-0.1-1-0.3-1.7-0.4-2.1
			c0.9-1.3,1.7-2.9,2.3-4.9L70.2,4.9L70.2,4.9z M76.6,8.2c-0.3-0.4-0.7-0.9-1.2-1.3c1.1-1.2,1.9-2.6,2.3-4.2L79.3,3
			C78.7,5.1,77.8,6.8,76.6,8.2L76.6,8.2z M75.9,15.5l-0.4-1.7c0.1,0,0.3,0,0.6-0.1h0.6c0.8-1.9,1.8-4.4,3-7.3L81.5,7
			c-1,2.4-2,4.7-3,6.7c1.5,0,2.9-0.1,4.3-0.3c-0.1-0.3-0.3-0.8-0.7-1.4c-0.3-0.7-0.6-1.2-0.8-1.6l1.5-0.7c0.5,1,1.3,2.4,2.2,4.2
			c-0.3-0.4,0,0,0.7,1.3L84.2,16l-0.6-1.2c-0.2,0-0.6,0-1.1,0.1C79.5,15.1,77.4,15.3,75.9,15.5L75.9,15.5z M78.1,2.3V0.7h5v0.1
			c0.6,2.1,1.6,4,3.1,5.6C86.2,6.6,86,6.8,85.8,7c-0.3,0.5-0.5,0.8-0.6,1.1c-1.7-1.8-2.9-3.8-3.5-5.8L78.1,2.3L78.1,2.3z"/>
		<path class="st0" d="M88.6,15.9V3.3h1.8v9.8h4.1V0.3h2v12.8h4.1V3.3h1.9v12.6h-1.9v-1.3H90.4v1.3C90.4,15.9,88.6,15.9,88.6,15.9z"
			/>
		<path class="st0" d="M115.4,9.5l-1.4,1.3l-3.6-4.1l1.3-1.1C111.7,5.6,115.4,9.5,115.4,9.5z"/>
		<path class="st0" d="M122.5,3.3V1.8h7V0.2h1.8v1.6h7v1.5h-7v1.5h6.3v9.1c0,1.3-0.7,1.9-2,2c-0.5,0-1.4,0.1-2.7,0.1
			c0-0.1-0.1-0.3-0.1-0.6c-0.1-0.5-0.2-0.8-0.3-1.1h2.1c0.9,0,1.3-0.3,1.2-0.9V6.2H125v9.7h-1.7V4.8h6.2V3.3L122.5,3.3L122.5,3.3z
			 M126.1,10V8.6h2c0,0-0.1-0.1-0.2-0.3c-0.5-0.8-0.8-1.3-0.9-1.4l1.6-0.3c0.1,0.1,0.4,0.5,0.9,1.2c0.2,0.3,0.3,0.5,0.3,0.5
			l-0.7,0.3h1.7c0.2-0.3,0.5-0.8,0.9-1.5c0.2-0.3,0.4-0.5,0.4-0.6l1.6,0.3c0,0-0.1,0.1-0.1,0.2c-0.4,0.7-0.7,1.2-0.9,1.5h2V10h-3.4
			v1.4h3.9v1.4h-3.9v2.9h-1.7v-2.9h-3.8v-1.4h3.8V10L126.1,10L126.1,10z"/>
		<path class="st0" d="M141.9,8.3c-0.6-0.8-1.3-1.8-2.1-2.7l1.5-0.8c0.8,0.8,1.5,1.6,2.2,2.5L141.9,8.3L141.9,8.3z M143.8,11.5
			c0-0.2-0.1-0.4-0.3-0.7c-0.1-0.3-0.2-0.5-0.3-0.7l-1.3,5.8l-1.7-0.5c0.5-1.7,1-3.7,1.5-6c0.2,0,0.4,0.1,0.7,0.2
			c0.4,0.1,0.6,0.2,0.7,0.3V9.9c1.5-0.8,2.7-1.9,3.6-3.3h-3V5.2h2.7V3.3h-2.1V1.9h2.1V0.2h1.7v1.7h3V0.2h1.7v1.7h2.4v1.4h-2.4v1.9h3
			v1.4h-3.2c0.8,1.3,2,2.3,3.5,3l-0.8,1.5c-1-0.6-1.8-1.2-2.5-1.9v3.3h-5.8v0.7c0,0.7,0.3,1,1.1,0.9h4.1c0.8,0,1.2-0.2,1.3-0.8
			c0-0.2,0.1-0.5,0.2-1c0-0.3,0.1-0.5,0.1-0.6c0.5,0.2,1,0.4,1.5,0.5c-0.1,0.7-0.2,1.3-0.4,1.8c-0.3,1-1.1,1.5-2.4,1.5h-5.1
			c-1.3,0-2-0.7-2.1-1.9v-3.4C144.8,10.7,144.3,11.1,143.8,11.5L143.8,11.5z M142.4,3.9c-0.3-0.4-0.8-1.1-1.5-1.9
			c-0.3-0.4-0.5-0.7-0.7-0.9l1.5-0.8l2.1,2.5L142.4,3.9L142.4,3.9z M146.9,9.6v1.7h4.2V9.6H146.9z M148.4,6.6
			c-0.4,0.6-0.8,1.2-1.3,1.7h4.7c-0.3-0.3-0.6-0.8-1.1-1.5c0-0.1-0.1-0.2-0.1-0.2L148.4,6.6L148.4,6.6z M148.1,3.3v1.9h3V3.3H148.1z
			"/>
		<path class="st0" d="M167.8,15.9c0-0.3-0.1-0.6-0.3-1.1c0-0.1-0.1-0.2-0.1-0.3c0.3,0,0.7,0,1.3,0.1h1c0.8,0,1.2-0.3,1.3-1
			c0-0.4,0.1-0.9,0.1-1.8c0-0.4,0.1-0.8,0.1-0.9h-10.6c-0.8,0.9-1.6,1.7-2.5,2.5c0,0-0.1-0.1-0.1-0.3c-0.4-0.6-0.6-1-0.8-1.3
			c2.4-2.1,4.1-4.4,5.2-7h-4.6V3.3h5.1c0.2-0.5,0.5-1.4,0.8-2.5c0.1-0.3,0.1-0.5,0.2-0.6l1.8,0.1c0,0.2-0.1,0.4-0.3,0.8
			c-0.1,0.6-0.4,1.3-0.7,2.3h6.4l-0.5,3h1.4l-0.5,3h1.3c0,0.3,0,0.8-0.1,1.5c0,1.3-0.1,2.3-0.1,2.9c0,1.4-0.8,2.1-2.4,2.1
			C169.5,15.9,168.7,15.9,167.8,15.9L167.8,15.9z M160.9,15.3l-1.6-0.3c0.5-1.1,0.9-2.1,1.3-3.2l1.5,0.2
			C161.6,13.2,161.3,14.3,160.9,15.3z M161.3,3.2c-0.3-0.3-0.7-0.8-1.4-1.4c-0.2-0.2-0.4-0.4-0.5-0.5l1-1c0.8,0.7,1.5,1.3,2,1.9
			L161.3,3.2L161.3,3.2z M162.9,7.7c-0.2,0.4-0.5,0.8-0.9,1.4c0,0.1-0.1,0.2-0.1,0.2h8.1l0.3-1.6H162.9L162.9,7.7z M163.3,14.9
			c-0.1-0.8-0.3-1.8-0.5-3l1.3-0.1c0.2,0.8,0.5,1.8,0.7,2.9L163.3,14.9z M164.3,4.7c0,0.1-0.1,0.3-0.2,0.5c-0.1,0.3-0.3,0.6-0.5,1.1
			h5.4l0.3-1.6H164.3L164.3,4.7z M166.3,14.4c-0.1-0.2-0.2-0.6-0.4-1.1c-0.2-0.7-0.3-1.1-0.5-1.5l1.3-0.2c0.1,0.2,0.3,0.6,0.5,1.3
			c0.2,0.6,0.4,1,0.5,1.3C167.7,14.1,166.3,14.4,166.3,14.4z M169.1,13.9c-0.3-0.7-0.6-1.4-1.1-2.3l1.2-0.4c0.1,0.2,0.2,0.4,0.4,0.8
			c0.3,0.7,0.5,1.2,0.7,1.5L169.1,13.9L169.1,13.9z"/>
		<path class="st0" d="M189.9,15.9c-3.3-0.7-5.6-1.4-7-2.1c-1.8,0.9-4.2,1.7-7.2,2.4c-0.2-0.5-0.5-1.1-0.9-1.7
			c2.6-0.4,4.7-1,6.4-1.8c-1.5-1.1-2.7-2.7-3.6-4.8h-1.3V6.2h5.7V3.9h-6.9V2.3h6.9V0.1h1.9v2.2h6.7v1.6h-6.7v2.3h4.6v1.7
			c-1.1,2-2.4,3.6-4,4.8c1.5,0.8,3.6,1.3,6.3,1.6c-0.1,0.1-0.2,0.4-0.3,0.7C190.4,15,190.2,15.3,189.9,15.9L189.9,15.9z M186.5,7.8
			h-7c0.9,1.7,2.1,3,3.4,3.9C184.3,10.8,185.5,9.5,186.5,7.8z"/>
		<path class="st0" d="M193.5,15.9c-0.1,0-0.3,0-0.6-0.1c-0.3,0-0.5-0.1-0.7-0.1c0.4-1.1,0.7-2,0.8-2.9l1.2,0.1
			c-0.1,0.7-0.3,1.5-0.6,2.6C193.6,15.7,193.5,15.9,193.5,15.9L193.5,15.9z M192.9,7.1V0.9h7.2v6.2h-2.9v1.1h2.9v1.3h-2.9v1.2
			c1.2-0.1,2.2-0.2,3.1-0.2c0,0.4-0.1,0.9-0.1,1.3c-0.4,0-2.6,0.2-6.5,0.4c-0.7,0-1.1,0.1-1.3,0.1l-0.1-1.3l3.3-0.1V9.5h-2.9V8.2
			h2.9V7.1L192.9,7.1L192.9,7.1z M194.1,2.1v3.8h1.8V2.1C195.9,2.1,194.1,2.1,194.1,2.1z M195,5.2c0-0.2-0.1-0.5-0.3-0.9
			c-0.2-0.5-0.3-0.9-0.4-1.2l0.8-0.3c0,0.2,0.1,0.5,0.3,0.9c0.2,0.6,0.3,1,0.3,1.3L195,5.2L195,5.2z M195.1,15.7
			c0-0.5-0.1-1.3-0.3-2.3c0.1,0.7,0.1,0.6-0.1-0.4l1.1-0.1c0,0.3,0.1,0.6,0.1,1.1c0.1,0.8,0.2,1.3,0.3,1.7L195.1,15.7L195.1,15.7z
			 M197.3,15.4c0-0.3-0.1-0.7-0.3-1.3c-0.1-0.6-0.2-1-0.3-1.3l1.1-0.1c0.1,0.4,0.2,0.9,0.5,1.5c0.1,0.4,0.2,0.8,0.3,1L197.3,15.4
			L197.3,15.4z M198.9,2.1H197v3.8h1.9C198.9,5.9,198.9,2.1,198.9,2.1z M197.9,5.3L197.1,5c0.2-0.5,0.5-1.2,0.7-2.1l0.8,0.3
			c0,0,0,0.1-0.1,0.2C198.3,4.3,198.1,4.9,197.9,5.3L197.9,5.3z M199.5,15.1c-0.1-0.3-0.3-0.8-0.5-1.3c-0.2-0.5-0.3-0.9-0.4-1.1
			l1.1-0.3c0.2,0.4,0.4,0.9,0.7,1.5c0.1,0.4,0.2,0.6,0.3,0.9L199.5,15.1L199.5,15.1z M200.9,16V8h2.5V0.2h1.6v3h3.3v1.6H205V8h2.8v8
			h-1.6v-1.1h-3.6V16H200.9L200.9,16z M202.5,9.6v3.9h3.6V9.6H202.5z"/>
		<path class="st0" d="M219.2,5.1v2.2c0,1.7-0.7,3-2.2,3.8l-0.6-0.7c1.1-0.7,1.7-1.6,1.7-2.7h-1.3V5.1L219.2,5.1L219.2,5.1z"/>
		<path class="st0" d="M227.7,11.6c-0.1-0.6-0.3-1.2-0.5-1.8c1.6-1.4,2.9-3.1,3.9-5.1l1.5,0.9c-0.5,0.9-1.1,1.8-1.7,2.6v8h-1.6v-6
			C228.8,10.6,228.3,11.1,227.7,11.6L227.7,11.6z M228.3,5.9c-0.3-0.6-0.5-1.2-0.7-1.7c1.4-1.2,2.6-2.5,3.5-4l1.5,0.9
			C231.4,2.9,230,4.5,228.3,5.9L228.3,5.9z M232.5,16c-0.4-0.4-0.8-0.8-1.3-1.2c1.5-1.4,2.2-3.6,2.1-6.4l1.7,0.1
			c0,0.8-0.1,1.6-0.2,2.7c0.5,1.3,1.3,2.2,2.2,2.5v-6h1.7v1.8h4.1v1.5h-4.1v3c0.8,0,2.4,0.1,4.6,0.1c0,0,0,0.1-0.1,0.2
			c-0.2,0.6-0.3,1-0.3,1.3c-1.7,0-3.2,0-4.5-0.1c-1.9,0-3.3-0.8-4.1-2.2C233.9,14.1,233.3,15,232.5,16L232.5,16z M236.8,5.4
			c-0.3-0.3-0.8-0.8-1.4-1.3c-0.5,1.2-1.2,2.3-2,3.3c-0.1-0.1-0.4-0.3-0.9-0.7c-0.2-0.1-0.4-0.2-0.5-0.3c1.5-1.7,2.4-3.8,2.8-6.2
			l1.7,0.3c-0.1,0.8-0.3,1.5-0.5,2.1c0.7,0.5,1.3,1,1.9,1.5L236.8,5.4L236.8,5.4z M242,7.2c-0.4-0.5-1-1.3-1.9-2.5
			c-0.1-0.1-0.2-0.2-0.3-0.3c-0.4,1.1-1.1,2.1-1.9,3c-0.5-0.4-1-0.7-1.4-0.9c1.5-1.7,2.4-3.8,2.8-6.2l1.7,0.3
			c-0.2,0.8-0.4,1.5-0.6,2.3c0.1,0.1,0.2,0.2,0.4,0.4c1.1,1.4,1.9,2.4,2.4,2.9L242,7.2L242,7.2z"/>
		<path class="st0" d="M245.6,15.6c-0.2-0.4-0.5-0.9-0.9-1.5c2.9-0.9,5-2,6.4-3.2h-5V4.2h5.6V3h-6.8V1.6h6.8V0.2h1.8v1.4h6.8v1.5
			h-6.8v1.2h5.6v6.6h-4.9c1.4,1.3,3.5,2.4,6.4,3.1c-0.3,0.4-0.6,0.9-0.9,1.5c-2.8-0.9-4.9-2-6.2-3.4V16h-1.8v-3.9
			C250.6,13.4,248.5,14.6,245.6,15.6L245.6,15.6z M247.9,5.6v1.3h3.9V5.6H247.9z M247.9,8.2v1.4h3.9V8.2H247.9z M257.5,5.6h-3.9v1.3
			h3.9V5.6z M253.6,8.2v1.4h3.9V8.2H253.6z"/>
		<path class="st0" d="M262.5,9.7c-0.1-0.7-0.3-1.5-0.5-2.4c1.1-1.9,2-4.3,2.7-7.1l1.6,0.4c-0.1,0.3-0.2,0.6-0.3,1.1
			c-0.4,1.1-0.6,2-0.9,2.6v11.8h-1.5V7.7c-0.1,0.2-0.3,0.6-0.5,1C262.9,9.1,262.7,9.5,262.5,9.7L262.5,9.7z M266.9,16.1
			c-0.4-0.4-0.8-0.7-1.3-0.9c0.9-1,1.7-1.9,2.2-2.7l1.3,0.8C268.4,14.2,267.7,15.2,266.9,16.1L266.9,16.1z M266.6,12.1V0.9h5.6v11.2
			L266.6,12.1L266.6,12.1z M268.1,2.4v1.8h2.7V2.4H268.1z M268.1,5.6v1.8h2.7V5.6H268.1z M268.1,8.8v1.8h2.7V8.8H268.1z M271.8,15.9
			c-0.2-0.4-0.6-0.9-1.2-1.7c-0.4-0.4-0.6-0.7-0.7-0.9l1.3-0.8c0.2,0.3,0.6,0.8,1.1,1.3c0.5,0.6,0.8,1,1,1.3L271.8,15.9L271.8,15.9z
			 M273.4,12.2V1.9h1.4v10.4L273.4,12.2L273.4,12.2z M274,15.8c0-0.3-0.1-0.8-0.3-1.3c0-0.1-0.1-0.2-0.1-0.3c0.3,0,0.7,0.1,1.4,0.1
			c0.7,0,1-0.2,1-0.8V0.3h1.5v13.6c0,1.1-0.6,1.8-1.9,1.9C275.3,15.8,274.7,15.8,274,15.8L274,15.8z"/>
		<path class="st0" d="M280.3,15.8v-13h1.8c0.1-0.5,0.3-1.1,0.5-2c0-0.3,0.1-0.5,0.1-0.6l1.9,0.3c-0.2,0.8-0.4,1.6-0.7,2.3h2.9v12.9
			h-1.7v-1.2H282v1.3H280.3L280.3,15.8z M282,4.4v3.4h3.1V4.4H282z M282,9.6V13h3.1V9.6H282z M289.2,15.7c-0.1-0.7-0.2-1.2-0.3-1.7
			h1.2c0.6,0,1,0.1,1.3,0.1c1.2,0,1.8-0.6,1.8-1.7c0-0.7,0.1-2.2,0.1-4.5c0-1.6,0.1-2.8,0.1-3.5h-3.6c-0.4,0.9-0.8,1.7-1.2,2.5
			c-0.1,0-0.2-0.1-0.4-0.3c-0.2-0.1-0.6-0.3-1.1-0.6c1-1.9,1.8-3.8,2.4-5.8l1.8,0.4c0,0.2-0.1,0.4-0.3,0.7c-0.2,0.6-0.4,1.1-0.5,1.5
			h4.8c-0.1,4.8-0.2,8.1-0.3,10c0,2-0.9,3-2.9,2.9C291.2,15.7,290.3,15.7,289.2,15.7L289.2,15.7z M290.6,11.3
			c-0.8-1.1-1.6-2.3-2.5-3.5l1.4-0.9c0.8,0.9,1.7,2.1,2.6,3.4L290.6,11.3L290.6,11.3z"/>
		<path class="st0" d="M297.3,3.3V1.8h7V0.2h1.8v1.6h7v1.5h-7v1.5h6.3v9.1c0,1.3-0.7,1.9-2,2c-0.5,0-1.4,0.1-2.7,0.1
			c0-0.1-0.1-0.3-0.1-0.6c-0.1-0.5-0.2-0.8-0.3-1.1h2.1c0.9,0,1.3-0.3,1.2-0.9V6.2h-10.8v9.7h-1.7V4.8h6.2V3.3
			C304.3,3.3,297.3,3.3,297.3,3.3z M300.9,10V8.6h2c0,0-0.1-0.1-0.2-0.3c-0.5-0.8-0.8-1.3-0.9-1.4l1.6-0.3c0.1,0.1,0.4,0.5,0.9,1.2
			c0.2,0.3,0.3,0.5,0.3,0.5l-0.7,0.3h1.7c0.2-0.3,0.5-0.8,0.9-1.5c0.2-0.3,0.4-0.5,0.4-0.6l1.6,0.3c0,0-0.1,0.1-0.1,0.2
			c-0.4,0.7-0.7,1.2-0.9,1.5h2V10h-3.5v1.4h3.9v1.4h-3.9v2.9h-1.7v-2.9h-3.8v-1.4h3.8V10L300.9,10L300.9,10z"/>
		<path class="st0" d="M316.7,8.3c-0.6-0.8-1.3-1.8-2.1-2.7l1.5-0.8c0.8,0.8,1.5,1.6,2.2,2.5C318.2,7.3,316.7,8.3,316.7,8.3z
			 M318.5,11.5c0-0.2-0.1-0.4-0.3-0.7c-0.1-0.3-0.2-0.5-0.3-0.7l-1.3,5.8l-1.7-0.5c0.5-1.7,1-3.7,1.5-6c0.2,0,0.4,0.1,0.7,0.2
			c0.4,0.1,0.6,0.2,0.7,0.3V9.9c1.5-0.8,2.7-1.9,3.6-3.3h-3V5.2h2.7V3.3h-2.1V1.9h2.1V0.2h1.7v1.7h3V0.2h1.7v1.7h2.4v1.4h-2.4v1.9h3
			v1.4h-3.2c0.8,1.3,2,2.3,3.5,3l-0.8,1.5c-1-0.6-1.8-1.2-2.5-1.9v3.3h-5.8v0.7c0,0.7,0.3,1,1.1,0.9h4.1c0.8,0,1.2-0.2,1.3-0.8
			c0-0.2,0.1-0.5,0.2-1c0-0.3,0.1-0.5,0.1-0.6c0.5,0.2,1,0.4,1.5,0.5c-0.1,0.7-0.2,1.3-0.4,1.8c-0.3,1-1.1,1.5-2.4,1.5h-5
			c-1.3,0-2-0.7-2.1-1.9v-3.4C319.6,10.7,319.1,11.1,318.5,11.5L318.5,11.5z M317.2,3.9c-0.3-0.4-0.8-1.1-1.5-1.9
			c-0.3-0.4-0.5-0.7-0.7-0.9l1.5-0.8l2.1,2.5C318.7,2.9,317.2,3.9,317.2,3.9z M321.7,9.6v1.7h4.2V9.6H321.7z M323.2,6.6
			c-0.4,0.6-0.8,1.2-1.3,1.7h4.7c-0.3-0.3-0.6-0.8-1.1-1.5c0-0.1-0.1-0.2-0.1-0.2L323.2,6.6L323.2,6.6z M322.8,3.3v1.9h3V3.3H322.8z
			"/>
		<path class="st0" d="M333.4,16c-0.4-0.4-0.9-0.9-1.3-1.3c0.6-1,1-2,1.2-3c0.2-1,0.3-2.5,0.3-4.6V0.9h13.5V5h-11.8v1.6h2.9V5.1h1.7
			v1.5h2.9V5.1h1.7v1.5h2.9v1.3h-2.9v1.5h3.5v1.3h-2l0.9,1.2c-0.8,0.4-1.7,0.9-2.5,1.3c0.9,0.5,2.2,0.8,3.8,0.9
			c-0.4,0.6-0.6,1.1-0.9,1.6c-3.9-0.8-6.3-2.5-7.4-5.1h-1.4v3.4c1-0.3,1.9-0.5,2.7-0.8c0,0.5,0,1,0.1,1.4c-2.4,0.6-4.1,1.1-5.2,1.5
			l-0.5-1.5c0.1,0,0.3,0,0.5-0.1c0.3,0,0.5-0.1,0.7-0.1v-3.8h-1.6C335.1,12.7,334.5,14.5,333.4,16L333.4,16z M335.4,7.9l-0.1,1.5h3
			V7.9H335.4L335.4,7.9z M335.4,2.3v1.4h10.1V2.3H335.4z M339.9,7.9v1.5h2.9V7.9H339.9z M343,12.5c1.2-0.7,2.2-1.2,2.9-1.7h-4.4
			C341.9,11.5,342.4,12,343,12.5L343,12.5z"/>
		<path class="st0" d="M351.5,13.4V7.6h12.2v5.7h-3.5v0.7c0,0.4,0.2,0.6,0.7,0.6h1.9c0.6,0,0.9-0.2,1-0.6c0.1-0.4,0.1-0.8,0.2-1.2
			c0.2,0,0.5,0.1,0.9,0.3c0.3,0.1,0.5,0.2,0.6,0.2c-0.1,0.4-0.2,0.9-0.4,1.3c-0.1,0.8-0.8,1.2-2,1.1h-2.8c-1.3,0-1.9-0.5-1.9-1.6
			v-0.9h-2.3c0,0.5-0.2,0.9-0.5,1.2c-0.6,0.8-2.3,1.4-5.2,1.7c0,0-0.1-0.1-0.1-0.3c-0.1-0.2-0.3-0.6-0.6-1.1
			c2.3-0.2,3.8-0.4,4.4-0.8c0.2-0.2,0.4-0.4,0.5-0.7L351.5,13.4L351.5,13.4z M350.5,6.9V0.7h6.6v0.9H355v0.9h1.8v2.6H355V6h2.1v0.9
			L350.5,6.9L350.5,6.9z M351.8,1.6v0.9h1.9V1.6H351.8z M355.5,3.4h-3.6v0.9h3.6V3.4z M351.8,5.1V6h1.9V5.1H351.8z M353.2,8.6v0.8
			h8.8V8.6H353.2z M353.2,10.2v0.7h8.8v-0.7C362.1,10.2,353.2,10.2,353.2,10.2z M353.2,11.7v0.7h8.8v-0.7H353.2z M357.9,3.8
			c-0.1-0.1-0.3-0.2-0.5-0.5S357,3,356.8,2.9c1-0.9,1.7-1.9,2.1-2.9l1.5,0.2c-0.1,0.3-0.3,0.6-0.5,0.9h5.2v1h-5.8
			c0,0.1-0.1,0.2-0.3,0.4C358.7,3.1,358.3,3.5,357.9,3.8L357.9,3.8z M357.8,6.9V4.1h7v2.8H357.8z M358.9,5V6h0.9V5H358.9z
			 M359.2,3.5V2.7h5.2v0.8H359.2z M360.8,5V6h0.9V5H360.8z M363.7,5h-0.9V6h0.9V5z"/>
		<path class="st0" d="M367.5,6c-0.1-0.2-0.2-0.5-0.3-0.9c-0.1-0.3-0.2-0.5-0.2-0.6c1.4-1.1,2.5-2.5,3.2-4.2l1.7,0.2l-0.3,0.6
			c0.7,0.6,1.5,1.4,2.5,2.4V2h3.7V0.2h1.7V2h3.7v2.8h-1.5V3.4h-6v1.4H374V4l-0.8,1l-1-1.2v1.1h-2.8V4.1C368.9,4.8,368.2,5.4,367.5,6
			L367.5,6z M367.7,16l-0.5-1.3l0.9-0.3V5.6h5.2v6h-3.8V14l2.1-0.7l-0.5-1l1.1-0.5l1.7,2.9l-1.3,0.7c0-0.1-0.1-0.2-0.2-0.5
			c-0.1-0.2-0.2-0.4-0.3-0.5c-0.5,0.2-1.3,0.5-2.4,0.9C368.8,15.6,368.1,15.8,367.7,16L367.7,16z M369.5,6.8V8h2.4V6.8H369.5z
			 M369.5,10.4h2.4V9.2h-2.4V10.4z M372,3.7l-0.6-0.6c-0.3-0.3-0.5-0.5-0.7-0.7c-0.3,0.5-0.6,0.9-1,1.3H372z M380.9,16v-0.7h-4.6
			v0.8h-1.5V5h7.4v4.4h-5.8v1.5h6.2V16L380.9,16L380.9,16z M376.2,6.3V8h4.3V6.3C380.5,6.3,376.2,6.3,376.2,6.3z M380.9,12.2h-4.6
			V14h4.6V12.2z"/>
		<path class="st0" d="M395,9.5l-1.4,1.3L390,6.8l1.3-1.1L395,9.5z"/>
		<path class="st0" d="M402.1,3.3V1.8h7V0.2h1.8v1.6h7v1.5h-7v1.5h6.3v9.1c0,1.3-0.7,1.9-2,2c-0.5,0-1.4,0.1-2.7,0.1
			c0-0.1-0.1-0.3-0.1-0.6c-0.1-0.5-0.2-0.8-0.3-1.1h2.1c0.9,0,1.3-0.3,1.2-0.9V6.2h-10.8v9.7h-1.7V4.8h6.2V3.3
			C409.1,3.3,402.1,3.3,402.1,3.3z M405.7,10V8.6h2c0,0-0.1-0.1-0.2-0.3c-0.5-0.8-0.8-1.3-0.9-1.4l1.6-0.3c0.1,0.1,0.4,0.5,0.9,1.2
			c0.2,0.3,0.3,0.5,0.3,0.5l-0.7,0.3h1.7c0.2-0.3,0.5-0.8,0.9-1.5c0.2-0.3,0.4-0.5,0.4-0.6l1.6,0.3c0,0-0.1,0.1-0.1,0.2
			c-0.4,0.7-0.7,1.2-0.9,1.5h2V10h-3.5v1.4h3.9v1.4h-3.9v2.9h-1.7v-2.9h-3.8v-1.4h3.8V10L405.7,10L405.7,10z"/>
		<path class="st0" d="M421.5,8.3c-0.6-0.8-1.3-1.8-2.1-2.7l1.5-0.8c0.8,0.8,1.5,1.6,2.2,2.5C423.1,7.3,421.5,8.3,421.5,8.3z
			 M423.4,11.5c0-0.2-0.1-0.4-0.3-0.7c-0.1-0.3-0.2-0.5-0.3-0.7l-1.3,5.8l-1.7-0.5c0.5-1.7,1-3.7,1.5-6c0.2,0,0.4,0.1,0.7,0.2
			c0.4,0.1,0.6,0.2,0.7,0.3V9.9c1.5-0.8,2.7-1.9,3.6-3.3h-3V5.2h2.7V3.3h-2.1V1.9h2.1V0.2h1.7v1.7h3V0.2h1.7v1.7h2.4v1.4h-2.4v1.9h3
			v1.4H432c0.8,1.3,2,2.3,3.5,3l-0.8,1.5c-1-0.6-1.8-1.2-2.5-1.9v3.3h-5.8v0.7c0,0.7,0.3,1,1.1,0.9h4.1c0.8,0,1.2-0.2,1.3-0.8
			c0-0.2,0.1-0.5,0.2-1c0-0.3,0.1-0.5,0.1-0.6c0.5,0.2,1,0.4,1.5,0.5c-0.1,0.7-0.2,1.3-0.4,1.8c-0.3,1-1.1,1.5-2.4,1.5h-5
			c-1.3,0-2-0.7-2.1-1.9v-3.4C424.4,10.7,423.9,11.1,423.4,11.5L423.4,11.5z M422,3.9c-0.3-0.4-0.8-1.1-1.5-1.9
			c-0.3-0.4-0.5-0.7-0.7-0.9l1.5-0.8l2.1,2.5C423.5,2.9,422,3.9,422,3.9z M426.5,9.6v1.7h4.2V9.6H426.5z M428.1,6.6
			c-0.4,0.6-0.8,1.2-1.3,1.7h4.7c-0.3-0.3-0.6-0.8-1.1-1.5c0-0.1-0.1-0.2-0.1-0.2L428.1,6.6L428.1,6.6z M427.7,3.3v1.9h3V3.3H427.7z
			"/>
		<path class="st0" d="M437.1,3V1.7h2.9V0.2h1.5v1.5h2.9v1.3h-2.9v1.3h2.6V11h-2.6v1.3h3v1.3h-3v2.5H440v-2.5h-3v-1.3h3V11h-2.5V4.3
			h2.5V3.1L437.1,3L437.1,3z M438.7,5.5v1.6h1.5V5.5H438.7z M438.7,8.2v1.6h1.5V8.2H438.7z M442.9,5.5h-1.4v1.6h1.4V5.5z M441.5,8.2
			v1.6h1.4V8.2H441.5z M444.7,16.1c-0.1-0.2-0.3-0.4-0.6-0.8c-0.3-0.3-0.5-0.6-0.6-0.7c2.2-1.3,3.5-3.4,3.9-6.1
			c0.1-1,0.2-2.1,0.2-3.4h1.6c0,0.3,0,0.7-0.1,1.2v1c0.3,3.3,1.6,5.7,4,7.2c-0.1,0.1-0.2,0.3-0.4,0.5c-0.4,0.4-0.6,0.8-0.7,1
			c-2-1.6-3.1-3.4-3.6-5.4C448,12.5,446.8,14.4,444.7,16.1L444.7,16.1z M451.8,7.4l-1.5-0.5l0.9-2.7h-4c-0.2,0.6-0.6,1.4-1.1,2.5
			c-0.1,0.3-0.2,0.5-0.3,0.6c-0.4-0.3-0.9-0.6-1.5-0.8c1-1.9,1.8-4,2.4-6.4l1.6,0.3c-0.2,0.8-0.4,1.5-0.6,2.3h5.1v1.6L451.8,7.4
			L451.8,7.4z"/>
		<path class="st0" d="M454.5,8.3V5.6h0.7V0.8h5.5v4.8h0.7v2.7h-0.8v6c0,1.1-0.4,1.6-1.3,1.7c-0.2,0-0.4,0-0.7,0.1h-0.6
			c0-0.5-0.1-0.9-0.3-1.3h1c0.4,0,0.6-0.2,0.5-0.5v-0.7h-2.4V16h-1.3V8.3L454.5,8.3L454.5,8.3z M455.8,6.8V8h4.2V6.8H455.8z
			 M456.5,2.1v3.5h0.9V3.2h1.9V2L456.5,2.1L456.5,2.1z M456.8,9.1v1.2h2.4V9.1H456.8z M456.8,11.3v1.2h2.4v-1.2H456.8z M458.3,4.3
			v1.3h1.1V4.3H458.3z M462,13v-3h7.6v3h-1.1l0.3,0.1c-0.3,0.4-0.5,0.9-0.9,1.3h2.6v1.2h-9.4v-1.2h2.6l-0.9-1.3l0.5-0.1L462,13
			L462,13z M461.4,9.2V8h9v1.2H461.4z M461.8,7.2V1.6h2.1V0.2h1.3v1.4h1.2V0.2h1.4v1.4h2.1v5.6C469.9,7.2,461.8,7.2,461.8,7.2z
			 M463,2.7v1.2h1.2V2.7H463z M463,4.8V6h1.2V4.8H463z M463.5,11v1h4.6v-1H463.5z M464.3,12.9c0,0.1,0.1,0.2,0.3,0.5
			c0.1,0.2,0.4,0.5,0.7,0.9h1.2l0.9-1.4H464.3z M465.2,2.7v1.2h1.2V2.7H465.2z M465.2,4.8V6h1.2V4.8H465.2z M468.6,2.7h-1.1v1.2h1.1
			V2.7z M467.5,4.8V6h1.1V4.8H467.5z"/>
		<path class="st0" d="M472.6,16.1V0.9h14.6v15.2h-1.7v-0.7h-11.3v0.7H472.6L472.6,16.1z M474.3,2.2v12h11.3v-12
			C485.6,2.2,474.3,2.2,474.3,2.2z M475.9,9.8V6.9h8v2.8c0,0,0.1,0,0.1-0.1h0.1l0.9,0.8c-0.5,0.4-1,0.7-1.5,1.1l1.7,0.9l-0.7,1
			c-1.1-0.6-2.4-1.3-4-2.1l0.7-0.9l1.3,0.6c0.3-0.2,0.8-0.6,1.3-1.1c0.1,0,0.1-0.1,0.2-0.1h-3.5c-0.2,0.3-0.4,0.5-0.7,0.6v2.2h0.2
			c0.5,0,1.1-0.1,1.8-0.3c0,0.3-0.1,0.6-0.1,1c-2.2,0.2-3.8,0.4-4.8,0.6l-0.2-1c0.5-0.1,1.1-0.1,1.6-0.2v-1.3c-0.9,0.5-1.9,1-3,1.5
			c0,0-0.1-0.1-0.2-0.3c-0.2-0.4-0.4-0.7-0.5-0.9c1.6-0.5,3-1.1,4.1-1.9L475.9,9.8L475.9,9.8z M475.7,4.3v-1h3.5V2.3h1.5v1.1h3.5v1
			h-3.5v0.9h4.2v1h-10v-1h4.2V4.3H475.7z M477.4,7.8v1h5v-1C482.5,7.8,477.4,7.8,477.4,7.8z"/>
		<path class="st0" d="M490.3,2.3V0.8h14.8v1.5h-12.7v11.3c0,0.4,0.2,0.5,0.7,0.5h12.2v1.4h-13c-1,0-1.5-0.5-1.5-1.4V2.3H490.3
			L490.3,2.3z M493.5,12.9V8.5h4.9v4.4H493.5z M494.8,7.4V3.3h8.3v4.1C503.1,7.4,494.8,7.4,494.8,7.4z M494.9,9.7v2.1h2.1V9.7
			C497,9.7,494.9,9.7,494.9,9.7z M496.4,4.6v1.7h5.1V4.6H496.4z M499.6,13V8.5h4.9V13H499.6z M501,9.7v2.1h2.3V9.7H501z"/>
		<path class="st0" d="M517.4,9.5l-1.4,1.3l-3.6-4.1l1.3-1.1L517.4,9.5L517.4,9.5z"/>
		<path class="st0" d="M524.5,3.3V1.8h7V0.2h1.8v1.6h7v1.5h-7v1.5h6.3v9.1c0,1.3-0.7,1.9-2,2c-0.5,0-1.4,0.1-2.7,0.1
			c0-0.1-0.1-0.3-0.1-0.6c-0.1-0.5-0.2-0.8-0.3-1.1h2.1c0.9,0,1.3-0.3,1.2-0.9V6.2H527v9.7h-1.7V4.8h6.2V3.3
			C531.4,3.3,524.5,3.3,524.5,3.3z M528.1,10V8.6h2c0,0-0.1-0.1-0.2-0.3c-0.5-0.8-0.8-1.3-0.9-1.4l1.6-0.3c0.1,0.1,0.4,0.5,0.9,1.2
			c0.2,0.3,0.3,0.5,0.3,0.5l-0.7,0.3h1.7c0.2-0.3,0.5-0.8,0.9-1.5c0.2-0.3,0.3-0.5,0.4-0.6l1.6,0.3c0,0-0.1,0.1-0.1,0.2
			c-0.4,0.7-0.7,1.2-0.9,1.5h2V10h-3.5v1.4h3.8v1.4h-3.8v2.9h-1.7v-2.9h-3.8v-1.4h3.8V10L528.1,10L528.1,10z"/>
		<path class="st0" d="M543.9,8.3c-0.6-0.8-1.3-1.8-2.1-2.7l1.5-0.8c0.8,0.8,1.5,1.6,2.2,2.5C545.4,7.3,543.9,8.3,543.9,8.3z
			 M545.7,11.5c0-0.2-0.1-0.4-0.3-0.7c-0.1-0.3-0.2-0.5-0.3-0.7l-1.3,5.8l-1.7-0.5c0.5-1.7,1-3.7,1.5-6c0.2,0,0.4,0.1,0.7,0.2
			c0.3,0.1,0.6,0.2,0.7,0.3V9.9c1.5-0.8,2.7-1.9,3.6-3.3h-3V5.2h2.7V3.3h-2.1V1.9h2.1V0.2h1.7v1.7h3V0.2h1.7v1.7h2.4v1.4h-2.4v1.9h3
			v1.4h-3.2c0.8,1.3,2,2.3,3.5,3l-0.8,1.5c-1-0.6-1.8-1.2-2.5-1.9v3.3h-5.8v0.7c0,0.7,0.3,1,1.1,0.9h4.1c0.8,0,1.2-0.2,1.3-0.8
			c0-0.2,0.1-0.5,0.2-1c0-0.3,0.1-0.5,0.1-0.6c0.5,0.2,1,0.4,1.5,0.5c-0.1,0.7-0.2,1.3-0.4,1.8c-0.3,1-1.1,1.5-2.4,1.5h-5
			c-1.3,0-2-0.7-2.1-1.9v-3.4C546.8,10.7,546.2,11.1,545.7,11.5L545.7,11.5z M544.3,3.9c-0.3-0.4-0.8-1.1-1.5-1.9
			c-0.3-0.4-0.5-0.7-0.7-0.9l1.5-0.8l2.1,2.5C545.9,2.9,544.3,3.9,544.3,3.9z M548.9,9.6v1.7h4.2V9.6H548.9z M550.4,6.6
			c-0.4,0.6-0.8,1.2-1.3,1.7h4.7c-0.3-0.3-0.6-0.8-1.1-1.5c0-0.1-0.1-0.2-0.1-0.2C552.7,6.6,550.4,6.6,550.4,6.6z M550,3.3v1.9h3
			V3.3H550z"/>
		<path class="st0" d="M560,3.1V1.7h6.4V0.2h1.8v1.5h6.4v1.4h-6.4v1.3h5.4v6.7h-5.4v1.3h7v1.5h-7v2.3h-1.8v-2.3h-7v-1.5h7v-1.3h-5.3
			V4.4h5.3V3.1C566.4,3.1,560,3.1,560,3.1z M562.8,5.6v1.5h3.6V5.6H562.8z M562.8,8.3v1.5h3.6V8.3H562.8z M571.9,5.6h-3.7v1.5h3.7
			V5.6z M568.2,8.3v1.5h3.7V8.3H568.2z"/>
		<path class="st0" d="M0.3,40.7L0,38.9c1.1-0.1,2.2-0.3,3.4-0.4c0.2-0.8,0.4-1.8,0.7-3c0.4-1.8,0.7-3.1,0.9-3.9l1.7,0.3
			c-0.7,2.5-1.3,4.7-1.8,6.4l2-0.3c0,0.6,0,1.2,0,1.7C5.2,39.8,3,40.1,0.3,40.7L0.3,40.7z M0.2,30.7v-1.6h2.5V26h1.7v3.1H7v1.6
			C7,30.7,0.2,30.7,0.2,30.7z M1.7,37.3c0-0.3-0.1-0.7-0.3-1.2c-0.4-1.9-0.6-3.3-0.9-4.3l1.5-0.3c0,0.2,0.1,0.5,0.2,0.9
			c0.4,1.9,0.8,3.4,1,4.5L1.7,37.3L1.7,37.3z M7.4,41.8v-8.1h2.9v-7.8H12v3h4.1v1.6H12v3.2h3.4v8.1h-1.7v-1.1H9.1v1.1
			C9.1,41.8,7.4,41.8,7.4,41.8z M9.1,35.3v4h4.6v-4H9.1z"/>
		<path class="st0" d="M26.4,30.8V33c0,1.7-0.7,3-2.2,3.8L23.6,36c1.1-0.7,1.7-1.6,1.7-2.7H24v-2.5L26.4,30.8L26.4,30.8z"/>
		<path class="st0" d="M34.9,41.6V28.1h4.8c0.3-0.8,0.5-1.5,0.6-2.3l2.1,0.2c-0.1,0.3-0.2,0.7-0.5,1.2c-0.1,0.4-0.2,0.7-0.3,0.9h7.5
			v11.1c0.1,1.5-0.7,2.3-2.4,2.3l-2.5,0.1c0-0.1-0.1-0.3-0.1-0.5c-0.1-0.5-0.2-0.9-0.3-1.1H46c0.9,0,1.3-0.3,1.3-1v-9.1H36.7v11.8
			H34.9L34.9,41.6z M38.5,38.1v-6.3h6.8v6.3H38.5z M40.2,33.4v3.2h3.5v-3.2H40.2z"/>
		<path class="st0" d="M50.9,28.3v-1.6h15.9v1.6h-5.1v2.2h4.4v11.2h-1.7v-1H53.5v1h-1.7V30.5h4.3v-2.2
			C56.1,28.3,50.9,28.3,50.9,28.3z M62,37c-1.3,0-2-0.7-2-2v-2.9h-2.1c0,2.3-0.9,4.2-2.7,5.6c-0.4-0.4-0.8-0.9-1.3-1.3
			c1.6-1,2.4-2.4,2.3-4.4h-2.6v7.1h10.8V37C64.3,37,61.9,37,62,37z M57.8,28.3v2.2H60v-2.2H57.8z M61.7,34.6c0,0.5,0.3,0.8,0.9,0.7
			h1.7v-3.2h-2.7C61.7,32.2,61.7,34.6,61.7,34.6z"/>
		<path class="st0" d="M71.2,28.5h-3.1V27h5.2v1.9L71.1,32h2.1v1.5c-0.3,2-0.7,3.5-1.4,4.7c1,0.9,2.6,1.4,4.8,1.5h7.2
			c-0.2,0.5-0.4,1-0.5,1.5c-2.9,0-5.2,0-7-0.1c-2.3,0-4.2-0.6-5.5-1.6c-0.6,0.7-1.3,1.4-2.3,2.2c-0.1-0.1-0.2-0.4-0.5-0.7
			c-0.2-0.3-0.4-0.5-0.5-0.7c0.8-0.6,1.5-1.3,2.1-1.9c-0.6-0.7-1.2-1.8-1.8-3.2l1.3-0.7c0.4,1.2,0.9,2,1.3,2.6
			c0.5-0.9,0.8-2,0.9-3.5h-1.5l-0.4,0.5h-1.9L71.2,28.5L71.2,28.5z M73.5,37.9v-1.5h1.3v-5.8h1.7v5.8h1.7v-8c-1.2,0-2.5,0.1-3.8,0.2
			v-0.2c0-0.4-0.1-0.8-0.3-1.4c3.2-0.1,6.2-0.3,8.9-0.5l0.3,1.5c-1,0.1-2.1,0.2-3.3,0.3v3h3.1v1.5H80v3.5h3.4V38L73.5,37.9
			L73.5,37.9z"/>
		<path class="st0" d="M86.5,41.7v-8.2c-0.4,0.7-0.9,1.4-1.5,2.1c0-0.4-0.1-0.9-0.3-1.5c0-0.4-0.1-0.7-0.1-0.9
			c1.4-2.2,2.5-4.7,3.2-7.4l1.7,0.4c-0.4,1.4-0.9,2.7-1.5,3.9v11.5C88.2,41.7,86.5,41.7,86.5,41.7z M94.2,41.8v-4.1h-2.5v0.9H90v-10
			h4.2V26h1.7v2.7h4.2v10h-1.7v-0.9h-2.5v4.1H94.2L94.2,41.8z M91.6,30.2v2.3h2.5v-2.3H91.6z M91.6,33.9v2.3h2.5v-2.3H91.6z
			 M98.3,30.2h-2.5v2.3h2.5C98.3,32.5,98.3,30.2,98.3,30.2z M95.9,33.9v2.3h2.5v-2.3H95.9z"/>
		<path class="st0" d="M102.8,37.2v-1.6h5.9v-2.1h1.9v2.1h5.9v1.6h-5.9v2.3h7v1.5h-15.9v-1.5h7v-2.3
			C108.8,37.2,102.8,37.2,102.8,37.2z M102.2,28.4v-1.6h15v1.6h-7.6c-0.8,1-1.9,2.2-3.2,3.7l6.8-0.3c-0.6-0.7-1.3-1.3-1.9-1.9l1.3-1
			c1.1,0.9,2.6,2.3,4.6,4.2l-1.5,1.2l-1.1-1.1c-1.7,0.1-4.2,0.2-7.6,0.4c-2.2,0.1-3.7,0.2-4.4,0.2l-0.3-1.5l1.7-0.1
			c1.4-1.6,2.4-2.9,3.1-3.8L102.2,28.4L102.2,28.4z"/>
		<path class="st0" d="M120.4,41.8v-8.4c-0.1,0.1-0.2,0.2-0.3,0.5c-0.4,0.8-0.8,1.4-1.1,1.7c-0.1-0.7-0.3-1.5-0.4-2.3
			c1.3-2,2.3-4.5,3.1-7.4l1.7,0.5c-0.3,1.2-0.8,2.5-1.3,3.6v11.7L120.4,41.8L120.4,41.8z M123.3,30.5v-1.4h11.3v1.4H123.3z
			 M124,32.8v-1.3h9.7v1.3H124z M124,35.1v-1.3h9.7v1.3H124z M124.1,41.8v-5.6h9.6v5.6H132v-0.9h-6.2v0.9H124.1z M124.8,28.1v-1.3
			h8.2v1.3H124.8z M125.8,37.5v2.1h6.2v-2.1H125.8z"/>
		<path class="st0" d="M135.9,28.7v-1.2h4.2l-1.3-1.3l1.7-0.3c0.6,0.4,1.1,1,1.7,1.6l-0.1,0.1h2.9l-0.2-0.1c0.7-0.6,1.3-1.1,1.8-1.6
			l1.7,0.3c-0.4,0.4-0.9,0.9-1.3,1.3h4.3v1.2h-6.8v0.9h5.9v1.1h-5.9v0.9h7.2v1.3h-15.9v-1.3h7.1v-0.9h-5.8v-1.1h5.8v-0.9H135.9
			L135.9,28.7z M149.2,41.7c-1,0-1.9-0.3-2.5-1.1c-0.1-0.2-0.3-0.3-0.4-0.5c-1.1,0.5-2.3,1-3.6,1.5c0-0.2-0.2-0.5-0.5-1
			c-0.1-0.1-0.2-0.2-0.2-0.3c0.1,0,0.2-0.1,0.4-0.1c1.5-0.3,2.5-0.7,3.2-1.1c-0.3-0.7-0.6-1.4-0.8-2.3h-3.9v1l2.7-0.2v1.2l-2.7,0.3
			v0.9c0,1.1-0.6,1.6-1.8,1.7h-2.1c0-0.2-0.1-0.5-0.3-0.9c0-0.1-0.1-0.2-0.1-0.3c0.4,0,0.9,0.1,1.5,0.1c0.7,0,1.1-0.3,1.1-0.8v-0.5
			l-3.4,0.3l-0.3-1.3l3.6-0.2v-1.1h-3.6v-1.3h3.6v-0.9l-2.7,0.1c0-0.1,0-0.3-0.1-0.5c0-0.2-0.1-0.4-0.1-0.5c2.5,0,4.7-0.1,6.6-0.3
			l0.2,1h-0.2c-0.7,0.1-1.4,0.1-2.1,0.1v0.9h3.6c-0.1-0.7-0.1-1.4-0.1-2.3h1.6c0,0.8,0.1,1.5,0.2,2.3h2.8c0,0-0.1-0.1-0.2-0.2
			c-0.4-0.3-0.9-0.8-1.6-1.3l1-0.9c0.2,0.1,0.4,0.3,0.8,0.6c0.5,0.4,0.8,0.7,1.1,0.9l-1.1,0.9h2.5v1.3h-5.1c0.1,0.6,0.3,1.1,0.5,1.5
			c0.8-0.4,1.5-0.9,2.1-1.5l1,0.9c-0.8,0.7-1.6,1.3-2.4,1.8c0.1,0,0.2,0.1,0.3,0.2c0.1,0.1,0.2,0.2,0.3,0.2c0.3,0.2,0.6,0.3,0.9,0.3
			c0.4,0,0.6-0.2,0.7-0.5c0.1-0.3,0.2-0.8,0.4-1.6c0.2,0.1,0.4,0.2,0.7,0.3c0.3,0.1,0.5,0.2,0.6,0.3c-0.1,0.5-0.3,1.1-0.5,1.6
			C150.8,41.2,150.2,41.7,149.2,41.7L149.2,41.7z"/>
		<path class="st0" d="M152.4,30.2v-1.4h7.2v1.4H152.4z M153,32.6v-1.3h6.2v1.3H153z M153,35v-1.3h6.2V35H153z M153.1,41.7v-5.6h5.9
			v5.5h-1.6v-0.7h-2.7v0.8L153.1,41.7L153.1,41.7z M153.3,27.7v-1.3h5.5v1.3H153.3z M154.7,37.5v2.1h2.7v-2.1H154.7z M159.8,33.1
			v-1.7h3.4v-5.5h1.8v5.5h3.4v1.7H165v8.6h-1.8v-8.6H159.8z"/>
		<path class="st0" d="M169.4,29.7v-1.1h7v-0.8h-5.8v-0.9h5.8v-1.1h1.9v1.1h5.7v1.7h1.5v1.1h-1.5v1.7h-5.7v0.7h6V33h-6v0.8h7v1
			h-15.6v-1h6.8V33h-6v-0.8h6v-0.7h-5.9v-0.9h5.9v-0.8H169.4L169.4,29.7z M169.4,41.3v-1.1h16.1v1.1H169.4L169.4,41.3z M170.9,39.5
			v-4h13v4H170.9z M172.6,36.3v0.8h3.9v-0.8H172.6z M172.6,37.9v0.8h3.9v-0.8H172.6z M182.3,27.8h-4.1v0.8h4.1V27.8z M178.2,29.7
			v0.8h4.1v-0.8H178.2z M182.2,36.3h-4v0.8h4V36.3z M178.2,37.9v0.8h4v-0.8H178.2z"/>
		<path class="st0" d="M187.2,28v-1.5H202V28h-12.7v11.4c0,0.3,0.2,0.5,0.7,0.5h12.2v1.4h-13c-1,0-1.5-0.5-1.5-1.4V28H187.2z
			 M190.4,38.7v-4.5h4.9v4.5H190.4z M191.8,33.2V29h8.3v4.1H191.8z M191.8,35.4v2.1h2.1v-2.1H191.8z M193.4,30.3V32h5.1v-1.7H193.4z
			 M196.6,38.7v-4.5h4.9v4.5H196.6z M197.9,35.4v2.1h2.3v-2.1H197.9z"/>
		<path class="st0" d="M212.7,30.8V33c0,1.7-0.7,3-2.2,3.8l-0.6-0.7c1.1-0.7,1.7-1.6,1.7-2.7h-1.3v-2.5L212.7,30.8L212.7,30.8z"/>
		<path class="st0" d="M221.8,32.5v-4.9h5.5v-1.7h1.9v1.7h5.4v4.9h-5.4V34h6.2v5.7h-1.8v-0.7h-4.4v2.9h-1.9v-2.9h-4.4v0.7h-1.8V34
			h6.2v-1.5H221.8L221.8,32.5z M222.8,35.4v2.1h4.4v-2.1H222.8z M223.6,29.1V31h3.7v-1.9H223.6z M232.9,29.1h-3.7V31h3.7V29.1z
			 M233.6,35.4h-4.4v2.1h4.4V35.4z"/>
		<path class="st0" d="M239.6,32.6c-0.9-0.9-1.8-1.8-2.7-2.5l1.1-1.1c0.4,0.4,1.1,0.9,2,1.7c0.3,0.3,0.5,0.5,0.7,0.7L239.6,32.6
			L239.6,32.6z M237.8,41.7l-0.7-1.8l1.8-1.7v-3.6h-1.7V33h3.3v5.1c0.8,1.2,2,1.8,3.8,1.7c2.8,0,5.8,0,9,0c-0.3,0.6-0.4,1.1-0.5,1.5
			c-4,0-6.9,0-8.8-0.1c-1.9,0-3.3-0.6-4.2-1.7C239.2,40,238.5,40.7,237.8,41.7z M240.1,29.4c-0.9-0.9-1.8-1.8-2.7-2.5l1.1-1.1
			c0.8,0.7,1.8,1.5,2.8,2.4L240.1,29.4L240.1,29.4z M241.8,28.5v-1.3h4.5V26h1.7v1.2h4.5v1.3h-4.5v1.2h4.1v6h-4.1v1.1h4.9v1.3h-4.9
			v1.3h-1.7v-1.3h-4.9v-1.3h4.9v-1.1h-4.1v-6h4.1v-1.2H241.8z M243.9,30.8v1.3h2.4v-1.3C246.3,30.8,243.9,30.8,243.9,30.8z
			 M243.9,33.2v1.3h2.4v-1.3H243.9z M250.5,30.8h-2.4v1.3h2.4C250.5,32.2,250.5,30.8,250.5,30.8z M248.1,33.2v1.3h2.4v-1.3H248.1z"
			/>
		<path class="st0" d="M255.6,33.4v-6h1.8v4.3h3.7V26h1.9v5.8h3.7v-4.3h1.9v6H263v5.9h4.3v-4.2h1.8v6.4h-1.8v-0.7h-10.6v0.7H255
			v-6.4h1.8v4.2h4.3v-5.9H255.6L255.6,33.4z"/>
		<path class="st0" d="M271,33.8v-1.3h16.1v1.3h-8.3v8h-1.5v-1.3c-1.1,0.1-2.4,0.2-4,0.4c-0.8,0.1-1.5,0.2-2,0.2l-0.2-1.3l1.4-0.1
			v-6L271,33.8L271,33.8z M273,31.6v-5h12v5H273z M274,33.8V35h3.2v-1.2H274z M274,36v1.1h3.2V36H274z M274,39.6
			c0.3,0,0.8,0,1.3-0.1c0.8,0,1.4-0.1,1.9-0.1v-1.1H274L274,39.6L274,39.6z M274.8,27.7v0.9h8.4v-0.9H274.8z M274.8,29.6v0.9h8.4
			v-0.9H274.8z M286.4,41.7c-1.4-0.4-2.5-1-3.4-1.7c-0.6,0.4-1.6,1-3.1,1.8c-0.2-0.4-0.4-0.9-0.8-1.4c1.1-0.3,2-0.8,2.7-1.2
			c-0.8-0.8-1.4-1.8-1.9-3l0.5-0.3h-0.9v-1.3h6.6v1.4c-0.5,1.2-1.2,2.2-1.9,3c0.8,0.4,1.8,0.8,2.9,1.1
			C286.8,40.6,286.6,41.1,286.4,41.7L286.4,41.7z M284.5,36h-3.1c0.5,0.9,1,1.7,1.6,2.3C283.5,37.6,284.1,36.9,284.5,36z"/>
		<path class="st0" d="M287.9,38.5v-1.4h2V26.7H302v10.4h2v1.4H287.9L287.9,38.5z M289.2,41.9c-0.2-0.5-0.4-1-0.8-1.5
			c2.1-0.3,3.9-0.9,5.4-1.7l0.9,1.3C292.9,40.7,291.1,41.4,289.2,41.9L289.2,41.9z M291.6,28v1.3h8.6V28H291.6z M291.6,30.6v1.3h8.6
			v-1.3H291.6z M291.6,33.1v1.4h8.6v-1.4H291.6z M291.6,35.7v1.4h8.6v-1.4H291.6z M302.6,41.9c-2.3-1.1-4.1-1.8-5.5-2.1l0.7-1.2
			c1.8,0.5,3.6,1.1,5.6,1.8C303.1,40.7,302.8,41.2,302.6,41.9L302.6,41.9z"/>
		<path class="st0" d="M306.4,41.8v-8.4c-0.4,0.8-0.8,1.5-1.3,2.3c0-0.5-0.1-1.1-0.3-1.8c0-0.2-0.1-0.4-0.1-0.5
			c1.1-2,2.1-4.5,2.8-7.4l1.6,0.3c-0.3,1.2-0.7,2.4-1.1,3.5v12.1L306.4,41.8L306.4,41.8z M309.4,41.9c0-0.1-0.1-0.2-0.1-0.4
			c-0.2-0.4-0.3-0.7-0.5-0.9c0.4-0.1,0.5-0.1,0.4-0.1c2.1-0.4,3.5-0.7,4.2-0.9l0.7,1.1C312.5,41.1,311,41.5,309.4,41.9L309.4,41.9z
			 M309.3,27.8v-1.2h11.5v1.2h-3.6v1.1h3.2V32h-11v-3.2h3.1v-1.1C312.5,27.8,309.3,27.8,309.3,27.8z M310,39.4v-6.5h9.8v6.5H310z
			 M310.9,29.9V31h1.7v-1.1H310.9z M311.7,33.9v0.9h6.4v-0.9H311.7z M311.7,35.7v0.9h6.4v-0.9H311.7z M311.7,37.5v0.9h6.4v-0.9
			H311.7z M314,27.8v1.1h1.8v-1.1H314z M314,29.9V31h1.8v-1.1H314z M320.3,41.7c-2-0.5-3.5-0.8-4.6-1.1l0.6-1.1
			c0.3,0,0.8,0.1,1.6,0.3c1.4,0.3,2.4,0.5,3,0.6L320.3,41.7L320.3,41.7z M319,29.9h-1.7V31h1.7V29.9z"/>
		<path class="st0" d="M323.4,41.7v-8.4c-0.4,0.7-0.8,1.4-1.3,2.2c0-0.2-0.1-0.5-0.3-1c-0.1-0.6-0.2-1-0.3-1.2
			c1.4-2.3,2.5-4.8,3.2-7.4l1.7,0.4c-0.4,1.3-0.9,2.6-1.4,3.8v11.6L323.4,41.7L323.4,41.7z M326.5,28.7v-1.4h4.5v-1.4h1.7v1.4h4.8
			v1.4h-4.8V30h3.9v9.8h1.3v1.4h-12v-1.4h1.3V30h3.8v-1.3H326.5L326.5,28.7z M328.9,31.4v1.3h6v-1.3
			C334.9,31.4,328.9,31.4,328.9,31.4z M328.9,33.8v1.3h6v-1.3H328.9z M328.9,36.3v1.3h6v-1.3H328.9z M328.9,38.7v1.1h6v-1.1H328.9z"
			/>
		<path class="st0" d="M339.3,41.5v-13h1.8c0.1-0.5,0.3-1.1,0.5-2c0-0.3,0.1-0.5,0.1-0.6l1.9,0.3c-0.2,0.8-0.4,1.6-0.7,2.3h2.9v13
			h-1.7v-1.2H341v1.3L339.3,41.5L339.3,41.5z M341,30.2v3.5h3.1v-3.5H341z M341,35.3v3.5h3.1v-3.5H341z M348.3,41.5
			c-0.1-0.7-0.2-1.2-0.3-1.7h1.2c0.6,0,1,0.1,1.3,0.1c1.2,0,1.8-0.6,1.8-1.7c0-0.7,0.1-2.2,0.1-4.5c0-1.6,0.1-2.8,0.1-3.5h-3.6
			c-0.4,0.9-0.8,1.7-1.2,2.5c-0.1,0-0.2-0.1-0.4-0.3c-0.2-0.1-0.6-0.3-1.1-0.6c1-1.9,1.8-3.8,2.4-5.8l1.8,0.4c0,0.2-0.1,0.4-0.3,0.7
			c-0.2,0.6-0.4,1.1-0.5,1.5h4.8c-0.1,4.8-0.2,8.2-0.3,10c0,2-0.9,3-2.9,2.9C350.2,41.4,349.3,41.5,348.3,41.5L348.3,41.5z
			 M349.7,37c-0.8-1.2-1.6-2.3-2.5-3.5l1.4-0.9c0.8,0.9,1.7,2.1,2.6,3.4L349.7,37L349.7,37z"/>
		<path class="st0" d="M355.7,32.4V31h15.9v1.3h-7.1v0.9h5.3V39h-12.4v-5.7h5.3v-0.9H355.7L355.7,32.4z M356.6,41.9
			c-0.3-0.6-0.5-1.1-0.7-1.4c0.4-0.1,1.1-0.2,2-0.5c1.6-0.3,2.9-0.5,3.7-0.8l0.8,1.1C360.7,40.9,358.8,41.4,356.6,41.9L356.6,41.9z
			 M356.2,28.5v-1.3h3.3v-1.3h1.7v1.3h4.9v-1.3h1.7v1.3h3.3v1.3h-3.3v1.7h-8.4v-1.7H356.2L356.2,28.5z M359.2,34.5v1.1h3.5v-1.1
			H359.2z M359.2,36.7v1.1h3.5v-1.1H359.2z M361.2,28.3v1.1h4.9v-1.1H361.2z M368.1,34.5h-3.6v1.1h3.6V34.5z M364.5,36.7v1.1h3.6
			v-1.1H364.5z M370.8,41.9c-2.1-0.6-4-1.1-5.9-1.5l0.7-1.1c2.1,0.4,4.1,0.8,5.8,1.2L370.8,41.9L370.8,41.9z"/>
		<path class="st0" d="M387.7,32.4c-0.8-0.3-1.5-0.7-2.2-1v1.3h-4v1.8h5.6V36h-5.6v3.7h6.6v1.5H373v-1.5h6.6V36H374v-1.6h5.6v-1.8
			h-4.1v-1.1c-0.6,0.3-1.3,0.6-2.1,1c-0.1-0.1-0.2-0.3-0.3-0.5c-0.3-0.5-0.5-0.8-0.7-1.1c3.7-1.4,6.2-3.1,7.6-5.2l2.1,0.2l-0.4,0.5
			c1.7,2,4,3.4,6.9,4.2c-0.1,0.2-0.2,0.5-0.5,0.9C388,31.9,387.8,32.2,387.7,32.4L387.7,32.4z M376.8,39.5c-0.4-0.4-1-1.2-2-2.4
			l1.3-0.9c0.5,0.5,1.1,1.2,1.9,2.1c-0.1-0.1,0,0,0.2,0.3L376.8,39.5L376.8,39.5z M380.7,27.7c-1.1,1.2-2.5,2.4-4.3,3.4h8.5
			C383.3,30.2,381.9,29.1,380.7,27.7z M384.2,39.5l-1.3-0.9c0,0,0.1-0.1,0.1-0.2c0.9-1,1.5-1.7,1.9-2.2l1.5,0.8
			C385.9,37.8,385.1,38.6,384.2,39.5L384.2,39.5z"/>
		<path class="st0" d="M389.6,40.6v-1.7h15.8v1.7H389.6z M390.6,29.2v-1.9h13.8v1.9H390.6z M391.4,34.8v-1.9h12.2v1.9H391.4z"/>
		<path class="st0" d="M407.8,32.2c-0.6-0.6-1.1-1-1.3-1.3c2.1-1.5,3.8-3.1,4.9-5.1l2,0.3l-0.8,1.1h6.2v1.4l-1.5,1.5h4v9.2
			c0,1.4-0.6,2.1-2.1,2.1c-0.5,0-1.3,0.1-2.3,0.1c0-0.4-0.2-0.9-0.3-1.6c0.4,0,1,0.1,1.9,0.1c0.8,0,1.1-0.3,1.1-0.9v-0.9h-9.6
			c-0.2,1.2-0.8,2.4-1.7,3.7c-0.7-0.5-1.2-0.9-1.7-1.1c0.8-0.9,1.4-1.8,1.6-2.7c0.2-0.8,0.3-2.2,0.3-4v-2.4
			C408.2,31.9,407.9,32,407.8,32.2L407.8,32.2z M416.5,28.7h-5c-0.4,0.5-0.8,1-1.3,1.5h5L416.5,28.7L416.5,28.7z M410.2,34.9
			c0,0.2,0,0.5-0.1,1v0.9h3.8v-1.9H410.2z M410.2,31.6v1.8h3.7v-1.8H410.2z M419.5,31.6h-3.9v1.8h3.9V31.6z M415.6,34.9v1.9h3.9
			v-1.9H415.6z"/>
		<path class="st0" d="M423.6,28.7v-1.3h2.7v-1.5h1.5v1.5h2.7v1.3h-2.7V30h2.3v6.6h-2.3v1.3h2.8v1.4h-2.8v2.5h-1.5v-2.5h-2.9v-1.4
			h2.9v-1.3h-2.4V30h2.4v-1.3C426.3,28.7,423.6,28.7,423.6,28.7z M425.2,31.2v1.5h1.3v-1.5C426.4,31.2,425.2,31.2,425.2,31.2z
			 M425.2,33.8v1.6h1.3v-1.6H425.2z M428.9,31.2h-1.3v1.5h1.3C428.9,32.7,428.9,31.2,428.9,31.2z M427.6,33.8v1.6h1.3v-1.6H427.6z
			 M431.2,41.7V28.8h3V26h1.5v2.9h3.1v12.9h-1.4v-1.1h-4.9v1.1H431.2L431.2,41.7z M432.6,30.4V34h1.7v-3.6
			C434.3,30.4,432.6,30.4,432.6,30.4z M432.6,35.5v3.8h1.7v-3.8H432.6z M437.5,30.4h-1.7V34h1.7C437.5,34,437.5,30.4,437.5,30.4z
			 M435.7,35.5v3.8h1.7v-3.8H435.7z"/>
		<path class="st0" d="M440.6,36.2l-0.5-1.5l1-0.1l1.6-2.4l-2.9-2.2l0.9-1.1c0.1,0.1,0.3,0.2,0.5,0.3c0.6-1.1,1.2-2.2,1.7-3.4
			l1.6,0.5c-0.7,1.3-1.5,2.5-2.3,3.7c0.4,0.3,0.8,0.5,1.1,0.8c0.5-0.8,1-1.6,1.5-2.4l1.3,0.7c-1.4,2.1-2.5,3.9-3.5,5.3l1.7-0.1
			l-0.5-1.3l1.1-0.3c0.5,1.3,1,2.5,1.3,3.4l-1.1,0.4v-0.1c0-0.2-0.1-0.5-0.3-0.7c-0.3,0-0.6,0-0.9,0.1V42h-1.5v-6l-0.5,0.1
			C441.6,36,441.1,36.1,440.6,36.2L440.6,36.2z M441.4,41.2c-0.2,0-0.5-0.1-0.8-0.1c-0.2,0-0.3-0.1-0.4-0.1c0.3-1.2,0.5-2.4,0.7-3.7
			l1.1,0.1C441.8,38.9,441.6,40.1,441.4,41.2L441.4,41.2z M445.4,39.9c0-0.1-0.1-0.3-0.2-0.5c-0.1-0.5-0.4-1.2-0.7-2.1l0.9-0.3
			c0,0.2,0.1,0.4,0.3,0.8c0.1,0.2,0.3,0.7,0.6,1.6c1-0.7,1.6-1.7,1.9-2.9h-1.7v-1.4h3.2v1.4c-0.3,1.8-1.4,3.3-3.3,4.6
			c-0.1-0.3-0.2-0.6-0.5-1.1c0-0.1-0.1-0.2-0.1-0.2L445.4,39.9L445.4,39.9z M446.9,33.8v-6.5h2.6c0.1-0.5,0.2-1,0.3-1.5l1.8,0.2
			l-0.5,1.3h4.2v6.5H452v0.5c0.3,0.8,0.6,1.5,0.9,2.1c0.8-0.7,1.5-1.3,2.1-2l1.1,1c-0.2,0.1-0.5,0.4-0.9,0.7
			c-0.2,0.2-0.8,0.6-1.6,1.3c0.7,0.8,1.6,1.5,2.7,2.1c-0.4,0.4-0.6,0.9-0.9,1.3c-1.7-1-2.9-2.2-3.6-3.7v2.5c0,1.1-0.5,1.7-1.7,1.7
			c-0.5,0-1.1,0.1-1.9,0.1c0,0,0-0.1-0.1-0.3c0-0.6-0.1-1-0.2-1.3h1.3c0.7,0,1-0.2,0.9-0.8v-5.5L446.9,33.8L446.9,33.8z M448.5,28.6
			V30h5.3v-1.4H448.5z M448.5,31.1v1.4h5.3v-1.4H448.5z"/>
		<path class="st0" d="M466.7,30.8V33c0,1.7-0.7,3-2.2,3.8l-0.6-0.7c1.1-0.7,1.7-1.6,1.7-2.7h-1.3v-2.5L466.7,30.8L466.7,30.8z"/>
		<path class="st0" d="M482.7,34.2v-1.9h5.5v1.9h-2.5v0.6h3.6v0.7h-3.6v0.7h3.2v0.7h-3.2v0.7h4.3v0.9h-2.2l0.7,0.7l-2,0.7
			c1,0.2,2.3,0.3,3.7,0.5c-0.3,0.6-0.5,1-0.6,1.3c-2.8-0.3-4.8-0.8-6.1-1.6c0,0.1,0,0.3-0.1,0.5c0,0.2-0.1,0.4-0.1,0.5
			c-0.3,0-0.7,0.1-1.3,0.2c-2.1,0.3-3.5,0.5-4.4,0.7l-0.4-1.1l1.1-0.1v-0.9c-1.1,0.4-2.5,0.7-3.9,1c0-0.1-0.1-0.2-0.1-0.3
			c-0.1-0.3-0.2-0.6-0.3-0.7c2.4-0.3,4.3-0.8,6-1.4h-5.6v-0.9h4.2v-0.7h-3.2v-0.7h3.2v-0.7H475v-0.7h3.6v-0.6h-2.4v-1.9h5.5v1.9
			h-1.4v0.6h3.9v-0.6L482.7,34.2L482.7,34.2z M474.7,27.7v-1h6.6v-0.9h1.7v0.9h6.6v1h-6.6v0.7h5.5v2h-5.5V31h6.8v2.2h-1.6v-1.3
			h-12.1v1.3h-1.6V31h6.8v-0.6h-5.5v-2h5.5v-0.7H474.7L474.7,27.7z M477.5,29v0.7h3.9V29H477.5z M477.6,33v0.7h2.7V33H477.6z
			 M481.7,38.7c-0.6,0.3-1.2,0.5-1.9,0.8v1l3.6-0.5C482.8,39.7,482.3,39.3,481.7,38.7L481.7,38.7z M480.3,35.5v0.7h3.9v-0.7H480.3z
			 M480.3,36.9v0.7h3.9v-0.7H480.3z M486.9,29h-3.9v0.7h3.9V29z M485.1,39.5c0.9-0.3,1.7-0.7,2.4-1.1h-4.3
			C483.7,38.8,484.3,39.2,485.1,39.5z M484.1,33v0.7h2.7V33H484.1z"/>
		<path class="st0" d="M491.3,30.4v-1.6h1.7v-2.9h1.7v2.9h1.5v1.6h-1.5v3.1l1.6-0.4v1.7l-1.6,0.4v4.6c0,1.1-0.5,1.7-1.7,1.8h-1.5
			c0-0.2-0.1-0.5-0.2-0.9c0-0.3-0.1-0.6-0.1-0.8h1.1c0.5,0,0.8-0.2,0.7-0.6v-3.7l-1.8,0.5l-0.2-1.9c0.6-0.1,1.3-0.3,2-0.4v-3.5
			L491.3,30.4L491.3,30.4z M497,28.6c0-0.4-0.2-0.9-0.3-1.6c3.2-0.1,6.4-0.3,9.6-0.5l0.3,1.6c-0.5,0-1.2,0.1-2.1,0.1
			c-0.8,0.1-1.5,0.1-1.9,0.1v2.3h4.6v1.6h-4.6v2.4h3.7v7.1h-1.7v-0.9h-5.7v0.9h-1.7v-7.1h3.7v-2.4h-4.3v-1.6h4.3v-2.3
			c-0.3,0-0.7,0-1.3,0.1C498.5,28.5,497.6,28.5,497,28.6L497,28.6z M498.8,36.2v3.2h5.7v-3.2H498.8z"/>
		<path class="st0" d="M523.5,30.7c-1.5-0.4-2.9-0.9-3.9-1.5v0.6h-7v-0.5l-1,0.4c-1.2,0.5-2.2,0.9-3,1.1l-0.7-1.5
			c3.3-0.9,5.9-2.1,7.6-3.5l2.3,0.1l-0.5,0.4c1.9,1.3,4.2,2.2,6.8,2.9l-0.2,0.4C523.8,30.2,523.6,30.5,523.5,30.7L523.5,30.7z
			 M509.4,35.4v-4.6h13.3v4.6H509.4z M510.4,41.8v-5.6h11.4v5.6H520v-0.5h-8v0.5L510.4,41.8L510.4,41.8z M511,31.8v2.4h4.2v-2.4H511
			z M513.4,34.1c-0.1-0.1-0.4-0.3-0.7-0.7c-0.3-0.3-0.6-0.6-0.8-0.8l0.9-0.7c0.1,0.1,0.3,0.2,0.6,0.5c0.5,0.5,0.9,0.8,1,0.9
			L513.4,34.1z M512.1,37.3v1h8v-1H512.1z M512.1,39.3v0.9h8v-0.9H512.1z M516.2,27.3c-0.1,0.1-0.3,0.2-0.7,0.4
			c-0.8,0.5-1.5,0.9-2,1.2h5.2C517.8,28.4,517,27.8,516.2,27.3L516.2,27.3z M521,31.8h-4.2v2.4h4.2C521,34.2,521,31.8,521,31.8z
			 M518.6,34.1l-0.9-0.8c0.5-0.4,1-0.9,1.5-1.4l1,0.7C519.7,33.2,519.1,33.7,518.6,34.1L518.6,34.1z"/>
		<path class="st0" d="M526.3,41.7c-0.4-0.4-0.9-0.9-1.3-1.3c0.6-1,1-2,1.2-3c0.2-1,0.3-2.5,0.3-4.6v-6.2H540v4.1h-11.8v1.6h2.9
			v-1.5h1.7v1.5h2.9v-1.5h1.7v1.5h2.9v1.3h-2.9v1.5h3.5v1.3h-2l0.9,1.2c-0.8,0.4-1.7,0.9-2.5,1.3c0.9,0.5,2.2,0.8,3.8,0.9
			c-0.3,0.6-0.6,1.2-0.9,1.6c-3.8-0.8-6.3-2.5-7.4-5h-1.4v3.4c1-0.3,1.9-0.5,2.7-0.8c0,0.5,0,1,0.1,1.4c-2.4,0.6-4.1,1.1-5.2,1.5
			l-0.5-1.5c0.1,0,0.3,0,0.5-0.1c0.3,0,0.5-0.1,0.7-0.1v-3.8h-1.6C527.9,38.4,527.3,40.2,526.3,41.7L526.3,41.7z M528.2,33.6
			l-0.1,1.5h3v-1.5H528.2z M528.2,28v1.4h10.1V28H528.2z M532.8,33.6v1.5h2.9v-1.5H532.8z M535.8,38.2c1.2-0.7,2.2-1.2,2.9-1.7h-4.4
			C534.8,37.2,535.3,37.8,535.8,38.2L535.8,38.2z"/>
		<path class="st0" d="M552.4,35.2l-1.4,1.3l-3.6-4l1.3-1.1L552.4,35.2L552.4,35.2z"/>
		<path class="st0" d="M558.7,28.8v-1.3h2.9v-1.5h1.5v1.5h2.9v1.3h-2.9V30h2.6v6.6h-2.6V38h3v1.3h-3v2.5h-1.5v-2.5h-3V38h3v-1.3
			h-2.5V30h2.5v-1.3H558.7z M560.3,31.2v1.6h1.5v-1.6H560.3z M560.3,33.9v1.6h1.5v-1.6H560.3z M564.5,31.2h-1.4v1.6h1.4V31.2z
			 M563.1,33.9v1.6h1.4v-1.6H563.1z M566.3,41.9c-0.1-0.2-0.3-0.4-0.6-0.8c-0.3-0.3-0.5-0.5-0.6-0.7c2.2-1.3,3.5-3.4,3.9-6.1
			c0.1-1,0.2-2.1,0.2-3.5h1.6c0,0.3,0,0.7-0.1,1.2v1c0.3,3.3,1.6,5.7,4,7.2c-0.1,0.1-0.2,0.3-0.4,0.5c-0.3,0.4-0.6,0.8-0.7,1
			c-2-1.6-3.1-3.4-3.6-5.4C569.6,38.2,568.4,40.1,566.3,41.9L566.3,41.9z M573.4,33.1l-1.5-0.5l0.9-2.7h-4c-0.2,0.6-0.6,1.4-1.1,2.5
			c-0.1,0.3-0.2,0.5-0.3,0.6c-0.4-0.3-0.9-0.6-1.5-0.8c1-1.9,1.8-4,2.4-6.4l1.6,0.3c-0.2,0.8-0.4,1.5-0.6,2.3h5.1V30L573.4,33.1
			L573.4,33.1z"/>
		<path class="st0" d="M0.1,59.8V57h0.7v-4.8h5.4V57h0.7v2.7H6.1v6c0,1.1-0.4,1.6-1.3,1.7c-0.2,0-0.4,0-0.7,0.1H3.5
			c0-0.5-0.1-0.9-0.3-1.3h1c0.4,0,0.6-0.2,0.5-0.5v-0.7H2.4v2.5H1.1v-7.7L0.1,59.8L0.1,59.8z M1.5,58.3v1.1h4.2v-1.1H1.5z M2.1,53.5
			V57h0.9v-2.3H5v-1.2C5,53.5,2.1,53.5,2.1,53.5z M2.4,60.6v1.2h2.4v-1.2H2.4z M2.4,62.7v1.2h2.4v-1.2H2.4z M3.9,55.7V57H5v-1.3H3.9
			z M7.6,64.4v-3h7.6v3h-1.1l0.3,0.1c-0.3,0.4-0.6,0.9-0.9,1.3h2.6V67H6.8v-1.2h2.6l-0.9-1.3L9,64.4L7.6,64.4L7.6,64.4z M7,60.6
			v-1.2h9v1.2C16,60.6,7,60.6,7,60.6z M7.4,58.6V53h2.1v-1.4h1.3V53H12v-1.4h1.4V53h2.1v5.6C15.5,58.6,7.4,58.6,7.4,58.6z M8.6,54.2
			v1.2h1.2v-1.2H8.6z M8.6,56.3v1.2h1.2v-1.2H8.6z M9.1,62.4v1h4.6v-1H9.1z M10,64.4c0,0.1,0.1,0.2,0.3,0.5c0.1,0.2,0.4,0.5,0.7,0.9
			h1.2l0.9-1.4H10z M10.8,54.2v1.2H12v-1.2H10.8z M10.8,56.3v1.2H12v-1.2H10.8z M14.2,54.2h-1.1v1.2h1.1V54.2z M13.1,56.3v1.2h1.1
			v-1.2H13.1z"/>
		<path class="st0" d="M29.2,60.9l-1.4,1.3l-3.6-4l1.3-1.1L29.2,60.9z"/>
		<path class="st0" d="M38.1,54.6v-1.4h6.4v-1.5h1.8v1.5h6.4v1.4h-6.4v1.3h5.4v6.7h-5.4v1.3h7v1.5h-7v2.3h-1.8v-2.3h-7v-1.5h7v-1.3
			h-5.3v-6.7h5.3v-1.3H38.1z M40.9,57.1v1.5h3.6v-1.5H40.9z M40.9,59.8v1.5h3.6v-1.5H40.9z M49.9,57.1h-3.7v1.5h3.7V57.1z
			 M46.2,59.8v1.5h3.7v-1.5H46.2z"/>
		<path class="st0" d="M56.2,66.4l-0.3-1.7c1.1-0.1,2.2-0.3,3.4-0.4c0.2-0.8,0.4-1.8,0.7-3c0.4-1.8,0.7-3.1,0.9-3.9l1.7,0.3
			c-0.7,2.5-1.3,4.7-1.8,6.4l2-0.3c0,0.6,0,1.2,0,1.7C61.1,65.5,58.9,65.9,56.2,66.4L56.2,66.4z M56.1,56.4v-1.6h2.5v-3.1h1.7v3.1
			h2.6v1.6H56.1z M57.6,63.1c0-0.3-0.1-0.7-0.3-1.2c-0.3-1.9-0.6-3.3-0.9-4.3l1.5-0.3c0,0.2,0.1,0.5,0.2,0.9c0.4,1.9,0.8,3.4,1,4.5
			L57.6,63.1L57.6,63.1z M63.3,67.5v-8.1h2.9v-7.8h1.7v3h4.1v1.6h-4.1v3.2h3.4v8.1h-1.7v-1.1H65v1.1C65,67.5,63.3,67.5,63.3,67.5z
			 M65,61v4h4.7v-4C69.7,61,65,61,65,61z"/>
		<path class="st0" d="M85.1,60.9l-1.4,1.3l-3.6-4l1.3-1.1C81.4,57.1,85.1,60.9,85.1,60.9z"/>
		<path class="st0" d="M93.4,56v-1.7h7v-2.7h2.1v2.7h6.7V56h-2.7c-0.7,2.8-1.9,5.1-3.7,7c1.6,1.2,3.8,2,6.5,2.7
			c-0.4,0.6-0.8,1.2-1.1,1.7c-2.9-0.9-5.2-1.9-6.9-3.1c-1.6,1.1-3.8,2.2-6.8,3.2c-0.3-0.5-0.6-1.1-1.1-1.8c2.5-0.6,4.7-1.5,6.5-2.7
			c-1.8-1.9-3.1-4.2-3.7-7L93.4,56L93.4,56z M101.2,61.7c1.6-1.5,2.7-3.4,3.2-5.8H98C98.6,58.3,99.7,60.2,101.2,61.7z"/>
		<path class="st0" d="M112.5,57.4c0-0.1-0.1-0.3-0.2-0.5c-0.1-0.1-0.2-0.5-0.5-1c2.3-1.2,4-2.6,5.1-4.3l1.9,0.2l-0.4,0.5
			c0.4,0.3,1,0.8,1.9,1.5c1.1,0.8,1.8,1.3,2.1,1.6l-1,1.2l-1.9-1.7v0.7h-4v-0.3c-0.4,0.4-0.9,0.8-1.5,1.1h7.2v5.4h-6.4
			c0,0.1,0,0.2-0.1,0.3c0,0.3-0.1,0.6-0.1,0.7h6.8v4.3h-1.5v-0.7h-4.1v0.7h-1.5v-3.5c-0.3,0.9-0.8,2-1.6,3.1
			c-0.1-0.1-0.2-0.3-0.5-0.5c-0.3-0.3-0.5-0.6-0.6-0.7c1.3-1.5,1.9-3.8,1.7-7v-1.8L112.5,57.4L112.5,57.4z M114.8,59.6v1.1h4.8v-1.1
			H114.8z M114.9,57.5v1.1h4.7v-1.1H114.9z M115.8,64v1.4h4.1V64C119.9,64,115.8,64,115.8,64z M119,54.6l-1.5-1.3
			c-0.3,0.4-0.7,0.9-1.2,1.3H119L119,54.6z M122.6,63.5v-10h1.5v10H122.6z M123.1,67.3v-0.1c0-0.4-0.1-0.9-0.3-1.5h1.8
			c0.8,0,1.1-0.3,1.1-0.9v-13h1.6v13.4c0,1.4-0.6,2.1-1.9,2.1C124.3,67.2,123.6,67.3,123.1,67.3L123.1,67.3z"/>
		<path class="st0" d="M141,60.9l-1.4,1.3l-3.6-4l1.3-1.1L141,60.9z"/>
		<path class="st0" d="M150.9,59.4c-0.4-0.3-1-0.6-1.7-1c1.3-1.7,2.4-3.7,3.1-6l1.9,0.3c-0.3,0.8-0.6,1.5-0.9,2.2h3.3v-3.3h1.9v3.3
			h5.8v1.7h-5.8v3.2h5.2v1.7h-5.2v3.6h6.6v1.5h-15.7v-1.5h7.2v-3.6H151v-1.7h5.7v-3.2h-4.1C152.2,57.5,151.6,58.4,150.9,59.4z"/>
		<path class="st0" d="M167.9,56.2v-1.6h1.9v-2.9h1.7v2.9h1.7v1.6h-1.7v2.9l1.7-0.4c0,0.6,0,1.2,0.1,1.7l-1.8,0.4v4.6
			c0,1.2-0.5,1.8-1.7,1.9c-0.2,0-0.4,0-0.7,0.1h-0.8c-0.1-0.6-0.2-1.2-0.3-1.7h1.2c0.5,0,0.8-0.2,0.7-0.7v-3.7l-2,0.5l-0.1-1.9
			c0.6-0.1,1.3-0.3,2.1-0.4v-3.2L167.9,56.2L167.9,56.2z M173.7,55.6V54h3.9v-2.4h1.7V54h4.2v1.6h-4.2v2.3h3.5v1.6
			c-0.8,2-1.9,3.5-3.1,4.6c1.1,0.7,2.4,1.3,4.1,1.7c-0.4,0.6-0.6,1.2-0.9,1.7c-1.9-0.7-3.4-1.4-4.6-2.2c-1.4,0.9-3.1,1.7-5,2.3
			c-0.1-0.2-0.4-0.5-0.7-1c-0.2-0.3-0.3-0.4-0.3-0.5c1.9-0.5,3.4-1.2,4.6-2c-1.1-1.1-2-2.5-2.8-4.4l0.5-0.2h-0.9v-1.5h3.7v-2.3
			L173.7,55.6L173.7,55.6z M181,59.4h-5c0.7,1.5,1.5,2.7,2.5,3.6C179.6,62,180.4,60.8,181,59.4L181,59.4z"/>
		<path class="st0" d="M196.9,60.9l-1.4,1.3l-3.6-4l1.3-1.1L196.9,60.9z"/>
		<path class="st0" d="M205.6,61.9l-0.5-1.3c0.1,0,0.2,0,0.4-0.1h0.3c0.6-0.8,1.2-1.6,1.7-2.5c-0.8-0.8-1.7-1.6-2.7-2.4l0.9-1
			l0.4,0.3c0.7-1,1.3-2.1,1.8-3.2l1.6,0.5c-0.2,0.3-0.4,0.6-0.7,1.1c-0.7,1.2-1.2,2-1.6,2.5l1.1,1c0.3-0.4,0.8-1.1,1.3-2
			c0.1-0.2,0.2-0.4,0.3-0.5l1.3,0.7c-1.1,1.7-2.4,3.5-3.8,5.5l1.9-0.1c0-0.1-0.1-0.3-0.2-0.7c-0.1-0.3-0.2-0.5-0.3-0.6l1.1-0.4
			c0.3,0.7,0.7,1.6,1.2,2.9c0,0.2,0.1,0.3,0.1,0.4l-1.3,0.4l-0.3-0.7h-0.9v6h-1.5v-5.9l-0.6,0.1c-0.2,0-0.4,0-0.7,0.1
			C205.9,61.9,205.7,61.9,205.6,61.9L205.6,61.9z M206.1,66.7l-1.2-0.1c0.3-1.5,0.5-2.7,0.7-3.7l1.1,0.1c0,0.4-0.1,1.1-0.3,1.9
			C206.3,65.6,206.2,66.2,206.1,66.7L206.1,66.7z M211.6,62.7v-1.5h9v1.5h-3.8v2.7h4.2v1.5H211v-1.2l-0.5,0.1
			c-0.2-0.8-0.5-1.8-0.9-3l1-0.3c0.2,0.4,0.4,1.2,0.8,2.3c0.1,0.3,0.1,0.5,0.2,0.6h3.6v-2.7L211.6,62.7L211.6,62.7z M213.1,60.7
			c-0.8-1.2-1.5-2.2-2.2-3c0.7-0.8,1.4-1.9,2.1-3.1l1.3,0.7c-0.8,1.1-1.4,1.9-1.8,2.4c0.7,0.8,1.3,1.5,1.9,2.3L213.1,60.7z
			 M211.4,54.1v-1.6h9.3v1.6H211.4z M216.4,60.7c-0.4-0.6-1-1.4-1.8-2.5c-0.2-0.3-0.4-0.5-0.5-0.6c0.8-1.1,1.6-2.1,2.1-3l1.3,0.7
			c-0.8,1.1-1.4,1.9-1.8,2.4c0.4,0.4,1,1.2,1.9,2.3L216.4,60.7L216.4,60.7z M219.6,60.7c-0.6-0.8-1.4-1.8-2.4-3.1
			c0.1-0.1,0.3-0.3,0.5-0.7c0.8-1.1,1.4-1.9,1.7-2.4l1.3,0.7c-0.3,0.4-0.8,1-1.4,1.8c-0.2,0.3-0.4,0.5-0.5,0.6
			c0.4,0.4,1,1.1,1.9,2.2L219.6,60.7L219.6,60.7z"/>
		<path class="st0" d="M224.4,67.6c0-0.2-0.2-0.4-0.3-0.8c-0.1-0.2-0.2-0.4-0.3-0.5c1.2-0.2,3.1-0.5,5.6-0.9c-0.2,0,0,0,0.5-0.1
			l0.6,1.1C228.4,66.8,226.4,67.2,224.4,67.6L224.4,67.6z M230.4,57.4c-0.2-0.3-0.4-0.5-0.6-0.8c-1.6,0.4-3.3,1-5.2,1.5l-0.5-1.3
			c0.1,0,0.2-0.1,0.3-0.1c0.1,0,0.2-0.1,0.3-0.1v-4.2c2,0,3.9-0.2,5.8-0.5l0.5,1.3c-1.4,0.2-3,0.4-4.7,0.5v2.4
			c0.3-0.1,0.6-0.2,1.1-0.3c0.7-0.2,1.2-0.3,1.5-0.4c-0.3-0.3-0.5-0.7-0.7-1l1.3-0.6c0.8,1,1.5,1.8,2,2.5c0.9-0.6,1.4-1.4,1.5-2.6
			h-1.3v-1.3h7.2c0,0.7,0,1.4-0.1,2.3c0,0.2-0.1,0.4-0.1,0.5c0,1.5-0.8,2.2-2.4,2.2h-1.8c-0.1-0.5-0.2-1-0.3-1.4
			c0.6,0,1.1,0.1,1.7,0.1c0.8,0,1.2-0.3,1.2-1v-0.5c0-0.4,0.1-0.7,0.1-0.9h-2.7c0,1.8-0.9,3.2-2.7,4.2c-0.2-0.3-0.5-0.6-0.9-0.9
			L230.4,57.4L230.4,57.4z M225.6,65v-6.8h12.2V65H225.6z M227.3,59.4v0.9h8.8v-0.9H227.3z M227.3,61.2v0.9h8.8v-0.9H227.3z
			 M227.3,63.1v0.9h8.8v-0.9H227.3z M238.9,67.5c-2.8-0.5-4.9-0.9-6-1.3l0.6-1.1c1.9,0.4,3.9,0.8,6,1L238.9,67.5L238.9,67.5z"/>
		<path class="st0" d="M243.4,56.4c-0.4-0.4-0.8-0.8-1.3-1.1c1.3-1,2.3-2.3,3-3.8l1.7,0.2c-0.2,0.4-0.4,0.9-0.7,1.3h4.2v1.3h-3.3
			c0.2,0.2,0.5,0.5,0.9,0.9c0.2,0.2,0.4,0.4,0.5,0.5l-1.1,0.9c-0.4-0.5-0.9-1.1-1.5-1.6l0.9-0.7h-1.5
			C245,54.8,244.3,55.6,243.4,56.4L243.4,56.4z M243.6,58.1v-1.3h5.7v-0.9h1.8v0.9h5.9v1.3h-5.9v1.3h7.1v1.5h-15.8v-1.5h6.9v-1.3
			H243.6L243.6,58.1z M242.9,63.6v-1.4h9.9v-1.3h1.8v1.3h3.1v1.4h-3.1v1.5c0,1.5-0.7,2.2-2.3,2.3c-0.6,0-1.5,0.1-2.6,0.1
			c0-0.3-0.1-0.6-0.2-1.1c0-0.2-0.1-0.4-0.1-0.5c0.8,0,1.5,0.1,2.2,0.1c0.9,0,1.3-0.3,1.3-1.1v-1.1h-6.4c0.4,0.3,1.1,0.8,2,1.5
			c-0.1,0,0,0,0.3,0.3l-1.2,1.1c-0.5-0.5-1.3-1.2-2.4-1.9l0.9-0.9L242.9,63.6L242.9,63.6z M251.4,55.9c-0.1-0.1-0.3-0.2-0.5-0.3
			c-0.4-0.3-0.7-0.4-0.9-0.5c1-1.1,1.8-2.3,2.3-3.6l1.7,0.2c-0.2,0.4-0.4,0.9-0.6,1.3h4.8v1.3h-3.6c0.2,0.1,0.4,0.3,0.8,0.7
			c0.3,0.3,0.6,0.5,0.7,0.7l-1.1,1c-0.5-0.5-1.1-1-1.7-1.5l0.9-0.8h-1.6C252.2,54.8,251.8,55.4,251.4,55.9L251.4,55.9z"/>
		<path class="st0" d="M261.1,57.8V56h6.9v-4.2h1.9V56h6.9v1.8H261.1L261.1,57.8z M262.8,67.3c-0.8-0.7-1.3-1.1-1.6-1.3
			c1.8-2,3.4-4.2,4.6-6.7l1.8,0.9C266,63.1,264.4,65.5,262.8,67.3z M274.8,67.1c-2-3.1-3.5-5.4-4.6-6.9l1.6-0.9
			c0.2,0.3,0.6,0.8,1.1,1.5c1.8,2.5,3,4.2,3.7,5.2L274.8,67.1L274.8,67.1z"/>
		<path class="st0" d="M279.9,57.7v-1.8h6.7c0-1,0.1-2.4,0.1-4.2h2l-0.1,4.2h6.7v1.8h-6.6c0.6,3.8,2.9,6.4,7,7.9
			c-0.4,0.4-0.9,1-1.3,1.7c-3.7-1.6-5.9-3.9-6.7-7c-0.7,3-2.9,5.4-6.7,7.2c-0.1-0.2-0.4-0.5-0.7-1c-0.3-0.3-0.4-0.5-0.5-0.7
			c4.2-1.8,6.5-4.5,6.8-8.1L279.9,57.7L279.9,57.7z"/>
		<path class="st0" d="M299,63v-8.2h6.2v-3.2h1.9v3.2h6.2v8.2h-1.9v-0.9h-4.3v5.5h-1.9v-5.5h-4.3V63L299,63L299,63z M300.9,56.5v3.8
			h4.3v-3.8H300.9z M311.5,56.5h-4.3v3.8h4.3V56.5z"/>
		<path class="st0" d="M318.4,63.6c-0.2-0.1-0.6-0.3-1.2-0.5c-0.3-0.1-0.4-0.2-0.5-0.2c0.8-2.4,1.4-4.5,1.8-6.3l1.8,0.5
			C319.7,59.4,319,61.5,318.4,63.6L318.4,63.6z M323.7,66.9c-1.9,0-2.8-0.8-2.7-2.6v-9.2h1.9v8.8c0,1,0.4,1.4,1.4,1.4h2.1
			c0.9,0,1.5-0.4,1.7-1.3c0-0.1,0-0.4,0.1-0.7c0.1-0.6,0.1-1.1,0.2-1.5c0.2,0,0.5,0.2,0.9,0.3c0.4,0.1,0.8,0.2,0.9,0.3
			c-0.1,1-0.3,1.9-0.5,2.7c-0.2,1.2-1.2,1.8-3,1.8L323.7,66.9L323.7,66.9z M326.3,56.7c-0.8-0.9-2-2.2-3.7-3.8l1.3-1.3
			c1.5,1.3,2.8,2.5,3.8,3.7L326.3,56.7L326.3,56.7z M331.2,62.5c-0.8-1.6-1.7-3.5-2.8-5.5l1.6-0.9c0.8,1.4,1.8,3.2,2.9,5.4
			L331.2,62.5L331.2,62.5z"/>
		<path class="st0" d="M344.9,56.5v2.2c0,1.7-0.7,3-2.2,3.8l-0.6-0.7c1.1-0.7,1.7-1.6,1.7-2.7h-1.3v-2.5L344.9,56.5L344.9,56.5z"/>
		<path class="st0" d="M354.5,54.2v-1.6h8.8v1.6h-1.7v4.3h2.1v1.7h-2.1v7.2H360v-7.2h-2.3c0,3.2-0.8,5.6-2.5,7.4
			c-0.1-0.1-0.4-0.3-0.7-0.6c-0.4-0.3-0.6-0.5-0.7-0.7c1.5-1.4,2.2-3.5,2.1-6.1h-1.9v-1.7h1.9v-4.3L354.5,54.2L354.5,54.2z
			 M357.7,54.2v4.3h2.3v-4.3H357.7z M363.6,67.5l-1.1-1.5c2.4-1.1,4.6-2.7,6.4-4.8l1.3,1.3C368.3,64.6,366.1,66.3,363.6,67.5
			L363.6,67.5z M364.2,57.1c0-0.1-0.1-0.2-0.3-0.4c-0.1-0.2-0.4-0.6-0.8-1.1c2.1-1.1,3.8-2.4,5.2-3.8l1.3,1.2
			C368.1,54.5,366.3,55.8,364.2,57.1L364.2,57.1z M364.2,62c-0.3-0.5-0.6-1-1.1-1.5c2.1-1,3.9-2.3,5.5-4l1.2,1.2
			C368.3,59.4,366.4,60.8,364.2,62L364.2,62z"/>
		<path class="st0" d="M373.1,55v-1.4h1.9c-0.1-0.2-0.3-0.5-0.6-1c-0.2-0.3-0.4-0.5-0.5-0.7l1.6-0.3c0.2,0.3,0.4,0.7,0.8,1.3
			c0.2,0.3,0.4,0.5,0.4,0.6l-0.4,0.1h1.2c0.2-0.3,0.5-0.8,0.8-1.3c0.2-0.3,0.3-0.5,0.4-0.7l1.6,0.3c0,0-0.1,0.1-0.1,0.2
			c-0.4,0.7-0.7,1.2-0.9,1.5h1.9V55H378v2.1c0,0.2,0,0.4-0.1,0.5h1.3v-1.8h1.4v3.7h-1.4V59h-1.5c-0.1,1.4-1,2.6-2.6,3.5h4.7v-0.9
			h1.3c-0.1-0.1-0.3-0.2-0.5-0.5c-0.3-0.2-0.5-0.3-0.6-0.4c1.3-0.9,1.9-2.6,1.8-5.1v-3.2h6.1v7.2c0,1.3-0.6,1.9-1.9,1.9
			c-0.4,0-1,0.1-1.9,0.1c0,0,0-0.2-0.1-0.3c0-0.5-0.1-0.8-0.2-1.1c0.4,0,0.9,0.1,1.6,0.1c0.6,0,0.9-0.3,0.9-0.9v-0.4H383
			c-0.2,0.9-0.7,1.8-1.5,2.7h0.1v0.9h5.7V64h-5.7v1.7h7.1v1.3h-15.9v-1.3h7.1V64h-5.5v-1.5h0.4l-1.3-0.7c1.6-0.8,2.5-1.7,2.7-2.7
			H375v0.5h-1.4v-3.7h1.4v1.8h1.3v-2.6L373.1,55L373.1,55z M383.3,56.3c0,0.5,0,0.9-0.1,1.3h3.1v-1.3H383.3z M383.4,53.7v1.4h3v-1.4
			H383.4z"/>
		<path class="st0" d="M391.3,59.5v-1.3h16.1v1.3h-8.3v8h-1.5v-1.3c-1.1,0.1-2.4,0.2-4,0.4c-0.8,0.1-1.5,0.2-2,0.2l-0.2-1.3l1.4-0.1
			v-6L391.3,59.5L391.3,59.5z M393.4,57.3v-5h12v5H393.4z M394.4,59.5v1.2h3.2v-1.2H394.4z M394.4,61.7v1.1h3.2v-1.1H394.4z
			 M394.4,65.3c0.3,0,0.8,0,1.3-0.1c0.8,0,1.4-0.1,1.9-0.1v-1.1h-3.2L394.4,65.3L394.4,65.3z M395.2,53.4v0.9h8.4v-0.9H395.2z
			 M395.2,55.3v0.9h8.4v-0.9H395.2z M406.7,67.4c-1.4-0.4-2.5-1-3.4-1.7c-0.6,0.4-1.6,1-3.1,1.8c-0.2-0.4-0.4-0.9-0.8-1.4
			c1.1-0.3,2-0.8,2.7-1.2c-0.8-0.8-1.4-1.8-1.9-3l0.5-0.3h-0.9v-1.3h6.6v1.4c-0.5,1.2-1.2,2.2-1.9,3c0.8,0.4,1.8,0.8,2.9,1.1
			C407.1,66.3,406.9,66.8,406.7,67.4L406.7,67.4z M404.8,61.7h-3.1c0.5,0.9,1,1.7,1.6,2.3C403.9,63.4,404.4,62.6,404.8,61.7z"/>
		<path class="st0" d="M410,64.2v-1.4h2V52.4H424v10.4h2v1.4H410L410,64.2z M411.3,67.6c-0.2-0.5-0.4-1-0.8-1.5
			c2.1-0.3,3.9-0.9,5.4-1.7l0.9,1.3C415,66.4,413.2,67.1,411.3,67.6L411.3,67.6z M413.7,53.8v1.3h8.6v-1.3H413.7z M413.7,56.3v1.3
			h8.6v-1.3H413.7z M413.7,58.8v1.4h8.6v-1.4H413.7z M413.7,61.4v1.4h8.6v-1.4H413.7z M424.6,67.6c-2.3-1.1-4.1-1.8-5.5-2.1l0.7-1.2
			c1.8,0.5,3.6,1.1,5.6,1.8C425.2,66.5,424.9,67,424.6,67.6L424.6,67.6z"/>
		<path class="st0" d="M429.7,55.8v-1.7h6v-2.5h1.9v2.5h6v1.7h-6v2.5h6.9V60h-6.1c1.5,2,3.6,3.6,6.3,4.7c-0.1,0.2-0.3,0.4-0.5,0.8
			c-0.3,0.3-0.5,0.6-0.6,0.8c-2.8-1.4-4.8-3-6-5v6.2h-1.9v-6.2c-1.5,2.3-3.5,4-6,5.2c-0.1-0.2-0.4-0.6-0.8-1.1
			c-0.1-0.2-0.2-0.3-0.3-0.4c2.8-1.4,4.9-3.1,6.3-5h-6.2v-1.7h7v-2.5L429.7,55.8L429.7,55.8z"/>
		<path class="st0" d="M447.6,55v-1.6h6.8v-1.9h1.9v1.9h6.8V55h-6.8v4.8c1.7,2.3,4.1,4,7.2,5c-0.4,0.5-0.7,1.1-0.9,1.6
			c-2.8-1.1-4.8-2.5-6.2-4.4v5.5h-1.9v-5.5c-1.5,1.9-3.6,3.4-6.2,4.5c-0.3-0.5-0.6-1-1-1.5c3-1.2,5.5-2.9,7.2-5.2V55H447.6L447.6,55
			z M452.6,60.7c-0.4-0.5-1-1.2-1.8-1.9c-0.5,0.9-1.2,1.8-2.1,2.7c-0.4-0.4-0.7-0.8-1.1-1.2c1.4-1.3,2.4-2.9,2.9-4.7l1.7,0.2
			c0,0.3-0.2,0.7-0.4,1.2c-0.1,0.2-0.2,0.4-0.2,0.5c0.6,0.5,1.4,1.1,2.2,1.9L452.6,60.7L452.6,60.7z M461.8,61.2
			c-0.2-0.2-0.4-0.4-0.8-0.8c-0.7-0.7-1.2-1.2-1.6-1.6c-0.4,0.6-0.9,1.2-1.4,1.8c-0.4-0.4-0.8-0.8-1.2-1.1c1.1-1,1.9-2.3,2.3-3.8
			l1.7,0.2c-0.1,0.6-0.3,1.1-0.6,1.7c0.4,0.3,1.1,0.9,1.9,1.6c0.4,0.3,0.7,0.6,0.9,0.8L461.8,61.2L461.8,61.2z"/>
		<path class="st0" d="M467.5,67.5v-8.4c-0.4,0.8-0.8,1.5-1.3,2.3c0-0.5-0.1-1.1-0.3-1.8c0-0.2-0.1-0.4-0.1-0.5
			c1.1-2,2.1-4.5,2.8-7.4l1.6,0.3c-0.3,1.2-0.7,2.4-1.1,3.5v12.1L467.5,67.5L467.5,67.5z M470.4,67.6c0-0.1-0.1-0.2-0.1-0.4
			c-0.2-0.4-0.3-0.7-0.5-0.9c0.4-0.1,0.5-0.1,0.4-0.1c2.1-0.4,3.5-0.7,4.2-0.9l0.7,1.1C473.6,66.8,472,67.2,470.4,67.6L470.4,67.6z
			 M470.3,53.5v-1.2h11.5v1.2h-3.6v1.1h3.2v3.2h-11v-3.2h3.1v-1.1H470.3z M471,65.1v-6.5h9.8v6.5H471z M471.9,55.6v1.1h1.7v-1.1
			H471.9z M472.7,59.6v0.9h6.4v-0.9H472.7z M472.7,61.4v0.9h6.4v-0.9H472.7z M472.7,63.2v0.9h6.4v-0.9
			C479.1,63.2,472.7,63.2,472.7,63.2z M475,53.5v1.1h1.8v-1.1H475z M475,55.6v1.1h1.8v-1.1H475z M481.3,67.4c-2-0.5-3.5-0.8-4.6-1.1
			l0.6-1.1c0.3,0,0.8,0.1,1.6,0.3c1.4,0.3,2.4,0.5,3,0.6L481.3,67.4L481.3,67.4z M480,55.6h-1.7v1.1h1.7V55.6z"/>
		<path class="st0" d="M486.2,67.4v-8.4c-0.4,0.7-0.8,1.4-1.3,2.2c0-0.2-0.1-0.5-0.3-1c-0.1-0.6-0.2-1-0.3-1.2
			c1.4-2.3,2.5-4.8,3.2-7.4l1.7,0.4c-0.4,1.3-0.9,2.6-1.4,3.8v11.6L486.2,67.4L486.2,67.4z M489.3,54.4V53h4.5v-1.4h1.7V53h4.8v1.4
			h-4.8v1.3h3.9v9.8h1.3V67h-12v-1.4h1.3v-9.8h3.8v-1.3L489.3,54.4L489.3,54.4z M491.6,57.1v1.3h6v-1.3H491.6z M491.6,59.5v1.3h6
			v-1.3H491.6z M491.6,62v1.3h6V62H491.6z M491.6,64.5v1.1h6v-1.1H491.6z"/>
		<path class="st0" d="M503.7,67.2v-13h1.8c0.1-0.5,0.3-1.2,0.5-2c0-0.3,0.1-0.5,0.1-0.6l1.9,0.3c-0.2,0.8-0.4,1.6-0.7,2.3h2.9v13
			h-1.7V66h-3.1v1.3L503.7,67.2L503.7,67.2z M505.5,55.9v3.5h3.1v-3.5H505.5z M505.5,61v3.4h3.1V61C508.6,61,505.5,61,505.5,61z
			 M512.7,67.2c-0.1-0.7-0.2-1.2-0.3-1.7h1.2c0.6,0,1,0.1,1.3,0.1c1.2,0,1.8-0.6,1.8-1.7c0-0.7,0.1-2.2,0.1-4.5
			c0-1.6,0.1-2.8,0.1-3.5h-3.7c-0.4,0.9-0.8,1.7-1.2,2.5c-0.1,0-0.2-0.1-0.4-0.3c-0.2-0.1-0.6-0.3-1.1-0.6c1-1.9,1.8-3.8,2.4-5.8
			l1.8,0.4c0,0.2-0.1,0.4-0.3,0.7c-0.2,0.6-0.3,1.1-0.5,1.5h4.8c-0.1,4.8-0.2,8.2-0.3,10c0,2-0.9,3-2.9,2.9
			C514.6,67.1,513.7,67.2,512.7,67.2L512.7,67.2z M514.1,62.7c-0.8-1.2-1.6-2.3-2.5-3.5l1.4-0.9c0.8,0.9,1.7,2.1,2.6,3.4L514.1,62.7
			L514.1,62.7z"/>
		<path class="st0" d="M523.6,59.4c-0.4-0.3-1-0.6-1.7-1c1.3-1.7,2.4-3.7,3.1-6l1.9,0.3c-0.3,0.8-0.5,1.5-0.9,2.2h3.3v-3.3h1.9v3.3
			h5.8v1.7h-5.8v3.2h5.2v1.7h-5.2v3.6h6.6v1.5h-15.7v-1.5h7.2v-3.6h-5.7v-1.7h5.7v-3.2h-4.1C524.8,57.5,524.3,58.4,523.6,59.4
			L523.6,59.4z"/>
		<path class="st0" d="M542.9,59.7c-0.9-0.9-1.8-1.7-2.7-2.4l1.2-1.2c1,0.7,2,1.5,2.8,2.3L542.9,59.7z M542.5,67.4l-1.8-0.6
			c0.8-2.2,1.4-4.2,1.9-5.9c0.5,0.2,1.1,0.4,1.7,0.6c-0.2,0.6-0.5,1.7-0.9,3.1C543,65.8,542.7,66.7,542.5,67.4L542.5,67.4z
			 M543.4,55.4c-1.1-1-1.9-1.8-2.6-2.3l1.1-1.2c1,0.7,1.9,1.4,2.7,2.2L543.4,55.4L543.4,55.4z M545.6,54.3l-0.2-1.6
			c3.8-0.1,7.2-0.2,10.2-0.5l0.2,1.5c-1.4,0.1-2.8,0.2-4.2,0.3v2.4h4.9V58h-4.9v2.4h3.9v7h-1.7v-0.9h-6.2v0.9h-1.8v-7h3.9V58h-4.8
			v-1.6h4.8v-2.3C548.3,54.2,546.9,54.2,545.6,54.3L545.6,54.3z M547.5,61.9v3.2h6.2v-3.2C553.7,61.9,547.5,61.9,547.5,61.9z"/>
		<path class="st0" d="M559.7,67.5V52.2h14.7v15.3h-1.7v-0.7h-11.4v0.7H559.7L559.7,67.5z M571.9,61.7c-0.9-0.4-1.7-0.9-2.3-1.6
			c0,0.2,0,0.5-0.1,0.9v0.6c-0.1,0.8-0.6,1.2-1.5,1.3h-1.7v-0.1c0-0.2-0.1-0.5-0.3-0.7h1.5c0.4,0,0.6-0.2,0.6-0.5
			c0-0.1,0.1-0.2,0.1-0.4H565v1.7c0,0.6,0.3,0.9,0.9,0.9h3c0.7,0,1-0.2,1.1-0.7c0.1-0.3,0.2-0.7,0.3-1.1c0.4,0.2,0.9,0.3,1.3,0.5
			c0,0.1-0.1,0.2-0.1,0.4c-0.1,0.4-0.2,0.7-0.3,0.9c-0.3,0.8-1,1.2-2.1,1.2h-3.7c-1.3,0-1.9-0.5-1.9-1.7v-1.9
			c-0.1,0-0.2,0.1-0.4,0.2c-0.2,0.1-0.6,0.4-1.3,0.7c-0.1-0.3-0.3-0.7-0.6-1.1v4.7h11.4v-12h-11.4v7.2c1.3-0.5,2.3-1.1,3-1.9h-2.5
			v-1.1h3.3c0,0,0-0.1,0.1-0.1c0.2-0.3,0.3-0.6,0.3-0.8h-3.2v-1.1h1.5c-0.3-0.4-0.6-0.9-1-1.3l1.3-0.3c0.4,0.4,0.8,0.9,1.1,1.4
			l-0.4,0.2h1.2c0.1-0.6,0.2-1.2,0.3-1.8h1.3c-0.1,0.7-0.2,1.3-0.3,1.8h2l-0.5-0.2c0.3-0.3,0.6-0.8,1.1-1.5l1.3,0.3
			c-0.3,0.4-0.6,0.9-1,1.3h1.7v1.1H569c0.1,0.3,0.3,0.7,0.5,0.9h2.7v1.1h-1.9c0.7,0.8,1.5,1.2,2.3,1.5c0,0.1-0.2,0.3-0.3,0.7
			C572.1,61.3,572,61.5,571.9,61.7L571.9,61.7z M566.1,58.9c-0.3,0.4-0.7,0.8-1.1,1.2h4.5c-0.4-0.4-0.7-0.8-0.9-1.2H566.1
			L566.1,58.9z M567,56.8c-0.1,0.3-0.2,0.7-0.3,0.9h1.4c-0.1-0.3-0.3-0.6-0.4-0.9H567z"/>
	</g>
</g>
</svg>
