<?xml version="1.0" encoding="utf-8"?>
<!-- Generator: Adobe Illustrator 27.0.0, SVG Export Plug-In . SVG Version: 6.00 Build 0)  -->
<svg version="1.1" id="_圖層_2" xmlns="http://www.w3.org/2000/svg" xmlns:xlink="http://www.w3.org/1999/xlink" x="0px" y="0px"
	 viewBox="0 0 511.5 42" style="enable-background:new 0 0 511.5 42;" xml:space="preserve">
<style type="text/css">
	.st0{fill:#231815;}
</style>
<g id="_圖層_1-2">
	<g>
		<path class="st0" d="M121.8,2.8V1.2h15.7v1.6h-7L130,4.8h6v11.2h-1.8v-1.1h-9v1.1h-1.8V4.8h4.7l0.5-2.1H121.8L121.8,2.8z
			 M125.1,6.5v2.7h9V6.5H125.1z M125.1,10.8v2.7h9v-2.7H125.1z"/>
		<path class="st0" d="M141.5,7.2c-0.1-0.1-0.2-0.3-0.4-0.6c-0.1-0.2-0.4-0.6-0.7-1c1.6-1.4,2.9-3.2,3.8-5.4l2,0.2
			C146,1,145.7,1.5,145.4,2h10.3v1.6h-5.4v2.6h5v1.6h-5v3.1h6v1.7h-6v3.7h-1.8v-3.6h-8.2v-1.7h2.5V6.2h5.7V3.6h-4.1
			C143.8,4.8,142.8,6,141.5,7.2z M144.6,7.8v3.1h3.9V7.8H144.6z"/>
		<path class="st0" d="M167.8,16.1c0,0-0.2-0.2-0.5-0.6c-0.2-0.3-0.4-0.5-0.5-0.6c1.2-0.8,2.2-1.5,2.9-2.1c-0.5-1.2-0.9-2.8-1.1-4.8
			h-6.6v1c0.1,3.3-0.5,5.7-1.7,7.2c-0.4-0.4-0.8-0.8-1.3-1.2c0.6-0.9,0.9-1.7,1.1-2.5c0.2-0.8,0.3-2,0.3-3.8V6.6h8V5.4h1.6
			c0,0.4,0,0.8,0.1,1.1h1.8l-0.7-1l1.4-0.3c0.3,0.3,0.6,0.8,1,1.3h1.4V8h-4.8c0.1,1.4,0.4,2.5,0.7,3.5c0.6-0.7,1.1-1.6,1.7-2.7
			l1.3,0.8c-0.7,1.2-1.5,2.3-2.5,3.4l0.1,0.1c0.4,0.8,0.8,1.3,1.3,1.3c0.3,0,0.4-0.1,0.5-0.5c0.1-0.3,0.2-0.8,0.3-1.5
			c0-0.2,0.1-0.3,0.1-0.4c0.7,0.3,1.1,0.5,1.4,0.6c0,0.1,0,0.2-0.1,0.3c-0.1,0.4-0.2,1-0.4,1.7c-0.3,0.9-0.9,1.4-1.9,1.4
			c-1,0-1.9-0.6-2.6-1.8C169.5,14.8,168.7,15.5,167.8,16.1L167.8,16.1z M159.5,5V3.7h2.9V0.9h1.7v2.9h2.8V0.2h1.7v1.1h5.3v1.2h-5.3
			v1.2h6.3v1.3L159.5,5L159.5,5z M162.5,16.1c0,0,0-0.1-0.1-0.1c-0.3-0.4-0.5-0.8-0.7-1.1c2.5-0.8,4.5-2,5.8-3.9l0.9,0.9
			C166.9,13.8,164.9,15.2,162.5,16.1L162.5,16.1z M162.9,13.3c-0.2-0.2-0.6-0.4-1-0.6c0.5-0.9,0.9-1.6,1.2-2.2l1,0.5
			C163.7,11.8,163.3,12.6,162.9,13.3L162.9,13.3z M162.6,9.9V8.7h5.3v1.2h-1.7v1.6c0.1,1.1-0.7,1.6-2.3,1.6c0-0.1,0-0.4-0.1-0.7
			c-0.1-0.2-0.1-0.4-0.1-0.5c1,0.1,1.4-0.1,1.3-0.7V9.9H162.6L162.6,9.9z"/>
		<path class="st0" d="M179.6,16.2c-0.1-0.1-0.4-0.4-0.7-0.7c-0.4-0.3-0.6-0.6-0.8-0.7c0.9-0.9,1.5-1.9,1.8-3.1
			c0.3-1.1,0.5-2.7,0.5-5V1h11.4v12.1c0,1.7-0.8,2.6-2.6,2.7c-0.6,0-1.5,0.1-2.8,0.1c0-0.3-0.1-0.7-0.3-1.3c0-0.2-0.1-0.4-0.1-0.5
			c0.7,0,1.5,0.1,2.5,0.1c1,0,1.4-0.4,1.4-1.3v-1.7h-8C181.7,12.8,180.9,14.5,179.6,16.2L179.6,16.2z M182.2,6.8c0,1,0,1.9-0.1,2.7
			h7.8V6.8H182.2L182.2,6.8z M182.2,2.7v2.6h7.8V2.7C189.9,2.7,182.2,2.7,182.2,2.7z"/>
		<path class="st0" d="M209.2,11.6v-0.7h-4.1c-0.2,1-0.5,1.8-1.1,2.5c1.5,0.5,4.3,0.8,8.4,0.9c-0.1,0.1-0.2,0.4-0.4,0.9
			c-0.2,0.3-0.3,0.5-0.3,0.7c-4.2-0.1-7.2-0.5-9.1-1.3c-1,0.6-2.7,1.2-5.1,1.8c-0.1-0.1-0.2-0.4-0.4-0.7c-0.3-0.4-0.5-0.7-0.6-0.9
			c2.3-0.4,3.7-0.7,4.2-0.9c-0.8-0.5-1.5-1.1-2.2-1.9l1.2-0.9h-1.8V3.7h5.6V2.4h-6.8V0.9h15.3v1.5h-6.7v1.3h5.5v7.9L209.2,11.6
			L209.2,11.6z M199.7,5.2v1.5h3.9V5.2H199.7z M203.5,9.4c0-0.4,0.1-0.9,0.1-1.5h-3.9v1.5H203.5L203.5,9.4z M199.8,10.9
			c1,0.9,1.8,1.5,2.5,1.8c0.5-0.4,0.9-1,1-1.8H199.8L199.8,10.9z M205.3,8c0,0.2,0,0.4-0.1,0.7c0,0.4,0,0.6-0.1,0.7h4V8H205.3
			L205.3,8z M209.2,5.2h-3.8v0.7c0,0.3-0.1,0.6-0.1,0.8h3.9L209.2,5.2L209.2,5.2z"/>
		<path class="st0" d="M217.9,6.8c-0.4-0.3-1-0.8-1.9-1.4c-0.5-0.4-0.9-0.7-1.1-0.9l1-1.3c0.1,0.1,0.3,0.2,0.6,0.4
			c1.1,0.8,1.9,1.4,2.5,1.8L217.9,6.8L217.9,6.8z M215.8,16l-0.7-1.9c0,0,0.1-0.1,0.2-0.1c0.5-0.5,1.1-1,1.7-1.5V9h-1.8V7.4h3.5v5.1
			c0.7,1.1,1.9,1.7,3.6,1.7h8.8c-0.2,0.4-0.4,1-0.5,1.6c-0.9,0-2.4,0-4.4-0.1c-2,0-3.4,0-4.3-0.1c-1.9,0-3.3-0.6-4.1-1.7
			C217.2,14.5,216.5,15.2,215.8,16z M218.5,3.6c-1.4-1.1-2.4-1.8-3-2.3l1-1.3c0.3,0.2,0.7,0.5,1.2,0.9c0.8,0.6,1.5,1.1,1.9,1.4
			L218.5,3.6L218.5,3.6z M221.5,6.4c-0.6-0.3-1.1-0.5-1.5-0.6c0.8-1.4,1.4-3,1.7-4.8l1.6,0.3c-0.1,0.4-0.2,0.8-0.4,1.4
			c0,0.2-0.1,0.3-0.1,0.4h2c0-0.8,0.1-1.8,0.1-2.7h1.8L226.6,3h3.6v1.5h-3.6l-0.1,1.9V7h4.4v1.5h-4.7v0.2c0.6,0.4,1.5,1.1,2.5,1.9
			c0.8,0.6,1.5,1.1,1.9,1.5l-1.1,1.5c-1.6-1.5-2.9-2.6-4.1-3.4c-0.7,1.2-2.1,2.4-4.4,3.6c-0.3-0.5-0.7-1-1.1-1.5
			c2.4-1.1,3.8-2.3,4.3-3.7h-4.5V7h4.9l0.1-0.6c0-0.8,0-1.3,0.1-1.8h-2.5C222.1,5.2,221.9,5.8,221.5,6.4L221.5,6.4z"/>
		<path class="st0" d="M243.2,5.1v2.2c0,1.7-0.7,3-2.2,3.8l-0.6-0.7c1.1-0.7,1.7-1.6,1.7-2.7h-1.3V5.1L243.2,5.1L243.2,5.1z"/>
		<path class="st0" d="M252.6,3.4V1.9h7V0.3h1.8v1.6h7v1.5h-7v1.5h6.3v9.1c0,1.3-0.7,1.9-2,2c-0.5,0-1.4,0.1-2.7,0.1
			c0-0.1-0.1-0.3-0.1-0.6c-0.1-0.5-0.2-0.8-0.3-1.1h2.1c0.9,0,1.3-0.3,1.2-0.9V6.3h-10.8V16h-1.7V4.8h6.2V3.4L252.6,3.4L252.6,3.4z
			 M256.2,10V8.7h2c0,0-0.1-0.1-0.2-0.3c-0.5-0.8-0.8-1.3-0.9-1.4l1.6-0.3c0.1,0.1,0.4,0.5,0.9,1.2c0.2,0.3,0.3,0.5,0.3,0.5
			l-0.7,0.3h1.7c0.2-0.3,0.5-0.8,0.9-1.5c0.2-0.3,0.4-0.5,0.4-0.6l1.6,0.3c0,0-0.1,0.1-0.1,0.2c-0.4,0.7-0.7,1.2-0.9,1.5h2V10h-3.5
			v1.4h3.9v1.4h-3.9v2.9h-1.7v-2.9h-3.8v-1.4h3.8V10L256.2,10L256.2,10z"/>
		<path class="st0" d="M273.3,8.4c-0.6-0.8-1.3-1.8-2.1-2.7l1.5-0.8c0.8,0.8,1.5,1.6,2.2,2.5C274.8,7.4,273.3,8.4,273.3,8.4z
			 M275.1,11.6c0-0.2-0.1-0.4-0.3-0.7c-0.1-0.3-0.2-0.5-0.3-0.7l-1.3,5.8l-1.7-0.5c0.5-1.7,1-3.7,1.5-6c0.2,0,0.4,0.1,0.7,0.2
			c0.4,0.1,0.6,0.2,0.7,0.3V10c1.5-0.8,2.7-1.9,3.6-3.3h-3V5.3h2.7V3.4h-2.1V2h2.1V0.3h1.7V2h3V0.3h1.7V2h2.4v1.4H284v1.9h3v1.4
			h-3.2c0.8,1.3,2,2.3,3.5,3l-0.8,1.5c-1-0.6-1.8-1.2-2.5-1.9v3.3h-5.8v0.7c0,0.7,0.3,1,1.1,0.9h4.1c0.8,0,1.2-0.2,1.3-0.8
			c0-0.2,0.1-0.5,0.2-1c0-0.3,0.1-0.5,0.1-0.6c0.5,0.2,1,0.4,1.5,0.5c-0.1,0.7-0.2,1.3-0.4,1.8c-0.3,1-1.1,1.5-2.4,1.5h-5
			c-1.3,0-2-0.7-2.1-1.9v-3.4C276.2,10.7,275.6,11.1,275.1,11.6L275.1,11.6z M273.7,4c-0.3-0.4-0.8-1.1-1.5-1.9
			c-0.3-0.4-0.5-0.7-0.7-0.9l1.5-0.8l2.1,2.5C275.3,3,273.7,4,273.7,4z M278.3,9.7v1.7h4.2V9.7H278.3z M279.8,6.6
			c-0.4,0.6-0.8,1.2-1.3,1.7h4.7c-0.3-0.3-0.6-0.8-1.1-1.5c0-0.1-0.1-0.2-0.1-0.2L279.8,6.6L279.8,6.6z M279.4,3.4v1.9h3V3.4H279.4z
			"/>
		<path class="st0" d="M290.4,11.6c-0.1-0.6-0.3-1.2-0.5-1.8c1.6-1.4,2.9-3.1,3.9-5.1l1.5,0.9c-0.5,0.9-1.1,1.8-1.7,2.6v8h-1.6v-6
			C291.4,10.6,290.9,11.1,290.4,11.6z M291,6c-0.3-0.6-0.5-1.2-0.7-1.7c1.4-1.2,2.6-2.5,3.5-4l1.5,0.9C294,3,292.6,4.6,291,6L291,6z
			 M295.2,16.1c-0.4-0.4-0.8-0.8-1.3-1.2c1.5-1.4,2.2-3.6,2.1-6.4l1.7,0.1c0,0.8-0.1,1.6-0.2,2.7c0.5,1.3,1.3,2.2,2.2,2.5v-6h1.7
			v1.8h4V11h-4v3c0.8,0,2.4,0.1,4.6,0.1c0,0,0,0.1-0.1,0.2c-0.2,0.6-0.3,1-0.3,1.3c-1.7,0-3.2,0-4.5-0.1c-2,0-3.3-0.8-4.1-2.2
			C296.6,14.1,296,15.1,295.2,16.1L295.2,16.1z M299.4,5.5c-0.3-0.3-0.8-0.8-1.4-1.3c-0.5,1.2-1.2,2.3-2,3.3
			c-0.1-0.1-0.4-0.3-0.9-0.7c-0.2-0.1-0.4-0.2-0.5-0.3c1.5-1.7,2.4-3.8,2.8-6.2l1.7,0.3c-0.1,0.8-0.3,1.5-0.5,2.1
			c0.7,0.5,1.3,1,1.9,1.5L299.4,5.5L299.4,5.5z M304.7,7.2c-0.4-0.5-1-1.3-1.9-2.5c-0.1-0.1-0.2-0.2-0.3-0.3c-0.4,1.1-1.1,2.1-1.9,3
			c-0.5-0.4-1-0.7-1.4-0.9c1.5-1.7,2.4-3.8,2.8-6.2l1.7,0.3c-0.2,0.8-0.4,1.5-0.6,2.3c0.1,0.1,0.2,0.2,0.4,0.4
			c1.1,1.4,2,2.4,2.4,2.9L304.7,7.2L304.7,7.2z"/>
		<path class="st0" d="M324,9.6c-3.4-0.9-5.8-2.3-7.3-4c-1.8,1.7-4.2,3.1-7.4,4.1c-0.4-0.7-0.6-1.2-0.7-1.6c3.4-1,5.9-2.4,7.5-4.2
			l2,0.2l-0.4,0.5c1.6,1.6,4,2.7,7,3.4c-0.1,0.3-0.3,0.7-0.6,1.3C324.1,9.4,324.1,9.5,324,9.6L324,9.6z M319,4.7V3.4h-4.8v1.3h-1.8
			V3.4h-3.6V1.9h3.6V0.3h1.8v1.6h4.8V0.3h1.8v1.6h3.6v1.5h-3.6v1.3L319,4.7L319,4.7z M309.9,15.5c-0.1-0.1-0.3-0.4-0.5-0.7
			c-0.2-0.3-0.4-0.5-0.5-0.7c1.4-0.6,2.8-1.5,4.3-2.7l1.1,1.1C312.7,13.9,311.2,14.8,309.9,15.5L309.9,15.5z M310.7,10.8V9.4h5.1
			V7.2h1.8v2.1h4.9v1.5h-4.9v5.2h-1.8v-5.2C315.8,10.8,310.7,10.8,310.7,10.8z M323.4,15.3c-1.5-0.9-3-1.8-4.5-2.7l1-1.3
			c1.3,0.7,2.9,1.6,4.6,2.7L323.4,15.3z"/>
		<path class="st0" d="M327.7,11.2l-0.4-1.5l0.7-0.1c0-0.1,0.1-0.2,0.3-0.4c0.2-0.4,0.6-1.1,1.3-2.2c-0.9-1.1-1.7-2-2.5-2.9l1-0.9
			l0.7,0.7c0.8-1.5,1.3-2.7,1.7-3.7l1.4,0.5c-0.4,1-1.1,2.4-2.1,4.2l0.7,0.7l1.1-2.2l1.3,0.6c-1.4,2.5-2.4,4.3-3.1,5.3
			c0.2,0,0.4-0.1,0.7-0.1c0.4,0,0.6-0.1,0.7-0.1c0.1-0.4,0.1-0.9,0.2-1.5l1.3,0.2c-0.1,3.8-1.4,6.6-3.8,8.3
			c-0.1-0.1-0.3-0.3-0.5-0.6c-0.3-0.3-0.5-0.5-0.7-0.7c1.5-1.1,2.6-2.5,3.2-4.2c-0.2,0-0.4,0.1-0.8,0.1
			C329.2,10.9,328.5,11,327.7,11.2L327.7,11.2z M332.4,15.8l-0.7-1.3l1.1-0.3V1.9h1.5V0.5h1.6v1.4h1.5v8.2h-3.2v3.4l1.7-0.8
			c-0.1-0.2-0.2-0.4-0.3-0.8c-0.2-0.4-0.3-0.6-0.4-0.8l1.2-0.5c0.4,0.7,0.8,1.7,1.5,3.1c0.2,0.5,0.4,0.8,0.5,1.1l-1.3,0.6
			c0-0.1-0.1-0.2-0.2-0.5c-0.2-0.4-0.3-0.7-0.4-0.9C335.3,14.4,334,15,332.4,15.8L332.4,15.8z M334.3,3.4v1.9h1.9V3.4H334.3z
			 M334.3,8.7h1.9v-2h-1.9V8.7z M338.4,16.1V1.2h4.8v1.5c0,0.2-0.2,0.5-0.3,1c-0.4,1.5-0.7,2.6-1,3.4c1,1.2,1.5,2.5,1.5,4
			c0.1,1.9-0.5,2.8-1.9,2.8c-0.4,0-0.8,0.1-1.1,0.1c-0.1-0.4-0.2-0.9-0.3-1.5h1.1c0.6,0,0.8-0.4,0.8-1.4c0-1.2-0.5-2.5-1.5-3.7
			c0.6-1.8,1-3.3,1.4-4.7h-1.9v13.5L338.4,16.1L338.4,16.1z"/>
		<path class="st0" d="M346.4,11.1V9.5h3.4V7.8h1.7v1.7h3.3v1.6h-3.3v2.4l3.7-0.3c0,0.5-0.1,1-0.1,1.5c-3.7,0.3-6.6,0.6-8.9,0.9
			L346,14c0.4,0,0.9,0,1.7-0.1c0.9,0,1.6-0.1,2.1-0.1v-2.6L346.4,11.1L346.4,11.1z M346.2,2.7V1.1h9v1.6h-4.3
			c-0.8,1.3-1.5,2.4-2,3.2l3.6-0.3l-0.9-1.4l1.3-0.7c0.3,0.5,0.8,1.3,1.5,2.3c0.5,0.7,0.8,1.2,1,1.5L354,8.1L353.4,7
			c-0.2,0-0.6,0.1-1.1,0.1c-2.8,0.2-4.7,0.4-5.7,0.5l-0.3-1.8h0.8c0.4-0.5,1-1.5,1.8-2.9c0.1-0.1,0.1-0.2,0.2-0.3H346.2L346.2,2.7z
			 M356,12.1v-10h1.7v10H356z M356.7,15.9c-0.1-0.7-0.2-1.2-0.3-1.7h2.2c0.7,0,1-0.4,1-1.1V0.3h1.8v13.4c0.1,1.4-0.6,2.1-2.1,2.2
			H358C357.4,15.9,357,15.9,356.7,15.9L356.7,15.9z"/>
		<path class="st0" d="M366,7.3V1h13.5v6.3h-5.9v1.3h6.2v1.3h-6.2v1.3h7.1v1.3h-16v-1.3h7.1V9.9h-6V8.6h6V7.3H366L366,7.3z
			 M366.7,16.2c-0.1,0-0.2,0-0.4-0.1c-0.6-0.1-1.1-0.2-1.3-0.3c0.6-1,1.1-1.9,1.6-2.8l1.7,0.3C367.6,14.6,367.1,15.5,366.7,16.2
			L366.7,16.2z M367.6,2.4V6h4.2V2.4C371.8,2.4,367.6,2.4,367.6,2.4z M369.9,5.5c-0.4-0.7-0.9-1.3-1.5-2l1.1-0.8
			c0.2,0.3,0.6,0.7,1.1,1.2c0.3,0.4,0.5,0.6,0.6,0.7C371.2,4.7,369.9,5.5,369.9,5.5z M370.2,15.9c-0.2-0.9-0.4-1.8-0.7-2.5l1.7-0.2
			c0,0.2,0.1,0.5,0.3,0.9c0.2,0.7,0.4,1.2,0.5,1.7L370.2,15.9L370.2,15.9z M374.5,15.9c0-0.1-0.1-0.3-0.3-0.5
			c-0.4-0.8-0.6-1.5-0.9-2l1.7-0.3c0.1,0.2,0.2,0.4,0.4,0.8c0.4,0.7,0.6,1.3,0.8,1.7L374.5,15.9L374.5,15.9z M377.9,2.4h-4.2V6h4.2
			C377.9,6,377.9,2.4,377.9,2.4z M375.4,5.5l-1.1-0.9l0.1-0.1c0.7-0.8,1.2-1.4,1.5-1.9l1.2,0.9c-0.2,0.3-0.6,0.7-1.1,1.3
			C375.7,5.2,375.5,5.4,375.4,5.5L375.4,5.5z M378.9,15.9c-0.1-0.2-0.2-0.4-0.5-0.8c-0.4-0.8-0.8-1.4-1.1-1.9l1.7-0.3
			c0.1,0.2,0.2,0.4,0.5,0.7c0.5,0.8,0.9,1.4,1.1,1.9L378.9,15.9L378.9,15.9z"/>
		<path class="st0" d="M383.8,11.2l-0.4-1.5l0.7-0.1c0-0.1,0.1-0.2,0.3-0.4c0.2-0.4,0.6-1.1,1.3-2.2c-0.9-1.1-1.7-2-2.5-2.9l1-0.9
			l0.7,0.7c0.8-1.5,1.3-2.7,1.7-3.7l1.4,0.5c-0.4,1-1.1,2.4-2.1,4.2l0.7,0.7l1.1-2.2l1.3,0.6c-1.4,2.5-2.4,4.3-3.1,5.3
			c0.2,0,0.4-0.1,0.7-0.1c0.4,0,0.6-0.1,0.7-0.1c0.1-0.4,0.1-0.9,0.2-1.5l1.3,0.2c-0.1,3.8-1.4,6.6-3.8,8.3
			c-0.1-0.1-0.3-0.3-0.5-0.6c-0.3-0.3-0.5-0.5-0.7-0.7c1.5-1.1,2.6-2.5,3.2-4.2c-0.2,0-0.4,0.1-0.8,0.1
			C385.3,10.9,384.6,11,383.8,11.2L383.8,11.2z M388.5,15.8l-0.7-1.3l1.1-0.3V1.9h1.5V0.5h1.6v1.4h1.5v8.2h-3.2v3.4l1.7-0.8
			c-0.1-0.2-0.2-0.4-0.3-0.8c-0.2-0.4-0.3-0.6-0.4-0.8l1.2-0.5c0.4,0.7,0.8,1.7,1.5,3.1c0.2,0.5,0.4,0.8,0.5,1.1l-1.3,0.6
			c0-0.1-0.1-0.2-0.2-0.5c-0.2-0.4-0.3-0.7-0.4-0.9C391.4,14.4,390.1,15,388.5,15.8L388.5,15.8z M390.4,3.4v1.9h1.9V3.4H390.4z
			 M390.4,8.7h1.9v-2h-1.9V8.7z M394.5,16.1V1.2h4.8v1.5c0,0.2-0.2,0.5-0.3,1c-0.4,1.5-0.7,2.6-1,3.4c1,1.2,1.5,2.5,1.5,4
			c0.1,1.9-0.5,2.8-1.9,2.8c-0.4,0-0.8,0.1-1.1,0.1c-0.1-0.4-0.2-0.9-0.3-1.5h1.1c0.6,0,0.8-0.4,0.8-1.4c0-1.2-0.5-2.5-1.5-3.7
			c0.6-1.8,1-3.3,1.4-4.7H396v13.5L394.5,16.1L394.5,16.1z"/>
		<path class="st0" d="M0,34.6v-2h16.1v2H0z"/>
		<path class="st0" d="M24.5,37.3c-0.1-0.2-0.3-0.7-0.5-1.4h-1v3l1.5-0.3v1.5c-1.4,0.2-3.3,0.6-5.6,1.1l-0.2-1.6l0.7-0.1v-6h1.2v5.8
			l1-0.1v-7h-2.1v-5.6h4.7v5.6H23v2.3h1.3v1.1c0.9-0.9,1.7-2,2.3-3.3l1.5,0.3c-0.1,0.3-0.3,0.6-0.5,0.9h2.1c0-0.1,0.1-0.2,0.1-0.3
			c0-0.2,0.1-0.5,0.2-0.8l0.4,0.1c-0.1-0.1-0.2-0.3-0.4-0.7c-0.1-0.1-0.2-0.2-0.2-0.3c1.2-0.6,2.2-1.4,3-2.5v-1.1h-0.1
			c-0.6,1-1.4,1.8-2.5,2.5c0-0.1-0.2-0.3-0.3-0.5c-0.1-0.2-0.2-0.4-0.3-0.5c0.8-0.4,1.5-0.9,2.1-1.5h-1.7v-1.3h4.3v5.9h-1.4v-1.9
			c-0.5,0.7-1.3,1.3-2.3,1.9l1,0.1c-0.1,0.3-0.3,0.6-0.4,0.9h3.4v1.1h-3.3v1.1h3v1.1h-3V38h3V39h-3v1h3.5v1.2h-7.7v0.7h-1.5v-5.5
			C25.3,36.7,25,37,24.5,37.3L24.5,37.3z M20.8,28.1v2.7h1.9v-2.7H20.8z M25.3,30.3c0-0.1-0.2-0.3-0.3-0.6c-0.1-0.2-0.2-0.3-0.3-0.4
			c0.8-0.4,1.4-0.9,1.9-1.4h-1.9v-1.3h4.5v5.6h-1.4v-1.6c-0.5,0.8-1.4,1.4-2.5,2c-0.2-0.4-0.4-0.8-0.6-1c1.2-0.6,2.3-1.4,3.1-2.6
			v-1.1C27.3,28.8,26.5,29.6,25.3,30.3L25.3,30.3z M27.1,34.6v1.1h2.7v-1.1H27.1z M27.1,36.8V38h2.7v-1.1H27.1z M27.1,39v1h2.7v-1
			H27.1z"/>
		<path class="st0" d="M51.1,41.7c-1.2,0-2.1-0.8-2.9-2.4c-0.8,0.8-1.8,1.5-2.9,2.4c-0.3-0.4-0.7-0.8-1.2-1.3
			c1.4-0.9,2.5-1.8,3.5-2.9c-0.5-1.8-0.9-4.2-1-7h-5.8v2.2h4.5c0,0.9,0,2.3-0.1,4v0.5c0,1.7-0.8,2.5-2.3,2.5c-0.4,0-1,0.1-1.7,0.1
			c0-0.2,0-0.5-0.1-0.9c0-0.4-0.1-0.7-0.1-0.9h1.4c0.8,0,1.1-0.3,1.1-1.1c0-0.3,0.1-0.8,0.1-1.4c0-0.6,0.1-1.1,0.1-1.4h-2.9
			c0.1,3-0.5,5.6-1.7,7.7c-0.1,0-0.2-0.1-0.4-0.3c-0.5-0.4-0.9-0.7-1.1-0.8c0.6-1.1,1-2.1,1.3-3c0.2-0.9,0.3-2.3,0.3-4.2v-4.6h7.5
			c0-0.6-0.1-1.6-0.1-3h1.7c0,1.3,0,2.3,0.1,3h5.2v1.6h-5.2c0.1,2.3,0.3,4.1,0.7,5.4c0.6-0.9,1.3-2.3,2.2-4.2l1.6,0.7
			c-1.1,2.4-2.2,4.3-3.2,5.5c0,0,0.1,0.1,0.1,0.2c0.5,1.3,1,1.9,1.5,1.9c0.3,0,0.5-0.2,0.7-0.7c0.2-0.8,0.3-1.6,0.4-2.3
			c0.3,0.1,0.6,0.3,1.1,0.5c0.2,0,0.3,0.1,0.3,0.1c-0.1,1.2-0.3,2.1-0.5,2.6C52.7,41.2,52.1,41.7,51.1,41.7L51.1,41.7z M51.1,28.8
			c-0.7-0.6-1.3-1.2-2.1-1.8l1.2-0.9c0.8,0.5,1.5,1.1,2.1,1.7L51.1,28.8L51.1,28.8z"/>
		<path class="st0" d="M66.7,41.7c0-0.3-0.1-0.6-0.3-1.1c0-0.1-0.1-0.2-0.1-0.3c0.3,0,0.7,0,1.3,0.1h1c0.8,0,1.2-0.3,1.3-1
			c0-0.3,0.1-1,0.1-1.8c0-0.4,0.1-0.8,0.1-0.9H59.5c-0.8,0.9-1.6,1.7-2.5,2.5c0,0-0.1-0.1-0.1-0.3c-0.4-0.6-0.6-1-0.8-1.3
			c2.4-2.1,4.1-4.5,5.2-7h-4.6v-1.4h5.1c0.2-0.5,0.5-1.4,0.8-2.5c0.1-0.3,0.2-0.5,0.2-0.6l1.8,0.1c0,0.2-0.1,0.4-0.3,0.8
			c-0.1,0.6-0.4,1.3-0.7,2.3h6.4l-0.5,3h1.4l-0.5,3h1.3c0,0.3,0,0.8-0.1,1.5c0,1.3-0.1,2.3-0.1,2.9c0,1.4-0.8,2.1-2.4,2.1
			C68.3,41.6,67.5,41.7,66.7,41.7L66.7,41.7z M59.7,41.1l-1.6-0.3c0.5-1.1,0.9-2.1,1.3-3.2l1.5,0.2C60.5,39,60.1,40.1,59.7,41.1z
			 M60.1,29c-0.3-0.3-0.7-0.8-1.4-1.4c-0.2-0.2-0.4-0.4-0.5-0.5l1-1c0.8,0.7,1.5,1.3,2,1.9L60.1,29L60.1,29z M61.7,33.5
			c-0.2,0.3-0.5,0.8-0.9,1.4c0,0.1-0.1,0.2-0.1,0.2h8.1l0.3-1.6H61.7z M62.1,40.7c-0.1-0.8-0.3-1.8-0.5-3l1.3-0.1
			c0.2,0.8,0.5,1.8,0.7,2.9C63.7,40.5,62.1,40.7,62.1,40.7z M63.1,30.5c0,0.1-0.1,0.3-0.2,0.5c-0.1,0.3-0.3,0.6-0.5,1.1h5.4l0.3-1.6
			H63.1z M65.1,40.2c-0.1-0.2-0.2-0.5-0.4-1.1c-0.2-0.7-0.3-1.2-0.5-1.5l1.3-0.2c0.1,0.2,0.3,0.6,0.5,1.3c0.2,0.6,0.4,1,0.5,1.3
			C66.5,39.9,65.1,40.2,65.1,40.2z M67.9,39.7c-0.3-0.7-0.6-1.4-1.1-2.3l1.2-0.4c0.1,0.2,0.2,0.4,0.4,0.8c0.3,0.7,0.5,1.2,0.7,1.5
			L67.9,39.7L67.9,39.7z"/>
		<path class="st0" d="M90.1,33.6c-3-1.5-5.4-3.4-7.1-5.6c-1.8,2.1-4.2,4.1-7.4,5.8c-0.3-0.6-0.6-1.2-0.9-1.7c3.5-1.7,6-3.8,7.6-6.2
			l2.2,0.2L84,26.7c1.8,2.2,4.2,3.9,7,5.2c-0.1,0.2-0.2,0.5-0.5,0.9C90.3,33.2,90.2,33.5,90.1,33.6L90.1,33.6z M84,42
			c-0.3-0.3-0.9-0.6-1.6-1l3.9-4.5h-9.8v-1.7h12.1v1.7L84,42L84,42z M79.6,32.8v-1.4h6.8v1.4H79.6z"/>
		<path class="st0" d="M95.5,41.7V26.9h12.2v14.8h-1.9v-1.1h-8.5v1.1H95.5z M97.3,28.6V33h8.5v-4.3C105.8,28.7,97.3,28.7,97.3,28.6z
			 M97.3,34.6V39h8.5v-4.4H97.3z"/>
		<path class="st0" d="M113.5,35.4c0-0.4-0.1-0.8-0.2-1.2c5.1,0,9.6-0.1,13.5-0.2l0.1,1.2l-5.5,0.1v0.9h5.3v1.1h-5.3v0.9h6.8v1.3
			h-6.8v0.3c0,1.3-0.6,1.9-2.1,1.9c-0.8,0-1.8,0.1-2.7,0.1c-0.1-0.4-0.2-0.8-0.3-1.3c0.3,0,0.7,0,1.3,0.1h1c0.7,0,1.1-0.3,1.1-0.9
			v-0.1h-7.2v-1.3h7.2v-0.9h-6v-1.1h6v-0.9h-3.1C115.2,35.4,114.2,35.4,113.5,35.4L113.5,35.4z M112.7,30.9v-3h3.3
			c-0.2-0.2-0.5-0.4-0.9-0.8c-0.3-0.2-0.5-0.4-0.7-0.5l1.7-0.5c0.2,0.2,0.6,0.5,1.1,0.9c0.5,0.4,0.8,0.8,1,0.9h1.2v-2h1.8v2h1.2
			c0.8-0.6,1.4-1.2,2.1-1.8l1.7,0.5c-0.1,0.1-0.2,0.2-0.4,0.3c-0.5,0.4-0.9,0.8-1.2,1h3.3v3h-1.7v-1.8h-11.7v1.8H112.7L112.7,30.9z
			 M114.9,33.3V30h10.7v3.2H114.9z M116.7,31.1v1.1h7.2v-1.1H116.7z"/>
		<path class="st0" d="M131.1,30.6V29h1.6v-2.9h1.5V29h1.3v1.6h-1.3v2.9l1.3-0.5c0,0.9,0,1.5,0.1,1.8l-1.3,0.4v4.7
			c0,1.2-0.5,1.7-1.5,1.7c-0.4,0-0.9,0.1-1.4,0.1c0-0.2-0.1-0.6-0.1-1.1c-0.1-0.3-0.1-0.5-0.1-0.6h1c0.5,0,0.7-0.2,0.7-0.6v-3.7
			l-1.6,0.6l-0.2-1.9c0.2-0.1,0.5-0.2,0.9-0.3c0.4-0.1,0.7-0.2,0.9-0.3v-3.3H131.1L131.1,30.6z M135.7,41.9
			c-0.3-0.3-0.7-0.6-1.3-1.1c0.8-1.1,1.2-2.2,1.4-3.2c0.2-1,0.3-2.6,0.3-4.9v-6h10.3v3.9h-8.8v2.1c0,2.4-0.1,4.2-0.4,5.4
			C137,39.3,136.5,40.5,135.7,41.9L135.7,41.9z M138.1,33v-1.3h8.4V33H142c-0.1,0.2-0.3,0.4-0.6,0.7c-0.4,0.6-0.7,1-0.9,1.2
			c0.4,0,1,0,1.8-0.1h1.8l-0.9-1l1-0.7c0.4,0.4,1,1,1.7,1.8c0.4,0.4,0.8,0.8,1,1l-1.2,0.9l-0.6-0.8l-2.2,0.1v1.4h3.3v1.3h-3.3v1.3
			h4.1v1.3h-9.8v-1.3h4.1v-1.3H138v-1.3h3.2v-1.3l-3.1,0.1l-0.2-1.3h0.7c0.6-0.6,1.1-1.3,1.5-1.9L138.1,33L138.1,33z M137.6,28v1.4
			h7.2V28H137.6z"/>
		<path class="st0" d="M150.2,36.3l-0.5-1.3c0.1,0,0.2,0,0.4-0.1h0.3c0.6-0.8,1.2-1.6,1.7-2.5c-0.8-0.8-1.7-1.6-2.7-2.4l0.9-1
			l0.4,0.3c0.7-1,1.3-2.1,1.8-3.2l1.6,0.5c-0.2,0.3-0.4,0.6-0.7,1.1c-0.7,1.1-1.2,2-1.6,2.5l1.1,1c0.3-0.4,0.8-1.1,1.3-2
			c0.1-0.2,0.2-0.4,0.3-0.5l1.3,0.7c-1.1,1.7-2.4,3.5-3.8,5.4l1.9-0.1c0-0.1-0.1-0.3-0.2-0.7c-0.1-0.3-0.2-0.5-0.3-0.6l1.1-0.4
			c0.3,0.7,0.7,1.6,1.2,2.9c0,0.2,0.1,0.3,0.1,0.4l-1.3,0.4l-0.3-0.7h-0.9v6h-1.5v-5.9l-0.6,0.1c-0.2,0-0.4,0-0.7,0.1
			C150.6,36.3,150.3,36.3,150.2,36.3L150.2,36.3z M150.7,41l-1.2-0.1c0.3-1.5,0.5-2.7,0.7-3.7l1.1,0.1c0,0.4-0.1,1.1-0.3,1.9
			C150.9,39.9,150.8,40.5,150.7,41L150.7,41z M156.2,37.1v-1.5h9v1.5h-3.8v2.7h4.2v1.5h-10.1V40l-0.5,0.1c-0.2-0.8-0.5-1.8-0.9-3
			l1-0.3c0.2,0.4,0.4,1.2,0.8,2.3c0.1,0.3,0.1,0.5,0.2,0.6h3.6v-2.7L156.2,37.1L156.2,37.1z M157.8,35.1c-0.8-1.2-1.5-2.2-2.2-3
			c0.7-0.8,1.4-1.9,2.1-3.1l1.3,0.7c-0.8,1.1-1.4,1.9-1.8,2.4c0.7,0.8,1.3,1.5,1.9,2.3L157.8,35.1z M156,28.4v-1.6h9.3v1.6H156z
			 M161,35.1c-0.4-0.6-1-1.4-1.8-2.5c-0.2-0.3-0.4-0.5-0.5-0.6c0.8-1.1,1.6-2.1,2.1-3l1.3,0.7c-0.8,1.1-1.4,1.9-1.8,2.4
			c0.4,0.4,1,1.2,1.9,2.3L161,35.1L161,35.1z M164.3,35.1c-0.6-0.8-1.4-1.8-2.4-3.1c0.1-0.1,0.3-0.4,0.5-0.7
			c0.8-1.1,1.4-1.9,1.7-2.4l1.3,0.7c-0.3,0.4-0.8,1-1.4,1.8c-0.2,0.3-0.4,0.5-0.5,0.6c0.4,0.4,1,1.1,1.9,2.2L164.3,35.1L164.3,35.1z
			"/>
		<path class="st0" d="M169.1,41.9c0-0.2-0.2-0.4-0.3-0.8c-0.1-0.2-0.2-0.4-0.3-0.5c1.2-0.2,3.1-0.5,5.6-0.9c-0.2,0,0,0,0.5-0.1
			l0.6,1.1C173.2,41.1,171.1,41.5,169.1,41.9L169.1,41.9z M175.1,31.7c-0.2-0.3-0.4-0.5-0.6-0.8c-1.6,0.4-3.3,1-5.2,1.5l-0.5-1.3
			c0.1,0,0.2-0.1,0.3-0.1c0.1,0,0.2-0.1,0.3-0.1v-4.2c2,0,3.9-0.2,5.8-0.5l0.5,1.3c-1.4,0.2-3,0.4-4.7,0.5v2.4
			c0.3-0.1,0.6-0.2,1.1-0.3c0.7-0.2,1.2-0.3,1.5-0.4c-0.3-0.4-0.5-0.7-0.7-1l1.3-0.6c0.8,1,1.5,1.8,2,2.5c0.9-0.6,1.4-1.4,1.5-2.6
			h-1.3v-1.3h7.2c0,0.7,0,1.4-0.1,2.3c0,0.2-0.1,0.4-0.1,0.5c0,1.5-0.8,2.2-2.4,2.2h-1.8c-0.1-0.5-0.2-1-0.3-1.4
			c0.6,0,1.1,0.1,1.7,0.1c0.8,0,1.2-0.3,1.2-1V29c0-0.4,0.1-0.7,0.1-0.9h-2.7c0,1.8-0.9,3.2-2.7,4.2c-0.2-0.3-0.5-0.6-0.9-0.9
			L175.1,31.7L175.1,31.7z M170.3,39.3v-6.8h12.2v6.8H170.3z M172,33.7v0.9h8.8v-0.9H172z M172,35.6v0.9h8.8v-0.9H172z M172,37.4
			v0.9h8.8v-0.9H172z M183.6,41.9c-2.8-0.5-4.9-1-6-1.3l0.6-1.1c1.9,0.4,3.9,0.8,6,1L183.6,41.9L183.6,41.9z"/>
		<path class="st0" d="M197.6,35.3l-1.4,1.3l-3.6-4l1.3-1.1C193.8,31.4,197.6,35.3,197.6,35.3z"/>
		<path class="st0" d="M206.3,28.6c0-0.5-0.1-1.1-0.3-1.6c2.6-0.1,4.6-0.3,6-0.5l0.3,1.6c-0.8,0.1-1.5,0.2-2.3,0.3v2.3h2.2v1.7H210
			v1.8l0.5-0.5c0.6,0.4,1.4,1,2.2,1.8l-1.1,1.2c-0.6-0.6-1.1-1.1-1.5-1.4v6.6h-1.7v-6.5c-0.5,1.4-1.2,2.6-2,3.8l-0.6-1.9
			c1-1.3,1.8-2.9,2.5-4.8h-2.3v-1.7h2.4v-2.2C207.5,28.6,206.8,28.7,206.3,28.6L206.3,28.6z M212,38.3l-0.1-1.7l5.9-0.5V26h1.8v9.9
			l2.2-0.2l0.1,1.7l-2.3,0.2v4.2h-1.8v-4L212,38.3L212,38.3z M215.3,35.1c-0.9-0.8-1.9-1.6-2.8-2.3l1.1-1.2c0.7,0.5,1.6,1.2,2.7,2.1
			c0,0,0,0,0.2,0.1L215.3,35.1L215.3,35.1z M216.1,31c-1.1-1-2-1.8-2.9-2.4l1.1-1.2c1.2,0.9,2.2,1.7,3,2.4L216.1,31L216.1,31z"/>
		<path class="st0" d="M224.6,30.6V29h1.9v-2.9h1.7V29h1.7v1.6h-1.7v2.9l1.7-0.4c0,0.6,0,1.2,0.1,1.7l-1.8,0.4v4.6
			c0,1.2-0.5,1.8-1.7,1.9c-0.2,0-0.4,0-0.7,0.1h-0.8c-0.1-0.6-0.2-1.2-0.3-1.7h1.2c0.5,0,0.8-0.2,0.7-0.7v-3.7l-2,0.5l-0.1-1.9
			c0.6-0.1,1.3-0.3,2.1-0.4v-3.2L224.6,30.6L224.6,30.6z M230.4,30v-1.6h3.9V26h1.7v2.4h4.2V30H236v2.3h3.5v1.6
			c-0.8,2-1.9,3.5-3.1,4.6c1.1,0.7,2.4,1.3,4.1,1.7c-0.4,0.6-0.6,1.2-0.9,1.7c-1.9-0.7-3.4-1.4-4.6-2.2c-1.4,0.9-3.1,1.7-5,2.3
			c-0.1-0.2-0.4-0.5-0.7-1c-0.2-0.3-0.3-0.4-0.3-0.5c1.9-0.5,3.4-1.2,4.6-2c-1.1-1.1-2-2.5-2.8-4.4l0.5-0.2h-0.9v-1.5h3.7V30
			L230.4,30L230.4,30z M237.7,33.8h-5c0.7,1.5,1.5,2.7,2.5,3.6C236.3,36.4,237.1,35.2,237.7,33.8L237.7,33.8z"/>
		<path class="st0" d="M249.3,39c-0.5-1-0.9-2-1.3-3c-0.3,0.9-0.8,2-1.5,3.2c-0.1-0.1-0.2-0.3-0.4-0.5c-0.2-0.2-0.3-0.3-0.4-0.4v3.4
			H244V30.1h6.2v-1.7h-7v-1.6h15.9v1.6h-7.1v1.7h6.3v9.2c0,1.5-0.7,2.2-2.2,2.2c-0.4,0-1.2,0.1-2.3,0.1c-0.1-0.5-0.2-1.1-0.3-1.6h2
			c0.8,0,1.2-0.3,1.1-0.9v-7.4h-4.6v6.2c0.8-1.3,1.4-2.6,1.7-4h-0.9v-1.1h2c0.3,2.2,0.9,3.9,1.8,5.2c-0.3,0.2-0.6,0.5-1,0.9
			c-0.6-1.1-1-2.1-1.3-3.1c-0.4,1.2-0.8,2.3-1.4,3.2c-0.3-0.3-0.6-0.6-0.9-0.9v3.5h-1.8v-3.2c-0.1,0-0.2,0.2-0.5,0.4
			C249.6,38.8,249.4,39,249.3,39L249.3,39z M245.8,38.1c0.8-1.3,1.4-2.7,1.8-4.1h-1.1v-1.1h2c0.3,2,0.9,3.8,1.9,5.2v-6.4h-4.5
			L245.8,38.1L245.8,38.1z"/>
		<path class="st0" d="M262.2,32v-1.8h6.7c0-1,0.1-2.4,0.1-4.2h2l-0.1,4.2h6.7V32h-6.6c0.6,3.8,2.9,6.4,7,7.9
			c-0.4,0.4-0.9,1-1.3,1.7c-3.7-1.6-5.9-3.9-6.7-7c-0.7,3-2.9,5.4-6.7,7.2c-0.1-0.2-0.4-0.5-0.7-1c-0.3-0.3-0.4-0.5-0.5-0.7
			c4.2-1.8,6.5-4.5,6.8-8.1H262.2L262.2,32z"/>
		<path class="st0" d="M295.7,32.4c-0.8-0.3-1.5-0.7-2.2-1v1.3h-4v1.8h5.6v1.6h-5.6v3.7h6.6v1.5H281v-1.5h6.6v-3.7H282v-1.6h5.6
			v-1.8h-4.1v-1.1c-0.6,0.3-1.3,0.6-2.1,1c-0.1-0.1-0.2-0.3-0.3-0.5c-0.3-0.5-0.5-0.8-0.7-1.1c3.7-1.4,6.2-3.1,7.6-5.2l2.1,0.2
			l-0.4,0.5c1.7,2,4,3.4,6.9,4.2c-0.1,0.2-0.2,0.5-0.5,0.9C296,32,295.8,32.2,295.7,32.4L295.7,32.4z M284.8,39.6
			c-0.4-0.4-1-1.2-2-2.4l1.3-0.9c0.5,0.5,1.1,1.2,1.9,2.1c-0.1-0.1,0,0,0.2,0.3L284.8,39.6L284.8,39.6z M288.7,27.8
			c-1.1,1.2-2.5,2.4-4.3,3.4h8.5C291.3,30.2,289.9,29.1,288.7,27.8z M292.2,39.6l-1.3-0.9c0,0,0.1-0.1,0.1-0.2
			c0.9-1,1.5-1.7,1.9-2.2l1.5,0.8C293.9,37.8,293.1,38.6,292.2,39.6L292.2,39.6z"/>
		<path class="st0" d="M314.7,30.7c-1.1-0.4-2-0.8-2.7-1.3v0.9h-4.5v-0.9c-0.7,0.5-1.6,1-2.7,1.5c0-0.1-0.1-0.3-0.3-0.5
			c-0.1-0.3-0.2-0.4-0.3-0.5l-0.3,0.5c-0.3-0.4-0.7-0.9-1.3-1.6c-0.3-0.3-0.5-0.5-0.6-0.7c-0.4,0.8-0.9,1.5-1.6,2.3h3.3v1.3h-1.3
			v1.6h1.7v1.3h-1.7v4.8l1.9-0.3c0,0.3-0.1,0.8-0.1,1.3c-1.5,0.2-3.2,0.5-4.9,0.9l-0.2-1.4c0.2,0,0.5-0.1,1-0.1
			c0.4-0.1,0.8-0.1,1-0.1v-5h-1.9v-1.3h1.9v-1.6h-1.2v-0.8l-0.3,0.3c-0.1-0.2-0.3-0.5-0.5-0.9c-0.1-0.2-0.2-0.3-0.2-0.4
			c1.1-1.1,2-2.5,2.5-4l1.5,0.2l-0.3,0.7c0.2,0.2,0.4,0.4,0.7,0.8c0.3,0.2,0.7,0.7,1.4,1.5l-0.1,0.2c2-0.9,3.6-2.1,4.6-3.4l1.7,0.2
			c0,0-0.1,0.1-0.2,0.3c-0.1,0.1-0.2,0.2-0.2,0.3c1.3,1.2,2.9,2.1,4.8,2.7C315.1,30,314.8,30.5,314.7,30.7L314.7,30.7z M300.1,38.7
			c0-0.1-0.1-0.3-0.1-0.6c-0.3-1-0.5-1.8-0.7-2.5l0.9-0.2c0,0.1,0.1,0.3,0.2,0.6c0.1,0.5,0.4,1.3,0.7,2.3L300.1,38.7L300.1,38.7z
			 M303.6,38.5l-0.9-0.3c0.1-0.4,0.3-1.1,0.5-1.9c0.1-0.4,0.2-0.8,0.3-1l0.8,0.2c-0.1,0.5-0.3,1.3-0.6,2.4
			C303.7,38.2,303.7,38.3,303.6,38.5L303.6,38.5z M305,34.4V31h2.8v3.4H305z M307.8,41.3v-2.1h-1.5v2.7H305v-6.5h9.6v4.8
			c0,1-0.4,1.5-1.3,1.5c-0.4,0-0.8,0.1-1.3,0.1c0-0.1,0-0.4-0.1-0.7c0-0.2-0.1-0.4-0.1-0.5c0.1,0,0.2,0,0.5,0.1h0.4
			c0.4,0,0.6-0.2,0.6-0.6v-0.8h-1.5v2.1h-1.3v-2.1h-1.5v2.1L307.8,41.3L307.8,41.3z M305.9,32.1v1.3h1v-1.3H305.9z M306.3,36.6V38
			h1.5v-1.5H306.3z M309.8,27.5c-0.6,0.6-1.2,1.2-2,1.7h4C311.2,28.7,310.5,28.2,309.8,27.5z M308.4,34.4V31h2.8v3.4H308.4z
			 M309.1,36.5V38h1.5v-1.5H309.1z M309.4,32.1v1.3h0.9v-1.3H309.4z M313.3,36.5h-1.5V38h1.5V36.5z M311.9,34.4V31h2.8v3.4H311.9z
			 M312.7,32.1v1.3h1v-1.3H312.7z"/>
		<path class="st0" d="M318.6,41.6v-13h1.8c0.1-0.5,0.3-1.1,0.5-2c0-0.3,0.1-0.5,0.1-0.6l1.9,0.3c-0.2,0.8-0.4,1.6-0.7,2.3h2.9v13
			h-1.7v-1.2h-3.1v1.3L318.6,41.6L318.6,41.6z M320.3,30.2v3.5h3.1v-3.5H320.3z M320.3,35.3v3.5h3.1v-3.5H320.3z M327.5,41.5
			c-0.1-0.7-0.2-1.2-0.3-1.7h1.2c0.6,0,1,0.1,1.3,0.1c1.2,0,1.8-0.6,1.8-1.7c0-0.7,0.1-2.2,0.1-4.5c0-1.6,0.1-2.8,0.1-3.5h-3.6
			c-0.4,0.9-0.8,1.7-1.2,2.5c-0.1,0-0.2-0.1-0.4-0.3c-0.2-0.1-0.6-0.3-1.1-0.6c1-1.9,1.8-3.8,2.4-5.8l1.8,0.4c0,0.2-0.1,0.4-0.3,0.7
			c-0.2,0.6-0.4,1.1-0.5,1.5h4.8c-0.1,4.8-0.2,8.2-0.3,10c0,2-0.9,3-2.9,2.9C329.5,41.5,328.5,41.5,327.5,41.5L327.5,41.5z
			 M328.9,37.1c-0.8-1.2-1.6-2.3-2.5-3.5l1.4-0.9c0.8,0.9,1.7,2.1,2.6,3.4L328.9,37.1L328.9,37.1z"/>
		<path class="st0" d="M351.6,27.6h-4.5v7.8h-1.1v-8.8h5.5C351.6,26.6,351.6,27.6,351.6,27.6z"/>
		<path class="st0" d="M355.7,32v-1.8h6.7c0-1,0.1-2.4,0.1-4.2h2l-0.1,4.2h6.7V32h-6.6c0.6,3.8,2.9,6.4,7,7.9
			c-0.4,0.4-0.9,1-1.3,1.7c-3.7-1.6-5.9-3.9-6.7-7c-0.7,3-2.9,5.4-6.7,7.2c-0.1-0.2-0.4-0.5-0.7-1c-0.3-0.3-0.4-0.5-0.5-0.7
			c4.2-1.8,6.5-4.5,6.8-8.1H355.7L355.7,32z"/>
		<path class="st0" d="M375.3,33.1l-0.9-1.7l1.8-0.1c1.8-1.9,3.2-3.7,4.5-5.5l2,0.9c-0.9,1.1-2.3,2.6-4.1,4.5c0.8,0,2.1-0.1,3.8-0.2
			c1.6,0,2.9-0.1,3.7-0.1l-2-2l1.3-1c1.9,1.7,3.5,3.3,4.8,4.7l-1.5,1.1c-0.1-0.1-0.3-0.3-0.6-0.7l-0.6-0.6c-2.9,0-6.2,0.2-10,0.3
			C376.6,32.9,375.8,33,375.3,33.1L375.3,33.1z M376,41.9v-7.4h12.2v7.4h-1.9v-1h-8.6v1H376z M377.8,36.1v3.2h8.6v-3.2H377.8z"/>
		<path class="st0" d="M393,32.1v-1.7h4.2v-4.2h1.9v15.6h-1.9v-2.9c-1.4,0.5-2.7,1-4,1.3l-0.4-1.8c1.3-0.3,2.8-0.8,4.5-1.3v-5H393
			L393,32.1z M404.4,41.3c-1.8,0-2.6-0.8-2.6-2.5V26.1h1.9v5.2c1.3-0.8,2.6-1.5,3.9-2.4l1.1,1.6c-1.9,1.1-3.5,2-5,2.8v5.2
			c0,0.8,0.3,1.2,1.1,1.2h0.5c0.8,0.1,1.3-0.4,1.4-1.4c0.1-0.7,0.2-1.5,0.3-2.5c0.7,0.2,1.3,0.4,1.8,0.6c0,0.3-0.1,1-0.3,1.9
			c0,0.4-0.1,0.7-0.1,0.9c-0.2,1.5-1.2,2.2-2.9,2.1L404.4,41.3L404.4,41.3z"/>
		<path class="st0" d="M411.9,29v-1.5h3V26h1.6v1.6h3V29h-5.7c0.2,0.3,0.4,0.7,0.8,1.2c0.2,0.3,0.4,0.5,0.5,0.7l-1,0.5h1.9
			c0.5-0.8,0.9-1.6,1.3-2.4l1.5,0.5c-0.4,0.7-0.8,1.3-1.2,1.9h2.1V33h-3.3v1.5h3V36h-3v0.9l0.7-0.5c0.5,0.4,1.4,1.2,2.5,2.5l-1.1,1
			c-0.1-0.1-0.2-0.3-0.5-0.5c-0.7-0.9-1.2-1.5-1.5-1.8v4.2h-1.7v-4.2c-0.7,1.3-1.6,2.4-2.7,3.2l-1-1.2c1.4-1,2.4-2.2,3.1-3.5h-2.5
			v-1.5h3V33h-3.5v-1.5h2.3c-0.4-0.6-0.8-1.2-1.2-1.8l1.3-0.7L411.9,29L411.9,29z M424.1,41.7v-8.2h-2v0.3c0.1,3.5-0.5,6.2-1.9,8.1
			c-0.1-0.1-0.4-0.2-0.7-0.5c-0.3-0.2-0.5-0.4-0.7-0.5c1.2-1.5,1.8-4,1.7-7.2v-6.3c0.1,0,0.2,0,0.5-0.1c2.6-0.2,4.5-0.4,5.8-0.6
			l0.5,1.6c-0.2,0-0.5,0.1-0.9,0.1c-1.7,0.2-3.1,0.3-4.2,0.4v3.1h5.4v1.6h-1.8v8.2L424.1,41.7L424.1,41.7z"/>
		<path class="st0" d="M431,41.4c-0.2-0.4-0.5-0.9-0.9-1.5c2.9-0.9,5-2,6.4-3.2h-5v-6.6h5.6v-1.2h-6.8v-1.5h6.8V26h1.8v1.4h6.8v1.5
			h-6.8v1.2h5.6v6.6h-4.9c1.4,1.3,3.5,2.3,6.4,3c-0.3,0.3-0.6,0.9-0.9,1.5c-2.8-0.9-4.9-2-6.2-3.4v3.9h-1.8v-3.9
			C436,39.3,434,40.4,431,41.4L431,41.4z M433.4,31.4v1.3h3.9v-1.3C437.3,31.4,433.4,31.4,433.4,31.4z M433.4,34v1.4h3.9V34H433.4z
			 M443,31.4h-3.9v1.3h3.9C443,32.7,443,31.4,443,31.4z M439.1,34v1.4h3.9V34H439.1z"/>
		<path class="st0" d="M449.7,28v-1.5h14.8V28h-12.7v11.4c0,0.3,0.2,0.5,0.7,0.5h12.2v1.4h-13c-1,0-1.5-0.5-1.5-1.4V28H449.7
			L449.7,28z M453,38.7v-4.5h4.9v4.5H453z M454.3,33.2v-4.1h8.3v4.1H454.3z M454.4,35.5v2.1h2.1v-2.1H454.4z M455.9,30.4V32h5.1
			v-1.7H455.9z M459.1,38.7v-4.5h4.9v4.5H459.1z M460.4,35.5v2.1h2.3v-2.1H460.4z"/>
		<path class="st0" d="M468.5,41.7V26.7h6.3v6.9h-4.6v8.2L468.5,41.7L468.5,41.7z M470.2,28v1.5h2.9V28H470.2z M470.2,32.2h2.9v-1.5
			h-2.9V32.2z M477.7,41.7c0-0.1-0.1-0.3-0.1-0.6c-0.1-0.5-0.2-0.9-0.3-1.1h2.4c1,0,1.5-0.4,1.4-1.3v-5.1h-4.6v-6.9h6.4v12.5
			c0,1.6-0.8,2.4-2.5,2.4L477.7,41.7L477.7,41.7z M478.1,28v1.5h3V28H478.1z M478.1,30.7v1.5h3v-1.5H478.1z"/>
		<path class="st0" d="M487.7,41.9c-0.1-0.1-0.2-0.2-0.5-0.5c-0.4-0.3-0.8-0.6-1-0.8c1.5-1.6,2.1-4,2-7v-6.4
			c5.3-0.1,9.6-0.2,12.9-0.5l0.3,1.6c-3.9,0.3-7.7,0.4-11.4,0.5v1.9h11.1v7h-1.9v-1.3h-9.3C489.7,38.3,488.9,40.2,487.7,41.9
			L487.7,41.9z M499.1,32.2H490v2.6h9.2V32.2z"/>
		<path class="st0" d="M506,40.9h4.4v-7.7h1.1V42H506L506,40.9L506,40.9z"/>
	</g>
</g>
</svg>
