<?xml version="1.0" encoding="utf-8"?>
<!-- Generator: Adobe Illustrator 27.0.0, SVG Export Plug-In . SVG Version: 6.00 Build 0)  -->
<svg version="1.1" id="_圖層_2" xmlns="http://www.w3.org/2000/svg" xmlns:xlink="http://www.w3.org/1999/xlink" x="0px" y="0px"
	 viewBox="0 0 628.1 93.2" style="enable-background:new 0 0 628.1 93.2;" xml:space="preserve">
<style type="text/css">
	.st0{fill:#FFFFFF;}
</style>
<g id="_圖層_1-2">
	<g>
		<path class="st0" d="M145.6,15.1l-1.1-1.5c0.5-0.3,1-0.6,1.5-0.9v-12h1.9v10.9c0.3-0.2,0.7-0.4,1.3-0.8c1-0.7,1.9-1.2,2.5-1.6
			c0.1,0.8,0.2,1.4,0.3,2.1c-1.2,0.7-2.9,1.7-5.2,3.1C146.2,14.6,145.8,14.9,145.6,15.1L145.6,15.1z M152.1,5.2
			c-0.8-1.5-1.6-2.9-2.4-4.2l1.5-0.9c0.4,0.7,1,1.7,1.8,3c0.3,0.5,0.6,0.9,0.7,1.2L152.1,5.2L152.1,5.2z M159.2,15.6
			c-1-1.3-1.9-2.5-2.9-3.6c-0.9,1.3-2.6,2.7-5.1,4c-0.4-0.6-0.8-1.1-1.3-1.6c4.4-1.8,6.6-4.9,6.4-9.3c0-0.9,0.1-2.4,0.1-4.7h1.9
			c0,1,0,2.4-0.1,4.1v0.5c-0.1,2.2-0.5,4-1,5.2c0.7,0.7,1.6,1.7,2.9,3.2c0.3,0.3,0.5,0.5,0.6,0.6L159.2,15.6L159.2,15.6z"/>
		<path class="st0" d="M161.8,2.3V0.9h9v1.4h-7.1v10.5c0,0.4,0.2,0.7,0.6,0.7h6.4v0.4c1.3-1.5,2.1-3.4,2.2-5.8
			c0.1-1,0.1-1.9,0.1-2.8h1.5c0,0.8-0.1,1.5-0.1,2.1c0.4,3.1,1.4,5.4,3.2,7c-0.1,0.2-0.2,0.4-0.5,0.8c-0.2,0.3-0.4,0.6-0.5,0.7
			c-1.6-1.6-2.5-3.4-2.9-5.4c-0.3,2.1-1.2,3.9-2.9,5.6c-0.3-0.5-0.6-0.9-1-1.3h-6.3c-0.9,0-1.3-0.4-1.3-1.3V2.3H161.8L161.8,2.3z
			 M164.4,12.4V8.1h2.7v4.2H164.4z M165.1,7.2V3.2h4.9v3.9C169.9,7.2,165.1,7.2,165.1,7.2z M165.3,9.2v2.1h0.9V9.2
			C166.2,9.2,165.3,9.2,165.3,9.2z M166.3,4.5V6h2.5V4.5H166.3z M167.9,12.4V8.1h2.8v4.2H167.9z M168.7,9.2v2.1h1V9.2
			C169.7,9.2,168.7,9.2,168.7,9.2z M176.6,7l-1.4-0.3L176,4h-3.1c-0.4,1.1-0.9,2.1-1.4,3.2c-0.3-0.3-0.7-0.7-1.3-1.1
			c1-1.7,1.8-3.7,2.2-6l1.6,0.3c-0.2,0.8-0.4,1.5-0.6,2.2h4.1V4L176.6,7L176.6,7z"/>
		<path class="st0" d="M180.4,7.9c-0.2-0.3-0.5-0.7-0.9-1.3c-0.4-0.6-0.7-1-0.9-1.3l1.4-0.8c0.3,0.3,0.6,0.7,1,1.2
			c0.4,0.5,0.8,0.9,1,1.3L180.4,7.9L180.4,7.9z M180.4,15.7l-1.7-0.5c0.4-1.1,0.8-3.1,1.5-5.8c0.5,0.2,1,0.4,1.6,0.5
			c-0.2,0.7-0.4,1.8-0.8,3.3C180.7,14.3,180.6,15.2,180.4,15.7L180.4,15.7z M181,3.7c-0.3-0.3-0.6-0.8-1.1-1.5
			c-0.4-0.5-0.6-0.9-0.8-1.1l1.5-0.8c0.1,0.2,0.4,0.5,0.7,0.9c0.6,0.8,1,1.4,1.3,1.7L181,3.7L181,3.7z M183,9.2
			c-0.4-0.2-0.8-0.4-1.3-0.5c0.6-1.5,1-2.9,1.3-4.1l1.1,0.3c-0.2,0.7-0.5,1.8-0.9,3.3C183.1,8.7,183,9,183,9.2z M183.2,16
			c-0.1-0.1-0.2-0.2-0.5-0.4c-0.4-0.4-0.7-0.7-0.9-0.8c1-1,1.7-2.1,2-3.3c0.4-1.1,0.5-2.7,0.5-4.9V0.4h1.6v6.3
			c0,2.4-0.2,4.3-0.5,5.5C185.1,13.4,184.3,14.7,183.2,16L183.2,16z M187.3,8.9c0-0.2-0.1-0.4-0.2-0.7c-0.3-0.9-0.7-1.9-1.1-3.1
			l1-0.4c0.2,0.4,0.4,1.1,0.8,2c0.2,0.7,0.4,1.2,0.5,1.5V1h1.5v13.9h-1.5V8.5L187.3,8.9L187.3,8.9z M191.3,8.8
			c-0.1-0.3-0.2-0.8-0.5-1.3c-0.1-0.4-0.4-1.3-0.9-2.5l1-0.4c0.2,0.5,0.4,1.2,0.8,2.2c0.2,0.7,0.4,1.2,0.5,1.5V0.4h1.6v15.3h-1.6
			V8.4L191.3,8.8L191.3,8.8z"/>
		<path class="st0" d="M200.8,11.9c-0.4-0.6-0.9-1.3-1.4-1.9v5.8h-1.5v-5.6c-0.4,1.3-1.1,2.5-1.9,3.6c0-0.3-0.2-0.7-0.3-1.2
			c-0.1-0.4-0.2-0.6-0.2-0.7c1-1.2,1.7-2.7,2.3-4.4h-2.1V5.8h2.2V0.1h1.5v5.7h1.9v1.5h-1.9v1.8l0.7-0.5c0.8,0.9,1.5,1.7,1.9,2.3
			L200.8,11.9z M196.5,5.1c0-0.2-0.1-0.5-0.3-0.9c-0.3-1-0.5-1.8-0.7-2.4l1-0.3c0.4,1.1,0.8,2.2,1.1,3.2L196.5,5.1z M200.6,5.1
			l-1-0.4c0.4-1.2,0.8-2.2,1.1-3.2l1.1,0.3C201.5,2.5,201.1,3.6,200.6,5.1L200.6,5.1z M202,2.5V1.4h3.6V0h1.6v1.4h4.1v1.1h-4.1v1
			h3.6v1.1h-3.6v1h4.3v1.2h-9.8V5.7h3.9v-1h-3.4V3.5h3.4v-1L202,2.5L202,2.5z M202.3,15.9V7.8h8.4v5.9c0,1.4-0.6,2.1-2,2.1h-2.1
			c0-0.2-0.1-0.5-0.3-0.9c0-0.2-0.1-0.4-0.1-0.5c0.4,0,1.1,0.1,1.9,0.1c0.7,0,1-0.2,0.9-0.9v-0.3h-5.2v2.7L202.3,15.9L202.3,15.9z
			 M203.9,8.9V10h5.2V8.9H203.9z M203.9,11v1.1h5.2V11C209.1,11,203.9,11,203.9,11z"/>
		<path class="st0" d="M213.2,15.9V8.4h6.4v7.4h-1.7v-0.9h-3.1v0.9L213.2,15.9L213.2,15.9z M214.8,6.8v-6h11.6v6
			C226.3,6.8,214.8,6.8,214.8,6.8z M214.9,10v3.6h3.1V10H214.9z M216.6,2.4v2.8h8V2.4C224.5,2.4,216.6,2.4,216.6,2.4z M221.4,15.9
			V8.4h6.4v7.4h-1.7v-0.9h-3.1v0.9H221.4z M223.1,10v3.6h3.1V10H223.1z"/>
		<path class="st0" d="M240,15.7c0-0.3-0.1-0.6-0.3-1.1c0-0.1-0.1-0.2-0.1-0.3c0.3,0,0.7,0,1.3,0.1h1c0.8,0,1.2-0.3,1.3-1
			c0-0.4,0.1-0.9,0.1-1.8c0-0.4,0.1-0.8,0.1-0.9h-10.6c-0.8,0.9-1.6,1.7-2.5,2.5c0,0-0.1-0.1-0.1-0.3c-0.4-0.6-0.6-1-0.8-1.3
			c2.4-2.1,4.1-4.4,5.2-7H230V3.2h5.1c0.2-0.5,0.5-1.4,0.8-2.5c0.1-0.3,0.1-0.5,0.2-0.6l1.8,0.1c0,0.2-0.1,0.4-0.3,0.8
			c-0.1,0.6-0.4,1.3-0.7,2.3h6.4l-0.5,3h1.4l-0.5,3h1.3c0,0.3,0,0.8-0.1,1.5c0,1.3-0.1,2.3-0.1,2.9c0,1.4-0.8,2.1-2.4,2.1
			C241.6,15.7,240.8,15.8,240,15.7L240,15.7z M233,15.1l-1.6-0.3c0.5-1.1,0.9-2.1,1.3-3.2l1.5,0.2C233.8,13.1,233.4,14.2,233,15.1z
			 M233.4,3.1c-0.3-0.3-0.7-0.8-1.4-1.4c-0.2-0.2-0.4-0.4-0.5-0.5l1-1c0.8,0.7,1.5,1.3,2,1.9L233.4,3.1L233.4,3.1z M235,7.6
			c-0.2,0.4-0.5,0.8-0.9,1.4c0,0.1-0.1,0.2-0.1,0.2h8.1l0.3-1.6H235L235,7.6z M235.5,14.8c-0.1-0.8-0.3-1.8-0.5-3l1.3-0.1
			c0.2,0.8,0.5,1.8,0.7,2.9L235.5,14.8z M236.5,4.6c0,0.1-0.1,0.3-0.2,0.5c-0.1,0.3-0.3,0.6-0.5,1.1h5.4l0.3-1.6H236.5L236.5,4.6z
			 M238.5,14.3c-0.1-0.2-0.2-0.6-0.4-1.1c-0.2-0.7-0.3-1.1-0.5-1.5l1.3-0.2c0.1,0.2,0.3,0.6,0.5,1.3c0.2,0.6,0.4,1,0.5,1.3
			C239.9,14,238.5,14.3,238.5,14.3z M241.2,13.7c-0.3-0.7-0.6-1.4-1.1-2.3l1.2-0.4c0.1,0.2,0.2,0.4,0.4,0.8c0.3,0.7,0.5,1.2,0.7,1.5
			L241.2,13.7L241.2,13.7z"/>
		<path class="st0" d="M251.4,15.5v-1h-2.7v1.2h-1.5V1.8h1.7c0.1-0.3,0.2-0.6,0.3-1.1c0-0.3,0.1-0.5,0.1-0.6l1.7,0.1
			c-0.1,0.5-0.3,1-0.4,1.5h2.2v5.4h-4v1.9h4.2v6.4L251.4,15.5L251.4,15.5z M248.6,3.2v2.5h2.5V3.2H248.6z M251.4,10.6h-2.7v2.7h2.7
			V10.6z M253.5,2.4V0.9h9.1v1.5h-3.8v2.1h3.2v7.1c0,1.1-0.5,1.8-1.4,1.8h-1.2c0-0.2-0.1-0.4-0.1-0.8c-0.1-0.4-0.2-0.6-0.2-0.7h0.9
			c0.4,0,0.6-0.1,0.6-0.6V6.1h-1.8v9.8h-1.7V6.1h-1.7v7.5h-1.5v-9h3.2V2.5L253.5,2.4L253.5,2.4z"/>
		<path class="st0" d="M272.9,4.9v2.2c0,1.7-0.7,3-2.2,3.8l-0.6-0.7c1.1-0.7,1.7-1.6,1.7-2.7h-1.3V4.9L272.9,4.9L272.9,4.9z"/>
		<path class="st0" d="M295.2,15.6c-3.8-2-6-4.9-6.6-8.6c-0.7,3.7-2.9,6.7-6.8,8.8c-0.4-0.6-0.8-1.1-1.3-1.7c4.2-2.2,6.5-5.5,6.8-10
			c0.1-1.1,0.1-2.4,0.1-4h2c0,0.1-0.1,0.5-0.1,1.2c0,0.5-0.1,0.9-0.1,1.2c0.4,5.8,2.8,9.5,7.2,11.4
			C295.9,14.6,295.5,15.1,295.2,15.6L295.2,15.6z"/>
		<path class="st0" d="M298.7,8.2c-0.4-0.1-0.8-0.2-1.3-0.2c0.1-0.6,0.3-1.7,0.5-3.2c0.1-0.7,0.1-1.1,0.2-1.4l1.2,0.1
			C299.1,5,298.9,6.6,298.7,8.2z M302.6,5.6c-0.4-0.4-0.8-0.8-1.2-1.1v11.3h-1.7V0.1h1.7v2.6c0.7,0.4,1.3,1,2,1.5L302.6,5.6
			L302.6,5.6z M304.4,7.6c-0.2-0.1-0.4-0.2-0.7-0.3c-0.4-0.1-0.6-0.2-0.8-0.3c0.8-1.7,1.4-3.6,1.8-5.8l1.7,0.3
			c0,0.3-0.1,0.7-0.3,1.2c-0.1,0.4-0.2,0.7-0.2,0.9h1.8V0.1h1.8v3.5h3.8v1.7h-3.8v3.3h3.5v1.7h-3.5v3.6h4.2v1.5h-10.8v-1.5h4.8v-3.6
			h-3.9V8.5h3.9V5.2h-2.3C305,6,304.7,6.8,304.4,7.6L304.4,7.6z"/>
		<path class="st0" d="M314.8,4.5V2.9h2.1V0.1h1.7l-0.1,2.9h1.9v1.6h-1.9V7h2.2v1.6h-2.3l-0.1,0.8h0.1c0.8,0.9,1.7,1.9,2.7,2.9
			l-1.1,1.3c-0.1-0.1-0.3-0.4-0.5-0.7c-0.6-0.7-1-1.3-1.3-1.7c-0.3,1.4-1.1,2.9-2.5,4.6c-0.1-0.1-0.2-0.3-0.5-0.5
			c-0.3-0.4-0.5-0.8-0.7-0.9c1.5-1.6,2.4-3.5,2.5-5.8h-2.2V7h2.3c0-0.1,0-0.2,0.1-0.4V4.5L314.8,4.5L314.8,4.5z M321.3,10.8v-10h8.2
			v10h-2.1v2.7c0,0.4,0.1,0.6,0.6,0.6h0.5c0.4,0,0.6-0.2,0.7-0.7c0.1-0.6,0.1-1.1,0.2-1.6c0.2,0.1,0.5,0.2,1,0.4
			c0.1,0,0.2,0.1,0.3,0.1c-0.1,1-0.2,1.6-0.3,1.8c-0.2,1.1-0.8,1.6-1.7,1.5h-1c-1.3,0-1.9-0.6-1.9-1.9v-2.9h-1.3
			c0.1,2.5-1.2,4.3-3.9,5.2c-0.3-0.4-0.6-0.9-1-1.3c2.4-0.7,3.5-2,3.4-3.9L321.3,10.8L321.3,10.8z M322.9,2.1v1.5h4.9V2.1H322.9z
			 M322.9,5v1.5h4.9V5H322.9z M322.9,7.8v1.6h4.9V7.8H322.9z"/>
		<path class="st0" d="M331.6,15.5l-0.1-1.3c0.4,0,0.9,0,1.7-0.1c4.1,0,7-0.1,8.9-0.2v0.6c0,0.3-0.1,0.5-0.1,0.6
			C339.2,15.3,335.7,15.4,331.6,15.5z M331.5,3.7v-1h4.4V2h-3.5V1.1h3.5V0h1.6v1.1h3.7v1.7h0.9v1h-0.9v1.7h-3.7v0.7h4V7h-4v0.8h4.6
			v0.9h-10.6V7.8h4.3V7h-3.8V6.2h3.8V5.4h-3.6V4.5h3.6V3.7C335.9,3.7,331.5,3.7,331.5,3.7z M332.3,13.5V9.4h9v4.1H332.3z
			 M333.8,10.3v0.8h2.3v-0.8H333.8z M333.8,11.8v0.8h2.3v-0.8H333.8z M339.8,2h-2.3v0.7h2.3V2z M337.5,3.7v0.8h2.3V3.7
			C339.8,3.7,337.5,3.7,337.5,3.7z M339.8,10.3h-2.3v0.8h2.3V10.3z M337.5,11.8v0.8h2.3v-0.8H337.5z M343.1,15.7
			c0-0.2-0.1-0.4-0.1-0.7c-0.1-0.4-0.2-0.6-0.2-0.8h1.7c0.8,0,1.1-0.2,1.1-0.7V0.1h1.4v13.6c0.1,1.3-0.5,2-1.8,2H343.1z M342.9,12.1
			V1.5h1.3v10.6L342.9,12.1L342.9,12.1z"/>
		<path class="st0" d="M359,15.7c0-0.3-0.1-0.6-0.3-1.1c0-0.1-0.1-0.2-0.1-0.3c0.3,0,0.7,0,1.3,0.1h1c0.8,0,1.2-0.3,1.3-1
			c0-0.4,0.1-0.9,0.1-1.8c0-0.4,0.1-0.8,0.1-0.9h-10.6c-0.8,0.9-1.6,1.7-2.5,2.5c0,0-0.1-0.1-0.1-0.3c-0.4-0.6-0.6-1-0.8-1.3
			c2.4-2.1,4.1-4.4,5.2-7H349V3.2h5.1c0.2-0.5,0.5-1.4,0.8-2.5c0.1-0.3,0.1-0.5,0.2-0.6l1.8,0.1c0,0.2-0.1,0.4-0.3,0.8
			c-0.1,0.6-0.4,1.3-0.7,2.3h6.4l-0.5,3h1.4l-0.5,3h1.3c0,0.3,0,0.8-0.1,1.5c0,1.3-0.1,2.3-0.1,2.9c0,1.4-0.8,2.1-2.4,2.1
			C360.7,15.7,359.8,15.8,359,15.7L359,15.7z M352,15.1l-1.6-0.3c0.5-1.1,0.9-2.1,1.3-3.2l1.5,0.2C352.8,13.1,352.4,14.2,352,15.1z
			 M352.4,3.1c-0.3-0.3-0.7-0.8-1.4-1.4c-0.2-0.2-0.4-0.4-0.5-0.5l1-1c0.8,0.7,1.5,1.3,2,1.9L352.4,3.1L352.4,3.1z M354,7.6
			c-0.2,0.4-0.5,0.8-0.9,1.4c0,0.1-0.1,0.2-0.1,0.2h8.1l0.3-1.6H354z M354.5,14.8c-0.1-0.8-0.3-1.8-0.5-3l1.3-0.1
			c0.2,0.8,0.5,1.8,0.7,2.9L354.5,14.8z M355.5,4.6c0,0.1-0.1,0.3-0.2,0.5c-0.1,0.3-0.3,0.6-0.5,1.1h5.4l0.3-1.6H355.5L355.5,4.6z
			 M357.5,14.3c-0.1-0.2-0.2-0.6-0.4-1.1c-0.2-0.7-0.3-1.1-0.5-1.5l1.3-0.2c0.1,0.2,0.3,0.6,0.5,1.3c0.2,0.6,0.4,1,0.5,1.3
			C358.8,14,357.5,14.3,357.5,14.3z M360.2,13.7c-0.3-0.7-0.6-1.4-1.1-2.3l1.2-0.4c0.1,0.2,0.2,0.4,0.4,0.8c0.3,0.7,0.5,1.2,0.7,1.5
			L360.2,13.7L360.2,13.7z"/>
		<path class="st0" d="M366.1,4.4V2.7h6.5V0.1h1.8v2.6h6.6v1.7h-5.7c1.4,2.9,3.5,5.2,6.3,6.8c-0.4,0.6-0.7,1.2-0.9,1.8
			c-2.9-2-5-4.4-6.2-7.2v5.6h3.4v1.6h-3.4v2.8h-1.8v-2.8h-3.5v-1.6h3.5V5.9c-1.2,2.8-3.3,5.2-6.2,7.3c-0.4-0.8-0.7-1.4-0.9-1.8
			c2.8-1.8,5-4.2,6.4-7H366.1L366.1,4.4z"/>
		<path class="st0" d="M383.1,15.7v-13h1.8c0.1-0.5,0.3-1.1,0.5-2c0-0.3,0.1-0.5,0.1-0.6l1.9,0.3c-0.2,0.8-0.4,1.6-0.7,2.3h2.9v12.9
			h-1.7v-1.2h-3.1v1.3H383.1L383.1,15.7z M384.8,4.3v3.4h3.1V4.3H384.8z M384.8,9.4v3.4h3.1V9.4H384.8z M392.1,15.6
			c-0.1-0.7-0.2-1.2-0.3-1.7h1.2c0.6,0,1,0.1,1.3,0.1c1.2,0,1.8-0.6,1.8-1.7c0-0.7,0.1-2.2,0.1-4.5c0-1.6,0.1-2.8,0.1-3.5h-3.6
			c-0.4,0.9-0.8,1.7-1.2,2.5c-0.1,0-0.2-0.1-0.4-0.3c-0.2-0.1-0.6-0.3-1.1-0.6c1-1.9,1.8-3.8,2.4-5.8l1.8,0.4c0,0.2-0.1,0.4-0.3,0.7
			c-0.2,0.6-0.4,1.1-0.5,1.5h4.8c-0.1,4.8-0.2,8.1-0.3,10c0,2-0.9,3-2.9,2.9C394,15.6,393.1,15.6,392.1,15.6L392.1,15.6z
			 M393.5,11.2c-0.8-1.1-1.6-2.3-2.5-3.5l1.4-0.9c0.8,0.9,1.7,2.1,2.6,3.4L393.5,11.2L393.5,11.2z"/>
		<path class="st0" d="M414.4,1.7H410v7.8h-1.1V0.7h5.5V1.7z"/>
		<path class="st0" d="M416.6,12.1v-1.5h1V1.4c0.1,0,0.3-0.1,0.6-0.1c0.8-0.2,1.4-0.4,1.9-0.7l0.7,1.3c-0.7,0.3-1.2,0.4-1.7,0.5V4
			h1.4v1.5h-1.4v1.8h1.4v1.4h-1.4v1.9h2V0.7h6.8v9.9h2V8.8h-1.4V7.3h1.4V5.6h-1.4V4.1h1.4V2.3h-1.5V0.9h3v9.8h0.9v1.5L416.6,12.1
			L416.6,12.1z M417.6,15.9c-0.1-0.3-0.4-0.8-0.8-1.5c1.6-0.4,3.5-1.1,5.5-2l0.9,1.4c-0.4,0.1-0.9,0.3-1.6,0.6
			C419.8,15.2,418.4,15.7,417.6,15.9z M422.5,2.1v8.5h4V2.1L422.5,2.1L422.5,2.1z M423.1,4.3V3.1h2.9v1.2H423.1z M423.2,9.6V5.3h2.7
			v4.2L423.2,9.6L423.2,9.6z M424,6.4v2h1v-2H424z M431.6,15.9c-1.8-0.8-3.7-1.5-5.7-2l0.7-1.4c0.9,0.3,2.1,0.7,3.8,1.3
			c0.9,0.3,1.5,0.5,2,0.6L431.6,15.9L431.6,15.9z"/>
		<path class="st0" d="M438.6,5.1V3.8h3.9V2.6h-3.2V1.3h3.2V0h1.7v1.3h4v2.5h1.3v1.3h-1.3v2.5h-4v1.2h4.2V10h-4.2v1.1h4.7v1.3h-4.7
			V14h5.4c-0.2,0.4-0.3,0.8-0.5,1.5c-2.9,0-5.2,0-7-0.1c-2.6,0-4.5-0.6-5.7-1.5c-0.6,0.6-1.3,1.3-2.1,2.1c-0.4-0.8-0.6-1.3-0.9-1.5
			c0.7-0.6,1.3-1.2,1.9-1.9c-0.7-0.8-1.2-1.9-1.7-3.2l1.3-0.7c0.4,1.1,0.8,2,1.2,2.5c0.4-1,0.7-2.1,0.8-3.4h-1.3l-0.3,0.5L433.5,8
			l3.2-5.4h-2.9V1.1h4.8v1.6l-2.1,3.4h2v0.7c-0.2,2.5-0.6,4.3-1.3,5.6c1,1,2.6,1.5,5,1.5h0.3v-1.5h-3.9v-1.3h3.9V10h-3.4V8.7h3.4
			V7.5h-3.2V6.3h3.2V5L438.6,5.1L438.6,5.1z M446.6,2.6h-2.4v1.2h2.4V2.6z M444.2,5.1v1.3h2.4V5.1H444.2z"/>
		<path class="st0" d="M451.6,4.7c-0.1-0.1-0.2-0.2-0.5-0.5c-0.3-0.3-0.5-0.5-0.7-0.6c1.3-1,2.2-2.2,2.8-3.6l1.8,0.1
			c-0.2,0.4-0.4,0.8-0.7,1.2h4.2v1.3h-2.9l1.1,1.4l-1.5,0.4c-0.4-0.6-0.8-1.2-1.3-1.7l0.2-0.1h-0.7C453.1,3.3,452.4,3.9,451.6,4.7
			L451.6,4.7z M451,6.1V4.9h5.7v1.3h-2v2l2-0.2c0,0.4-0.1,0.7-0.1,1.1c0.8-0.5,1.1-1.4,1.1-2.6V4.7h6.2v3.2c0,0.4,0.1,0.6,0.5,0.6
			h0.2c0.4,0,0.5-0.2,0.6-0.6c0.1-0.3,0.1-0.8,0.1-1.4c0.1,0,0.3,0.1,0.5,0.2c0.4,0.1,0.6,0.2,0.7,0.3c0,0.6-0.1,1.1-0.3,1.5
			c-0.2,1-0.8,1.4-1.8,1.4h-0.6c-1,0-1.5-0.5-1.5-1.6V6h-3v0.5c0.1,1.5-0.4,2.6-1.6,3.5h1.6v0.8h6.9v1.4h-5.6c1.3,1,3.3,1.6,6,2
			c-0.3,0.5-0.6,0.9-0.8,1.4c-2.9-0.7-5.1-1.6-6.4-2.8v3.1h-1.7v-3.1c-1.4,1.1-3.5,2.1-6.4,2.9c-0.1-0.2-0.4-0.7-0.9-1.4
			c2.7-0.4,4.6-1.1,6-2.1h-5.6v-1.4h6.8v-0.7h-0.1c0,0-0.1-0.1-0.3-0.2c-0.4-0.4-0.7-0.6-0.9-0.7c-1.6,0.1-3.5,0.3-5.5,0.6l-0.3-1.4
			l2.5-0.2V6.1L451,6.1L451,6.1z M459.3,4.4c-0.1-0.1-0.4-0.2-0.7-0.4c-0.3-0.1-0.5-0.2-0.7-0.3c1.1-1.2,2-2.4,2.5-3.7l1.7,0.1
			l-0.3,0.7l-0.3,0.5h4.7v1.3H463c0.1,0.1,0.2,0.3,0.5,0.5c0.3,0.4,0.5,0.6,0.6,0.8l-1.5,0.4c-0.3-0.5-0.7-1.1-1.2-1.7l0.1-0.1h-0.7
			C460.3,3.3,459.8,3.9,459.3,4.4L459.3,4.4z M461.1,9.4c-0.6-0.7-1.2-1.3-1.7-1.8l1-0.8l1.8,1.7C462.2,8.5,461.1,9.4,461.1,9.4z"/>
		<path class="st0" d="M468.6,15h4.4V7.3h1.1v8.8h-5.5L468.6,15L468.6,15z"/>
		<path class="st0" d="M1.6,29.6c0,0-0.1-0.1-0.2-0.3c-0.6-0.8-1-1.5-1.3-1.9l1.1-0.7c0.5,0.7,1.1,1.4,1.6,2.1v-3h1.5v4.3h1.3v-4.3
			h1.4v3c0.6-0.7,1.1-1.4,1.6-2.1l1.2,0.7C9.4,27.7,9,28.2,8.3,29c-0.2,0.2-0.4,0.4-0.5,0.5l-1.1-0.8v1.3h2.5v1.4H6.7l1.3,0.6
			c-0.3,0.4-0.7,0.9-1.1,1.4h2.2v1.4H5.6v1.5h3.1v1.3H5.6v1.6c1,0,2.3,0,3.8-0.1c0,0.2,0,0.4-0.1,0.7v0.7c-0.5,0-1.3,0.1-2.3,0.1
			c-3,0.1-5.3,0.2-6.8,0.3L0,39.5c1.3,0,2.6,0,3.9-0.1v-1.7H0.7v-1.3h3.3v-1.5H0.3v-1.4h2.2c-0.4-0.6-0.8-1.1-1.1-1.4l1.2-0.6H0
			v-1.4h2.7v-1.3L1.6,29.6L1.6,29.6z M4,33L3,33.5h2.7l-0.5-0.1c0.5-0.7,0.9-1.3,1.3-1.9H2.7c0.1,0.1,0.2,0.2,0.4,0.5
			C3.5,32.4,3.8,32.7,4,33L4,33z M11.1,36.7c-0.3-0.8-0.7-2-1.4-3.6c0.1,0.1,0,0-0.1-0.4l1.4-0.5c0.6,1.5,1.1,2.8,1.6,3.9L11.1,36.7
			z M9.9,30.8v-1.6h3.1v-3.5h1.7v3.5H16v1.6h-1.3v8.6c0,1.2-0.6,1.9-2,1.9h-2.1c-0.1-0.5-0.2-1.1-0.3-1.7c0.4,0,1,0.1,1.7,0.1
			c0.7,0,1-0.3,1-0.9v-8H9.9L9.9,30.8z"/>
		<path class="st0" d="M17.1,29.8v-1.6H20v-2.4h1.7v2.4h2.9v1.6h-4.2c0,0.3,0,0.8-0.1,1.3v1H24c0,2.3,0,4.6-0.1,7
			c-0.1,1.5-0.8,2.2-2.1,2.2c-0.5,0-1.1,0.1-1.7,0.1c-0.1-0.5-0.2-1.1-0.3-1.6h1.3c0.8,0,1.2-0.4,1.1-1.1c0-0.6,0.1-1.7,0.1-3.2
			c0-0.8,0.1-1.4,0.1-1.7h-2.3c0,3.6-0.7,6.3-2.1,8c-0.1-0.2-0.4-0.5-0.9-0.9c-0.2-0.1-0.3-0.2-0.4-0.3c1.1-1.6,1.7-4.1,1.7-7.5
			l0.1-3.1L17.1,29.8L17.1,29.8z M32.3,32.9c-1.7-1.3-3-2.8-3.7-4.5c-0.9,1.7-2.1,3.3-3.6,4.7c-0.1-0.3-0.4-0.6-0.7-1.1
			c-0.1-0.2-0.2-0.3-0.3-0.4c1.9-1.6,3.2-3.5,4-5.8l1.7,0.2c0,0.1-0.1,0.2-0.1,0.4c-0.1,0.2-0.2,0.4-0.2,0.5c1,1.8,2.2,3.3,3.8,4.4
			c-0.1,0.2-0.2,0.5-0.5,1C32.5,32.5,32.4,32.7,32.3,32.9L32.3,32.9z M30.5,41.6c-1.8-1.2-3.6-2.4-5.6-3.6l1.1-1.4
			c0.7,0.4,1.6,0.9,2.9,1.7c1.3,0.8,2.2,1.4,2.9,1.7L30.5,41.6L30.5,41.6z M30.5,36.5c-1-0.7-2.4-1.6-4.2-2.7l1-1.3
			c0.4,0.2,0.9,0.5,1.5,0.9c1.2,0.7,2.1,1.3,2.7,1.7L30.5,36.5L30.5,36.5z"/>
		<path class="st0" d="M35.1,28.5v-1.3h6.6v-1.4h1.7v1.4h6.2v1.3h-2.6l0.5,0.5c-0.8,0.4-1.7,0.8-2.5,1.1c0.5,0.1,1.2,0.3,2.2,0.5
			c0.4,0.1,0.7,0.2,0.9,0.3c-0.1,0.1-0.2,0.3-0.3,0.6c-0.1,0.1-0.2,0.2-0.2,0.3h2.3V33H37v1.6c0.1,2.8-0.5,5.2-1.7,7.1
			c-0.1-0.1-0.4-0.3-0.7-0.5c-0.3-0.3-0.5-0.5-0.7-0.6c1.1-1.3,1.5-3.3,1.5-5.9v-2.9h1.9l-0.6-1.1c1.5-0.2,2.8-0.4,3.9-0.7
			c-0.1,0-0.3-0.1-0.7-0.1c-0.7-0.2-1.5-0.4-2.6-0.6l0.5-0.9L35.1,28.5L35.1,28.5z M38.3,37.7c-0.2-0.2-0.6-0.5-1.2-0.9
			c1-1.1,1.7-2.2,2.2-3.3l1.5,0.3l-0.4,0.8h2.3v-1.3h1.7v1.3h4.8v1.3h-4.8v1.3h4.3v1.3h-4.3v1.3h5.6v1.4H37.2v-1.4h5.5v-1.3h-3.8
			v-1.3h3.8v-1.3h-3C39.3,36.5,38.8,37.1,38.3,37.7L38.3,37.7z M46.7,31.8c-0.7-0.2-1.6-0.4-2.8-0.8c-0.4-0.1-0.8-0.2-1-0.3
			c-1.5,0.4-3.2,0.8-5,1.1L46.7,31.8L46.7,31.8z M38.6,28.5c0.6,0.1,1.5,0.3,2.7,0.6c0.7,0.2,1.2,0.3,1.6,0.4
			c0.5-0.1,1.2-0.4,2.2-0.7c0.4-0.2,0.7-0.3,0.9-0.3L38.6,28.5L38.6,28.5z"/>
		<path class="st0" d="M51.7,41.6v-7.4h6.4v7.4h-1.7v-0.9h-3v0.9H51.7L51.7,41.6z M53.3,32.5v-6h11.5v6H53.3z M53.4,35.7v3.6h3v-3.6
			H53.4z M55,28.1v2.8h8v-2.8H55z M59.9,41.6v-7.4h6.4v7.4h-1.7v-0.9h-3.1v0.9C61.6,41.6,59.9,41.6,59.9,41.6z M61.6,35.7v3.6h3.1
			v-3.6C64.7,35.7,61.6,35.7,61.6,35.7z"/>
		<path class="st0" d="M68.4,29.2v-1.6h4.9c0.1-0.2,0.3-0.5,0.5-1c0.2-0.4,0.3-0.7,0.4-0.9l2,0.2c-0.1,0.2-0.2,0.5-0.4,0.9
			c-0.2,0.4-0.3,0.6-0.4,0.9h8.6v1.6h-9.4c-0.1,0.1-0.2,0.3-0.3,0.6c-0.3,0.4-0.5,0.8-0.6,0.9h8.6v8.6c0.1,1.4-0.7,2.1-2.3,2.1
			c-0.7,0-1.6,0.1-2.7,0.1c0-0.3-0.1-0.6-0.3-1.1c0-0.2-0.1-0.4-0.1-0.5h2.3c0.9,0.1,1.3-0.3,1.2-1.1v-0.6h-7.6v3.4H71v-7.4
			c-0.7,0.8-1.5,1.5-2.3,2.1c-0.1-0.3-0.3-0.8-0.7-1.5c-0.1-0.1-0.1-0.2-0.1-0.3c2-1.6,3.5-3.4,4.5-5.2L68.4,29.2L68.4,29.2z
			 M72.8,32.3v1.5h7.6v-1.5H72.8z M72.8,35.2v1.5h7.6v-1.5H72.8z"/>
		<path class="st0" d="M86.8,31.3V30h4.6V29h1.8V30h3.5v1.3h-3.5v1.3h1.4c1.4-0.7,2.9-1.7,4.6-3l1.1,1.1c-0.2,0.1-0.4,0.3-0.7,0.5
			c-0.5,0.3-1.2,0.8-2.1,1.3h3.6v1.3h-5.9c-0.8,0.4-1.7,0.9-2.5,1.3h6.5v6.5h-1.7V41h-7.7v0.7h-1.7V37c-0.2,0.1-0.6,0.2-1,0.3
			c-0.6,0.3-1.1,0.4-1.5,0.5c-0.2-0.6-0.3-1.1-0.5-1.5c2.5-0.7,4.9-1.5,7-2.5h-6.8v-1.3h6.2v-1.3L86.8,31.3L86.8,31.3z M85.1,28.3
			v-1.4h4.1v-1.2h1.7v1.2h4.2v-1.2h1.7v1.2h4.1v1.4h-4.1v0.9h-1.7v-0.9h-4.2v0.9h-1.7v-0.9H85.1z M89.6,36.4v1.1h7.7v-1.1H89.6z
			 M89.6,38.7v1.1h7.7v-1.1H89.6z"/>
		<path class="st0" d="M116.9,27.5h-4.4v7.8h-1.1v-8.8h5.5C116.9,26.4,116.9,27.5,116.9,27.5z"/>
		<path class="st0" d="M119.5,37.5v-1.4h6.5c0.1-0.3,0.1-0.7,0.1-1h1.9c0,0.3,0,0.6-0.1,1h6.8v1.4h-6.4c0.8,1.4,3.1,2.2,6.8,2.3
			c-0.3,0.6-0.6,1.2-0.9,1.7c-3.6-0.4-6-1.4-7.1-2.9c-0.8,1.4-3.2,2.5-7.2,3.1c-0.1-0.3-0.4-0.9-0.8-1.7c3.9-0.3,6.1-1.2,6.6-2.6
			H119.5L119.5,37.5z M119.6,29.2v-1.4h4.1c-0.1-0.1-0.3-0.4-0.5-0.7c-0.3-0.5-0.6-0.8-0.9-1.1l1.8-0.4c0.3,0.3,0.8,0.9,1.4,1.7
			c0.1,0.1,0.2,0.2,0.2,0.3l-0.7,0.2h3.3c0-0.1,0.1-0.2,0.3-0.3c0.8-0.9,1.2-1.5,1.4-1.8l1.9,0.4c-0.5,0.6-0.9,1.2-1.4,1.7h4v1.4
			h-6.5v1.3h5.7v1.4h-5.7v1.3h6.9v1.4h-15.6v-1.4h6.9v-1.3h-5.6v-1.4h5.6v-1.3L119.6,29.2L119.6,29.2z"/>
		<path class="st0" d="M136,38.7v-1.4h7.6v-0.2l2.3-1.3h-6.5v-1.3h9.2v1.3l-2.9,1.5h6.4v1.4h-6.7v0.9c0,1.3-0.6,1.9-1.9,1.9
			c-0.5,0-1.5,0.1-3,0.1c-0.1-0.7-0.2-1.2-0.3-1.5c0.4,0,1.2,0.1,2.5,0.1c0.7,0,1-0.3,1-0.8v-0.7L136,38.7L136,38.7z M146.8,29.3
			v-0.9h2.4v-1h-2.6v-1.2h4.2v6.1h0.9v3.1h-1.7v-1.9H138v1.9h-1.6v-3.1h0.9v-5.8c1.5-0.3,2.7-0.5,3.6-0.7l0.5,1.3
			c-0.4,0.1-1,0.2-1.9,0.3c-0.3,0.1-0.5,0.1-0.6,0.1v0.9h2.5v0.9h-2.5v1h2.5v1h-2.5v1h10.4v-1h-2.5v-1h2.5v-1L146.8,29.3L146.8,29.3
			z M141.6,28.2c0.5-0.3,1-0.5,1.5-0.8c-0.4-0.3-0.9-0.6-1.4-0.9l0.7-0.8c0.2,0.1,0.4,0.2,0.8,0.5c0.4,0.3,0.7,0.4,0.9,0.5
			c0.5-0.3,0.9-0.7,1.4-1.1l0.8,0.7c-0.1,0.1-0.3,0.2-0.6,0.4c-0.3,0.3-0.5,0.4-0.7,0.5c0.2,0.1,0.4,0.2,0.7,0.4
			c0.3,0.2,0.5,0.4,0.7,0.5l-0.7,0.8l0.5,0.4c-0.4,0.4-0.8,0.7-1.2,0.9c0.1,0.1,0.3,0.2,0.5,0.3c0.4,0.3,0.6,0.4,0.9,0.5l-0.8,0.9
			c-0.5-0.4-1-0.8-1.5-1.1c-0.6,0.4-1.3,0.8-1.9,1.1c-0.2-0.4-0.4-0.7-0.6-0.9c0.5-0.3,1-0.5,1.5-0.9c-0.4-0.3-0.8-0.5-1.3-0.9
			l0.5-0.5l-0.1,0.1C142,28.7,141.8,28.4,141.6,28.2L141.6,28.2z M144,28c-0.4,0.3-0.9,0.5-1.4,0.8c0.1,0.1,0.3,0.2,0.6,0.4
			c0.4,0.3,0.7,0.4,0.9,0.5c0.4-0.3,0.7-0.6,1.1-0.9L144,28L144,28z"/>
		<path class="st0" d="M153,30v-1.4h6.3V30H153z M153.5,32.4v-1.3h5.3v1.3H153.5z M153.5,34.7v-1.3h5.3v1.3H153.5z M159.6,41.7
			c-0.1-0.2-0.3-0.5-0.5-0.9c-0.1-0.2-0.2-0.4-0.3-0.5v1.1h-1.5v-0.9H155v0.9h-1.5v-5.5h5.2v4.2c1.4-0.3,2.7-0.8,3.8-1.5
			c-0.9-0.8-1.7-2-2.5-3.6l0.9-0.4h-1.4v-1.5h8.4v1.6c-0.8,1.6-1.8,3-2.7,3.9c1,0.6,2.2,1,3.8,1.4c-0.1,0.1-0.2,0.4-0.4,0.7
			c-0.3,0.4-0.4,0.7-0.5,0.8c-1.7-0.6-3.1-1.2-4.2-1.8C162.7,40.5,161.2,41.1,159.6,41.7L159.6,41.7z M153.9,27.6v-1.3h4.6v1.3
			H153.9z M155,37.1v2.1h2.3v-2.1H155z M160.2,32.7c-0.2-0.4-0.5-0.9-1-1.4c1.4-0.5,2-1.6,1.9-3.2v-1.6h5.4v3.2
			c0,0.6,0.1,0.9,0.6,0.9h0.2c0.3,0,0.5-0.2,0.5-0.7c0.1-0.5,0.2-1,0.1-1.3c0.3,0.2,0.7,0.4,1.2,0.5c0,0,0.1,0.1,0.1,0.1v0.2
			c0,0.3-0.1,0.8-0.3,1.4c-0.1,1-0.7,1.4-1.6,1.4h-0.9c-1.1,0-1.6-0.6-1.6-1.9V28h-2.3C162.7,30.2,161.9,31.8,160.2,32.7L160.2,32.7
			z M166.2,34.6h-4.5c0.6,1.2,1.4,2.2,2.3,3C164.8,36.8,165.6,35.8,166.2,34.6L166.2,34.6z"/>
		<path class="st0" d="M170,30.1v-1.4h7.2v1.4H170z M170.5,32.5v-1.3h6.2v1.3H170.5z M170.5,34.9v-1.3h6.2v1.3H170.5z M170.7,41.5
			v-5.6h5.9v5.5H175v-0.7h-2.7v0.8H170.7L170.7,41.5z M170.9,27.6v-1.3h5.5v1.3H170.9z M172.2,37.3v2.1h2.7v-2.1H172.2z M177.4,33
			v-1.7h3.4v-5.5h1.8v5.5h3.4V33h-3.4v8.6h-1.8V33H177.4z"/>
		<path class="st0" d="M188.1,40.7h4.4V33h1.1v8.8h-5.4L188.1,40.7L188.1,40.7z"/>
		<path class="st0" d="M214.5,35.1l-1.4,1.3l-3.6-4l1.3-1.1C210.8,31.2,214.5,35.1,214.5,35.1z"/>
		<path class="st0" d="M235.9,27.5h-4.4v7.8h-1.1v-8.8h5.5V27.5z"/>
		<path class="st0" d="M243.2,37.6c-0.4-0.6-0.9-1.3-1.4-1.9v5.8h-1.5v-5.6c-0.4,1.3-1.1,2.5-1.9,3.6c0-0.3-0.2-0.7-0.3-1.2
			c-0.1-0.3-0.2-0.6-0.2-0.7c1-1.2,1.7-2.7,2.3-4.5h-2.1v-1.5h2.2v-5.7h1.5v5.7h1.9v1.5h-1.9v1.8l0.7-0.5c0.8,0.9,1.5,1.7,1.9,2.3
			C244.4,36.6,243.2,37.6,243.2,37.6z M239,30.8c0-0.2-0.1-0.5-0.3-0.9c-0.3-1-0.5-1.8-0.7-2.4l1-0.3c0.4,1.1,0.8,2.2,1.1,3.2
			L239,30.8z M243.1,30.8l-1-0.4c0.4-1.1,0.8-2.2,1.1-3.2l1.1,0.3C244,28.2,243.6,29.4,243.1,30.8L243.1,30.8z M244.5,28.2v-1.1h3.6
			v-1.4h1.6v1.4h4.1v1.1h-4.1v1h3.6v1.1h-3.6v1h4.3v1.2h-9.8v-1.2h3.9v-1h-3.4v-1.1h3.4v-1C248.2,28.2,244.5,28.2,244.5,28.2z
			 M244.8,41.6v-8.1h8.4v5.9c0,1.4-0.6,2.1-2,2.1h-2.1c0-0.2-0.1-0.5-0.3-0.9c0-0.2-0.1-0.4-0.1-0.5c0.4,0,1.1,0.1,1.9,0.1
			c0.7,0,1-0.2,0.9-0.9V39h-5.2v2.7L244.8,41.6L244.8,41.6z M246.4,34.6v1.1h5.2v-1.1H246.4z M246.4,36.7v1.1h5.2v-1.1H246.4z"/>
		<path class="st0" d="M255.7,29.4v-2.5h6.6v-1.1h1.8v1.1h6.4v2.5h-1.6l-0.1,1.1h2.3v1.2h-2.4l-0.1,1.7h-11.4l0.2-1.7H255v-1.2h2.5
			l0.1-1.6h11.2V28h-11.5v1.3H255.7L255.7,29.4z M255.8,41.7c-0.2-0.5-0.4-0.9-0.6-1.2c0.5-0.1,1.2-0.2,2.2-0.3
			c0.7-0.1,1.9-0.3,3.8-0.5l0.6,1C259.7,41.1,257.7,41.5,255.8,41.7L255.8,41.7z M256.9,39.5V34h12.4v5.5H256.9z M258.6,35v0.7h8.9
			V35H258.6z M258.6,36.4v0.7h8.9v-0.7H258.6z M258.6,37.9v0.7h8.9v-0.7H258.6z M258.9,32.4h3.2l0.1-0.8h-3.2L258.9,32.4z
			 M259.1,29.8l-0.1,0.8h3.2l0.1-0.8H259.1z M263.7,32.4h3.3l0.1-0.8h-3.3L263.7,32.4z M267.2,29.8H264l-0.1,0.8h3.2L267.2,29.8z
			 M270.3,41.7c-1.5-0.4-3.6-0.7-6.1-1.1l0.5-1c1.9,0.2,3.9,0.5,6,0.9L270.3,41.7L270.3,41.7z"/>
		<path class="st0" d="M282.4,38.7v-4.8l-1.7,0.4v4.4c0,0.9,0.4,1.3,1.3,1.2h2.9c0.9,0,1.4-0.2,1.5-0.9c0,0,0-0.2,0.1-0.3
			c0-0.2,0.1-0.6,0.2-1.1c0.5,0.2,1,0.4,1.4,0.5c0,0.7-0.2,1.2-0.4,1.7c-0.2,1-1,1.5-2.4,1.5h-4c-1.5,0-2.2-0.7-2.2-2.1v-4.6
			l-0.8,0.2l-0.1-1.5l0.9-0.2v-1.9c-0.1,0.1-0.2,0.3-0.3,0.4c-0.4-0.4-0.7-0.9-1.1-1.3c0-0.1,0.1-0.2,0.3-0.3
			c0.1-0.1,0.1-0.2,0.2-0.3H275l-0.1,2.3h2.9c0,2,0,4.2-0.1,6.6c0,1.6-0.6,2.4-1.9,2.5h-1.3c0-0.1-0.1-0.4-0.2-0.7
			c-0.1-0.4-0.2-0.6-0.2-0.7h1.2c0.6,0,1-0.4,1-1.1c0.1-1.7,0.1-3.4,0.1-5h-1.5v0.1c0,3.5-0.6,6.1-1.9,7.9l-1.2-1.2
			c1-1.5,1.5-3.7,1.6-6.6V32c0-1,0.1-1.7,0.1-2.3h-1.3v-1.5h2.3v-2.5h1.7v2.5h2.1v1.4c0.9-1,1.6-2.3,2.3-3.9l1.8,0.1
			c-0.3,0.6-0.5,1.2-0.8,1.7h6.4v1.5h-7.3c-0.4,0.6-0.9,1.3-1.5,1.9h1.5v1.6l1.7-0.3v-2.7h1.5V32l3.4-0.7c0,0.3,0,0.8-0.1,1.5
			c0,1.3-0.1,2.2-0.1,2.8c0,1.2-0.5,1.8-1.4,1.9c-0.3,0-0.8,0.1-1.4,0.1c-0.1-0.5-0.2-1-0.3-1.4h0.9c0.5,0,0.8-0.2,0.8-0.7
			c0.1-0.8,0.1-1.5,0.1-2.2l-1.9,0.4v5.1L282.4,38.7L282.4,38.7z"/>
		<path class="st0" d="M290.1,28.9v-1.8h13.9v1.8H298v10h6.8v1.7h-15.7v-1.7h6.8v-10H290.1L290.1,28.9z"/>
		<path class="st0" d="M307.1,40.7h4.4V33h1.1v8.8H307L307.1,40.7L307.1,40.7z"/>
		<path class="st0" d="M333.5,35.1l-1.4,1.3l-3.6-4l1.3-1.1C329.8,31.2,333.5,35.1,333.5,35.1z"/>
		<path class="st0" d="M354.9,27.5h-4.5v7.8h-1.1v-8.8h5.5V27.5z"/>
		<path class="st0" d="M358.2,41.8c-0.5-0.4-0.9-0.8-1.3-1.1c1-1.4,1.4-3.5,1.3-6.3v-4.1h14.7v1.2h-13.1v3.2
			C359.9,37.6,359.4,39.9,358.2,41.8z M358.4,29.4v-3h6.2v3H358.4z M364.7,41.7v-1.3c-1.8,0.1-3.4,0.3-4.7,0.5l-0.2-1.1l1.3-0.1
			v-4.8h-0.8v-1.1h2.7v-0.7h-1.9v-0.9h5.2v0.9h-1.8v0.7h2.5v1.1h-0.8v6.8L364.7,41.7L364.7,41.7z M359.9,27.4v1.1h3.2v-1.1H359.9z
			 M362.5,34.8v0.9h2.3v-0.9H362.5z M362.5,36.6v0.9h2.3v-0.9H362.5z M362.5,39.5l2.3-0.2v-0.9h-2.3V39.5z M366,29.4v-3h6.2v3H366z
			 M367.4,41.7c0-0.1-0.2-0.3-0.4-0.5c-0.2-0.3-0.3-0.5-0.5-0.7c1.2-0.6,2.1-1.2,2.5-1.7c-0.4-0.7-0.7-1.4-1-2.3
			c0,0-0.1,0.1-0.1,0.3c-0.1,0.2-0.3,0.4-0.5,0.8c-0.2-0.4-0.4-0.8-0.7-1.3c0.8-1.2,1.5-2.7,1.9-4.4l1.5,0.2
			c-0.1,0.4-0.3,0.9-0.5,1.3h3.4v1.3h-0.7c-0.3,1.8-0.7,3.2-1.3,4.2c0.4,0.4,1.2,1,2.3,1.5c0,0-0.1,0.2-0.2,0.3
			c-0.1,0.2-0.4,0.5-0.7,1c-0.8-0.6-1.6-1.2-2.4-1.8C369.3,40.4,368.5,41,367.4,41.7L367.4,41.7z M367.5,27.4v1.1h3.2v-1.1H367.5z
			 M369,34.4c0,0-0.1,0.1-0.1,0.2c0.2,1.1,0.5,2.1,0.9,2.9c0.4-0.8,0.8-1.8,0.9-3L369,34.4L369,34.4z"/>
		<path class="st0" d="M374.7,41.5l-0.9-1.7c0.2-0.2,0.5-0.5,0.9-0.9c0.4-0.4,0.8-0.7,0.9-0.9v-3.4h-1.7v-1.5h3.2V38
			c0.8,1.2,2,1.8,3.9,1.8c4,0,7,0,9-0.1c-0.1,0.3-0.2,0.7-0.4,1.2c0,0.1-0.1,0.2-0.1,0.3c-4.1,0-7,0-8.8-0.1c-2,0-3.4-0.6-4.2-1.7
			C376,40,375.3,40.7,374.7,41.5L374.7,41.5z M376.7,32.4c0,0-0.1-0.1-0.3-0.2c-1.1-0.8-1.9-1.4-2.5-1.7l0.9-1.1
			c1.1,0.7,2.1,1.3,2.8,1.8L376.7,32.4L376.7,32.4z M377.1,29.3c-0.7-0.5-1.6-1.1-2.8-1.9l0.9-1.2c0.3,0.2,0.7,0.4,1.2,0.7
			c0.8,0.5,1.3,0.9,1.7,1.1L377.1,29.3L377.1,29.3z M378.6,34.3v-1.2h2.3v-0.7h1.5v0.7h3v-0.7h1.5v0.7h2.3v1.2h-2.3v1.3h2.9v1.2
			h-11.7v-1.2h2.8v-1.3H378.6L378.6,34.3z M379.1,39.5c0-0.1-0.1-0.2-0.3-0.5c-0.2-0.3-0.3-0.5-0.4-0.7c1.5-0.4,2.8-0.8,4-1.3
			l0.7,1.1c-0.2,0-0.4,0.1-0.8,0.3C381,38.9,379.9,39.3,379.1,39.5L379.1,39.5z M380.4,32c-1.2,0-1.8-0.5-1.8-1.7v-3.9h4.7v3.2H380
			v0.6c0,0.5,0.2,0.8,0.9,0.7h0.7c0.4,0,0.7-0.1,0.8-0.5c0.1-0.1,0.1-0.4,0.1-0.7c0.2,0.1,0.5,0.2,1,0.4c0.1,0,0.2,0.1,0.3,0.1
			c0,0.4-0.1,0.7-0.3,0.9c-0.2,0.7-0.8,1-1.7,0.9L380.4,32L380.4,32z M380,27.5v1.1h2v-1.1H380z M382.4,34.3v1.3h3v-1.3H382.4z
			 M386.1,32c-1.2,0-1.8-0.5-1.7-1.7v-3.9h4.6v3.2h-3.3v0.5c0,0.6,0.2,0.8,0.9,0.8h0.8c0.4,0,0.7-0.1,0.8-0.5
			c0.1-0.1,0.1-0.4,0.2-0.7c0.4,0.2,0.8,0.3,1.2,0.5c0,0.4-0.1,0.7-0.3,0.9c-0.2,0.7-0.8,1-1.7,0.9H386.1L386.1,32z M388.7,39.5
			c-0.7-0.3-1.7-0.7-3-1.1c-0.4-0.1-0.8-0.2-1-0.3l0.6-1.1c1.2,0.3,2.6,0.7,4.1,1.3L388.7,39.5L388.7,39.5z M385.7,27.4v1.1h2.1
			v-1.1H385.7z"/>
		<path class="st0" d="M396.1,30.8v-1.3h3.9v-1.2h-3.2V27h3.2v-1.3h1.7V27h4v2.5h1.3v1.3h-1.3v2.5h-4v1.2h4.2v1.3h-4.2v1.1h4.7v1.3
			h-4.7v1.5h5.4c-0.2,0.3-0.3,0.8-0.5,1.5c-2.9,0-5.2,0-7-0.1c-2.6,0-4.5-0.5-5.7-1.5c-0.6,0.6-1.3,1.3-2.1,2.1
			c-0.4-0.8-0.6-1.3-0.9-1.5c0.7-0.6,1.3-1.2,1.9-1.9c-0.7-0.8-1.2-1.9-1.7-3.2l1.3-0.7c0.4,1.2,0.8,2,1.2,2.5
			c0.4-1,0.7-2.1,0.8-3.5h-1.3l-0.3,0.5l-1.9-0.1l3.2-5.4h-2.9v-1.5h4.8v1.6l-2.1,3.4h2v0.7c-0.2,2.5-0.6,4.3-1.3,5.6
			c1,1,2.6,1.5,5,1.5h0.3v-1.5h-3.9v-1.3h3.9v-1.1h-3.4v-1.3h3.4v-1.2h-3.2V32h3.2v-1.3L396.1,30.8L396.1,30.8z M404.1,28.3h-2.4
			v1.2h2.4V28.3z M401.7,30.8V32h2.4v-1.3C404.1,30.8,401.7,30.8,401.7,30.8z"/>
		<path class="st0" d="M408.3,30.5v-1.7h2.3v-3h1.7v3h2.3v1.7h-2.3v2.1l0.6-0.6c1.1,0.9,1.9,1.6,2.5,2.2l-1.3,1.3
			c-0.4-0.4-1-1-1.8-1.9v8h-1.7v-7.6c-0.6,1.4-1.3,2.7-2.1,3.9c-0.2-1.1-0.4-1.9-0.5-2.4c1-1.3,1.9-3,2.6-5.1L408.3,30.5L408.3,30.5
			z M415.4,30.6v-1.7h5v-3h1.7v3h2v1.7h-2v8.5c0,1.5-0.7,2.3-2.3,2.3c-0.2,0-0.6,0-1.3,0.1h-1.3c0-0.6-0.2-1.2-0.3-1.7h2.2
			c0.9,0,1.4-0.3,1.3-1.2V32c-1.4,2.9-3.3,5.4-5.8,7.4c-0.1-0.2-0.4-0.4-0.7-0.7c-0.3-0.3-0.5-0.5-0.6-0.7c2.7-2.1,4.8-4.6,6.1-7.5
			L415.4,30.6L415.4,30.6z"/>
		<path class="st0" d="M426.1,40.7h4.4V33h1.1v8.8H426L426.1,40.7L426.1,40.7z"/>
		<path class="st0" d="M452.5,35.1l-1.4,1.3l-3.6-4l1.3-1.1C448.8,31.2,452.5,35.1,452.5,35.1z"/>
		<path class="st0" d="M473.9,27.5h-4.5v7.8h-1.1v-8.8h5.5V27.5z"/>
		<path class="st0" d="M490.7,41.3c-3.8-2-6-4.9-6.6-8.6c-0.7,3.7-2.9,6.7-6.8,8.8c-0.4-0.6-0.8-1.1-1.3-1.7c4.2-2.2,6.5-5.5,6.8-10
			c0.1-1.1,0.1-2.4,0.1-4h2c0,0.1-0.1,0.5-0.1,1.2c0,0.5-0.1,0.9-0.1,1.2c0.4,5.8,2.8,9.5,7.2,11.4C491.4,40.3,491,40.9,490.7,41.3
			L490.7,41.3z"/>
		<path class="st0" d="M494.2,34c-0.4-0.1-0.8-0.2-1.3-0.2c0.1-0.6,0.3-1.7,0.5-3.2c0.1-0.7,0.1-1.1,0.2-1.4l1.2,0.1
			C494.6,30.8,494.4,32.3,494.2,34z M498.1,31.4c-0.4-0.4-0.8-0.8-1.2-1.1v11.3h-1.7V25.8h1.7v2.6c0.7,0.4,1.3,1,2,1.5L498.1,31.4
			L498.1,31.4z M499.9,33.4c-0.2-0.1-0.4-0.2-0.7-0.3c-0.4-0.1-0.6-0.2-0.8-0.3c0.8-1.7,1.4-3.6,1.8-5.8l1.7,0.3
			c0,0.3-0.1,0.7-0.3,1.2c-0.1,0.4-0.2,0.7-0.2,0.9h1.8v-3.5h1.8v3.5h3.8v1.7h-3.8v3.3h3.5v1.7h-3.5v3.6h4.2v1.5h-10.8v-1.5h4.8
			v-3.6h-3.9v-1.7h3.9v-3.3h-2.3C500.5,31.8,500.2,32.6,499.9,33.4L499.9,33.4z"/>
		<path class="st0" d="M510.3,30.2v-1.6h2.1v-2.9h1.7l-0.1,2.9h1.9v1.6H514v2.5h2.2v1.6h-2.3l-0.1,0.8h0.1c0.8,0.9,1.7,1.9,2.7,2.9
			l-1.1,1.3c-0.1-0.1-0.3-0.3-0.5-0.7c-0.6-0.7-1-1.3-1.3-1.7c-0.3,1.4-1.2,2.9-2.5,4.6c-0.1-0.1-0.2-0.3-0.5-0.5
			c-0.3-0.4-0.5-0.8-0.7-0.9c1.5-1.5,2.4-3.5,2.5-5.8h-2.2v-1.6h2.3c0-0.1,0-0.2,0.1-0.4v-2.1L510.3,30.2L510.3,30.2z M516.8,36.5
			v-10h8.2v10h-2.1v2.7c0,0.4,0.2,0.6,0.6,0.6h0.5c0.4,0,0.6-0.2,0.7-0.7c0.1-0.6,0.2-1.1,0.2-1.6c0.2,0.1,0.5,0.2,1,0.4
			c0.1,0,0.2,0.1,0.3,0.1c-0.1,1-0.2,1.6-0.3,1.8c-0.2,1.1-0.8,1.6-1.7,1.5h-1c-1.3,0-1.9-0.6-1.9-1.9v-2.9H520
			c0.1,2.5-1.2,4.3-3.9,5.2c-0.3-0.4-0.6-0.9-1-1.3c2.4-0.7,3.5-2,3.4-3.9L516.8,36.5L516.8,36.5z M518.4,27.8v1.5h4.9v-1.5H518.4z
			 M518.4,30.7v1.5h4.9v-1.5C523.3,30.7,518.4,30.7,518.4,30.7z M518.4,33.5v1.6h4.9v-1.6H518.4z"/>
		<path class="st0" d="M527.1,41.3l-0.1-1.3c0.3,0,0.9,0,1.7-0.1c4.1,0,7-0.1,8.9-0.2v0.6c0,0.3-0.1,0.5-0.1,0.6
			C534.7,41,531.2,41.1,527.1,41.3z M527,29.4v-1h4.4v-0.7h-3.5v-0.9h3.5v-1.1h1.6v1.1h3.7v1.7h0.9v1h-0.9v1.7H533v0.7h4v0.8h-4v0.8
			h4.7v0.9h-10.6v-0.9h4.3v-0.8h-3.8v-0.8h3.8v-0.7h-3.6v-0.9h3.6v-0.8H527L527,29.4z M527.8,39.2v-4h9v4H527.8z M529.3,36v0.8h2.3
			V36H529.3z M529.3,37.5v0.8h2.3v-0.8H529.3z M535.3,27.7H533v0.7h2.3V27.7z M533,29.4v0.8h2.3v-0.8H533z M535.3,36H533v0.8h2.3V36
			z M533,37.5v0.8h2.3v-0.8H533z M538.6,41.4c0-0.2-0.1-0.4-0.1-0.7l-0.2-0.8h1.7c0.8,0,1.1-0.2,1.1-0.7V25.8h1.4v13.6
			c0.1,1.3-0.5,2-1.8,2L538.6,41.4L538.6,41.4z M538.4,37.8V27.2h1.3v10.6H538.4z"/>
		<path class="st0" d="M545.1,40.7h4.4V33h1.1v8.8H545L545.1,40.7L545.1,40.7z"/>
		<path class="st0" d="M561.9,41.6V26.8h14.3v14.8h-1.8v-0.9h-10.8v0.9H561.9L561.9,41.6z M572,36.3c-1.3,0-2-0.6-1.9-2v-5.8H568v3
			c0.1,2.4-0.8,4.3-2.9,6c-0.4-0.4-0.8-0.9-1.3-1.3c1.8-1.3,2.7-2.9,2.5-4.9v-2.9h-2.6v10.7h10.8V28.5h-2.7v5.2c0,0.7,0.3,1,1,0.9
			h1.7c0,0.1,0,0.2-0.1,0.3c-0.1,0.4-0.2,0.8-0.3,1.3L572,36.3L572,36.3z"/>
		<path class="st0" d="M578.3,31.8V30h6.7c0-1,0.1-2.4,0.1-4.2h2L587,30h6.7v1.8H587c0.6,3.8,2.9,6.4,7,7.9c-0.4,0.4-0.9,1-1.3,1.7
			c-3.7-1.6-5.9-3.9-6.7-7c-0.7,3-2.9,5.4-6.7,7.2c-0.1-0.2-0.4-0.5-0.7-1c-0.3-0.3-0.4-0.5-0.5-0.7c4.2-1.8,6.5-4.5,6.8-8.1
			L578.3,31.8L578.3,31.8z"/>
		<path class="st0" d="M596.2,37.9v-1.5h5.9v-1.1h1.9v1.1h5.9v1.5H604v1.7h7v1.3h-15.9v-1.3h7v-1.7H596.2L596.2,37.9z M595.8,35.1
			v-8.7h7.2v1.3H601V29h2v3.5h-2v1.4h2v1.2H595.8z M597.3,27.6V29h2.2v-1.3H597.3z M601.5,30.1h-4.2v1.3h4.2V30.1z M597.3,32.5v1.4
			h2.2v-1.4H597.3z M603.8,35.1c0,0-0.1-0.1-0.1-0.3c-0.3-0.6-0.6-1-0.7-1.2c1.2-0.4,2.1-0.9,2.8-1.5c-0.8-0.9-1.5-2.2-1.9-3.8
			l0.7-0.3h-1v-1.4h6.8v1.5c-0.6,1.7-1.4,3-2.3,3.9c0.8,0.6,1.8,1,3,1.4c-0.2,0.4-0.5,1-0.7,1.6c-1.3-0.5-2.5-1.2-3.5-1.9
			C606.1,33.8,605.1,34.4,603.8,35.1L603.8,35.1z M605.3,28.1c0.5,1.4,1,2.4,1.7,3c0.7-0.8,1.3-1.8,1.7-3H605.3L605.3,28.1z"/>
		<path class="st0" d="M612.2,30.4v-1.6h1.9v-3h1.7v3h1.7v1.6h-1.7v2.9c0.2,0,0.4-0.1,0.8-0.2c0.3,0,0.6-0.1,0.8-0.1
			c0,0.7,0,1.2,0.1,1.7l-1.7,0.3v4.6c0,1.2-0.5,1.8-1.7,1.8h-1.6c-0.2-0.7-0.3-1.3-0.3-1.7h0.3c0.4,0,0.7,0,0.9,0
			c0.5,0,0.8-0.2,0.7-0.7v-3.6c-0.1,0-0.2,0-0.3,0.1c-0.4,0.1-0.9,0.2-1.6,0.4L612,34l2.1-0.3v-3.2L612.2,30.4L612.2,30.4z
			 M618.3,29.3v-1.5h3.6v-2h1.7v2h3.7v1.5h-3.7v1.9h4.5v1.6h-10.6v-1.6h4.4v-1.9H618.3z M617.6,36v-1.6h6.5v-1.2h1.8v1.2h2.1V36
			h-2.1v3.2c0,1.4-0.7,2.1-2.3,2.1c-0.9,0-1.7,0.1-2.5,0.1c0-0.2-0.1-0.6-0.1-1.1c-0.1-0.3-0.1-0.5-0.1-0.7c0.3,0,1,0.1,2.1,0.1
			c0.9,0.1,1.3-0.3,1.2-1.1V36L617.6,36L617.6,36z M620.4,39.5c-0.3-0.4-0.9-1.1-1.9-2.1c0.1,0.1,0,0-0.3-0.3l1.2-1
			c0.3,0.3,0.8,0.8,1.4,1.3c0.4,0.4,0.8,0.8,0.9,0.9C621.8,38.4,620.4,39.5,620.4,39.5z"/>
		<path class="st0" d="M136.5,62.9c-0.1-0.6-0.3-1.2-0.5-1.8c1.6-1.4,2.9-3.1,3.9-5.1l1.5,0.9c-0.5,0.9-1.1,1.8-1.7,2.6v8H138v-6
			C137.5,61.9,137,62.4,136.5,62.9L136.5,62.9z M137.1,57.2c-0.3-0.6-0.5-1.2-0.7-1.7c1.4-1.2,2.6-2.5,3.5-4l1.5,0.9
			C140.1,54.2,138.7,55.8,137.1,57.2L137.1,57.2z M141.2,67.3c-0.4-0.4-0.8-0.8-1.3-1.2c1.5-1.4,2.2-3.6,2.1-6.4l1.7,0.1
			c0,0.8-0.1,1.6-0.2,2.7c0.5,1.3,1.3,2.2,2.2,2.5v-6h1.7v1.8h4.1v1.5h-4.1v3c0.8,0,2.4,0.1,4.6,0.1c0,0,0,0.1-0.1,0.2
			c-0.2,0.6-0.3,1-0.3,1.3c-1.7,0-3.2,0-4.5-0.1c-1.9,0-3.3-0.8-4.1-2.2C142.7,65.4,142.1,66.3,141.2,67.3L141.2,67.3z M145.5,56.8
			c-0.3-0.3-0.8-0.8-1.4-1.3c-0.5,1.2-1.2,2.3-2,3.3c-0.1-0.1-0.4-0.3-0.9-0.7c-0.2-0.1-0.4-0.2-0.5-0.3c1.5-1.7,2.4-3.8,2.8-6.2
			l1.7,0.3c-0.1,0.8-0.3,1.5-0.5,2.1c0.7,0.5,1.3,1,1.9,1.5L145.5,56.8L145.5,56.8z M150.7,58.5c-0.4-0.5-1-1.3-1.9-2.5
			c-0.1-0.1-0.2-0.2-0.3-0.3c-0.4,1.1-1.1,2.1-1.9,3c-0.5-0.4-1-0.7-1.4-0.9c1.5-1.7,2.4-3.8,2.8-6.2l1.7,0.3
			c-0.2,0.8-0.4,1.5-0.6,2.3c0.1,0.1,0.2,0.2,0.4,0.4c1.1,1.4,1.9,2.3,2.4,2.9L150.7,58.5L150.7,58.5z"/>
		<path class="st0" d="M158.1,56.5v-1.3h3.9V54h-3.2v-1.3h3.2v-1.3h1.7v1.3h4v2.5h1.3v1.3h-1.3V59h-4v1.2h4.2v1.3h-4.2v1.1h4.7v1.3
			h-4.7v1.5h5.4c-0.2,0.3-0.3,0.8-0.5,1.5c-2.9,0-5.2,0-7-0.1c-2.6,0-4.5-0.6-5.7-1.5c-0.6,0.6-1.3,1.3-2.1,2.1
			c-0.4-0.8-0.6-1.3-0.9-1.5c0.7-0.6,1.3-1.2,1.9-1.9c-0.7-0.8-1.2-1.9-1.7-3.2l1.3-0.7c0.4,1.2,0.8,2,1.2,2.5
			c0.4-1,0.7-2.1,0.8-3.5h-1.3l-0.3,0.5l-1.9-0.1l3.2-5.4h-2.9v-1.5h4.8v1.6l-2.1,3.4h2v0.7c-0.2,2.5-0.6,4.3-1.3,5.6
			c1,1,2.6,1.5,5,1.5h0.3v-1.5h-3.9v-1.3h3.9v-1.1h-3.4v-1.3h3.4V59h-3.2v-1.2h3.2v-1.3L158.1,56.5L158.1,56.5z M166.1,54h-2.4v1.2
			h2.4V54z M163.7,56.5v1.3h2.4v-1.3H163.7z"/>
		<path class="st0" d="M171.1,56.1c-0.1-0.1-0.2-0.2-0.5-0.5c-0.3-0.3-0.6-0.5-0.7-0.6c1.3-1,2.2-2.2,2.8-3.6l1.8,0.1
			c-0.2,0.4-0.4,0.8-0.7,1.2h4.2v1.3h-2.9l1.1,1.4l-1.5,0.4c-0.4-0.6-0.8-1.2-1.3-1.7l0.2-0.1H173C172.5,54.7,171.9,55.4,171.1,56.1
			L171.1,56.1z M170.5,57.6v-1.3h5.7v1.3h-2v2l2-0.2c0,0.3-0.1,0.7-0.1,1.1c0.8-0.5,1.1-1.4,1.1-2.6v-1.7h6.2v3.2
			c0,0.4,0.1,0.6,0.5,0.6h0.2c0.4,0,0.6-0.2,0.6-0.6c0.1-0.3,0.1-0.8,0.1-1.4c0.1,0,0.3,0.1,0.5,0.2c0.4,0.1,0.6,0.2,0.7,0.3
			c0,0.6-0.1,1.1-0.3,1.5c-0.2,1-0.8,1.4-1.8,1.4h-0.6c-1,0-1.5-0.5-1.5-1.6v-2.3h-3.1V58c0.1,1.5-0.4,2.6-1.6,3.5h1.6v0.8h6.9v1.4
			h-5.6c1.3,1,3.3,1.6,6,2c-0.3,0.5-0.6,0.9-0.8,1.4c-2.9-0.7-5.1-1.6-6.4-2.8v3.1h-1.7v-3.1c-1.4,1.2-3.5,2.1-6.4,2.9
			c-0.1-0.2-0.4-0.7-0.9-1.4c2.7-0.4,4.6-1.2,6-2.1h-5.6v-1.4h6.8v-0.7h-0.1c0,0-0.1-0.1-0.3-0.2c-0.4-0.3-0.7-0.6-0.9-0.7
			c-1.6,0.1-3.4,0.3-5.4,0.6l-0.3-1.4l2.5-0.2v-2.1L170.5,57.6L170.5,57.6z M178.8,55.8c-0.1-0.1-0.4-0.2-0.7-0.4
			c-0.3-0.1-0.6-0.2-0.7-0.3c1.1-1.2,2-2.4,2.5-3.7l1.7,0.1c-0.1,0.2-0.2,0.4-0.3,0.7s-0.2,0.4-0.3,0.5h4.7v1.3h-3.2
			c0.1,0.1,0.2,0.3,0.5,0.5c0.3,0.3,0.5,0.6,0.6,0.8l-1.5,0.4c-0.3-0.5-0.7-1.1-1.2-1.7l0.1-0.1h-0.7
			C179.8,54.7,179.3,55.3,178.8,55.8L178.8,55.8z M180.6,60.8c-0.6-0.7-1.2-1.3-1.7-1.8l1-0.8l1.8,1.7L180.6,60.8L180.6,60.8z"/>
		<path class="st0" d="M187.9,60.8c-0.1-0.1-0.3-0.4-0.6-0.7c-0.3-0.3-0.4-0.6-0.5-0.7c1.6-2.2,2.7-4.8,3.6-7.8l1.8,0.3
			c-0.3,0.8-0.6,1.7-0.9,2.5h4.1v1.7c-0.5,4.9-2.8,8.7-7,11.4c-0.1-0.1-0.3-0.4-0.7-0.9c-0.3-0.3-0.4-0.5-0.5-0.6
			c2-1.3,3.5-2.7,4.5-4.2c-0.2-0.1-0.4-0.3-0.8-0.7c-0.7-0.6-1.2-1-1.6-1.3l1.1-1.3l2.2,1.7c0.5-1.2,0.9-2.6,1.1-4.1h-3.1
			C189.9,57.6,189,59.3,187.9,60.8L187.9,60.8z M196.8,67.3V51.5h1.8v5.6l0.8-0.7c1.2,1.1,2.5,2.3,3.8,3.7l-1.3,1.2
			c-1.1-1.3-2.2-2.4-3.2-3.4v9.4L196.8,67.3L196.8,67.3z"/>
		<path class="st0" d="M204.3,62.9c0-0.2-0.1-0.5-0.3-0.9c0-0.3-0.1-0.5-0.1-0.6c0.9-0.9,1.6-1.9,2-3l1.4,0.2
			c-0.1,0.3-0.3,0.5-0.4,0.7h1.9l0.4-0.9l1.5,0.2l-0.4,0.7h2.6v1.1h-2.7v1.1h2.5v1h-2.5v1.1h2.5v1h-2.5v0.9h2.6v0.7
			c1.2-0.7,1.8-2,1.7-3.8h-0.9v-10h5.8v10H218v3c0,0.3,0.1,0.4,0.3,0.4h0.2c0.3,0,0.4-0.1,0.5-0.5c0.1-0.6,0.1-1.2,0.1-1.7
			c0.4,0.1,0.7,0.2,1,0.3c0,0.6,0,1.2-0.1,1.9c-0.1,0.9-0.6,1.4-1.4,1.4h-0.5c-0.9,0-1.4-0.5-1.4-1.6v-3.2h-0.9
			c0.1,2.3-0.6,4-2.3,5.1c-0.2-0.2-0.5-0.5-0.7-0.9v0.1h-6.2v0.8h-1.4V62l-0.4,0.4C204.5,62.6,204.4,62.8,204.3,62.9L204.3,62.9z
			 M204.2,53.8v-1.2h2.3v-1.1h1.4v3.1h-1.4v-0.9C206.5,53.8,204.2,53.8,204.2,53.8z M204.6,58.2v-3h3.6v3H204.6z M205.7,56.1v1.1
			h1.4v-1.1H205.7z M206.5,60.4v1.1h2.3v-1.1H206.5z M206.5,62.5v1.1h2.3v-1.1H206.5z M206.5,64.5v0.9h2.3v-0.9H206.5z M209,58.2v-3
			h3.6v3H209z M209.3,54.7v-3.1h1.4v1.1h2.1v1.2h-2.1v0.9C210.7,54.7,209.3,54.7,209.3,54.7z M210.1,56.1v1.1h1.4v-1.1H210.1z
			 M214.8,53.6v1.7h3.1v-1.7H214.8z M214.8,56.4V58h3.1v-1.6H214.8z M214.8,59.3V61h3.1v-1.7H214.8z"/>
		<path class="st0" d="M221.4,62.3v-1.6h3.4v-1.7h1.7v1.7h3.3v1.6h-3.3v2.4l3.7-0.3c0,0.5-0.1,1-0.1,1.5c-3.7,0.3-6.6,0.6-8.9,0.9
			l-0.3-1.7c0.4,0,0.9,0,1.7-0.1c0.9,0,1.6-0.1,2.1-0.1v-2.6L221.4,62.3L221.4,62.3z M221.2,53.9v-1.6h9v1.6h-4.3
			c-0.8,1.3-1.5,2.4-2,3.2l3.6-0.3l-0.9-1.4l1.3-0.7c0.3,0.5,0.8,1.3,1.5,2.3c0.5,0.7,0.8,1.2,1,1.5l-1.4,0.9l-0.6-1.1
			c-0.2,0-0.6,0.1-1.1,0.1c-2.8,0.2-4.7,0.4-5.7,0.5l-0.3-1.8h0.8c0.4-0.5,0.9-1.5,1.8-2.9c0.1-0.1,0.1-0.2,0.2-0.3L221.2,53.9
			L221.2,53.9z M231,63.3v-10h1.7v10H231z M231.7,67.2c-0.1-0.7-0.2-1.2-0.3-1.7h2.2c0.7,0,1-0.3,1-1.1V51.6h1.8v13.3
			c0.1,1.4-0.6,2.2-2.1,2.2H233C232.4,67.2,232,67.2,231.7,67.2z"/>
		<path class="st0" d="M239.3,67.2V55.4h6.1c0-0.3,0-0.9-0.1-1.7c0.1,0.5,0.1,0.5,0-0.2h-3.4V52h5c0,1.3,0,2.5,0.1,3.4h5.8v9.2
			c0,1.6-0.8,2.4-2.5,2.5c-0.3,0-0.8,0-1.5,0.1h-1.3c0-0.3-0.1-0.7-0.3-1.3c0-0.2-0.1-0.4-0.1-0.5c0.6,0,1.4,0.1,2.5,0.1
			c0.9,0,1.4-0.4,1.3-1.3V57h-3.7c0.4,2,1.5,3.7,3.3,5.2c-0.4,0.5-0.8,1-1.2,1.5c-1.6-1.4-2.6-2.9-3.2-4.5c-0.8,1.6-2,3.1-3.6,4.4
			c-0.1-0.1-0.3-0.3-0.6-0.7c-0.4-0.3-0.6-0.6-0.7-0.7c1.9-1.4,3.2-3.1,4.1-5.2h-4.2v10.2L239.3,67.2L239.3,67.2z"/>
		<path class="st0" d="M255,59.2v-1.5h2.5c-0.5-0.8-1-1.4-1.4-2.1l1.4-0.7c0.5,0.7,1,1.3,1.5,2.1l-1.3,0.7h2.4c0.2-0.4,0.5-1,1-1.8
			c0.2-0.4,0.4-0.8,0.5-0.9l1.5,0.5c-0.4,0.7-0.8,1.4-1.3,2.2h2.4v1.5C264.1,59.2,255,59.2,255,59.2z M255.5,54.9v-1.5h3.3v-1.9h1.8
			v1.9h3.1v1.5H255.5z M255.9,67.2v-6.5h7.3v6.4h-1.7v-1h-4v1.1L255.9,67.2L255.9,67.2z M257.6,62.2v2.7h4v-2.7H257.6z M264.8,67.4
			V52.4h5.9V54l-1.6,4.4c1.3,1.3,2,2.6,1.9,4c0,1.9-0.7,2.8-2.3,2.9c-0.3,0-0.9,0.1-1.7,0.1c-0.1-0.6-0.2-1.2-0.3-1.7h1.4
			c0.8,0,1.3-0.4,1.3-1.4c0-1.2-0.6-2.4-1.9-3.7L269,54h-2.6v13.3H264.8L264.8,67.4z"/>
		<path class="st0" d="M274.3,61.6V60h11.4v1.6H281v3.5h6.6v1.5h-15.1v-1.5h6.6v-3.5L274.3,61.6L274.3,61.6z M274.7,59.4
			c-0.3-0.5-0.6-1-0.9-1.3c2.1-0.5,3.2-1.5,3.2-3h-2.7v1.7h-1.8v-3.4h6.6v-1.8h1.8v1.8h6.6v3.4h-1.1c-0.1,1.3-0.7,2-1.8,2h-2.3
			c-0.9,0-1.4-0.5-1.4-1.5V55h-2.5C278.5,57.2,277.3,58.6,274.7,59.4L274.7,59.4z M285.7,55h-3.2V57c0,0.3,0.2,0.5,0.5,0.5h1.1
			c0.4,0,0.7-0.3,0.7-1.2c0.2,0.1,0.5,0.2,0.9,0.3L285.7,55L285.7,55z"/>
		<path class="st0" d="M289.7,67.3V52h6.5v6h-4.9v9.3L289.7,67.3L289.7,67.3z M291.3,53.3v1.2h3.4v-1.2H291.3z M291.3,56.8h3.4v-1.2
			h-3.4V56.8z M293.3,65.5v-6.4h7.4v6.4H293.3z M294.8,60.3v1.4h4.3v-1.4H294.8z M294.8,64.2h4.3v-1.4h-4.3V64.2z M300.1,67.2
			c0-0.1-0.1-0.3-0.1-0.6c-0.1-0.4-0.2-0.8-0.3-1c0.2,0,0.5,0,1,0.1h1c0.7,0,1-0.3,1-0.9V58h-4.9v-6h6.5v13c0,1.4-0.7,2.1-2.1,2.1
			C301.7,67.2,301,67.2,300.1,67.2L300.1,67.2z M299.4,53.3v1.2h3.4v-1.2H299.4z M299.4,55.6v1.2h3.4v-1.2H299.4z"/>
		<path class="st0" d="M306.7,59l-0.5-1.6l1-0.2v-5.6h1.7v1.7h4.3v1.4H309v2.1c0.7-0.2,1.8-0.4,3.1-0.8c0.5-0.1,0.9-0.2,1.1-0.3
			c0,0.8,0,1.3,0.1,1.6C310.4,58,308.3,58.6,306.7,59L306.7,59z M307.8,67.4v-7.8h3.7c0.2-0.6,0.4-1.1,0.5-1.6l1.9,0.1
			c0,0.2-0.2,0.5-0.4,1c0,0.2-0.1,0.4-0.1,0.5h6.7v7.8h-1.7v-0.8h-8.8v0.8H307.8L307.8,67.4z M309.5,61v1.5h8.8V61H309.5z
			 M309.5,63.8v1.5h8.8v-1.5C318.4,63.8,309.5,63.8,309.5,63.8z M316.6,58.4c-1.5,0-2.2-0.7-2.2-2.3v-4.7h1.7v2.4
			c1.7-0.5,3.2-1.1,4.6-1.7l0.7,1.4c-1.7,0.7-3.5,1.3-5.3,1.8v0.5c0,0.7,0.3,1,1.1,1h1.8c0.7,0,1.1-0.2,1.2-0.8
			c0.1-0.5,0.2-1,0.3-1.4c0.4,0.2,1,0.4,1.6,0.5c0,0.1,0,0.2-0.1,0.5c-0.1,0.6-0.2,1-0.3,1.3c-0.3,1-1,1.5-2.3,1.5L316.6,58.4
			L316.6,58.4z"/>
		<path class="st0" d="M326.5,54.1h-3.1v-1.5h5.2v1.9l-2.2,3.2h2.1v1.5c-0.3,2-0.7,3.5-1.4,4.7c1,0.9,2.6,1.4,4.8,1.5h7.2
			c-0.2,0.5-0.4,1-0.5,1.5c-2.9,0-5.2,0-7-0.1c-2.4,0-4.2-0.6-5.5-1.6c-0.6,0.7-1.3,1.4-2.3,2.2c-0.1-0.1-0.2-0.4-0.5-0.7
			c-0.2-0.3-0.4-0.6-0.5-0.7c0.8-0.6,1.5-1.3,2.1-1.9c-0.6-0.7-1.2-1.8-1.8-3.2l1.3-0.7c0.4,1.2,0.9,2,1.3,2.6
			c0.5-0.9,0.8-2,0.9-3.5h-1.5l-0.4,0.5H323L326.5,54.1L326.5,54.1z M328.7,63.5V62h1.3v-5.8h1.7V62h1.7v-8c-1.2,0-2.5,0.1-3.9,0.2
			V54c0-0.3-0.1-0.8-0.3-1.4c3.2-0.1,6.1-0.3,8.9-0.5l0.3,1.5c-1,0.1-2.1,0.2-3.3,0.3v3h3.1v1.5h-3.1V62h3.4v1.5L328.7,63.5
			L328.7,63.5z"/>
		<path class="st0" d="M339.9,55.8v-1.4h6v1.4H339.9z M340.4,58.1v-1.3h5v1.3H340.4z M340.4,60.5v-1.3h5v1.3H340.4z M340.5,67.3
			v-5.7h4.9v5.6H344v-0.9h-2.1v0.9H340.5z M340.8,53.3V52h4.3v1.3H340.8z M341.9,62.9v2.2h2.1v-2.2H341.9z M346.4,54v-1.2h3.7v-1.3
			h1.7v1.3h4V54h-4V55h3.6v1.1h-3.6v1h4.3v1.2h-10v-1.2h4v-1h-3.5V55h3.5V54H346.4L346.4,54z M346.8,67.3v-8.1h8.4v5.9
			c0,1.4-0.6,2.1-2,2.1h-0.9c-0.6,0-1,0.1-1.3,0.1c-0.1-0.5-0.2-1-0.3-1.5c0.4,0,1.1,0.1,1.9,0.1c0.7,0,1-0.2,0.9-0.9v-0.3h-5.2v2.7
			L346.8,67.3L346.8,67.3z M348.4,60.4v1h5.2v-1H348.4z M348.4,62.5v1.1h5.2v-1.1H348.4z"/>
		<path class="st0" d="M358.3,57.5c-0.5-0.3-0.9-0.7-1.3-1c0.8-1.4,1.4-3.1,1.9-5l1.7,0.3c0,0.1-0.1,0.3-0.1,0.5
			c-0.2,0.6-0.3,1-0.5,1.3h4.5v1.6h-2.2c0,0.9,0,2-0.1,3.4h2.6v1.6h-2.7c0,0.4-0.1,0.8-0.2,1.1c1.3,1.4,2.4,2.6,3.2,3.5l-1.3,1.2
			c-0.2-0.2-0.4-0.4-0.7-0.8c-0.7-0.9-1.3-1.6-1.7-2.1c-0.5,1.4-1.6,2.8-3.2,4.2c-0.4-0.5-0.9-1-1.3-1.5c2.1-1.6,3.3-3.5,3.5-5.8
			h-3.2v-1.6h3.3c0-0.3,0.1-0.9,0.1-1.7c0-0.7,0.1-1.3,0.1-1.7h-1.2c-0.1,0.4-0.4,1.1-0.9,1.9C358.4,57.3,358.3,57.4,358.3,57.5
			L358.3,57.5z M365.5,66.7V53h6.9v13.8h-1.8v-1.5h-3.4v1.5H365.5L365.5,66.7z M367.2,54.6v8.9h3.4v-8.9
			C370.6,54.6,367.2,54.6,367.2,54.6z"/>
		<path class="st0" d="M374.8,62.4c-0.3-0.5-0.5-1.1-0.9-1.7c2.5-0.6,4.7-1.3,6.4-2.1c-0.8-0.8-1.7-1.5-2.5-2.2l1.3-1.1
			c0.2,0.2,0.5,0.4,1,0.8c0.8,0.6,1.5,1.2,2,1.6c1.5-0.8,2.9-1.9,4.1-3h-6.7c-1.2,1.2-2.6,2.3-4.2,3.3c-0.1-0.1-0.2-0.2-0.3-0.4
			c-0.2-0.3-0.5-0.6-0.8-1c2.7-1.6,4.7-3.3,6-5.2l1.9,0.3c0,0-0.1,0.1-0.1,0.2c-0.3,0.4-0.6,0.8-1,1.2h7.6v1.7c-2,2.3-4.6,4-7.6,5.4
			h7.6v7.2h-1.8v-0.9h-8.2v0.9h-1.8v-5.6c-0.2,0-0.6,0.2-1.1,0.3C375.4,62.2,375.1,62.3,374.8,62.4L374.8,62.4z M378.7,61.8V65h8.2
			v-3.2H378.7z"/>
		<path class="st0" d="M391.7,67.4V52.2h14.5v15.2h-1.5v-0.7h-11.4v0.7H391.7z M393.3,53.4v12h11.4v-12H393.3z M394.1,55.4v-1h4.2
			v-0.6h1.4v0.6h4.3v1h-4.3V56h3.6v3.7h-0.3c0.2,0.2,0.4,0.4,0.7,0.7c0.3,0.3,0.5,0.6,0.7,0.8l-1,0.6l-0.5-0.6h-0.8v0.9h2.1v1.1
			h-2.1v0.4c0,1-0.5,1.5-1.7,1.5h-1.9c0-0.1-0.1-0.3-0.2-0.6c0-0.2-0.1-0.3-0.1-0.4c0.2,0,0.5,0,0.9,0.1h0.8c0.5,0,0.8-0.2,0.8-0.7
			v-0.3H396c0.5,0.3,1,0.6,1.5,1l-0.9,0.8c-0.5-0.5-1.1-0.9-1.7-1.3l0.5-0.5h-1.6v-1.1h6.9v-0.8c-2.3,0-4.5,0-6.6,0.1l-0.1-1h4.3
			v-0.7h-3.6V56h3.6v-0.7L394.1,55.4L394.1,55.4z M396,56.9v0.6h2.3v-0.6H396z M396,58.2v0.7h2.3v-0.7H396z M402,56.9h-2.3v0.6h2.3
			V56.9z M399.7,58.9h2.3v-0.7h-2.3V58.9z M399.7,60.3h2.7l-0.5-0.6l0.2-0.1h-2.3L399.7,60.3L399.7,60.3z"/>
		<path class="st0" d="M408.6,67.4V52.3h4.8V54l-1.2,4.2c0.9,1.3,1.3,2.5,1.3,3.8c0,1.7-0.6,2.6-2,2.7c-0.2,0-0.5,0.1-1,0.1
			c-0.1-0.6-0.3-1.1-0.4-1.7v4.3L408.6,67.4L408.6,67.4z M410.1,53.9v9h1c0.6,0,0.9-0.4,0.9-1.3c0-1.1-0.5-2.2-1.4-3.2l1.2-4.5
			H410.1L410.1,53.9z M414.2,62.2c0-0.1-0.2-0.3-0.3-0.6c-0.2-0.3-0.3-0.5-0.4-0.7c1.4-0.6,2.6-1.4,3.8-2.4
			c-0.1-0.3-0.3-0.5-0.5-0.8c-0.7,0.5-1.6,1-2.8,1.5c-0.2-0.3-0.4-0.8-0.8-1.4c1.6-0.6,3.1-1.3,4.3-2.3h-3.6v-1.5h2.7
			c-0.2-0.3-0.5-0.7-0.9-1.3c-0.2-0.3-0.4-0.5-0.5-0.7l1.4-0.6c0,0,0.1,0.1,0.1,0.1c0.6,0.7,1.1,1.3,1.4,1.8l-1.3,0.7h2.3
			c0.7-1,1.2-1.8,1.7-2.6l1.6,0.5L421,54h2.7v1.5h-4c-0.5,0.5-1.1,0.9-1.6,1.3c0.4,0.6,0.8,1.3,1.1,1.9c1.1-0.7,2.3-1.5,3.5-2.5
			l1.1,1.2c-0.7,0.5-1.4,1-2.1,1.5c0.3,2.3,1.2,4.1,2.6,5.3c-0.3,0.5-0.7,1-1.1,1.5c-1.5-1.6-2.4-3.6-2.7-6.1l-0.8,0.5
			c0.3,1,0.4,2.2,0.4,3.5c0.1,2.3-0.8,3.4-2.6,3.3h-2.1c0-0.2-0.1-0.6-0.3-1.2c0-0.2-0.1-0.3-0.1-0.4c0.4,0,1.1,0.1,2,0.1
			c1,0.1,1.4-0.5,1.4-1.8v-1.3c-1.3,1.4-2.9,2.5-4.9,3.5c-0.1-0.2-0.2-0.5-0.5-0.9c-0.1-0.2-0.2-0.4-0.3-0.5c2-0.8,3.7-2.1,5.4-3.8
			c0-0.2-0.1-0.5-0.3-0.9c0-0.1-0.1-0.2-0.1-0.3C416.6,60.8,415.5,61.6,414.2,62.2L414.2,62.2z"/>
		<path class="st0" d="M425.3,67.2c0-0.3-0.1-0.6-0.2-1.1c0-0.3-0.1-0.5-0.1-0.6h0.5c0.3,0,0.5,0.1,0.6,0.1c0.5,0,0.8-0.2,0.7-0.7
			v-3.8c-0.7,0.2-1.3,0.4-1.8,0.5l-0.1-1.9c0.7-0.1,1.3-0.3,1.9-0.4v-3.2h-1.7v-1.6h1.7v-2.9h1.7v2.9h1.5v1.6h-1.5v2.9
			c0.2,0,0.4-0.1,0.7-0.2c0.4,0,0.6-0.1,0.7-0.1c0,0.6,0,1.2,0.1,1.7l-1.5,0.4v4.7c0,1.2-0.5,1.8-1.7,1.8
			C426.3,67.2,425.8,67.3,425.3,67.2L425.3,67.2z M433.2,66.8c-1.7,0-2.5-0.7-2.5-2.3V52.3h9.3v7.8h-7.6v4.1c0,0.8,0.4,1.2,1.3,1.1
			h3.9c0.9,0,1.4-0.3,1.5-1.1c0-0.3,0.1-0.8,0.2-1.5c0-0.4,0.1-0.7,0.1-0.9c0.3,0.1,0.8,0.3,1.5,0.5c0.1,0,0.1,0.1,0.2,0.1
			c0,0.2-0.1,0.5-0.1,0.9c-0.1,0.8-0.2,1.3-0.3,1.7c-0.3,1.2-1.2,1.9-2.9,1.9L433.2,66.8L433.2,66.8z M432.4,53.9v4.7h2.2v-4.7
			H432.4z M438.3,53.9h-2.2v4.7h2.2V53.9z"/>
		<path class="st0" d="M442.7,67.4V52.2h6.6v4.7h-1.5l0.6,0.2c-0.4,0.4-0.9,0.9-1.5,1.5l0.7,0.5c0.7-0.7,1.1-1.2,1.4-1.5l0.9,0.5
			l0.5-0.5l0.5,0.4c0.4-0.3,0.7-0.7,1-1h-1v-4.7h6.6V65c0.1,1.5-0.6,2.2-2.1,2.2c-0.4,0-1,0.1-1.8,0.1c0-0.1-0.1-0.4-0.1-0.7
			c-0.1-0.3-0.2-0.6-0.2-0.7c0.4,0,0.9,0.1,1.5,0.1c0.9,0.1,1.3-0.3,1.2-1.1v-8h-3.2l0.5,0.3c-0.2,0.1-0.5,0.4-0.9,0.7
			c-0.3,0.3-0.5,0.4-0.6,0.5l0.8,0.6c0.5-0.5,1-1,1.4-1.5l1,0.7c-0.2,0.2-0.5,0.5-1,0.9c-0.8,0.8-1.5,1.4-1.9,1.7
			c0.2,0,0.4,0,0.8-0.1h0.7c-0.1-0.2-0.2-0.4-0.3-0.7l1-0.4c0.5,0.9,0.9,1.6,1.2,2.1l-1.1,0.5l-0.3-0.7c-1.1,0-2.3,0.2-3.6,0.3
			l0.1,0.1l-1.1,0.3l-0.3-0.7c-0.4,0-1.1,0.1-1.9,0.1c-0.9,0.1-1.5,0.2-2,0.2l-0.2-1l0.7-0.1c0.1-0.1,0.4-0.3,0.7-0.5l0.6-0.6
			c-0.2-0.2-0.5-0.4-0.9-0.7c-0.4-0.3-0.8-0.6-1-0.7l0.7-0.7l0.5,0.3c0-0.1,0.1-0.2,0.3-0.3c0.3-0.3,0.4-0.6,0.5-0.7h-2.7v10.6
			L442.7,67.4L442.7,67.4z M444.2,53.2V54h3.5v-0.9H444.2z M444.2,55.8h3.5v-0.9h-3.5V55.8z M445.5,65.3v-2.9h1.2v1.2h1.4v-0.6
			c0-0.3,0.1-0.5,0.1-0.7h1.4c0,0.2,0,0.5-0.1,1v0.8c0,1.4-1.1,2.4-3,3.2c-0.1-0.1-0.2-0.2-0.5-0.4c-0.2-0.2-0.4-0.4-0.5-0.5
			c1.4-0.5,2.2-1.1,2.5-1.7h-1.2v0.6L445.5,65.3L445.5,65.3z M449.8,58.4c-0.3,0.3-0.9,0.9-1.8,1.7c-0.4,0.3-0.7,0.6-0.9,0.8
			l1.4-0.1c0,0-0.1-0.1-0.1-0.2c0-0.1-0.1-0.3-0.2-0.5l1.1-0.3l0.8,1.8l-0.1-0.6h0.5c0.4-0.3,0.9-0.7,1.3-1.1
			c-0.1,0-0.2-0.2-0.4-0.3C450.6,58.9,450.1,58.6,449.8,58.4z M453.4,65.3v-0.6H452v2.4h-1.4v-4.8h1.4v1.3h1.4v-1.2h1.2v2.9H453.4z
			 M452.3,53.2V54h3.6v-0.9H452.3z M452.3,54.9v0.9h3.6v-0.9H452.3z"/>
		<path class="st0" d="M459,55.8v-1.4h6.3v1.4H459z M459.5,58.1v-1.3h5.3v1.3H459.5z M459.5,60.4v-1.3h5.3v1.3H459.5z M465.6,67.4
			c-0.1-0.2-0.3-0.5-0.5-0.9c-0.1-0.2-0.2-0.4-0.3-0.5v1.1h-1.5v-0.9H461V67h-1.5v-5.5h5.2v4.2c1.4-0.3,2.7-0.8,3.8-1.5
			c-0.9-0.8-1.7-2-2.5-3.6l0.9-0.4h-1.4v-1.5h8.4v1.6c-0.8,1.6-1.8,2.9-2.7,3.9c1,0.6,2.2,1,3.8,1.4c-0.1,0.1-0.2,0.4-0.4,0.7
			c-0.3,0.4-0.4,0.7-0.5,0.8c-1.7-0.6-3.1-1.2-4.2-1.8C468.7,66.2,467.2,66.8,465.6,67.4L465.6,67.4z M459.9,53.3V52h4.6v1.3H459.9z
			 M461,62.9V65h2.3v-2.1H461z M466.2,58.4c-0.2-0.4-0.5-0.9-1-1.4c1.4-0.5,2-1.6,1.9-3.2v-1.6h5.4v3.2c0,0.6,0.1,0.9,0.6,0.9h0.2
			c0.3,0,0.5-0.2,0.5-0.7c0.1-0.5,0.2-1,0.1-1.3c0.3,0.2,0.7,0.3,1.2,0.5c0,0,0.1,0.1,0.1,0.1V55c0,0.3-0.1,0.8-0.3,1.4
			c-0.1,1-0.7,1.4-1.6,1.4h-0.9c-1.1,0-1.6-0.6-1.6-1.9v-2.1h-2.3C468.7,56,467.9,57.5,466.2,58.4L466.2,58.4z M472.2,60.3h-4.5
			c0.6,1.2,1.4,2.2,2.3,3C470.8,62.5,471.6,61.5,472.2,60.3L472.2,60.3z"/>
		<path class="st0" d="M476,55.8v-1.4h7.2v1.4H476z M476.5,58.2v-1.3h6.2v1.3H476.5z M476.5,60.6v-1.3h6.2v1.3H476.5z M476.7,67.2
			v-5.6h5.9v5.5H481v-0.7h-2.7v0.8H476.7L476.7,67.2z M476.9,53.3V52h5.5v1.3H476.9z M478.3,63.1v2.1h2.7v-2.1
			C481,63.1,478.3,63.1,478.3,63.1z M483.4,58.7V57h3.5v-5.5h1.8V57h3.5v1.7h-3.5v8.6h-1.8v-8.6H483.4z"/>
		<path class="st0" d="M52.1,93V80h6v-2.8H60V80h6V93h-1.8v-1H53.9v1H52.1L52.1,93z M53.9,81.7v3.5h4.2v-3.5H53.9z M53.9,86.8v3.6
			h4.2v-3.6H53.9z M64.2,81.7H60v3.5h4.2V81.7z M60,86.8v3.6h4.2v-3.6H60z"/>
		<path class="st0" d="M69.5,93.1V79.2h4.3c0.2-0.8,0.4-1.4,0.5-2.1l2.1,0.2c-0.2,0.5-0.4,1.2-0.6,1.9h6.6v13.9h-1.9v-1.1h-9.3v1.1
			H69.5L69.5,93.1z M71.4,80.8v2.3h9.3v-2.3H71.4z M71.4,84.6v2.3h9.3v-2.3H71.4z M71.4,88.3v2.3h9.3v-2.3H71.4z"/>
		<path class="st0" d="M85.5,87c-0.2-0.8-0.4-1.6-0.6-2.3c1.7-2.4,2.9-4.9,3.7-7.5l1.9,0.4c-0.5,1.2-1,2.4-1.5,3.6v11.9h-1.7v-8.6
			C86.7,85.3,86.1,86.1,85.5,87L85.5,87z M90.4,81.8v-1.7h4.6c0-0.1-0.1-0.4-0.3-0.8c-0.3-0.8-0.5-1.5-0.6-1.9l1.9-0.3
			c0,0.2,0.1,0.4,0.3,0.8c0.3,0.8,0.5,1.4,0.6,1.8l-1.7,0.3h5.5v1.7h-4.2v3.4h3.8v1.7h-3.8v3.8h4.6v1.5H90v-1.5h4.7v-3.8h-3.8v-1.7
			h3.8v-3.4L90.4,81.8L90.4,81.8z"/>
		<path class="st0" d="M103.3,83.5c-0.6-0.6-1.1-1-1.3-1.3c2.1-1.5,3.8-3.1,4.9-5.1l2,0.3l-0.8,1.1h6.2V80l-1.5,1.5h4v9.2
			c0,1.4-0.6,2.1-2.1,2.1c-0.5,0-1.3,0.1-2.3,0.1c0-0.4-0.2-0.9-0.3-1.6c0.3,0,1,0.1,1.9,0.1c0.8,0,1.1-0.3,1.1-0.9v-0.9h-9.6
			c-0.2,1.2-0.8,2.4-1.7,3.7c-0.7-0.5-1.2-0.9-1.7-1.1c0.8-0.9,1.4-1.8,1.6-2.7c0.2-0.8,0.3-2.2,0.3-4.1v-2.4
			C103.7,83.2,103.5,83.3,103.3,83.5L103.3,83.5z M112,80H107c-0.4,0.5-0.8,1-1.3,1.5h5L112,80L112,80z M105.7,86.2
			c0,0.2,0,0.6-0.1,1v0.9h3.8v-1.9H105.7z M105.7,83v1.8h3.7V83H105.7z M115.1,83h-3.9v1.8h3.9V83z M111.2,86.2v1.9h3.9v-1.9H111.2z
			"/>
		<path class="st0" d="M120.4,93.2c-0.5-0.4-1-0.8-1.5-1.2c0.6-1.1,1-2.1,1.2-3.1c0.2-0.9,0.3-2.4,0.3-4.3v-5.9h6.8v-1.5h1.8v1.5h6
			v1.5h-12.9v4.5C122.1,88.5,121.6,91.3,120.4,93.2L120.4,93.2z M134.3,93c-2.3-0.3-4.3-0.8-6-1.5c-1.8,0.8-3.7,1.3-5.8,1.7
			c-0.1-0.2-0.3-0.6-0.5-1.1c-0.1-0.2-0.2-0.4-0.3-0.5c1.9-0.3,3.5-0.6,4.9-1c-1-0.7-1.9-1.5-2.7-2.6h-1.1v-1.4h10.4v1.5
			c-0.9,1-1.9,1.9-3.1,2.5c1.3,0.4,2.9,0.6,4.9,0.7C134.7,91.9,134.5,92.5,134.3,93L134.3,93z M122.2,83.1v-1.5h2.3v-1.3h1.7v1.3
			h4.3v-1.3h1.7v1.3h2.6v1.5h-2.6v2.5h-7.6v-2.5C124.5,83.1,122.3,83.1,122.2,83.1z M131.1,88h-5.3c0.7,0.8,1.6,1.4,2.5,1.9
			C129.4,89.3,130.4,88.7,131.1,88z M126.2,83.1v1.3h4.3v-1.3C130.5,83.1,126.2,83.1,126.2,83.1z"/>
		<path class="st0" d="M136.3,81.7v-1.6h2.1v-2.9h1.7l-0.1,2.9h1.9v1.6H140v2.5h2.2v1.6h-2.3l-0.1,0.8h0.1c0.8,0.9,1.7,1.9,2.7,2.9
			l-1.1,1.3c-0.1-0.1-0.3-0.3-0.5-0.7c-0.6-0.7-1-1.3-1.3-1.7c-0.3,1.4-1.1,2.9-2.5,4.6c-0.1-0.1-0.2-0.3-0.5-0.5
			c-0.3-0.4-0.6-0.8-0.7-0.9c1.6-1.6,2.4-3.5,2.5-5.8h-2.2v-1.6h2.3c0-0.1,0-0.2,0.1-0.4v-2.1L136.3,81.7L136.3,81.7z M142.8,87.9
			v-10h8.2v10h-2.1v2.7c0,0.4,0.1,0.6,0.6,0.6h0.5c0.4,0,0.6-0.2,0.7-0.7c0.1-0.6,0.1-1.1,0.2-1.6c0.2,0.1,0.6,0.2,1,0.4
			c0.1,0,0.2,0.1,0.3,0.1c-0.1,1-0.2,1.6-0.3,1.8c-0.2,1.1-0.8,1.6-1.7,1.5h-1c-1.3,0-1.9-0.6-1.9-1.9V88H146
			c0.1,2.5-1.2,4.3-3.9,5.2c-0.3-0.4-0.6-0.9-1-1.3c2.4-0.7,3.5-2,3.4-3.9L142.8,87.9L142.8,87.9z M144.4,79.3v1.5h4.9v-1.5H144.4z
			 M144.4,82.2v1.5h4.9v-1.5H144.4z M144.4,85v1.6h4.9V85H144.4z"/>
		<path class="st0" d="M153.1,92.7l-0.1-1.3c0.4,0,0.9,0,1.7-0.1c4.1,0,7-0.1,8.9-0.2v0.6c0,0.3-0.1,0.5-0.1,0.6
			C160.7,92.4,157.2,92.5,153.1,92.7L153.1,92.7z M153,80.9v-1h4.4v-0.7h-3.5v-0.9h3.5v-1.1h1.6v1.1h3.7v1.7h0.9v1h-0.9v1.7H159v0.7
			h4v0.8h-4V85h4.6v0.9h-10.6V85h4.3v-0.8h-3.8v-0.8h3.8v-0.7h-3.6v-0.9h3.6v-0.8H153z M153.8,90.7v-4.1h9v4.1H153.8z M155.3,87.5
			v0.8h2.3v-0.8H155.3z M155.3,89v0.8h2.3V89H155.3z M161.3,79.2H159v0.7h2.3V79.2z M159,80.9v0.8h2.3v-0.8H159z M161.3,87.5H159
			v0.8h2.3V87.5z M159,89v0.8h2.3V89H159z M164.6,92.8c0-0.2-0.1-0.4-0.1-0.7c-0.1-0.3-0.2-0.6-0.2-0.8h1.7c0.8,0,1.1-0.2,1.1-0.7
			V77.2h1.4v13.6c0.1,1.3-0.5,2-1.8,2L164.6,92.8L164.6,92.8z M164.4,89.2V78.6h1.3v10.6H164.4z"/>
		<path class="st0" d="M170.2,87.1l-0.4-1.6l1.2-0.1c0.3-0.3,0.8-1,1.3-1.9c0.1-0.2,0.2-0.4,0.3-0.5c-0.5-0.4-1.5-1-2.8-1.9l0.9-1.1
			c0,0,0.1,0.1,0.3,0.2c0.1,0,0.1,0.1,0.2,0.1c0.6-1,1.2-2.1,1.7-3.2l1.6,0.6c-0.5,0.9-1.3,2.1-2.2,3.4l1.1,0.7
			c0.5-0.8,1-1.6,1.4-2.3l1.4,0.7c-0.4,0.6-1.1,1.6-2.1,2.9c-0.7,0.9-1.1,1.6-1.5,2.1c0.2,0,0.6-0.1,1.1-0.1c0.4,0,0.8-0.1,1-0.1
			c0-0.2-0.1-0.4-0.2-0.7c-0.1-0.3-0.2-0.5-0.3-0.7l1.1-0.3c0.2,0.4,0.4,1,0.7,1.7c0.3,0.8,0.5,1.3,0.7,1.7l-1.2,0.4
			c0-0.1-0.1-0.2-0.1-0.5c-0.1-0.2-0.2-0.3-0.2-0.4c-0.1,0-0.3,0-0.6,0.1c-0.2,0-0.4,0-0.5,0.1v6.4h-1.5v-6.2
			c-0.3,0-0.6,0.1-1.1,0.1C170.9,87.1,170.4,87.1,170.2,87.1L170.2,87.1z M171.1,92l-1.1-0.3c0.2-0.6,0.6-1.7,1-3.3
			c0-0.1,0.1-0.2,0.1-0.3l1.1,0.3C171.6,90,171.3,91.3,171.1,92L171.1,92z M175.7,91.3c-0.1-0.3-0.4-0.9-0.7-1.8
			c-0.2-0.6-0.3-1-0.5-1.4l1.1-0.3c0.3,0.5,0.6,1.3,0.9,2.3c0.1,0.4,0.2,0.8,0.3,1L175.7,91.3L175.7,91.3z M177,93V78.4h8.3V93h-1.6
			v-1.1h-5.2V93H177L177,93z M178.6,80v4.4h1.9V80H178.6z M178.6,85.9v4.5h1.9v-4.5H178.6z M183.7,80h-1.9v4.4h1.9V80z M181.9,85.9
			v4.5h1.9v-4.5H181.9z"/>
		<path class="st0" d="M188.2,82.2c-0.3-0.3-0.7-0.7-1.2-1.1c1.3-1.2,2.3-2.5,2.9-3.8l1.8,0.1c-0.1,0.2-0.3,0.5-0.4,0.8
			c-0.1,0.2-0.2,0.3-0.2,0.4h4.1v1.3h-3.2c0.5,0.5,1,1,1.5,1.5l-1.1,0.9h2.7v6h-5.1v2.5c0.4-0.1,0.9-0.3,1.5-0.5
			c0.5-0.2,0.9-0.3,1.2-0.4l-0.7-0.9l1.3-0.6c0.7,0.9,1.4,2,2.3,3.2l-1.3,0.8c-0.3-0.5-0.6-0.9-0.9-1.3c-1.8,0.4-3.5,1-5.3,1.7
			l-0.6-1.5c0.3,0,0.5-0.1,0.8-0.1L188.2,82.2l4,0.1c-0.4-0.5-0.8-1-1.5-1.7l0.9-0.7h-1.5C189.6,80.8,188.9,81.5,188.2,82.2
			L188.2,82.2z M189.9,83.5v1.2h3.5v-1.2H189.9z M189.9,87.1h3.5v-1.3h-3.5V87.1z M195.7,82.1c-0.4-0.3-0.9-0.7-1.3-0.9
			c1.1-1.2,2-2.6,2.6-4l1.7,0.2c0,0.2-0.2,0.5-0.4,0.9c0,0.1-0.1,0.2-0.1,0.3h4.6v1.3h-3.6c0.6,0.5,1.2,1.1,1.7,1.7l-1.1,0.9
			c-0.5-0.6-1.1-1.2-1.6-1.7l0.9-0.8h-1.7C196.9,80.6,196.4,81.4,195.7,82.1L195.7,82.1z M196.2,93.1V82.5h5.9v6.6
			c0.1,1.4-0.6,2.1-2.1,2.1c-0.5,0-1.1,0.1-1.6,0.1c-0.1-0.3-0.2-0.8-0.3-1.5h1.4c0.7,0,1-0.3,1-1V84h-2.7v9.1L196.2,93.1
			L196.2,93.1z"/>
		<path class="st0" d="M213.4,82.1v2.2c0,1.7-0.7,3-2.2,3.8l-0.6-0.7c1.1-0.7,1.7-1.6,1.7-2.7H211v-2.5L213.4,82.1L213.4,82.1z"/>
		<path class="st0" d="M221.2,81.9v-1.7h2.4v-3h1.8v3h2.1v1.7h-2.1v2.9l2.3-0.5c0,0.2,0,0.6,0.1,1v0.7l-2.3,0.6V91
			c0,1.2-0.6,1.8-1.9,1.9c-0.4,0-1,0.1-2,0.1c-0.1-0.7-0.2-1.2-0.3-1.7h1.5c0.7,0,1-0.2,0.9-0.8v-3.3l-2.5,0.7l-0.3-1.9
			c0.8-0.2,1.7-0.4,2.7-0.6v-3.3H221.2L221.2,81.9z M228,80.2v-1.8h9v1.8h-2.7v10.2c0,1.7-0.8,2.5-2.5,2.5h-2.6
			c-0.1-0.4-0.2-1-0.4-1.7h2.3c1,0,1.4-0.4,1.3-1.3v-9.7L228,80.2L228,80.2z"/>
		<path class="st0" d="M238.7,93l-0.8-1.8l1.9-1.7v-3.7h-1.8v-1.6h3.5v5.1c0.8,1.2,2.1,1.9,3.8,1.9c4.1,0,7,0,8.8-0.1
			c-0.2,0.4-0.4,1-0.5,1.6c-2.8,0-5.7,0-8.7-0.1c-1.8,0-3.2-0.6-4.1-1.7C239.9,91.6,239.2,92.3,238.7,93L238.7,93z M241.1,83.8
			c-0.5-0.4-1.5-1.2-2.9-2.3l0.9-1.2c0.2,0.1,0.4,0.3,0.7,0.5c0.6,0.3,1.4,0.9,2.3,1.6L241.1,83.8L241.1,83.8z M241.4,80.6
			c-1.1-0.9-2.1-1.7-2.9-2.3l1-1.3c0.5,0.3,1.1,0.8,2,1.5c0.4,0.3,0.8,0.6,1,0.7L241.4,80.6L241.4,80.6z M244.4,82.1
			c-0.7-0.3-1.2-0.5-1.6-0.6c0.8-1.1,1.4-2.3,1.8-3.7l1.7,0.2c-0.1,0.2-0.2,0.6-0.4,1c0,0.2-0.1,0.3-0.1,0.3h1.9v-2.1h1.8v2.1h3.7
			v1.4h-3.7v1.7h4.4v1.5h-11.3v-1.5h5.1v-1.7h-2.5c0,0.1-0.1,0.2-0.3,0.5C244.7,81.6,244.5,81.9,244.4,82.1L244.4,82.1z M243.8,89.9
			v-4.8h9v4.8H243.8z M245.5,86.5v1.9h5.5v-1.9H245.5z"/>
		<path class="st0" d="M262.4,82.2c-1-1-2-2-3.2-3c-0.6,0.8-1.2,1.5-1.9,2.2h4.2v1.4h-1.7v1.5h2.9v1.4h-2.9v1.5h2.4v5.6h-1.5v-0.8
			h-3.5V93h-1.5v-5.7h2.5v-1.5h-3.1v-1.4h3.1v-1.5h-1.7V82c-0.4,0.3-0.8,0.6-1.2,1c0-0.2-0.2-0.4-0.3-0.8c-0.1-0.3-0.2-0.6-0.3-0.8
			c1.6-1,2.9-2.4,3.9-4.2l1.7,0.2L260,78c0.9,0.7,2,1.6,3.3,2.8L262.4,82.2L262.4,82.2z M257.3,88.7v2.2h3.5v-2.2H257.3z
			 M263.7,92.9c0-0.2,0-0.4-0.1-0.8c0-0.3-0.1-0.6-0.1-0.8h1.5c0.7,0,1-0.2,1-0.8v-5.2h-2.8v-1.5h3.2c-0.3-0.3-0.7-0.8-1.2-1.3
			c-0.6-0.6-1-1-1.3-1.3l1.1-1l0.5,0.5l1.1,1.1l2.1-2.3h-5.4v-1.5h7v1.8l-2.7,3c0.1,0,0.1,0.1,0.2,0.2l-0.7,0.7h3.9v1.3l-0.7,3.1
			L269,88l0.7-2.7h-2v5.6c0,1.3-0.6,2-2.1,2L263.7,92.9L263.7,92.9z"/>
		<path class="st0" d="M274.6,83.8c-0.8-0.6-1.7-1.3-2.7-2.2l1-1.1c0.4,0.3,1.1,0.8,1.9,1.3c0.4,0.3,0.7,0.5,0.9,0.7L274.6,83.8
			L274.6,83.8z M272.7,93l-0.7-1.8c0.6-0.6,1.2-1.1,1.7-1.6v-3.4h-1.6v-1.6h3.2v4.9c0.6,1.2,1.9,1.8,3.8,1.8c3.8,0,6.8,0,9-0.1
			c-0.2,0.5-0.4,1.1-0.5,1.6h-5.5c-1.3,0-2.5,0-3.4-0.1c-2,0-3.3-0.6-4.2-1.8C273.8,91.6,273.2,92.3,272.7,93z M275,80.5
			c-0.1-0.1-0.3-0.2-0.5-0.5c-0.9-0.8-1.6-1.3-2.1-1.7l1-1.1c0.4,0.3,0.9,0.7,1.6,1.2c0.5,0.4,0.9,0.7,1.1,0.9L275,80.5L275,80.5z
			 M276.4,80v-1.3h4.9v-1.5h1.7v1.5h4.8V80h-2.1c0,0.1-0.1,0.2-0.3,0.4c-0.1,0.2-0.4,0.6-0.8,1.1h2.7v7.4c0,1.1-0.5,1.7-1.7,1.7
			c-0.7,0-1.3,0.1-1.8,0.1c0-0.1,0-0.2-0.1-0.4c-0.1-0.3-0.2-0.6-0.2-0.9h-3.9V86h1.9V85H279v-1.1h2.3V83h1.3v0.9h2.2V85h-2.2V86
			h1.8v3.3h0.4c0.5,0,0.8-0.2,0.7-0.7v-5.8h-7.3v7.9h-1.5v-9.2h2.7c-0.3-0.5-0.7-0.9-1.1-1.4l0.3-0.1L276.4,80L276.4,80z
			 M281.2,81.4l-0.3,0.1h1.9c0.4-0.4,0.7-0.9,1-1.5h-3.6L281.2,81.4L281.2,81.4z M280.7,87.1v1.3h2.5v-1.3H280.7z"/>
		<path class="st0" d="M295,91.4c-0.6-0.4-1.2-0.9-1.7-1.5c-0.6,0.8-1.6,1.8-3.2,3c-0.4-0.5-0.8-1-1.2-1.3c1.4-0.9,2.5-1.9,3.1-2.8
			l-1.3-1.2l-0.2,0.7l-1.5-0.6c0.6-1.9,1.1-3.7,1.5-5.5h-1.3v-1.7h1.7c0.2-1.2,0.3-2.3,0.5-3.4l1.8,0.1c-0.2,1-0.4,2.1-0.6,3.2h3.2
			v1.5c-0.3,2.7-0.8,4.8-1.5,6.4c0.7,0.5,1.3,1.1,1.9,1.7L295,91.4L295,91.4z M294,82.2h-1.9c-0.1,0.3-0.2,0.9-0.4,1.6
			c-0.2,1.1-0.4,1.8-0.5,2.3c0.1,0.1,0.3,0.2,0.5,0.4c0.2,0.2,0.6,0.5,1.2,0.9C293.5,86.1,293.9,84.4,294,82.2L294,82.2z
			 M295.9,86.1v-1.7h3.9v-2l2.7-2.7h-5.9v-1.7h8.1v1.8l-3,3.1v1.5h3.5v1.7h-3.5v4.6c0,1.4-0.7,2.1-2.3,2.1c-0.6,0-1.3,0.1-2.2,0.1
			c0,0,0-0.1-0.1-0.2c-0.1-0.8-0.2-1.3-0.3-1.5h1.9c0.8,0,1.1-0.3,1.1-1v-4.1L295.9,86.1L295.9,86.1z"/>
		<path class="st0" d="M307.6,93.2c-0.2-0.1-0.4-0.2-0.8-0.5c-0.4-0.2-0.7-0.4-0.9-0.5c0.7-1,1.1-2,1.3-3c0.2-1,0.3-2.4,0.3-4.4
			v-6.8h13.5v12.7c0.1,1.5-0.6,2.2-2.2,2.1c-0.6,0-1.3,0.1-2.1,0.1c0-0.1-0.1-0.3-0.1-0.6c-0.1-0.5-0.2-0.9-0.3-1.1
			c0.2,0,0.5,0,0.9,0.1h0.9c0.8,0,1.2-0.2,1.1-0.9v-2.2h-4.2v4.5h-1.8v-4.5h-4C309.2,89.8,308.7,91.5,307.6,93.2L307.6,93.2z
			 M309.4,84.8c0,0.2,0,0.6-0.1,1v0.8h4v-2.7h-3.9L309.4,84.8L309.4,84.8z M309.4,79.7v2.7h3.9v-2.7H309.4z M319.3,79.7h-4.2v2.7
			h4.2V79.7z M315.2,83.9v2.7h4.2v-2.7H315.2z"/>
		<path class="st0" d="M323.6,92.8v-13h1.8c0.1-0.5,0.3-1.2,0.5-2c0-0.3,0.1-0.5,0.1-0.6l1.9,0.3c-0.2,0.8-0.4,1.6-0.7,2.3h2.9v12.9
			h-1.7v-1.2h-3.1v1.3L323.6,92.8L323.6,92.8z M325.3,81.5v3.4h3.1v-3.4H325.3z M325.3,86.6V90h3.1v-3.4H325.3z M332.6,92.8
			c-0.1-0.7-0.2-1.2-0.3-1.7h1.2c0.6,0,1,0.1,1.3,0.1c1.2,0,1.8-0.6,1.8-1.7c0-0.7,0.1-2.2,0.1-4.5c0-1.6,0.1-2.8,0.1-3.4h-3.6
			c-0.4,0.9-0.8,1.7-1.2,2.5c-0.1,0-0.2-0.1-0.4-0.3c-0.2-0.1-0.6-0.3-1.1-0.6c1-1.9,1.8-3.8,2.4-5.8l1.8,0.4c0,0.2-0.1,0.4-0.3,0.7
			c-0.2,0.6-0.4,1.1-0.5,1.5h4.8c-0.1,4.8-0.2,8.2-0.3,10c0,2-0.9,3-2.9,2.9C334.5,92.7,333.6,92.8,332.6,92.8L332.6,92.8z
			 M334,88.3c-0.8-1.2-1.6-2.3-2.5-3.5l1.4-0.9c0.8,0.9,1.7,2.1,2.6,3.4L334,88.3L334,88.3z"/>
		<path class="st0" d="M354.7,92.8c-3.8-2-6-4.9-6.6-8.6c-0.7,3.7-2.9,6.7-6.8,8.8c-0.4-0.6-0.8-1.1-1.3-1.7c4.2-2.2,6.5-5.5,6.8-10
			c0.1-1.1,0.1-2.4,0.1-4h2c0,0.1-0.1,0.5-0.1,1.2c0,0.5-0.1,0.9-0.1,1.2c0.4,5.8,2.8,9.5,7.2,11.4C355.4,91.8,355,92.3,354.7,92.8
			L354.7,92.8z"/>
		<path class="st0" d="M358.2,85.4c-0.4-0.1-0.8-0.2-1.3-0.2c0.1-0.6,0.3-1.7,0.5-3.2c0.1-0.7,0.1-1.1,0.2-1.4l1.2,0.1
			C358.6,82.2,358.4,83.8,358.2,85.4z M362.1,82.8c-0.4-0.4-0.8-0.8-1.2-1.1v11.3h-1.7V77.3h1.7v2.6c0.7,0.4,1.3,0.9,2,1.5
			L362.1,82.8L362.1,82.8z M363.9,84.8c-0.2-0.1-0.4-0.2-0.7-0.3c-0.4-0.1-0.6-0.2-0.8-0.3c0.8-1.7,1.4-3.6,1.8-5.8l1.7,0.3
			c0,0.3-0.1,0.7-0.3,1.2c-0.1,0.4-0.2,0.7-0.2,0.9h1.8v-3.4h1.8v3.4h3.8v1.7h-3.8v3.3h3.5v1.7h-3.5v3.6h4.2v1.5h-10.8v-1.5h4.8
			v-3.6h-3.9v-1.7h3.9v-3.3h-2.3C364.5,83.2,364.2,84,363.9,84.8L363.9,84.8z"/>
		<path class="st0" d="M374.5,87.1l-0.7-2.3c1.7-2.1,3.1-4.6,4.2-7.6l1.9,0.6c-0.6,1.4-1.2,2.7-1.9,3.9V93h-1.7v-8.4
			c-0.2,0.3-0.5,0.7-0.9,1.2C375.1,86.4,374.8,86.9,374.5,87.1z M384.6,92.6c-1.8,0.1-2.7-0.8-2.6-2.5V77.4h1.9v6.3
			c1.4-1,2.8-2.5,4.4-4.3l1.5,1.3c-1.9,2.3-3.9,4.1-5.8,5.4v3.8c0,0.8,0.4,1.2,1.3,1.1h1.4c0.9,0,1.4-0.3,1.5-1.1
			c0-0.4,0.1-1.3,0.3-2.7c0.2,0,0.5,0.2,0.9,0.3c0.4,0.1,0.7,0.2,0.9,0.3c-0.1,1.2-0.3,2.2-0.5,3c-0.2,1.2-1.1,1.8-2.9,1.8
			L384.6,92.6L384.6,92.6z"/>
		<path class="st0" d="M393.3,87.3v-1.6h11.4v1.6H400v3.5h6.6v1.5h-15.1v-1.5h6.6v-3.5H393.3L393.3,87.3z M393.7,85.1
			c-0.3-0.5-0.6-0.9-0.9-1.3c2.1-0.5,3.2-1.6,3.2-3.1h-2.7v1.7h-1.8v-3.4h6.6v-1.8h1.8v1.8h6.6v3.4h-1.1c-0.1,1.3-0.7,2-1.8,2h-2.3
			c-0.9,0-1.4-0.5-1.4-1.5v-2.3h-2.5C397.5,82.9,396.3,84.3,393.7,85.1L393.7,85.1z M404.7,80.8h-3.2v1.9c0,0.3,0.2,0.5,0.5,0.5h1.1
			c0.4,0,0.7-0.3,0.7-1.2c0.2,0.1,0.5,0.2,0.9,0.3L404.7,80.8L404.7,80.8z"/>
		<path class="st0" d="M408.7,93V77.8h6.5v6h-4.9v9.3L408.7,93L408.7,93z M410.3,79v1.2h3.4V79H410.3z M410.3,82.5h3.4v-1.2h-3.4
			V82.5z M412.3,91.2v-6.4h7.4v6.4H412.3z M413.8,86v1.4h4.3V86H413.8z M413.8,89.9h4.3v-1.4h-4.3V89.9z M419.1,93
			c0-0.1-0.1-0.3-0.1-0.6c-0.1-0.4-0.2-0.8-0.3-1c0.2,0,0.5,0,1,0.1h1c0.7,0,1-0.3,1-0.9v-6.8h-4.9v-6h6.5v13c0,1.4-0.7,2.1-2.1,2.1
			C420.7,92.9,420,93,419.1,93L419.1,93z M418.4,79v1.2h3.4V79H418.4z M418.4,81.3v1.2h3.4v-1.2H418.4z"/>
		<path class="st0" d="M434.4,82.1v2.2c0,1.7-0.7,3-2.2,3.8l-0.6-0.7c1.1-0.7,1.7-1.6,1.7-2.7H432v-2.5L434.4,82.1L434.4,82.1z"/>
		<path class="st0" d="M442.7,88.1l0.8-6.1h5.8v-2.4h-6.6V78h8.4v5.6h-6l-0.3,2.3h6.5c0,0.6-0.1,1.4-0.1,2.6
			c-0.1,0.8-0.1,1.3-0.1,1.6c-0.1,1.9-1.1,2.8-3,2.8c-1.1,0-2.1,0.1-3.2,0.1c-0.1-0.5-0.2-1.1-0.5-1.7h3c1.2,0,1.9-0.5,1.9-1.6
			c0-0.3,0.1-0.9,0.2-1.8c0,0.1,0,0,0-0.4h-4.8l-0.1,0.7L442.7,88.1L442.7,88.1z M454.8,93V77.3h1.9V93H454.8z"/>
		<path class="st0" d="M459.5,84.3c0-0.1-0.1-0.3-0.3-0.7c0-0.2-0.2-0.5-0.5-1c1.4-1.5,2.5-3.3,3.3-5.3l1.7,0.2l-0.4,0.8
			c1.1,1.2,2.1,2.3,2.9,3.4l-1.1,1.3l-0.5-0.7v1.4H461v-1.2C460.6,83.1,460.1,83.7,459.5,84.3L459.5,84.3z M463.8,93.1
			c-0.9-1-2.3-2.3-4.1-4.1l1.1-1.1c0.2,0.2,0.5,0.4,0.9,0.7c0.4,0.3,0.6,0.6,0.8,0.8l1.6-2.9h-4.5v-1.5h6.3v1.6l-2.3,3.9l1.4,1.3
			L463.8,93.1L463.8,93.1z M464.6,82.2c-0.7-0.9-1.3-1.8-1.9-2.5c-0.4,0.9-1,1.7-1.6,2.5H464.6L464.6,82.2z M466.4,93.2
			c-0.1-0.1-0.3-0.4-0.5-0.7c-0.2-0.3-0.3-0.5-0.4-0.6c1.3-0.6,2.5-1.2,3.5-1.8l1,1.1c-0.4,0.2-1.1,0.6-2,1.1
			C467.3,92.7,466.7,93,466.4,93.2L466.4,93.2z M466.1,79.4v-1.4h8.8v1.4h-3.9l-0.3,1.4h3.6v9.1h-7.8v-9.1h2.5l0.3-1.4H466.1
			L466.1,79.4z M468.2,82.2v1.3h4.7v-1.3H468.2z M468.2,84.7V86h4.7v-1.3H468.2z M468.2,87.2v1.4h4.7v-1.4H468.2z M474.1,93.1
			c-1-0.6-2-1.3-3.1-2l0.9-1.1c1.3,0.8,2.3,1.3,3.1,1.7L474.1,93.1L474.1,93.1z"/>
		<path class="st0" d="M476.5,82.8v-3.2h3.1c-0.6-0.5-1.2-1.1-1.8-1.6l1.7-0.5c0.9,0.8,1.6,1.5,2.1,2l-0.3,0.1h1.7v-2.3h1.9v2.3h1.3
			c0.7-0.6,1.5-1.3,2.3-2.1l1.7,0.5c-0.2,0.2-0.5,0.5-1,0.9c-0.4,0.3-0.6,0.5-0.8,0.7h3.1v3.2h-1.7v-1.9h-11.5v1.9L476.5,82.8
			L476.5,82.8z M477.5,93v-6.4h13.1V93h-1.8v-0.6h-9.6V93H477.5L477.5,93z M478.8,85.6V82h10.5v3.6H478.8z M479.2,87.8V89h3.9v-1.2
			H479.2z M479.2,90.1v1.1h3.9v-1.1H479.2z M480.4,83.1v1.3h7.2v-1.3H480.4z M488.8,87.8h-3.9V89h3.9V87.8z M484.9,90.1v1.1h3.9
			v-1.1H484.9z"/>
		<path class="st0" d="M495.1,93v-8.6c-0.5,0.8-1.1,1.7-1.8,2.5c-0.2-0.8-0.3-1.5-0.5-2.2c1.6-2.3,2.8-4.8,3.6-7.4l1.9,0.5
			c-0.4,1.2-0.9,2.3-1.5,3.4V93L495.1,93L495.1,93z M498,84.6l-0.2-1.8l3.5-0.4c0-0.4,0-1.1-0.1-2c0-1.4-0.1-2.4-0.1-3.2h1.9
			c0,1.7,0.1,3.4,0.2,5l5.6-0.7l0.2,1.7l-5.7,0.7c0.2,2.5,0.6,4.4,1.3,5.6c0.5,1,1.1,1.5,1.7,1.5c0.5,0,0.8-0.3,0.9-1.1
			c0-0.1,0-0.2,0.1-0.3c0.2-0.9,0.3-1.5,0.3-1.9c0.1,0,0.3,0.1,0.5,0.2c0.5,0.2,0.8,0.3,1.1,0.4c0,0.6-0.2,1.4-0.5,2.4
			c-0.4,1.4-1.1,2.1-2.3,2.1c-1.5,0-2.6-0.8-3.4-2.4c-0.8-1.4-1.3-3.5-1.5-6.4L498,84.6L498,84.6z M506.6,81.2c0,0-0.1-0.1-0.3-0.3
			c-1-0.9-1.8-1.6-2.4-2.1l1.2-1.1c1.2,0.9,2.1,1.7,2.7,2.3C507.9,80,506.6,81.2,506.6,81.2z"/>
		<path class="st0" d="M510.7,80.8v-1.5h1.9v-2.1h1.5v2.1h1.7v1.5H514v2.1h2.1v1.5h-1.5v2.2h1.3V88h-1.3v2.9
			c0.7,0.2,1.7,0.3,3.2,0.3c1.2,0,3.2,0,6.1,0h2.2c-0.2,0.6-0.4,1.1-0.5,1.5c-3.6,0-6.2,0-7.8-0.1c-3,0.1-5-0.8-5.9-2.5
			c-0.1,0.9-0.4,1.9-1,3c0,0-0.1-0.1-0.1-0.2c-0.4-0.5-0.7-0.9-0.9-1c0.7-1.2,1-3.4,1-6.6l1.3,0.1c0,0.3,0,0.8-0.1,1.4v1.1
			c0.3,0.8,0.7,1.4,1.1,1.9v-5.4h-3v-1.5h2.3v-2.1L510.7,80.8L510.7,80.8z M521.5,83.8l-0.3-1h1.6c0.6,0,0.9-0.2,0.9-0.7
			c0.1-0.8,0.1-1.7,0.1-2.7h-5.5c0,0-0.1,0.1-0.3,0.3l-0.6,0.6h0.7v1h1c0-0.3,0.1-0.7,0.1-1.4h1.3c0,0.5,0,1-0.1,1.4h1.1v-1.1h1.1
			v2.1h-2.3c-0.2,0.7-0.7,1.2-1.5,1.5l0.9,0.1l-0.3,0.5h5.8c0,0.6,0,1.4-0.1,2.5v1.9c-0.1,1.3-0.7,1.9-1.9,1.9
			c-0.5,0-1.1,0.1-1.9,0.1c0,0,0-0.2-0.1-0.3c0-0.4-0.1-0.8-0.2-0.9c0.3,0,0.9,0.1,1.7,0.1c0.6,0,0.9-0.3,0.9-0.9
			c0-0.7,0.1-1.7,0.1-3.1h-5.2c-0.3,0.3-0.6,0.6-1,1h0.7v1.1h1.1v-1.6h1.3c0,0.2,0,0.5-0.1,0.9v0.7h1.1v-1.3h1.1v2.3h-2.4
			c-0.2,1.3-1.5,2.1-4,2.3c-0.1-0.4-0.3-0.8-0.5-1.1c2-0.2,3-0.6,3.2-1.2h-2V87l-0.7,0.5c0-0.1-0.1-0.3-0.3-0.7s-0.2-0.5-0.3-0.6
			c0.9-0.6,1.7-1.3,2.3-2.1c-0.4,0.1-1,0.2-1.5,0.3c-0.1-0.3-0.3-0.7-0.4-1.1c1.6-0.2,2.6-0.5,2.8-1H517v-1.7
			c-0.1,0.1-0.2,0.2-0.5,0.4c-0.1,0.1-0.2,0.2-0.3,0.3c0-0.2-0.2-0.6-0.4-1c0-0.1-0.1-0.2-0.1-0.3c1.1-0.7,1.9-1.7,2.6-2.9l1.5,0.2
			c0,0.1-0.1,0.2-0.3,0.5c-0.1,0.2-0.2,0.3-0.3,0.5h6c0,1.5,0,2.8-0.1,3.9c0,1.1-0.6,1.6-1.8,1.6L521.5,83.8L521.5,83.8z"/>
		<path class="st0" d="M535.6,92.8c-0.1-0.6-0.2-1.1-0.3-1.5h1.1c0.8,0,1.3,0.1,1.7,0.1c1,0.1,1.5-0.3,1.5-1.1
			c0-0.1,0.1-0.3,0.1-0.6c0-0.3,0.1-0.5,0.1-0.6h-5.2c-0.4,2-2.6,3.4-6.6,4.1c-0.2-0.5-0.5-1-0.9-1.5c3.4-0.4,5.2-1.3,5.6-2.6h-4.7
			v-1.4h5c0-0.1,0.1-0.2,0.1-0.5c0-0.2,0.1-0.4,0.1-0.5h1.7l-0.1,0.9h6.6c0,1-0.1,1.9-0.2,2.7c0,1.7-1,2.5-3,2.5L535.6,92.8
			L535.6,92.8z M530.6,77.2h1.5v1h2.4v1.1h-2.4v0.9h2.9v1.1H533v0.4c0,0.3,0.1,0.5,0.5,0.5h0.3c0.3,0,0.4-0.2,0.5-0.7
			c0,0,0.1,0,0.2,0.1c0.3,0.1,0.6,0.2,0.7,0.2c-0.1,0.8-0.5,1.2-1.3,1.2h-0.6c-0.8,0-1.2-0.3-1.1-1.1v-0.5h-1.5c0,1-0.8,1.8-2.5,2.2
			c-0.1-0.3-0.3-0.6-0.7-0.9c1.4-0.1,2.1-0.6,2.1-1.3h-2v-1.1h3.1v-0.9h-2.5v-1.1h2.5L530.6,77.2L530.6,77.2z M528.3,84.4v-1h2.4
			v-0.9h1.4v0.9h2.3v1H532v0.9l2.7-0.1c0,0.4-0.1,0.8-0.1,1.1c-1,0-2.7,0.1-5.2,0.3c-0.8,0-1.4,0.1-1.8,0.1l-0.2-1.1l3.2-0.2v-0.9
			H528.3z M538.9,85.3c-0.4-0.3-0.8-0.6-1.2-0.9c-0.3,0.8-1,1.7-1.9,2.6c-0.1-0.1-0.3-0.4-0.7-0.8c-0.1-0.2-0.2-0.3-0.3-0.4
			c0.8-0.8,1.4-1.6,1.7-2.3c-0.1,0-0.2-0.1-0.3-0.2c-0.2-0.2-0.5-0.4-0.9-0.7l0.7-1l0.9,0.6c0-0.3,0.1-0.7,0.1-1.2
			c0-0.2,0.1-0.4,0.1-0.5h-1.7V79h1.7v-1.8h1.5V79h2.7c-0.1,2.9,0,4.8,0.1,5.7c0.1,0.3,0.2,0.5,0.3,0.5s0.2-0.2,0.3-0.5
			c0.1-0.4,0.2-1,0.2-1.9c0.1,0,0.2,0.1,0.4,0.1c0.1,0,0.3,0.1,0.6,0.2c0,0.9-0.1,1.6-0.3,2.3c-0.2,0.8-0.7,1.3-1.3,1.3
			c-0.8,0-1.4-0.5-1.6-1.5c-0.1-0.5-0.2-2.2-0.2-4.8h-1.3c0,1-0.2,1.8-0.3,2.6l1.5,1L538.9,85.3L538.9,85.3z"/>
		<path class="st0" d="M549.1,82.2V81h3.9v-1.2h-3.2v-1.3h3.2v-1.3h1.7v1.3h4V81h1.3v1.3h-1.3v2.5h-4v1.2h4.2v1.3h-4.2v1.1h4.7v1.3
			h-4.7v1.5h5.4c-0.2,0.3-0.3,0.8-0.5,1.5c-2.9,0-5.2,0-7-0.1c-2.6,0-4.5-0.6-5.7-1.5c-0.6,0.6-1.3,1.3-2.1,2.1
			c-0.3-0.8-0.6-1.3-0.9-1.5c0.7-0.6,1.3-1.2,1.9-1.9c-0.7-0.8-1.2-1.9-1.7-3.2l1.3-0.7c0.4,1.2,0.8,2,1.2,2.5
			c0.4-1,0.7-2.1,0.8-3.4h-1.3l-0.3,0.5l-1.9-0.1l3.2-5.4h-2.9v-1.5h4.8v1.6l-2.1,3.4h2V84c-0.2,2.5-0.6,4.3-1.3,5.6
			c1,1,2.6,1.5,5,1.5h0.3v-1.5h-3.9v-1.3h3.9v-1.1h-3.4v-1.3h3.4v-1.2h-3.2v-1.2h3.2v-1.3L549.1,82.2L549.1,82.2z M557.1,79.8h-2.4
			V81h2.4V79.8z M554.7,82.2v1.3h2.4v-1.3H554.7z"/>
		<path class="st0" d="M562.1,81.8c-0.1-0.1-0.2-0.2-0.5-0.5c-0.3-0.3-0.5-0.5-0.7-0.6c1.3-1,2.2-2.2,2.8-3.6l1.8,0.1
			c-0.2,0.4-0.4,0.8-0.7,1.2h4.2v1.3h-2.9l1.1,1.4l-1.5,0.4c-0.4-0.6-0.8-1.2-1.3-1.7l0.2-0.1H564C563.5,80.4,562.9,81.1,562.1,81.8
			L562.1,81.8z M561.5,83.3V82h5.7v1.3h-2v2l2-0.2c0,0.3-0.1,0.7-0.1,1.1c0.8-0.5,1.2-1.4,1.1-2.6v-1.7h6.2v3.2
			c0,0.4,0.2,0.6,0.5,0.6h0.2c0.3,0,0.5-0.2,0.6-0.6c0.1-0.3,0.1-0.8,0.1-1.4c0.1,0,0.3,0.1,0.5,0.2c0.3,0.1,0.6,0.2,0.7,0.3
			c0,0.6-0.1,1.1-0.3,1.5c-0.2,1-0.8,1.4-1.8,1.4h-0.6c-1,0-1.5-0.5-1.5-1.6v-2.3h-3v0.5c0.1,1.5-0.4,2.6-1.6,3.5h1.6V88h6.9v1.4
			h-5.6c1.3,1,3.3,1.6,6,2c-0.3,0.5-0.6,0.9-0.8,1.4c-2.9-0.7-5.1-1.6-6.4-2.8v3.1h-1.7V90c-1.4,1.2-3.5,2.1-6.4,2.9
			c-0.1-0.2-0.4-0.7-0.9-1.4c2.7-0.4,4.7-1.2,6-2.1h-5.6V88h6.8v-0.7h-0.1c0,0-0.1-0.1-0.3-0.2c-0.4-0.3-0.7-0.6-0.9-0.7
			c-1.6,0.1-3.5,0.3-5.5,0.6l-0.3-1.4l2.5-0.2v-2.1L561.5,83.3L561.5,83.3z M569.8,81.5c-0.1-0.1-0.3-0.2-0.7-0.4
			c-0.3-0.1-0.5-0.2-0.7-0.3c1.2-1.2,2-2.4,2.5-3.7l1.7,0.1c-0.1,0.2-0.2,0.4-0.3,0.7s-0.2,0.4-0.3,0.5h4.7v1.3h-3.2
			c0.1,0.1,0.2,0.3,0.5,0.5c0.3,0.3,0.5,0.6,0.6,0.8l-1.5,0.4c-0.3-0.5-0.7-1.1-1.2-1.7l0.1-0.1h-0.7
			C570.8,80.4,570.3,81,569.8,81.5z M571.6,86.5c-0.6-0.7-1.2-1.3-1.7-1.8l1-0.8l1.8,1.7L571.6,86.5z"/>
	</g>
</g>
</svg>
