<?xml version="1.0" encoding="utf-8"?>
<!-- Generator: Adobe Illustrator 27.0.0, SVG Export Plug-In . SVG Version: 6.00 Build 0)  -->
<svg version="1.1" id="_圖層_2" xmlns="http://www.w3.org/2000/svg" xmlns:xlink="http://www.w3.org/1999/xlink" x="0px" y="0px"
	 viewBox="0 0 1496.3 163.1" style="enable-background:new 0 0 1496.3 163.1;" xml:space="preserve">
<style type="text/css">
	.st0{fill:#E3DE47;}
</style>
<g id="_圖層_1-2">
	<g>
		<g>
			<path class="st0" d="M49,134.8c8.2,2.7,18.6,3.5,31.1,3.5c11.6,0.1,52.3,0.1,66.1-0.6c-2.6,4.2-5.6,12.4-6.9,17.8H80.1
				c-28.4,0-46.5-3.8-58.6-20.7c-1.7,9.4-4,17.5-7,24.5c-3.1-2.1-10.7-6.4-14.5-7.9c7.6-15,8.9-39.3,9-65l15.9,1.1
				c0,6.9-0.3,13.9-0.6,20.6c2.3,6.8,5,12.1,8.5,16V78.9H4.1V63h25.8V49.1H7.6V33.6h22.3V18.3h16.8v15.3h21.7v15.6H46.7V63h24.3v3.8
				C81,60.5,86.5,51.3,89.1,38.7H72.8v-15H140c0,0,0,4.1-0.1,6.2c-1.1,25.1-2.4,36.1-6.1,40.4c-2.8,3.3-6.1,4.5-10.2,5.1
				c-3.8,0.4-10.1,0.6-16.9,0.3c-0.2-4.5-2-11-4.4-15.1c5.3,0.6,10.1,0.6,12.4,0.6c1.8,0,3.2-0.3,4.4-1.5c1.4-2,2.4-7.6,3.2-21H106
				c-3.5,19-11.8,32.2-25.6,41c-2-2-5.9-5.1-9.5-7.7v6.9H49v16.5h20.1V111H49L49,134.8L49,134.8z M76.7,81.5h59.7v47.6H76.7
				C76.7,129.1,76.7,81.5,76.7,81.5z M93.7,114.7h24.7V96H93.7V114.7z"/>
			<path class="st0" d="M209.5,24c-4,10.6-9,21.2-14.5,31.4v103.7h-17.4V82.2c-3.4,4.2-6.7,8.2-10.1,11.8
				c-1.7-4.5-6.6-14.4-9.8-18.7c13.7-13.6,27.2-35.1,34.8-56.5L209.5,24L209.5,24z M275.5,90.7c3.4,27.5,8.2,46.6,13,46.7
				c2.1,0.1,3.7-6.6,4.4-18.7c2.8,3.3,9.3,7.9,12,9.2c-3.5,23.9-10.4,29.8-16.5,29.8c-15.9-0.1-24.7-26.8-29.3-67h-30.1v31.7
				l24.6-5.7c-0.5,4.7-0.3,11.5,0.3,15.3c-33.1,8.8-38.9,10.9-42.7,13.3c-0.9-4.1-3.8-11-6.2-14.2c3.2-1.5,7.2-4.5,7.2-10.7V33.7
				c25.8-3.6,54.3-9.8,71.9-16.3l13.6,13.5c-7.8,2.7-16.6,5.3-25.8,7.3c0.3,12.7,1.1,24.8,2,36H301v16.6H275.5L275.5,90.7z
				 M226.6,141.2h40.9v14.5h-40.9V141.2z M257.5,74.1c-0.9-10.1-1.5-21.2-2-32.5c-8.7,1.8-17.7,3.3-26.4,4.5v28L257.5,74.1
				L257.5,74.1z"/>
			<path class="st0" d="M379.9,28c-11.1,24.8-29,50.3-45.5,66.2c-3.5-3.9-11.6-11.8-16.2-15.4c16.2-13.4,32.2-35.4,41.3-57.3
				L379.9,28L379.9,28z M422.6,97.3c12.4,16.6,26.4,38.1,33.9,52.1l-18.8,9.8c-2-4.4-4.7-9.4-7.9-14.8c-73.7,5.7-84.1,6.6-91.5,9.4
				c-1.2-3.8-4.7-13.9-7.5-19.2c5-1.4,9.1-5.4,15.3-12.1c6.4-6.5,25.5-32.2,37.5-57.3l21.2,8.8c-11.8,20.4-26.4,40.7-41.2,57l56-3.6
				c-4.9-7.6-9.9-15.4-14.6-22.1L422.6,97.3L422.6,97.3z M425.5,21.8c6.6,21.2,20.4,42.5,39.2,53.8c-4.1,3.9-10.7,12.6-13.7,18.1
				c-17.4-13.2-31-33.4-39.5-53.4H387V21.8L425.5,21.8L425.5,21.8z"/>
			<path class="st0" d="M538.7,57.3h-59.5V43.1h25.2c-2.3-5.7-6.3-13.3-9.8-19l14.2-6.5c4.1,6.2,8.9,14.5,11.1,20.1l-10.2,5.4h29
				L538.7,57.3L538.7,57.3z M532.4,67.6c15-8.2,16.8-18.6,16.8-28.4V23h51.4v32.9c0,4.4,0.3,6.2,2.1,6.2h6.1c2.1,0,5.5-0.5,7.5-1.1
				c0.3,4.5,0.8,10.7,1.2,15c-2.1,0.9-5.5,1.1-8.5,1.1h-7.9c-14.3,0-17.1-6.3-17.1-21.3V39.6h-18.3v0.2c0,14.7-4.3,31.6-23.3,41.7
				c-1.7-2.9-6.4-8.2-9.9-11.2v7.4h-46.7V64.1h46.7L532.4,67.6L532.4,67.6z M532.7,97.9h-47V84.3h47V97.9z M614.3,87.5
				c-5,18.6-13.4,32.9-24.4,44c9.3,4.8,19.8,8.6,31.6,10.9c-3.8,3.6-8.7,11.3-11.1,16.2c-13.4-3.2-25.2-8.2-35.4-14.8
				c-10.4,6.6-22.3,11.8-35.4,15.3c-1.5-3.8-4.3-9.2-7-13.4v5.4h-31.3v6.4h-15.4v-52.2h46.7v37.3c10.2-2.4,19.7-5.9,28.1-10.7
				c-7.9-7.9-14.7-17.4-20-28.1l9.9-3.5h-14.2V83.4H600l3-0.8L614.3,87.5L614.3,87.5z M516.9,119.5h-15.6v16.9h15.6V119.5z
				 M557,100.2c4.4,8.2,10.5,15.3,18,21.5c6.7-6.1,12.2-13.2,16.3-21.5H557L557,100.2z"/>
			<path class="st0" d="M705.4,124.2c0,5.3,0.8,12.7,1.4,16.9c-42.6,10.3-49.6,12.6-54.3,15.4c-1.4-4.2-5.6-11.6-8.4-14.8
				c3.2-2.1,7.6-6.6,7.6-13.9V18.4h18.9V63h33.9v17.7h-33.9v51.2L705.4,124.2L705.4,124.2z M755.1,139.4c5.6,0,6.7-5.4,7.6-25.8
				c4.4,3.3,11.9,6.7,17.1,7.9c-2,25.7-6.7,35.4-23,35.4h-20.8c-17.7,0-22.7-6.2-22.7-27.5V18.1h18.8V63h37.2v17.7h-37.2v48.8
				c0,8.6,0.8,9.8,6.6,9.8H755.1L755.1,139.4z"/>
			<path class="st0" d="M921,110.2l-4,49.7H805.5c0-16.4,4.5-30.3,13.7-41.6c5.6-6.9,16.6-16.4,33-28.5c10.4-7.7,18-14.3,22.6-19.7
				c7.6-8.5,11.4-17.4,11.4-26.6c0-7-2.5-12.5-7.5-16.5c-4.8-4.1-10.9-6.1-18.4-6.1c-6.3,0-12.1,1.6-17.4,4.7
				c-6.1,3.6-9.2,8.2-9.2,13.8c0,2,2.9,4.7,8.7,8.1c5.8,3.3,8.7,7.7,8.7,13.3c0,5.1-1.7,9.1-5.2,12.1c-3.3,3.1-7.5,4.7-12.7,4.7
				c-7.3,0-13.3-3.3-18.1-9.8c-4.3-5.9-6.5-12.5-6.5-19.7c0-14.9,5.4-26.8,16.1-35.7c10.3-8,23.1-12.1,38.5-12.1s28,3.5,38.7,10.6
				c12.1,8,18.1,19.3,18.1,33.7c0,9.2-2.8,17.5-8.4,25.1c-4.1,5.7-10.6,11.7-19.4,18c-7.5,4.9-14.9,9.9-22.3,15
				c-16.6,12.1-26.9,21.2-31,27.1h45.7c6.5,0,10.8-1.9,12.9-5.7c0.2-0.2,1.7-4.8,4.7-13.8L921,110.2L921,110.2z"/>
			<path class="st0" d="M1082.7,160.2h-81v-19.7h14.2c6.6,0,9.9-3.5,9.9-10.6V126H957v-15.3L1037.5,3h21.1v103.4h23.1V126h-23.1v3.9
				c0,7.1,3.3,10.6,9.9,10.6h14.2V160.2L1082.7,160.2z M1025.8,106.3V52.9l-40.2,53.4C985.6,106.3,1025.8,106.3,1025.8,106.3z"/>
			<path class="st0" d="M1139.6,142.3c0,3.4-1.2,6.4-3.7,8.9c-2.5,2.6-5.5,3.8-9.1,3.8s-6.6-1.3-9.1-3.8c-2.6-2.5-3.9-5.4-3.9-8.9
				s1.3-6.5,3.9-9c2.5-2.6,5.5-3.8,9.1-3.8s6.6,1.3,9.1,3.8C1138.3,135.8,1139.6,138.8,1139.6,142.3z"/>
			<path class="st0" d="M1284.4,101.9c0,18.4-5.9,33.1-17.6,44c-11.6,11-26.8,16.5-45.7,16.5c-12.9,0-23.9-3.2-33-9.6
				c-10.3-7.4-15.4-17.2-15.4-29.5c0-5.9,1.8-10.7,5.5-14.5c3.8-3.9,8.8-5.9,14.9-5.9c4.5,0,8.4,1.6,11.9,4.9
				c3.1,3.3,4.7,7.2,4.7,11.8c0,3.1-1.3,6.4-4,9.8l-4.2,4.7c0,2.5,2.5,4.4,7.4,5.9c3.6,0.8,7.3,1.2,10.9,1.2
				c20,0,30.1-13.1,30.1-39.4c0-7.5-1.9-14.3-5.7-20.4c-4.1-6.9-9.6-10.3-16.4-10.3c-13.1,0-22.3,6.8-27.6,20.4h-22.8l6-88.3h97.3
				l-5.5,30h-73l-2.2,25.8c8.6-6.1,19.1-9.1,31.5-9.1c14.2,0,26.7,5.2,37.2,15.5C1279.2,75.8,1284.5,87.9,1284.4,101.9L1284.4,101.9
				z"/>
			<path class="st0" d="M1395.4,40.3c0,11.5-3.2,20.9-9.4,28.3c-6.8,7.9-16,11.8-27.6,11.8s-20.5-3.9-27.3-11.8
				c-6.3-7.4-9.4-16.8-9.4-28.3s3.1-20.8,9.4-28.3C1337.9,4,1347,0,1358.4,0s20.8,4,27.6,12.1C1392.3,19.6,1395.4,29,1395.4,40.3z
				 M1482.9,14L1352,163.1l-16.9-13.8L1466.5,0L1482.9,14L1482.9,14z M1367.9,42.6v-6.2c0-12.8-3.1-19.2-9.2-19.2s-9.4,6.8-9.4,20.4
				v5.2c0,13.6,3.1,20.4,9.4,20.4S1367.9,56.3,1367.9,42.6z M1496.3,122.3c0,11.5-3.1,20.9-9.2,28.3c-6.8,8-16,12.1-27.6,12.1
				s-20.8-4-27.6-12.1c-6.3-7.4-9.4-16.8-9.4-28.3s3.1-20.9,9.4-28.3c6.8-8,16-12.1,27.6-12.1s20.8,4,27.6,12.1
				C1493.2,101.4,1496.3,110.8,1496.3,122.3z M1469,124.7v-6.4c0-12.8-3.2-19.2-9.4-19.2s-9.4,6.9-9.4,20.7v4.9
				c0,13.8,3.1,20.7,9.4,20.7S1469,138.5,1469,124.7z"/>
		</g>
	</g>
</g>
</svg>
