<?xml version="1.0" encoding="UTF-8"?>
<svg id="_圖層_2" data-name="圖層 2" xmlns="http://www.w3.org/2000/svg" viewBox="0 0 537.02 42.19">
  <defs>
    <style>
      .cls-1 {
        fill: #231815;
      }
    </style>
  </defs>
  <g id="_圖層_1-2" data-name="圖層 1">
    <g>
      <path class="cls-1" d="M16.54,2.51c-.18,.57-.75,.97-1.8,.97-1.19,3.39-2.6,6.42-4.14,9.15l2.29,.84c-.13,.44-.48,.7-1.36,.88v25.87c-.09,.48-2.64,1.76-5.1,1.76h-1.19V20.06c-1.5,1.63-3.08,3.08-4.8,4.35l-.44-.31C3.21,18.17,6.42,8.84,7.79,.04l8.75,2.46Zm20.72,1.94s3.48,2.86,5.5,4.75c-.13,.48-.62,.7-1.23,.7H13.46l-.35-1.23h21.07l3.08-4.22Zm-21.16,11.61l-.35-1.23h16.36l2.82-3.87s3.17,2.64,5.02,4.4c-.09,.48-.57,.7-1.23,.7H16.1Zm.35,6.47l-.35-1.23h15.92l2.82-3.87s3.21,2.64,5.06,4.4c-.13,.48-.62,.7-1.23,.7H16.45Zm18.17,1.41l5.72,4.31c-.26,.35-.79,.79-1.72,.97v10.56c-.04,.4-3.12,1.63-5.28,1.63h-1.1v-3.34h-9.72v1.98c0,.57-2.77,1.94-5.37,1.94h-.88V24.46l6.55,2.51h8.97l2.82-3.04ZM22.17,0c14.21,.31,8.89,11.48,3.08,7.39-.31-2.64-1.76-5.41-3.34-7.17l.26-.22Zm10.07,36.82v-8.62h-9.72v8.62h9.72Z"/>
      <path class="cls-1" d="M93.26,36.29c1.5,1.45,2.16,2.82,1.63,3.96-1.01,2.24-4.14,2.11-7.08,1.01-2.9-.92-5.15-2.42-6.91-4.27-3.26,1.63-6.95,2.9-10.95,3.7l-.31-.53c3.39-1.54,6.51-3.61,9.11-5.9-1.5-2.42-2.46-5.19-3.12-8.09h-6.42v2.33c1.94-.26,3.92-.53,5.85-.84l.09,.66c-1.72,.7-3.7,1.45-5.94,2.24v5.5c0,3.61-.97,5.63-7.48,6.03-.09-1.58-.26-2.77-.97-3.52-.62-.66-1.45-1.28-3.74-1.63v-.53s4.27,.26,5.19,.26c.66,0,.84-.31,.84-.75v-3.34c-1.89,.57-3.96,1.14-6.2,1.76-.22,.57-.66,.92-1.14,1.06l-2.64-5.28c2.29-.09,5.9-.4,9.99-.88v-3.08h-9.5l-.35-1.23h9.85v-2.73c-2.82,.09-5.76,.09-8.4-.09l-.13-.62c5.28-.97,11.7-3.12,15-4.84l5.1,4.66c-.53,.4-1.45,.48-2.77,.04-.79,.13-1.67,.26-2.64,.35v3.21h6.2c-.48-2.55-.75-5.19-.88-7.7l7.7,.57v.09c11.13-.66,6.69,8.14,1.89,5.01-.18-1.67-1.1-3.43-2.07-4.58-.22,.31-.62,.53-1.23,.66,.09,1.85,.26,3.92,.7,5.94h5.94l2.68-3.83s3.04,2.6,4.79,4.36c-.13,.48-.57,.7-1.19,.7h-7.39l5.81,3.3c-.26,.44-.7,.7-1.72,.53-1.1,1.23-2.46,2.46-4,3.61,.97,.7,2.02,1.28,3.3,1.67,.88,.31,1.32,.26,1.63-.18,.62-.79,1.41-2.6,1.94-3.96l.4,.09-.44,5.06Zm-22.44-20.98v-3.48h-13.07l-.35-1.23h13.42v-3.3h-15.44l-.35-1.23h10.82c-.75-1.98-2.29-4.09-3.52-5.41l.31-.22c8.36-.57,9.37,3.7,7.52,5.63h5.85c.79-1.8,1.63-4.18,2.07-5.94l7.65,2.11c-.18,.53-.66,.88-1.67,.84-1.45,.92-3.74,2.07-5.89,2.99h6.99l2.99-3.65s3.34,2.46,5.41,4.18c-.13,.48-.62,.7-1.23,.7h-15.13v3.3h6.42l2.86-3.3s3.21,2.2,5.28,3.83c-.13,.48-.62,.7-1.23,.7h-1.36c.97,.7,3.65,2.6,5.37,4-.13,.48-.62,.7-1.23,.7H54.51l-.35-1.23h16.67Zm6.38,0h8.53l2.86-3.48h-11.39v3.48Zm4.62,10.87c.31,1.23,.75,2.38,1.36,3.48,.92-1.14,1.72-2.33,2.38-3.48h-3.74Z"/>
      <path class="cls-1" d="M141.17,33.79s4.09,3.08,6.55,5.15c-.13,.48-.62,.7-1.32,.7h-40.08l-.35-1.23h17.2v-13.46h-11.48l-.35-1.23h11.83V12.41h-6.69c-2.86,4.75-6.38,8.36-10.56,11.04l-.44-.31c3.12-5.23,6.16-13.42,7.35-21.38l8.89,2.55c-.18,.57-.75,.97-1.8,.97-.84,2.11-1.72,4.09-2.73,5.89h5.98V.53l8.67,.79c-.09,.66-.4,1.1-1.63,1.28V11.17h5.37l3.48-4.27s3.83,2.73,6.29,4.79c-.13,.48-.62,.7-1.32,.7h-13.81v11.31h4.05l3.52-4.4s4,2.95,6.42,4.93c-.13,.48-.62,.7-1.28,.7h-12.71v13.46h7.3l3.65-4.62Z"/>
      <path class="cls-1" d="M158.86,10.73c13.24,.22,8.93,10.51,3.52,7.13-.53-2.51-2.24-5.19-3.83-6.86l.31-.26Zm36.6,.13s3.52,2.9,5.54,4.84c-.09,.48-.62,.7-1.23,.7h-11.04v8.36h2.33l2.86-3.08,5.72,4.35c-.31,.35-.84,.79-1.76,.97v12.93c-.04,.4-3.08,1.67-5.23,1.67h-1.1v-3.78h-11.75v2.11c0,.57-2.73,1.94-5.37,1.94h-.88V22.26l6.51,2.51h2.16v-8.36h-10.6l-.31-1.1c-1.5,4.44-2.99,9.24-3.43,10.82-.4,1.45-.79,3.12-.75,4.27,.09,2.51,2.2,3.74,2.07,7.7-.09,2.38-1.94,3.96-4.49,3.96-1.14,0-2.46-.57-2.95-2.29,.92-4.62,.75-8.89-.31-9.59-.66-.44-1.45-.7-2.38-.79v-.75h2.07c.75,0,.97,0,1.54-.88q1.19-1.67,9.85-17.99l.62,.18c-.53,1.45-1.14,3.3-1.8,5.23h10.87V7.96c-3.48,.26-7.08,.44-10.38,.48l-.09-.57c7.3-1.72,16.72-4.93,21.47-7.3l6.03,5.81c-.57,.44-1.67,.48-3.21-.09-2.07,.35-4.58,.7-7.3,1.06v7.83h3.61l3.12-4.31ZM162.16,1.1c13.73,.04,9.81,10.56,4.13,7.39-.79-2.55-2.77-5.37-4.44-7.13l.31-.26Zm17.64,24.9v10.6h11.75v-10.6h-11.75Z"/>
      <path class="cls-1" d="M253.05,5.1c-.31,.4-.84,.75-1.76,.97V39.81c-.04,.44-2.99,1.94-5.37,1.94h-1.01v-3.65h-25.16v1.54c0,.79-2.51,2.33-5.19,2.33h-1.06V1.14l6.77,2.68h24.19l2.95-3.26,5.63,4.53Zm-8.14,31.76v-13.68c-1.45,.62-2.42,2.07-2.82,4.18-1.45-.92-2.68-2.02-3.61-3.3l-.44,.09c-.04,3.65-.31,4.97-1.58,5.81-.97,.57-2.02,.75-3.69,.75,0-1.06-.09-1.85-.48-2.38-.4-.48-.88-.79-1.72-1.01v-.62c.66,.04,1.63,.09,2.2,.09,.48,0,.66-.09,.79-.22,.18-.22,.26-1.1,.31-3.04h-3.96v7.17c0,.57,.18,.7,1.32,.7h3.43c1.19,0,2.33,0,2.86-.04,.48,0,.79-.09,1.06-.4,.44-.48,1.06-1.85,1.72-3.56h.48l.13,3.61c1.36,.53,1.67,1.06,1.67,1.94,0,1.94-1.89,2.73-8.49,2.73h-4.05c-4.22,0-5.02-.88-5.02-4v-7.04c-1.45,1.1-3.08,2.07-4.93,2.95l-.35-.44c2.73-2.29,4.71-5.01,6.11-7.96h-5.63l-.35-1.23h6.55c.48-1.14,.88-2.29,1.23-3.43h-5.9l-.35-1.23h6.6c.66-2.68,1.01-5.37,1.14-7.87l7.21,1.19c-.13,.66-.62,1.06-1.67,1.1-.35,1.85-.84,3.74-1.5,5.59h1.06c.75-1.72,1.67-4.18,2.42-6.51l5.15,2.24c-.22,.48-.79,.84-1.67,.75-1.32,1.23-2.82,2.51-4.27,3.52h1.28l2.2-2.51s2.51,1.72,4.09,3.04c-.09,.48-.53,.7-1.14,.7h-9.59c-.48,1.19-1.01,2.33-1.72,3.43h7.48l2.29-2.64s2.46,1.72,4.13,3.08V5.06h-25.16v31.81h25.16Zm-22.04-30.22c8.8,2.24,4.09,8.58,.79,5.41,.13-1.8-.48-3.87-1.23-5.19l.44-.22Zm12.71,13.64l1.36,1.06c-.31-.66-.53-1.41-.75-2.16h-5.94c-.57,.79-1.19,1.58-1.85,2.33l2.07,.79h2.95l2.16-2.02Zm1.8-1.1c1.76,1.8,4.66,2.9,7.52,3.43v-3.87c-.22,.31-.57,.44-1.06,.44h-6.47Z"/>
      <path class="cls-1" d="M308.26,8.01v5.85h7.48l2.86-3.17,5.81,4.49c-.26,.35-.79,.75-1.72,.92v19.18c0,4.05-1.01,6.29-7.96,6.91-.13-2.02-.35-3.43-1.1-4.35-.75-.88-1.63-1.63-4-2.02v-.57s4.44,.31,5.67,.31c.7,0,.88-.35,.88-.88V15.09h-21.86v24.72c0,.7-2.77,2.2-5.45,2.2h-1.01V11.17l6.91,2.68h7.04v-5.85h-17.07l-.35-1.23h17.42V.18l8.05,.62c-.09,.62-.35,1.06-1.58,1.28V6.77h7.48l3.48-4.35s3.92,2.9,6.33,4.88c-.13,.48-.66,.7-1.32,.7h-15.97Zm-.35,22.92v8.27c-.04,.22-1.85,1.19-5.01,1.19h-1.14v-9.46h-6.55l-.35-1.23h6.91v-5.19h-5.72l-.35-1.23h9.9c.62-2.33,1.19-5.59,1.5-7.83l6.73,1.85c-.18,.53-.7,.88-1.67,.84-1.32,1.45-3.3,3.48-5.19,5.15h2.2l2.33-2.77s2.64,1.89,4.31,3.3c-.13,.48-.57,.7-1.19,.7h-6.69v5.19h.62l2.6-3.21s2.95,2.2,4.75,3.74c-.13,.48-.57,.7-1.19,.7h-6.77Zm-10.87-15.18c11.35,1.76,5.9,10.21,1.5,6.38,.04-2.2-.84-4.62-1.85-6.16l.35-.22Z"/>
      <path class="cls-1" d="M337.03,10.16c12.23,1.76,6.99,11,2.2,7.17-.13-2.46-1.28-5.19-2.55-6.95l.35-.22Zm12.19,.04c-1.36,4.75-3.65,13.46-4.14,15.71-.31,1.41-.62,2.99-.57,4.09,.13,2.55,2.11,4,1.98,8.05-.09,2.33-1.8,3.92-4.14,3.92-1.1,0-2.29-.62-2.73-2.33,.92-4.71,.75-9.11-.31-9.81-.62-.44-1.32-.66-2.29-.75v-.79h1.98c.7,0,.88,0,1.41-.88q.97-1.58,8.14-17.33l.66,.13Zm-8.93-9.63c12.8,1.8,7.7,11.35,2.64,7.57-.35-2.6-1.76-5.41-2.99-7.35l.35-.22Zm27.19,15.97c2.68,3.08,7.3,5.23,11.7,6.16l-.09,.48c-2.24,.62-3.87,2.64-4.57,5.85-1.85-1.19-3.34-2.68-4.58-4.44v5.98c-.04,.26-2.99,1.01-4.71,1.01h-1.01v-2.07h-5.5v5.1c0,.75,.31,.92,1.89,.92h5.19c1.63,0,3.21,0,4-.04,.7-.04,1.14-.18,1.5-.62,.62-.7,1.41-2.33,2.38-4.75h.44l.18,4.88c1.72,.66,2.2,1.32,2.2,2.38,0,2.55-2.38,3.61-11.35,3.61h-5.5c-5.41,0-6.91-.88-6.91-5.02v-10.29c-2.16,1.58-4.57,2.95-7.26,4.09l-.35-.53c4-3.26,7.04-8.05,8.75-12.71h-5.54l-.35-1.23h5.94v-6.33h-4.88l-.35-1.23h5.23V.62l7.35,.57c-.09,.66-.4,1.1-1.63,1.28V7.74h4V.62l7.61,.62c-.09,.62-.4,1.06-1.63,1.23V7.74h.75l2.82-3.96s3.21,2.68,5.06,4.49c-.13,.48-.62,.7-1.23,.7h-7.39v6.33h1.1l2.95-4.09s3.34,2.77,5.28,4.62c-.09,.48-.57,.7-1.23,.7h-10.25Zm.18,3.7c-.48-1.14-.88-2.38-1.23-3.7h-5.72c-.84,1.63-1.85,3.17-3.04,4.62l1.67,.62h4.49l2.42-2.55,1.41,1.01Zm-3.43,8.05v-5.28h-5.5v5.28h5.5Zm-4.58-12.98h4v-6.33h-4v6.33Z"/>
      <path class="cls-1" d="M427.3,26.4s2.99,2.38,4.79,4c-.09,.48-.57,.7-1.19,.7h-7.92v5.1c0,3.61-.88,5.41-6.99,5.85-.13-1.5-.26-2.64-.92-3.34-.66-.66-1.45-1.19-3.61-1.58v-.53s4.27,.26,5.1,.26c.53,0,.7-.18,.7-.66v-5.1h-7.79l-.18-.62v9.19c-.04,.35-2.42,1.45-4.18,1.45h-.79v-3.3h-9.06v2.2c0,.53-1.76,1.63-3.78,1.63h-.75V9.68l4.75,2.02V5.1h-5.46l-.35-1.23h13.9l2.68-3.74s3.08,2.55,4.84,4.27c-.13,.48-.57,.7-1.19,.7h-6.16v6.6h.13l2.38-2.55,4.66,3.7c-.26,.31-.84,.66-1.63,.84V29.87h7.96v-3.74l3.52,.26c.7-.92,1.45-1.94,2.02-2.77h-11.48l-.4-1.23h12.27l2.51-2.38c-.48,.09-.97,.13-1.41,.13h-1.01v-1.89h-6.55v.88c0,.44-2.38,1.58-4.53,1.58h-.75V8.58l5.46,2.11h5.94l2.51-2.68,5.19,3.87c-.22,.31-.75,.7-1.54,.84v6.2c-.04,.22-1.41,.7-2.86,1.01l4.36,4c-.35,.35-.79,.44-1.76,.48-1.36,.62-3.17,1.45-5.02,2.24l.7,.04c-.09,.66-.53,.97-1.45,1.14v2.02h1.67l2.64-3.48Zm-28.11-11.79c0,3.12-.22,8.01-3.61,11.35l-.31-.35v3.61h9.06v-4.88c-.35,.04-.79,.09-1.28,.09h-.88c-1.85,0-2.11-.66-2.11-2.33V12.93h-.88v1.67Zm-3.92-1.67v11.92c1.5-3.43,1.41-7.35,1.41-10.29v-1.63h-1.41Zm9.06,23.67v-6.16h-9.06v6.16h9.06Zm-5.15-31.5v6.6h.88V5.1h-.88Zm3.48,7.83v7.87c0,.44,.09,.57,.31,.57h1.1l.26-.09V12.93h-1.67Zm15.71-6.91c-.4-.18-.75-.4-1.1-.7,.13-1.8-.44-3.65-1.19-4.75l.26-.18c8.45,.13,8.01,4.35,5.32,5.63h2.51l2.68-3.65s3.04,2.46,4.79,4.18c-.13,.48-.62,.7-1.23,.7h-21.2l-.35-1.23h9.5Zm4.93,11v-5.1h-6.55v5.1h6.55Z"/>
      <path class="cls-1" d="M482.25,19.58s2.02,2.24,2.99,3.7c-.09,.48-.48,.7-1.06,.7h-2.99v7.87c-.09,.18-2.51,1.06-4.75,1.06h-1.1v-2.2h-2.11v5.06c0,3.69-.84,5.89-6.86,6.33-.04-1.72-.13-2.95-.57-3.7-.4-.75-1.01-1.41-2.73-1.67v-.57s2.6,.18,3.3,.18c.57,0,.7-.26,.7-.7v-4.93h-3.92l-.4-1.23h4.31v-5.5h-5.23l-.35-1.23h5.59v-5.41h-3.7l-.13-.48c-.13,.04-.26,.04-.4,.04h-20.28l-.35-1.23h7.08v-4.18h-5.63l-.35-1.23h5.98v-3.61h-6.16l-.35-1.23h6.51V.35l7.48,.62c-.04,.57-.35,.97-1.41,1.14v3.3h.88l2.51-3.26s2.82,2.2,4.49,3.78c-.13,.48-.57,.7-1.19,.7h-6.69v3.61h.57l2.38-3.12s2.73,2.16,4.31,3.65c-.09,.48-.53,.7-1.14,.7h-6.11v4.18h1.54l2.55-3.34s2.82,2.2,4.53,3.78h12.32l2.29-2.6,4.18,4.18c-.31,.31-.92,.62-1.58,.75v3.08l1.06-1.94Zm-19.93,1.63c-.26,.35-.75,.7-1.58,.88v13.59c0,3.83-.75,5.9-6.38,6.38-.04-1.85-.13-3.26-.48-4.09-.4-.84-.88-1.41-2.29-1.72v-.57s2.02,.09,2.64,.09c.53,0,.66-.26,.66-.7v-3.74h-4.58v8.75c0,.57-2.42,1.89-4.88,1.89h-.84V17.68l5.9,2.33h3.96l2.51-2.82,5.37,4Zm-12.01,.04v3.83h4.58v-3.83h-4.58Zm4.58,8.84v-3.78h-4.58v3.78h4.58Zm7.52-22.88c10.16,2.77,4.84,10.51,1.01,6.73,.31-2.29-.4-4.84-1.45-6.51l.44-.22Zm19.71-1.72c-.62,.44-1.63,.44-2.99-.13-4,.66-10.29,1.1-15.62,1.06l-.09-.53c4.58-1.36,10.38-3.96,13.33-5.72l5.37,5.32Zm-13.77,1.19c10.34,2.46,5.01,10.29,1.14,6.51,.22-2.2-.48-4.71-1.54-6.29l.4-.22Zm4.88,16.06h2.11v-5.41h-2.11v5.41Zm2.11,1.23h-2.11v5.5h2.11v-5.5Zm8.45-14.74c-.18,.4-.62,.66-1.72,.48-1.72,1.63-5.46,4.35-7.79,6.07l-.4-.4c1.14-2.68,2.68-7.3,3.43-9.59l6.47,3.43Z"/>
      <path class="cls-1" d="M537.02,9.9c-.35,.4-.79,.53-1.72,.57-1.8,1.54-4.75,3.48-7.13,4.57l-.26-.26c.35-1.58,.66-3.87,.84-5.63h-25.91c.53,3.48-.48,5.98-2.24,7.08-1.72,1.1-4.58,.31-5.32-2.02-.57-2.2,.7-3.83,2.51-4.66,1.41-.7,3.39-2.51,3.34-4.4h.48c.44,.97,.75,1.89,.97,2.77h13.24c-.57-.18-1.19-.44-1.76-.88,.04-2.46-1.01-5.01-2.73-6.47l.22-.22c11.57-.66,10.56,6.38,6.6,7.57h10.25l3.17-3.17,5.45,5.15Zm-3.25,24.06c1.94,.7,2.42,1.45,2.42,2.77,0,2.77-2.33,3.96-12.1,3.96h-5.59c-5.85,0-7.7-.92-7.7-5.59v-7.83l-14.34,1.8-.48-1.19,14.83-1.89v-7.04c-3.65,.4-7.39,.62-10.95,.7l-.13-.57c8.01-1.72,17.73-5.15,22.61-7.87l5.85,5.32c-.48,.48-1.54,.57-3.04,0-2.2,.57-4.88,1.1-7.74,1.54v7.13l8.89-1.14,2.73-4.4s3.92,2.16,6.38,3.74c-.04,.48-.53,.84-1.14,.92l-16.85,2.11v6.95c0,.88,.44,1.14,2.02,1.14h5.41c1.5,0,3.04,0,3.87-.09,.84-.04,1.23-.18,1.67-.7,.7-.92,1.58-2.95,2.82-6.03h.4l.18,6.25Z"/>
    </g>
  </g>
</svg>