<?xml version="1.0" encoding="UTF-8"?>
<svg id="_圖層_2" data-name="圖層 2" xmlns="http://www.w3.org/2000/svg" viewBox="0 0 174.67 40.09">
  <defs>
    <style>
      .cls-1 {
        fill: #fff;
      }
    </style>
  </defs>
  <g id="_圖層_1-2" data-name="圖層 1">
    <g>
      <path class="cls-1" d="M13.33,21.28c-.9,3.69-2.19,7.31-3.73,10.24,.56,.38,1.2,.85,2.01,1.32,2.91,1.74,6.9,2,11.92,2s12.6-.42,17.36-1.1c-.6,1.36-1.41,3.82-1.5,5.18-3.56,.21-11.06,.51-16.07,.51-5.7,0-9.26-.47-12.34-2.25-1.8-.98-3.3-2.38-4.16-2.38-.99,0-2.44,2.89-3.39,5.31l-3.43-4.84c1.8-2.17,3.73-3.78,5.31-4.5,1.03-2.04,1.93-4.67,2.61-7.18H2.19c.99-2.38,2.1-5.73,3.17-8.92H.81v-4.5H11.36c-.9,2.89-2.01,6.2-3.04,9.09h2.44l.73-.21,1.59,.68v-3.02h10.2v-4.63H14.14V7.48h5.4c-.77-1.66-1.97-3.78-2.91-5.48L20.92,.34c1.2,1.87,2.83,4.54,3.6,6.12l-2.36,1.02h6.39c1.37-2.21,2.7-5.05,3.51-7.22l5.14,1.49c-1.11,1.95-2.36,3.95-3.51,5.73h4.97v4.59h-10.12v4.63h11.49v4.59h-10.5c3.43,2.97,7.5,6.41,9.69,8.66l-3.56,3.52c-1.93-2.25-5.61-5.65-9-8.71-1.67,3.23-4.89,6.37-10.42,8.83-.73-1.06-2.36-2.85-3.56-3.82,6.39-2.29,8.92-5.48,9.94-8.49H13.33ZM5.57,9.13c-.56-1.91-1.59-4.88-2.36-7.14L7.89,.68c.77,2.21,1.84,5.01,2.49,6.8l-4.8,1.66Z"/>
      <path class="cls-1" d="M82.64,21.45v18.43h-5.74v-2.29h-29.45V21.49h5.74v11.08h9v-13.34h-12.47V3.82h5.4V14.36h7.07V.26h5.66V14.36h7.37V3.82h5.66v15.42h-13.03v13.34h9.04v-11.13h5.74Z"/>
      <path class="cls-1" d="M116.98,7.81c2.31,2.25,6.86,3.31,12.64,3.61-1.03,.98-2.23,2.8-2.83,4.03-4.8-.59-8.53-1.95-11.23-4.29-1.63,1.87-5.19,3.53-12.39,4.33-.34-.81-1.03-1.87-1.71-2.76h-11.36v-3.86h12.94v2.59c8.19-.85,9.26-2.76,9.26-4.33v-.64h-2.57c-.9,1.4-1.93,2.68-3,3.65-.81-.76-2.7-2-3.77-2.59,2.27-1.87,4.03-4.67,5.01-7.56l4.46,.98c-.21,.64-.47,1.27-.73,1.87h12.17l.77-.21,3.47,1.06c-1.11,2.34-2.57,5.01-3.94,6.71l-3.94-1.44c.47-.68,1.03-1.57,1.5-2.46h-4.76v1.32Zm1.16,24.97c3.94,1.44,8.14,3.14,10.67,4.38l-4.59,2.72c-2.44-1.4-6.9-3.48-11.14-5.01l2.61-2.08h-12.09l3.73,1.7c-3.51,2.21-9.04,4.33-13.37,5.52-.86-.98-2.66-2.85-3.77-3.7,4.11-.76,8.7-2.04,11.7-3.53h-6.17V15.55h28.67v17.24h-6.26ZM102.06,6.03h-10.97V2.34h10.97v3.7Zm-1.41,14.35h18.56v-1.83h-18.56v1.83Zm0,4.67h18.56v-1.83h-18.56v1.83Zm0,4.76h18.56v-1.91h-18.56v1.91Z"/>
      <path class="cls-1" d="M147.41,20.77c.86,1.15,4.07,6.46,4.71,7.77l-3.51,3.78c-.6-1.87-1.76-4.76-2.83-7.09v14.69h-4.71v-15.16c-.99,4.25-2.57,8.71-4.8,11.17-.43-1.78-1.54-4.33-2.31-6.03,1.8-2.12,3.47-6.03,4.16-9.26l2.96,1.02v-2.63h-6.47v-4.71h6.47V.26h4.71V14.31h6.34v4.71h-6.34v2.89l1.63-1.15Zm-10.89-7.18c-.09-2.63-.94-6.71-1.97-9.81l3.56-.89c1.16,3.1,2.06,7.09,2.23,9.73l-3.81,.98Zm16.37-10.02c-1.11,3.4-2.36,7.39-3.43,9.85l-3.26-.89c.94-2.68,1.93-6.88,2.4-9.85l4.29,.89Zm16.63,24.85v11.47h-4.8v-10.62l-11.96,2.12-.77-4.71,12.73-2.25V.21h4.8V23.57l4.37-.81,.77,4.71-5.14,.93Zm-14.66-15.42c2.49,1.32,5.66,3.4,7.2,4.88l-2.57,4.03c-1.41-1.53-4.54-3.82-7.03-5.27l2.4-3.65Zm6.21-1.53c-1.33-1.66-4.29-3.95-6.64-5.52l2.44-3.4c2.4,1.4,5.44,3.57,6.81,5.14l-2.61,3.78Z"/>
    </g>
  </g>
</svg>