<?xml version="1.0" encoding="utf-8"?>
<!-- Generator: Adobe Illustrator 27.0.0, SVG Export Plug-In . SVG Version: 6.00 Build 0)  -->
<svg version="1.1" id="_圖層_2" xmlns="http://www.w3.org/2000/svg" xmlns:xlink="http://www.w3.org/1999/xlink" x="0px" y="0px"
	 viewBox="0 0 712 71.9" style="enable-background:new 0 0 712 71.9;" xml:space="preserve">
<style type="text/css">
	.st0{fill:#FFFFFF;}
</style>
<g id="_圖層_1-2">
	<g>
		<path class="st0" d="M257.5,43.7c4.1,3.7,9.5,7,15,8.9c-2,1.6-4.8,4.8-6.1,7c-4.2-1.9-8.3-4.7-12.1-8v5.7h-14v5h25.1v7.5h-58.6
			v-7.5H231v-5h-13.6v-4.7c-3.8,3.1-7.9,5.9-12.2,7.8c-1.3-2.1-3.9-5.3-5.9-7c5.6-2.1,11.3-5.6,15.6-9.6h-14.9v-7.4h14.7V13.6H204
			V6.3h10.6V0.5h9.2v5.7h24.1V0.5h9.4v5.7h10.6v7.3h-10.6v22.8h14.2v7.4C271.6,43.7,257.5,43.7,257.5,43.7z M252.6,50.1
			c-2.1-2-3.9-4.1-5.5-6.3h-21.7c-1.5,2.2-3.5,4.3-5.5,6.3H231v-4.7h9.3v4.7H252.6z M223.8,13.6V17h24.1v-3.4
			C247.9,13.6,223.8,13.6,223.8,13.6z M223.8,26.6h24.1v-3.4h-24.1V26.6z M223.8,36.3h24.1v-3.4h-24.1V36.3z"/>
		<path class="st0" d="M330.4,24.5c4.8,11.1,12.6,21.6,21.6,27.6c-2.4,1.8-5.6,5.4-7.2,7.9c-2.9-2.2-5.6-4.9-8.2-7.9v6.6h-15.9v12.9
			H311V58.9h-16.2v-6.8c-2.7,3.1-5.6,6-8.7,8.4c-1.6-2.3-4.5-5.7-6.7-7.4c8.9-6.1,16.8-17,21.6-28.5h-18.9v-9.2H311V0.5h9.7v14.7h29
			v9.2H330.4L330.4,24.5z M311,49.6V24.5h-0.5c-3.4,9.3-8.1,17.9-13.6,25.1H311z M334.5,49.6c-5.5-7.2-10-15.8-13.4-25.1h-0.3v25.1
			H334.5z"/>
		<path class="st0" d="M409,14.1c4.2,4.1,12.3,5.9,22.7,6.5c-1.9,1.8-4,5-5.1,7.2c-8.6-1.1-15.3-3.5-20.2-7.7
			c-2.9,3.4-9.3,6.3-22.3,7.8c-0.6-1.5-1.8-3.4-3.1-5h-20.4V16H384v4.7c14.7-1.5,16.6-5,16.6-7.8v-1.1H396c-1.6,2.5-3.5,4.8-5.4,6.6
			c-1.5-1.4-4.9-3.6-6.8-4.7c4.1-3.4,7.2-8.4,9-13.6l8,1.8c-0.4,1.1-0.9,2.3-1.3,3.4h21.9l1.4-0.4l6.2,1.9c-2,4.2-4.6,9-7.1,12.1
			l-7.1-2.6c0.9-1.2,1.9-2.8,2.7-4.4H409L409,14.1L409,14.1z M411.1,58.9c7.1,2.6,14.6,5.6,19.2,7.9l-8.2,4.9
			c-4.4-2.5-12.4-6.3-20-9l4.7-3.7H385l6.7,3c-6.3,4-16.3,7.8-24,9.9c-1.5-1.8-4.8-5.1-6.8-6.6c7.4-1.4,15.6-3.7,21-6.3h-11.1v-31
			h51.6v31L411.1,58.9L411.1,58.9z M382.2,10.8h-19.7V4.2h19.7V10.8z M379.7,36.6h33.4v-3.3h-33.4V36.6z M379.7,45h33.4v-3.3h-33.4
			V45z M379.7,53.6h33.4v-3.4h-33.4V53.6z"/>
		<path class="st0" d="M463.8,37.3c1.5,2.1,7.3,11.6,8.5,14l-6.3,6.8c-1.1-3.4-3.2-8.5-5.1-12.8v26.4h-8.5V44.5
			c-1.8,7.6-4.6,15.7-8.6,20.1c-0.8-3.2-2.8-7.8-4.2-10.8c3.2-3.8,6.2-10.8,7.5-16.6l5.3,1.8v-4.7h-11.6v-8.5h11.6V0.5h8.5v25.3
			h11.4v8.5h-11.4v5.2C460.8,39.4,463.8,37.3,463.8,37.3z M444.2,24.4c-0.1-4.7-1.7-12.1-3.5-17.6l6.4-1.6c2.1,5.6,3.7,12.8,4,17.5
			L444.2,24.4L444.2,24.4z M473.6,6.4c-2,6.1-4.2,13.3-6.2,17.7l-5.9-1.6c1.7-4.8,3.5-12.4,4.3-17.7L473.6,6.4L473.6,6.4z
			 M503.5,51.1v20.6h-8.6V52.6l-21.5,3.8l-1.4-8.5l22.9-4V0.4h8.6v42l7.9-1.5l1.4,8.5L503.5,51.1L503.5,51.1z M477.2,23.4
			c4.5,2.4,10.2,6.1,12.9,8.8l-4.6,7.2c-2.5-2.8-8.2-6.9-12.6-9.5L477.2,23.4L477.2,23.4z M488.3,20.6c-2.4-3-7.7-7.1-11.9-9.9
			l4.4-6.1c4.3,2.5,9.8,6.4,12.2,9.2L488.3,20.6z"/>
	</g>
</g>
</svg>
