<?xml version="1.0" encoding="utf-8"?>
<!-- Generator: Adobe Illustrator 27.0.0, SVG Export Plug-In . SVG Version: 6.00 Build 0)  -->
<svg version="1.1" id="_圖層_2" xmlns="http://www.w3.org/2000/svg" xmlns:xlink="http://www.w3.org/1999/xlink" x="0px" y="0px"
	 viewBox="0 0 848.5 55.7" style="enable-background:new 0 0 848.5 55.7;" xml:space="preserve">
<style type="text/css">
	.st0{fill:#FFFFFF;}
</style>
<g id="_圖層_1-2">
	<g>
		<path class="st0" d="M6.2,30.6v-8c-1.8,0-3.7,0.1-5.7,0.1c-0.2-1.7-0.3-3.5-0.4-5.2c1.6-0.3,3.7-0.5,6.1-0.6
			c0-2.6-0.1-4.8-0.1-6.7c0.9-0.1,1.9-0.2,2.8-0.3c1,0,1.9,0.1,2.7,0.3v6.5c2.7,0,4.7,0.1,6,0.3v5.1c-1.7,0.1-3.7,0.2-6,0.3
			c0,2.6,0,5.3,0.1,8c1.2,0,2.1,0.1,2.9,0.1c0.2,0.8,0.3,1.6,0.3,2.5v2.3C13.4,35.8,11,36,7.7,36c-2.7,0-4.7-0.1-5.9-0.3
			c-0.4-0.7-0.6-1.5-0.6-2.4c0.1-0.9,0.3-1.7,0.5-2.4C2.4,30.8,3.9,30.7,6.2,30.6L6.2,30.6z M23.1,20.5c1.6,0.4,3.1,0.9,4.6,1.6
			c-0.6,2.6-1.4,5.2-2.2,8c3.6,0.7,7.1,1.5,10.7,2.5c0,5-0.3,9.8-0.8,14.1c-1.1,0.3-2.3,0.5-3.8,0.5c-1.9,0-3.5-0.1-4.7-0.4
			c0-1.4,0-2.7-0.1-3.8c1.4,0,2.7,0,3.8-0.1c0.1-1.8,0.2-3.7,0.4-5.9c-2.4-0.6-4.7-1.2-6.9-1.9c-1,3-1.9,6.1-3,9.3
			c-1.7-0.1-3.3-0.5-4.7-1.3C18.3,34.9,20.5,27.4,23.1,20.5L23.1,20.5z M21.7,13.2c5.4,0.1,10.9,0.4,16.3,0.8
			c-0.9-2.4-1.6-4.8-2.3-7c1.3-0.8,3-1.4,5-1.9c1.1,3.2,2.2,6.4,3.4,9.4c2.5,0.3,4.9,0.6,7.4,0.9c0,1.5-0.2,3-0.5,4.4
			c-1.7,0-3.3,0-5-0.1c0.9,2.4,1.8,4.8,2.7,7.1c0.9-0.6,1.8-1.1,2.7-1.7c1.3,1,2.3,2.4,3.1,4.1c-1,1-2.2,2.1-3.8,3.2
			c0.5,1.4,1,2.7,1.5,3.9c0.8,0,1.8-0.2,2.8-0.7c0.5,1.1,0.8,2.3,1.1,3.8c-1.9,1.1-4.4,1.8-7.4,2.1c-1-2.1-1.8-4.1-2.7-6.2
			c-1.4,0.8-2.9,1.6-4.5,2.4c-1.2-1.3-2.2-2.7-2.8-4.2c1.6-1.2,3.3-2.4,5-3.6c-1.4-3.5-2.8-7-4-10.4c-6.2-0.3-12.4-0.8-18.7-1.5
			C21.2,16.4,21.3,14.8,21.7,13.2L21.7,13.2z M47,5.1c2,0.7,3.9,1.6,5.8,2.8c-0.3,1.1-1.1,2.5-2.3,4.3c-2-0.8-3.9-1.8-5.8-3
			C45.3,7.6,46.1,6.2,47,5.1z"/>
		<path class="st0" d="M73.2,10.1c6.9,0,13.8,0.1,20.7,0.3c0.1-3.2,0.3-5.8,0.5-7.6c0.9-0.1,1.9-0.2,2.9-0.3c1,0,1.9,0.1,2.8,0.4
			c0,2.4-0.1,5-0.3,7.6c7.3,0.2,14.4,0.5,21.5,1v2.3c0,1.1-0.1,1.9-0.3,2.5c-19.9,0-35.9-0.4-48-1.1c-0.3-0.4-0.4-1.2-0.4-2.5
			C72.8,11.9,73,11,73.2,10.1L73.2,10.1z M96.9,18.7c1.2,0,2.1,0.1,2.6,0.4c0.1,2.1,0.3,4.2,0.4,6.3c5.5,0.3,10.9,0.7,16.3,1.2
			c0,7.3-0.4,14.1-1.2,20.3c-2.3,0-4.8-0.2-7.5-0.7c-0.1-0.8-0.1-1.5-0.1-2c0.1-0.7,0.1-1.1,0.1-1.4c1-0.1,1.9-0.2,2.7-0.3
			c0.1-3,0.1-6.8,0.1-11.3c-3.4,0-6.8-0.1-10.2-0.3c0.3,6.8,0.4,13.9,0.4,21.4c-0.5,0.2-1.4,0.3-2.7,0.3h-2.6
			c-0.5-7.7-0.8-15-0.9-22c-3.5-0.3-7-0.6-10.5-1c0.7,5.4,1.1,10.8,1.4,16.2c-0.9,0.3-1.8,0.4-2.7,0.5h-2.7
			c-0.8-7.1-1.4-14.3-1.9-21.6c1.6-0.2,3.3-0.5,5.2-0.7c0,0.4,0.1,0.7,0.1,1c3.7,0,7.4,0.1,11,0.3c0-2.1-0.1-4-0.1-5.9
			C94.7,19,95.5,18.8,96.9,18.7L96.9,18.7z"/>
		<path class="st0" d="M142.1,15c0.9,0,1.8,0.1,2.5,0.3c0.4,5.6,0.5,10.7,0.5,15.4c0,3.8-0.2,7.1-0.6,10c-0.4,0.1-1.2,0.2-2.4,0.2
			s-1.9-0.1-2.3-0.2c-0.5-2.9-0.8-6.1-0.8-9.6c0.1-5,0.3-10.2,0.6-15.8C140.4,15.2,141.2,15.1,142.1,15L142.1,15z M143.7,1.8
			c7.4,0,14.1,0.8,20,2.2c-0.1,8.3-0.5,16.1-1.4,23.3c-1.2,1-2.8,1.4-4.8,1.4c-3.1,0-5.8-0.2-8-0.6c-0.2-0.2-0.4-0.8-0.6-1.8V24
			c2.6-0.3,5.3-0.7,8-1.2c0.1-1.1,0.2-2.2,0.3-3.4c-3.4-0.2-6.7-0.7-9.8-1.6c0.1-1.6,0.1-3.1,0.1-4.7c3.3,0.1,6.6,0.4,10.1,1
			c0.2-1.8,0.3-3.7,0.4-5.7c-1.8-0.3-6.6-0.8-14.5-1.5c-0.2-0.8-0.3-1.8-0.3-2.8C143.4,3.4,143.6,2.6,143.7,1.8L143.7,1.8z
			 M161.5,31.8c4.5,0,8.8,0.4,12.9,1c0.7,1.1,1,2.6,1,4.5c0,7.2-0.2,12.4-0.5,15.6c-1.5,0.8-4.4,1.2-8.6,1.2c-5.4,0-9.7-0.3-13-1
			c-0.5-3.8-0.8-8.4-1-14.1c0.1-1.7,0.4-3.5,0.9-5.5h4.9v5.9c2,0.2,4.1,0.4,6.4,0.8c0,1.6-0.3,3-0.9,4.3c-2.1,0-3.9-0.1-5.4-0.2
			c0,1.5,0,2.8,0.1,4c2.2,0.3,4.7,0.5,7.3,0.5c2,0,3.3-0.2,4-0.5c0-1.3-0.1-4.9-0.4-10.7c-2.7-0.3-5.4-0.7-8.1-1.3
			C161,34.9,161.2,33.4,161.5,31.8L161.5,31.8z M171.2,10.6c0.8,0,1.7,0.1,2.8,0.4c0,1.7,0.1,3.4,0.1,5c2.4,0.1,4.9,0.3,7.6,0.7
			c0,1.6-0.3,3.2-1,4.6c-2.6,0-4.8-0.1-6.5-0.3v4.9h9.5c0.2,0.7,0.3,1.4,0.3,2.1c0,0.8,0,1.5-0.1,2.1c-1.2,0.6-4.3,1-9.1,1
			c-2.8,0-4.7-0.2-5.7-0.6c-0.6-1.4-0.9-4.8-0.9-10.1c0.1-3,0.4-6.1,0.6-9.3C169.6,10.8,170.4,10.7,171.2,10.6L171.2,10.6z
			 M174.1,5.7c9.3,0.2,14.9,0.6,17,1c0.7,13.1,1.1,24.9,1.1,35.3c-2.9,0.5-5.4,0.7-7.3,0.7c-0.3-1.3-0.4-2.7-0.4-4.2
			c0.7-0.2,1.5-0.4,2.2-0.6c0-8.8-0.5-17.6-1.6-26.4c-3.6,0-7.3-0.3-10.9-1c-0.2-0.7-0.3-1.6-0.3-2.6C173.9,7.1,174,6.4,174.1,5.7
			L174.1,5.7z"/>
		<path class="st0" d="M216.5,16.1c0.8,0,1.5,0.1,2.1,0.1c1.2-2.5,2.8-4.9,4.7-7.4c1.9,0.5,3.5,1.2,4.7,2.1
			c-0.7,1.9-1.7,3.9-2.9,5.9c2.9,0.3,5.6,0.6,8.2,1c0,13.1-0.6,22.7-1.7,29c-1,0.6-3.5,0.9-7.4,0.9c-5.7,0-10.5-0.6-14.4-1.7
			c-0.6-7.4-1.1-16.4-1.4-26.9c1.8-0.2,3.6-0.3,5.2-0.4c0.3,3.2,0.6,6.5,0.8,9.9c0.9,0,2.1-0.1,3.4-0.2c1.6,0,2.7,0.1,3.6,0.4
			c0.2,0.7,0.3,1.6,0.3,2.5v2.2c-0.8,0.2-2.2,0.3-4.1,0.3c-1.1,0-2.1,0-2.9-0.1c0.1,2.5,0.2,5.1,0.3,7.7c4.2,0.4,8.1,0.6,11.6,0.6
			c0-4.8,0.2-11.3,0.6-19.4c-3.9-0.3-7.6-0.8-11-1.8C216.4,19.2,216.5,17.6,216.5,16.1L216.5,16.1z M244.7,10
			c1.4,0.5,2.8,1.3,4.1,2.4c-1,2.5-2.1,5-3.3,7.4c4.8,0.5,9.6,1,14.4,1.7c0,8.2-0.3,15.9-0.8,23.1c-0.7,0.4-1.6,0.6-2.6,0.6
			c-1.9,0-3.5-0.2-4.8-0.5c0-1.3,0-2.6-0.1-3.8c1.1,0,2,0,2.9-0.1c0-4.3,0.1-9.2,0.3-14.6c-4-0.4-7.9-0.8-11.7-1.4
			c-1.2,2.3-2.4,4.6-3.7,6.9c-1.7-0.4-3.3-1.3-4.9-2.9C237.6,22.4,241,16.2,244.7,10L244.7,10z M239.2,35c2.4,1.1,4.9,2.6,7.6,4.4
			c-0.4,1.3-1.2,2.8-2.3,4.3c-2.7-1-5.4-2.5-7.9-4.5C237.5,37.7,238.3,36.3,239.2,35L239.2,35z"/>
		<path class="st0" d="M285.5,10.6c1.2,0,2.1,0.1,2.6,0.4c0.3,2.7,0.5,5.4,0.6,8h1.6c1.8,0,3.1,0.1,3.8,0.4V24
			c-0.3,0.4-1.6,0.6-4,0.6H289c0,1.6,0.1,3.1,0.1,4.7c2.2,1,4.2,2,6.2,3.1c-0.3,1.5-1,3.1-2.1,4.5c-1.5-0.4-2.8-0.9-4-1.5
			c0,2.7,0.1,5.5,0.1,8.4c-0.5,0.1-1.4,0.2-2.7,0.2H284c-0.2-2.8-0.3-5.6-0.5-8.3c-1.5,0.9-3.2,1.7-5,2.6c-1.3-1.3-2.3-2.7-2.9-4.3
			c2.3-1.6,4.8-3.3,7.6-5c0-1.5-0.1-3-0.1-4.5c-3.3-0.1-5.8-0.3-7.6-0.5c-0.2-0.7-0.3-1.5-0.3-2.5c0.1-1,0.1-1.8,0.1-2.4
			c2.2,0,4.8,0,7.7-0.1c0-2.7-0.1-5.4-0.1-8C283.3,10.9,284.1,10.7,285.5,10.6L285.5,10.6z M300.1,13.1c0.8,0,1.7,0.1,2.5,0.3
			c0,12.2,0.1,23.1,0.1,32.7c8,0,16.1,0.2,24.4,0.5c0.2,0.9,0.3,1.7,0.3,2.3c0,0.9-0.1,1.7-0.4,2.3c-2.8,0-9.3,0.1-19.7,0.1
			c-4.9,0-8.2-0.4-9.9-1.1c-0.4-5.8-0.6-10.6-0.6-14.2c0-6.6,0.3-14.1,0.8-22.5C298.5,13.3,299.3,13.2,300.1,13.1L300.1,13.1z
			 M298.3,3.2c10.1,0.2,20.2,0.9,30.2,2.2c0,1.4-0.1,2.8-0.3,4.2c-10.1,0-20.2-0.7-30.4-2C297.8,6.2,298,4.7,298.3,3.2L298.3,3.2z
			 M316.1,30.4c0.2,4.1,0.3,8.1,0.3,12.2c-3.9,0.5-7.7,0.8-11.6,0.8c-0.7-4.3-1.1-8.5-1.4-12.4C307.6,30.7,311.8,30.5,316.1,30.4
			L316.1,30.4z M324.1,11.7c0.6,2.3,0.9,4.7,0.9,7.2c0,3.8-0.1,5.9-0.4,6.3c-3.7,0.8-9.1,1.2-16.3,1.2c-1.2-3.6-2-8-2.3-13.4
			C311.6,12.3,317.6,11.9,324.1,11.7z M308.6,35.2l0.6,3.6l2.5-0.5l-0.3-3.4L308.6,35.2L308.6,35.2z M312.8,21.8l6.9-0.5l-0.4-5.1
			l-7.1,0.5L312.8,21.8L312.8,21.8z M330.8,27.9c0.2,4.1,0.3,8.1,0.3,12.2c-4,0.5-8,0.8-12,0.8c-0.7-4.3-1.2-8.5-1.5-12.4
			C321.8,28.2,326.2,28,330.8,27.9L330.8,27.9z M322.7,32.7l0.6,3.6l3-0.5l-0.4-3.4L322.7,32.7L322.7,32.7z"/>
		<path class="st0" d="M355.6,4c1.6,0.4,3,1.1,4.5,2c-2,4.2-4.4,8.3-7.2,12.4c1.3,0.7,2.6,1.5,3.8,2.3c0.9-1.6,1.8-3.1,2.8-4.7
			c1.7,0.6,3.3,1.5,4.8,2.6c-2.1,4.2-4.1,8.1-6,11.9c0.6,0.4,1.7,0.5,3.1,0.5c0-0.9,0.1-1.9,0.4-2.9c1.3-0.2,2.7-0.3,4.3-0.5
			c0.3,2.3,0.4,4.8,0.4,7.4c-0.4,0.3-2,0.5-4.6,0.5c-4.9,0-8.6-0.5-11-1.5c0.6-2.5,1.6-5.2,3.1-8.2c-3.3-1.6-6.4-3.3-9.3-5.2
			C348,14.4,351.7,8.8,355.6,4L355.6,4z M349.2,39.4c0.9,0,1.7,0.2,2.5,0.5c0,2-0.2,4.3-0.5,6.7c-0.5,0.1-1.3,0.2-2.6,0.2
			s-2.1-0.2-2.7-0.6c0-2.8,0.2-5,0.6-6.5C347.2,39.6,348.1,39.5,349.2,39.4z M358.1,39.8c1,1.3,1.7,3.3,2.1,6
			c-1.5,0.8-2.9,1.3-4.4,1.4c-1.1-1.6-1.8-3.7-2.1-6.2C355,40.5,356.4,40.1,358.1,39.8z M365,38.4c1,1.2,1.6,2.8,1.9,5
			c-1.3,0.8-2.7,1.2-4,1.2c-1-1.3-1.7-3-1.9-5.1C362.2,39.1,363.5,38.7,365,38.4L365,38.4z M372.9,7.4c7.5,0.2,15,0.7,22.4,1.6
			c0,5.2-0.2,10.6-0.6,16.1c2.6,0,4.6,0.1,6.1,0.2v4.5c-0.7,0.3-2.9,0.5-6.5,0.6c-0.4,3.7-0.8,7.5-1.3,11.3c2.2-0.1,4.5-0.2,6.7-0.3
			c0.2,0.6,0.3,1.4,0.3,2.4c0,1.3,0,2.2-0.1,2.7c-9.7,1.2-19.6,1.8-29.9,1.9c-0.2-1.6-0.3-3.2-0.3-4.9c5.6-0.5,11.5-1,18-1.4
			c0.2-3.8,0.4-7.7,0.6-11.5h-7.6c-0.7,4-1.5,7.8-2.3,11.4l-3.4-0.4c-0.9-0.3-1.7-0.5-2.3-0.8c0.4-3.4,1-6.8,1.7-10.4
			c-2.2-0.1-4-0.2-5.3-0.4c-0.2-0.6-0.3-1.5-0.3-2.4c0.1-0.9,0.1-1.6,0.1-2.3h6.5c0.7-3.1,1.5-6.4,2.4-9.7c1.8,0.2,3.5,0.6,5,1.2
			c-0.4,2.9-0.8,5.8-1.2,8.4h7c0.2-3.7,0.4-7.3,0.6-10.9c-5.5-0.3-11-0.9-16.6-1.7C372.5,10.8,372.7,9.1,372.9,7.4L372.9,7.4z"/>
		<path class="st0" d="M456.1,6.4c1,0,1.8,0.1,2.7,0.4c0,4.2-0.3,8.9-0.9,14.1c-0.5,0.2-1.3,0.3-2.6,0.3s-2.2-0.2-2.8-0.6
			c0-6.1,0.3-10.7,0.8-13.9C454.1,6.6,455.1,6.5,456.1,6.4z M469.7,24.1c1.2,1.1,2.2,2.5,2.9,4.1c-2.2,1.5-4.6,2.9-7.1,4.2
			c-1.3,0.7-2.5,1.5-3.7,2.1c-1.2,0.7-2.6,1.4-4,1.9c-1.3-1.2-2.3-2.6-2.9-4.1c1-0.7,2.2-1.5,3.5-2.4c1.2-0.8,2.4-1.5,3.6-2.1
			c1.1-0.6,2.3-1.3,3.6-1.9C467,25.4,468.4,24.8,469.7,24.1L469.7,24.1z M459.1,37.2c1.6,0.4,3.3,1,5,1.7c-0.9,3.4-2.3,6.8-4.2,10.2
			c-1.9-0.4-3.4-1.2-4.7-2.3C456.4,43.4,457.7,40.2,459.1,37.2L459.1,37.2z M464.6,5.8c3.8,0,7.6,0,11.3,0.1
			c-0.2-1.4-0.3-2.8-0.4-4.3c0.6-0.3,1.5-0.6,2.5-0.8c1.3,0,2.2,0.1,2.7,0.5c0.3,1.6,0.5,3.2,0.6,4.9c6.5,0.3,12.9,0.7,19.2,1.2
			c0.6,4.2,1,8.3,1,12.2c-0.6,0.1-1.3,0.1-2.1,0.1c-0.6,0-1.5,0-2.7-0.1c-0.5-1.5-1.1-3.9-1.7-7.3c-9.9,0-20-0.5-30.2-1.5
			c-0.3-0.6-0.4-1.5-0.4-2.5C464.4,7.4,464.5,6.6,464.6,5.8L464.6,5.8z M467.5,40.9c1.6,0.4,3.4,1,5.2,1.8c-0.6,2.6-1.7,5.3-3.1,8
			c-1.9-0.5-3.5-1.2-4.7-2.3C465.6,45.8,466.5,43.3,467.5,40.9L467.5,40.9z M466.2,18.3c6.7,0,14.4,0.4,23.1,1.1
			c0,1.5-0.1,3.2-0.4,5.1c-7.6,0-15.3-0.4-22.9-1.2v-2.9C466.1,19.7,466.2,19,466.2,18.3z M481.5,27.9c1.6,8.1,2.8,16.3,3.5,24.4
			c-1.4,0.6-3.3,0.9-5.6,0.9c-1.3,0-2.6-0.2-3.8-0.5c-0.1-0.6-0.1-1.2-0.1-1.9v-2.1c1.4,0,2.4-0.1,3.1-0.1
			c-0.6-6.6-1.5-13.1-2.7-19.6C477.8,28.4,479.7,28,481.5,27.9L481.5,27.9z M497.9,28.6c1.3,1.8,2,3.4,2.3,5
			c-3.1,1.2-6.6,2.2-10.6,3c-1.2-1.7-1.9-3.4-2-5C491.3,30.4,494.8,29.5,497.9,28.6L497.9,28.6z M491.6,42.1c3.1,0.8,6,1.9,8.7,3.4
			c-0.4,1.5-1.2,3-2.4,4.7c-2.4-0.5-5.1-1.4-8.3-2.8C490.2,45.5,490.9,43.7,491.6,42.1z"/>
		<path class="st0" d="M528.3,16.1c0.8,0,1.5,0.1,2.1,0.1c1.2-2.5,2.8-4.9,4.7-7.4c1.9,0.5,3.5,1.2,4.7,2.1
			c-0.7,1.9-1.7,3.9-2.9,5.9c2.9,0.3,5.6,0.6,8.2,1c0,13.1-0.6,22.7-1.7,29c-1,0.6-3.5,0.9-7.4,0.9c-5.7,0-10.5-0.6-14.4-1.7
			c-0.7-7.4-1.1-16.4-1.4-26.9c1.8-0.2,3.6-0.3,5.2-0.4c0.3,3.2,0.6,6.5,0.8,9.9c1,0,2.1-0.1,3.4-0.2c1.6,0,2.7,0.1,3.6,0.4
			c0.2,0.7,0.3,1.6,0.3,2.5v2.2c-0.8,0.2-2.2,0.3-4.1,0.3c-1.1,0-2.1,0-2.8-0.1c0.1,2.5,0.2,5.1,0.3,7.7c4.2,0.4,8.1,0.6,11.6,0.6
			c0-4.8,0.2-11.3,0.7-19.4c-3.9-0.3-7.6-0.8-11-1.8C528.3,19.2,528.3,17.6,528.3,16.1L528.3,16.1z M556.5,10
			c1.4,0.5,2.8,1.3,4.2,2.4c-1,2.5-2.1,5-3.3,7.4c4.8,0.5,9.7,1,14.5,1.7c0,8.2-0.3,15.9-0.8,23.1c-0.7,0.4-1.6,0.6-2.6,0.6
			c-1.9,0-3.5-0.2-4.8-0.5c0-1.3,0-2.6-0.1-3.8c1.1,0,2,0,2.8-0.1c0-4.3,0.2-9.2,0.3-14.6c-4-0.4-7.9-0.8-11.7-1.4
			c-1.2,2.3-2.4,4.6-3.7,6.9c-1.7-0.4-3.3-1.3-4.9-2.9C549.5,22.4,552.9,16.2,556.5,10L556.5,10z M551,35c2.4,1.1,4.9,2.6,7.6,4.4
			c-0.4,1.3-1.2,2.8-2.3,4.3c-2.7-1-5.4-2.5-7.9-4.5C549.3,37.7,550.2,36.3,551,35L551,35z"/>
		<path class="st0" d="M595.5,7.5c0.9,0,1.8,0.1,2.7,0.3c0,3.7-0.3,7.8-0.9,12.4c-0.5,0.2-1.4,0.3-2.7,0.3s-2.2-0.2-2.8-0.7
			c0-5.2,0.3-9.2,0.9-12.1C593.5,7.7,594.4,7.6,595.5,7.5L595.5,7.5z M605.1,16c1.9,0.4,3.5,1.1,4.7,2.1c-1,3.3-2.7,6.6-5.1,10
			c-1.8-0.4-3.5-1.1-4.9-2.1C601.1,22.6,602.9,19.3,605.1,16L605.1,16z M604.3,47c3.1,0,6.7,0,10.8-0.1c0.1-3.2,0.2-6.3,0.3-9.1
			c-7.3,0-11.4-0.2-12.1-0.4c-0.3-0.7-0.4-1.5-0.4-2.4c0.1-1,0.3-1.9,0.5-2.7c4.8-0.1,10-0.2,15.6-0.3c5.1,0,9.2,0.2,12.2,0.7
			c0.2,0.4,0.3,1.2,0.3,2.3c0,1.2-0.1,2-0.3,2.4c-0.7,0.2-3.9,0.3-9.7,0.4c0,3.1-0.1,6.1-0.2,9.1c3.2,0,5.5,0.1,6.9,0.3v4.3
			c-0.7,0.5-4,0.7-9.8,0.7c-6.4,0-11.1-0.2-13.9-0.6c-0.2-0.7-0.3-1.5-0.3-2.3C604.2,48.4,604.3,47.7,604.3,47L604.3,47z M617.7,1
			c1,0,2,0.1,3,0.4c0,1.8,0,3.8-0.1,5.9c6.4,0.2,12.9,0.5,19.5,1c0,4.4-0.2,8.2-0.7,11.5c-0.8,0.2-1.6,0.3-2.6,0.3
			c-1.1,0-2-0.2-2.7-0.5v-6.2c-9.9-0.2-19.8-0.7-29.5-1.7c-0.2-0.6-0.3-1.3-0.3-2.3c0-0.9,0.2-1.7,0.3-2.4c3.3,0,6.5,0.1,9.8,0.2
			c0-2.5,0.1-4.4,0.2-5.8C615.4,1.2,616.5,1.1,617.7,1L617.7,1z M623.6,16.8c0.5,1.8,0.8,3.6,0.9,5.4c2.5,0,4.8,0,6.9-0.1
			c0.3,1.2,0.5,2.8,0.5,4.5c-3.6,0.7-7.8,1-12.4,1c-0.6-1.5-1-5-1-10.5C620.2,17,622,16.9,623.6,16.8L623.6,16.8z"/>
		<path class="st0" d="M661,15c1,0,1.8,0.1,2.5,0.3c0.3,5.6,0.5,10.7,0.5,15.4c0,3.8-0.2,7.1-0.7,10c-0.4,0.1-1.2,0.2-2.4,0.2
			s-1.9-0.1-2.3-0.2c-0.5-2.9-0.8-6.1-0.8-9.6c0.1-5,0.3-10.2,0.6-15.8C659.2,15.2,660,15.1,661,15L661,15z M662.6,1.8
			c7.4,0,14.1,0.8,20,2.2c-0.1,8.3-0.5,16.1-1.4,23.3c-1.2,1-2.8,1.4-4.8,1.4c-3.2,0-5.8-0.2-8-0.6c-0.2-0.2-0.4-0.8-0.7-1.8V24
			c2.6-0.3,5.3-0.7,8-1.2c0.1-1.1,0.2-2.2,0.3-3.4c-3.4-0.2-6.7-0.7-9.8-1.6c0.1-1.6,0.1-3.1,0.1-4.7c3.3,0.1,6.7,0.4,10.1,1
			c0.2-1.8,0.3-3.7,0.5-5.7c-1.8-0.3-6.6-0.8-14.5-1.5c-0.2-0.8-0.3-1.8-0.3-2.8C662.3,3.4,662.4,2.6,662.6,1.8L662.6,1.8z
			 M680.4,31.8c4.5,0,8.8,0.4,12.9,1c0.7,1.1,1,2.6,1,4.5c0,7.2-0.2,12.4-0.5,15.6c-1.5,0.8-4.4,1.2-8.6,1.2c-5.4,0-9.7-0.3-13-1
			c-0.5-3.8-0.8-8.4-1-14.1c0.1-1.7,0.4-3.5,0.9-5.5h4.9v5.9c2,0.2,4.2,0.4,6.3,0.8c0,1.6-0.3,3-0.9,4.3c-2.1,0-3.9-0.1-5.4-0.2
			c0,1.5,0,2.8,0.1,4c2.2,0.3,4.7,0.5,7.3,0.5c2,0,3.3-0.2,4-0.5c0-1.3-0.1-4.9-0.4-10.7c-2.7-0.3-5.4-0.7-8.1-1.3
			C679.9,34.9,680,33.4,680.4,31.8L680.4,31.8z M690,10.6c0.8,0,1.7,0.1,2.8,0.4c0,1.7,0.1,3.4,0.1,5c2.4,0.1,4.9,0.3,7.6,0.7
			c0,1.6-0.3,3.2-1,4.6c-2.6,0-4.8-0.1-6.5-0.3v4.9h9.5c0.2,0.7,0.3,1.4,0.3,2.1c0,0.8,0,1.5-0.1,2.1c-1.2,0.6-4.3,1-9.1,1
			c-2.8,0-4.7-0.2-5.7-0.6c-0.6-1.4-0.9-4.8-0.9-10.1c0.1-3,0.3-6.1,0.7-9.3C688.4,10.8,689.3,10.7,690,10.6L690,10.6z M693,5.7
			c9.3,0.2,15,0.6,17,1c0.7,13.1,1.1,24.9,1.1,35.3c-2.9,0.5-5.4,0.7-7.3,0.7c-0.3-1.3-0.5-2.7-0.5-4.2c0.7-0.2,1.5-0.4,2.2-0.6
			c0-8.8-0.5-17.6-1.6-26.4c-3.6,0-7.3-0.3-10.9-1c-0.2-0.7-0.3-1.6-0.3-2.6C692.8,7.1,692.9,6.4,693,5.7L693,5.7z"/>
		<path class="st0" d="M731.4,32.8c5,0,10,0.1,15,0.2c0.7-1.3,1.3-2.5,1.9-3.7c1.9,0.4,3.6,1,5.2,1.6c-0.3,0.8-0.7,1.6-0.9,2.3
			c7.9,0.3,15.7,0.8,23.5,1.4c0,1.7-0.1,3.3-0.4,4.9c-8.6,0-17.2-0.2-25.5-0.5c-0.8,1.8-1.5,3.5-2.3,5.2c3.2,0.9,6.5,1.8,9.7,2.7
			c1-2.2,2-4.4,3-6.3c1.7,0.4,3.3,1,4.8,1.7c-0.7,2-1.6,4.1-2.5,6.1c2.4,0.6,4.8,1.2,7,1.8c-0.1,1.4-0.5,3-1.4,4.6
			c-2.5-0.5-5.1-1-7.7-1.7c-0.5,1-0.9,1.9-1.4,2.8c-1.8-0.1-3.4-0.5-4.9-1.4c0.3-1,0.7-1.8,1-2.7c-5.3-1.3-10.5-2.9-15.8-4.6
			c1.3-2.9,2.6-5.8,3.8-8.5c-4.3-0.2-8.6-0.5-12.8-0.8C730.8,36.1,731,34.4,731.4,32.8L731.4,32.8z M737.6,2.6
			c11.3,0,22.5,0.2,33.7,0.7v2.3c0,1.1-0.1,1.9-0.2,2.4h-10.2c0.1,1.5,0.2,2.9,0.2,4.2c5.1,0.4,8.9,0.8,11.4,1.4
			c0.6,1.4,0.8,3.4,0.8,5.9c0,3.5-0.2,6.4-0.7,8.4c-1,0.9-4.6,1.3-10.8,1.3c-15-0.4-24.6-1.3-28.9-2.8c-0.4-1.5-0.7-4-0.7-7.3
			c0.1-1.6,0.5-3.4,1-5.5c0.8-0.2,1.7-0.3,2.7-0.3c1,0,1.9,0.1,2.7,0.3c0,3.8-0.2,6.8-0.6,9.1c7.3,0.7,15,1.1,23.1,1.2
			c2.2,0,4.3,0.1,6.4,0.2c0-1.9-0.2-3.7-0.3-5.6c-2-0.2-4-0.4-6-0.5c0,1,0.1,2.1,0.1,3.2c-1.6,0.4-3.3,0.5-5.1,0.5
			c-0.1-1.4-0.3-2.7-0.4-4.1c-1.7-0.1-3.3-0.2-5-0.3c0.1,1.3,0.2,2.6,0.2,3.8c-1.7,0.4-3.4,0.5-5.2,0.5c-0.2-1.5-0.4-3-0.5-4.5
			c-1.4,0-2.7-0.1-4-0.1c-0.2-0.8-0.3-1.6-0.3-2.5c0.1-0.9,0.2-1.6,0.3-2.1c1.2,0,2.3-0.1,3.6-0.1c-0.1-1.5-0.2-3-0.3-4.5
			c-2.6,0-5-0.1-7.2-0.1c-0.2-0.3-0.3-1.1-0.3-2.4C737.2,4.4,737.4,3.5,737.6,2.6L737.6,2.6z M755.5,12c-0.1-1.4-0.2-2.8-0.2-4.2
			c-1.8,0-3.4,0-5-0.1c0.1,1.4,0.2,2.8,0.3,4.3C752.2,12,753.8,12,755.5,12L755.5,12z"/>
		<path class="st0" d="M798,8.2c6.4,0.3,12.7,0.5,19,0.8c2.1-3,4.2-6,6.3-9.1c1.6,0.7,3.1,1.6,4.5,2.6c-1.4,2.3-2.8,4.6-4.3,6.9
			c8.2,0.4,16.4,0.9,24.5,1.4c0.3,0.9,0.5,1.9,0.5,2.9c0,0.9-0.2,1.8-0.5,2.7c-9.6-0.1-19.1-0.4-28.5-1c-1,1.5-2,3-3,4.4
			c-2.6,4.3-5,8-7.1,10.9c-1,1.6-2,3-2.9,4.2c-0.8,1.2-1.7,2.3-2.7,3.2c-2-0.6-3.4-1.6-4.3-3.2c2.2-3.2,6-8.9,11.4-16.9
			c0.7-1,1.3-2,2-3c-5-0.3-9.9-0.8-14.8-1.2c-0.3-1.1-0.5-2.1-0.5-3C797.6,10.1,797.8,9.1,798,8.2L798,8.2z M815.9,26.8
			c1.2,0,2.2,0,3,0.1c0,1.6,0.1,3.1,0.1,4.7c0.9,0,1.9-0.1,3.1-0.1c4.1,0,7.3,0.1,9.6,0.5c0.1,0.7,0.2,1.5,0.2,2.4v2.1
			c-2.1,0.1-5.4,0.1-10,0.1c-1.1,0-2.1,0-2.8-0.1v3.2c0.9,0,1.9-0.1,3-0.2c4.2,0,7.5,0.2,9.8,0.7c0.2,0.7,0.3,1.5,0.3,2.3v2.1h-10.4
			c-1,0-1.9,0-2.7-0.1c0,2.7,0.1,5.4,0.1,8c-0.7,0.3-1.7,0.4-3,0.4c-1.1,0-1.9,0-2.6-0.1c-0.4-8.4-0.7-17-0.8-25.7
			C813.6,27,814.7,26.9,815.9,26.8L815.9,26.8z M821.6,22.1c7.3,0,13.8,0.4,19.7,1.2c1.7,10.3,2.6,20,2.6,29
			c-2.4,0.4-5.6,0.7-9.8,0.7c-0.5-1.5-0.7-2.7-0.7-3.8c1.5-0.2,2.9-0.4,4.2-0.7c-0.5-6.5-1.1-13.1-2-19.7c-4.7-0.4-9.4-0.9-14.1-1.4
			c-0.2-0.6-0.3-1.6-0.3-2.9C821.3,23.8,821.4,23,821.6,22.1L821.6,22.1z"/>
	</g>
</g>
</svg>
