<?xml version="1.0" encoding="utf-8"?>
<!-- Generator: Adobe Illustrator 27.0.0, SVG Export Plug-In . SVG Version: 6.00 Build 0)  -->
<svg version="1.1" id="_圖層_2" xmlns="http://www.w3.org/2000/svg" xmlns:xlink="http://www.w3.org/1999/xlink" x="0px" y="0px"
	 viewBox="0 0 1190.1 254.7" style="enable-background:new 0 0 1190.1 254.7;" xml:space="preserve">
<style type="text/css">
	.st0{fill:#FFFFFF;}
</style>
<g id="_圖層_1-2">
	<g>
		<path class="st0" d="M16.4,14.7h8.8V20h-8.8v1.7c2.5,1.9,7.2,6.2,8.5,7.4L21.6,34c-1.2-1.5-3.3-3.8-5.2-5.9v17.5h-5.9V28.4
			c-2.2,4.4-4.7,8.4-7.3,11.2c-0.6-1.8-2.1-4.2-3-5.7C3.6,30.5,7.2,25,9.5,20H1.2v-5.3h9.2v-6C7.7,9.2,5,9.7,2.4,10
			c-0.2-1.3-1-3.3-1.7-4.5c7.1-1.1,14.9-2.9,19.7-5l4.1,4.4c-2.4,1-5.2,1.8-8.1,2.5L16.4,14.7L16.4,14.7z M33.8,33.3H28V6.2h5.8
			V33.3L33.8,33.3z M44.2,1.1v37.3c0,3.5-0.7,5-2.7,5.9c-2,1-5.2,1.2-9.8,1.2c-0.2-1.7-1.1-4.4-2-6c3.2,0.2,6.4,0.2,7.4,0.2
			c0.9,0,1.3-0.3,1.3-1.3V1.1H44.2z"/>
		<path class="st0" d="M93.9,38.8c0,3.1-0.7,4.7-2.7,5.5c-2,1-5,1.1-9.4,1c-0.2-1.5-1.1-4-1.9-5.5c2.7,0.2,6,0.1,6.9,0.1
			c0.9,0,1.3-0.3,1.3-1.2v-7.3H77.7V45h-5.9V31.5h-10c-0.9,5.3-2.7,10.6-6.2,14.4c-0.9-1.1-3.3-3.1-4.6-3.7
			c5.3-5.8,5.8-14.5,5.8-21.3V3.5h37L93.9,38.8L93.9,38.8z M71.9,26v-6h-9.2v0.9c0,1.5,0,3.3-0.2,5.1C62.5,26,71.9,26,71.9,26z
			 M62.7,9v5.6h9.2V9H62.7z M88.1,9H77.7v5.6h10.3V9z M88.1,26v-6H77.7v6H88.1z"/>
		<path class="st0" d="M129.8,19.3c3.2,9.5,9.2,17.1,18.3,20.8c-1.5,1.2-3.4,3.8-4.3,5.4c-8.9-4.1-14.6-11.2-18.4-20.6
			c-2.7,8.1-7.9,15.7-18.3,20.6c-0.9-1.6-2.7-3.7-4.4-4.9c11.2-5,15.9-13,17.8-21.4h-16.8v-6h17.8c0.5-4.6,0.4-9,0.5-13h6.4
			c-0.1,4-0.1,8.4-0.6,13H147v6L129.8,19.3L129.8,19.3z"/>
		<path class="st0" d="M198.2,38.7v5.3h-44.1v-5.3h19.1v-3.9H159v-5.2h14.2v-3.1h-3.6v-9.3H165c-0.8,4-2.8,8-7.7,10.6
			c-0.7-1.1-2.8-3.2-3.8-4c3.6-1.8,5.2-4.2,6-6.6h-4.9v-5.1h5.5V7h-3.9V2h22.2V7H175v5.1h4.6v5.1H175v8.5h4.2v3.9h14.2v5.2h-14.2
			v3.9H198.2L198.2,38.7z M169.5,12.1V7h-4.1v5.1L169.5,12.1L169.5,12.1z M187,19.5h-5.3V3.1h5.3V19.5z M196.1,21.5
			c0,2.7-0.5,4-2.4,4.9c-1.8,0.8-4.3,0.9-7.7,0.9c-0.2-1.5-1-3.7-1.7-5.1c2.2,0.1,4.6,0.1,5.3,0c0.7,0,0.9-0.2,0.9-0.8V0.8h5.5
			L196.1,21.5L196.1,21.5z"/>
		<path class="st0" d="M240.9,27.8c2.6,2.3,6,4.4,9.6,5.6c-1.3,1-3,3.1-3.9,4.5c-2.6-1.2-5.3-3-7.7-5.1v3.6H230v3.2h16v4.8h-37.3
			v-4.8h15.4v-3.2h-8.7v-3c-2.4,2-5.1,3.7-7.8,5c-0.8-1.4-2.5-3.4-3.7-4.4c3.6-1.3,7.2-3.5,9.9-6.1h-9.5v-4.7h9.4V8.6H207V4h6.8V0.3
			h5.8V4h15.3V0.3h6V4h6.7v4.7h-6.7v14.5h9.1v4.7L240.9,27.8L240.9,27.8z M237.9,31.8c-1.3-1.3-2.5-2.6-3.5-4h-13.8
			c-1,1.4-2.2,2.8-3.5,4h7.1v-3h5.9v3H237.9z M219.5,8.6v2.1h15.3V8.6H219.5z M219.5,16.9h15.3v-2.1h-15.3V16.9z M219.5,23.1h15.3
			v-2.2h-15.3V23.1z"/>
		<path class="st0" d="M262.6,39.8v3.6h-4.2V27.3c-0.7,1.2-1.5,2.2-2.2,3.2c-0.2-1.5-1.2-4.9-2-6.5c3-4,5-9.9,6.3-16.4h-4.6V2.4
			h14.8v5.2h-5c-0.7,3.3-1.6,6.6-2.6,9.8h7.2v22.3L262.6,39.8L262.6,39.8z M266.4,22.5h-3.7v12.2h3.7V22.5z M288.2,39.7
			c1,0.1,2,0.1,3.1,0.1c1.6,0,8.1,0,10.2,0c-0.6,1.1-1.3,3.5-1.6,4.8h-9c-6.1,0-10.7-1.1-13.9-5.7c-1,2.7-2.5,5.1-4.9,6.9l-3.9-3.6
			c3.9-2.9,5.3-8.1,5.9-14.1l4.9,0.8c-0.1,1.4-0.3,2.7-0.5,4c1.1,2.6,2.5,4.3,4.4,5.2V26.9h-11.7v-4.7h25L297,22l3.8,1.2
			c-0.8,2.6-2,5.6-2.9,7.6l-4.4-1.5c0.2-0.6,0.5-1.5,0.8-2.4h-6.1v4h10.9v4.6h-10.9L288.2,39.7L288.2,39.7z M276.6,14.8
			c-1.3,2.1-2.8,4.2-4.3,5.6c-0.5-1.1-1.5-2.9-2.4-3.8c2-1.6,4-4.4,5.2-7.2h-3.6V5h5V0.4h4.5V5h4.1v4.4h-4c1.2,1.1,4.2,4,4.9,4.8
			l-2.7,3.4c-0.5-0.8-1.3-2-2.2-3.2v6.8h-4.5L276.6,14.8L276.6,14.8z M290.6,16.1c-1.2,1.9-2.5,3.6-4,4.8c-0.5-1-1.5-2.8-2.3-3.7
			c2.2-1.6,4.4-4.6,5.7-7.8h-3.9V5h4.5V0.4h4.6V5h5.4v4.4H296c1.7,1.8,4.8,5.2,5.5,6.2l-3.2,3.9c-0.6-1.4-1.9-3.6-3.2-5.5v7.2h-4.6
			L290.6,16.1L290.6,16.1z"/>
		<path class="st0" d="M321.9,31.3c-0.7-1.5-1.9-3.9-3.1-6.1v20.4h-5.5V27.1c-1.4,4-3.1,7.6-5,10.1c-0.5-1.7-1.8-3.9-2.7-5.3
			c3-3.9,5.8-10.5,7.1-16.3h-5.9v-5.3h6.4V0.3h5.5v9.9h5.5v5.3h-5.5v2.7c1.4,1.7,5.5,7.2,6.4,8.6L321.9,31.3z M350.7,16.3
			c-1.2,7.7-3.6,13.9-6.9,18.8c2.4,2.5,5.2,4.5,8.6,5.8c-1.3,1.1-3,3.3-3.9,4.8c-3.2-1.5-5.9-3.6-8.3-6.2c-2.4,2.4-5,4.4-7.9,6
			c-0.8-1.4-2.2-3.5-3.5-4.5c2.9-1.4,5.6-3.4,7.9-6c-2.1-3.1-3.7-6.7-5-10.7c-0.6,7.3-2.2,15.5-6.7,21.1c-1-1-3.3-2.8-4.6-3.5
			c5.5-7.2,6-17.7,6-25.3V3.2H351v5.3h-19v6.9h14.1l1-0.2L350.7,16.3L350.7,16.3z M335.8,20.6c1,3.6,2.5,6.9,4.4,9.9
			c1.7-2.9,3.1-6.3,4.1-9.9H335.8z"/>
		<path class="st0" d="M373.4,18.9c1.3,3.2,2.6,7.5,3.1,10.1l-4.4,1.5c-0.1-0.7-0.2-1.5-0.4-2.2c-9.9,1.4-11.7,1.8-12.8,2.3
			c-0.3-1.1-1.1-3.6-1.8-5.1c1.3-0.3,2.3-1.4,3.9-3.1c0.6-0.7,1.9-2.1,3.2-4.1c-3.9,0.4-5,0.7-5.7,1.1c-0.3-1.1-1.1-3.5-1.7-4.9
			c1-0.2,1.8-1.2,2.8-2.6c1.1-1.4,4.3-6.8,6.1-11.9l5.1,2.1c-1.9,4-4.4,8.2-6.9,11.7l3.5-0.2c1.2-1.9,2.4-4.1,3.4-6.1l4.8,3
			c-2.8,4.9-6.4,9.9-10.1,14l5-0.5c-0.3-1.3-0.8-2.6-1.2-3.7L373.4,18.9L373.4,18.9z M363.5,32.9c-0.4,4.4-1.2,9-2.2,12
			c-1-0.5-3.2-1.2-4.4-1.5c1.1-2.8,1.7-7.2,2-11.2L363.5,32.9L363.5,32.9z M368.7,32c0.7,3.5,1.3,8,1.5,11l-4.4,0.9
			c-0.1-3-0.6-7.6-1.2-11.1L368.7,32L368.7,32z M373.7,30.6c1.1,3.1,2.3,6.9,2.7,9.5l-4.1,1.4c-0.4-2.6-1.6-6.6-2.5-9.6L373.7,30.6
			L373.7,30.6z M391.8,11.6v5.5h9.3v5.3h-23.8v-5.3h8.5v-5.5h-9.9V6.2h9.9v-6h6v6h10.4v5.3C402.2,11.6,391.8,11.6,391.8,11.6z
			 M378.2,26.1h21.7v19.3h-5.7v-1.9h-10.6v2.1h-5.4L378.2,26.1L378.2,26.1z M383.6,31.3v7h10.6v-7C394.2,31.3,383.6,31.3,383.6,31.3
			z"/>
		<path class="st0" d="M436.5,2.7c-0.5,0.7-1.1,1.5-1.6,2.1c6.3,5.8,12.8,9.1,19.4,11.5c-1.5,1.4-3.2,3.5-4,5.3
			c-2.4-1.1-4.8-2.3-7-3.6v3.1h-24.5v-2.4c-2.2,1.3-4.4,2.5-6.6,3.5c-0.9-1.6-2.6-3.8-4.3-5.3c9-3.5,18.3-9.4,23.4-17L436.5,2.7
			L436.5,2.7z M415.6,25.3h31.6v20H441v-1.9h-19.4v2.1h-6V25.3z M421.6,30.4v7.7H441v-7.7H421.6z M439.9,15.9
			c-2.8-1.9-5.6-4.1-8.5-6.9c-2.5,2.6-5.2,4.9-8.1,6.9L439.9,15.9L439.9,15.9z"/>
		<path class="st0" d="M474.6,25.8l1.3,5.1c-5.1,2.5-10.6,5.1-15,7.1l-2.4-5.8c1.8-0.6,4-1.4,6.4-2.4V16.9h-5.3v-5.5h5.3V0.9h5.4
			v10.5h4.6v5.5h-4.6v10.6L474.6,25.8z M496.5,39.5c2.6,0,3.1-1.1,3.6-6.1c1.3,0.9,3.5,1.8,5.1,2.1c-0.8,6.8-2.5,9.1-8.2,9.1h-10.4
			c-6.6,0-8.5-1.8-8.5-8.4V23.7l-2.6,1.1l-2.2-5.1l4.8-2V4.9h5.6v10.4l4.1-1.7V0.2h5.4v11.1l5.3-2.3l4.4,1.4l-0.2,0.9
			c-0.3,6.8-1,15.6-2.2,21.4l-4.8-1.3c0.5-3.9,0.9-10.1,1.1-15.8l-3.8,1.6v17.1h-5.4V19.6l-4.1,1.8v15c0,2.8,0.4,3.2,3.4,3.2
			L496.5,39.5L496.5,39.5z"/>
		<path class="st0" d="M528.1,34.8c-3.4,3.9-9.1,7.5-14.5,9.4c-0.9-1.4-2.6-3.6-3.9-4.7c5.1-1.3,10.7-3.9,13.7-6.7
			C523.5,32.9,528.1,34.8,528.1,34.8z M517.5,13.5c-1.7-1.1-5-2.5-7.6-3.3l2.3-3.7c2.5,0.6,5.9,1.9,7.7,2.9L517.5,13.5L517.5,13.5z
			 M535.7,32.4v13.2h-5.9V32.4H511v-5h18.8v-3.6h5.9v3.6h18.9v5H535.7z M511.5,22.7c2.2-2.2,5.2-5.9,7.8-9.4l3.8,3
			c-2.3,3.2-4.9,6.6-7.3,9.6L511.5,22.7L511.5,22.7z M521.3,7.4c-1.7-1.1-5.1-2.5-7.8-3.2l2.2-3.7c2.5,0.7,6,1.9,7.8,3L521.3,7.4
			L521.3,7.4z M524.7,7.5c2.2,1,4.9,2.3,7.1,3.7c0.4-1.3,0.8-2.7,1-4.3h-6.5V2h21.3c0,0,0,1.5,0,2.1c-0.1,1.9-0.2,3.6-0.2,5.2
			c2.7,2.3,6.4,5.5,8.2,7.4l-3.8,3.5c-1.1-1.4-2.9-3.2-4.9-5c-0.4,4-0.9,6-1.7,7c-0.9,1.2-1.9,1.6-3.1,1.8c-1.1,0.2-2.9,0.2-4.9,0.1
			c0-1.4-0.5-3.4-1.3-4.7c1.4,0.1,2.7,0.2,3.2,0.2c0.6,0,1-0.1,1.4-0.6c0.6-0.8,1.1-4,1.5-12.1h-3.5c-1.5,9.2-5.6,14.7-13.1,18.1
			c-0.7-1-2.8-3.2-3.9-4.1c3.6-1.3,6.2-3.1,8.1-5.5c-2.2-1.5-4.9-3.1-7.2-4.2L524.7,7.5L524.7,7.5z M541.9,32.6
			c4.4,2.1,10.5,5.4,13.6,7.8l-4.4,3.7c-2.8-2.3-8.8-5.9-13.3-8.2L541.9,32.6L541.9,32.6z"/>
		<path class="st0" d="M46,99.6h-5.5v8.7c0,2.8-0.4,4.3-2.3,5.2c-1.8,0.8-4.5,1-8,1c-0.2-1.7-0.9-4-1.7-5.6c2.4,0.1,4.8,0.1,5.5,0.1
			c0.8,0,1-0.2,1-0.8v-8.7h-9.6c2.2,2.2,4.6,5.3,5.7,7.4l-4.8,2.9c-1-2.2-3.4-5.5-5.6-7.9l4.3-2.4h-6.8v-5.1h2.1
			c-0.6-1.2-1.7-2.6-2.5-3.4c4.8-1.2,9.3-3.2,13.1-5.9c-1.2-1.8-3-3.7-4.9-5.4c-1.9,1.2-3.9,2.4-5.9,3.3c-0.7-1-2.4-2.6-3.5-3.4
			v35.5h-5.3V98.7H8v0.1c0,4-0.5,11.5-3.7,16.5c-1-0.9-3.1-2.2-4.3-2.8C2.6,108.2,3,102.1,3,98.7H0.5v-5h10.8v-5.3H2.5V71.7h5.1
			v11.7h3.8V69.8h5.3v9.7c5.5-2.1,10.4-6.1,13.2-9.8l5.7,1.5c-0.7,0.8-1.4,1.6-2.2,2.4h7.1l0.9-0.2l3.6,1.7
			c-3.9,10.2-12.3,16.1-22,19.4h12v-5.9h5.5v5.9H46L46,99.6L46,99.6z M27.7,86.4c-3.1,0.7-6.3,1.3-9.1,1.8l-0.9-4
			c2.5-0.3,6-0.9,9.6-1.6L27.7,86.4L27.7,86.4z M29.9,77.5c1.7,1.5,3.3,3.1,4.5,4.6c1.4-1.4,2.6-2.9,3.5-4.6H29.9L29.9,77.5z"/>
		<path class="st0" d="M66.9,86.7c-0.6,7.1-1.9,13-3.8,17.6c4.5,3.8,10.6,4.7,17.8,4.7c2.8,0,13,0,16.3-0.2
			c-0.8,1.2-1.7,3.7-2.1,5.3H80.7c-8.2,0-14.9-1.1-20-5.2c-1.5,2.5-3.3,4.5-5.4,6.1c-0.8-1.1-3-3.1-4.2-3.8c2.3-1.6,4.3-3.7,5.8-6.4
			c-1.7-2.5-3.1-5.6-4.3-9.4l4.3-1.4c0.6,2.2,1.5,4.1,2.4,5.6c0.9-2.5,1.5-5.3,1.9-8.6h-7.8c2-3.6,4.5-8.8,6.5-13.6h-7.2v-5h15.1
			c-1.9,4.4-4.2,9.5-6.2,13.6h1.2l1-0.1L66.9,86.7L66.9,86.7z M77.2,77.9h-8.3v-4.4h8.3v-3.6h5.5v3.6h10.7V80h2.7v4.4h-2.7v6.5H82.7
			v2.3h11.2v4.2H82.7v2.4h12.8v4.6H82.7v3.3h-5.5v-3.3H66.4v-4.6h10.8v-2.4h-8.9v-4.2h8.9v-2.3h-8.6v-4.4h8.6v-2.1h-11V80h11
			C77.2,80,77.2,77.9,77.2,77.9z M82.7,77.9V80h5.6v-2.1H82.7z M88.3,84.5h-5.6v2.1h5.6V84.5z"/>
		<path class="st0" d="M147.7,76.7h-8.5c1,1,2,2,2.6,2.8l-4.1,2.8h3.3v9.2c0,0.8-0.1,1.3,0.1,1.4c0.1,0.2,0.3,0.2,0.5,0.2h0.7
			c0.2,0,0.4-0.1,0.6-0.1c0.1-0.1,0.3-0.3,0.4-0.9s0.1-1.8,0.2-3.4c0.9,0.8,2.5,1.6,3.8,2c-0.1,1.8-0.3,3.8-0.6,4.7
			c-0.4,0.8-0.9,1.4-1.6,1.8c-0.7,0.3-1.7,0.5-2.6,0.5h-2.4c-1.2,0-2.5-0.4-3.3-1.2c-0.7-0.8-1.1-1.7-1.2-4.1l-1.9,3.5
			c-0.9-0.5-2.1-1.1-3.4-1.8c-0.6,1-1.6,1.8-2.8,2.6h0.6v2.8h19.4v4.5h-12.9c4,1.7,9.6,4.2,12.5,6.2l-4.2,3.9
			c-2.6-2-8.2-4.8-12.4-6.7l3.9-3.4h-6.3v11h-5.7v-11h-19.3v-4.5h19.3v-2.8h0.7c-0.6-0.6-1.3-1.2-1.9-1.5v0.2
			c-6,0.8-12.3,1.6-17.1,2.2l-0.6-4.6c1.9-0.2,4.2-0.4,6.6-0.7v-5.9H104v-4h12.2c-0.9-1.4-2.6-3.1-3.8-4.4l1.9-1.5h-3.3
			c-1.6,2-3.2,3.7-4.8,5.1c-0.8-1.1-2.7-3-3.9-4c3-2.1,5.8-5.2,7.3-8.4l5.1,1.6c-0.2,0.5-0.5,1-0.8,1.5h10.7v4.3h-7.2
			c1.2,1.2,2.3,2.4,2.9,3.2l-3.2,2.6h3.9v4h-5.8v5.3c1.9-0.2,3.8-0.5,5.6-0.7l0.2,3.7c2.3-0.9,3.8-1.8,4.7-2.9
			c-1.4-0.7-2.8-1.4-4-1.9l2.1-3.2c1.1,0.4,2.2,1,3.5,1.5c0.1-0.2,0.1-0.5,0.1-0.8v-1.5h-4.6v-3.8h14.8c-0.8-1.3-2.5-3.1-3.8-4.4
			l1.8-1.2h-3.8c-1.4,2-2.8,3.7-4.3,5.1c-1-0.9-3.1-2.6-4.4-3.4c2.8-2.2,5.3-5.5,6.7-9l5.2,1.4c-0.2,0.6-0.5,1.1-0.7,1.7h13.6
			L147.7,76.7L147.7,76.7z M120.4,106.2c-3,3.8-8.2,6.9-13.5,8.4c-0.9-1.4-2.6-3.6-3.9-4.8c4.9-1,9.9-3,12.6-5.4
			C115.6,104.4,120.4,106.2,120.4,106.2z M132.2,87.8c0,0.9-0.1,1.8-0.2,2.7c1.4,0.7,2.6,1.4,3.6,1.9v-6.2h-3.4L132.2,87.8
			L132.2,87.8z"/>
		<path class="st0" d="M172.5,96.2c-1.8,0.5-3.5,1.1-5.3,1.6v17.3h-5.3V99.4c-2.6,0.8-5.1,1.6-7.4,2.1l-1.4-5.5
			c2.4-0.5,5.4-1.3,8.8-2.2v-9.3h-3.3c-0.5,2.4-1.1,4.5-1.8,6.2c-0.9-0.7-3-2-4.1-2.7c1.5-3.8,2.4-9.9,2.8-15.6l4.9,0.8
			c-0.2,1.9-0.4,3.8-0.7,5.8h2.3v-9.3h5.3v9.3h4.1v5.5h-4.1v7.8l4.5-1.3L172.5,96.2L172.5,96.2z M198.9,77.3c0,0-0.1,1.9-0.1,2.6
			c-0.9,21.7-1.8,29.6-3.7,32c-1.1,1.7-2.2,2.2-3.8,2.5c-1.4,0.2-3.4,0.2-5.5,0.2c-0.1-1.7-0.7-4-1.6-5.6c1.8,0.2,3.4,0.2,4.4,0.2
			c0.7,0,1.2-0.2,1.8-0.9c1.2-1.6,2.1-8.2,2.9-25.6h-0.2c-2.4,12.2-7.4,24.8-15.3,31.3c-1.1-1.1-3.1-2.5-4.8-3.3
			c7.8-5.6,12.7-16.6,15.2-28h-2.3c-2.2,7.9-6.3,16.6-11.2,21.3c-1.1-1.1-2.9-2.4-4.5-3.2c4.9-3.8,8.7-11,10.8-18h-2.5
			c-1.4,3.3-3.1,6.4-5.1,8.7c-0.9-0.9-3.2-2.5-4.4-3.2c3.9-4.2,6.6-11.2,8-18.3l5.3,1c-0.5,2.2-1.1,4.4-1.8,6.6L198.9,77.3
			L198.9,77.3z"/>
		<path class="st0" d="M212.5,98.1c-0.4,6.1-1.4,12.7-4.2,17.2c-1-1-3.5-3-4.8-3.6c3.1-5.6,3.3-13.7,3.3-20.1V74.1h0.1
			c5.8-0.7,12.4-1.9,16.6-3.4l3.7,4.9c-4.3,1.4-9.6,2.3-14.6,2.9v3.4h12.6v16.2L212.5,98.1L212.5,98.1z M212.7,87v5.9h7V87H212.7z
			 M250,91.5h-4.5v23.2h-5.8V91.5h-5.1c-0.2,7.7-1.9,17.7-8.7,23.7c-0.9-1.1-3.3-3.2-4.6-3.9c6.8-6,7.4-15.1,7.4-22V74.2
			c6-0.8,12.6-2.2,16.9-3.8l3.8,5c-4.3,1.5-9.6,2.5-14.6,3.2v7.4H250L250,91.5L250,91.5z"/>
		<path class="st0" d="M273.6,81c-0.5,1.3-1.2,2.6-2,3.8h22.8v24c0,2.9-0.5,4.4-2.5,5.3c-1.9,0.9-4.7,1-8.7,1c-0.2-1.6-1-4-1.8-5.6
			c2.5,0.2,5.3,0.2,6.2,0.2c0.8-0.1,1.1-0.3,1.1-1v-2.9h-18.4c-0.8,3.6-2.4,7.2-5.4,9.7c-0.8-1.2-3-3.6-4.2-4.4
			c4.2-3.6,4.6-8.8,4.6-13.3v-3.9c-1.9,1.9-3.8,3.7-6.1,5.3c-0.9-1.3-2.7-3.4-3.8-4.5c5-3.2,8.9-8.2,11.8-13.5h-10.6v-5.4h13.1
			c0.8-2,1.4-3.9,2-5.9l6,1.4c-0.5,1.5-1,3-1.6,4.5h23.9V81L273.6,81L273.6,81z M288.7,101v-3.2h-17.6c0,1,0,2-0.1,3.2H288.7z
			 M288.7,89.9h-17.6V93h17.6V89.9z"/>
		<path class="st0" d="M321.6,99.3c-0.6-1.6-1.7-3.8-2.8-6.1v21.8h-5.6V96.4c-1.3,4-2.8,7.5-4.6,9.9c-0.5-1.6-1.9-4.3-2.7-5.8
			c2.9-3.8,5.6-10.6,7-16.5h-6.1v-5.3h6.4v-9h5.6v9h5.2v5.3h-5.2v2c1.7,2,5.5,7.7,6.4,9.1L321.6,99.3L321.6,99.3z M351.9,108.5v5.2
			h-28.7v-5.2h12.1V98h-9.5v-5.1h9.5V84H325v-5.2h11.5c-0.5-2-1.9-5.1-3.2-7.3l5.2-1.8c1.4,2.3,3,5.4,3.6,7.5l-4.6,1.6h13.6V84h-9.5
			v8.9h9V98h-9v10.4L351.9,108.5L351.9,108.5z"/>
		<path class="st0" d="M376.7,108.5c-6.5,1.8-13.5,3.6-18.8,5l-1.3-5.4l2.2-0.5V91.1h4.6v15.4l2.5-0.5V87.6h-7v-16h17.4v16h-5.3v5.2
			h5.1v5h-5.1v7.1c1.7-0.4,3.3-0.8,5-1.3L376.7,108.5L376.7,108.5z M364,82.7h7.2v-6.3H364V82.7z M402.6,98.5
			c-2.2,1.8-4.8,3.6-6.9,5c1.9,2.7,4.3,4.9,7.2,6.4c-1.2,1.1-2.8,3.4-3.7,5c-6.8-4-10.4-11.5-12.6-20.9h-3.1v13.6l7-1.5
			c0,1.7,0,4,0.2,5.2c-9.6,2.4-11.5,3.2-12.6,3.9c-0.4-1.3-1.6-3.5-2.5-4.5c1-0.6,2.2-1.9,2.2-4.2V71.8h22.2V94h-8.7
			c0.5,1.9,1.1,3.7,1.9,5.4c2-1.5,4.2-3.4,5.6-4.9L402.6,98.5L402.6,98.5z M383.6,76.7v3.7h11.3v-3.7H383.6z M383.6,89h11.3v-3.9
			h-11.3V89z"/>
		<path class="st0" d="M417.8,70.1h4.9v45h-4.9V98.5h-2.5V99c0,3.9-0.5,11.3-3.5,16.1c-0.9-0.7-2.9-1.8-4.1-2.4
			c2.5-4.2,2.9-10.4,2.9-13.8v-0.4h-2.6v-4.8h9.8v-4.9H410V72.1h4.9v11.6h2.9L417.8,70.1L417.8,70.1z M453.8,88.9v4.7H424v-4.7h3.3
			c-0.8-0.8-2.1-2.1-2.9-2.6c2.7-1.8,4.3-4.7,4.9-8l4.3,0.6c-0.2,1.2-0.5,2.3-0.9,3.3c1.2,1.1,2.5,2.3,3.2,3.2l-2.5,3.1
			c-0.5-0.8-1.5-1.8-2.4-2.7c-0.8,1.2-1.8,2.3-2.9,3.2h8.2V78.1h-10.6v-4.6h10.6v-3.7h5.2v3.7h11.1v4.6h-11.1v7.7
			c2.3-1.8,3.4-4.4,3.8-7.5l4.4,0.4c-0.1,1.1-0.4,2.1-0.7,3c1.8,1.4,3.8,3.1,4.8,4.3l-2.7,2.9L453.8,88.9L453.8,88.9z M426.5,95.3
			h25.2V115h-5.4v-1.2h-14.6v1.3h-5.1L426.5,95.3L426.5,95.3z M431.7,99.1v10.7h14.6V99.1C446.3,99.1,431.7,99.1,431.7,99.1z
			 M444.3,108.2h-10.8v-7.5h10.8V108.2z M440.9,103.4h-4.1v2.1h4.1V103.4z M441.4,88.9h2.6c-0.5-0.7-1.8-1.9-2.6-2.5V88.9z
			 M450.7,88.9c-0.8-1-2.1-2.2-3.4-3.4c-0.8,1.3-1.9,2.5-3,3.4H450.7z"/>
		<path class="st0" d="M503.5,77.2c0,0,0,1.9,0,2.6c-0.6,21.7-1.2,29.4-3.2,32c-1.4,1.8-2.7,2.3-4.7,2.7c-1.9,0.2-4.8,0.2-7.7,0.1
			c-0.1-1.6-0.9-4-1.9-5.6c3.1,0.3,6,0.3,7.3,0.3c1,0,1.5-0.2,2.2-0.8c1.4-1.6,2.1-8.8,2.6-26h-10.5c-1.3,2.9-2.8,5.6-4.3,7.7
			c-0.8-0.7-2.5-1.8-3.8-2.7v22.7h-13.1v3.5h-5.3V77.6h5.5c0.6-2.4,1.2-5.5,1.4-7.8l6.4,0.9c-0.8,2.4-1.7,4.8-2.5,6.9h7.6v7.9
			c2.8-4.1,5.2-9.9,6.6-15.6l5.5,1.3c-0.5,2.1-1.2,4.1-1.9,6.2L503.5,77.2L503.5,77.2z M474.2,82.6h-7.8v7.9h7.8V82.6z M474.2,105
			v-9.5h-7.8v9.5H474.2z M490.4,102.4c-1.4-2.9-4.4-7.7-6.8-11.2l4.6-2.6c2.5,3.3,5.7,8,7.2,10.8L490.4,102.4L490.4,102.4z"/>
		<path class="st0" d="M550.3,76.8c-2.8,4.4-6.7,8.2-11.3,11.3c5.2,2.3,11.1,4,17.3,4.9c-1.3,1.3-2.9,3.8-3.8,5.4
			c-1.6-0.3-3-0.7-4.6-1.1V115h-6.3v-1.6H524v1.8H518V97.3c-1.9,0.5-3.7,1-5.6,1.4c-0.6-1.6-1.8-3.9-2.8-5.2c6.1-1.1,12.4-3,18-5.5
			c-2.1-1.6-4.1-3.2-5.9-5.1c-2.2,2-4.6,3.7-6.9,5.2c-0.9-1.2-3.1-3.3-4.3-4.3c6.2-3.2,12.2-8.5,15.6-14.4l5.5,1.9
			c-0.7,1.1-1.4,2.2-2.2,3.2h15.5l1-0.3L550.3,76.8L550.3,76.8z M546.7,97c-4.8-1.4-9.4-3.2-13.5-5.5c-4.4,2.3-9.2,4.1-14,5.5H546.7
			z M541.7,108.3v-6.1H524v6.1H541.7z M525.6,79.3c2.1,2.1,4.7,4,7.5,5.7c2.9-1.8,5.4-3.6,7.5-5.7H525.6z"/>
		<path class="st0" d="M606.8,109.7v4.6h-29.6v-4.6h12.5v-2.2h-9.8v-4.4h9.8v-2.2h-9.4v-4.3L577,101c-0.6-1.3-1.8-3.2-2.9-4.9V115
			h-5.6V97.6c-1.6,3.7-3.4,7.2-5.3,9.6c-0.5-1.7-1.8-4-2.7-5.5c2.7-3.2,5.4-8.3,7.2-13h-6.2v-5.4h7v-5.6c-2.1,0.4-4.1,0.7-6,1
			c-0.3-1.3-1-3.2-1.6-4.4c5.4-0.9,11.4-2.3,15.2-4l3.9,4.4c-1.8,0.7-3.7,1.3-5.8,1.8v6.8h5.2v5.4H574v1.4c1.3,1.1,5.1,5,6.2,6.3
			V84.6h9.4v-2h-11v-4.5h11v-2c-3.2,0.2-6.3,0.2-9.3,0.3c-0.1-1.3-0.7-3.2-1.3-4.3c8-0.2,17.5-0.9,23.2-2l3.3,4.3
			c-3,0.6-6.7,1-10.4,1.3v2.4h10.5v4.5h-10.5v2h9.8v16.3h-9.8v2.2h9.8v4.4h-9.8v2.2L606.8,109.7L606.8,109.7z M585.2,91.1h4.4v-2.4
			h-4.4V91.1z M589.6,96.9v-2.5h-4.4v2.5H589.6z M595.2,88.7v2.4h4.5v-2.4H595.2z M599.7,94.5h-4.5v2.5h4.5V94.5z"/>
		<path class="st0" d="M655.4,88.3c-1.8,6.1-4.1,11.6-7.2,16.3c1,2.8,2.2,4.4,3.5,4.4c0.9,0,1.4-2,1.6-7c1.2,1.3,3.1,2.5,4.5,3.1
			c-0.8,7.6-2.5,9.6-6.6,9.6c-2.9,0-5-1.8-6.8-4.9c-1.8,2-3.7,3.8-5.8,5.4c-0.8-1.4-2.4-3.1-3.9-4.3h-6.3v4.3h-5.1v-4.3h-10.2v-4.1
			h10.2v-1.9h-8.5V93h8.4v-1.8h-9.5v-4h9.5V85h5.2v2.2h9.5v4h-9.5V93h8.3v11.8h-8.3v1.9h9.7v1.4c1.4-1.3,2.8-2.8,4.1-4.4
			c-1.4-5.1-2.2-11.9-2.7-19.2h-27V80h10.6v-2.6h-8.3V73h8.3v-3.2h5.6V73h7.8v4.4h-7.8V80h10.6c-0.1-3.3-0.2-6.8-0.2-10.2h5.9
			c-0.1,3.4-0.1,6.9,0,10.2H657v4.5h-11.7c0.2,4.6,0.6,8.8,1.2,12.3c1.5-3.1,2.8-6.4,3.8-10L655.4,88.3z M619,97.5h4.8v-1.7H619
			V97.5z M619,102h4.8v-1.8H619V102z M632.5,95.8H628v1.7h4.5V95.8z M632.5,100.2H628v1.8h4.5V100.2z M651.9,79.9
			c-1.1-2-3.6-4.9-5.7-7.1l4.4-2.7c2.1,1.9,4.8,4.8,6,6.8L651.9,79.9L651.9,79.9z"/>
		<path class="st0" d="M707.9,109.2v4.6h-44.4v-4.6h19v-2.6h-15.4v-4.3h15.4v-2.2h-13.8V84.7h13.8v-1.8h-18.7v-4.5h18.7v-2.1
			c-4.7,0.2-9.5,0.3-13.9,0.4c0-1.3-0.7-3.2-1.2-4.4c11.4-0.2,24.7-1.1,33-2.4l2.7,4.5c-4.3,0.7-9.4,1.2-14.7,1.6v2.5h19.2v4.5
			h-19.2v1.8h14.5v15.4h-14.5v2.2h16.4v4.3h-16.4v2.6L707.9,109.2L707.9,109.2z M674.3,90.7h8.1v-2.2h-8.1V90.7z M682.5,96.3v-2.2
			h-8.1v2.2H682.5z M688.4,88.5v2.2h8.6v-2.2H688.4z M696.9,94.1h-8.6v2.2h8.6V94.1z"/>
		<path class="st0" d="M779.7,100.4h6.2v4.4h-6.2v5c0,2.6-0.5,3.9-2.4,4.6c-1.9,0.7-4.5,0.7-8,0.7c-0.2-1.5-0.9-3.4-1.6-4.8
			c2.2,0.1,4.8,0.1,5.4,0.1c0.7-0.1,1-0.2,1-0.8v-4.8h-10.9c1.9,1.8,3.8,3.8,4.8,5.3l-4.6,2.9c-1.1-1.8-3.6-4.7-5.7-6.7l2.5-1.6
			h-6.8v-4.4h20.7v-2.1c-7.1,0.2-14,0.3-19.2,0.4l-0.5-4.3c3.5,0,7.9-0.1,12.8-0.1v-1.9h-10.8V79.1h10.8v-1.8h-12.8v-2.3
			c-1,2.2-2.1,4.5-3.3,6.7V115h-5.5V90.2c-1.1,1.4-2.2,2.7-3.3,3.9c-0.5-1.4-2.1-4.6-3.1-6c4.4-4.4,8.6-11.3,11.1-18.2l5.5,1.8
			l-0.5,1.4h12v-3h5.6v3h12.6v4.2h-12.6v1.8H784v13.3h-2.2c1.8,1.7,3.6,3.6,4.7,5.1l-4.2,2.3c-0.3-0.5-0.7-1-1.2-1.6l-1.5,0.1
			L779.7,100.4L779.7,100.4z M761.7,84.2h5.5v-2h-5.5V84.2z M767.2,89.2v-2h-5.5v2H767.2z M772.8,82.2v2h5.6v-2H772.8z M778.4,87.2
			h-5.6v2h5.6V87.2z M772.8,94.3l4.7-0.1c-0.6-0.6-1.2-1.1-1.7-1.6l0.4-0.2h-3.4V94.3L772.8,94.3z"/>
		<path class="st0" d="M803.3,92.4c-0.7,4.5-1.9,9.3-3.4,13.1c0.8,0.5,1.8,1.2,3.1,2c3.4,1.9,8.1,2.3,13.9,2.3s14.5-0.5,20-1.3
			c-0.6,1.5-1.5,4.2-1.6,5.7c-4,0.2-12.9,0.5-18.6,0.5c-6.6,0-10.8-0.5-14.5-2.5c-2.1-1.2-3.8-2.8-4.9-2.8c-0.9,0-2.2,3.3-3.2,6
			l-3.7-5.3c1.7-2.2,3.3-3.9,4.8-4.8c1-2.4,1.8-5.5,2.3-8.5h-5.3c0.9-2.9,2.1-6.8,3-10.5h-3.9v-5.1h10c-0.9,3.4-2,7.3-2.9,10.7h1.8
			l0.7-0.2L803.3,92.4L803.3,92.4z M796.1,79.7c-0.5-2.2-1.7-5.7-2.4-8.3l4.5-1.3c0.8,2.6,1.9,5.9,2.6,8.1L796.1,79.7L796.1,79.7z
			 M810.4,83.7c0,6.6-0.9,16.5-5.3,22.9c-0.6-1.1-2.4-3.2-3.3-3.8c3.6-5.6,3.9-13.4,3.9-19.1V72.6h0c8.8-0.4,18.8-1.5,24.4-2.9
			l4.4,3.6c-2.7,0.7-5.8,1.3-9,1.7v1.7h8.4v3.1h-8.4v1.6h6.6l0.7-0.2l3.4,0.9c-0.4,2-1.1,4.3-1.7,5.7l-3.7-1.1l0.2,2.4l-5.9,0.4
			c0,1,0.2,1.4,1,1.4h4.6c0.9,0,2.3-0.1,3.1-0.2c0.1,1.1,0.2,2.5,0.3,3.5c-0.7,0.2-2.1,0.3-3.3,0.3h-5.1c-3.8,0-4.8-1.4-4.8-4.7
			l-3,0.2l-0.2-3l3.2-0.2v-2h-3.9v3.8c0,5.9-1,14.4-6,19.9c-0.7-0.9-2.5-2.8-3.4-3.3c4.3-4.9,4.8-11.7,4.8-16.6v-7h8.2v-5.7
			c-3.5,0.4-7,0.7-10.4,0.9V83.7L810.4,83.7z M823.6,95.4c0,7.3-0.8,11.1-6.6,12.9c-0.3-1-1.5-2.6-2.3-3.4c4.1-1.4,4.4-3.7,4.4-9.5
			H823.6L823.6,95.4z M825.2,86.3l5.5-0.3c0.1-0.4,0.2-1,0.3-1.5h-5.8L825.2,86.3L825.2,86.3z M830.4,95.4v7c0,0.6,0,0.9,0.2,1.1
			c0.1,0.2,0.3,0.2,0.5,0.2h0.8c0.2,0,0.5-0.1,0.6-0.2c0.2-0.1,0.3-0.2,0.4-0.7c0.2-0.4,0.2-1.3,0.2-2.5c0.8,0.7,2.4,1.6,3.6,1.9
			c-0.2,1.4-0.3,2.8-0.7,3.3c-0.3,0.7-0.9,1.1-1.6,1.3c-0.6,0.3-1.5,0.4-2.2,0.4H830c-1,0-2.2-0.3-2.9-1c-0.7-0.7-1-1.6-1-4.2v-6.8
			L830.4,95.4L830.4,95.4z"/>
		<path class="st0" d="M862.2,87.9c0,0,0,1.6,0,2.3c-0.3,14.6-0.6,20-1.9,21.8c-0.9,1.4-1.9,1.8-3.2,2.1c-1.2,0.2-3,0.2-5,0.2
			c-0.1-1.6-0.7-3.8-1.5-5.2c1.4,0.1,2.7,0.2,3.4,0.2c0.6,0,1-0.2,1.4-0.7c0.6-1,1-4.8,1.2-15.3h-4.4c-0.6,9.1-2.2,16.6-6.4,21.8
			c-0.9-1.4-2.7-3.4-4.2-4.3c4.8-6.2,5.1-15.8,5.2-28.1H843v-5.3h8.6c-0.7-1.8-2-4.1-3.1-5.8l5.2-1.9c1.5,2,3.1,4.7,3.7,6.5
			l-3.1,1.3h9.2v5.3h-11c0,1.8,0,3.5-0.1,5.3L862.2,87.9L862.2,87.9z M878.7,71c-0.3,1.2-0.7,2.3-1.2,3.4c2.4,4.7,6.7,9.4,11.1,11.9
			c-1.4,1-3.2,3.2-4.2,4.6c-3.5-2.5-6.9-6.6-9.5-11c-2.5,4.6-5.8,8.4-9.9,11.3c-0.8-1.4-2.5-3.4-4-4.6c5.7-3.5,10-9.6,12.2-17.2
			L878.7,71L878.7,71z M869.6,101.2c4.6,2.3,10.9,6,14.1,8.6l-4.1,4.9c-2.8-2.7-9.1-6.7-13.7-9.3L869.6,101.2L869.6,101.2z
			 M877.5,99.2c-1.7-2-5.5-4.9-8.3-7l3.7-3.7c2.8,1.9,6.7,4.7,8.6,6.7L877.5,99.2L877.5,99.2z"/>
		<path class="st0" d="M929.7,97.3c2.6,2.3,6,4.4,9.5,5.6c-1.3,1-3,3.1-3.9,4.5c-2.7-1.2-5.3-3-7.7-5.1v3.6h-8.9v3.2h16v4.8h-37.3
			V109h15.4v-3.2h-8.7v-3c-2.4,2-5,3.7-7.8,4.9c-0.8-1.4-2.5-3.4-3.7-4.4c3.6-1.3,7.2-3.5,9.9-6.1h-9.5v-4.7h9.4V78.1h-6.8v-4.7h6.8
			v-3.6h5.8v3.6h15.3v-3.6h6v3.6h6.7v4.7h-6.7v14.5h9.1v4.7L929.7,97.3L929.7,97.3z M926.6,101.3c-1.3-1.3-2.5-2.6-3.5-4h-13.8
			c-1,1.4-2.2,2.8-3.5,4h7v-3h5.9v3H926.6z M908.2,78.1v2.1h15.3v-2.1H908.2z M908.2,86.3h15.3v-2.1h-15.3V86.3z M908.2,92.6h15.3
			v-2.2h-15.3V92.6z"/>
		<path class="st0" d="M951.3,109.2v3.6h-4.2V96.7c-0.7,1.2-1.5,2.2-2.2,3.2c-0.2-1.4-1.2-4.9-2-6.5c3-4,5-9.9,6.3-16.4h-4.7v-5.2
			h14.8v5.2h-5c-0.7,3.3-1.6,6.7-2.7,9.8h7.2v22.3L951.3,109.2L951.3,109.2z M955.1,92h-3.7v12.2h3.7V92z M976.9,109.1
			c1,0.1,2,0.1,3.1,0.1c1.6,0,8.1,0,10.2-0.1c-0.6,1.1-1.3,3.4-1.6,4.8h-9c-6.1,0-10.7-1.1-13.9-5.7c-1,2.7-2.5,5.1-4.8,6.9
			l-3.9-3.6c3.9-2.9,5.3-8.1,5.9-14.1l4.8,0.8c-0.2,1.4-0.3,2.7-0.5,4c1.1,2.6,2.5,4.3,4.4,5.2V96.3h-11.7v-4.7h25l0.8-0.2l3.8,1.2
			c-0.8,2.6-2,5.6-2.9,7.6l-4.4-1.4c0.2-0.6,0.5-1.5,0.8-2.4h-6.1v4h10.9v4.6h-10.9L976.9,109.1L976.9,109.1z M965.2,84.3
			c-1.3,2.1-2.8,4.2-4.3,5.6c-0.5-1.1-1.5-2.9-2.4-3.8c2-1.6,4-4.4,5.2-7.2h-3.6v-4.4h5v-4.6h4.5v4.6h4.1v4.4h-4
			c1.2,1.1,4.2,4,4.8,4.8l-2.7,3.4c-0.5-0.8-1.3-2-2.2-3.2v6.8h-4.5L965.2,84.3L965.2,84.3z M979.3,85.5c-1.2,1.9-2.5,3.6-4,4.8
			c-0.5-1-1.5-2.8-2.3-3.7c2.2-1.6,4.4-4.6,5.7-7.8h-3.9v-4.4h4.5v-4.6h4.6v4.6h5.4v4.4h-4.6c1.7,1.8,4.8,5.2,5.5,6.2l-3.2,3.9
			c-0.6-1.4-1.9-3.6-3.2-5.5v7.2h-4.6L979.3,85.5L979.3,85.5z"/>
		<path class="st0" d="M1004.4,79.5v8.4c0,7.9-0.7,19.8-5.1,27.4c-1.1-1-3.6-2.7-4.9-3.3c4.1-6.8,4.4-16.9,4.4-24.1V74.3h18.5
			c-0.4-1.2-0.9-2.5-1.5-3.5l5.9-1.3c0.9,1.5,1.7,3.2,2.2,4.8h16.3v5.2H1004.4L1004.4,79.5z M1029.1,97.6c1.3,6.7,3.3,11.3,5.2,11.3
			c0.9,0,1.3-2,1.5-6.2c1.2,1.2,3.1,2.2,4.5,2.7c-0.7,7.2-2.6,9-6.4,9c-5.3,0-8.9-7.1-10.6-16.8h-9.7v5.5l8.1-1.8
			c-0.1,1.6,0,3.7,0,4.9c-10.3,2.5-12.2,3.2-13.3,3.9c-0.3-1.3-1.3-3.6-2.1-4.6c0.9-0.5,1.7-1.4,1.7-3.3V83.4h0l0-0.1
			c9-0.3,19.2-1.1,25.3-2.5l4.1,4.2c-2.9,0.6-6.3,1.1-9.8,1.6c0.1,2,0.2,4,0.5,5.9h10.5v5.1L1029.1,97.6L1029.1,97.6z M1022.7,92.6
			c-0.2-1.8-0.3-3.5-0.4-5.4c-2.8,0.2-5.7,0.4-8.5,0.5v4.9L1022.7,92.6L1022.7,92.6z M1014.6,109.3h12.4v4.5h-12.4V109.3z"/>
		<path class="st0" d="M1071.2,77.9c-0.4,1.5-0.9,3-1.3,4.4h18.6v32.8h-5.9v-2.5h-28.3v2.5h-5.6V82.3h15.1c0.3-1.4,0.6-2.9,0.8-4.4
			h-17.9v-5.4h44.1V78L1071.2,77.9L1071.2,77.9z M1054.3,107.3h5V87.7h-5C1054.3,87.7,1054.3,107.3,1054.3,107.3z M1072.1,87.7h-7.5
			V91h7.5V87.7z M1072.1,95.5h-7.5v3.7h7.5V95.5z M1064.6,107.3h7.5v-3.6h-7.5V107.3z M1082.6,87.7h-5.3v19.7h5.3V87.7z"/>
		<path class="st0" d="M1112.3,95.2l1.3,5.1c-5.1,2.5-10.6,5.1-15,7.1l-2.3-5.8c1.8-0.6,4-1.4,6.4-2.4V86.4h-5.3v-5.5h5.3V70.4h5.4
			v10.5h4.6v5.5h-4.6V97L1112.3,95.2z M1134.2,109c2.7,0,3.1-1.1,3.6-6.1c1.3,0.9,3.5,1.8,5.1,2.1c-0.8,6.8-2.4,9.1-8.2,9.1h-10.4
			c-6.6,0-8.5-1.8-8.5-8.4V93.2l-2.7,1.1l-2.2-5.1l4.8-2V74.4h5.6v10.4l4.1-1.7V69.7h5.4v11.1l5.3-2.3l4.4,1.4l-0.2,0.9
			c-0.3,6.8-1,15.6-2.2,21.4l-4.8-1.3c0.5-3.9,0.9-10.1,1.1-15.8l-3.8,1.7v17.1h-5.4V89l-4.1,1.8v15c0,2.8,0.4,3.2,3.4,3.2
			L1134.2,109L1134.2,109z"/>
		<path class="st0" d="M1190.1,83h-7.6l3.2,0.8c-0.5,0.6-1,1.2-1.5,1.7h5.8v13.1h-30.7V85.5h6.1c-0.4-0.6-0.8-1.2-1.2-1.7l2.5-0.8
			h-8.4v2.9c0,8.4-0.8,20.9-5.8,28.9c-1.1-1-3.7-2.4-5.2-3c4.8-7.3,5.2-18.2,5.2-25.9V71.6h37.6L1190.1,83L1190.1,83z M1184.3,76
			h-25.9v2.6h25.9V76z M1161.5,100.1h26.9v15h-5.9v-1.4h-15.4v1.4h-5.6L1161.5,100.1L1161.5,100.1z M1164.8,95.4h7.2v-6.8h-7.2V95.4
			z M1168.7,88.9c1.1,1.3,2.3,3.2,2.8,4.4l-3.6,2c-0.4-1.3-1.6-3.2-2.7-4.6C1165.2,90.7,1168.7,88.9,1168.7,88.9z M1167.2,103.6v1.8
			h15.4v-1.8H1167.2z M1182.5,110.2v-1.8h-15.4v1.8H1182.5z M1178.9,85.5c0.5-0.8,1.2-1.8,1.6-2.5h-11.2c0.6,0.8,1.2,1.8,1.6,2.5
			H1178.9L1178.9,85.5z M1184.5,88.6h-7.2v6.8h7.2V88.6z M1177.3,93.4c1-1.2,2.3-3.2,3.1-4.7l3.6,1.9c-1.2,1.8-2.4,3.4-3.4,4.5
			L1177.3,93.4L1177.3,93.4z"/>
		<path class="st0" d="M16.7,154.2c-1,1.9-2.1,3.8-3.4,5.6v24.7H7.5v-17.3c-1.4,1.4-2.7,2.8-4.2,4c-0.7-1.4-2.1-3.8-3.1-5
			c4.4-3.4,8.7-9.2,10.7-13.9L16.7,154.2L16.7,154.2z M9.7,146.5c-1.7,2.7-3.6,5.2-5.4,7c-0.8-0.9-2.8-3-3.9-3.9
			c3-2.6,5.7-6.8,7.3-10.9l5.1,1.5c-0.2,0.6-0.5,1.3-0.8,1.9h10.7v4.4h-7c1.4,1.2,2.9,2.5,3.7,3.5l-3.7,3.4c-1-1.5-3.3-3.7-5.1-5.3
			l1.9-1.6L9.7,146.5L9.7,146.5z M43.7,166.7c-2.3,3.3-5.2,6.2-8.6,8.7c1.4,1.9,2.9,3.1,4.4,3.1c1.2,0,1.7-1.7,2-6.1
			c1.2,1.2,3.2,2.3,4.8,2.8c-0.9,7.3-2.8,9-7,9c-3.4,0-6.5-2.1-9-5.7c-3.8,2.1-7.8,3.7-11.9,5.1c-0.7-1.2-2.4-3.6-3.5-4.8
			c4.5-1.2,8.9-2.7,12.7-4.8c-1.2-2.4-2.1-5.3-2.8-8.2l-9.1,0.9l-0.5-5.2l8.6-0.8c-0.4-2.5-0.6-4.9-0.8-7.5h6
			c0.1,2.3,0.3,4.7,0.7,6.9l8.6-0.8c-2-1.3-4.7-2.8-6.7-3.9l3.3-3.3c2.6,1.2,6,3.1,8,4.3l-2.5,2.7l4-0.4l0.6,5.1l-14.3,1.4
			c0.5,2,1.2,3.9,1.9,5.6c2.3-1.8,4.3-3.8,5.8-6.1L43.7,166.7L43.7,166.7z M30.4,146.5c-1.4,2.4-2.9,4.7-4.6,6.4
			c-0.9-0.9-3.1-2.6-4.3-3.4c2.8-2.5,5.1-6.6,6.4-10.7l5.3,1.3c-0.2,0.7-0.5,1.4-0.7,2.1h13.4v4.4h-8.5c1.3,1,2.7,2.1,3.5,3l-4,3.4
			c-1-1.3-3.2-3.3-5-4.6l2.1-1.8H30.4L30.4,146.5z"/>
		<path class="st0" d="M83,153.1c1,14.2,4,25.4,7.6,25.4c1,0,1.6-2.6,1.9-8.7c1.3,1.4,3.5,2.8,5.1,3.4c-0.9,9.2-2.8,11.4-7.5,11.4
			c-8.4,0-12.1-14.4-13.2-31.4H52.4v-5.6h24c-0.1-2.6-0.2-5.3-0.2-8h6.3c-0.1,2.7-0.1,5.4,0.1,8h7.7c-1.3-1.6-3.8-3.6-5.7-5.1
			l3.9-3.1c2.2,1.5,5.1,3.8,6.4,5.4l-3.3,2.9h4.6v5.6L83,153.1L83,153.1z M67.5,174.9c3-0.5,6.1-1.1,9.1-1.7l0.4,5.1
			c-8,1.8-16.7,3.5-23,4.9l-1.6-5.8c2.5-0.4,5.7-0.9,9.3-1.5v-11.7h-7.4v-5.6h21v5.6h-7.8L67.5,174.9L67.5,174.9z"/>
		<path class="st0" d="M139.1,166.7c2.6,2.3,6,4.4,9.6,5.6c-1.3,1-3,3.1-3.9,4.5c-2.6-1.2-5.3-3-7.7-5.1v3.6h-8.9v3.1h16v4.8h-37.3
			v-4.8h15.4v-3.1h-8.7v-3c-2.4,2-5.1,3.7-7.8,4.9c-0.8-1.4-2.5-3.4-3.7-4.4c3.6-1.3,7.2-3.5,9.9-6.1h-9.5V162h9.4v-14.5h-6.8v-4.7
			h6.8v-3.6h5.8v3.6H133v-3.6h6v3.6h6.7v4.7H139V162h9.1v4.7L139.1,166.7L139.1,166.7z M136,170.8c-1.3-1.3-2.5-2.6-3.5-4h-13.8
			c-1,1.4-2.2,2.8-3.5,4h7.1v-3h5.9v3H136z M117.7,147.6v2.1H133v-2.1C133,147.6,117.7,147.6,117.7,147.6z M117.7,155.8H133v-2.1
			h-15.3C117.7,153.7,117.7,155.8,117.7,155.8z M117.7,162H133v-2.2h-15.3C117.7,159.8,117.7,162,117.7,162z"/>
		<path class="st0" d="M160.8,178.7v3.6h-4.2v-16.1c-0.7,1.2-1.5,2.2-2.2,3.2c-0.2-1.4-1.2-4.9-2-6.5c3-4,5-9.9,6.3-16.4H154v-5.2
			h14.8v5.2h-5.1c-0.7,3.3-1.6,6.6-2.6,9.8h7.2v22.3L160.8,178.7L160.8,178.7z M164.5,161.4h-3.7v12.2h3.7V161.4z M186.3,178.6
			c1,0.1,2,0.1,3.1,0.1c1.6,0,8.1,0,10.2-0.1c-0.6,1.1-1.3,3.4-1.6,4.9h-9c-6.1,0-10.7-1.1-13.9-5.7c-1,2.7-2.5,5.1-4.9,6.9
			l-3.9-3.6c3.9-2.9,5.3-8.1,5.9-14.1l4.9,0.8c-0.1,1.4-0.3,2.7-0.5,4c1.1,2.6,2.5,4.3,4.4,5.2v-11.3h-11.7v-4.7h25l0.8-0.2l3.8,1.2
			c-0.8,2.6-2,5.6-2.9,7.6l-4.4-1.4c0.2-0.6,0.5-1.5,0.8-2.4h-6.1v4h10.9v4.6h-10.9L186.3,178.6L186.3,178.6z M174.7,153.7
			c-1.3,2.1-2.8,4.2-4.3,5.6c-0.5-1.1-1.5-2.9-2.4-3.8c2-1.6,4-4.4,5.2-7.2h-3.6v-4.4h5.1v-4.6h4.5v4.6h4.1v4.4h-4
			c1.2,1.1,4.2,4,4.9,4.9l-2.7,3.4c-0.5-0.8-1.3-2-2.2-3.2v6.8h-4.5L174.7,153.7L174.7,153.7z M188.7,155c-1.2,1.9-2.6,3.6-4,4.8
			c-0.5-1-1.5-2.8-2.3-3.7c2.2-1.6,4.4-4.6,5.7-7.8h-3.9v-4.4h4.5v-4.6h4.6v4.6h5.4v4.4h-4.6c1.7,1.8,4.8,5.2,5.5,6.2l-3.2,3.9
			c-0.6-1.4-1.9-3.6-3.2-5.5v7.2h-4.6L188.7,155L188.7,155z"/>
		<path class="st0" d="M249,150.1c0,0-0.1,1.9-0.1,2.6c-0.4,19.9-0.8,26.9-2.4,29.1c-1.1,1.6-2.2,2.1-3.9,2.4
			c-1.5,0.3-3.7,0.2-6.1,0.2c-0.1-1.6-0.7-3.9-1.7-5.5c2.2,0.2,4,0.2,4.9,0.2c0.7,0,1.2-0.2,1.7-0.8c1-1.3,1.5-7.2,1.8-22.9h-4.9
			c-0.6,13-2.9,23-11.1,29.5c-0.8-1.4-2.6-3.4-4-4.3c0.3-0.3,0.7-0.5,1-0.8c-7,1.1-14,2.2-19.2,3l-0.9-5.6c2.6-0.3,5.9-0.7,9.5-1.2
			v-6.6h-8.5v-5.1h22.6v5.1h-8.5v5.9l8.5-1.2l0.1,1.9c3.6-5.2,4.8-12,5.1-20.5H228v-5.3h5.1c0.1-3.2,0.1-6.6,0.1-10.1h5.6
			c0,3.5,0,6.9-0.1,10.1L249,150.1L249,150.1z M208.5,163.8c-0.6-2.3-2.1-5.5-3.7-8.6c1.1-2.7,2.3-5.8,2.9-8l4.6,0.8
			c-0.9,2.6-1.9,5-2.8,7.1c1.5,2.5,2.8,5.3,3.5,7.3L208.5,163.8z M228.8,146.8h-24v-5.1h24L228.8,146.8L228.8,146.8z M219.7,148.1
			c-1,2.5-2.2,4.9-3.2,7c1.6,2.4,3.1,5.2,3.8,7.1l-4.5,1.4c-0.7-2.3-2.2-5.5-4-8.5c1.3-2.7,2.6-5.8,3.2-7.9L219.7,148.1L219.7,148.1
			z M227.4,148.2c-1.1,2.5-2.4,4.8-3.5,6.9c1.7,2.4,3.3,5.1,4.1,7.1l-4.6,1.5c-0.8-2.3-2.6-5.5-4.5-8.5c1.4-2.7,2.9-5.8,3.7-7.9
			L227.4,148.2L227.4,148.2z"/>
		<path class="st0" d="M265,156.2c0,8.1-0.6,20.3-4.7,28.2c-1.2-0.8-3.8-2-5.3-2.5c3.9-7.5,4.3-18.3,4.3-25.7v-12.9h18.3
			c-0.3-1.1-0.7-2.3-1.2-3.2l5.9-1.3c0.7,1.4,1.4,3,1.9,4.5h16.2v5.4H265V156.2L265,156.2z M297.3,168.8c-2.1,3.8-5,6.7-8.6,9
			c3.7,0.9,7.8,1.4,12.3,1.8c-1.1,1.2-2.6,3.5-3.3,5c-6-0.6-11.3-1.7-15.9-3.5c-4.6,1.6-10,2.7-15.5,3.2c-0.4-1.4-1.5-3.5-2.4-4.8
			c4.1-0.3,8-0.8,11.6-1.7c-2.2-1.5-4.3-3.3-5.9-5.3l2-0.8h-5.2v-4.5h26.4l1-0.2L297.3,168.8L297.3,168.8z M272.5,165.2v-7.6h-6.6
			v-4.5h6.6v-3.2h5.5v3.2h8.9v-3.2h5.8v3.2h7v4.5h-7v7.6H272.5L272.5,165.2z M275.6,171.6c1.7,1.6,3.9,2.9,6.5,3.9
			c2.5-1.1,4.6-2.3,6.5-3.9H275.6L275.6,171.6z M278,157.6v3.2h8.9v-3.2H278z"/>
		<path class="st0" d="M350.6,143.7v4.9h-43.3v-4.9h18.9c-0.4-1.2-0.8-2.4-1.2-3.4l6-1.5c0.5,1.5,1.3,3.3,1.9,4.9H350.6L350.6,143.7
			z M349.4,179.2c0,2.5-0.6,3.5-2.5,4.3c-1.8,0.6-4.4,0.6-7.8,0.6c-0.3-1.3-1.1-2.9-1.7-4.1h-14v2H318v-12.8h21.3V180h-0.7
			c1.7,0.1,3.4,0.1,3.9,0c0.7,0,1-0.2,1-0.8v-11.8h-29.2v17h-5.6v-21.7h40.8V179.2z M344.7,160.8h-30.9v-10.4h30.9V160.8z
			 M338.6,154.3h-19v2.7h19V154.3z M334.2,173.3h-10.8v2.8h10.8V173.3z"/>
		<path class="st0" d="M428.6,148.3h-5.6v28.9c0,3.5-0.8,5.2-3.1,6.2c-2.5,1-6.1,1.1-11.1,1.1c-0.3-1.7-1.5-4.6-2.4-6.1
			c3.5,0.2,7.7,0.1,8.9,0.1s1.6-0.3,1.6-1.4v-28.8h-32.4v-5.8h44.1L428.6,148.3L428.6,148.3z M394.6,172.5v3.7h-5.7v-22.5h20.8v18.8
			H394.6z M394.6,159.2v7.8h9.3v-7.8H394.6z"/>
		<path class="st0" d="M446,161.8c-0.7,4.3-1.8,8.8-3.2,12.5c1.1,0.5,2.2,1.4,4.1,2.5c3.4,2,8.1,2.3,13.9,2.3s14.5-0.5,20-1.3
			c-0.6,1.5-1.6,4.2-1.7,5.7c-4,0.2-12.8,0.5-18.6,0.5c-6.6,0-10.8-0.5-14.4-2.5c-2.1-1.2-3.9-2.8-4.9-2.8s-2.5,3.2-3.6,6l-3.7-5.2
			c1.1-1.5,2.3-2.8,3.4-3.6c1.2-2.7,2.2-6.4,2.9-9.8h-4.9c1-2.9,2.2-6.8,3.1-10.5h-3.7v-5.1h10c-0.9,3.4-2,7.3-2.9,10.7h1.1l0.7-0.1
			L446,161.8L446,161.8z M439.5,149.1c-0.5-2.2-1.7-5.7-2.4-8.4l4.5-1.3c0.8,2.6,1.9,5.9,2.5,8.1L439.5,149.1L439.5,149.1z
			 M450,169.5c-0.5,1.1-1,2.2-1.6,3.2c-0.7-0.9-2.7-2.8-3.6-3.4c3.4-6,3.8-14.3,3.8-20.1V141h13.1v14.4H453
			c-0.1,1.3-0.2,2.5-0.4,3.8h9.5v14.9h-7.5v1.9H450L450,169.5L450,169.5z M453.2,145.4v5.6h3.9v-5.6H453.2z M454.5,163.6v6.2h3.1
			v-6.2H454.5z M468.7,160.9h-6.1v-4.6h8.9c0.9-2.1,1.9-4.9,2.4-6.9l4.7,1c-0.9,2-1.8,4.1-2.6,5.9h3.9v4.6H474v3.5h5.5v4.6H474v7.1
			h-5.2V169h-5.6v-4.6h5.6L468.7,160.9L468.7,160.9z M479.5,149.3H463v-4.5h5.8c-0.4-1.5-1-3-1.6-4.3l4.7-1.4
			c0.9,1.8,1.8,3.9,2.2,5.6h5.4L479.5,149.3L479.5,149.3z M466,156.3c-0.1-1.6-0.7-4-1.4-5.9l4-0.9c0.8,1.8,1.5,4.1,1.7,5.6
			L466,156.3L466,156.3z"/>
		<path class="st0" d="M523.6,178.5c1.7,0,2-0.9,2.2-6.2c1.2,0.9,3.7,1.8,5.3,2.2c-0.6,7.1-2.2,9.1-7,9.1h-6.6
			c-5.9,0-7.4-1.7-7.4-6.9v-9h-0.8c-2.5,7.1-7.9,13-20.2,16.4c-0.6-1.5-2-3.6-3.3-4.9c10-2.5,14.8-6.6,17.1-11.6h-12.2V157
			c-0.5,0.4-1,0.8-1.6,1.2c-0.9-1.4-2.7-3.4-4.1-4.4c6.6-4.3,11.2-9.9,13.8-14.8l6.3,1.2c-0.4,0.7-0.8,1.5-1.3,2.2h9.7l1-0.2
			l4.1,2.6c-1.1,2-2.8,4.4-4.6,6.6h13.2v16.5h-10.9v8.9c0,1.6,0.3,1.8,2.2,1.8L523.6,178.5L523.6,178.5z M504.6,162.7
			c0.4-2,0.6-4.1,0.8-6.3h-8.9v6.3H504.6L504.6,162.7z M500.4,147.1c-1.1,1.5-2.2,2.8-3.6,4.2H507c1.1-1.3,2.2-2.7,3.1-4.2H500.4z
			 M511.6,156.4c-0.2,2.2-0.5,4.2-0.9,6.3h10.2v-6.3H511.6z"/>
		<path class="st0" d="M577.6,177.2c1.1,0.6,2.9,1.2,4.3,1.5c-0.6,4.3-2.2,5.6-7.5,5.6h-12.7c-6.9,0-8.8-1.5-8.8-7.1H550v3.5h-10.1
			v-2.6h5.9v-1.5h-8.2v-2.7h8.2v-1.5h-5.9v-2.6H550v3.5h2.9v-8.5H550v3.4h-10.1v-2.6h5.9v-1.4h-8.1v-2.7h8.1v-1.4h-5.9v-2.6H550v3.5
			h2.9v-5.1h-11v-4.5c-0.5,0.3-1.1,0.6-1.7,1c-0.8-1.2-2.5-3-3.7-3.7c5.8-2.8,10.1-6.6,12.5-9.9l5.6,1.1c-0.4,0.5-0.8,1-1.2,1.6h9.3
			l0.8-0.2l3.4,2.2c-0.7,1.1-1.5,2.2-2.4,3.2h12.4v9.3h-11.4v5.1H579v16L577.6,177.2L577.6,177.2z M552.9,152.8v-2.8h-5.6v2.8H552.9
			z M550.5,144.8c-0.7,0.7-1.4,1.4-2.1,2h10.2c0.5-0.6,1.1-1.3,1.6-2H550.5z M557.8,161.1h2.8v-11.1h-2.8V161.1L557.8,161.1z
			 M557.8,173.4h2.8v-8.5h-2.8V173.4z M573.9,180.2c2.5,0,3.1-0.5,3.5-3.1h-19.6c0,2.6,0.5,3.1,4.2,3.1H573.9L573.9,180.2z
			 M571.4,150.1h-5.9v2.8h5.9V150.1z M565.5,164.9v6.9c0.9-0.7,1.7-1.6,2.5-2.5c-0.8-0.6-1.6-1.1-2.4-1.6l1.9-2.1
			c0.7,0.4,1.5,0.9,2.3,1.4c0.3-0.7,0.7-1.4,1-2L565.5,164.9L565.5,164.9z M565.5,173.4h1.8c-0.5-0.5-1.3-1.2-1.8-1.6V173.4z
			 M572.4,173c-0.4-0.6-1.1-1.2-2-1.8c-0.7,0.8-1.4,1.6-2.2,2.3h6.3v-8.5h-3.2l2.6,0.7c-0.5,1-1,2.1-1.6,3.1
			c0.8,0.7,1.6,1.3,2.2,1.9L572.4,173L572.4,173z"/>
		<path class="st0" d="M631,171.5c-2.6,1.6-5.7,3.2-8.5,4.3c2.9,1.7,6.3,2.9,10.4,3.6c-1.1,1.1-2.6,3.2-3.3,4.7
			c-10-2.2-16.1-7.4-19.7-15.6h-0.1c-1.8,1.6-3.7,3-5.9,4.2v5.1l10.4-1.5c-0.2,1.5-0.2,3.5-0.2,4.7c-12.7,2.1-14.7,2.6-16,3.3
			c-0.2-1.3-1.1-3.5-1.9-4.4c1-0.4,2-1.2,2-3.1v-1.4c-2.5,1-5.3,1.8-8.1,2.5c-0.7-1.3-2.2-3.2-3.3-4.3c5.5-1,11-2.7,15.1-5.1H588
			v-4.8h19.8c-0.5-1.3-1.3-3-2.1-4.3l5.4-1.5c0.9,1.5,2.1,3.5,2.7,4.8l-3.1,0.9h21.8v4.8h-5.3L631,171.5L631,171.5z M612.2,147.8
			c-3.4,9.2-11.2,13.6-21,15.8c-0.5-1.3-1.7-3.1-2.5-4.2c3.3-0.6,6.4-1.5,9.1-2.8c-1.3-1.1-3-2.3-4.6-3.2c-0.7,0.4-1.4,0.9-2.1,1.2
			c-0.8-0.8-2.5-2.6-3.7-3.4c3.5-1.6,6.9-3.8,9.2-6.6h-7.3v-4.1h24v4.1h-11c-0.4,0.7-1,1.4-1.6,2.1h7.2l0.9-0.2L612.2,147.8
			L612.2,147.8z M596.6,150.8c1.7,1,3.7,2.3,5.1,3.4c1.4-1.1,2.5-2.3,3.5-3.7H597L596.6,150.8L596.6,150.8z M615.3,168.6
			c0.9,1.6,2,3,3.3,4.3c2.7-1.3,5.5-2.9,7.6-4.3H615.3L615.3,168.6z M621.2,156.2H616v-14.6h5.3V156.2z M630.6,157.3
			c0,2.6-0.5,3.9-2.3,4.7c-1.8,0.8-4.2,0.9-7.5,0.9c-0.2-1.5-1.1-3.6-1.9-4.9c2.3,0.1,4.7,0.1,5.4,0.1c0.7-0.1,0.9-0.2,0.9-0.8
			v-17.6h5.4L630.6,157.3L630.6,157.3z"/>
		<path class="st0" d="M673,162.3c-1.8-1.5-5.7-3.7-8.5-5.1l2.9-4.3c2.7,1.2,6.7,3.1,8.7,4.7L673,162.3L673,162.3z M665.6,179.9
			c2.3-3.6,5.8-9.6,8.6-15.1l4,3.9c-2.3,5.1-5.2,10.5-8,15.2L665.6,179.9L665.6,179.9z M675.6,149.4c-1.9-1.6-5.7-3.8-8.5-5.3
			l3.1-4.2c2.7,1.3,6.6,3.4,8.5,4.9L675.6,149.4L675.6,149.4z M706.4,159.2c-0.2-0.7-0.5-1.6-0.8-2.5c-4.8,0.7-6.8,1-7.8,1.3
			c3.5,2.3,8.5,3.9,13.3,4.7c-0.7,1.2-1.3,3.3-1.6,4.6c-5.4-1.4-11-3.8-15.1-6.9c-3.8,2.9-8.6,5.1-14.8,6.8
			c-0.3-1.3-1.4-3.4-2.2-4.4c5.5-1.2,9.9-2.9,13-4.9c-0.1-0.3-0.2-0.6-0.2-0.9c-7.6,1.4-8.9,1.7-9.5,2.2c-0.2-0.9-0.8-2.9-1.3-4
			c0.5-0.1,1.1-0.6,1.6-1.2c0.4-0.6,2.1-2.5,3-4.7c-0.3-1.2-0.8-3.1-1.3-4.2c0.7-0.1,1.5-0.6,2.3-1.2c0.8-0.6,3.7-2.6,5.5-4.9
			l4.9,1.4c-1.8,1.8-3.9,3.5-5.8,5l9.7-0.4c-0.7-0.9-1.4-1.6-2-2.3l3.4-2.2c2.1,2.2,4.8,5.4,6.3,7.5l-3.6,2.5
			c-0.3-0.6-0.8-1.3-1.4-2c-10.4,0.6-14.4,0.8-16.3,1.1l2.2,1c-1,1.5-2.2,3.1-3.4,4.4l4.5-0.7c-0.3-0.8-0.7-1.6-1.1-2.2l3-1.5
			c0.9,1.6,1.9,3.6,2.4,5.1l0.2-0.2l2.5,0.7c-0.2-0.6-0.4-1.3-0.6-1.8c0.4-0.1,0.9-0.5,1.2-1.1c0.3-0.6,1.4-2.5,2-4.6l3.8,1.6
			c-0.7,1.4-1.6,2.8-2.5,4l4.5-0.5c-0.3-0.7-0.5-1.4-0.8-2l3-1c1.1,2.3,2.4,5.4,3,7.3L706.4,159.2L706.4,159.2z M708.3,172.3
			c-5.6,5.6-16.1,10.5-25.5,12.7c-0.3-1.3-1.2-3.2-1.9-4.5c9.1-1.4,19.2-5.8,24-10.8L708.3,172.3L708.3,172.3z M702.9,168.2
			c-4.4,4.3-12.6,8.3-19.7,10.1c-0.4-1.2-1.3-3.1-2.1-4.1c6.9-1.2,14.8-4.6,18.5-8.4L702.9,168.2L702.9,168.2z M697.7,164.2
			c-3.2,3.2-9.2,6.5-14.3,8c-0.3-1.1-1.1-3.1-1.8-4.1c4.8-1,10.4-3.3,13.1-6L697.7,164.2L697.7,164.2z"/>
		<path class="st0" d="M734.2,152.3c-2.2,13.1-7.5,22.9-14.3,28c-1-1.4-3.3-3.6-4.7-4.5c5.6-3.8,9.8-10.4,12-18.9H717v-5.8h12.3
			l1.1-0.2L734.2,152.3L734.2,152.3z M758.6,151.4c-3.6,3.6-7.9,7.6-11.4,10.4c3.7,5.6,8.7,10.1,14.9,12.8c-1.4,1.3-3.4,3.7-4.4,5.4
			c-6.9-3.6-12.1-9.6-15.9-16.8v13.9c0,3.4-0.6,5.1-2.6,6.1c-1.9,1-4.8,1.3-8.8,1.3c-0.2-1.8-1.3-4.7-2.2-6.5
			c2.7,0.1,5.3,0.1,6.2,0.1c0.8,0,1.1-0.3,1.1-1.1v-37.9h6.2V151c0.8,2.2,1.7,4.2,2.7,6.3c3.1-2.9,6.5-6.6,8.7-9.6L758.6,151.4
			L758.6,151.4z"/>
		<path class="st0" d="M785.2,172.6c-6.2,1.8-12.7,3.7-17.8,5.1l-1.5-5.4c2-0.4,4.4-1.1,7-1.8v-9.8h-5.4v-5.3h5.4v-8.4h-5.9v-5.3
			h17.2v5.3h-5.6v8.4h5.1v5.3h-5.1v8.3c1.9-0.5,3.9-1.1,5.8-1.6L785.2,172.6L785.2,172.6z M807,179.4c0.9,0,1.1-0.8,1.2-5.6
			c1.1,0.9,3.4,1.8,4.8,2.1c-0.5,6.6-1.8,8.4-5.4,8.4H804c-4.5,0-5.5-1.6-5.5-6.6v-9.5h-3c-0.9,7.9-3.1,13.5-13.6,16.6
			c-0.6-1.4-2.1-3.6-3.2-4.8c8.9-2.2,10.4-6.2,11.1-11.8h-3.6v-27.2h23.9v27.2h-6v9.5c0,1.4,0.1,1.6,0.9,1.6L807,179.4L807,179.4z
			 M791.6,148.8h12.8v-3h-12.8V148.8z M791.6,156.2h12.8v-3h-12.8V156.2z M791.6,163.5h12.8v-3h-12.8V163.5z"/>
		<path class="st0" d="M859.6,164.7c-2.1,1.1-4.4,2.1-6.6,3.1c2,3.9,5.4,8,10.3,10c-1.2,1.1-3,3.4-3.9,4.9c-5.3-2.8-9-8.2-11.1-13.1
			l-1.5,0.5c2.4,5.3,1.2,10.5-2.4,12.7c-2,1.3-3.5,1.6-5.9,1.6c-1.2,0-2.7-0.1-4.3-0.1c-0.1-1.5-0.6-3.7-1.6-5.2
			c1.8,0.2,3.6,0.2,4.9,0.2s2.4-0.1,3.2-0.8c1.5-0.9,2.2-3,1.5-5.6c-5.7,4-13.8,7.4-20.7,9.1c-0.7-1.2-2.2-3.2-3.2-4.2
			c7.8-1.6,17-5,22-8.7c-0.3-0.4-0.6-0.9-1-1.3c-5,2.9-11.6,5.3-17.3,6.6c-0.7-1.2-2-3-3.1-4c5.9-1,12.8-3,17.4-5.3
			c-0.5-0.4-1.1-0.8-1.6-1.2c-3.9,1.6-8.2,3-11.8,3.8c-0.7-1.1-2-2.9-3-3.9c3.7-0.6,8.1-1.6,11.9-2.9h-8.2v-7.3
			c-0.5,0.3-1.1,0.7-1.7,1c-0.8-1.3-2.7-3.2-3.9-4.1c6.3-3.3,10.9-7.8,13.5-11.7l6.1,1.2c-0.5,0.7-1,1.4-1.5,2h8.6l0.9-0.2l4,2.6
			c-0.9,1.5-2.1,3.1-3.3,4.6h11.7v11.9h-17.1c-0.4,0.2-0.8,0.5-1.3,0.7c2,1.5,3.7,3,4.9,4.6c3.6-1.5,7.7-3.5,10.4-5.2L859.6,164.7
			L859.6,164.7z M829,156.9h8.5v-3.6H829V156.9z M832.3,146.5c-0.9,0.9-1.8,1.8-2.7,2.6h10c0.6-0.8,1.3-1.7,2-2.6H832.3L832.3,146.5
			z M852.1,153.3h-9.4v3.6h9.4V153.3z"/>
		<path class="st0" d="M8.2,231c-1.6-1.6-5.1-3.6-7.8-4.8l3.2-4.3c2.8,1.1,6.3,2.9,8.1,4.4L8.2,231L8.2,231z M11.7,237
			c-1.7,5.3-3.8,11.1-5.8,16l-5.3-2.9c1.9-3.9,4.5-10.3,6.4-16.1L11.7,237L11.7,237z M10.6,218.2c-1.6-1.6-5.1-3.8-7.9-5.1l3.3-4.3
			c2.7,1.2,6.4,3.1,8.1,4.7L10.6,218.2L10.6,218.2z M45.4,224.9c-1.5,6.3-3.6,11.9-6.4,16.6c0.8,3.4,1.6,5.4,2.5,5.5
			c0.7,0.1,1.2-2.4,1.4-6.9c0.9,1.1,3.2,2.5,4.1,3c-1.2,8.8-3.6,10.7-5.6,10.7c-2.7-0.1-4.8-2.4-6.3-6.8c-2.1,2.5-4.5,4.7-7.1,6.6
			c-0.8-1-2.7-2.8-3.8-3.7c3.8-2.3,6.9-5.2,9.4-8.9c-1.1-5.4-1.8-12.3-2.2-20.2H18.5v8.4c0,7.3-0.7,17.9-4.8,24.7
			c-0.9-0.9-3.1-2.4-4.4-2.9c3.7-6.3,4.1-15.2,4.1-21.8v-13.5h17.7c-0.1-2.1-0.1-4.3-0.2-6.6h5.3c0,2.2,0,4.4,0.2,6.6H42
			c-1.4-1.4-3.5-3-5.4-4.1l3.1-2.9c2.2,1.2,5,3.1,6.3,4.7l-2.4,2.3h2v5.1h-8.9c0.2,4.5,0.6,8.7,1,12.3c1.1-2.8,2-5.9,2.7-9.2
			L45.4,224.9L45.4,224.9z M23.7,244.1v2.6h-3.8v-16.2H31v13.6L23.7,244.1L23.7,244.1z M30.6,227.8H20.1v-4.2h10.4V227.8z
			 M23.7,234.7v5.2h3.4v-5.2H23.7z"/>
		<path class="st0" d="M91.2,236c-7,11.5-19.9,15.9-37.4,17.9c-0.5-1.7-1.6-4-2.7-5.5c16.4-1.4,28.7-4.9,34.7-14.7
			C85.9,233.7,91.2,236,91.2,236z M66,217.2c-2.4,6.2-5.9,12.9-8.9,17.1c-1.2-0.8-3.7-2.2-5.1-2.8c3.2-3.9,6.5-10.1,8.5-15.7
			L66,217.2L66,217.2z M76.6,208.7v30.2h-5.8v-30.2H76.6z M87.8,215.6c3.3,5,7.2,11.4,9.1,15.6l-5,2.9c-1.8-4.3-5.7-11.1-8.8-16.1
			L87.8,215.6L87.8,215.6z"/>
		<path class="st0" d="M117.9,225.6c-0.6,7.1-1.9,13-3.8,17.6c4.5,3.8,10.6,4.7,17.8,4.7c2.8,0,13,0,16.3-0.1
			c-0.8,1.2-1.7,3.7-2.1,5.3h-14.4c-8.2,0-14.9-1.1-20-5.2c-1.5,2.5-3.3,4.5-5.4,6.1c-0.8-1.1-3-3.1-4.2-3.8
			c2.3-1.6,4.3-3.7,5.8-6.4c-1.7-2.5-3.1-5.6-4.3-9.4l4.3-1.4c0.6,2.2,1.5,4.1,2.4,5.6c0.9-2.5,1.5-5.3,1.9-8.6h-7.8
			c2-3.6,4.5-8.8,6.5-13.6h-7.2v-5h15.1c-1.9,4.4-4.2,9.5-6.2,13.6h1.2l1-0.1L117.9,225.6L117.9,225.6z M128.1,216.8h-8.3v-4.4h8.3
			v-3.6h5.5v3.6h10.7v6.5h2.7v4.4h-2.7v6.5h-10.7v2.3h11.2v4.2h-11.2v2.4h12.8v4.6h-12.8v3.3h-5.5v-3.3h-10.8v-4.6h10.8v-2.4h-8.9
			v-4.2h8.9v-2.3h-8.6v-4.4h8.6v-2.1h-11v-4.4h11V216.8L128.1,216.8z M133.6,216.8v2.1h5.6v-2.1H133.6z M139.3,223.4h-5.6v2.1h5.6
			V223.4z"/>
		<path class="st0" d="M198.7,215.6h-8.5c1,1,2,2,2.6,2.8l-4.1,2.8h3.3v9.2c0,0.8-0.1,1.3,0.1,1.4c0.1,0.2,0.3,0.2,0.5,0.2h0.7
			c0.2,0,0.4-0.1,0.6-0.1c0.1-0.1,0.3-0.3,0.4-0.9s0.1-1.8,0.2-3.4c0.9,0.8,2.5,1.6,3.8,2c-0.1,1.8-0.3,3.8-0.6,4.7
			c-0.4,0.8-0.9,1.4-1.6,1.8c-0.7,0.3-1.7,0.5-2.6,0.5H191c-1.2,0-2.5-0.4-3.3-1.2c-0.7-0.8-1.1-1.6-1.2-4.1l-1.9,3.5
			c-0.9-0.5-2.1-1.1-3.4-1.8c-0.6,1-1.6,1.8-2.8,2.6h0.6v2.8h19.4v4.5h-12.9c4,1.6,9.6,4.2,12.5,6.2l-4.2,3.9
			c-2.6-2-8.2-4.9-12.4-6.7l3.9-3.4H179v11h-5.7v-11h-19.3v-4.5h19.3v-2.8h0.7c-0.6-0.6-1.3-1.2-1.9-1.5v0.2
			c-6,0.8-12.3,1.6-17.1,2.2l-0.6-4.6c1.9-0.2,4.2-0.4,6.6-0.7v-5.9h-6.1v-4h12.2c-0.9-1.4-2.6-3.1-3.8-4.4l1.9-1.5H162
			c-1.6,2-3.2,3.7-4.9,5.1c-0.8-1.1-2.7-3-3.9-4c3-2.1,5.8-5.2,7.4-8.4l5.1,1.6c-0.2,0.5-0.5,1-0.8,1.5h10.7v4.3h-7.1
			c1.2,1.2,2.3,2.4,2.9,3.2l-3.2,2.6h3.9v4h-5.8v5.3c1.9-0.2,3.8-0.5,5.6-0.7l0.1,3.7c2.3-0.9,3.8-1.8,4.7-2.9
			c-1.4-0.7-2.8-1.4-4-1.9l2.1-3.2c1.1,0.4,2.2,1,3.5,1.5c0.1-0.2,0.1-0.5,0.1-0.8V225h-4.6v-3.8h14.8c-0.8-1.3-2.5-3.1-3.8-4.4
			l1.8-1.2h-3.8c-1.4,2-2.8,3.7-4.3,5.1c-1-0.9-3.1-2.6-4.4-3.4c2.8-2.2,5.3-5.5,6.7-9l5.2,1.4c-0.2,0.6-0.5,1.1-0.7,1.7h13.6
			L198.7,215.6L198.7,215.6z M171.3,245.1c-3,3.8-8.2,6.9-13.5,8.4c-0.9-1.4-2.6-3.6-3.9-4.8c4.9-1,9.9-3,12.6-5.4L171.3,245.1z
			 M183.1,226.7c0,0.9-0.1,1.8-0.2,2.7c1.4,0.7,2.6,1.4,3.6,1.9V225h-3.4L183.1,226.7L183.1,226.7z"/>
		<path class="st0" d="M223.5,235.2c-1.8,0.5-3.5,1.1-5.3,1.6V254h-5.3v-15.7c-2.6,0.8-5.1,1.6-7.4,2.1l-1.4-5.5
			c2.4-0.5,5.4-1.3,8.8-2.2v-9.3h-3.3c-0.5,2.4-1.1,4.5-1.8,6.2c-0.9-0.7-3-2-4.1-2.7c1.5-3.8,2.4-9.9,2.8-15.6l4.9,0.8
			c-0.2,1.9-0.4,3.8-0.7,5.8h2.3v-9.3h5.3v9.3h4.1v5.5h-4.1v7.8l4.5-1.3L223.5,235.2L223.5,235.2z M249.8,216.2c0,0-0.1,1.9-0.1,2.6
			c-0.9,21.6-1.8,29.6-3.7,32c-1.1,1.6-2.2,2.2-3.8,2.5c-1.4,0.2-3.4,0.2-5.5,0.1c-0.1-1.6-0.7-4-1.6-5.6c1.8,0.2,3.4,0.2,4.4,0.2
			c0.7,0,1.2-0.2,1.8-0.9c1.2-1.6,2.1-8.1,2.9-25.6h-0.2c-2.4,12.2-7.4,24.9-15.3,31.3c-1.1-1.1-3.1-2.5-4.8-3.4
			c7.8-5.6,12.7-16.6,15.2-28h-2.3c-2.2,7.9-6.3,16.6-11.2,21.3c-1.1-1.1-2.9-2.4-4.5-3.2c4.9-3.8,8.7-11,10.8-18h-2.5
			c-1.4,3.4-3.1,6.4-5.1,8.7c-0.9-0.9-3.2-2.5-4.4-3.2c3.9-4.2,6.6-11.2,8-18.3l5.3,1c-0.5,2.2-1.1,4.4-1.8,6.6L249.8,216.2
			L249.8,216.2z"/>
		<path class="st0" d="M299.8,229.2v5.1h-28.4c-2.2,8.6-6.1,15.4-11.7,19.7c-1-1.1-3.5-3.1-4.9-4c5.1-3.4,8.6-8.9,10.3-15.7h-8.9
			v-5.1H275v-2.6h-14.1v-4.8H275v-2.6h-16.6v-5h8.5c-0.6-1.2-1.4-2.6-2.2-3.6l5-1.9c1.4,1.6,2.7,3.9,3.3,5.4l-0.3,0.1h10.4
			c1-1.6,2.2-4.1,2.8-5.7l6.4,1.5c-1,1.6-2.1,3-3,4.2h8.8v5H281v2.6h14.5v4.8H281v2.6H299.8L299.8,229.2z M285.3,247.9h13.8v5h-33
			v-5h13.3v-6.1h-8.6v-4.9h24.9v4.9h-10.4L285.3,247.9L285.3,247.9z"/>
		<path class="st0" d="M338.4,245.2c4.7,1.6,9.7,3.5,12.9,4.9l-4.9,4c-3.3-1.7-8.9-4.1-14.3-6l3-3h-12.9l4,2.8
			c-4,2.5-10.1,4.9-15.3,6.1c-0.8-1.2-2.5-3.1-3.7-4.2c4.4-1,9.6-2.9,12.9-4.7h-13v-4.9h11.2v-3.7h-8.1v-4.9h8.1v-3.2h-6.6v-18h34.9
			v18h-6.7v3.2h8.5v4.9h-8.5v3.7h11.3v4.9L338.4,245.2L338.4,245.2z M317.2,217.3h8.8v-2.7h-8.8V217.3z M317.2,224.1h8.8v-2.7h-8.8
			V224.1z M324.1,231.6h9.8v-3.2h-9.8V231.6z M324.1,240.2h9.8v-3.7h-9.8V240.2z M340.6,214.6h-9v2.7h9V214.6z M340.6,221.3h-9v2.7
			h9V221.3z"/>
		<path class="st0" d="M360.2,222c2.9,1.2,6.8,3.2,8.6,4.8l-3.5,4.6c-1.7-1.7-5.4-3.9-8.4-5.2L360.2,222L360.2,222z M358.5,249.5
			c2.6-3.7,6.4-9.9,9.4-15.6l4.3,3.8c-2.6,5.2-5.8,10.9-8.7,15.6L358.5,249.5L358.5,249.5z M363.5,209.2c2.8,1.4,6.4,3.6,8.2,5.3
			l-3.8,4.4c-1.6-1.8-5.1-4.2-7.9-5.7L363.5,209.2z M384.1,222.3v6.6c0,7.5-1.7,18.2-10.2,24.8c-0.8-1.2-2.9-3.4-4.1-4.2
			c7.7-5.9,8.6-14.4,8.6-20.7v-6.6L384.1,222.3L384.1,222.3z M401.8,211.6v10.7H396v-5.2h-18.4v5.2h-5.5v-10.7L401.8,211.6
			L401.8,211.6z M394.8,222.3v23.5c0,1.9,0.1,2.1,0.8,2.1h1.4c0.8,0,1-1.4,1.1-8c1.2,1,3.6,2,5.1,2.4c-0.4,8.3-1.8,11-5.6,11h-3.2
			c-4,0-5.3-1.7-5.3-7.5v-23.5L394.8,222.3L394.8,222.3z"/>
		<path class="st0" d="M425,212.4c-1.3,4.1-2.8,9-4.2,12.8c2.8,3.8,3.4,7.2,3.4,10.1c0,3.2-0.6,5.3-2.2,6.4
			c-0.7,0.6-1.7,0.9-2.7,1.1c-0.9,0.1-2,0.1-3.1,0.1c0-1.4-0.5-3.5-1.3-5c0.8,0.1,1.5,0.1,2,0.1c0.5,0,0.9-0.1,1.3-0.3
			c0.5-0.4,0.8-1.6,0.8-3c0-2.3-0.5-5.4-3.2-8.8c0.9-3,1.9-6.9,2.6-10.1h-3.9v38.2h-5v-43.4h10.7l0.8-0.2L425,212.4L425,212.4z
			 M434.8,219.2c-2.5,3.7-5.3,6.9-8.1,9.4c-1-1-3.4-2.7-4.7-3.5c5.1-3.8,9.6-10,12.2-16.5l5.5,1.6c-0.6,1.4-1.1,2.6-1.8,3.9h9.2
			l0.9-0.3l3.9,2.5c-2,3.9-5.4,8.8-8.2,12c-1.1-0.9-3-2.1-4.3-2.8c1.5-1.8,3.2-4.1,4.4-6.4L434.8,219.2L434.8,219.2z M439.1,228.9
			h12.7v24.9h-5.7v-2.1h-15.1v2.1h-5.6v-23.4c3.2-1.3,6.9-3.1,9.1-4.7l4.1,3.8c-2.3,1.2-5,2.3-7.6,3.3v5h7v4.6h-7v4.6h15.1v-4.5
			h-6.5v-4.6h6.5v-4.1h-7L439.1,228.9L439.1,228.9z"/>
		<path class="st0" d="M485,232.4c0,0,0,1.6-0.1,2.4c-0.8,10.2-1.7,14.8-3.3,16.6c-1.4,1.5-2.8,1.9-4.9,2.1
			c-1.7,0.2-4.6,0.2-7.6,0.1c-0.1-1.8-1-4.3-2.2-6c3,0.3,6.1,0.3,7.5,0.3c1,0,1.6-0.1,2.2-0.5c1-0.8,1.7-3.6,2.2-9.6h-17.4
			c1-4.4,2.2-11,2.8-16.4h14.8v-5.5h-16v-5.4h21.7v16.3h-15.3c-0.3,1.9-0.6,3.8-0.9,5.6L485,232.4L485,232.4z M500.1,209.4V254h-5.9
			v-44.6H500.1z"/>
		<path class="st0" d="M525.3,246.2c2.6,0.9,5.9,1.1,9.8,1.1c3.7,0.1,16.7,0.1,21.1-0.2c-0.9,1.4-1.9,4-2.2,5.7h-18.9
			c-9.1,0-14.9-1.2-18.8-6.6c-0.5,3.3-1.2,6.2-2.2,8.5c-1.1-0.7-3.7-1.9-4.9-2.5c2.4-4.9,2.9-13,3-21.3l5.3,0.4
			c0,2.1-0.2,4.3-0.2,6.3c0.7,2.1,1.6,3.8,2.7,5.1v-14.6h-9.5V223h8.3v-4.5h-6.9v-5h6.9v-4.7h5.5v4.7h6.5v5h-6.5v4.5h7.7v5.1h-6.6
			v5.2h6.2v5h-6.2L525.3,246.2L525.3,246.2z M541.2,245c-5.5,0-7.2-1.6-7.2-7.8v-26.6h18.9V229h-13.3v8.2c0,2.2,0.3,2.6,2.3,2.6h6.3
			c1.9,0,2.2-1.1,2.5-6.3c1.2,0.9,3.5,1.8,5.1,2.2c-0.6,6.9-2.2,9.2-7.1,9.2L541.2,245L541.2,245z M539.6,215.6v8.4h7.7v-8.4H539.6z
			"/>
		<path class="st0" d="M604.8,228.4c-1.4,6.5-3.8,11.8-7,16c2.6,2.1,5.5,3.8,8.8,4.9c-1.2,1.1-2.9,3.1-3.7,4.6
			c-3.3-1.4-6.2-3.3-8.8-5.6c-2.5,2.3-5.4,4.2-8.5,5.6c-0.6-1.3-2.1-3.4-3.1-4.4c2.9-1.2,5.7-2.9,8.1-5.1c-2.1-2.6-3.8-5.6-5.3-8.9
			c-0.5,6.3-1.8,13.4-5,18.3c-0.9-0.8-3.1-2.3-4.4-2.8c0.6-0.9,1.2-1.9,1.7-3h-8.3v3.6h-5v-14.9c-0.6,0.9-1.3,1.8-2,2.5
			c-0.2-1.6-1.3-5.2-2.1-6.9c3.1-4,5.2-9.9,6.5-16.4h-5.2v-5.2h17v5.2h-6.2c-0.7,3.3-1.6,6.6-2.7,9.8h8v22
			c2.6-6.1,2.9-13.4,2.9-19.1v-13.1h9.6v-7h5.1v7h6l0.9-0.1l3.6,0.7c-0.6,3.6-1.6,7.8-2.6,10.4l-4.5-1c0.4-1.3,0.8-3.1,1.1-4.9h-4.6
			v6.6h5.3l0.9-0.2L604.8,228.4L604.8,228.4z M572.7,230.9h-3.4v12.2h3.4V230.9L572.7,230.9z M585.6,220.7v6.6h4.6v-6.6H585.6z
			 M589.2,232.3c1.2,3,2.9,5.9,5,8.3c1.9-2.4,3.4-5.2,4.4-8.3H589.2z"/>
		<path class="st0" d="M626.7,239.9c-4.4,2.2-9.1,4.5-13,6.3l-2.2-5.6c1.5-0.5,3.2-1.2,5.1-1.9v-13.4h-4.2v-5.5h4.2v-10.5h5.4v10.5
			h4v5.5h-4v11.1l3.4-1.5L626.7,239.9L626.7,239.9z M657.4,241.2c-2.2,1.7-4.7,3.4-7,4.7c2.1,1.3,4.4,2.2,7.2,2.8
			c-1.2,1-2.7,3.2-3.5,4.7c-6.6-2-11-6-13.8-11.6c-1.1,0.6-2.3,1.3-3.6,1.9v4l5.5-1.6c0,1.3,0,3.2,0.1,4.4
			c-7.8,2.5-9.3,3.1-10.1,3.7c-0.3-1.1-1.4-3.2-2.2-4.1c0.8-0.6,1.7-1.7,1.7-3.8v-0.5c-1.5,0.5-3,1-4.7,1.4c-0.5-1.3-2-3.2-3-4.1
			c7.1-1.4,12.3-3.5,15.3-5.9l5.6,1.4c-0.3,0.2-0.6,0.5-0.9,0.7c0.7,1.5,1.7,2.8,2.8,4c2-1.4,4.3-3.1,5.9-4.5
			c-2.1-0.8-5.1-1.9-7.3-2.6l1.8-2.9c2.8,0.7,6.7,1.9,8.8,2.8l-1.7,2.9L657.4,241.2L657.4,241.2z M656.9,216h-30.6v-4.5h12.3
			c-0.2-0.8-0.4-1.6-0.7-2.2l5.8-1c0.4,0.9,0.9,2.1,1.2,3.2h12V216z M626.8,236.2c2.5-0.7,5.8-1.6,9.3-2.8c-2.1-0.7-5.9-1.8-8.7-2.5
			l1.4-2.9c2.8,0.5,6.8,1.6,9,2.2l-1.3,3.1l0.8-0.2l0.6,3.5c-3.3,1.1-6.7,2.3-9.7,3.2L626.8,236.2L626.8,236.2z M645.6,230
			c2.3-0.3,6.3-1.6,8.6-2.3h-26v-9.9h27v9.9h-0.9l1.2,3.6c-2.8,0.8-6.6,1.4-9.2,1.6L645.6,230L645.6,230z M636.1,221.1h-2.8v3.2h2.8
			V221.1z M638.8,236.9v-8.2h5.3v8.2H638.8z M643,221.1h-2.8v3.2h2.8V221.1z M650,221.1h-3v3.2h3V221.1z"/>
		<path class="st0" d="M734.5,252.1h-18.2v1.9h-5.5v-21.4c-0.8,0.6-1.6,1.3-2.5,1.8c-0.4-0.9-1.4-2.5-2.2-3.8v17.6h-8.1v3.4h-4.8
			v-12.9c-0.5,0.8-1,1.6-1.6,2.2c-0.5-1.3-2-4.2-3-5.5c3.4-4.4,5.4-11.1,6.6-18.4h-5.2v-5.2h16.3v5.2h-5.6c-0.5,3.1-1.2,6.3-2.1,9.2
			h7.6v2.4c3.9-2.7,7-6.3,9.3-10.7h-3.5v4h-5v-8.8h10.6c0.5-1.5,1-3,1.4-4.7l5.4,1.1c-0.3,1.2-0.6,2.4-1,3.5h10.7v8.6h-5.2V218h-7.4
			c-0.9,2.2-2.1,4.2-3.2,6.1h4c-0.4-1.1-0.9-2.2-1.4-3.2l4.8-1.8c0.9,1.6,1.8,3.5,2.3,5h5.2v4.8h-6.2v3.2h5.6v4.2h-5.6v3.4h5.6v4.2
			h-5.6v3.5h7.3V252.1L734.5,252.1z M701,231.3h-3.1v12h3.1V231.3z M721.7,228.9h-5.5v3.2h5.5V228.9z M721.7,236.3h-5.5v3.4h5.5
			V236.3z M716.2,247.4h5.5V244h-5.5V247.4z"/>
		<path class="st0" d="M756.4,210.5c-1.3,3.4-2.9,6.8-4.8,10.1v33.3h-5.5v-24.9c-1.1,1.4-2.3,2.7-3.4,3.9c-0.5-1.4-2.2-4.5-3.1-5.9
			c4.6-4.4,9-11.3,11.6-18.1L756.4,210.5L756.4,210.5z M765,240c-2,4.2-5,8.9-7.5,11.8c-1-0.9-3.2-2.4-4.5-3.1
			c2.5-2.7,5.1-6.7,6.8-10.3L765,240L765,240z M772.9,236.9v17H767v-17h-12.8v-5.2H767v-4.3h-9.6v-16.7h25.7v16.7h-10.2v4.3h12.7
			v5.2L772.9,236.9L772.9,236.9z M763,222.3h14.3v-6.5H763V222.3z M778.9,238.4c2.8,3.2,5.8,7.4,7.2,10.2l-4.6,2.8
			c-1.3-2.9-4.3-7.3-6.9-10.6L778.9,238.4L778.9,238.4z"/>
		<path class="st0" d="M806.5,225.6c-0.6,7.1-1.9,13-3.8,17.6c4.5,3.8,10.6,4.7,17.8,4.7c2.8,0,13,0,16.3-0.1
			c-0.8,1.2-1.7,3.7-2.1,5.3h-14.4c-8.2,0-14.9-1.1-20-5.2c-1.5,2.5-3.3,4.5-5.4,6.1c-0.8-1.1-3-3.1-4.2-3.8
			c2.3-1.6,4.3-3.7,5.8-6.4c-1.7-2.5-3.1-5.6-4.3-9.4l4.3-1.4c0.6,2.2,1.5,4.1,2.4,5.6c0.9-2.5,1.5-5.3,1.9-8.6H793
			c2-3.6,4.5-8.8,6.5-13.6h-7.2v-5h15.1c-1.9,4.4-4.2,9.5-6.2,13.6h1.2l1-0.1L806.5,225.6L806.5,225.6z M816.8,216.8h-8.3v-4.4h8.3
			v-3.6h5.5v3.6h10.7v6.5h2.7v4.4h-2.7v6.5h-10.7v2.3h11.2v4.2h-11.2v2.4h12.8v4.6h-12.8v3.3h-5.5v-3.3H806v-4.6h10.8v-2.4H808v-4.2
			h8.9v-2.3h-8.6v-4.4h8.6v-2.1h-11v-4.4h11V216.8L816.8,216.8z M822.3,216.8v2.1h5.6v-2.1H822.3z M828,223.4h-5.6v2.1h5.6V223.4z"
			/>
		<path class="st0" d="M861.2,235.2c-1.8,0.5-3.5,1.1-5.3,1.6V254h-5.3v-15.7c-2.7,0.8-5.1,1.6-7.3,2.1l-1.4-5.5
			c2.5-0.5,5.4-1.3,8.8-2.2v-9.3h-3.3c-0.5,2.4-1.1,4.5-1.8,6.2c-0.9-0.7-3-2-4.1-2.7c1.5-3.8,2.3-9.9,2.8-15.6l4.8,0.8
			c-0.2,1.9-0.4,3.8-0.7,5.8h2.3v-9.3h5.3v9.3h4.1v5.5h-4.1v7.8l4.5-1.3L861.2,235.2L861.2,235.2z M887.6,216.2c0,0,0,1.9-0.1,2.6
			c-0.9,21.6-1.8,29.6-3.7,32c-1.1,1.6-2.2,2.2-3.8,2.5c-1.4,0.2-3.4,0.2-5.5,0.1c-0.2-1.6-0.7-4-1.6-5.6c1.8,0.2,3.4,0.2,4.4,0.2
			c0.7,0,1.2-0.2,1.8-0.9c1.2-1.6,2.1-8.1,2.9-25.6h-0.2c-2.4,12.2-7.5,24.9-15.3,31.3c-1.1-1.1-3.1-2.5-4.8-3.4
			c7.8-5.6,12.7-16.6,15.2-28h-2.3c-2.2,7.9-6.3,16.6-11.2,21.3c-1.1-1.1-2.9-2.4-4.5-3.2c4.8-3.8,8.7-11,10.8-18h-2.5
			c-1.4,3.4-3.1,6.4-5,8.7c-0.9-0.9-3.2-2.5-4.4-3.2c3.9-4.2,6.6-11.2,8-18.3l5.3,1c-0.5,2.2-1.1,4.4-1.8,6.6L887.6,216.2
			L887.6,216.2z"/>
		<path class="st0" d="M937.5,216.1c0,0,0,1.9,0,2.6c-0.6,21.7-1.2,29.4-3.2,32c-1.4,1.8-2.7,2.3-4.7,2.7c-1.9,0.2-4.8,0.2-7.7,0.1
			c-0.1-1.6-0.9-4-1.9-5.6c3.1,0.3,6,0.3,7.3,0.3c1,0,1.5-0.2,2.2-0.8c1.4-1.6,2.1-8.8,2.6-26h-10.5c-1.3,2.9-2.8,5.6-4.3,7.7
			c-0.8-0.7-2.5-1.8-3.8-2.7V249h-13.1v3.5h-5.3v-36.1h5.5c0.6-2.4,1.2-5.5,1.4-7.8l6.4,0.9c-0.8,2.4-1.7,4.9-2.5,6.9h7.6v7.9
			c2.8-4.1,5.2-9.9,6.6-15.6l5.5,1.3c-0.5,2.1-1.2,4.1-1.9,6.2L937.5,216.1L937.5,216.1z M908.1,221.5h-7.8v7.9h7.8V221.5z
			 M908.1,243.9v-9.5h-7.8v9.5H908.1z M924.4,241.3c-1.4-2.9-4.4-7.7-6.8-11.2l4.6-2.6c2.5,3.4,5.7,8,7.2,10.8L924.4,241.3
			L924.4,241.3z"/>
		<path class="st0" d="M976.4,236.2c-0.4,3-1.2,5.9-2.7,8.4c4.5,2.1,10.1,3.5,16.8,4.1c-1.2,1.3-2.7,3.6-3.5,5.1
			c-6.6-0.8-12.2-2.5-16.8-5.1c-2.3,2.1-5.7,3.9-10,5.2c-0.7-1.3-2.5-3.6-3.6-4.8c3.9-0.9,6.8-2.1,8.9-3.7c-2.4-2-4.4-4.5-6-7.2
			l4.8-1.5c1.2,1.9,2.7,3.5,4.6,5c1-1.8,1.5-3.5,1.8-5.5h-10.9V222h11.3v-3.4h-12.3v-4.5c-0.9,1.8-1.9,3.7-2.9,5.6v34.3h-5.5V228
			c-1.3,1.6-2.7,3.2-4,4.6c-0.5-1.4-2.1-4.5-3.1-5.9c4.7-4.4,9.2-11.2,11.9-18.1l5.4,1.8c-0.4,1-0.9,2-1.3,3.1h12V209h5.8v4.4h13
			v5.2h-13v3.4h11.7v14.2L976.4,236.2L976.4,236.2z M970.9,231.6v-4.8h-6v4.8H970.9z M976.7,226.8v4.8h6.1v-4.8H976.7z"/>
		<path class="st0" d="M1037.3,247.1c0,3.1-0.7,4.7-2.7,5.5c-2,1-5,1.1-9.4,1c-0.2-1.6-1.1-4-1.9-5.5c2.7,0.1,6,0.1,6.9,0.1
			c0.9,0,1.3-0.3,1.3-1.2v-7.3h-10.3v13.5h-5.9v-13.5h-10c-0.9,5.3-2.7,10.6-6.2,14.4c-0.9-1.1-3.3-3.1-4.6-3.7
			c5.3-5.8,5.8-14.5,5.8-21.3v-17.3h37V247.1L1037.3,247.1z M1015.3,234.4v-6h-9.2v0.9c0,1.6,0,3.3-0.2,5.1H1015.3L1015.3,234.4z
			 M1006,217.4v5.6h9.2v-5.6H1006z M1031.5,217.4h-10.3v5.6h10.3V217.4z M1031.5,234.4v-6h-10.3v6H1031.5z"/>
		<path class="st0" d="M1085.8,239.6v2h4v3.8h-4v4c0,2.2-0.3,3.2-1.9,3.9c-1.4,0.6-3.4,0.6-6,0.6c-0.2-1.3-0.8-2.9-1.4-4.1
			c1.4,0.1,2.9,0.1,3.4,0.1c0.5,0,0.7-0.1,0.7-0.6v-3.9h-7.6c1.3,1.2,2.6,2.5,3.3,3.5l-3.8,2.9c-0.8-1.4-2.6-3.4-4.2-4.8l2.3-1.7
			h-3.7v-3.8h13.7v-2h-34.7v-4.1h45.8v4.1L1085.8,239.6L1085.8,239.6z M1084.3,229.1c0.2-1.1,0.5-2.5,0.7-4.1h-37.9v-3.9h39.2
			l0.9-0.1l4.1,0.6c-0.6,2.9-1.4,6.2-2.1,8.2L1084.3,229.1L1084.3,229.1z M1065.6,214.7h-18.2v-3.6h18.2v-2.4h5.9v2.4h18.8v3.6
			h-18.8v1.6h14.4v3.4h-34.3v-3.4h14V214.7z M1065.5,251.7h-11.1v1.5h-5v-12.1h16.1V251.7L1065.5,251.7z M1065.6,231v-1.6h-11.6
			v-2.9h28.4v2.9h-11.1v1.6h15.4v3.1h-36.4V231H1065.6L1065.6,231z M1054.4,244.7v3.4h5.9v-3.4H1054.4z"/>
		<path class="st0" d="M1124.5,211.2c-0.3,0.4-0.6,0.8-1,1.2c4.4,4.1,11.8,7.5,19.4,9.1c-1.5,1.3-3.2,3.8-4.2,5.5
			c-3.1-0.9-6.1-2-8.9-3.5v3h-21v-3.2c-3,1.6-6.2,2.9-9.4,3.9c-0.7-1.7-2.1-4-3.4-5.6c9.3-2.1,19-7.6,23.7-13.7L1124.5,211.2
			L1124.5,211.2z M1116.9,246.7H1106v3.9h-5.3v-21.4h16.2L1116.9,246.7L1116.9,246.7z M1106,234.2v7.4h5.5v-7.4H1106z M1126.3,221.2
			c-2.4-1.6-4.5-3.4-6.4-5.3c-2.2,1.9-4.8,3.7-7.4,5.3H1126.3L1126.3,221.2z M1138.7,242.5c0,2.5-0.4,4-2.2,4.9
			c-1.7,0.9-4,0.9-7.2,0.9c-0.2-1.6-0.9-3.7-1.5-5.2c1.8,0.1,3.8,0.1,4.4,0.1c0.6,0,0.8-0.2,0.8-0.7v-8.1h-6.8v19.8h-5.7v-24.9h18.1
			V242.5z"/>
	</g>
</g>
</svg>
