<?xml version="1.0" encoding="utf-8"?>
<!-- Generator: Adobe Illustrator 27.0.0, SVG Export Plug-In . SVG Version: 6.00 Build 0)  -->
<svg version="1.1" id="_圖層_2" xmlns="http://www.w3.org/2000/svg" xmlns:xlink="http://www.w3.org/1999/xlink" x="0px" y="0px"
	 viewBox="0 0 734.8 204.1" style="enable-background:new 0 0 734.8 204.1;" xml:space="preserve">
<style type="text/css">
	.st0{fill:none;stroke:url(#SVGID_1_);stroke-width:2;stroke-miterlimit:10;}
	.st1{fill:#FFFFFF;}
</style>
<g id="_圖層_1-2">
	
		<linearGradient id="SVGID_1_" gradientUnits="userSpaceOnUse" x1="469.9475" y1="-115.9746" x2="264.8425" y2="323.8846" gradientTransform="matrix(1 0 0 -1 0 206)">
		<stop  offset="0" style="stop-color:#FFFFFF;stop-opacity:0.8"/>
		<stop  offset="0.2" style="stop-color:#FFFFFF;stop-opacity:0"/>
		<stop  offset="0.5" style="stop-color:#FFFFFF;stop-opacity:0"/>
		<stop  offset="0.8" style="stop-color:#FFFFFF;stop-opacity:0"/>
		<stop  offset="1" style="stop-color:#FFFFFF;stop-opacity:0.8"/>
	</linearGradient>
	<path class="st0" d="M15.5,1h703.9c8,0,14.5,6.5,14.5,14.5v173.1c0,8-6.5,14.5-14.5,14.5H15.5c-8,0-14.5-6.5-14.5-14.5V15.5
		C1,7.5,7.5,1,15.5,1z"/>
	<g>
		<path class="st1" d="M72.7,77.4c0,3.8-0.8,5.8-3.1,7c-2.3,1.2-5.8,1.4-10.9,1.4c-0.3-2-1.4-5.3-2.5-7.2c3.3,0.2,6.8,0.2,7.9,0.1
			c1-0.1,1.5-0.4,1.5-1.4V38.7H27.7v47.1h-7.1v-54h52.1V77.4L72.7,77.4z M61.9,49H31.2v-6.1h30.7L61.9,49L61.9,49z M40.9,74v4h-6.8
			V53.7h25V74L40.9,74L40.9,74z M40.9,59.7v8.4h11.5v-8.4C52.4,59.7,40.9,59.7,40.9,59.7z"/>
		<path class="st1" d="M100.2,66.6c-0.7-1.8-2-4.5-3.4-7.1v26.2h-6.6V63c-1.6,4.7-3.5,9-5.6,12c-0.7-2-2.2-4.8-3.2-6.4
			c3.4-4.8,6.7-13.2,8.2-20.4h-6.8v-6.7h7.4V28.9h6.6v12.5h6.1v6.7h-6.1v2.7c1.7,2.2,6.1,9,7.1,10.6L100.2,66.6L100.2,66.6z
			 M116.9,69.1c-2.2,7.5-6.9,12.8-12.7,15.7c-0.8-1.3-2.6-3.5-3.8-4.6c3.4-1.5,6.5-4.3,8.5-7.6h-6.7v-4.9h9.6l1-0.2L116.9,69.1
			L116.9,69.1z M138.8,66.2c-3,2.2-6.3,4.4-9,6.2c2.8,2.9,6.3,5.2,10.2,6.6c-1.4,1.2-3.3,3.7-4.3,5.3c-4.4-2.1-8.3-5.5-11.3-9.7v4.8
			c0,3.1-0.6,4.6-2.6,5.6c-2,1-4.7,1-8.5,1c-0.2-1.8-1-4.3-1.8-5.9c2.2,0.1,4.5,0.1,5.2,0c0.7,0,1-0.2,1-0.8V65.6h-10.1v-4.9h14.8
			c-2.8-1.2-6-2.3-8.7-3.1l1.8-2h-12.5v-5.3h14.6V48h-10.7v-4.9h10.7v-2.2h-12.9v-5.1h6.5c-0.7-1.6-1.8-3.3-2.8-4.8l5.3-2
			c1.4,1.8,3,4.4,3.8,6.1l-1.6,0.7h9.9l-1.2-0.4c1.1-1.8,2.5-4.6,3.2-6.3l6.5,1.8c-1.4,1.8-2.6,3.5-3.7,4.9h7.6v5.1h-13.5v2.2h12V48
			h-12v2.4H139v5.3h-15.3c2.9,1,5.8,2.2,7.7,3.3l-3.9,4.3c-0.9-0.5-1.9-1-3.1-1.6v3.1c0.6,1.3,1.3,2.6,2.2,3.8
			c2.5-1.9,5.2-4.4,6.9-6.3L138.8,66.2L138.8,66.2z"/>
		<path class="st1" d="M201.6,38.3c0,0,0,2.4-0.1,3.3c-0.8,27.2-1.5,36.9-4,40.1c-1.7,2.2-3.4,2.9-5.9,3.3c-2.3,0.3-6,0.2-9.6,0.1
			c-0.1-2-1.1-5.1-2.4-7.1c3.9,0.4,7.6,0.4,9.2,0.4c1.2,0,1.9-0.2,2.7-1c1.8-1.9,2.6-11.1,3.3-32.6h-13.1c-1.6,3.7-3.5,7-5.4,9.6
			c-1-0.9-3.1-2.3-4.7-3.4v28.4H155V84h-6.6V38.7h6.9c0.8-3,1.5-6.9,1.8-9.8l8,1.1c-1,3-2.1,6.1-3.2,8.7h9.5v9.9
			c3.6-5.1,6.5-12.5,8.3-19.6l6.9,1.6c-0.6,2.6-1.5,5.2-2.4,7.7L201.6,38.3L201.6,38.3z M164.8,45.1H155v9.9h9.8V45.1z M164.8,73.1
			V61.2H155v11.9H164.8z M185.2,69.8c-1.7-3.7-5.5-9.6-8.5-14.1l5.7-3.2c3.1,4.2,7.1,10,9,13.5L185.2,69.8L185.2,69.8z"/>
		<path class="st1" d="M227.4,31c-1.3,3.9-2.9,7.9-4.7,11.8v42.9h-6.9V55.3c-1.2,1.8-2.5,3.5-3.8,5c-0.6-1.7-2.3-5.9-3.5-7.8
			c4.9-5.7,9.5-14.5,12.2-23.5L227.4,31L227.4,31z M254.9,76.8c4.7,1.6,9.9,3.6,13,5.1l-6.3,4.1c-3-1.8-8.2-4.1-13.2-5.8l3.9-3.3
			h-12l4.1,2.9c-4,2.8-10.2,5-15.6,6.2c-0.9-1.5-2.5-3.7-3.9-4.9c4.6-0.8,9.6-2.4,13-4.1h-8.7V54.1H264v22.7L254.9,76.8L254.9,76.8z
			 M254.1,36.8v2.6h10.6V52h-36.3V39.5h10.1v-2.6h-11.2v-5.2h39.3v5.2H254.1L254.1,36.8z M234.6,47.8h3.8v-4.1h-3.8V47.8z M236,60.4
			h20.9v-2.2H236L236,60.4L236,60.4z M236,66.5h20.9v-2.2H236L236,66.5L236,66.5z M236,72.7h20.9v-2.3H236L236,72.7L236,72.7z
			 M248.2,36.8h-4v2.6h4V36.8z M244.2,47.8h4v-4.1h-4V47.8z M254.1,43.7v4.1h3.9v-4.1H254.1L254.1,43.7z"/>
		<path class="st1" d="M329,36.8c-2.5,5.8-6.2,10.7-10.8,14.7c4,2,8.5,3.5,13.3,4.4c-1,1.8-2,4.9-2.3,6.9c-6.3-1.6-11.9-3.9-16.7-7
			c-4.4,2.9-9.3,5.1-14.4,6.8h28.3v22.8h-7.3v-3h-15v3.2h-6.9V62.8c-0.6,0.2-1.2,0.4-1.8,0.5c-0.4-1-1.2-2.7-2.1-4l-1.4,1.8
			c-0.7-1.5-2-3.8-3.3-6v30.6h-6.9V61.6c-1.5,5.1-3.4,9.7-5.4,12.8c-0.6-2.1-2.2-5.4-3.4-7.3c3.4-4.6,6.4-13,7.9-20.2h-6.6v-6.7h7.4
			V28.9h6.9v11.3h5.5v3.3c4.3-3.7,8.1-9.3,10.3-15.2l6.3,1.8c-0.5,1.3-1.2,2.8-1.8,4.2h14.4l1.3-0.2L329,36.8L329,36.8z M306.7,51.3
			c-1.9-1.8-3.6-3.6-5.2-5.6c-1.1,1.4-2.3,2.7-3.6,3.8c-0.8-1.3-2.8-4.3-4-5.7V47h-5.4c1.5,1.5,6.4,7.2,7.4,8.8
			C299.9,54.6,303.4,53.1,306.7,51.3L306.7,51.3z M304,68.7v7.2h15v-7.2H304z M305.7,40.7c1.7,2.6,3.9,4.9,6.5,7
			c2.6-2.1,4.9-4.3,6.7-7H305.7L305.7,40.7z"/>
		<path class="st1" d="M402.7,66.7c-0.8,3-2.2,6-4.5,8.5c8,2.6,18.1,2.9,30.5,2.8c-1.4,1.6-2.7,4.7-3.1,7.2
			c-13.3-0.3-24.6-1.2-33.4-5.1c-4.1,2.3-9.5,4.3-16.6,5.7c-0.9-1.7-2.8-4.8-4.4-6.4c5.9-0.9,10.4-2.1,13.9-3.6
			c-2.4-1.8-4.5-4.1-6.3-6.8l5.6-2.2h-6.5v-25H396v-3.6h-23.5v-6.5h53.8v6.5h-22.6v3.6h18.8v25L402.7,66.7L402.7,66.7z M384.7,51.5
			H396v-3.9h-11.3V51.5z M384.7,60.8h11.2c0.1-0.7,0.1-1.3,0.1-2v-2h-11.3V60.8z M385.3,66.7c1.8,2.2,3.7,3.9,6,5.3
			c1.8-1.6,2.8-3.3,3.6-5.3H385.3z M415.2,56.9h-11.5v2c0,0.6,0,1.3-0.1,2h11.6V56.9z M403.6,47.6v3.9h11.5v-3.9H403.6z"/>
		<path class="st1" d="M491.1,58.8c-8.7,18.5-28.8,24.9-52.2,27.1c-0.5-2-1.8-5.2-3-7c9.7-0.7,18.9-2.1,26.6-4.8
			c-1.7-1.8-4.2-3.8-6.4-5.7c-2.5,1.2-5.1,2.4-7.9,3.3c-0.9-1.6-3-4.3-4.5-5.6c12.7-3.9,21.1-9.9,25.8-15.8l7.9,1.8
			c-1.2,1.4-2.4,2.7-3.8,4.1h11l1.4-0.4L491.1,58.8L491.1,58.8z M483,36.4c-7.9,14-25.4,21.5-43.1,24.8c-0.7-1.8-2.1-4.8-3.4-6.4
			c6.2-0.9,12.5-2.4,18.1-4.6c-1.7-1.7-3.9-3.7-6-5.5c-1.8,1-3.6,1.9-5.6,2.7c-1.1-1.6-3.4-4.1-5-5.2c9.9-3.7,17.2-8.8,21.3-13.6
			l7.9,1.8c-1,1.1-2.1,2.2-3.3,3.3h13l1.3-0.3L483,36.4L483,36.4z M456.1,40.2c-0.5,0.4-1.2,0.8-1.8,1.2c2.6,1.8,5.2,4,6.9,5.9
			c3.9-2,7.4-4.4,10.1-7.1L456.1,40.2L456.1,40.2z M466,62.7c-1.2,0.8-2.4,1.6-3.6,2.4c2.5,1.8,5.3,4.1,7.2,6
			c4.2-2.2,7.7-5.1,10.3-8.4L466,62.7L466,62.7z"/>
		<path class="st1" d="M554.3,38.3c0,0,0,2.4-0.1,3.3c-0.8,27.2-1.5,36.9-4,40.1c-1.7,2.2-3.4,2.9-5.9,3.3c-2.3,0.3-6,0.2-9.7,0.1
			c-0.1-2-1.1-5.1-2.4-7.1c3.9,0.4,7.6,0.4,9.2,0.4c1.2,0,1.9-0.2,2.7-1c1.8-1.9,2.6-11.1,3.3-32.6h-13.2c-1.6,3.7-3.5,7-5.4,9.6
			c-1-0.9-3.1-2.3-4.7-3.4v28.4h-16.4V84h-6.6V38.7h6.9c0.8-3,1.5-6.9,1.8-9.8l8,1.1c-1,3-2.2,6.1-3.2,8.7h9.5v9.9
			c3.6-5.1,6.5-12.5,8.3-19.6l6.9,1.6c-0.6,2.6-1.5,5.2-2.4,7.7L554.3,38.3L554.3,38.3z M517.5,45.1h-9.8v9.9h9.8V45.1z M517.5,73.1
			V61.2h-9.8v11.9H517.5z M537.9,69.8c-1.7-3.7-5.5-9.6-8.5-14.1l5.7-3.2c3.1,4.2,7.1,10,9,13.5L537.9,69.8L537.9,69.8z"/>
		<path class="st1" d="M580.1,31c-1.3,3.9-2.9,7.9-4.7,11.8v42.9h-6.9V55.3c-1.2,1.8-2.5,3.5-3.8,5c-0.5-1.7-2.3-5.9-3.5-7.8
			c4.9-5.7,9.5-14.5,12.2-23.5L580.1,31L580.1,31z M607.7,76.8c4.7,1.6,9.9,3.6,13,5.1l-6.3,4.1c-3-1.8-8.2-4.1-13.2-5.8l3.9-3.3
			h-12l4.1,2.9c-4,2.8-10.2,5-15.6,6.2c-0.9-1.5-2.5-3.7-3.9-4.9c4.5-0.8,9.6-2.4,13-4.1H582V54.1h34.8v22.7L607.7,76.8L607.7,76.8z
			 M606.8,36.8v2.6h10.6V52h-36.3V39.5h10.1v-2.6H580v-5.2h39.3v5.2H606.8L606.8,36.8z M587.4,47.8h3.8v-4.1h-3.8V47.8z M588.7,60.4
			h20.9v-2.2h-20.9V60.4z M588.7,66.5h20.9v-2.2h-20.9V66.5z M588.7,72.7h20.9v-2.3h-20.9V72.7z M600.9,36.8h-4v2.6h4V36.8z
			 M596.9,47.8h4v-4.1h-4V47.8z M606.8,43.7v4.1h3.9v-4.1H606.8z"/>
		<path class="st1" d="M645.5,31.3c-1.5,4.4-3.6,9-5.9,13.3v41.2h-6.8V55.3c-1.1,1.4-2.3,2.8-3.4,4.1c-0.6-1.8-2.6-5.7-3.8-7.5
			C631,46.3,636,37.7,639,29.1L645.5,31.3L645.5,31.3z M683.6,78.5v6.1h-41.3v-6.1h5.3V44.8h10.6c0.2-1.3,0.5-2.7,0.7-4.1h-14v-6.2
			h14.8c0.2-2,0.4-3.7,0.5-5.4l7.7,0.2c-0.2,1.7-0.6,3.4-0.9,5.2h15.1v6.2h-16.4c-0.4,1.5-0.7,2.9-1,4.1h14.2v33.7L683.6,78.5
			L683.6,78.5z M654,50.1v3.3h18.2v-3.3H654z M672.1,58.5H654v3.3h18.2V58.5z M654,66.7v3.5h18.2v-3.5H654z M654,78.5h18.2v-3.4H654
			V78.5z"/>
		<path class="st1" d="M30.4,146.2v15c0,3.2-0.6,4.9-2.4,5.9c-1.7,1.2-4.2,1.3-8,1.3c-0.2-1.7-1-4.5-1.8-6.3
			c2.1,0.1,4.2,0.1,4.9,0.1c0.7,0,1-0.2,1-1v-12.7l-4.7,1.6l-1.7-6.9c1.8-0.5,4-1.2,6.4-1.9v-11h-5.6v-6.7H24v-11.4h6.3v11.4h3.9
			v6.7h-3.9v8.9l3.3-1l1.2,6.3L30.4,146.2L30.4,146.2z M74.7,124.3H40.6l3.9,1.8c-0.9,2.7-2.3,5.5-3.8,8.1l2.9-0.2
			c0.4-1.1,0.8-2.2,1.2-3.2l5.1,2.9c-1.8,4.5-4.2,9.3-6.8,13.5l3-0.7c0.2-0.7,0.4-1.5,0.5-2.2l5,1v-1.5c-1-1-3-2.7-4.2-3.6
			c3.2-3.8,5.9-9.6,7.4-15.4l5.6,1.4c-0.5,1.6-1,3.3-1.7,5h4.7c-0.6-1.5-1.3-3.1-2.2-4.4l4.9-1.6c1.2,1.8,2.3,4.1,3.1,6h5v5.4h-6.3
			v4.3h5.3v4.9h-5.3v4.4h5.1v4.9h-5.1v5h6.8v5.5H57.2v2.9h-5.7v-22.6c-2.3,10.7-7.1,18.4-15.4,23.1c-0.8-1.2-2.6-3.4-3.8-4.4
			c5.2-2.6,9.1-6.6,11.5-11.8c-5.8,1.7-7.4,2.4-8.2,3c-0.3-1.2-1.2-3.8-1.9-5.2c1.2-0.3,2.3-1.6,3.5-3.5c0.7-1,2.2-3.6,3.8-6.9
			c-3.8,0.4-5,0.8-5.8,1.2c-0.3-1.2-1.3-4-2-5.4c0.8-0.2,1.5-1,2.2-2.2c0.5-1.2,2.4-5.2,3.4-9.3h-3.5v-6.2H51
			c-0.5-1.3-1.3-2.6-2-3.6l5.3-1.9c1.2,1.6,2.4,3.8,3.1,5.5h17.2L74.7,124.3L74.7,124.3z M62.1,136.5h-4.9v4.3h4.9V136.5z
			 M62.1,145.7h-4.9v4.4h4.9V145.7z M62.1,155h-4.9v5h4.9V155z"/>
		<path class="st1" d="M104.9,126.3c-0.7,1.6-1.5,3.2-2.5,4.8H131v30.1c0,3.6-0.7,5.5-3.2,6.6c-2.4,1.2-5.9,1.2-10.9,1.2
			c-0.3-2-1.3-5.1-2.2-7c3.1,0.2,6.7,0.2,7.7,0.2c1-0.1,1.4-0.4,1.4-1.2v-3.6h-23.1c-1,4.6-3,9-6.8,12.1c-1-1.5-3.8-4.6-5.3-5.5
			c5.3-4.6,5.7-11.1,5.7-16.7v-4.9c-2.3,2.4-4.8,4.7-7.6,6.6c-1.1-1.6-3.4-4.3-4.8-5.6c6.2-4.1,11.1-10.2,14.8-17H83.3v-6.8h16.5
			c1-2.5,1.8-4.9,2.5-7.4l7.6,1.7c-0.6,1.9-1.3,3.8-2,5.7h30v6.8L104.9,126.3L104.9,126.3z M123.8,151.3v-4h-22.1
			c0,1.3-0.1,2.6-0.1,4H123.8z M123.8,137.5h-22.1v3.8h22.1V137.5z"/>
		<path class="st1" d="M177.8,150c-0.8,3-2.2,6-4.5,8.5c8,2.6,18.1,2.9,30.5,2.8c-1.4,1.6-2.7,4.7-3.1,7.2
			c-13.3-0.3-24.6-1.2-33.4-5.1c-4.1,2.3-9.5,4.3-16.6,5.7c-0.9-1.7-2.8-4.8-4.4-6.4c5.9-0.9,10.4-2.1,13.9-3.6
			c-2.4-1.8-4.5-4.1-6.3-6.8l5.6-2.2h-6.5v-25h18.2v-3.6h-23.5v-6.4h53.8v6.4h-22.6v3.6h18.8v25H177.8L177.8,150z M159.7,134.7H171
			v-3.9h-11.3V134.7z M159.7,144.1H171c0.1-0.7,0.1-1.3,0.1-2v-1.9h-11.3V144.1L159.7,144.1z M160.3,150c1.8,2.2,3.7,3.9,6,5.3
			c1.8-1.6,2.8-3.4,3.6-5.3H160.3z M190.3,140.1h-11.6v2c0,0.6,0,1.3-0.1,1.9h11.6V140.1L190.3,140.1z M178.7,130.8v3.9h11.6v-3.9
			H178.7z"/>
		<path class="st1" d="M266.2,142.1c-8.7,18.5-28.8,24.9-52.2,27.1c-0.6-2-1.8-5.2-2.9-7c9.7-0.7,18.9-2.1,26.6-4.8
			c-1.7-1.8-4.2-3.8-6.4-5.7c-2.5,1.2-5.1,2.4-7.9,3.4c-0.9-1.6-2.9-4.3-4.5-5.6c12.7-3.9,21.1-9.9,25.8-15.8l7.9,1.8
			c-1.2,1.4-2.4,2.7-3.8,4.1h11l1.4-0.4L266.2,142.1L266.2,142.1z M258.1,119.7c-7.9,14-25.4,21.6-43.1,24.8
			c-0.7-1.8-2.1-4.8-3.4-6.4c6.2-0.9,12.5-2.4,18.1-4.6c-1.7-1.7-3.9-3.7-6-5.5c-1.8,1-3.6,1.9-5.6,2.7c-1.1-1.6-3.4-4.1-5-5.2
			c9.9-3.7,17.2-8.8,21.3-13.6l7.9,1.8c-1,1.1-2.1,2.2-3.3,3.3h13l1.3-0.3L258.1,119.7L258.1,119.7z M231.2,123.5
			c-0.6,0.4-1.2,0.8-1.8,1.2c2.6,1.8,5.2,4,6.9,5.9c3.9-2,7.4-4.4,10.1-7.1L231.2,123.5L231.2,123.5z M241,146
			c-1.2,0.8-2.4,1.6-3.6,2.4c2.5,1.8,5.3,4.1,7.2,6c4.2-2.2,7.7-5.1,10.3-8.4L241,146L241,146z"/>
		<path class="st1" d="M324.9,120v48.9h-7.8v-3h-29.2v3h-7.4V120h15.7c0.7-2.6,1.4-5.5,1.7-8l8.9,1c-0.9,2.4-1.9,4.8-2.9,7
			L324.9,120L324.9,120z M287.9,127v6.3h29.2V127C317.1,127,287.9,127,287.9,127z M287.9,139.9v6.3h29.2v-6.3H287.9z M317.1,159.2
			v-6.3h-29.2v6.3H317.1z"/>
		<path class="st1" d="M379.4,160.7c6.1,0,7-1.5,7.8-10.3c2,1.1,5.3,2.4,7.4,2.7c-1.4,11.6-4.1,14.8-15,14.8h-19.9
			c-11.5,0-15.2-2.2-15.2-10.9v-21.9h35v-12.1h-35.8v-7.4h43.6v30.1h-7.8v-3.5h-27.4v14.7c0,3.2,1.1,3.8,7.7,3.8L379.4,160.7
			L379.4,160.7z"/>
		<path class="st1" d="M457.2,121.6c0,0,0,2.4-0.1,3.3c-0.8,27.2-1.5,36.9-4,40.1c-1.7,2.2-3.4,2.9-5.9,3.4c-2.3,0.3-6,0.2-9.6,0.1
			c-0.1-2-1.1-5.1-2.4-7.1c3.9,0.4,7.6,0.4,9.2,0.4c1.2,0,1.9-0.2,2.7-1c1.8-1.9,2.6-11.1,3.3-32.6h-13.1c-1.6,3.6-3.5,7-5.4,9.6
			c-1-0.9-3.1-2.3-4.7-3.4v28.4h-16.4v4.4H404V122h6.9c0.8-3,1.5-6.9,1.8-9.8l8,1.1c-1,3-2.1,6.1-3.2,8.7h9.5v9.9
			c3.6-5.1,6.5-12.5,8.3-19.6l6.9,1.6c-0.6,2.6-1.5,5.2-2.4,7.7L457.2,121.6L457.2,121.6z M420.4,128.3h-9.8v9.9h9.8V128.3z
			 M420.4,156.4v-11.9h-9.8v11.9H420.4z M440.8,153.1c-1.7-3.6-5.5-9.6-8.5-14.1l5.7-3.2c3.1,4.2,7.1,10,9,13.5L440.8,153.1
			L440.8,153.1z"/>
		<path class="st1" d="M477,141.5c-2.5-1.8-7.8-4.6-11.4-6.6l3.9-5.4c3.4,1.6,8.9,4.3,11.5,5.9L477,141.5L477,141.5z M466.5,163.4
			c3.3-4.6,8-12.1,11.7-19.2l5.4,4.9c-3.3,6.4-7.1,13.3-10.9,19.2L466.5,163.4L466.5,163.4z M479.7,124.9c-2.4-1.8-7.6-4.7-11.2-6.7
			l4.1-5.2c3.4,1.7,8.8,4.4,11.4,6.1L479.7,124.9L479.7,124.9z M506.9,136.8v7.7h12.5v24.3h-6.9v-2.2H494v2.5h-6.6v-24.6h12.5v-7.7
			h-16.3v-6.9h16.3v-7.1c-4.1,0.6-8.1,1-12,1.4c-0.2-1.8-1.2-4.6-2-6.2c10.5-1,21.9-3,28.7-5.7l5.7,5.7c-4,1.5-8.5,2.7-13.4,3.6v8.3
			h15.6v6.9H506.9L506.9,136.8z M512.5,151H494v8.9h18.5V151z"/>
		<path class="st1" d="M585.3,125.9c0,0-0.1,2.4-0.1,3.2c-0.5,24.9-1,33.7-3,36.5c-1.4,2-2.8,2.6-4.8,3c-1.8,0.4-4.7,0.3-7.6,0.2
			c-0.1-2-0.9-4.9-2.2-6.9c2.7,0.2,5,0.3,6.2,0.3c0.9,0,1.5-0.2,2.1-1c1.3-1.6,1.9-9.1,2.3-28.7h-5.5c-0.8,16.3-3.6,28.9-14,37
			c-0.9-1.5-2.7-3.5-4.3-4.8c-8.8,0.9-17.7,1.8-24.3,2.4l-0.9-6.1c3.4-0.2,7.7-0.6,12.5-0.9v-3.6h-10.8v-5.1h10.8v-2.4h-10.6v-18.8
			h10.6v-2.4h-12.1v-5.2h12.1v-2.4c-3.6,0.2-7.1,0.4-10.4,0.5c-0.2-1.5-0.9-3.7-1.6-5.1c9.1-0.5,19.7-1.5,26.5-3l3.2,5.4
			c-3.3,0.7-7.1,1.2-11.1,1.6v3h11.8v3.3h5.8c0.1-4,0.1-8.2,0.1-12.7h7c0,4.4,0,8.7-0.1,12.7L585.3,125.9L585.3,125.9z M536.9,137.4
			h4.8v-2.7h-4.8V137.4z M541.7,144.4v-2.7h-4.8v2.7H541.7z M548.3,159.5c3.5-0.2,7.1-0.6,10.7-0.9c4.8-6.6,6.3-15.3,6.7-26.2h-5.6
			v-4.8h-11.8v2.4h10.9v18.8h-10.9v2.4h11.1v5.1h-11.1V159.5L548.3,159.5z M553.1,137.4v-2.7h-4.8v2.7H553.1z M548.3,141.7v2.7h4.8
			v-2.7H548.3z"/>
		<path class="st1" d="M620,125.1c-0.9,10.2-4.1,15.5-21.8,17.8c-0.4-1.8-2.1-4.6-3.4-6c14.9-1.5,17.1-4.6,17.8-11.8h-10.3v8.3H595
			v-14.9h22.6c-0.6-1.6-1.2-3.3-1.9-4.8l7.7-2.1c1.1,2.1,2.4,4.7,3.3,6.9h21.9v13.7H641v-7.1h-8.7v7.4c0,1.7,0.3,2.3,2.2,2.3h9.2
			c1.7,0,4.5-0.1,5.8-0.4c0.2,1.9,0.4,4.7,0.6,6.4c-1.2,0.4-3.9,0.5-6.2,0.5h-9.5c-7.3,0-9.3-2.3-9.3-8.9v-7.2L620,125.1L620,125.1z
			 M626.1,160.9h22.8v6.8h-53.8v-6.8h23.2v-9.8H602v-6.7h40.9v6.7h-16.8L626.1,160.9L626.1,160.9z"/>
		<path class="st1" d="M667.2,136.5V169H660v-54.6h23.5v22H667.2z M667.2,119.7v3.2h9.5v-3.2H667.2z M676.7,131.3v-3.5h-9.5v3.5
			H676.7z M711.8,160.5c0,3.9-0.8,6-3.3,7.2c-2.4,1.2-6,1.4-11.2,1.4c-0.2-1.5-0.9-3.8-1.6-5.7h-15.2v3.1h-6.6v-26.4h23.7v21.6
			c2.4,0.1,4.7,0.1,5.5,0c1.1,0,1.5-0.4,1.5-1.3v-23.8h-16.7v-22.1h24.1L711.8,160.5L711.8,160.5z M680.5,145.5v3.6h10.1v-3.6H680.5
			z M690.6,158.1v-3.8h-10.1v3.8H690.6z M694.7,119.7v3.2h9.8v-3.2H694.7z M704.5,131.4v-3.6h-9.8v3.6H704.5z"/>
	</g>
</g>
</svg>
