<?xml version="1.0" encoding="utf-8"?>
<!-- Generator: Adobe Illustrator 27.0.0, SVG Export Plug-In . SVG Version: 6.00 Build 0)  -->
<svg version="1.1" id="_圖層_2" xmlns="http://www.w3.org/2000/svg" xmlns:xlink="http://www.w3.org/1999/xlink" x="0px" y="0px"
	 viewBox="0 0 911.2 41.3" style="enable-background:new 0 0 911.2 41.3;" xml:space="preserve">
<style type="text/css">
	.st0{fill:#4E6875;}
</style>
<g id="_圖層_1-2">
	<g>
		<path class="st0" d="M61.8,14.3l-1.1-1.4c0.5-0.3,1-0.6,1.4-0.8V0.8h1.8v10.2c0.2-0.2,0.6-0.4,1.2-0.8c1-0.6,1.8-1.1,2.4-1.5
			c0.1,0.7,0.2,1.4,0.3,1.9c-1.1,0.6-2.8,1.6-4.9,2.9C62.4,13.9,62,14.1,61.8,14.3L61.8,14.3z M68,5.1c-0.8-1.4-1.5-2.7-2.2-4
			l1.4-0.8c0.4,0.6,1,1.6,1.7,2.8c0.3,0.5,0.5,0.9,0.7,1.1L68,5.1L68,5.1z M74.6,14.8c-0.9-1.2-1.8-2.3-2.7-3.4
			c-0.9,1.2-2.5,2.5-4.8,3.8c-0.4-0.5-0.8-1-1.2-1.5c4.2-1.7,6.2-4.6,6-8.8C72,4.1,72,2.6,72,0.6h1.8c0,1,0,2.2-0.1,3.9v0.5
			c-0.1,2.1-0.4,3.7-0.9,4.9c0.6,0.6,1.5,1.6,2.7,3c0.2,0.3,0.4,0.5,0.6,0.6L74.6,14.8L74.6,14.8z"/>
		<path class="st0" d="M80.1,15.1V7.2c-0.1,0.1-0.2,0.2-0.3,0.4c-0.4,0.8-0.8,1.3-1.1,1.6c-0.1-0.7-0.2-1.4-0.4-2.1
			c1.2-1.9,2.2-4.2,2.9-6.9l1.6,0.4c-0.3,1.2-0.8,2.3-1.2,3.4v11H80.1L80.1,15.1z M82.8,4.5V3.2h10.6v1.3H82.8z M83.5,6.7V5.5h9.1
			v1.2H83.5z M83.5,8.9V7.6h9.1v1.2H83.5z M83.6,15.1V9.8h9v5.3H91v-0.8h-5.9v0.8C85.1,15.1,83.6,15.1,83.6,15.1z M84.3,2.2V1H92
			v1.2H84.3z M85.2,11.1v2H91v-2H85.2z"/>
		<path class="st0" d="M96.4,2.8V1.7h4l-1.2-1.2l1.6-0.3c0.5,0.4,1.1,0.9,1.6,1.5l-0.1,0.1h2.7l-0.2-0.1c0.6-0.6,1.2-1.1,1.7-1.5
			l1.6,0.3l-1.2,1.2h4.1v1.1h-6.4v0.9h5.6v1h-5.6v0.9h6.8v1.2H96V5.6h6.7V4.7h-5.5v-1h5.5V2.8H96.4L96.4,2.8z M108.9,15
			c-1,0-1.8-0.3-2.4-1c-0.1-0.2-0.2-0.3-0.4-0.4c-1,0.5-2.1,1-3.4,1.4c0-0.2-0.2-0.5-0.5-0.9c-0.1-0.1-0.2-0.2-0.2-0.3
			c0.1,0,0.2-0.1,0.4-0.1c1.4-0.3,2.4-0.7,3-1c-0.3-0.6-0.5-1.4-0.8-2.2H101v0.9l2.6-0.2v1.1l-2.6,0.2v0.8c0,1-0.6,1.5-1.7,1.6h-1.9
			c0-0.2-0.1-0.5-0.2-0.9c0-0.1-0.1-0.2-0.1-0.3c0.4,0,0.9,0.1,1.4,0.1c0.7,0,1-0.2,1-0.8v-0.4l-3.2,0.2L96,11.6l3.4-0.2v-1.1H96
			V9.2h3.4V8.4L97,8.4c0-0.1,0-0.3-0.1-0.5c0-0.2-0.1-0.3-0.1-0.4c2.3,0,4.4-0.1,6.2-0.2l0.2,0.9H103c-0.6,0.1-1.3,0.1-1.9,0.1v0.9
			h3.4c-0.1-0.6-0.1-1.3-0.1-2.1h1.5c0,0.7,0.1,1.4,0.2,2.1h2.6c0,0-0.1-0.1-0.2-0.2c-0.4-0.3-0.9-0.8-1.5-1.2l0.9-0.8
			c0.2,0.1,0.4,0.3,0.8,0.6c0.5,0.4,0.8,0.6,1,0.8l-1,0.9h2.4v1.2h-4.8c0.1,0.6,0.3,1.1,0.4,1.4c0.7-0.4,1.4-0.9,2-1.4l0.9,0.9
			c-0.8,0.6-1.5,1.2-2.2,1.7c0.1,0,0.2,0.1,0.2,0.2c0.1,0.1,0.2,0.2,0.2,0.2c0.2,0.2,0.5,0.3,0.9,0.3c0.4,0,0.6-0.1,0.7-0.4
			c0.1-0.2,0.2-0.8,0.4-1.5c0.2,0.1,0.4,0.2,0.7,0.3c0.2,0.1,0.4,0.2,0.6,0.2c-0.1,0.5-0.3,1-0.4,1.5C110.4,14.5,109.8,15,108.9,15
			L108.9,15z"/>
		<path class="st0" d="M123.5,8.9l-1.3,1.2l-3.4-3.8l1.2-1.1C120,5.3,123.5,8.9,123.5,8.9z"/>
		<path class="st0" d="M131.4,4.6V3.1h1.9V0.2h1.6v2.9h1.8v1.5h-1.8v2.2l0.4-0.4c0.2,0.2,0.5,0.5,1,0.9c0.5,0.5,0.8,0.8,1.1,1.1
			l-1.1,1.1c-0.6-0.7-1-1.2-1.4-1.5v7.1h-1.6V7.8c-0.5,1.3-1.1,2.6-1.8,3.7c0,0,0-0.1-0.1-0.2c-0.1-0.9-0.2-1.6-0.4-2
			c0.9-1.2,1.6-2.8,2.1-4.6L131.4,4.6L131.4,4.6z M137.4,7.7c-0.3-0.4-0.7-0.8-1.1-1.2c1-1.1,1.8-2.5,2.1-4l1.5,0.4
			C139.4,4.8,138.6,6.4,137.4,7.7L137.4,7.7z M136.8,14.5l-0.4-1.6c0.1,0,0.3,0,0.6-0.1h0.6c0.8-1.8,1.7-4.1,2.8-6.9l1.7,0.5
			c-0.9,2.3-1.9,4.4-2.8,6.3c1.4,0,2.7-0.1,4.1-0.2c-0.1-0.3-0.3-0.7-0.6-1.3c-0.3-0.7-0.6-1.2-0.8-1.5l1.4-0.6
			c0.5,1,1.2,2.3,2.1,3.9c-0.2-0.4,0,0,0.6,1.2l-1.5,0.8l-0.6-1.1c-0.2,0-0.6,0-1.1,0.1C140.2,14.2,138.2,14.4,136.8,14.5
			L136.8,14.5z M138.9,2.1V0.7h4.7v0.1c0.5,2,1.5,3.8,2.9,5.3c-0.1,0.1-0.2,0.3-0.4,0.6c-0.3,0.5-0.5,0.8-0.6,1
			c-1.6-1.7-2.7-3.5-3.3-5.5L138.9,2.1L138.9,2.1z"/>
		<path class="st0" d="M149.9,15V3.1h1.7v9.2h3.9v-12h1.9v12h3.9V3.1h1.8V15h-1.8v-1.2h-9.6V15H149.9L149.9,15z"/>
		<path class="st0" d="M176.3,8.9l-1.3,1.2l-3.4-3.8l1.2-1.1L176.3,8.9z"/>
		<path class="st0" d="M184.1,3.1V1.7h6.6V0.2h1.7v1.5h6.6v1.4h-6.6v1.4h5.9v8.6c0,1.2-0.6,1.8-1.9,1.9c-0.5,0-1.3,0.1-2.5,0.1
			c0-0.1-0.1-0.3-0.1-0.6c-0.1-0.5-0.2-0.8-0.2-1h1.9c0.8,0,1.2-0.2,1.1-0.9V5.9h-10.1V15h-1.6V4.5h5.8V3.1H184.1L184.1,3.1z
			 M187.5,9.4V8.1h1.9c0,0-0.1-0.1-0.2-0.2c-0.5-0.8-0.7-1.2-0.8-1.3l1.5-0.3c0.1,0.1,0.4,0.5,0.8,1.1c0.2,0.3,0.3,0.5,0.3,0.5
			l-0.6,0.2h1.6c0.2-0.2,0.5-0.7,0.9-1.4c0.2-0.3,0.3-0.5,0.4-0.6l1.5,0.3c0,0-0.1,0.1-0.1,0.2c-0.4,0.6-0.7,1.1-0.9,1.4h1.9v1.2
			h-3.2v1.3h3.6V12h-3.6v2.7h-1.6V12h-3.6v-1.3h3.6V9.4L187.5,9.4L187.5,9.4z"/>
		<path class="st0" d="M203.5,7.8c-0.6-0.8-1.2-1.7-2-2.6l1.4-0.8c0.7,0.8,1.4,1.5,2.1,2.4L203.5,7.8L203.5,7.8z M205.3,10.8
			c0-0.2-0.1-0.4-0.2-0.6c-0.1-0.3-0.2-0.5-0.3-0.6l-1.2,5.4l-1.6-0.4c0.5-1.6,1-3.5,1.4-5.6c0.2,0,0.4,0.1,0.7,0.2
			c0.3,0.1,0.6,0.2,0.7,0.2V9.3c1.4-0.8,2.5-1.8,3.4-3.1h-2.8V4.9h2.6V3.2h-1.9V1.8h1.9V0.2h1.6v1.6h2.8V0.2h1.6v1.6h2.2v1.3h-2.2
			v1.8h2.8v1.3h-3.1c0.8,1.2,1.9,2.2,3.3,2.8l-0.8,1.4c-0.9-0.5-1.7-1.1-2.3-1.8v3.1h-5.4v0.7c0,0.6,0.3,0.9,1,0.9h3.9
			c0.8,0,1.2-0.2,1.2-0.8c0-0.2,0.1-0.5,0.2-0.9c0-0.2,0.1-0.4,0.1-0.6c0.5,0.2,0.9,0.4,1.4,0.5c-0.1,0.6-0.2,1.2-0.4,1.7
			c-0.2,1-1,1.4-2.2,1.4h-4.8c-1.2,0-1.9-0.6-1.9-1.8V9.7C206.3,10.1,205.8,10.4,205.3,10.8L205.3,10.8z M204,3.7
			c-0.3-0.4-0.8-1-1.4-1.8c-0.3-0.4-0.5-0.6-0.6-0.8l1.4-0.8l2,2.4L204,3.7L204,3.7z M208.2,9.1v1.6h3.9V9.1H208.2z M209.7,6.2
			c-0.4,0.6-0.8,1.1-1.2,1.6h4.4c-0.2-0.2-0.6-0.7-1-1.4c0-0.1-0.1-0.2-0.1-0.2L209.7,6.2L209.7,6.2z M209.3,3.1v1.8h2.8V3.1H209.3z
			"/>
		<path class="st0" d="M229.1,14.9c0-0.2-0.1-0.6-0.2-1.1c0-0.1-0.1-0.2-0.1-0.3c0.2,0,0.6,0,1.2,0.1h0.9c0.8,0,1.1-0.3,1.2-0.9
			c0-0.3,0.1-0.9,0.1-1.7c0-0.4,0.1-0.7,0.1-0.9h-9.9c-0.7,0.8-1.5,1.6-2.4,2.4c0,0-0.1-0.1-0.1-0.2c-0.3-0.5-0.6-1-0.8-1.2
			c2.2-2,3.9-4.2,4.9-6.6h-4.3V3.1h4.8c0.2-0.5,0.5-1.3,0.8-2.4c0.1-0.2,0.1-0.4,0.2-0.6l1.7,0.1c0,0.2-0.1,0.4-0.2,0.8
			c-0.1,0.5-0.3,1.2-0.6,2.1h6l-0.5,2.8h1.3l-0.4,2.8h1.2c0,0.3,0,0.8-0.1,1.4c0,1.2-0.1,2.1-0.1,2.7c0,1.3-0.8,2-2.2,2
			C230.6,14.9,229.9,14.9,229.1,14.9L229.1,14.9z M222.5,14.4l-1.5-0.3c0.5-1,0.9-2,1.2-3l1.4,0.2C223.2,12.4,222.9,13.5,222.5,14.4
			L222.5,14.4z M222.9,3.1c-0.2-0.3-0.7-0.7-1.3-1.3c-0.2-0.2-0.4-0.4-0.5-0.5l0.9-0.9c0.8,0.7,1.4,1.2,1.9,1.8L222.9,3.1L222.9,3.1
			z M224.4,7.3c-0.2,0.3-0.5,0.8-0.9,1.3c0,0.1-0.1,0.1-0.1,0.2h7.6l0.3-1.5L224.4,7.3L224.4,7.3z M224.8,14.1
			c-0.1-0.8-0.3-1.7-0.5-2.8l1.2-0.1c0.2,0.8,0.4,1.7,0.7,2.8L224.8,14.1L224.8,14.1z M225.8,4.4c0,0.1-0.1,0.3-0.2,0.4
			c-0.1,0.2-0.2,0.6-0.5,1.1h5.1l0.3-1.5H225.8L225.8,4.4z M227.6,13.6c-0.1-0.2-0.2-0.5-0.4-1.1c-0.2-0.6-0.3-1.1-0.4-1.4l1.2-0.2
			c0.1,0.2,0.3,0.6,0.5,1.2c0.2,0.5,0.4,0.9,0.4,1.2C229,13.3,227.6,13.6,227.6,13.6z M230.3,13.1c-0.2-0.6-0.6-1.4-1-2.2l1.1-0.4
			c0.1,0.2,0.2,0.4,0.4,0.8c0.3,0.7,0.5,1.1,0.6,1.4L230.3,13.1z"/>
		<path class="st0" d="M251,14.9c-3.1-0.6-5.3-1.3-6.6-2c-1.7,0.8-4,1.6-6.8,2.2c-0.2-0.5-0.5-1-0.8-1.6c2.5-0.4,4.5-0.9,6-1.7
			c-1.4-1-2.5-2.6-3.4-4.6h-1.2V5.8h5.4V3.7h-6.5V2.2h6.5V0.1h1.8v2.1h6.3v1.5h-6.3v2.1h4.4v1.6c-1,1.9-2.2,3.4-3.8,4.5
			c1.4,0.7,3.4,1.2,5.9,1.5c-0.1,0.1-0.2,0.3-0.3,0.6C251.4,14.1,251.3,14.4,251,14.9L251,14.9z M247.8,7.3h-6.6
			c0.9,1.6,2,2.9,3.2,3.7C245.8,10.2,246.9,9,247.8,7.3L247.8,7.3z"/>
		<path class="st0" d="M255.5,15c-0.1,0-0.3,0-0.6-0.1c-0.3,0-0.5-0.1-0.6-0.1c0.4-1,0.6-1.9,0.8-2.7l1.1,0.1
			c-0.1,0.6-0.3,1.4-0.6,2.4C255.6,14.8,255.6,14.9,255.5,15L255.5,15z M254.9,6.7V0.8h6.8v5.9H259v1.1h2.7v1.2H259v1.1
			c1.1-0.1,2.1-0.2,2.9-0.2c0,0.4-0.1,0.8-0.1,1.2c-0.4,0-2.4,0.2-6.1,0.4c-0.6,0-1,0.1-1.2,0.1l-0.1-1.2l3.1-0.1V8.9h-2.8V7.8h2.8
			V6.7L254.9,6.7L254.9,6.7z M256.1,1.9v3.6h1.7V1.9C257.8,1.9,256.1,1.9,256.1,1.9z M256.9,4.9c0-0.2-0.1-0.5-0.2-0.9
			c-0.2-0.5-0.3-0.9-0.4-1.1l0.8-0.2c0,0.2,0.1,0.4,0.2,0.8c0.2,0.5,0.3,0.9,0.3,1.2L256.9,4.9L256.9,4.9z M257,14.8
			c0-0.5-0.1-1.2-0.2-2.2c0.1,0.7,0.1,0.5-0.1-0.4l1.1-0.1c0,0.2,0.1,0.6,0.1,1.1c0.1,0.7,0.2,1.2,0.2,1.6L257,14.8L257,14.8z
			 M259.1,14.5c0-0.3-0.1-0.7-0.2-1.2c-0.1-0.5-0.2-1-0.3-1.2l1-0.1c0.1,0.3,0.2,0.8,0.4,1.4c0.1,0.4,0.2,0.7,0.2,0.9L259.1,14.5
			L259.1,14.5z M260.6,1.9h-1.8v3.6h1.8C260.6,5.6,260.6,1.9,260.6,1.9z M259.7,5l-0.8-0.3c0.2-0.5,0.4-1.2,0.7-2l0.8,0.2
			c0,0,0,0.1-0.1,0.2C260.1,4,259.9,4.6,259.7,5L259.7,5z M261.1,14.2c-0.1-0.3-0.2-0.7-0.5-1.2c-0.2-0.5-0.3-0.8-0.4-1.1l1-0.2
			c0.2,0.3,0.4,0.8,0.6,1.4c0.1,0.3,0.2,0.6,0.3,0.8L261.1,14.2L261.1,14.2z M262.5,15.1V7.5h2.3V0.2h1.5v2.9h3.1v1.5h-3.1v2.9h2.6
			v7.6h-1.5v-1H264v1L262.5,15.1L262.5,15.1z M264,9v3.7h3.4V9H264z"/>
		<path class="st0" d="M280.9,4.8v2.1c0,1.6-0.6,2.8-2.1,3.6l-0.6-0.7c1-0.6,1.6-1.5,1.6-2.6h-1.2V4.7L280.9,4.8L280.9,4.8z"/>
		<path class="st0" d="M290,10.9c-0.1-0.6-0.3-1.1-0.5-1.7c1.5-1.3,2.7-2.9,3.6-4.8l1.4,0.8c-0.5,0.9-1,1.7-1.6,2.4v7.5h-1.5V9.5
			C291,10,290.5,10.4,290,10.9L290,10.9z M290.6,5.6c-0.2-0.6-0.5-1.1-0.7-1.6c1.3-1.1,2.4-2.3,3.3-3.8l1.4,0.9
			C293.5,2.8,292.1,4.2,290.6,5.6L290.6,5.6z M294.5,15.1c-0.3-0.3-0.8-0.7-1.2-1.1c1.4-1.3,2.1-3.3,2-6.1l1.6,0.1
			c0,0.7-0.1,1.5-0.2,2.5c0.5,1.2,1.2,2,2.1,2.4V7.1h1.6v1.7h3.8v1.4h-3.8v2.8c0.8,0,2.2,0.1,4.4,0.1c0,0,0,0.1-0.1,0.2
			c-0.2,0.5-0.3,1-0.3,1.2c-1.6,0-3,0-4.2-0.1c-1.8,0-3.1-0.7-3.9-2.1C295.9,13.2,295.3,14.1,294.5,15.1L294.5,15.1z M298.5,5.1
			c-0.3-0.3-0.7-0.8-1.3-1.2C296.7,5,296.1,6,295.3,7c-0.1-0.1-0.4-0.3-0.9-0.6c-0.2-0.1-0.4-0.2-0.4-0.3c1.4-1.6,2.3-3.5,2.6-5.9
			l1.6,0.2c-0.1,0.7-0.3,1.4-0.5,2c0.6,0.5,1.2,1,1.8,1.4L298.5,5.1L298.5,5.1z M303.5,6.8c-0.3-0.5-0.9-1.2-1.8-2.3
			c-0.1-0.1-0.2-0.2-0.2-0.3c-0.4,1-1,2-1.8,2.9c-0.5-0.4-0.9-0.7-1.3-0.9c1.4-1.6,2.2-3.5,2.6-5.9l1.6,0.2
			c-0.2,0.8-0.4,1.5-0.6,2.1c0.1,0.1,0.2,0.2,0.4,0.4c1.1,1.3,1.8,2.2,2.2,2.8L303.5,6.8z"/>
		<path class="st0" d="M308,14.7c-0.2-0.4-0.4-0.9-0.8-1.4c2.7-0.8,4.7-1.9,6.1-3.1h-4.7V4h5.3V2.9h-6.4V1.5h6.4V0.2h1.7v1.3h6.4
			v1.4h-6.4V4h5.3v6.2h-4.6c1.3,1.2,3.3,2.2,6.1,2.9c-0.3,0.3-0.6,0.8-0.9,1.4c-2.7-0.8-4.6-1.9-5.9-3.2v3.7h-1.7v-3.7
			C312.7,12.7,310.7,13.8,308,14.7L308,14.7z M310.2,5.2v1.2h3.7V5.2H310.2z M310.2,7.7V9h3.7V7.7H310.2z M319.2,5.2h-3.7v1.2h3.7
			V5.2z M315.6,7.7V9h3.7V7.7H315.6z"/>
		<path class="st0" d="M325.1,9.1c-0.1-0.6-0.3-1.4-0.4-2.2c1.1-1.8,1.9-4.1,2.5-6.7l1.5,0.4c-0.1,0.2-0.2,0.6-0.3,1.1
			c-0.3,1.1-0.6,1.9-0.8,2.4v11.1h-1.4V7.2c-0.1,0.2-0.3,0.5-0.5,0.9C325.4,8.6,325.2,8.9,325.1,9.1L325.1,9.1z M329.2,15.1
			c-0.4-0.3-0.8-0.6-1.2-0.9c0.9-0.9,1.6-1.8,2.1-2.6l1.2,0.8C330.6,13.4,329.9,14.3,329.2,15.1z M328.9,11.4V0.9h5.3v10.5
			L328.9,11.4L328.9,11.4z M330.3,2.2v1.7h2.5V2.2H330.3z M330.3,5.2v1.7h2.5V5.2H330.3z M330.3,8.2v1.7h2.5V8.2H330.3z M333.8,14.9
			c-0.2-0.3-0.6-0.9-1.1-1.6c-0.3-0.4-0.6-0.7-0.7-0.9l1.2-0.8c0.2,0.3,0.5,0.7,1,1.2c0.5,0.6,0.8,1,0.9,1.2L333.8,14.9L333.8,14.9z
			 M335.4,11.5V1.8h1.3v9.8H335.4z M335.9,14.9c0-0.3-0.1-0.7-0.2-1.2c0-0.1-0.1-0.2-0.1-0.3c0.2,0,0.7,0.1,1.3,0.1
			c0.7,0,1-0.2,0.9-0.8V0.2h1.4v12.8c0,1.1-0.6,1.7-1.8,1.8C337.1,14.9,336.6,14.9,335.9,14.9L335.9,14.9z"/>
		<path class="st0" d="M343,14.9V2.6h1.7c0.1-0.5,0.3-1.1,0.5-1.9c0-0.2,0.1-0.4,0.1-0.6l1.8,0.2c-0.2,0.7-0.4,1.5-0.6,2.2h2.7v12.2
			h-1.6v-1.1h-2.9v1.2L343,14.9L343,14.9z M344.6,4.2v3.2h2.9V4.2H344.6z M344.6,9v3.2h2.9V9H344.6z M351.4,14.8
			c-0.1-0.6-0.2-1.1-0.3-1.6h1.1c0.5,0,1,0.1,1.2,0.1c1.1,0,1.7-0.5,1.7-1.6c0-0.7,0.1-2.1,0.1-4.2c0-1.5,0.1-2.6,0.1-3.2h-3.4
			c-0.4,0.8-0.8,1.6-1.1,2.3c-0.1,0-0.2-0.1-0.4-0.2c-0.2-0.1-0.6-0.3-1.1-0.6c1-1.8,1.7-3.6,2.2-5.5l1.7,0.4c0,0.2-0.1,0.4-0.2,0.7
			c-0.2,0.6-0.3,1-0.5,1.4h4.5c-0.1,4.5-0.2,7.7-0.2,9.4c0,1.9-0.9,2.8-2.7,2.8C353.2,14.8,352.3,14.8,351.4,14.8L351.4,14.8z
			 M352.7,10.6c-0.7-1.1-1.5-2.2-2.3-3.3l1.3-0.8c0.8,0.9,1.6,1.9,2.4,3.2L352.7,10.6L352.7,10.6z"/>
		<path class="st0" d="M360.1,3.1V1.7h6.6V0.2h1.7v1.5h6.6v1.4h-6.6v1.4h5.9v8.6c0,1.2-0.6,1.8-1.9,1.9c-0.5,0-1.3,0.1-2.5,0.1
			c0-0.1-0.1-0.3-0.1-0.6c-0.1-0.5-0.2-0.8-0.2-1h1.9c0.8,0,1.2-0.2,1.1-0.9V5.9h-10.1V15h-1.6V4.5h5.8V3.1H360.1L360.1,3.1z
			 M363.5,9.4V8.1h1.9c0,0-0.1-0.1-0.2-0.2c-0.5-0.8-0.7-1.2-0.8-1.3l1.5-0.3c0.1,0.1,0.4,0.5,0.8,1.1c0.2,0.3,0.3,0.5,0.3,0.5
			l-0.6,0.2h1.6c0.2-0.2,0.5-0.7,0.9-1.4c0.2-0.3,0.3-0.5,0.4-0.6l1.5,0.3c0,0-0.1,0.1-0.1,0.2c-0.4,0.6-0.7,1.1-0.9,1.4h1.9v1.2
			h-3.2v1.3h3.6V12h-3.6v2.7h-1.6V12h-3.6v-1.3h3.6V9.4L363.5,9.4L363.5,9.4z"/>
		<path class="st0" d="M379.5,7.8c-0.6-0.8-1.2-1.7-2-2.6l1.4-0.8c0.7,0.8,1.4,1.5,2.1,2.4L379.5,7.8L379.5,7.8z M381.3,10.8
			c0-0.2-0.1-0.4-0.2-0.6c-0.1-0.3-0.2-0.5-0.3-0.6l-1.2,5.4l-1.6-0.4c0.5-1.6,1-3.5,1.4-5.6c0.2,0,0.4,0.1,0.7,0.2
			c0.3,0.1,0.6,0.2,0.7,0.2V9.3c1.4-0.8,2.5-1.8,3.4-3.1h-2.8V4.9h2.6V3.2h-1.9V1.8h1.9V0.2h1.6v1.6h2.8V0.2h1.6v1.6h2.2v1.3h-2.2
			v1.8h2.8v1.3h-3.1c0.8,1.2,1.9,2.2,3.3,2.8l-0.8,1.4c-0.9-0.5-1.7-1.1-2.3-1.8v3.1h-5.4v0.7c0,0.6,0.3,0.9,1,0.9h3.9
			c0.8,0,1.2-0.2,1.2-0.8c0-0.2,0.1-0.5,0.2-0.9c0-0.2,0.1-0.4,0.1-0.6c0.5,0.2,0.9,0.4,1.4,0.5c-0.1,0.6-0.2,1.2-0.4,1.7
			c-0.2,1-1,1.4-2.2,1.4h-4.8c-1.2,0-1.9-0.6-1.9-1.8V9.7C382.3,10.1,381.8,10.4,381.3,10.8L381.3,10.8z M380,3.7
			c-0.3-0.4-0.8-1-1.4-1.8c-0.3-0.4-0.5-0.6-0.6-0.8l1.4-0.8l2,2.4L380,3.7L380,3.7z M384.2,9.1v1.6h3.9V9.1H384.2z M385.7,6.2
			c-0.4,0.6-0.8,1.1-1.2,1.6h4.4c-0.2-0.2-0.6-0.7-1-1.4c0-0.1-0.1-0.2-0.1-0.2L385.7,6.2L385.7,6.2z M385.3,3.1v1.8h2.8V3.1H385.3z
			"/>
		<path class="st0" d="M396.4,15.1l-1.2-1.2c0.6-1,1-1.9,1.1-2.8c0.2-0.9,0.3-2.4,0.3-4.3V0.8h12.8v3.9h-11.1v1.5h2.8V4.8h1.6v1.4
			h2.7V4.8h1.6v1.4h2.7v1.2h-2.7v1.4h3.2v1.2h-1.9l0.9,1.1c-0.8,0.4-1.6,0.8-2.4,1.2c0.9,0.5,2.1,0.8,3.6,0.9
			c-0.3,0.6-0.6,1.1-0.8,1.5c-3.6-0.8-5.9-2.3-6.9-4.8h-1.3v3.2c0.9-0.2,1.8-0.5,2.5-0.8c0,0.5,0,0.9,0.1,1.3
			c-2.2,0.6-3.9,1.1-4.9,1.4l-0.4-1.4c0.1,0,0.3,0,0.5-0.1c0.3,0,0.5-0.1,0.7-0.1v-3.6h-1.5C397.9,12,397.4,13.6,396.4,15.1
			L396.4,15.1z M398.2,7.4l-0.1,1.4h2.8V7.4C401,7.4,398.2,7.4,398.2,7.4z M398.2,2.1v1.3h9.5V2.1H398.2z M402.6,7.4v1.4h2.7V7.4
			C405.2,7.4,402.6,7.4,402.6,7.4z M405.4,11.8c1.2-0.6,2.1-1.2,2.7-1.6H404C404.4,10.8,404.9,11.3,405.4,11.8L405.4,11.8z"/>
		<path class="st0" d="M414.6,12.6V7.2h11.5v5.4h-3.3v0.7c0,0.4,0.2,0.6,0.7,0.6h1.8c0.5,0,0.9-0.2,0.9-0.6c0.1-0.3,0.1-0.7,0.2-1.1
			c0.2,0,0.5,0.1,0.9,0.2c0.2,0.1,0.4,0.1,0.6,0.2c-0.1,0.4-0.2,0.8-0.4,1.2c-0.1,0.8-0.8,1.1-1.9,1.1H423c-1.2,0-1.8-0.5-1.8-1.5
			v-0.8H419c0,0.5-0.2,0.8-0.5,1.1c-0.5,0.8-2.2,1.3-4.9,1.6c0,0-0.1-0.1-0.1-0.2c-0.1-0.2-0.3-0.5-0.6-1c2.2-0.2,3.5-0.4,4.1-0.8
			c0.2-0.2,0.4-0.4,0.4-0.7L414.6,12.6L414.6,12.6z M413.6,6.5V0.6h6.2v0.9h-1.9v0.9h1.7v2.4h-1.7v0.8h1.9v0.9L413.6,6.5L413.6,6.5z
			 M414.9,1.5v0.9h1.8V1.5C416.7,1.5,414.9,1.5,414.9,1.5z M418.4,3.2h-3.4V4h3.4V3.2z M414.9,4.8v0.8h1.8V4.8H414.9z M416.2,8.1
			v0.8h8.3V8.1H416.2z M416.2,9.6v0.7h8.3V9.6H416.2z M416.2,11v0.7h8.3V11H416.2z M420.6,3.6c-0.1-0.1-0.3-0.2-0.5-0.4
			s-0.4-0.3-0.5-0.4c0.9-0.9,1.6-1.8,1.9-2.7l1.4,0.2c-0.1,0.3-0.3,0.6-0.4,0.8h4.9v0.9H422c0,0.1-0.1,0.2-0.2,0.4
			C421.3,2.9,420.9,3.3,420.6,3.6L420.6,3.6z M420.5,6.5V3.9h6.6v2.6H420.5z M421.6,4.7v1h0.9v-1H421.6z M421.9,3.3V2.6h4.9v0.8
			H421.9z M423.4,4.7v1h0.9v-1H423.4z M426,4.7h-0.9v1h0.9V4.7z"/>
		<path class="st0" d="M430.8,5.7c-0.1-0.2-0.2-0.5-0.3-0.9c-0.1-0.2-0.1-0.4-0.2-0.6c1.3-1,2.3-2.3,3.1-3.9l1.6,0.2l-0.3,0.6
			c0.6,0.6,1.4,1.3,2.3,2.2V1.9h3.5V0.2h1.6v1.7h3.5v2.6H444V3.2h-5.7v1.3h-1.4V3.8l-0.8,0.9l-0.9-1.1v1h-2.6V3.9
			C432.1,4.5,431.5,5.1,430.8,5.7L430.8,5.7z M431,15.1l-0.5-1.2l0.8-0.3V5.2h4.9v5.7h-3.6v2.2l1.9-0.7l-0.5-0.9l1.1-0.5l1.6,2.7
			l-1.2,0.6c0-0.1-0.1-0.2-0.2-0.4c-0.1-0.2-0.2-0.4-0.2-0.5c-0.5,0.2-1.2,0.5-2.2,0.9C432,14.6,431.4,14.9,431,15.1L431,15.1z
			 M432.7,6.4v1.1h2.2V6.4H432.7z M432.7,9.8h2.2V8.7h-2.2V9.8z M435.1,3.4l-0.6-0.6c-0.2-0.3-0.5-0.5-0.6-0.7
			c-0.2,0.5-0.6,0.9-0.9,1.2H435.1z M443.4,15.1v-0.7H439v0.8h-1.4V4.7h6.9v4.1H439v1.4h5.9v4.9H443.4z M439,5.9v1.6h4.1V5.9H439z
			 M443.4,11.4H439v1.8h4.4V11.4z"/>
		<path class="st0" d="M457.9,8.9l-1.3,1.2l-3.4-3.8l1.2-1.1L457.9,8.9z"/>
		<path class="st0" d="M465.7,3.1V1.7h6.6V0.2h1.7v1.5h6.6v1.4H474v1.4h5.9v8.6c0,1.2-0.6,1.8-1.9,1.9c-0.5,0-1.3,0.1-2.5,0.1
			c0-0.1-0.1-0.3-0.1-0.6c-0.1-0.5-0.2-0.8-0.2-1h1.9c0.8,0,1.2-0.2,1.1-0.9V5.9h-10.1V15h-1.6V4.5h5.8V3.1H465.7L465.7,3.1z
			 M469.1,9.4V8.1h1.9c0,0-0.1-0.1-0.2-0.2c-0.5-0.8-0.7-1.2-0.8-1.3l1.5-0.3c0.1,0.1,0.4,0.5,0.8,1.1c0.2,0.3,0.3,0.5,0.3,0.5
			L472,8.1h1.6c0.2-0.2,0.5-0.7,0.9-1.4c0.2-0.3,0.3-0.5,0.4-0.6l1.5,0.3c0,0-0.1,0.1-0.1,0.2c-0.4,0.6-0.7,1.1-0.9,1.4h1.9v1.2H474
			v1.3h3.6V12H474v2.7h-1.6V12h-3.6v-1.3h3.6V9.4L469.1,9.4L469.1,9.4z"/>
		<path class="st0" d="M485.1,7.8c-0.6-0.8-1.2-1.7-2-2.6l1.4-0.8c0.7,0.8,1.4,1.5,2.1,2.4L485.1,7.8L485.1,7.8z M486.9,10.8
			c0-0.2-0.1-0.4-0.2-0.6c-0.1-0.3-0.2-0.5-0.3-0.6l-1.2,5.4l-1.6-0.4c0.5-1.6,1-3.5,1.4-5.6c0.2,0,0.4,0.1,0.7,0.2
			c0.3,0.1,0.6,0.2,0.7,0.2V9.3c1.4-0.8,2.5-1.8,3.4-3.1h-2.8V4.9h2.6V3.2h-1.9V1.8h1.9V0.2h1.6v1.6h2.8V0.2h1.6v1.6h2.2v1.3h-2.2
			v1.8h2.8v1.3H495c0.8,1.2,1.9,2.2,3.3,2.8l-0.8,1.4c-0.9-0.5-1.7-1.1-2.3-1.8v3.1h-5.4v0.7c0,0.6,0.3,0.9,1,0.9h3.9
			c0.8,0,1.2-0.2,1.2-0.8c0-0.2,0.1-0.5,0.2-0.9c0-0.2,0.1-0.4,0.1-0.6c0.5,0.2,0.9,0.4,1.4,0.5c-0.1,0.6-0.2,1.2-0.4,1.7
			c-0.2,1-1,1.4-2.2,1.4h-4.8c-1.2,0-1.9-0.6-1.9-1.8V9.7C487.9,10.1,487.4,10.4,486.9,10.8L486.9,10.8z M485.6,3.7
			c-0.3-0.4-0.8-1-1.4-1.8c-0.3-0.4-0.5-0.6-0.6-0.8l1.4-0.8l2,2.4L485.6,3.7L485.6,3.7z M489.8,9.1v1.6h3.9V9.1H489.8z M491.3,6.2
			c-0.4,0.6-0.8,1.1-1.2,1.6h4.4c-0.2-0.2-0.6-0.7-1-1.4c0-0.1-0.1-0.2-0.1-0.2L491.3,6.2L491.3,6.2z M490.9,3.1v1.8h2.8V3.1H490.9z
			"/>
		<path class="st0" d="M500.9,2.9V1.6h2.8V0.2h1.4v1.4h2.7v1.2h-2.7v1.2h2.4v6.2h-2.4v1.2h2.8v1.2h-2.8v2.3h-1.4v-2.3h-2.9v-1.2h2.9
			v-1.2h-2.4V4.1h2.4V2.9L500.9,2.9L500.9,2.9z M502.4,5.2v1.5h1.4V5.2H502.4z M502.4,7.7v1.5h1.4V7.7
			C503.8,7.7,502.4,7.7,502.4,7.7z M506.4,5.2H505v1.5h1.3V5.2z M505,7.7v1.5h1.3V7.7C506.4,7.7,505,7.7,505,7.7z M508.1,15.2
			c-0.1-0.2-0.3-0.4-0.6-0.8c-0.2-0.3-0.4-0.5-0.6-0.7c2.1-1.2,3.3-3.2,3.7-5.8c0.1-0.9,0.2-2,0.2-3.2h1.5c0,0.2,0,0.6-0.1,1.1v0.9
			c0.3,3.1,1.5,5.4,3.8,6.8c-0.1,0.1-0.2,0.3-0.4,0.5c-0.3,0.4-0.6,0.7-0.7,0.9c-1.8-1.5-3-3.2-3.4-5.1
			C511.2,11.8,510.1,13.5,508.1,15.2L508.1,15.2z M514.7,6.9l-1.4-0.4l0.8-2.5h-3.8c-0.2,0.5-0.6,1.3-1.1,2.4
			c-0.1,0.2-0.2,0.4-0.2,0.6c-0.4-0.3-0.9-0.6-1.4-0.8c1-1.8,1.7-3.8,2.2-6.1l1.5,0.2c-0.2,0.8-0.4,1.5-0.6,2.1h4.8V4L514.7,6.9
			L514.7,6.9z"/>
		<path class="st0" d="M518.5,7.8V5.2h0.6V0.8h5.1v4.5h0.6v2.5h-0.8v5.6c0,1-0.4,1.5-1.2,1.6c-0.2,0-0.4,0-0.7,0.1h-0.6
			c0-0.5-0.1-0.9-0.2-1.2h0.9c0.4,0,0.5-0.1,0.5-0.4v-0.6h-2.2v2.4h-1.2V7.8H518.5L518.5,7.8z M519.7,6.4v1.1h3.9V6.4H519.7z
			 M520.3,1.9v3.3h0.9V3.1h1.8V1.9L520.3,1.9L520.3,1.9z M520.6,8.5v1.1h2.2V8.5H520.6z M520.6,10.6v1.1h2.2v-1.1H520.6z M522,4v1.2
			h1V4H522z M525.5,12.2V9.4h7.1v2.8h-1.1l0.3,0.1c-0.2,0.4-0.5,0.8-0.8,1.2h2.4v1.1h-8.8v-1.1h2.4l-0.8-1.2l0.5-0.1L525.5,12.2
			L525.5,12.2z M525,8.6V7.5h8.4v1.1H525z M525.3,6.7V1.5h1.9V0.2h1.2v1.3h1.1V0.2h1.3v1.3h1.9v5.2L525.3,6.7L525.3,6.7z M526.5,2.5
			v1.1h1.1V2.5H526.5z M526.5,4.5v1.1h1.1V4.5H526.5z M526.9,10.3v0.9h4.4v-0.9H526.9z M527.7,12.2c0,0.1,0.1,0.2,0.2,0.4
			c0.1,0.2,0.3,0.5,0.6,0.9h1.1l0.8-1.3L527.7,12.2L527.7,12.2z M528.5,2.6v1.1h1.1V2.6H528.5z M528.5,4.6v1.1h1.1V4.6H528.5z
			 M531.7,2.6h-1.1v1.1h1.1V2.6z M530.6,4.6v1.1h1.1V4.6H530.6z"/>
		<path class="st0" d="M536.7,15.1V0.8h13.8v14.3h-1.6v-0.7h-10.6v0.7H536.7L536.7,15.1z M538.2,2.1v11.3h10.6V2.1
			C548.9,2.1,538.2,2.1,538.2,2.1z M539.7,9.2V6.5h7.6v2.6c0,0,0.1,0,0.1-0.1h0.1l0.8,0.8c-0.5,0.3-0.9,0.7-1.4,1.1l1.6,0.8
			l-0.7,0.9c-1-0.6-2.2-1.2-3.8-1.9l0.6-0.9l1.2,0.6c0.3-0.2,0.7-0.6,1.2-1.1c0.1,0,0.2-0.1,0.2-0.1H544c-0.2,0.2-0.4,0.4-0.6,0.6
			v2.1h0.2c0.5,0,1-0.1,1.7-0.2c0,0.2-0.1,0.6-0.1,0.9c-2,0.2-3.5,0.4-4.5,0.6l-0.2-0.9c0.5-0.1,1-0.1,1.5-0.2v-1.2
			c-0.8,0.5-1.8,1-2.8,1.4c0,0-0.1-0.1-0.2-0.3c-0.2-0.4-0.4-0.6-0.5-0.8c1.5-0.5,2.8-1.1,3.9-1.8L539.7,9.2L539.7,9.2z M539.5,4.1
			V3.1h3.2v-1h1.4v1h3.2v0.9h-3.2v0.8h4v0.9h-9.4V4.9h3.9V4.1H539.5z M541.2,7.4v0.9h4.8V7.4H541.2z"/>
		<path class="st0" d="M554.4,2.1V0.8h13.9v1.4h-11.9v10.7c0,0.3,0.2,0.5,0.6,0.5h11.5v1.3h-12.2c-0.9,0-1.4-0.5-1.4-1.3V2.1H554.4
			L554.4,2.1z M557.5,12.2V8h4.6v4.2H557.5z M558.7,7V3.1h7.8V7L558.7,7L558.7,7z M558.8,9.1v1.9h2V9.1H558.8z M560.2,4.3v1.6h4.8
			V4.3H560.2z M563.2,12.2V8h4.6v4.2H563.2z M564.5,9.1v1.9h2.1V9.1H564.5z"/>
		<path class="st0" d="M581.1,8.9l-1.3,1.2l-3.4-3.8l1.2-1.1L581.1,8.9z"/>
		<path class="st0" d="M588.9,3.1V1.7h6.6V0.2h1.7v1.5h6.6v1.4h-6.6v1.4h5.9v8.6c0,1.2-0.6,1.8-1.9,1.9c-0.5,0-1.3,0.1-2.5,0.1
			c0-0.1-0.1-0.3-0.1-0.6c-0.1-0.5-0.2-0.8-0.2-1h1.9c0.8,0,1.2-0.2,1.1-0.9V5.9h-10.1V15h-1.6V4.5h5.8V3.1H588.9L588.9,3.1z
			 M592.3,9.4V8.1h1.9c0,0-0.1-0.1-0.2-0.2c-0.5-0.8-0.7-1.2-0.8-1.3l1.5-0.3c0.1,0.1,0.4,0.5,0.8,1.1c0.2,0.3,0.3,0.5,0.3,0.5
			l-0.6,0.2h1.6c0.2-0.2,0.5-0.7,0.9-1.4c0.2-0.3,0.3-0.5,0.4-0.6l1.5,0.3c0,0-0.1,0.1-0.1,0.2c-0.4,0.6-0.7,1.1-0.9,1.4h1.9v1.2
			h-3.2v1.3h3.6V12h-3.6v2.7h-1.6V12H592v-1.3h3.6V9.4L592.3,9.4L592.3,9.4z"/>
		<path class="st0" d="M608.3,7.8c-0.6-0.8-1.2-1.7-2-2.6l1.4-0.8c0.7,0.8,1.4,1.5,2.1,2.4L608.3,7.8L608.3,7.8z M610.1,10.8
			c0-0.2-0.1-0.4-0.2-0.6c-0.1-0.3-0.2-0.5-0.3-0.6l-1.2,5.4l-1.6-0.4c0.5-1.6,1-3.5,1.4-5.6c0.2,0,0.4,0.1,0.7,0.2
			c0.3,0.1,0.6,0.2,0.7,0.2V9.3c1.4-0.8,2.5-1.8,3.4-3.1H610V4.9h2.6V3.2h-1.9V1.8h1.9V0.2h1.6v1.6h2.8V0.2h1.6v1.6h2.2v1.3h-2.2
			v1.8h2.8v1.3h-3.1c0.8,1.2,1.9,2.2,3.3,2.8l-0.8,1.4c-0.9-0.5-1.7-1.1-2.3-1.8v3.1H613v0.7c0,0.6,0.3,0.9,1,0.9h3.9
			c0.8,0,1.2-0.2,1.2-0.8c0-0.2,0.1-0.5,0.2-0.9c0-0.2,0.1-0.4,0.1-0.6c0.5,0.2,0.9,0.4,1.4,0.5c-0.1,0.6-0.2,1.2-0.4,1.7
			c-0.2,1-1,1.4-2.2,1.4h-4.8c-1.2,0-1.9-0.6-1.9-1.8V9.7C611.1,10.1,610.6,10.4,610.1,10.8L610.1,10.8z M608.8,3.7
			c-0.3-0.4-0.8-1-1.4-1.8c-0.3-0.4-0.5-0.6-0.6-0.8l1.4-0.8l2,2.4L608.8,3.7L608.8,3.7z M613,9.1v1.6h3.9V9.1H613z M614.5,6.2
			c-0.4,0.6-0.8,1.1-1.2,1.6h4.4c-0.2-0.2-0.6-0.7-1-1.4c0-0.1-0.1-0.2-0.1-0.2L614.5,6.2L614.5,6.2z M614.1,3.1v1.8h2.8V3.1H614.1z
			"/>
		<path class="st0" d="M624.7,2.9V1.6h6V0.2h1.7v1.4h6.1v1.3h-6.1v1.2h5.1v6.3h-5.1v1.2h6.6V13h-6.6v2.1h-1.7V13h-6.6v-1.4h6.6v-1.2
			h-5V4.1h5V2.9L624.7,2.9L624.7,2.9z M627.3,5.3v1.4h3.4V5.3H627.3z M627.3,7.8v1.4h3.4V7.8C630.7,7.8,627.3,7.8,627.3,7.8z
			 M635.8,5.3h-3.4v1.4h3.4V5.3z M632.4,7.8v1.4h3.4V7.8C635.8,7.8,632.4,7.8,632.4,7.8z"/>
		<path class="st0" d="M641.8,14.1l-0.3-1.6c1-0.1,2.1-0.2,3.2-0.4c0.2-0.7,0.4-1.7,0.7-2.9c0.4-1.7,0.7-2.9,0.8-3.7l1.6,0.3
			c-0.6,2.4-1.2,4.4-1.7,6l1.9-0.3c0,0.6,0,1.1,0,1.6C646.4,13.2,644.4,13.5,641.8,14.1L641.8,14.1z M641.7,4.7V3.2h2.4V0.2h1.6v2.9
			h2.4v1.5L641.7,4.7L641.7,4.7z M643.2,10.9c0-0.2-0.1-0.6-0.2-1.1c-0.3-1.8-0.6-3.2-0.8-4.1l1.4-0.2c0,0.2,0.1,0.4,0.2,0.8
			c0.4,1.8,0.7,3.2,0.9,4.2L643.2,10.9L643.2,10.9z M648.5,15.1V7.5h2.7V0.2h1.6V3h3.9v1.5h-3.9v3h3.2v7.6h-1.6v-1h-4.4v1
			C650.1,15.1,648.5,15.1,648.5,15.1z M650.1,9v3.8h4.4V9H650.1z"/>
		<path class="st0" d="M668.1,4.8v2.1c0,1.6-0.7,2.8-2.1,3.6l-0.6-0.7c1-0.6,1.6-1.5,1.6-2.6h-1.2V4.7L668.1,4.8L668.1,4.8z"/>
		<path class="st0" d="M677.7,14.9V2.2h4.5c0.2-0.8,0.4-1.5,0.6-2.1l1.9,0.2c-0.1,0.2-0.2,0.6-0.4,1.1c-0.1,0.4-0.2,0.7-0.2,0.8h7.1
			v10.4c0.1,1.4-0.7,2.1-2.2,2.1l-2.4,0.1c0-0.1-0.1-0.3-0.1-0.5c-0.1-0.5-0.2-0.9-0.2-1.1h2.1c0.8,0,1.2-0.3,1.2-0.9V3.8h-10v11.1
			H677.7L677.7,14.9z M681.1,11.7V5.8h6.4v5.9C687.5,11.7,681.1,11.7,681.1,11.7z M682.7,7.2v3h3.2v-3H682.7z"/>
		<path class="st0" d="M694.5,2.4V0.9h14.9v1.5h-4.8v2.1h4.1v10.6h-1.6v-0.9h-10.2v0.9h-1.6V4.5h4.1V2.4H694.5z M704.8,10.6
			c-1.2,0-1.9-0.6-1.9-1.9V6.1h-2c0,2.2-0.8,4-2.6,5.3c-0.4-0.4-0.8-0.8-1.2-1.2c1.5-0.9,2.2-2.3,2.2-4.1h-2.4v6.7h10.2v-2.1
			C707.1,10.6,704.8,10.6,704.8,10.6z M701,2.4v2.1h2V2.4C703,2.4,701,2.4,701,2.4z M704.6,8.4c0,0.5,0.2,0.7,0.9,0.7h1.6v-3h-2.5
			V8.4z"/>
		<path class="st0" d="M715.2,2.6h-2.9V1.2h4.9v1.8l-2.1,3h2v1.4c-0.2,1.8-0.7,3.3-1.3,4.4c1,0.9,2.5,1.3,4.5,1.4h6.8
			c-0.2,0.5-0.3,1-0.4,1.4c-2.8,0-4.9,0-6.6-0.1c-2.2,0-3.9-0.5-5.2-1.5c-0.5,0.6-1.2,1.3-2.1,2.1c-0.1-0.1-0.2-0.4-0.4-0.7
			c-0.2-0.3-0.3-0.5-0.4-0.7c0.8-0.6,1.4-1.2,1.9-1.8c-0.6-0.7-1.2-1.7-1.7-3.1l1.2-0.7c0.4,1.1,0.8,1.9,1.2,2.4
			c0.5-0.8,0.8-1.9,0.9-3.2h-1.4l-0.4,0.5H712L715.2,2.6L715.2,2.6z M717.4,11.5v-1.4h1.2V4.6h1.6v5.4h1.6V2.6
			c-1.1,0-2.3,0.1-3.6,0.2V2.6c0-0.3-0.1-0.8-0.2-1.3c3-0.1,5.8-0.2,8.4-0.5l0.2,1.4c-1,0.1-2,0.2-3.1,0.2v2.9h2.9v1.4h-2.9v3.3h3.2
			v1.4L717.4,11.5L717.4,11.5z"/>
		<path class="st0" d="M731.3,15.1V7.4c-0.4,0.7-0.9,1.3-1.4,2c0-0.4-0.1-0.8-0.2-1.4c0-0.4-0.1-0.7-0.1-0.8c1.3-2.1,2.3-4.4,3.1-7
			l1.6,0.4c-0.4,1.3-0.8,2.5-1.4,3.7v10.8H731.3L731.3,15.1z M738.5,15.1v-3.9h-2.4v0.9h-1.6V2.8h3.9V0.2h1.6v2.5h3.9v9.4h-1.6v-0.9
			h-2.3v3.9L738.5,15.1L738.5,15.1z M736.1,4.2v2.2h2.4V4.2H736.1z M736.1,7.7v2.1h2.4V7.7H736.1z M742.4,4.2h-2.3v2.2h2.3V4.2z
			 M740.1,7.7v2.1h2.3V7.7H740.1z"/>
		<path class="st0" d="M748.3,10.8V9.2h5.6v-2h1.8v2h5.6v1.5h-5.6v2.1h6.6v1.4h-15v-1.4h6.6v-2.1L748.3,10.8L748.3,10.8z M747.7,2.5
			V1h14.1v1.5h-7.1c-0.8,1-1.8,2.1-3.1,3.4l6.4-0.2c-0.6-0.6-1.2-1.2-1.8-1.8l1.2-0.9c1,0.8,2.5,2.2,4.3,3.9l-1.4,1.1L759.4,7
			c-1.6,0.1-4,0.2-7.1,0.4c-2,0.1-3.4,0.2-4.2,0.2l-0.2-1.4l1.6-0.1c1.3-1.5,2.3-2.7,2.9-3.6L747.7,2.5L747.7,2.5z"/>
		<path class="st0" d="M766.5,15.1V7.2c-0.1,0.1-0.2,0.2-0.3,0.4c-0.4,0.8-0.8,1.3-1.1,1.6c-0.1-0.7-0.2-1.4-0.4-2.1
			c1.2-1.9,2.2-4.2,2.9-6.9l1.6,0.4c-0.3,1.2-0.8,2.3-1.2,3.4v11H766.5L766.5,15.1z M769.2,4.5V3.2h10.6v1.3H769.2z M769.9,6.7V5.5
			h9.1v1.2H769.9z M769.9,8.9V7.6h9.1v1.2H769.9z M770,15.1V9.8h9v5.3h-1.6v-0.8h-5.9v0.8C771.5,15.1,770,15.1,770,15.1z M770.7,2.2
			V1h7.8v1.2H770.7z M771.5,11.1v2h5.9v-2H771.5z"/>
		<path class="st0" d="M782.8,2.8V1.7h4l-1.2-1.2l1.6-0.3c0.5,0.4,1.1,0.9,1.6,1.5l-0.1,0.1h2.7l-0.2-0.1c0.6-0.6,1.2-1.1,1.7-1.5
			l1.6,0.3l-1.2,1.2h4.1v1.1h-6.4v0.9h5.6v1h-5.6v0.9h6.8v1.2h-15V5.6h6.7V4.7h-5.5v-1h5.5V2.8H782.8L782.8,2.8z M795.3,15
			c-1,0-1.8-0.3-2.4-1c-0.1-0.2-0.2-0.3-0.4-0.4c-1,0.5-2.1,1-3.4,1.4c0-0.2-0.2-0.5-0.5-0.9c-0.1-0.1-0.2-0.2-0.2-0.3
			c0.1,0,0.2-0.1,0.4-0.1c1.4-0.3,2.4-0.7,3-1c-0.3-0.6-0.5-1.4-0.8-2.2h-3.6v0.9l2.6-0.2v1.1l-2.6,0.2v0.8c0,1-0.6,1.5-1.7,1.6
			h-1.9c0-0.2-0.1-0.5-0.2-0.9c0-0.1-0.1-0.2-0.1-0.3c0.4,0,0.9,0.1,1.4,0.1c0.7,0,1-0.2,1-0.8v-0.4l-3.2,0.2l-0.2-1.2l3.4-0.2v-1.1
			h-3.4V9.2h3.4V8.4l-2.5,0.1c0-0.1,0-0.3-0.1-0.5c0-0.2-0.1-0.3-0.1-0.4c2.3,0,4.4-0.1,6.2-0.2l0.2,0.9h-0.2
			c-0.6,0.1-1.3,0.1-1.9,0.1v0.9h3.4c-0.1-0.6-0.1-1.3-0.1-2.1h1.5c0,0.7,0.1,1.4,0.2,2.1h2.6c0,0-0.1-0.1-0.2-0.2
			c-0.4-0.3-0.9-0.8-1.5-1.2l0.9-0.8c0.2,0.1,0.4,0.3,0.8,0.6c0.5,0.4,0.8,0.6,1,0.8l-1,0.9h2.4v1.2h-4.8c0.1,0.6,0.3,1.1,0.4,1.4
			c0.7-0.4,1.4-0.9,2-1.4l0.9,0.9c-0.8,0.6-1.5,1.2-2.2,1.7c0.1,0,0.2,0.1,0.2,0.2c0.1,0.1,0.2,0.2,0.2,0.2c0.2,0.2,0.5,0.3,0.9,0.3
			c0.4,0,0.6-0.1,0.7-0.4c0.1-0.2,0.2-0.8,0.4-1.5c0.2,0.1,0.4,0.2,0.7,0.3c0.2,0.1,0.4,0.2,0.6,0.2c-0.1,0.5-0.3,1-0.4,1.5
			C796.8,14.5,796.2,15,795.3,15L795.3,15z"/>
		<path class="st0" d="M800,4.2V2.9h6.8v1.3H800z M800.5,6.5V5.2h5.8v1.2H800.5z M800.5,8.8V7.5h5.8v1.2H800.5z M800.6,15V9.8h5.6
			v5.2h-1.5v-0.7h-2.6V15C802.1,15,800.6,15,800.6,15z M800.8,1.9V0.7h5.2v1.2C806,1.9,800.8,1.9,800.8,1.9z M802.1,11.1v2h2.6v-2
			H802.1z M806.9,6.9V5.4h3.2V0.2h1.7v5.2h3.2v1.6h-3.2v8.1h-1.7V6.9L806.9,6.9L806.9,6.9z"/>
		<path class="st0" d="M817.6,3.8v-1h6.6V2h-5.5V1.1h5.5v-1h1.8v1h5.4v1.6h1.4v1h-1.4v1.6h-5.4v0.7h5.6v0.8h-5.6v0.8h6.6v0.9h-14.7
			V7.5h6.4V6.8h-5.6V6h5.6V5.4h-5.6V4.5h5.6V3.7L817.6,3.8L817.6,3.8z M817.6,14.6v-1.1h15.1v1.1C832.7,14.6,817.6,14.6,817.6,14.6z
			 M819,13V9.2h12.2V13H819z M820.7,10v0.8h3.7V10H820.7z M820.7,11.5v0.8h3.7v-0.8H820.7z M829.7,2h-3.8v0.8h3.8V2z M825.9,3.8v0.8
			h3.8V3.8H825.9z M829.7,10h-3.8v0.8h3.8V10z M825.9,11.5v0.8h3.8v-0.8H825.9z"/>
		<path class="st0" d="M836,2.1V0.8h13.9v1.4H838v10.7c0,0.3,0.2,0.5,0.6,0.5h11.5v1.3h-12.2c-0.9,0-1.4-0.5-1.4-1.3V2.1H836
			L836,2.1z M839.1,12.2V8h4.6v4.2H839.1z M840.3,7V3.1h7.8V7L840.3,7L840.3,7z M840.4,9.1v1.9h2V9.1H840.4z M841.8,4.3v1.6h4.8V4.3
			H841.8z M844.8,12.2V8h4.6v4.2H844.8z M846.1,9.1v1.9h2.1V9.1H846.1z"/>
		<path class="st0" d="M0.7,32.4v-4.6h5.2v-1.6h1.8v1.6h5.1v4.6H7.6v1.4h5.9v5.4h-1.7v-0.7H7.6v2.7H5.9v-2.7H1.7v0.7H0v-5.4h5.9
			v-1.4H0.7z M1.7,35.1v1.9h4.2v-1.9H1.7z M2.4,29.2V31h3.5v-1.8H2.4z M11.1,29.2H7.6V31h3.5V29.2z M11.8,35.1H7.6v1.9h4.2
			L11.8,35.1L11.8,35.1z"/>
		<path class="st0" d="M19.2,32.4c-0.9-0.9-1.7-1.7-2.5-2.4l1.1-1c0.4,0.3,1,0.9,1.9,1.6c0.3,0.3,0.5,0.5,0.6,0.6L19.2,32.4
			L19.2,32.4z M17.4,41l-0.7-1.7l1.7-1.6v-3.4h-1.6v-1.5H20v4.8c0.7,1.1,1.9,1.7,3.6,1.6c2.6,0,5.4,0,8.4,0
			c-0.2,0.6-0.4,1.1-0.5,1.4c-3.8,0-6.5,0-8.2-0.1c-1.8,0-3.1-0.5-3.9-1.6C18.7,39.5,18.1,40.1,17.4,41L17.4,41z M19.6,29.4
			c-0.9-0.9-1.7-1.7-2.5-2.4l1-1c0.8,0.6,1.7,1.4,2.6,2.2L19.6,29.4L19.6,29.4z M21.2,28.6v-1.2h4.2v-1.1h1.6v1.1h4.2v1.2h-4.2v1.1
			h3.8v5.6h-3.8v1.1h4.6v1.2h-4.6v1.2h-1.6v-1.2h-4.6v-1.2h4.6v-1.1h-3.8v-5.6h3.8v-1.1H21.2z M23.2,30.8v1.2h2.2v-1.2H23.2z
			 M23.2,33.1v1.2h2.2v-1.2H23.2z M29.3,30.8h-2.2v1.2h2.2V30.8z M27.1,33.1v1.2h2.2v-1.2H27.1z"/>
		<path class="st0" d="M35.8,33.2v-5.6h1.7v4.1H41v-5.4h1.8v5.4h3.5v-4.1h1.8v5.6h-5.2v5.6h4.1v-3.9h1.7v6.1h-1.7v-0.6H37v0.6h-1.7
			v-6.1H37v3.9H41v-5.6H35.8L35.8,33.2z"/>
		<path class="st0" d="M52,33.6v-1.2h15.1v1.2h-7.8v7.6h-1.4v-1.2c-1,0.1-2.2,0.2-3.8,0.4c-0.8,0.1-1.4,0.2-1.9,0.2L52,39.3l1.3-0.1
			v-5.6L52,33.6L52,33.6z M53.9,31.5v-4.7h11.2v4.7H53.9z M54.9,33.6v1.1h3v-1.1H54.9z M54.9,35.7v1.1h3v-1.1H54.9z M54.9,39.1
			c0.3,0,0.7,0,1.2-0.1c0.8,0,1.3-0.1,1.8-0.1v-1.1h-3V39.1L54.9,39.1z M55.6,27.9v0.9h7.9v-0.9H55.6z M55.6,29.6v0.8h7.9v-0.8H55.6
			z M66.5,41c-1.3-0.4-2.3-0.9-3.2-1.6c-0.5,0.4-1.5,1-2.9,1.7c-0.2-0.4-0.4-0.8-0.8-1.3c1-0.3,1.9-0.7,2.6-1.1
			c-0.7-0.8-1.3-1.7-1.8-2.8l0.4-0.2H60v-1.2h6.2v1.3c-0.5,1.1-1.1,2.1-1.8,2.9c0.8,0.4,1.7,0.8,2.7,1C66.9,40.1,66.7,40.5,66.5,41
			L66.5,41z M64.7,35.6h-2.9c0.5,0.9,1,1.6,1.5,2.1C63.8,37.2,64.3,36.5,64.7,35.6z"/>
		<path class="st0" d="M69.6,38v-1.3h1.9v-9.8h11.4v9.8h1.9V38H69.6L69.6,38z M70.8,41.2c-0.2-0.5-0.4-0.9-0.8-1.4
			c2-0.3,3.7-0.9,5.1-1.6l0.8,1.2C74.3,40.1,72.6,40.7,70.8,41.2L70.8,41.2z M73.1,28.2v1.2h8.1v-1.2H73.1z M73.1,30.6v1.2h8.1v-1.2
			H73.1z M73.1,33v1.3h8.1V33H73.1z M73.1,35.4v1.3h8.1v-1.3H73.1z M83.4,41.3c-2.1-1-3.8-1.7-5.1-2l0.6-1.1
			c1.7,0.5,3.4,1.1,5.2,1.7C83.9,40.2,83.6,40.7,83.4,41.3L83.4,41.3z"/>
		<path class="st0" d="M88.7,41.1v-7.9c-0.4,0.8-0.8,1.5-1.2,2.1c0-0.5-0.1-1-0.2-1.7c0-0.2-0.1-0.4-0.1-0.5c1.1-1.9,2-4.2,2.6-6.9
			l1.5,0.3c-0.3,1.2-0.6,2.2-1,3.2v11.4L88.7,41.1L88.7,41.1z M91.4,41.2c0-0.1-0.1-0.2-0.1-0.4c-0.2-0.4-0.3-0.7-0.4-0.9
			c0.3-0.1,0.5-0.1,0.4-0.1c2-0.4,3.3-0.7,4-0.8l0.6,1C94.4,40.5,92.9,40.8,91.4,41.2L91.4,41.2z M91.4,27.9v-1.1h10.9v1.1h-3.4v1h3
			v3H91.5v-3h2.9v-1C94.4,27.9,91.4,27.9,91.4,27.9z M92.1,38.9v-6.1h9.2v6.1H92.1z M92.9,29.9V31h1.6v-1.1H92.9z M93.6,33.7v0.8
			h6.1v-0.8H93.6z M93.6,35.4v0.8h6.1v-0.8H93.6z M93.6,37.1v0.9h6.1v-0.9H93.6z M95.8,27.9v1h1.7v-1H95.8z M95.8,29.9V31h1.7v-1.1
			H95.8z M101.8,41.1c-1.9-0.5-3.3-0.8-4.4-1l0.6-1c0.3,0,0.8,0.1,1.5,0.2c1.3,0.2,2.3,0.4,2.8,0.6L101.8,41.1L101.8,41.1z
			 M100.5,29.9h-1.6V31h1.6V29.9z"/>
		<path class="st0" d="M106.3,41.1v-7.9c-0.4,0.7-0.8,1.3-1.2,2.1c0-0.2-0.1-0.5-0.2-0.9c-0.1-0.5-0.2-0.9-0.2-1.1
			c1.3-2.2,2.3-4.5,3-7l1.6,0.4c-0.4,1.2-0.8,2.4-1.3,3.6v10.9C107.9,41.1,106.4,41.1,106.3,41.1z M109.3,28.8v-1.3h4.2v-1.3h1.6
			v1.3h4.5v1.3h-4.5v1.2h3.6v9.2h1.2v1.3h-11.2v-1.3h1.2v-9.2h3.6v-1.2H109.3L109.3,28.8z M111.5,31.3v1.2h5.7v-1.2
			C117.2,31.3,111.5,31.3,111.5,31.3z M111.5,33.6v1.2h5.7v-1.2H111.5z M111.5,35.9v1.2h5.7v-1.2H111.5z M111.5,38.2v1.1h5.7v-1.1
			H111.5z"/>
		<path class="st0" d="M122.9,40.9V28.6h1.7c0.1-0.5,0.3-1.1,0.5-1.9c0-0.2,0.1-0.4,0.1-0.6l1.8,0.2c-0.2,0.8-0.4,1.5-0.6,2.2h2.7
			v12.2h-1.6v-1.1h-2.9v1.2L122.9,40.9L122.9,40.9z M124.6,30.2v3.2h2.9v-3.2H124.6z M124.6,35v3.2h2.9V35H124.6z M131.4,40.8
			c-0.1-0.6-0.2-1.2-0.3-1.6h1.1c0.5,0,1,0.1,1.2,0.1c1.1,0,1.7-0.5,1.7-1.6c0-0.7,0.1-2.1,0.1-4.2c0-1.5,0.1-2.6,0.1-3.2h-3.4
			c-0.4,0.8-0.8,1.6-1.1,2.3c-0.1,0-0.2-0.1-0.4-0.2c-0.2-0.1-0.6-0.3-1.1-0.6c1-1.8,1.7-3.6,2.2-5.5l1.7,0.4c0,0.2-0.1,0.4-0.2,0.7
			c-0.2,0.6-0.3,1-0.5,1.4h4.5c-0.1,4.5-0.2,7.7-0.2,9.4c0,1.9-0.9,2.8-2.7,2.8C133.2,40.8,132.3,40.8,131.4,40.8L131.4,40.8z
			 M132.7,36.6c-0.7-1.1-1.5-2.2-2.3-3.3l1.3-0.8c0.8,0.9,1.6,1.9,2.4,3.2L132.7,36.6L132.7,36.6z"/>
		<path class="st0" d="M140.1,32.2V31h15v1.2h-6.7v0.9h5v5.4h-11.7v-5.4h5v-0.9H140.1z M140.9,41.2c-0.3-0.6-0.5-1-0.6-1.3
			c0.4-0.1,1-0.2,1.9-0.4c1.5-0.2,2.7-0.5,3.5-0.8l0.8,1C144.8,40.2,142.9,40.8,140.9,41.2L140.9,41.2z M140.5,28.6v-1.2h3.1v-1.2
			h1.6v1.2h4.6v-1.2h1.6v1.2h3.1v1.2h-3.1v1.6h-7.9v-1.6H140.5L140.5,28.6z M143.4,34.2v1.1h3.3v-1.1H143.4z M143.4,36.3v1.1h3.3
			v-1.1H143.4z M145.3,28.4v1h4.6v-1H145.3z M151.8,34.2h-3.4v1.1h3.4V34.2z M148.4,36.3v1.1h3.4v-1.1H148.4z M154.3,41.2
			c-2-0.5-3.8-1-5.6-1.4l0.6-1c2,0.4,3.8,0.8,5.5,1.1L154.3,41.2L154.3,41.2z"/>
		<path class="st0" d="M171.8,32.2c-0.8-0.3-1.4-0.6-2.1-0.9v1.2H166v1.7h5.3v1.5H166v3.5h6.2v1.4H158v-1.4h6.2v-3.5H159v-1.5h5.3
			v-1.7h-3.9v-1.1c-0.6,0.3-1.2,0.6-1.9,0.9c-0.1-0.1-0.2-0.3-0.3-0.5c-0.3-0.5-0.5-0.8-0.6-1c3.5-1.3,5.8-3,7.1-4.9l1.9,0.2
			l-0.4,0.5c1.6,1.9,3.8,3.2,6.5,3.9c-0.1,0.2-0.2,0.4-0.4,0.8C172.1,31.8,171.9,32.1,171.8,32.2L171.8,32.2z M161.5,39
			c-0.3-0.4-1-1.2-1.9-2.2l1.2-0.8c0.5,0.5,1,1.2,1.8,2c-0.1-0.1,0,0,0.2,0.2L161.5,39z M165.3,27.9c-1,1.2-2.4,2.2-4.1,3.2h8
			C167.7,30.2,166.4,29.1,165.3,27.9z M168.6,39l-1.2-0.8c0,0,0.1-0.1,0.1-0.2c0.8-0.9,1.4-1.6,1.8-2.1l1.4,0.8
			C170.1,37.3,169.4,38.1,168.6,39z"/>
		<path class="st0" d="M175.3,40v-1.6h14.9V40H175.3z M176.2,29.2v-1.8h12.9v1.8H176.2z M177,34.5v-1.8h11.5v1.8H177z"/>
		<path class="st0" d="M194,32.1c-0.6-0.6-1-1-1.2-1.2c2-1.4,3.5-3,4.6-4.8l1.9,0.2l-0.8,1.1h5.9v1.3l-1.4,1.4h3.8v8.6
			c0,1.3-0.6,2-1.9,2c-0.5,0-1.2,0.1-2.1,0.1c0-0.4-0.1-0.9-0.3-1.5c0.3,0,0.9,0.1,1.8,0.1c0.7,0,1-0.2,1-0.9v-0.9h-9.1
			c-0.2,1.1-0.7,2.2-1.6,3.5c-0.6-0.5-1.1-0.8-1.6-1.1c0.8-0.9,1.3-1.7,1.5-2.5c0.2-0.8,0.3-2,0.3-3.8v-2.2
			C194.5,31.7,194.3,31.9,194,32.1L194,32.1z M202.2,28.8h-4.8c-0.4,0.5-0.8,0.9-1.2,1.4h4.7L202.2,28.8z M196.3,34.6
			c0,0.2,0,0.5-0.1,0.9v0.8h3.6v-1.8H196.3z M196.3,31.6v1.7h3.5v-1.7H196.3z M205.1,31.6h-3.7v1.7h3.7V31.6z M201.4,34.6v1.8h3.7
			v-1.8H201.4z"/>
		<path class="st0" d="M210.6,28.8v-1.2h2.6v-1.4h1.4v1.4h2.5v1.2h-2.5V30h2.2v6.2h-2.2v1.2h2.6v1.3h-2.6v2.3h-1.4v-2.3h-2.8v-1.3
			h2.8v-1.2h-2.2V30h2.2v-1.2H210.6z M212.1,31.1v1.4h1.2v-1.4C213.3,31.1,212.1,31.1,212.1,31.1z M212.1,33.6v1.5h1.2v-1.5H212.1z
			 M215.6,31.1h-1.2v1.4h1.2C215.6,32.6,215.6,31.1,215.6,31.1z M214.4,33.6v1.5h1.2v-1.5H214.4z M217.8,41.1V28.9h2.9v-2.7h1.4v2.7
			h2.9v12.1h-1.3v-1h-4.6v1H217.8L217.8,41.1z M219.1,30.4v3.4h1.6v-3.4C220.6,30.4,219.1,30.4,219.1,30.4z M219.1,35.2v3.6h1.6
			v-3.6H219.1z M223.6,30.4H222v3.4h1.6V30.4z M222,35.2v3.6h1.6v-3.6H222z"/>
		<path class="st0" d="M228.3,35.8l-0.4-1.4l0.9-0.1l1.5-2.2l-2.7-2.1l0.9-1c0.1,0.1,0.3,0.2,0.5,0.3c0.6-1,1.1-2.1,1.6-3.2l1.5,0.5
			c-0.7,1.2-1.4,2.4-2.1,3.5c0.4,0.2,0.7,0.5,1.1,0.8c0.5-0.8,1-1.5,1.4-2.2l1.2,0.7c-1.3,2-2.4,3.7-3.3,4.9l1.6-0.1l-0.5-1.2
			l1.1-0.3c0.5,1.2,0.9,2.3,1.2,3.2l-1.1,0.4v-0.1c0-0.2-0.1-0.4-0.2-0.7c-0.3,0-0.6,0-0.9,0.1v5.8h-1.4v-5.7l-0.4,0.1
			C229.2,35.7,228.7,35.7,228.3,35.8L228.3,35.8z M229.1,40.6c-0.2,0-0.5-0.1-0.8-0.1c-0.2,0-0.3-0.1-0.4-0.1
			c0.2-1.1,0.5-2.2,0.6-3.5l1.1,0.1C229.4,38.4,229.2,39.6,229.1,40.6L229.1,40.6z M232.8,39.3c0-0.1-0.1-0.2-0.2-0.5
			c-0.1-0.5-0.3-1.1-0.6-2l0.9-0.2c0,0.2,0.1,0.4,0.2,0.8c0.1,0.2,0.3,0.7,0.6,1.5c0.9-0.7,1.5-1.6,1.8-2.7h-1.6v-1.3h3.1v1.3
			c-0.3,1.7-1.3,3.1-3.1,4.3c-0.1-0.2-0.2-0.6-0.4-1c0-0.1-0.1-0.2-0.1-0.2L232.8,39.3L232.8,39.3z M234.2,33.6v-6.1h2.4
			c0.1-0.5,0.2-0.9,0.3-1.4l1.7,0.2l-0.4,1.2h3.9v6.1H239v0.4c0.2,0.7,0.5,1.4,0.9,2c0.7-0.6,1.4-1.2,2-1.9l1.1,0.9
			c-0.2,0.1-0.4,0.3-0.8,0.7c-0.2,0.2-0.7,0.6-1.5,1.2c0.6,0.7,1.5,1.4,2.6,2c-0.3,0.4-0.6,0.8-0.8,1.2c-1.6-1-2.8-2.1-3.4-3.4v2.4
			c0,1-0.5,1.6-1.6,1.6c-0.5,0-1.1,0.1-1.8,0.1c0,0,0-0.1-0.1-0.2c0-0.5-0.1-0.9-0.2-1.2h1.2c0.6,0,0.9-0.2,0.9-0.8v-5.1L234.2,33.6
			L234.2,33.6z M235.7,28.7v1.3h5v-1.3H235.7z M235.7,31.1v1.3h5v-1.3H235.7z"/>
		<path class="st0" d="M254.5,30.8v2.1c0,1.6-0.6,2.8-2.1,3.6l-0.6-0.7c1-0.6,1.6-1.5,1.6-2.6h-1.2v-2.4L254.5,30.8L254.5,30.8z"/>
		<path class="st0" d="M271.2,34v-1.8h5.1V34h-2.3v0.6h3.4v0.6h-3.4v0.7h3.1v0.6h-3.1v0.6h4.1v0.8h-2.1l0.6,0.7l-1.9,0.7
			c1,0.2,2.1,0.3,3.5,0.4c-0.3,0.6-0.5,1-0.6,1.2c-2.6-0.3-4.5-0.8-5.8-1.5c0,0.1,0,0.3-0.1,0.5s-0.1,0.4-0.1,0.5
			c-0.2,0-0.7,0.1-1.2,0.2c-2,0.2-3.3,0.5-4.1,0.7l-0.4-1.1l1-0.1v-0.8c-1.1,0.4-2.3,0.7-3.7,0.9c0-0.1-0.1-0.2-0.1-0.3
			c-0.1-0.3-0.2-0.6-0.2-0.7c2.2-0.3,4.1-0.7,5.6-1.3h-5.2v-0.8h3.9v-0.6h-3v-0.6h3v-0.7H264v-0.6h3.4V34h-2.2v-1.8h5.1V34h-1.3v0.6
			h3.6V34L271.2,34L271.2,34z M263.7,27.9v-0.9h6.2v-0.8h1.6v0.8h6.2v0.9h-6.2v0.6h5.2v1.9h-5.2v0.6h6.4V33h-1.5v-1.2H265V33h-1.5
			v-2.1h6.4v-0.6h-5.2v-1.9h5.2v-0.6H263.7z M266.3,29.1v0.6h3.6v-0.6H266.3z M266.4,32.8v0.6h2.6v-0.6H266.4z M270.3,38.3
			c-0.5,0.2-1.1,0.5-1.8,0.8v0.9l3.4-0.5C271.4,39.2,270.8,38.8,270.3,38.3L270.3,38.3z M268.9,35.2v0.7h3.6v-0.7H268.9z
			 M268.9,36.5v0.6h3.6v-0.6H268.9z M275.2,29.1h-3.6v0.6h3.6V29.1z M273.4,38.9c0.8-0.3,1.6-0.6,2.2-1h-4.1
			C272.1,38.4,272.7,38.7,273.4,38.9z M272.5,32.8v0.6h2.6v-0.6H272.5z"/>
		<path class="st0" d="M281,30.4v-1.5h1.6v-2.8h1.6v2.8h1.4v1.5h-1.4v2.9l1.5-0.4v1.6l-1.5,0.4v4.3c0,1-0.5,1.6-1.6,1.7h-1.4
			c0-0.2-0.1-0.4-0.2-0.8c0-0.3-0.1-0.6-0.1-0.8h1.1c0.5,0,0.7-0.2,0.7-0.6v-3.4l-1.7,0.4l-0.2-1.8c0.6-0.1,1.2-0.2,1.9-0.4v-3.2
			C282.6,30.4,281,30.4,281,30.4z M286.4,28.7c0-0.4-0.1-0.9-0.3-1.5c3-0.1,6-0.3,9.1-0.5l0.2,1.5c-0.5,0-1.1,0.1-2,0.1
			c-0.8,0.1-1.4,0.1-1.8,0.1v2.2h4.3v1.5h-4.3v2.2h3.5v6.7h-1.6v-0.8H288v0.8h-1.6v-6.7h3.5v-2.2h-4.1v-1.5h4.1v-2.1
			c-0.2,0-0.6,0-1.2,0.1C287.7,28.6,286.9,28.6,286.4,28.7L286.4,28.7z M288,35.8v3.1h5.4v-3.1H288z"/>
		<path class="st0" d="M313,30.7c-1.5-0.4-2.7-0.9-3.7-1.4v0.6h-6.6v-0.4c-0.2,0.1-0.5,0.2-0.9,0.4c-1.1,0.5-2.1,0.8-2.8,1.1
			l-0.6-1.4c3.1-0.9,5.5-2,7.2-3.3l2.1,0.1l-0.4,0.4c1.8,1.2,3.9,2.1,6.4,2.7l-0.2,0.4C313.2,30.2,313,30.5,313,30.7z M299.7,35.1
			v-4.4h12.5v4.4H299.7z M300.6,41.1v-5.2h10.8v5.2h-1.6v-0.5h-7.5v0.5H300.6L300.6,41.1z M301.2,31.8V34h3.9v-2.2H301.2z
			 M303.5,33.9c-0.1-0.1-0.4-0.3-0.7-0.6c-0.3-0.3-0.6-0.6-0.8-0.8l0.9-0.7c0.1,0.1,0.3,0.2,0.6,0.4c0.5,0.5,0.8,0.8,0.9,0.9
			L303.5,33.9L303.5,33.9z M302.2,36.9v0.9h7.5v-0.9H302.2z M302.2,38.7v0.8h7.5v-0.8H302.2z M306.1,27.4c-0.1,0.1-0.3,0.2-0.6,0.4
			c-0.8,0.5-1.4,0.9-1.9,1.1h4.9C307.6,28.5,306.8,28,306.1,27.4z M310.6,31.7h-3.9V34h3.9C310.6,34,310.6,31.7,310.6,31.7z
			 M308.3,33.9l-0.8-0.8c0.5-0.4,1-0.8,1.4-1.3l0.9,0.7C309.4,33,308.8,33.5,308.3,33.9L308.3,33.9z"/>
		<path class="st0" d="M317.2,41.1l-1.2-1.2c0.6-1,1-1.9,1.1-2.8c0.2-0.9,0.3-2.3,0.3-4.3v-5.9h12.8v3.9H319v1.5h2.8v-1.4h1.6v1.4
			h2.7v-1.4h1.6v1.4h2.7v1.2h-2.7v1.4h3.2v1.2H329l0.9,1.1c-0.8,0.4-1.6,0.8-2.4,1.2c0.9,0.5,2.1,0.8,3.6,0.9
			c-0.3,0.6-0.6,1.1-0.8,1.5c-3.6-0.8-5.9-2.3-6.9-4.8H322v3.2c0.9-0.2,1.8-0.5,2.5-0.8c0,0.5,0,0.9,0.1,1.3
			c-2.2,0.6-3.9,1.1-4.9,1.4l-0.4-1.4c0.1,0,0.3,0,0.5-0.1c0.3,0,0.5-0.1,0.7-0.1v-3.6h-1.5C318.7,38,318.2,39.6,317.2,41.1
			L317.2,41.1z M319,33.4l-0.1,1.4h2.8v-1.4H319z M319,28.1v1.3h9.5v-1.3H319z M323.4,33.4v1.4h2.7v-1.4H323.4z M326.2,37.8
			c1.2-0.6,2.1-1.2,2.7-1.6h-4.1C325.2,36.8,325.7,37.3,326.2,37.8L326.2,37.8z"/>
		<path class="st0" d="M343.5,34.9l-1.3,1.2l-3.4-3.8l1.2-1.1L343.5,34.9z"/>
		<path class="st0" d="M351.3,28.9v-1.2h2.8v-1.4h1.4v1.4h2.7v1.2h-2.7v1.2h2.4v6.2h-2.4v1.2h2.8v1.2h-2.8v2.3h-1.4v-2.3h-2.9v-1.2
			h2.9v-1.2h-2.4v-6.2h2.4v-1.2H351.3z M352.8,31.2v1.5h1.4v-1.5H352.8z M352.8,33.7v1.5h1.4v-1.5H352.8z M356.8,31.2h-1.3v1.5h1.3
			V31.2z M355.4,33.7v1.5h1.3v-1.5H355.4z M358.5,41.2c-0.1-0.2-0.3-0.4-0.6-0.8c-0.2-0.3-0.4-0.5-0.6-0.7c2.1-1.2,3.3-3.2,3.7-5.8
			c0.1-0.9,0.2-2,0.2-3.2h1.5c0,0.2,0,0.6-0.1,1.1v0.9c0.3,3.1,1.5,5.4,3.8,6.8c-0.1,0.1-0.2,0.3-0.4,0.5c-0.3,0.4-0.6,0.7-0.7,0.9
			c-1.8-1.5-3-3.2-3.4-5.1C361.6,37.8,360.5,39.5,358.5,41.2z M365.1,32.9l-1.4-0.4l0.8-2.5h-3.8c-0.2,0.5-0.6,1.3-1.1,2.4
			c-0.1,0.2-0.2,0.4-0.2,0.6c-0.4-0.3-0.9-0.6-1.4-0.8c1-1.8,1.7-3.8,2.2-6.1l1.5,0.2c-0.2,0.8-0.4,1.5-0.6,2.1h4.8V30L365.1,32.9
			L365.1,32.9z"/>
		<path class="st0" d="M368.9,33.8v-2.6h0.6v-4.5h5.1v4.5h0.6v2.5h-0.8v5.6c0,1-0.4,1.5-1.2,1.6c-0.2,0-0.4,0-0.7,0.1H372
			c0-0.5-0.1-0.9-0.2-1.2h0.9c0.4,0,0.5-0.2,0.5-0.4v-0.6H371v2.4h-1.2v-7.2L368.9,33.8L368.9,33.8z M370.1,32.4v1.1h3.9v-1.1H370.1
			z M370.7,27.9v3.3h0.9V29h1.8v-1.1C373.4,27.9,370.7,27.9,370.7,27.9z M371,34.5v1.1h2.2v-1.1H371z M371,36.6v1.1h2.2v-1.1H371z
			 M372.4,30v1.2h1V30H372.4z M375.9,38.2v-2.8h7.1v2.8H382l0.3,0.1c-0.2,0.4-0.5,0.8-0.8,1.2h2.4v1.1h-8.8v-1.1h2.4l-0.8-1.2
			l0.5-0.1L375.9,38.2L375.9,38.2z M375.4,34.6v-1.1h8.4v1.1H375.4z M375.7,32.7v-5.2h1.9v-1.3h1.2v1.3h1.1v-1.3h1.3v1.3h1.9v5.2
			H375.7z M376.9,28.5v1.1h1.1v-1.1H376.9z M376.9,30.5v1.1h1.1v-1.1H376.9z M377.3,36.3v0.9h4.4v-0.9H377.3z M378.1,38.2
			c0,0.1,0.1,0.2,0.2,0.4c0.1,0.2,0.3,0.5,0.6,0.9h1.1l0.8-1.3L378.1,38.2L378.1,38.2z M378.9,28.6v1.1h1.1v-1.1H378.9z M378.9,30.6
			v1.1h1.1v-1.1H378.9z M382.1,28.6H381v1.1h1.1V28.6z M381,30.6v1.1h1.1v-1.1H381z"/>
		<path class="st0" d="M396.3,34.9l-1.3,1.2l-3.4-3.8l1.2-1.1L396.3,34.9z"/>
		<path class="st0" d="M404.7,28.9v-1.3h6v-1.4h1.7v1.4h6.1v1.3h-6.1v1.2h5.1v6.3h-5.1v1.2h6.6V39h-6.6v2.1h-1.7V39h-6.6v-1.4h6.6
			v-1.2h-5v-6.3h5v-1.2C410.7,28.9,404.7,28.9,404.7,28.9z M407.3,31.3v1.4h3.4v-1.4C410.7,31.3,407.3,31.3,407.3,31.3z M407.3,33.8
			v1.4h3.4v-1.4H407.3z M415.8,31.3h-3.4v1.4h3.4C415.8,32.7,415.8,31.3,415.8,31.3z M412.4,33.8v1.4h3.4v-1.4H412.4z"/>
		<path class="st0" d="M421.8,40.1l-0.3-1.6c1-0.1,2.1-0.2,3.2-0.4c0.2-0.7,0.4-1.7,0.7-2.9c0.4-1.7,0.6-2.9,0.8-3.7l1.6,0.3
			c-0.6,2.4-1.2,4.4-1.7,6l1.9-0.3c0,0.6,0,1.1,0,1.6C426.4,39.2,424.4,39.5,421.8,40.1L421.8,40.1z M421.7,30.7v-1.5h2.4v-2.9h1.6
			v2.9h2.4v1.5H421.7z M423.2,36.9c0-0.2-0.1-0.6-0.2-1.1c-0.3-1.8-0.6-3.2-0.8-4.1l1.4-0.2c0,0.2,0.1,0.4,0.2,0.8
			c0.4,1.8,0.7,3.2,0.9,4.2L423.2,36.9L423.2,36.9z M428.5,41.1v-7.6h2.7v-7.3h1.6V29h3.9v1.5h-3.9v3h3.2v7.6h-1.6v-1h-4.4v1H428.5z
			 M430.1,35v3.8h4.4V35H430.1z"/>
		<path class="st0" d="M449.1,34.9l-1.3,1.2l-3.4-3.8l1.2-1.1L449.1,34.9z"/>
		<path class="st0" d="M456.9,30.2v-1.6h6.6v-2.5h1.9v2.5h6.3v1.6h-2.6c-0.6,2.6-1.8,4.8-3.4,6.6c1.5,1.1,3.5,1.9,6.1,2.5
			c-0.4,0.5-0.7,1.1-1.1,1.6c-2.7-0.8-4.9-1.8-6.5-2.9c-1.5,1-3.6,2.1-6.4,3.1c-0.2-0.5-0.6-1-1.1-1.7c2.4-0.6,4.4-1.4,6.1-2.6
			c-1.7-1.8-2.9-3.9-3.5-6.6L456.9,30.2L456.9,30.2z M464.3,35.7c1.5-1.4,2.5-3.2,3-5.4h-6C461.8,32.5,462.8,34.3,464.3,35.7z"/>
		<path class="st0" d="M475,31.6c0-0.1-0.1-0.2-0.2-0.5c-0.1-0.1-0.2-0.4-0.4-0.9c2.2-1.1,3.8-2.5,4.8-4.1l1.8,0.2l-0.4,0.5
			c0.4,0.3,1,0.8,1.8,1.4c1,0.8,1.7,1.2,2,1.5l-0.9,1.1l-1.8-1.6v0.6h-3.8v-0.2c-0.4,0.4-0.8,0.7-1.4,1.1h6.8v5.1h-6.1
			c0,0.1,0,0.2-0.1,0.3c0,0.3-0.1,0.6-0.1,0.7h6.4v4.1h-1.4v-0.7h-3.9v0.7h-1.4v-3.3c-0.2,0.9-0.8,1.8-1.5,2.9
			c-0.1-0.1-0.2-0.2-0.4-0.5c-0.3-0.3-0.5-0.5-0.6-0.6c1.2-1.4,1.8-3.6,1.6-6.6v-1.7L475,31.6L475,31.6z M477.2,33.7v1h4.5v-1H477.2
			z M477.3,31.7v1h4.4v-1C481.7,31.7,477.3,31.7,477.3,31.7z M478.1,37.8v1.3h3.9v-1.3H478.1z M481.1,28.9l-1.4-1.2
			c-0.3,0.4-0.7,0.8-1.1,1.2H481.1z M484.5,37.3v-9.4h1.4v9.4H484.5z M485,40.9v-0.1c0-0.4-0.1-0.9-0.2-1.4h1.7c0.7,0,1-0.2,1-0.9
			V26.3h1.5v12.6c0,1.3-0.6,2-1.8,2C486.2,40.9,485.5,40.9,485,40.9L485,40.9z"/>
		<path class="st0" d="M501.9,34.9l-1.3,1.2l-3.4-3.8l1.2-1.1L501.9,34.9z"/>
		<path class="st0" d="M511.3,33.5c-0.4-0.3-0.9-0.6-1.6-0.9c1.2-1.6,2.2-3.5,2.9-5.7l1.8,0.3c-0.2,0.8-0.5,1.4-0.8,2.1h3.1v-3.1
			h1.8v3.1h5.4v1.6h-5.4v3.1h4.9v1.6h-4.9v3.4h6.2v1.4h-14.8v-1.4h6.8v-3.4h-5.4v-1.6h5.4v-3.1h-3.9
			C512.5,31.7,511.9,32.6,511.3,33.5L511.3,33.5z"/>
		<path class="st0" d="M527.3,30.5V29h1.8v-2.8h1.6V29h1.6v1.5h-1.6v2.7l1.6-0.4c0,0.6,0,1.1,0.1,1.6l-1.7,0.4v4.3
			c0,1.1-0.5,1.7-1.6,1.8c-0.2,0-0.4,0-0.7,0.1h-0.8c-0.1-0.6-0.2-1.1-0.3-1.6h1.1c0.5,0,0.7-0.2,0.7-0.7v-3.4l-1.9,0.4l-0.1-1.8
			c0.6-0.1,1.2-0.2,2-0.4v-3.1L527.3,30.5L527.3,30.5z M532.8,29.9v-1.5h3.6v-2.2h1.6v2.2h4v1.5h-4v2.1h3.3v1.5
			c-0.8,1.9-1.8,3.3-2.9,4.3c1,0.7,2.3,1.2,3.8,1.6c-0.3,0.6-0.6,1.1-0.8,1.6c-1.8-0.7-3.2-1.3-4.3-2.1c-1.3,0.8-2.9,1.6-4.7,2.2
			c-0.1-0.2-0.3-0.5-0.6-0.9c-0.2-0.2-0.3-0.4-0.3-0.5c1.8-0.5,3.2-1.1,4.4-1.9c-1-1-1.9-2.4-2.6-4.1l0.5-0.2h-0.9v-1.4h3.5v-2.1
			L532.8,29.9L532.8,29.9z M539.6,33.5h-4.7c0.6,1.4,1.4,2.5,2.3,3.4C538.3,36,539.1,34.8,539.6,33.5z"/>
		<path class="st0" d="M554.7,34.9l-1.3,1.2l-3.4-3.8l1.2-1.1L554.7,34.9z"/>
		<path class="st0" d="M562.9,35.9l-0.4-1.2c0.1,0,0.2,0,0.4-0.1h0.3c0.6-0.8,1.1-1.5,1.6-2.4c-0.8-0.8-1.6-1.5-2.5-2.2l0.8-0.9
			l0.4,0.2c0.6-1,1.2-2,1.7-3.1l1.5,0.5c-0.2,0.2-0.4,0.6-0.7,1.1c-0.7,1.1-1.2,1.9-1.5,2.3l1.1,0.9c0.3-0.4,0.7-1,1.2-1.9
			c0.1-0.2,0.2-0.4,0.2-0.4l1.2,0.7c-1.1,1.6-2.3,3.3-3.6,5.1l1.8-0.1c0-0.1-0.1-0.3-0.2-0.6c-0.1-0.2-0.2-0.4-0.2-0.6l1.1-0.4
			c0.3,0.6,0.7,1.5,1.1,2.7c0,0.2,0.1,0.3,0.1,0.4l-1.2,0.4l-0.2-0.6h-0.8v5.6h-1.4v-5.6l-0.6,0.1c-0.2,0-0.4,0-0.6,0.1
			C563.2,35.8,563,35.8,562.9,35.9L562.9,35.9z M563.4,40.3l-1.1-0.1c0.3-1.4,0.5-2.6,0.6-3.4l1.1,0.1c0,0.4-0.1,1-0.2,1.8
			C563.6,39.3,563.5,39.9,563.4,40.3z M568.6,36.6v-1.4h8.5v1.4h-3.6v2.6h4v1.4H568v-1.1l-0.5,0.1c-0.2-0.8-0.4-1.7-0.8-2.8l0.9-0.2
			c0.2,0.4,0.4,1.1,0.8,2.1c0.1,0.2,0.2,0.4,0.2,0.6h3.4v-2.6H568.6L568.6,36.6z M570,34.8c-0.8-1.1-1.4-2-2.1-2.9
			c0.7-0.8,1.3-1.8,2-2.9l1.2,0.6c-0.8,1-1.3,1.8-1.7,2.2c0.6,0.7,1.2,1.4,1.8,2.2L570,34.8L570,34.8z M568.4,28.5V27h8.8v1.5H568.4
			z M573.1,34.8c-0.4-0.5-0.9-1.3-1.7-2.4c-0.2-0.2-0.3-0.4-0.4-0.6c0.8-1,1.5-2,2-2.9l1.2,0.6c-0.8,1-1.3,1.8-1.7,2.2
			c0.4,0.4,1,1.1,1.8,2.2L573.1,34.8L573.1,34.8z M576.2,34.8c-0.5-0.8-1.3-1.7-2.2-2.9c0.1-0.1,0.2-0.3,0.5-0.6
			c0.8-1,1.3-1.8,1.6-2.2l1.2,0.6c-0.3,0.4-0.7,0.9-1.3,1.7c-0.2,0.2-0.3,0.4-0.4,0.6c0.4,0.4,1,1.1,1.8,2.1L576.2,34.8z"/>
		<path class="st0" d="M580.7,41.2c0-0.2-0.2-0.4-0.3-0.8c-0.1-0.2-0.2-0.4-0.2-0.5c1.2-0.2,2.9-0.5,5.2-0.9c-0.2,0,0,0,0.4-0.1
			l0.6,1C584.5,40.4,582.6,40.8,580.7,41.2z M586.4,31.6c-0.2-0.2-0.3-0.5-0.6-0.8c-1.5,0.4-3.1,0.9-4.9,1.4l-0.4-1.2
			c0.1,0,0.2-0.1,0.3-0.1c0.1,0,0.2-0.1,0.3-0.1v-3.9c1.9,0,3.7-0.2,5.4-0.5l0.5,1.2c-1.3,0.2-2.8,0.4-4.4,0.5v2.2
			c0.2-0.1,0.6-0.2,1.1-0.3c0.7-0.2,1.2-0.3,1.4-0.4c-0.2-0.3-0.5-0.6-0.7-0.9l1.2-0.6c0.8,0.9,1.4,1.7,1.9,2.4
			c0.9-0.5,1.3-1.4,1.4-2.4h-1.2v-1.2h6.8c0,0.6,0,1.4-0.1,2.2c0,0.2-0.1,0.4-0.1,0.5c0,1.4-0.8,2.1-2.2,2.1h-1.7
			c-0.1-0.5-0.2-0.9-0.3-1.3c0.5,0,1.1,0.1,1.6,0.1c0.8,0,1.1-0.3,1.1-0.9V29c0-0.4,0.1-0.6,0.1-0.8h-2.5c0,1.7-0.8,3-2.6,4
			c-0.2-0.2-0.5-0.5-0.8-0.9C586.9,31.3,586.4,31.6,586.4,31.6z M581.8,38.8v-6.4h11.5v6.4H581.8z M583.4,33.4v0.8h8.2v-0.8H583.4z
			 M583.4,35.2V36h8.2v-0.8H583.4z M583.4,36.9v0.8h8.2v-0.8H583.4z M594.4,41.1c-2.7-0.5-4.6-0.9-5.7-1.2l0.6-1
			c1.8,0.4,3.7,0.7,5.6,0.9L594.4,41.1L594.4,41.1z"/>
		<path class="st0" d="M598.7,30.7c-0.4-0.4-0.8-0.7-1.2-1.1c1.2-1,2.2-2.2,2.8-3.6l1.6,0.2c-0.2,0.4-0.4,0.8-0.6,1.2h4v1.2h-3.1
			c0.2,0.2,0.5,0.5,0.9,0.9c0.2,0.2,0.3,0.4,0.4,0.4l-1.1,0.9c-0.4-0.5-0.9-1-1.4-1.5l0.9-0.7h-1.4
			C600.1,29.2,599.5,29.9,598.7,30.7L598.7,30.7z M598.8,32.2V31h5.4v-0.9h1.7V31h5.6v1.2h-5.6v1.2h6.7v1.4h-14.9v-1.4h6.5v-1.2
			H598.8z M598.2,37.4v-1.3h9.3v-1.2h1.7v1.2h2.9v1.3h-2.9v1.4c0,1.4-0.7,2.1-2.2,2.1c-0.6,0-1.4,0.1-2.4,0.1c0-0.2-0.1-0.6-0.2-1.1
			c0-0.2-0.1-0.3-0.1-0.4c0.8,0,1.4,0.1,2.1,0.1c0.8,0,1.2-0.3,1.2-1.1v-1.1h-6c0.4,0.3,1,0.8,1.9,1.4c-0.1,0,0,0,0.2,0.2l-1.1,1
			c-0.5-0.5-1.2-1.1-2.2-1.8l0.9-0.9L598.2,37.4L598.2,37.4z M606.2,30.2c-0.1-0.1-0.3-0.2-0.5-0.3c-0.4-0.2-0.7-0.4-0.9-0.5
			c1-1,1.7-2.2,2.2-3.4l1.6,0.2c-0.2,0.4-0.3,0.8-0.6,1.2h4.5v1.2h-3.4c0.2,0.1,0.4,0.3,0.8,0.6c0.3,0.2,0.5,0.5,0.7,0.6l-1,0.9
			c-0.5-0.5-1-1-1.6-1.4l0.8-0.8h-1.5C607,29.2,606.6,29.7,606.2,30.2L606.2,30.2z"/>
		<path class="st0" d="M615.4,31.9v-1.7h6.5v-3.9h1.8v3.9h6.5v1.7H615.4z M617,40.9c-0.8-0.6-1.2-1-1.5-1.2c1.7-1.9,3.2-4,4.4-6.3
			l1.7,0.8C620,37,618.5,39.2,617,40.9L617,40.9z M628.2,40.8c-1.9-2.9-3.3-5.1-4.4-6.5l1.5-0.9c0.2,0.3,0.5,0.8,1,1.4
			c1.7,2.3,2.8,4,3.5,4.9C629.9,39.8,628.2,40.8,628.2,40.8z"/>
		<path class="st0" d="M633.1,31.9v-1.7h6.3c0-0.9,0.1-2.2,0.1-3.9h1.9l-0.1,3.9h6.3v1.7h-6.2c0.5,3.6,2.7,6.1,6.6,7.4
			c-0.4,0.4-0.8,0.9-1.2,1.6c-3.5-1.5-5.6-3.7-6.3-6.6c-0.7,2.8-2.8,5.1-6.3,6.8c-0.1-0.2-0.3-0.5-0.7-0.9c-0.2-0.3-0.4-0.5-0.5-0.6
			c4-1.7,6.1-4.2,6.4-7.6L633.1,31.9L633.1,31.9z"/>
		<path class="st0" d="M651.2,36.9v-7.8h5.8v-3h1.8v3h5.8v7.7h-1.8V36h-4.1v5.2H657V36H653v0.9L651.2,36.9L651.2,36.9z M653,30.8
			v3.6h4.1v-3.6H653z M662.9,30.8h-4.1v3.6h4.1V30.8z"/>
		<path class="st0" d="M669.5,37.4c-0.2-0.1-0.6-0.3-1.1-0.4c-0.2-0.1-0.4-0.2-0.5-0.2c0.8-2.2,1.3-4.2,1.7-5.9l1.7,0.5
			C670.7,33.5,670.1,35.5,669.5,37.4L669.5,37.4z M674.5,40.6c-1.8,0-2.6-0.8-2.6-2.4v-8.6h1.8v8.2c0,0.9,0.4,1.3,1.3,1.3h1.9
			c0.9,0,1.4-0.4,1.6-1.2c0-0.1,0-0.3,0.1-0.7c0.1-0.6,0.2-1,0.2-1.4c0.2,0,0.5,0.2,0.9,0.3c0.4,0.1,0.7,0.2,0.9,0.3
			c-0.1,0.9-0.3,1.8-0.4,2.5c-0.2,1.2-1.2,1.7-2.8,1.7L674.5,40.6L674.5,40.6z M676.9,30.9c-0.8-0.9-1.9-2.1-3.5-3.6l1.2-1.2
			c1.4,1.2,2.6,2.4,3.6,3.4L676.9,30.9L676.9,30.9z M681.5,36.4c-0.8-1.5-1.6-3.2-2.6-5.1l1.5-0.8c0.8,1.3,1.7,3,2.8,5.1L681.5,36.4
			L681.5,36.4z"/>
		<path class="st0" d="M694.5,30.8v2.1c0,1.6-0.7,2.8-2.1,3.6l-0.6-0.7c1-0.6,1.6-1.5,1.6-2.6h-1.2v-2.4L694.5,30.8L694.5,30.8z"/>
		<path class="st0" d="M703.6,28.6v-1.5h8.3v1.5h-1.6v4.1h1.9v1.6h-1.9v6.8h-1.6v-6.8h-2.2c0,3-0.8,5.3-2.3,6.9
			c-0.1-0.1-0.3-0.3-0.6-0.6c-0.3-0.3-0.6-0.5-0.7-0.6c1.4-1.3,2-3.2,2-5.8h-1.8v-1.6h1.8v-4.1L703.6,28.6L703.6,28.6z M706.6,28.6
			v4.1h2.2v-4.1H706.6z M712.1,41.1l-1-1.4c2.3-1,4.3-2.5,6-4.6l1.2,1.2C716.5,38.4,714.5,39.9,712.1,41.1z M712.7,31.3
			c0-0.1-0.1-0.2-0.2-0.4c-0.1-0.2-0.4-0.5-0.8-1c2-1,3.6-2.2,4.9-3.6l1.2,1.1C716.4,28.9,714.7,30.1,712.7,31.3L712.7,31.3z
			 M712.7,35.9c-0.2-0.5-0.6-0.9-1-1.4c2-1,3.7-2.2,5.1-3.8l1.1,1.1C716.5,33.5,714.8,34.8,712.7,35.9L712.7,35.9z"/>
		<path class="st0" d="M721.2,29.4v-1.3h1.8c-0.1-0.2-0.3-0.5-0.6-0.9c-0.2-0.3-0.3-0.5-0.4-0.6l1.5-0.3c0.2,0.2,0.4,0.6,0.8,1.2
			c0.2,0.3,0.3,0.5,0.4,0.6l-0.4,0.1h1.1c0.2-0.3,0.5-0.7,0.8-1.2c0.2-0.3,0.3-0.5,0.4-0.6l1.5,0.2c0,0-0.1,0.1-0.1,0.2
			c-0.4,0.7-0.7,1.1-0.9,1.4h1.8v1.3h-3v1.9c0,0.2,0,0.4-0.1,0.5h1.2v-1.7h1.3v3.5h-1.3v-0.5h-1.4c-0.1,1.3-0.9,2.4-2.4,3.2h4.4
			v-0.9h1.2c-0.1-0.1-0.2-0.2-0.5-0.4c-0.2-0.2-0.4-0.3-0.6-0.4c1.2-0.9,1.8-2.5,1.7-4.8v-3h5.8v6.7c0,1.2-0.5,1.8-1.8,1.8
			c-0.3,0-0.9,0.1-1.8,0.1c0,0,0-0.2-0.1-0.3c0-0.5-0.1-0.8-0.2-1c0.3,0,0.8,0.1,1.5,0.1c0.6,0,0.8-0.2,0.8-0.9V33h-3.1
			c-0.2,0.9-0.7,1.7-1.4,2.5h0.1v0.9h5.4v1.4h-5.4v1.6h6.7v1.2h-15v-1.2h6.7v-1.6h-5.2v-1.4h0.4l-1.2-0.7c1.5-0.7,2.3-1.6,2.6-2.6
			H723v0.5h-1.3v-3.5h1.3v1.7h1.2v-2.4L721.2,29.4L721.2,29.4z M730.8,30.6c0,0.5,0,0.9-0.1,1.2h2.9v-1.2H730.8z M730.8,28.1v1.3
			h2.8v-1.3H730.8z"/>
		<path class="st0" d="M738.4,33.6v-1.2h15.1v1.2h-7.8v7.6h-1.4v-1.2c-1,0.1-2.2,0.2-3.8,0.4c-0.8,0.1-1.4,0.2-1.9,0.2l-0.2-1.2
			l1.3-0.1v-5.6L738.4,33.6L738.4,33.6z M740.3,31.5v-4.7h11.2v4.7H740.3z M741.3,33.6v1.1h3v-1.1H741.3z M741.3,35.7v1.1h3v-1.1
			H741.3z M741.3,39.1c0.3,0,0.7,0,1.2-0.1c0.8,0,1.3-0.1,1.8-0.1v-1.1h-3V39.1L741.3,39.1z M742,27.9v0.9h7.9v-0.9H742z M742,29.6
			v0.8h7.9v-0.8H742z M752.9,41c-1.3-0.4-2.3-0.9-3.2-1.6c-0.5,0.4-1.5,1-2.9,1.7c-0.2-0.4-0.4-0.8-0.8-1.3c1-0.3,1.9-0.7,2.6-1.1
			c-0.7-0.8-1.3-1.7-1.8-2.8l0.4-0.2h-0.8v-1.2h6.2v1.3c-0.5,1.1-1.1,2.1-1.8,2.9c0.8,0.4,1.7,0.8,2.7,1
			C753.3,40.1,753.1,40.5,752.9,41L752.9,41z M751.1,35.6h-2.9c0.5,0.9,1,1.6,1.5,2.1C750.2,37.2,750.7,36.5,751.1,35.6z"/>
		<path class="st0" d="M756,38v-1.3h1.9v-9.8h11.4v9.8h1.9V38H756L756,38z M757.2,41.2c-0.2-0.5-0.4-0.9-0.8-1.4
			c2-0.3,3.7-0.9,5.1-1.6l0.8,1.2C760.7,40.1,759,40.7,757.2,41.2L757.2,41.2z M759.5,28.2v1.2h8.1v-1.2H759.5z M759.5,30.6v1.2h8.1
			v-1.2H759.5z M759.5,33v1.3h8.1V33H759.5z M759.5,35.4v1.3h8.1v-1.3H759.5z M769.8,41.3c-2.1-1-3.8-1.7-5.1-2l0.6-1.1
			c1.7,0.5,3.4,1.1,5.2,1.7C770.3,40.2,770,40.7,769.8,41.3L769.8,41.3z"/>
		<path class="st0" d="M774.7,30.1v-1.6h5.6v-2.4h1.8v2.4h5.6v1.6H782v2.3h6.5V34h-5.8c1.4,1.9,3.4,3.4,5.9,4.4
			c-0.1,0.2-0.3,0.4-0.5,0.8c-0.2,0.3-0.4,0.6-0.6,0.8c-2.6-1.3-4.5-2.9-5.6-4.8v5.9h-1.8v-5.9c-1.4,2.1-3.3,3.8-5.7,4.9
			c-0.1-0.2-0.4-0.5-0.8-1c-0.1-0.2-0.2-0.3-0.2-0.4c2.7-1.3,4.7-2.9,5.9-4.8h-5.8v-1.6h6.6v-2.3L774.7,30.1L774.7,30.1z"/>
		<path class="st0" d="M791.5,29.4v-1.5h6.4v-1.8h1.8v1.8h6.4v1.5h-6.4v4.6c1.6,2.2,3.9,3.7,6.8,4.7c-0.4,0.5-0.7,1-0.9,1.5
			c-2.6-1-4.5-2.4-5.9-4.1v5.1h-1.8V36c-1.4,1.8-3.3,3.2-5.8,4.2c-0.3-0.5-0.6-1-0.9-1.4c2.9-1.1,5.1-2.7,6.8-4.9v-4.6H791.5
			L791.5,29.4z M796.2,34.8c-0.4-0.5-1-1.1-1.7-1.8c-0.5,0.8-1.2,1.7-1.9,2.5c-0.3-0.4-0.7-0.8-1.1-1.1c1.3-1.2,2.2-2.7,2.7-4.4
			l1.6,0.2c0,0.2-0.2,0.6-0.4,1.1c-0.1,0.2-0.2,0.4-0.2,0.4c0.6,0.5,1.3,1.1,2.1,1.8L796.2,34.8L796.2,34.8z M804.9,35.2
			c-0.2-0.2-0.4-0.4-0.8-0.8c-0.6-0.7-1.1-1.2-1.5-1.5c-0.4,0.5-0.8,1.1-1.3,1.7c-0.4-0.4-0.8-0.7-1.1-1.1c1-1,1.8-2.2,2.1-3.6
			l1.6,0.2c-0.1,0.5-0.3,1.1-0.6,1.6c0.4,0.3,1,0.8,1.8,1.5c0.4,0.3,0.7,0.6,0.9,0.8L804.9,35.2L804.9,35.2z"/>
		<path class="st0" d="M810.3,41.1v-7.9c-0.4,0.8-0.8,1.5-1.2,2.1c0-0.5-0.1-1-0.2-1.7c0-0.2-0.1-0.4-0.1-0.5c1.1-1.9,2-4.2,2.6-6.9
			l1.5,0.3c-0.3,1.2-0.6,2.2-1,3.2v11.4L810.3,41.1L810.3,41.1z M813,41.2c0-0.1-0.1-0.2-0.1-0.4c-0.2-0.4-0.3-0.7-0.4-0.9
			c0.3-0.1,0.5-0.1,0.4-0.1c2-0.4,3.3-0.7,4-0.8l0.6,1C816,40.5,814.5,40.8,813,41.2L813,41.2z M813,27.9v-1.1h10.9v1.1h-3.4v1h3v3
			h-10.4v-3h2.9v-1H813z M813.7,38.9v-6.1h9.2v6.1H813.7z M814.5,29.9V31h1.6v-1.1H814.5z M815.2,33.7v0.8h6.1v-0.8H815.2z
			 M815.2,35.4v0.8h6.1v-0.8H815.2z M815.2,37.1v0.9h6.1v-0.9H815.2z M817.4,27.9v1h1.7v-1H817.4z M817.4,29.9V31h1.7v-1.1H817.4z
			 M823.4,41.1c-1.9-0.5-3.3-0.8-4.4-1l0.6-1c0.3,0,0.8,0.1,1.5,0.2c1.3,0.2,2.3,0.4,2.8,0.6L823.4,41.1L823.4,41.1z M822.1,29.9
			h-1.6V31h1.6V29.9z"/>
		<path class="st0" d="M828,41.1v-7.9c-0.4,0.7-0.8,1.3-1.2,2.1c0-0.2-0.1-0.5-0.2-0.9c-0.1-0.5-0.2-0.9-0.2-1.1
			c1.3-2.2,2.3-4.5,3-7l1.6,0.4c-0.4,1.2-0.8,2.4-1.3,3.6v10.9H828z M830.9,28.8v-1.3h4.2v-1.3h1.6v1.3h4.5v1.3h-4.5v1.2h3.6v9.2
			h1.2v1.3h-11.2v-1.3h1.2v-9.2h3.6v-1.2H830.9L830.9,28.8z M833.1,31.3v1.2h5.7v-1.2C838.8,31.3,833.1,31.3,833.1,31.3z
			 M833.1,33.6v1.2h5.7v-1.2H833.1z M833.1,35.9v1.2h5.7v-1.2H833.1z M833.1,38.2v1.1h5.7v-1.1H833.1z"/>
		<path class="st0" d="M844.5,40.9V28.6h1.7c0.1-0.5,0.3-1.1,0.5-1.9c0-0.2,0.1-0.4,0.1-0.6l1.8,0.2c-0.2,0.8-0.4,1.5-0.6,2.2h2.7
			v12.2h-1.6v-1.1h-2.9v1.2L844.5,40.9L844.5,40.9z M846.2,30.2v3.2h2.9v-3.2H846.2z M846.2,35v3.2h2.9V35H846.2z M853,40.8
			c-0.1-0.6-0.2-1.2-0.3-1.6h1.1c0.5,0,1,0.1,1.2,0.1c1.1,0,1.7-0.5,1.7-1.6c0-0.7,0.1-2.1,0.1-4.2c0-1.5,0.1-2.6,0.1-3.2h-3.4
			c-0.4,0.8-0.8,1.6-1.1,2.3c-0.1,0-0.2-0.1-0.4-0.2c-0.2-0.1-0.6-0.3-1.1-0.6c1-1.8,1.7-3.6,2.2-5.5l1.7,0.4c0,0.2-0.1,0.4-0.2,0.7
			c-0.2,0.6-0.3,1-0.5,1.4h4.5c-0.1,4.5-0.2,7.7-0.2,9.4c0,1.9-0.8,2.8-2.7,2.8C854.8,40.8,853.9,40.8,853,40.8L853,40.8z
			 M854.3,36.6c-0.7-1.1-1.5-2.2-2.3-3.3l1.3-0.8c0.8,0.9,1.6,1.9,2.4,3.2L854.3,36.6L854.3,36.6z"/>
		<path class="st0" d="M863.3,33.5c-0.4-0.3-0.9-0.6-1.6-0.9c1.2-1.6,2.2-3.5,2.9-5.7l1.8,0.3c-0.2,0.8-0.5,1.4-0.8,2.1h3.1v-3.1
			h1.8v3.1h5.4v1.6h-5.4v3.1h4.9v1.6h-4.9v3.4h6.2v1.4h-14.8v-1.4h6.8v-3.4h-5.4v-1.6h5.4v-3.1h-3.9
			C864.5,31.7,863.9,32.6,863.3,33.5L863.3,33.5z"/>
		<path class="st0" d="M881.6,33.8c-0.9-0.8-1.7-1.6-2.5-2.2l1.1-1.1c1,0.7,1.8,1.4,2.6,2.1L881.6,33.8L881.6,33.8z M881.2,41
			l-1.7-0.6c0.8-2.1,1.3-3.9,1.8-5.6c0.5,0.2,1,0.3,1.6,0.6c-0.2,0.6-0.5,1.6-0.9,2.9C881.6,39.5,881.4,40.4,881.2,41L881.2,41z
			 M882,29.7c-1-0.9-1.8-1.6-2.4-2.2l1.1-1.1c0.9,0.7,1.8,1.4,2.6,2.1L882,29.7L882,29.7z M884,28.7l-0.2-1.5
			c3.6-0.1,6.8-0.2,9.6-0.4l0.2,1.4c-1.3,0.1-2.7,0.2-4,0.2v2.2h4.6v1.5h-4.6v2.2h3.7v6.6h-1.6v-0.9h-5.8v0.9h-1.7v-6.6h3.7v-2.2
			h-4.5v-1.5h4.5v-2.2C886.6,28.5,885.3,28.6,884,28.7L884,28.7z M885.9,35.9v3h5.8v-3H885.9z"/>
		<path class="st0" d="M897.4,41.1V26.7h13.8v14.4h-1.6v-0.7H899v0.7H897.4z M908.9,35.7c-0.8-0.4-1.6-0.9-2.2-1.5
			c0,0.2,0,0.4-0.1,0.8v0.6c-0.1,0.8-0.5,1.2-1.4,1.2h-1.6v-0.1c0-0.2-0.1-0.4-0.2-0.7h1.4c0.4,0,0.6-0.2,0.6-0.4
			c0-0.1,0.1-0.2,0.1-0.4h-3.1v1.6c0,0.6,0.2,0.8,0.9,0.8h2.8c0.6,0,1-0.2,1.1-0.6c0.1-0.3,0.2-0.7,0.2-1.1c0.4,0.2,0.8,0.3,1.2,0.4
			c0,0.1-0.1,0.2-0.1,0.4c-0.1,0.4-0.2,0.7-0.2,0.8c-0.2,0.8-0.9,1.1-1.9,1.1h-3.5c-1.2,0-1.8-0.5-1.8-1.6v-1.8l-0.4,0.2
			c-0.2,0.1-0.6,0.3-1.2,0.7c-0.1-0.3-0.3-0.7-0.6-1.1v4.4h10.7V28H899v6.8c1.2-0.5,2.2-1,2.8-1.8h-2.3V32h3.1c0,0,0-0.1,0.1-0.1
			c0.2-0.3,0.3-0.6,0.3-0.8h-3.1v-1h1.4c-0.3-0.4-0.6-0.8-0.9-1.2l1.2-0.3c0.4,0.4,0.7,0.9,1,1.3l-0.4,0.2h1.1
			c0.1-0.6,0.2-1.1,0.2-1.7h1.2c-0.1,0.6-0.2,1.2-0.3,1.7h1.9l-0.5-0.2c0.2-0.3,0.6-0.8,1-1.4l1.2,0.3c-0.2,0.4-0.6,0.8-0.9,1.2h1.6
			v1h-2.6c0.1,0.3,0.3,0.6,0.4,0.9h2.6V33h-1.8c0.7,0.7,1.4,1.2,2.2,1.4c0,0.1-0.2,0.3-0.3,0.6C909.1,35.3,909,35.5,908.9,35.7
			L908.9,35.7z M903.4,33c-0.3,0.4-0.6,0.8-1,1.1h4.2c-0.4-0.4-0.7-0.8-0.8-1.1H903.4z M904.3,31.1c-0.1,0.3-0.2,0.6-0.3,0.9h1.3
			c-0.1-0.2-0.2-0.5-0.4-0.9H904.3z"/>
	</g>
</g>
</svg>
