<?xml version="1.0" encoding="utf-8"?>
<!-- Generator: Adobe Illustrator 27.0.0, SVG Export Plug-In . SVG Version: 6.00 Build 0)  -->
<svg version="1.1" id="_圖層_2" xmlns="http://www.w3.org/2000/svg" xmlns:xlink="http://www.w3.org/1999/xlink" x="0px" y="0px"
	 viewBox="0 0 1474.3 117" style="enable-background:new 0 0 1474.3 117;" xml:space="preserve">
<style type="text/css">
	.st0{fill:#E3DE47;}
</style>
<g id="_圖層_1-2">
	<g>
		<g>
			<path class="st0" d="M115.6,110.8H76.2v5.4H63.4V52l-1.2,1.7c-1.5-1.6-4-4.1-6.6-6.2v12.3H36l-1.2,6.4h25v38
				c0,5.4-1,8.2-4.7,10.1c-3.5,1.6-8.8,1.6-16.2,1.6c-0.2-3.1-1.5-7.3-2.9-10.3c4.1,0.2,8.7,0.2,10.2,0.1c1.2-0.1,1.7-0.4,1.7-1.6
				v-4.4l-7,2.6c-0.4-1.5-1-3.3-1.6-5.2c-7.5,1.7-14.9,3.6-21.4,5.3l-3.1-9.7l3.3-0.6c1.2-4.3,2.4-9.4,3.6-14.8h-7.2v38.9H2.9V77.3
				H0V66.2h2.9v-3.5h11.8v3.5H24c0.4-2.2,0.8-4.3,1.1-6.4H5.2v-34h10.7v24.2h28.4v-6L39,49c-1.7-2-4.5-4.4-7.5-7
				c-2.9,2.7-5.7,5-8.3,7.1c-1.5-1.5-5.1-4.3-7.2-5.7c3-2.1,6.1-4.6,9-7.3c-2.4-2-5-3.9-7.2-5.8l5.8-5.2c2.2,1.7,4.7,3.6,7.2,5.5
				c1.9-1.9,3.6-3.8,5.1-5.7l8.5,3.2c-2.1,2.6-4.5,5.2-7,7.8c2.6,2.2,5,4.3,7,6V25.9h11.2v13.4C62.2,29,67.8,15.1,71.3,1.6l13.2,3.1
				c-1.9,6.5-4.1,13.3-6.6,19.7h36.5v13.1h-13.8v11.5h12.8v12.3h-12.8V73h12.8v12.3h-12.8v12.2h15L115.6,110.8L115.6,110.8z
				 M60.6,22.5H0.4V11h24c-0.9-2.5-1.7-5.1-2.5-7.1l12.4-2.7c1.4,3,2.7,6.7,3.8,9.9h22.5V22.5z M32.7,77.3c-1,4.6-1.9,8.9-2.9,12.7
				l6.5-1.3c-1-2.3-1.9-4.7-2.9-6.9l8-2.6c2.2,4.8,4.8,10.7,6.6,15.6V77.3L32.7,77.3L32.7,77.3z M87.5,37.4H76.2v11.5h11.3V37.4z
				 M87.5,61.2H76.2V73h11.3V61.2z M76.2,97.5h11.3V85.3H76.2V97.5z M91.2,24c-1.2-4.5-4.3-11.8-7-17.2l12.7-3.9
				c3,5.2,6.1,12.1,7.7,16.4L91.2,24L91.2,24z"/>
			<path class="st0" d="M151.6,53.5c-0.4,19.7-3,45.7-12.9,62.9c-2.4-2.5-8.2-6.9-11.3-8.2c9.9-17.7,10.8-43.7,10.8-61.9V10.1h44.6
				c-0.6-2.5-1.4-4.9-2-6.9l15-2.7c1.1,3,2.2,6.4,3.1,9.6h44.1V22h-34.5v6h29.1v25.5H212v4.9h26.1v8H212v2.7c0,3.1,0.8,3.4,4.6,3.4
				h12.1c2.9,0,3.6-0.6,4-4.2c2.6,1.5,7.7,3.1,11.3,3.6c-1.2,8-4.9,10.3-13.7,10.3h-15.5c-13.2,0-16.3-3-16.3-13.2V53.6h-26.6v4.2
				h23.4v8h-23.4v5.5l22.9-2.2c-0.1,2.6-0.1,6.2,0.1,8.1c-29.7,3.4-33.9,4.2-36.7,5.4c-0.2-2.7-2.1-7.6-3.5-9.4
				c1.9-0.7,3.9-1.7,3.9-5.9V53.5L151.6,53.5L151.6,53.5z M200.4,103.2h42.7v10.7h-96.3v-10.7h39.3v-6.3h-30.6v-10h30.6v-7h14.3v7
				h34.2v10h-34.2L200.4,103.2L200.4,103.2z M151.7,22v6h14.5v-6H151.7z M151.7,44h14.5v-6.4h-14.5V44z M194.7,22h-15v6h15V22z
				 M179.7,44h15v-6.4h-15V44z M208.5,37.5V44h15.4v-6.4H208.5z"/>
			<path class="st0" d="M333,41.2c13.3,9.5,32.4,23.6,41.4,33.4l-12.5,11.2c-7.7-9.1-24.6-23.2-38-33.4v63.8h-16.1V56.1
				c-11.3,11.9-24.6,22.7-39.5,30.3c-2.4-3.9-7-10-10.2-13.3c22.6-10.5,42-29.5,53.6-48.4H262v-15h107.7v15H331
				c-2.1,3.8-4.6,7.6-7.2,11.3v12.8L333,41.2L333,41.2z"/>
			<path class="st0" d="M503.2,110.8h-39.4v5.4h-12.8V52l-1.2,1.7c-1.5-1.6-4-4.1-6.6-6.2v12.3h-19.5l-1.2,6.4h25v38
				c0,5.4-1,8.2-4.7,10.1c-3.5,1.6-8.8,1.6-16.1,1.6c-0.2-3.1-1.5-7.3-2.9-10.3c4.1,0.2,8.7,0.2,10.2,0.1c1.2-0.1,1.7-0.4,1.7-1.6
				v-4.4l-7,2.6c-0.4-1.5-1-3.3-1.6-5.2c-7.5,1.7-14.9,3.6-21.4,5.3l-3.1-9.7l3.4-0.6c1.2-4.3,2.4-9.4,3.6-14.8h-7.2v38.9h-11.8
				V77.3h-2.9V66.2h2.9v-3.5h11.8v3.5h9.3c0.4-2.2,0.8-4.3,1.1-6.4h-19.9v-34h10.7v24.2h28.5v-6l-5.3,4.9c-1.7-2-4.5-4.4-7.5-7
				c-2.9,2.7-5.7,5-8.3,7.1c-1.5-1.5-5.1-4.3-7.2-5.7c3-2.1,6.1-4.6,9-7.3c-2.4-2-5-3.9-7.2-5.8l5.8-5.2c2.2,1.7,4.7,3.6,7.2,5.5
				c1.9-1.9,3.6-3.8,5.1-5.7l8.5,3.2c-2.1,2.6-4.5,5.2-7,7.8c2.6,2.2,5,4.3,7,6V25.9h11.2v13.4C449.9,29,455.5,15.1,459,1.6
				l13.2,3.1c-1.9,6.5-4.1,13.3-6.6,19.7h36.5v13.1h-13.8v11.5h12.8v12.3h-12.8V73h12.8v12.3h-12.8v12.2h15L503.2,110.8L503.2,110.8
				z M448.3,22.5h-60.3V11h24c-0.9-2.5-1.7-5.1-2.5-7.1L422,1.1c1.4,3,2.7,6.7,3.9,9.9h22.5L448.3,22.5L448.3,22.5z M420.4,77.3
				c-1,4.6-1.9,8.9-2.9,12.7l6.5-1.3c-1-2.3-1.9-4.7-2.9-6.9l8-2.6c2.2,4.8,4.9,10.7,6.6,15.6V77.3L420.4,77.3L420.4,77.3z
				 M475.2,37.4h-11.3v11.5h11.3V37.4z M475.2,61.2h-11.3V73h11.3V61.2z M463.9,97.5h11.3V85.3h-11.3V97.5z M478.9,24
				c-1.2-4.5-4.4-11.8-7-17.2l12.7-3.9c3,5.2,6.1,12.1,7.7,16.4L478.9,24L478.9,24z"/>
			<path class="st0" d="M630.6,46.4c-4,16.1-9.4,30.4-17,42.2c2,8.1,4.2,12.8,6.6,12.8c1.9,0,2.9-5.8,3.2-18.3
				c2.7,3.1,7,6.3,10.3,7.6c-1.9,19-5.7,24.2-15.3,24.2c-6.1,0-10.8-5.2-14.4-13.7c-5.1,5.9-10.9,11-17.4,15.3
				c-2-2.5-7.2-7.6-10.3-9.7c9.2-5.4,16.8-12.3,23.1-20.8c-3.2-14.9-5-34.1-5.8-54.3h-24.2v13.3h22.1c0,0,0,3.3-0.1,4.9
				c-0.4,27.5-0.9,38.4-3.3,41.7c-2,2.7-3.8,3.8-6.8,4.3c-2.5,0.5-6.5,0.6-10.7,0.5c-0.4-3.7-1.4-8.5-3.1-11.6
				c-2,11.8-6,23.4-13.9,31.9c-2-2.5-7.6-7.1-10.7-9c5-5.5,8.2-12.3,9.9-19.2c-10.9,4.4-22.6,9.2-32.1,13.1L515.9,87
				c3.7-1,8.1-2.5,12.9-4.1V44.2H518V30.7h10.8V3.1h13.7v27.6h9.7v13.5h-9.7v34l9.6-3.3l1.7,9c1.7-8.2,2-17,2-24.5V18.5h37.4
				C593.1,12.7,593,7,593,1.4h13.9c-0.1,5.8-0.1,11.4,0,17.1h9.7c-2.5-3.8-6.1-8.2-9.4-11.7l10.1-5.9c4.6,4.3,9.8,10.3,12,14.4
				l-5.2,3.2h6.8v13.3h-23.7c0.6,12.9,1.5,25.1,2.9,35.6c3.1-7.1,5.5-15,7.3-23.4L630.6,46.4L630.6,46.4z M569.4,56.9v2.5
				c0,7.6-0.4,16.5-1.9,25.2c3.1,0.4,5.5,0.4,6.8,0.4s2.2-0.4,3.1-1.5c1.1-1.8,1.5-8.4,1.7-26.6H569.4z"/>
			<path class="st0" d="M711,58c3.2-8.1,5.1-21.9,5.5-32.3l10.3,1.4c-0.1,10.8-2,25.4-5.2,34.7L711,58L711,58z M828.2,100.1v12.7
				h-75.5V48.5l-7.2,3c-0.9-5-2.7-12.4-4.8-19.3v84.3h-13.4V1.4h13.4v23l6.8-2.3c1.7,4.8,3.7,10.6,5.2,15.6V5.9h73.4v12.8h-60.3
				v81.4L828.2,100.1L828.2,100.1z M815.4,97.4c-3.8-5.3-11.2-13.2-18.3-20.2c-4,8-10.7,15.4-21.7,21.3c-1.6-2.7-5.8-7.1-8.6-9.4
				c14.9-7.9,20.9-18.3,23-28.9l-5.8,7.5c-0.8-1.1-1.9-2.6-3-4.1c-1.5,3.7-3.1,6.9-5.1,9.6c-1.9-1.5-6.3-4.2-8.8-5.4
				c5.1-6.7,7.6-16.4,8.8-26.6l10.2,1.7c-0.5,3.5-1.1,7-2,10.5c2.4,2,4.5,4.2,5.8,5.8c0.9-4.4,1.1-9,1.1-13.3v-5.8h-20.9V28.6H791
				v-7.6h12.2v7.6h20.9v11.6h-20.9V46c0,6.3-0.4,12.7-1.7,19.1c8.2,7.4,17.9,16.9,22.7,23.2L815.4,97.4L815.4,97.4z M819.1,43.1
				c-0.4,3.1-0.9,6.3-1.6,9.4c3.8,3.5,7.8,7.6,9.8,10.5l-7.2,6.8c-1.2-2-3.3-4.7-5.5-7.4c-1.1,2.5-2.4,4.8-3.7,6.8
				c-1.6-1.6-5.7-4.6-8-5.9c4-5.4,5.5-13.4,6.3-21.7L819.1,43.1L819.1,43.1z"/>
			<path class="st0" d="M842.7,106.2c6.5-5.3,12-13.5,15.4-20.9l12.3,5.4c-3.7,7.8-9,16.7-15.4,22.7L842.7,106.2z M953.7,39.7H846.2
				V28.3h26c-0.6-2.3-1.6-4.8-2.5-6.8l9.3-1.9h-26.7V8.4h40.3c-0.6-2-1.4-4.1-2.1-5.8L904.9,0c1.4,2.5,2.6,5.5,3.6,8.4h38.6v11.3
				h-25.5l9.9,1.7c-1.5,2.5-2.7,4.8-4,6.9h26.1L953.7,39.7L953.7,39.7z M940.3,81.6h-38c4.8,2.6,9.9,5.7,13,8.1l-9.1,9
				c-4.1-3.8-12.5-9-19.5-12.2l5.1-4.9h-31.6V44.1h80L940.3,81.6L940.3,81.6z M911.4,103.4c4.6,0,5.3-1.3,6-10
				c2.9,1.8,8.7,3.8,12.5,4.6c-1.6,13.7-5.6,17.1-17.2,17.1h-20c-15.7,0-19.5-3.6-19.5-15.1V87.1h14.4v12.8c0,3.2,1,3.6,6.6,3.6
				H911.4L911.4,103.4z M925.6,53.2h-51.4v5.3h51.4V53.2z M925.6,67.1h-51.4v5.3h51.4V67.1z M883.6,19.7c1.4,2.7,2.7,6,3.5,8.6h25.3
				c1.2-2.8,2.6-6,3.5-8.6H883.6L883.6,19.7z M939.9,84.2c6,6.5,12.4,15.5,15.2,21.8l-12.8,5.7c-2.2-6-8.5-15.4-14.3-22.3
				L939.9,84.2z"/>
			<path class="st0" d="M1059.6,45.5c7.1,17.5,17.9,34.5,29.7,44.6c-3.6,2.6-8.6,7.9-11.1,11.7c-9.7-9.5-18.4-23.6-25.1-39.2v53.8
				h-14.7V65.1c-7.2,14.9-16.4,28.1-26.5,37.3c-2.4-3.2-6.7-7.9-10.1-10.8v24.6h-14.5V53.7c-3.3,4.1-6.7,7.9-10.2,11.1
				c-1.5-3.6-6-11.8-8.6-15.4c12.5-11.2,24.5-28.9,31.4-47.3l14.7,4.7c-3.5,8.6-7.8,17.6-12.8,26v57.4c12.3-10,23.5-27.1,30.7-44.6
				h-25.7V31.3h31.6V3.5h14.7v27.8h32.4v14.3H1059.6L1059.6,45.5z"/>
			<path class="st0" d="M1121.4,51.5v65H1107V6h45.8v45.4H1121.4z M1121.4,17.5v5.8h17.8v-5.8H1121.4z M1139.2,40v-5.9h-17.8V40
				H1139.2z M1209.4,100.5c0,7-1.2,11-5.6,13.3c-4.2,2.5-10.2,2.7-19,2.7c-0.5-3.9-2.6-10.1-4.6-13.9c-0.2,4.3-1.5,6.9-4.8,8.5
				c-4.1,1.7-9.7,1.8-17.3,1.8c-0.5-3.3-2.1-8-3.6-11.2c4.6,0.2,9.7,0.2,10.9,0.2c1.6-0.1,2-0.5,2-1.8v-5.5h-19.3
				c-1.2,7.3-3.7,14.3-8.3,19.6c-2.4-2-8.2-5.3-11.3-6.7c7.6-8.4,8.4-19.9,8.4-29.2v-22h43.4v44c0,0.7,0,1.5-0.1,2.2
				c5.1,0.2,10.4,0.2,12.2,0.2s2.4-0.6,2.4-2.5V51.5h-32.3V6h47L1209.4,100.5L1209.4,100.5z M1167.4,85.3v-4.9h-18
				c0,1.6-0.1,3.2-0.1,4.9H1167.4z M1149.4,66.4v4.8h18v-4.8H1149.4z M1176.4,17.5v5.8h18.4v-5.8H1176.4z M1194.8,40v-5.9h-18.4V40
				H1194.8z"/>
			<path class="st0" d="M1272.3,92.7h-25.2v10.8h-13.7V9h38.9V92.7z M1247.1,22v21.7h11.4V22H1247.1z M1258.5,79.7V56.5h-11.4v23.2
				H1258.5z M1317,27.5v11.7h24.6v12.7h-9.1v9.6h11.9v12.7h-11.9V101c0,7-1.4,10.7-6.3,12.9c-4.7,2.1-11.6,2.5-20.8,2.5
				c-0.5-4.1-2.7-9.8-4.6-13.8c6,0.2,12.8,0.2,14.7,0.2c2,0,2.6-0.5,2.6-2.2V74.1h-43.5V61.4h43.5v-9.6h-39.6V39.2h24V27.5h-28V14.6
				h28V1.5h14.5v13.2h28v12.8L1317,27.5L1317,27.5z M1291.8,75.8c5.1,5.9,11.8,14.3,14.9,19.7l-12.9,7.5
				c-2.9-5.3-9.2-14.3-14.3-20.7C1279.5,82.4,1291.8,75.8,1291.8,75.8z"/>
			<path class="st0" d="M1456.1,100.1c3.3,0,4.1-1.7,4.6-11.6c3.1,2.3,9.4,4.8,13.7,5.7c-1.9,15.5-5.7,19.9-16.9,19.9h-15.5
				c-14.3,0-17.8-4.6-17.8-18.8V59.8h-16.3c-2.5,25.5-8.6,45.7-39.9,57.1c-1.7-3.9-5.7-9.7-9.2-12.7c27.5-8.9,31.7-24.4,33.4-44.4
				h-30.4V45.6h47V1.1h15.7v44.4h47.1v14.3h-32.2v35.3c0,4.4,0.6,4.9,4.8,4.9L1456.1,100.1L1456.1,100.1z M1387.4,41
				c-3.2-6.9-11.1-17.9-17.8-26l11.8-6.8c6.8,7.5,15,18.1,18.8,25L1387.4,41L1387.4,41z M1466.9,14.6c-6.5,9.6-14.2,19.7-20.4,26.2
				l-12.9-5.3c6.1-7,13.5-18.1,17.7-26.6L1466.9,14.6L1466.9,14.6z"/>
		</g>
	</g>
</g>
</svg>
