<?xml version="1.0" encoding="utf-8"?>
<!-- Generator: Adobe Illustrator 27.0.0, SVG Export Plug-In . SVG Version: 6.00 Build 0)  -->
<svg version="1.1" id="_圖層_2" xmlns="http://www.w3.org/2000/svg" xmlns:xlink="http://www.w3.org/1999/xlink" x="0px" y="0px"
	 viewBox="0 0 712 232.8" style="enable-background:new 0 0 712 232.8;" xml:space="preserve">
<style type="text/css">
	.st0{fill:#FFFFFF;}
</style>
<g id="_圖層_1-2">
	<g>
		<path class="st0" d="M52.9,2c-1,2.6-2.2,5.2-3.6,7.7v25.8h-4.4V16.3c-0.8,1.1-1.7,2.1-2.5,3c-0.4-1.1-1.6-3.6-2.4-4.7
			c3.4-3.4,6.7-8.7,8.6-14C48.6,0.6,52.9,1.9,52.9,2z M66.2,11.3v19.2c0,2.1-0.4,3.4-1.7,4.1c-1.3,0.7-3.1,0.9-5.6,0.9
			c-0.2-1.3-0.9-3.3-1.5-4.5c1.6,0,3.2,0,3.7,0s0.7-0.1,0.7-0.6V11.3h-4.4c-1.1,2.2-2.3,4.2-3.6,5.7c-0.8-0.8-2.6-2.2-3.6-2.9
			c2.9-3.2,5.1-8.4,6.4-13.5l4.4,1c-0.5,1.9-1.1,3.8-1.8,5.6h13L73,7l3.2,0.6c-0.5,3-1.1,6.5-1.6,8.7l-3.8-0.6
			c0.2-1.2,0.4-2.7,0.6-4.4L66.2,11.3L66.2,11.3z M59.9,18c-1.1,4.8-3,9.5-5.1,12.5c-0.9-0.7-2.8-1.8-3.9-2.4
			c2.2-2.6,3.7-6.9,4.6-11L59.9,18z M71.6,16.8c2,3.9,3.6,8.8,4.1,12.2l-4.3,1.5c-0.4-3.3-2-8.5-3.8-12.3
			C67.6,18.1,71.6,16.8,71.6,16.8z"/>
		<path class="st0" d="M86.5,22.4c-0.3,4.7-1.1,9.8-3.2,13.3c-0.8-0.8-2.7-2.3-3.7-2.8c2.4-4.3,2.6-10.6,2.6-15.5V3.9l0,0
			c4.5-0.5,9.6-1.5,12.8-2.7L97.9,5c-3.3,1-7.4,1.7-11.3,2.2v2.7h9.7v12.5H86.5z M86.6,13.8v4.6H92v-4.6
			C92,13.8,86.6,13.8,86.6,13.8z M115.4,17.3H112v17.9h-4.5V17.3h-3.9c-0.2,6-1.4,13.6-6.7,18.3c-0.7-0.9-2.6-2.4-3.5-3
			c5.2-4.6,5.7-11.6,5.7-17V3.9c4.6-0.6,9.7-1.7,13-3l2.9,3.9c-3.3,1.1-7.4,1.9-11.3,2.5V13h11.8L115.4,17.3L115.4,17.3z"/>
		<path class="st0" d="M148.2,26.6h-6l3.7,0.8c-0.6,1.3-1.2,2.5-1.8,3.5h9.6v3.8h-33.2v-3.8h9.3c-0.3-1-0.9-2.4-1.6-3.4l3-0.9h-5.5
			v-9.7c-1.3,0.9-2.6,1.6-4,2.3c-0.6-1-1.8-2.5-2.8-3.3c2.2-0.9,4.5-2.3,6.4-4c-1.1-1.1-2.7-2.3-4-3.2l2.4-2.5c1.4,0.8,3.2,2,4.2,3
			c1.1-1.2,2.1-2.5,2.9-3.9h-9V1.8H133l0.8-0.2l3,1.5c-1,2.7-2.4,5.1-4.1,7.3h9.1c-2-2.6-3.7-5.5-5-8.6l4-1.2
			c0.5,1.3,1.2,2.6,1.9,3.8c1.4-1.1,2.9-2.5,3.9-3.6l3.4,2.4c-1.7,1.4-3.6,2.8-5.2,4c0.5,0.7,1.1,1.3,1.7,1.9c1.6-1.2,3.3-2.7,4.4-4
			l3.3,2.3c-1.6,1.4-3.5,2.8-5.1,4c1.9,1.5,4.1,2.8,6.4,3.7c-1.1,0.9-2.4,2.6-3.1,3.8c-1.5-0.7-2.8-1.4-4.1-2.3L148.2,26.6
			L148.2,26.6z M130.7,12.7c-1.3,1.4-2.7,2.5-4.2,3.6h21.2c-1.4-1.1-2.7-2.2-4-3.4v1.3h-13C130.7,14.1,130.7,12.7,130.7,12.7z
			 M143.4,19.8h-13.2v3.3h13.2C143.4,23.1,143.4,19.8,143.4,19.8z M139.7,30.9c0.7-1.3,1.5-3,2-4.3h-9.2c0.8,1.2,1.5,2.7,1.8,3.7
			l-1.9,0.6H139.7z"/>
		<path class="st0" d="M191.6,33c-1.4-1.4-3.9-3.4-6.4-5.4v3.6c0,1.9-0.3,2.9-1.6,3.5c-1.1,0.6-2.8,0.7-4.9,0.7
			c-0.1-1.1-0.6-2.7-1.2-3.8c1.2,0,2.6,0,2.9,0c0.4,0,0.6-0.1,0.6-0.5v-3.4c-2.3,1.9-4.5,3.7-6.5,5.2l-2.3-3.1l0.1,2.1
			c-4.5,0.9-9.2,1.8-12.8,2.5l-0.9-4c1.6-0.2,3.5-0.5,5.6-0.8V20h-5v-3.8h5v-2.7h-2.8v-1.6c-0.5,0.5-1.1,1-1.6,1.5
			c-0.1-0.9-0.9-3.3-1.4-4.4c2.7-2.1,5.4-5.3,7-8.7l3.4,1.2l-0.6,1.1c2.1,2,4.7,4.4,6.1,5.8l-2.5,3c-0.3-0.4-0.8-0.9-1.2-1.5v3.6
			h-2.7v2.7h4.4V20h-4.4v9.1l4.3-0.7l0.1,1.1c2.2-1.4,5.6-3.7,8.9-6.1V18H173v-3.9h12l0.4-1.7h-10.8c1-3.1,2.3-8.1,3.1-11.9l4.2,0.4
			c-0.2,0.8-0.4,1.8-0.6,2.7h6.2l0.7-0.2l3.1,0.4c-0.4,3.2-1.2,7-2,10.3h4.8V18h-8.7v5.2l0.6,0.4c1.3-1.5,2.9-3.6,3.8-5.2l3.6,2
			c-1.6,1.8-3.3,3.7-4.8,5.1c2.3,1.6,4.5,3.3,5.9,4.5L191.6,33L191.6,33z M162.1,21.1c0.6,2,1.2,4.7,1.4,6.4l-3.1,0.9
			c-0.2-1.8-0.7-4.5-1.2-6.5C159.1,21.9,162.1,21.1,162.1,21.1z M170.4,9.9c-1.2-1.3-2.6-2.7-4-4.1c-0.9,1.5-2,2.8-3,4.1H170.4z
			 M168.7,27.2c0.4-1.8,1-4.5,1.2-6.3l2.9,0.7c-0.6,2.1-1.2,4.7-1.8,6.2L168.7,27.2L168.7,27.2z M176.1,18.3
			c1.4,1.4,3.2,3.3,4.1,4.6l-3.2,2.2c-0.8-1.3-2.6-3.4-4-4.9L176.1,18.3L176.1,18.3z M185.9,9.1l0.4-2.1h-6.2l-0.5,2.1H185.9
			L185.9,9.1z"/>
		<path class="st0" d="M232.4,6.3c0,0,0,1.5,0,2C231.9,25,231.5,31,229.9,33c-1.1,1.4-2.1,1.8-3.6,2.1c-1.4,0.2-3.7,0.2-5.9,0.1
			c-0.1-1.2-0.7-3.1-1.5-4.4c2.4,0.2,4.6,0.2,5.6,0.2c0.8,0,1.2-0.1,1.7-0.6c1.1-1.2,1.6-6.8,2-20h-8.1c-1,2.2-2.1,4.3-3.3,5.9
			c-0.6-0.6-1.9-1.4-2.9-2.1v17.5h-10.1v2.7h-4.1V6.5h4.3c0.5-1.9,0.9-4.3,1.1-6l4.9,0.7c-0.6,1.9-1.3,3.8-2,5.4h5.9v6.1
			c2.2-3.1,4-7.7,5.1-12.1l4.3,1c-0.4,1.6-0.9,3.2-1.5,4.8h10.6V6.3z M209.8,10.4h-6v6.1h6V10.4z M209.8,27.7v-7.3h-6v7.3H209.8z
			 M222.4,25.7c-1.1-2.2-3.4-5.9-5.2-8.6l3.5-2c1.9,2.6,4.4,6.1,5.6,8.3L222.4,25.7L222.4,25.7z"/>
		<path class="st0" d="M248.5,1.8c-0.8,2.4-1.8,4.8-2.9,7.1v26.6h-4.3V16.3c-0.8,1.2-1.7,2.2-2.5,3.2c-0.3-1.1-1.4-3.7-2.1-4.8
			c3.1-3.4,6-8.8,7.7-14.2L248.5,1.8L248.5,1.8z M271.6,2.4v32.7h-4.3v-1.8h-14.2v2.2H249v-33h22.6V2.4z M267.3,29.4V6.3h-14.2v23.1
			C253.1,29.4,267.3,29.4,267.3,29.4z M261.9,14.1v3.2h3.6v10H255v-10h3.4v-3.2H254v-3.2h4.4V7h3.5v3.8h4.6V14
			C266.5,14.1,261.9,14.1,261.9,14.1z M262.2,20.4h-3.9v3.9h3.9V20.4z"/>
		<path class="st0" d="M296.6,0.5c0,1.6-0.1,3.6-0.3,5.8c0.5,5.1,2.8,19.2,16,25c-1.4,1.1-2.7,2.6-3.3,3.9
			c-8.4-4-12.6-11.3-14.8-17.7c-2.1,6.6-6.1,13.4-13.9,17.9c-0.8-1.2-2.2-2.6-3.7-3.6c15.4-8.1,14.6-24.9,14.8-31.2L296.6,0.5
			L296.6,0.5z"/>
		<path class="st0" d="M320.6,25.6c-0.3,3.3-0.8,6.9-1.6,9.1c-0.7-0.4-2.3-0.9-3.1-1.1c0.8-2.2,1.2-5.5,1.5-8.5L320.6,25.6
			L320.6,25.6z M350.5,31.1c0,2-0.3,3-1.5,3.6c-1.2,0.6-2.8,0.8-5.2,0.8c-0.1-1.1-0.6-2.8-1.1-3.8c1.3,0.1,2.7,0.1,3.2,0.1
			s0.6-0.2,0.6-0.7V5.9h-12.2v29.6h-4V22.3l-3,1.3c-0.1-0.5-0.2-1-0.4-1.6c-7.4,1.2-8.7,1.6-9.5,1.9c-0.1-0.7-0.8-2.6-1.2-3.6
			c1-0.2,1.7-1.1,2.9-2.5c0.5-0.6,1.4-1.7,2.4-3.3c-2.9,0.3-3.7,0.6-4.3,0.8c-0.2-0.8-0.8-2.6-1.2-3.6c0.7-0.2,1.3-0.9,2-2
			c0.8-1.1,3-5.2,4.3-9.1l3.6,1.5c-1.4,3.1-3.1,6.4-5,9.1l2.6-0.2c1-1.7,1.9-3.5,2.7-5.3l3.2,2.1c-2.1,4.1-4.8,8.2-7.7,11.7l4.1-0.6
			c-0.3-0.9-0.6-1.8-0.9-2.5l2.9-1.1c0.9,2.1,1.9,4.9,2.4,6.7V2.1h20.1L350.5,31.1L350.5,31.1z M324.4,24.8c0.5,2.5,0.9,5.6,1,7.8
			l-3.1,0.8c-0.1-2.2-0.4-5.4-0.8-7.9L324.4,24.8L324.4,24.8z M328.1,23.7c0.9,2.2,1.8,5.1,2.1,7l-2.9,1.1c-0.3-2-1.2-4.9-2-7.2
			L328.1,23.7L328.1,23.7z M343.2,25.6c0.6,0,1.6-0.1,2.2-0.2c0.1,0.9,0.1,2.2,0.3,3c-0.5,0.2-1.5,0.2-2.3,0.2h-3.2
			c-3.2,0-3.9-1.2-3.9-4.2v-2.2h-1.1v-3.3h3.8c-0.3-0.8-0.6-1.7-1-2.4l2.3-0.7H335v-3.3h2c-0.1-1.4-0.8-3.4-1.4-4.9l2.5-0.8
			c0.8,1.5,1.4,3.6,1.6,4.9l-2.2,0.8h3.3c0.5-1.7,1.1-4,1.3-5.6l3,0.8c-0.5,1.6-1.1,3.4-1.5,4.8h1.9v3.3h-4.4c0.5,0.9,1,1.9,1.1,2.6
			l-1.5,0.6h4.6v3.3h-5.7v2.2c0,0.8,0.1,1.2,0.7,1.2L343.2,25.6L343.2,25.6z"/>
		<path class="st0" d="M370.3,24.7l0.5,4.1c-4.9,1.2-10.1,2.4-14.1,3.3l-1-4.4c2.1-0.3,4.8-0.9,7.8-1.5c0.9-3.8,1.7-9.7,2.1-14
			l4.1,0.7c-0.7,4.1-1.7,8.9-2.6,12.5L370.3,24.7L370.3,24.7z M363.5,7.1h7.6v4.1H356V7h6.4c-0.4-1.5-1.3-3.7-2.1-5.3l3.8-1.1
			c1.1,1.6,2,3.9,2.5,5.4L363.5,7.1L363.5,7.1z M360.7,12.5c0.8,3.9,1.5,8.9,1.7,12.3l-3.7,0.8c-0.1-3.4-0.8-8.5-1.5-12.5
			L360.7,12.5L360.7,12.5z M381.9,11.6V18h7.5v17.3h-4.6v-1.7h-9v1.8h-4.4V18.1h5.9V0.5h4.6v6.9h8.8v4.2H381.9L381.9,11.6z
			 M384.7,22.2h-9v7.3h9V22.2z"/>
		<path class="st0" d="M429.8,23.5h-4.2v6.7c0,2.1-0.3,3.3-1.8,4c-1.4,0.6-3.4,0.8-6.2,0.8c-0.1-1.3-0.7-3.1-1.3-4.3
			c1.8,0.1,3.7,0.1,4.3,0.1c0.6,0,0.8-0.1,0.8-0.6v-6.7H414c1.7,1.7,3.6,4.1,4.4,5.7l-3.7,2.2c-0.8-1.7-2.6-4.3-4.3-6.1l3.3-1.8
			h-5.2v-3.9h1.6c-0.5-0.9-1.3-2-1.9-2.7c3.7-0.9,7.2-2.5,10.1-4.6c-0.9-1.4-2.3-2.9-3.8-4.2c-1.4,0.9-3,1.8-4.5,2.6
			c-0.6-0.8-1.9-2-2.7-2.7v27.4H403V22.8h-2.5l0,0c0,3.1-0.4,8.9-2.9,12.7c-0.8-0.7-2.4-1.7-3.3-2.2c2-3.2,2.3-7.9,2.3-10.6h-1.9
			v-3.9h8.3v-4.1h-6.8V2h3.9v9h2.9V0.5h4.1V8c4.2-1.7,8-4.7,10.2-7.5l4.4,1.2c-0.5,0.6-1.1,1.2-1.7,1.9h5.5l0.7-0.2l2.8,1.3
			c-3,7.8-9.5,12.4-17,15h9.3V15h4.3v4.5h4.2V23.5L429.8,23.5z M415.6,13.3c-2.4,0.5-4.8,1-7,1.4l-0.7-3.1c2-0.3,4.6-0.7,7.4-1.2
			C415.4,10.5,415.6,13.3,415.6,13.3z M417.4,6.5c1.3,1.1,2.6,2.4,3.5,3.6c1.1-1.1,2-2.2,2.7-3.6C423.6,6.5,417.4,6.5,417.4,6.5z"/>
		<path class="st0" d="M446.6,2c-1,2.6-2.2,5.3-3.6,7.8v25.7h-4.5V16.7c-0.8,0.9-1.6,1.9-2.3,2.7c-0.4-1.1-1.7-3.6-2.5-4.8
			c3.4-3.4,6.7-8.7,8.6-14C442.3,0.6,446.6,2,446.6,2z M458.6,10.8v3.9h9.8v4.1h-9.8V23h10.3v4.1h-10.3v8.3H454V10.8h-1.4
			c-1.5,2.8-3.2,5.3-5,7.3c-0.7-0.8-2.5-2.4-3.4-3.1c3.3-3.4,6.3-8.8,8-14.1l4.4,1.1c-0.5,1.6-1.1,3.1-1.9,4.7h14.7v4.2L458.6,10.8
			L458.6,10.8z"/>
		<path class="st0" d="M507.6,22.3c-0.6,7.3-1.3,10.4-2.5,11.6c-0.8,0.9-1.7,1.2-2.8,1.4c-1,0.1-2.7,0.2-4.5,0.1
			c-0.1-1.2-0.5-2.8-1.2-4c1.5,0.2,3,0.2,3.7,0.2c0.5,0,0.9-0.1,1.2-0.4c0.6-0.6,1.1-2.5,1.5-6.7h-22.5c-0.6,0.5-1.2,0.9-1.9,1.3
			l3.4,1.1c-0.8,3.2-2,6.4-4.4,8.5l-3.5-2.2c2-1.7,3.4-4.3,4.1-7.1c-0.9,0.6-1.9,1-2.8,1.5c-0.5-1.1-1.6-2.9-2.3-3.9
			c6.2-2.9,11-7.5,14.5-12.9h-12.1V6.9h6.4c-0.6-1.5-1.5-3.3-2.4-4.8l3.9-1.5c1.2,1.7,2.4,3.9,2.9,5.5l-1.9,0.8h5.5
			c1.1-2.1,1.9-4.2,2.6-6.4l4.5,1.2c-0.6,1.8-1.4,3.5-2.1,5.2h7.4c-0.4,2.2-1,4.8-1.4,6.9h4.3c-0.4,2.2-0.9,4.9-1.4,6.9h4
			L507.6,22.3L507.6,22.3z M487,26.8c0.6,2.2,1.1,5,1,6.9l-3.9,0.5c0.1-1.8-0.2-4.7-0.8-6.9L487,26.8L487,26.8z M488,17.6
			c-0.9,1-1.8,2.1-2.8,3h14.4c0.2-0.9,0.5-2,0.7-3H488L488,17.6z M492.6,26.1c0.8,1.9,1.5,4.4,1.8,6.1l-3.6,0.9
			c-0.2-1.7-1-4.2-1.7-6.2C489.1,26.9,492.6,26.1,492.6,26.1z M492.7,10.8c-0.6,1-1.2,2-1.8,3h5.8c0.2-0.9,0.5-1.9,0.6-3H492.7
			L492.7,10.8z M496.9,31.1c-0.3-1.3-1.3-3.5-2.2-5.1l3.1-1c1,1.5,2.1,3.6,2.5,4.9L496.9,31.1L496.9,31.1z"/>
		<path class="st0" d="M528.9,24.9c-5,2.2-10.6,4.6-14.9,6.3l-1.5-4.8c1.4-0.5,3.1-1.1,5-1.8l-0.8-21.9l4.7-0.2l0.7,20.3
			c1.9-0.8,3.8-1.6,5.7-2.3L528.9,24.9L528.9,24.9z M544.5,35.4c-1.4-2.4-4.3-5.9-7.1-9c-2.8,3.9-6.5,6.9-11.5,9.1
			c-0.6-1-2.5-3-3.6-3.9c12-4.5,15.9-13.6,17.3-29l5,0.5c-0.8,7.7-2.1,13.9-4.6,19c3.1,3.2,6.6,7,8.4,9.6L544.5,35.4L544.5,35.4z
			 M530.3,16.2c-1-2.6-3.4-6.5-5.6-9.3l4.1-2c2.5,2.7,4.8,6.4,6,9L530.3,16.2L530.3,16.2z"/>
		<path class="st0" d="M571.3,7.7v5.9l0.8-0.9c4.1,2,10,5.2,12.9,7.6l-3.3,4.1c-2.2-1.9-6.5-4.6-10.3-6.8v17.8h-4.8V7.7h-13.7V3.2
			h33.7v4.5H571.3L571.3,7.7z"/>
		<path class="st0" d="M624,30.2c0,2.4-0.5,3.6-2,4.3c-1.5,0.8-3.9,0.8-7.3,0.8c-0.2-1.2-0.9-3.1-1.4-4.3c2.1,0.1,4.6,0.1,5.3,0.1
			s1-0.2,1-0.9v-5.6h-8V35H607V24.5h-7.7c-0.7,4.1-2,8.2-4.8,11.1c-0.7-0.8-2.5-2.4-3.5-2.9c4.1-4.5,4.5-11.2,4.5-16.4V3H624V30.2
			L624,30.2z M607,20.3v-4.6h-7.1v0.7c0,1.2,0,2.5-0.1,3.9H607L607,20.3z M599.9,7.2v4.3h7.1V7.2H599.9z M619.6,7.2h-8v4.3h8
			C619.6,11.6,619.6,7.2,619.6,7.2z M619.6,20.3v-4.6h-8v4.6H619.6z"/>
		<path class="st0" d="M641.4,18c-0.7,3.4-1.8,6.9-3.1,9.7c0.6,0.4,1.3,0.9,2.3,1.5c2.6,1.5,6.1,1.8,10.5,1.8s11-0.4,15.2-1
			c-0.5,1.2-1.2,3.4-1.3,4.6c-3.1,0.2-9.7,0.4-14.1,0.4c-5,0-8.1-0.4-10.8-2c-1.6-0.9-2.9-2.1-3.7-2.1c-0.9,0-2.2,2.6-3.1,4.7
			l-3-4.2c1.3-1.6,2.7-2.8,4-3.6c0.9-1.8,1.7-4.2,2.3-6.5h-5c1-2.2,2.1-5.2,3-8.1H631v-4h9.4l-0.2,0.7c4.3-2.3,9.1-6,11.7-9.9
			l3.8,1.7L655,2.4c3.9,2.2,8.7,5.2,11.2,7.3l-2.7,3.4c-0.8-0.8-2-1.7-3.3-2.6v2.6h-5.3v2.4h9.4v3.7h-9.4v10.1h-4.5V19.2H642v-3.7
			h8.4v-2.4h-4.2V11c-1.2,0.9-2.6,1.8-3.9,2.6c-0.6-0.9-1.6-2.1-2.6-3c-0.8,2.2-1.6,4.7-2.4,6.8h1.4l0.6-0.1L641.4,18L641.4,18z
			 M635.2,8.1c-0.5-1.7-1.5-4.4-2.2-6.4l4.2-1.2c0.7,2,1.8,4.5,2.4,6.2L635.2,8.1z M649.1,21.2c-1.4,2.5-3.6,5.4-5.4,7.1
			c-0.8-0.7-2.5-1.7-3.4-2.1c1.8-1.6,3.8-4,4.9-6.1L649.1,21.2L649.1,21.2z M658.9,9.5c-2-1.4-4.3-2.9-6.3-4.2
			c-1.4,1.5-2.9,2.9-4.5,4.2H658.9z M660.2,19.9c1.7,2,3.8,4.7,4.7,6.6l-3.8,1.8c-0.9-1.8-2.8-4.7-4.5-6.9L660.2,19.9z"/>
		<path class="st0" d="M44,69.6c0-8.6,3.3-14.9,8.2-19.4l3.2,2.5c-4.6,5-6.5,9.5-6.5,16.9s2,11.9,6.5,17l-3.1,2.5
			C47.3,84.5,44,78.3,44,69.6L44,69.6z"/>
		<path class="st0" d="M96.3,64.5v4.8H61.5v-4.8H96.3z"/>
		<path class="st0" d="M102.4,86.6c4.6-5,6.5-9.5,6.5-17s-2-11.9-6.5-16.9l3.2-2.5c4.9,4.5,8.2,10.8,8.2,19.4s-3.3,14.9-8.2,19.4
			L102.4,86.6z"/>
		<path class="st0" d="M145.7,61.6c2.4,5.5,6.2,10.6,10.6,13.6c-1.2,0.9-2.8,2.7-3.6,3.9c-1.4-1.1-2.8-2.4-4-3.9v3.3H141v6.3h-4.8
			v-6.3h-7.9v-3.3c-1.3,1.4-2.8,2.8-4.3,4c-0.8-1.1-2.2-2.8-3.3-3.6c4.4-3,8.2-8.3,10.6-14H122V57h14.2v-7.2h4.8V57h14.2v4.5
			L145.7,61.6L145.7,61.6z M136.2,73.9V61.6H136c-1.7,4.6-4,8.8-6.7,12.3H136.2L136.2,73.9z M147.7,73.9c-2.7-3.5-4.9-7.8-6.6-12.3
			H141v12.3H147.7z"/>
		<path class="st0" d="M164.8,74.9c-0.3,3.3-0.8,6.9-1.6,9.1c-0.7-0.4-2.3-0.9-3.1-1.1c0.8-2.2,1.2-5.5,1.5-8.5L164.8,74.9
			L164.8,74.9z M194.7,80.4c0,2-0.3,3-1.5,3.6s-2.8,0.8-5.2,0.8c-0.1-1.1-0.6-2.8-1.1-3.8c1.3,0.1,2.7,0.1,3.2,0.1s0.6-0.2,0.6-0.7
			V55.2h-12.2v29.6h-4V71.6l-3,1.3c-0.1-0.4-0.2-1-0.4-1.6c-7.4,1.2-8.7,1.6-9.5,1.9c-0.2-0.7-0.8-2.6-1.2-3.6
			c0.9-0.2,1.7-1.1,2.9-2.6c0.4-0.6,1.4-1.7,2.4-3.3c-2.9,0.3-3.7,0.6-4.3,0.8c-0.2-0.8-0.8-2.5-1.2-3.6c0.7-0.2,1.3-0.9,2-2
			c0.8-1,3-5.2,4.3-9.1l3.6,1.5c-1.4,3.1-3.1,6.4-4.9,9.1l2.7-0.2c1-1.7,1.9-3.5,2.7-5.3l3.2,2.1c-2.1,4-4.8,8.2-7.7,11.6l4.1-0.6
			c-0.3-0.9-0.6-1.8-0.9-2.6l2.9-1.1c0.9,2.1,1.9,4.9,2.4,6.7V51.3h20.1L194.7,80.4L194.7,80.4z M168.6,74.1c0.4,2.5,0.9,5.6,1,7.8
			l-3.1,0.8c-0.1-2.2-0.4-5.4-0.8-7.9L168.6,74.1L168.6,74.1z M172.4,73c0.9,2.2,1.8,5.1,2.1,7l-2.9,1.1c-0.3-1.9-1.2-4.9-2-7.2
			L172.4,73L172.4,73z M187.5,74.8c0.6,0,1.6-0.1,2.2-0.2c0.1,0.9,0.1,2.2,0.3,3c-0.5,0.2-1.5,0.2-2.3,0.2h-3.2
			c-3.2,0-3.9-1.2-3.9-4.2v-2.2h-1.1v-3.3h3.8c-0.3-0.8-0.6-1.7-0.9-2.4l2.3-0.7h-5.3v-3.3h2c-0.1-1.4-0.8-3.4-1.4-4.9l2.5-0.8
			c0.8,1.5,1.4,3.6,1.6,4.9l-2.2,0.8h3.3c0.5-1.7,1.1-4,1.3-5.6l3,0.8c-0.5,1.6-1.1,3.4-1.5,4.8h1.9V65h-4.4
			c0.4,0.9,0.9,1.9,1.1,2.6l-1.5,0.6h4.6v3.3H184v2.2c0,0.8,0.1,1.2,0.7,1.2L187.5,74.8L187.5,74.8z"/>
		<path class="st0" d="M214.6,73.9L215,78c-4.9,1.2-10.1,2.4-14.1,3.3l-1-4.4c2.1-0.3,4.8-0.9,7.8-1.5c0.9-3.8,1.7-9.7,2.1-14
			l4.1,0.7c-0.7,4.1-1.7,8.9-2.6,12.5L214.6,73.9L214.6,73.9z M207.8,56.3h7.6v4.1h-15.1v-4.1h6.4c-0.4-1.5-1.3-3.7-2.1-5.3l3.8-1.1
			c1.1,1.7,2,3.9,2.5,5.4L207.8,56.3L207.8,56.3z M204.9,61.7c0.8,3.9,1.5,8.9,1.7,12.3l-3.7,0.8c-0.1-3.4-0.8-8.5-1.5-12.5
			L204.9,61.7z M226.1,60.9v6.4h7.5v17.3H229v-1.7h-9v1.8h-4.4V67.3h5.9V49.8h4.6v6.9h8.8v4.2H226.1L226.1,60.9z M228.9,71.5h-9v7.3
			h9V71.5z"/>
		<path class="st0" d="M245.3,71.6c-0.3,4.7-1.1,9.8-3.2,13.3c-0.8-0.8-2.7-2.3-3.7-2.8c2.4-4.3,2.6-10.6,2.6-15.5V53.1l0,0
			c4.5-0.5,9.6-1.5,12.8-2.7l2.9,3.8c-3.3,1-7.4,1.8-11.3,2.2v2.7h9.7v12.5H245.3z M245.4,63.1v4.6h5.4v-4.6H245.4z M274.2,66.5
			h-3.4v17.9h-4.5V66.5h-3.9c-0.1,6-1.4,13.6-6.7,18.3c-0.7-0.9-2.6-2.4-3.5-3c5.2-4.7,5.7-11.6,5.7-17V53.2c4.6-0.6,9.7-1.7,13-3
			l2.9,3.9c-3.3,1.1-7.4,2-11.3,2.5v5.7h11.8L274.2,66.5L274.2,66.5z"/>
		<path class="st0" d="M311.9,64.1c-1.4,4.7-3.2,8.9-5.6,12.6c0.8,2.1,1.7,3.4,2.7,3.4c0.7,0,1.1-1.5,1.2-5.4c0.9,1,2.4,1.9,3.4,2.4
			c-0.6,5.8-1.9,7.4-5.1,7.4c-2.2,0-3.9-1.4-5.2-3.8c-1.4,1.6-2.8,3-4.5,4.2c-0.6-1.1-1.9-2.4-3-3.3H291v3.3h-3.9v-3.3h-7.9v-3.2
			h7.9v-1.5h-6.5v-9.1h6.5v-1.4h-7.4v-3.1h7.4v-1.7h4v1.7h7.3v3.1h-7.3v1.4h6.4v9.1h-6.4v1.5h7.5v1.1c1.1-1,2.1-2.1,3.1-3.4
			c-1.1-4-1.7-9.2-2-14.8h-20.8v-3.5h8.2v-2h-6.4v-3.4h6.4v-2.5h4.3v2.5h6v3.4h-6.1v2h8.2c-0.1-2.6-0.1-5.2-0.1-7.9h4.5
			c-0.1,2.7-0.1,5.3,0,7.9h9.2v3.5h-9c0.2,3.5,0.5,6.8,1,9.5c1.2-2.4,2.1-4.9,2.9-7.7L311.9,64.1L311.9,64.1z M283.8,71.2h3.7v-1.3
			h-3.7V71.2z M283.8,74.7h3.7v-1.4h-3.7V74.7z M294.2,69.9h-3.4v1.3h3.4V69.9z M294.2,73.3h-3.4v1.4h3.4V73.3z M309.1,57.6
			c-0.8-1.5-2.8-3.8-4.4-5.5l3.4-2.1c1.6,1.5,3.7,3.8,4.6,5.2L309.1,57.6L309.1,57.6z"/>
		<path class="st0" d="M350.4,58.8c-4.8,7-12.6,14.4-20.2,19.3c2.3,1.4,5.5,1.7,9.5,1.7s9.6-0.4,13.2-0.9c-0.5,1.2-1.2,3.6-1.3,4.8
			c-2.7,0.2-8.4,0.4-12.1,0.4c-4.6,0-7.7-0.5-10.2-2.1c-1.6-0.9-2.9-2.2-3.7-2.2c-1.2,0-2.9,2.5-4.4,4.9l-3.2-4.2
			c2.7-2.9,5.7-4.9,7.8-4.9h0.2c6.2-3.7,12.7-9.4,16.7-14.5h-22.8v-4.4h14.7c-0.9-1.6-2.3-3.7-3.4-5.2l4-2.1
			c1.4,1.9,3.4,4.5,4.2,6.1l-2.3,1.3h8.9l0.9-0.2L350.4,58.8L350.4,58.8z"/>
		<path class="st0" d="M391.4,57.1h-11.1l3.5,0.7c-0.8,1.3-1.6,2.7-2.3,3.8h8.1v19c0,2-0.5,2.8-1.9,3.4c-1.4,0.5-3.4,0.6-6.4,0.6
			c-0.2-1-0.7-2.4-1.2-3.3c1.8,0.1,4,0.1,4.5,0c0.6,0,0.8-0.2,0.8-0.8V65.2h-5.9v1c0,0.7,0.1,1.1,0.7,1.1h1.9c0.6,0,1.7-0.1,2.2-0.2
			c0,1,0.1,1.9,0.3,3c-0.5,0.2-1.5,0.3-2.4,0.3h-3c-3.1,0-3.6-1.4-3.6-4.1v-0.9H373c-0.5,2.8-1.6,4.6-4.9,5.8h13.7v9.1h-10.9v1.5
			h-3.7V71.3c-0.5,0.1-0.9,0.2-1.4,0.3c-0.3-0.8-1.1-2.1-1.8-2.8v15.7h-4.3v-23h7.8c-0.4-1.1-1.1-2.6-1.7-3.8l2.5-0.8H358v-3.8h14.9
			c-0.2-1-0.6-2-0.9-2.8l4.4-1.1c0.5,1.2,1,2.7,1.3,3.9h13.9L391.4,57.1L391.4,57.1z M363.9,68.6c3.5-0.6,4.7-1.6,5.2-3.4h-5.2V68.6
			z M377.3,61.6c0.8-1.4,1.5-3.2,2-4.5h-9.5c0.7,1.2,1.5,2.7,1.9,3.7l-2.4,0.9h8V61.6z M370.8,74.1v3h7.3v-3H370.8z"/>
		<path class="st0" d="M397.7,67.9h14.4v16.7h-4.5v-1.7H402v1.9h-4.3V67.9L397.7,67.9z M401.9,72.2v6.4h5.6v-6.4H401.9z M425,64.8
			h-22.1V51.2H425V64.8z M420.5,55.5h-13.2v5.1h13.2V55.5z M430.1,67.9v16.7h-4.5v-1.7h-6v1.9h-4.3V67.9H430.1L430.1,67.9z
			 M425.6,78.6v-6.4h-6v6.4H425.6z"/>
		<path class="st0" d="M445.8,63.9c1.3,1.4,4.5,5.3,5.3,6.2l-2.6,3.6c-0.6-1.2-1.7-3-2.7-4.7v15.6h-4.3V69.9
			c-1.2,3.3-2.6,6.4-4.3,8.4c-0.4-1.3-1.4-3.1-2.1-4.2c2.5-3,4.6-8.1,5.9-12.5h-4.9v-4.2h5.4v-7.7h4.3v7.7h4.7v4.2h-4.7L445.8,63.9
			L445.8,63.9z M469.6,51.8v32.4H465v-1.9h-8.9v2.1h-4.3V51.8H469.6z M456.1,56v4.7h8.9V56H456.1z M456.1,64.6v4.8h8.9v-4.8H456.1z
			 M465,78.2v-4.8h-8.9v4.8H465z"/>
		<path class="st0" d="M490.9,68.9c0.6,1.3,1.3,3.1,1.6,4.1l-1.5,0.5h0.6v3.6c0,3-0.8,5.7-5.5,7.4c-0.3-0.7-1.3-1.9-1.9-2.5
			c2-0.5,3.1-1.3,3.7-2.2h-4.3v-5.7h2.7v3.2h2.3v-3.8h1.7c-0.1-0.3-0.1-0.6-0.2-0.9c-5.2,0.6-6.1,0.8-6.7,1.1l0,0
			c-0.1-0.5-0.5-1.8-0.8-2.5c0.5-0.1,1.2-0.4,2-1c0.3-0.2,0.9-0.7,1.6-1.4c-1.8,0.2-2.3,0.3-2.7,0.4l0,0c-0.1-0.6-0.6-1.8-0.9-2.6
			c0.4-0.1,0.9-0.3,1.2-0.7c0.4-0.3,1.5-1.3,2.2-2.7h-5v21.4h-4.3V51.2h14.6v12.2h-3.8l1.4,0.8c-0.8,1-1.7,2-2.6,2.8l2-0.1
			c0.5-0.6,1-1.2,1.4-1.7l2.2,1.5c-1.5,1.5-3.2,3.1-4.9,4.3l2.3-0.2c-0.1-0.4-0.3-0.8-0.5-1.2L490.9,68.9L490.9,68.9z M480.9,54.2
			V56h6v-1.8H480.9z M480.9,60.3h6v-1.7h-6V60.3z M508.5,79.6c0,2.1-0.3,3.4-1.6,4.1c-1.2,0.8-3,0.8-5.6,0.8c-0.1-1-0.5-2.5-1-3.6
			h-1.8v-1.1h-2.3v4.4h-3.1V73.6h0.1c-0.2-0.6-0.5-1.7-0.8-2.3c0.6,0,1.2-0.4,2-1c0.3-0.2,0.9-0.7,1.6-1.4c-1.8,0.2-2.3,0.3-2.7,0.4
			c-0.1-0.6-0.6-1.9-0.9-2.6c0.4-0.1,0.9-0.3,1.2-0.7c0.3-0.3,1.4-1.4,2.2-2.7h-2.3V51.2h14.9L508.5,79.6L508.5,79.6z M501.5,80.2
			c0.9,0,1.7,0,2,0c0.5,0,0.6-0.2,0.6-0.7V63.3h-6.8l1.5,0.8c-0.8,1-1.6,1.9-2.5,2.7l1.9-0.1c0.6-0.6,1.1-1.2,1.5-1.8l2.1,1.5
			c-1.5,1.6-3.2,3.2-4.9,4.5l2.3-0.2c-0.2-0.4-0.3-0.8-0.5-1.2l2.1-0.7c0.7,1.3,1.4,3.1,1.8,4.1l-2.2,0.9c-0.1-0.3-0.3-0.8-0.4-1.2
			c-3.9,0.5-5.4,0.8-6.2,0.9h2.5v3.8h2.3v-3.2h2.9L501.5,80.2L501.5,80.2z M498,54.2V56h6.2v-1.8H498z M498,60.3h6.2v-1.7H498V60.3z
			"/>
		<path class="st0" d="M549.3,74.3h-3.9v6.5h-4.6v-1.5H534v1.2c0,2.2-0.5,3.1-2,3.8c-1.4,0.6-3.5,0.6-6.7,0.6
			c-0.2-1.1-0.9-2.6-1.5-3.5c1.8,0.1,4,0.1,4.6,0.1c0.7,0,1-0.3,1-0.9v-1.2h-11.5v-3.2h11.5v-1.8h-15V71h15v-1.6h-11.2v-3h11.2v-1.7
			h-10.2v-7.4h10.2v-1.5h-14.1v-3.5h14.1v-2.4h4.6v2.4h14.4v3.5H534v1.5h10.7v7.4H534v1.7h11.4V71h3.9V74.3L549.3,74.3z M529.4,61.9
			v-1.8h-5.9v1.8H529.4z M534,60.1v1.8h6.1v-1.8H534z M534,70.9h6.8v-1.6H534V70.9z M540.8,74.3H534v1.8h6.8V74.3z"/>
		<path class="st0" d="M568.1,73.2c-4.6,1.7-9.5,3.5-13.3,4.8l-1.8-4.3c1.4-0.4,3.2-0.9,5.2-1.5V57.9H554v-4.1h13v4.1h-4.2v13
			l4.7-1.5L568.1,73.2L568.1,73.2z M573.1,77.4l3.5,2.4c-2.5,1.9-6.5,3.9-9.8,4.9c-0.6-0.9-1.8-2.2-2.7-3c3.1-0.9,6.8-2.8,8.7-4.3
			H569V57.6h5.9c0.2-0.9,0.3-1.8,0.5-2.6h-8v-3.8h21.4V55h-8.3c-0.3,0.9-0.6,1.8-1,2.6h7.9v19.8L573.1,77.4L573.1,77.4z M573.2,63.2
			h9.9v-2.4h-9.9V63.2z M573.2,68.6h9.9v-2.4h-9.9V68.6z M573.2,74.1h9.9v-2.4h-9.9V74.1z M582,77.5c2.4,1.3,5.8,3.3,7.5,4.7
			l-3.5,2.6c-1.5-1.4-4.8-3.5-7.3-4.9L582,77.5L582,77.5z"/>
		<path class="st0" d="M603.4,67.2c-0.6,3.4-1.7,6.9-3,9.7c0.6,0.4,1.3,0.9,2.3,1.5c2.6,1.5,6.1,1.8,10.5,1.8s11.1-0.4,15.3-1
			c-0.5,1.2-1.2,3.4-1.3,4.6c-3.1,0.2-9.8,0.4-14.2,0.4c-5,0-8.2-0.4-10.9-2c-1.6-0.9-2.9-2.1-3.7-2.1c-0.9,0-2.2,2.6-3.1,4.7
			l-3-4.2c1.3-1.6,2.7-2.8,4-3.6c0.9-1.9,1.6-4.2,2.2-6.5h-4.8c0.9-2.2,1.9-5.2,2.7-8.1H593v-4h8.8c-0.8,2.6-1.7,5.6-2.6,8.2h1.5
			l0.7-0.2L603.4,67.2L603.4,67.2z M597.1,57.4c-0.4-1.7-1.4-4.4-2-6.4l4-1.2c0.7,2,1.7,4.5,2.2,6.2L597.1,57.4z M609.4,78.4h-4.2
			V59.1h8.5c-1.7-0.8-3.5-1.5-5.1-2.2l2.9-2.4c1.3,0.5,2.9,1.1,4.4,1.8c1.1-0.6,2.1-1.3,3-2h-13.4V51h17.3l0.9-0.2l2.7,2.1
			c-1.9,1.8-4.3,3.6-6.7,5.1c0.8,0.4,1.6,0.8,2.3,1.2h4.6v15.4c0,1.8-0.3,2.7-1.5,3.3c-1.2,0.6-2.8,0.6-5.1,0.6
			c-0.2-1.1-0.6-2.5-1.1-3.5c1.2,0,2.5,0,2.9,0c0.5,0,0.6-0.2,0.6-0.6v-1.7h-4.5v5.5h-4v-5.5h-4.3L609.4,78.4L609.4,78.4z
			 M609.4,62.3v2h4.3v-2C613.8,62.3,609.4,62.3,609.4,62.3z M613.8,69.6v-2.1h-4.3v2.1H613.8z M622.2,62.4h-4.5v2h4.5V62.4z
			 M622.2,69.6v-2.1h-4.5v2.1H622.2z"/>
		<path class="st0" d="M643.6,68.8c-0.1,0.5-0.2,1.1-0.3,1.5c2,1.9,6,6.6,7.1,7.8l-3,3.8c-1.2-1.9-3.4-4.8-5.2-7
			c-1.3,3.7-3.5,7.2-7.1,9.8c-0.6-0.9-2.3-2.7-3.2-3.4c4.9-3.5,6.7-8.2,7.3-12.5h-6.7v-4.2h7v-6H638c-0.8,1.9-1.6,3.6-2.6,5
			c-0.8-0.8-2.6-2-3.6-2.6c2-2.7,3.5-7,4.2-11.3l4.3,0.9c-0.3,1.3-0.6,2.6-1,3.9h10v4.1H644v6h6.2v4.2L643.6,68.8L643.6,68.8z
			 M665.5,53v30.1H661V81h-5.5v2.7h-4.3V53H665.5L665.5,53z M661,76.8V57.2h-5.5v19.6H661z"/>
		<path class="st0" d="M44,118.9c0-8.6,3.3-14.9,8.2-19.4l3.2,2.5c-4.6,5-6.5,9.5-6.5,16.9s2,12,6.5,17l-3.1,2.5
			C47.3,133.8,44,127.6,44,118.9L44,118.9z"/>
		<path class="st0" d="M95.7,125.8v5.1H62.1v-5.1C62.1,125.8,95.7,125.8,95.7,125.8z M92.5,104.2v4.9H65.2v-4.9H92.5z"/>
		<path class="st0" d="M102.4,135.9c4.6-5,6.5-9.5,6.5-17S107,107,102.4,102l3.2-2.5c4.9,4.5,8.2,10.8,8.2,19.4s-3.3,14.9-8.2,19.4
			L102.4,135.9z"/>
		<path class="st0" d="M149.8,110.2c-1.7,2.7-4,5-6.7,6.9c3.9,1.3,8.4,2.3,13.3,2.8c-1,1-2.2,3-2.8,4.3c-1.4-0.2-2.7-0.4-4-0.7V134
			H145v-1.1h-12.8v1.2h-4.4v-10.3c-1.6,0.4-3.2,0.8-4.9,1.1c-0.4-1.1-1.4-3-2.2-4c4.7-0.6,9.4-1.8,13.5-3.6
			c-1.2-0.8-2.3-1.8-3.4-2.8c-1.4,0.9-2.9,1.7-4.6,2.5c-0.6-1.1-2-2.6-3-3.3c5.2-1.9,8.7-4.7,10.6-7.5h-7v4.2h-4.4v-8.2h14.1
			c-0.4-0.9-0.9-1.7-1.2-2.4l4.5-1.1c0.6,1.1,1.3,2.4,1.9,3.5h13.2v8.2h-4.6v-4.2h-15.8l4.2,0.9c-0.4,0.5-0.8,1-1.2,1.5h8.4l0.8-0.2
			L149.8,110.2L149.8,110.2z M145,129.2V126h-12.8v3.2H145z M145,122.3c-2.3-0.7-4.5-1.5-6.5-2.5c-1.8,0.9-3.9,1.8-6,2.5H145
			L145,122.3z M134.1,112c1.2,1.2,2.8,2.2,4.5,3.1c1.6-1,3.1-2,4.3-3.2h-8.6L134.1,112z"/>
		<path class="st0" d="M191.3,108.9v15.6h-4.6v-1.9h-17.5c-0.8,4.2-2.5,8.5-5.6,11.6c-0.7-0.9-2.5-2.5-3.5-3
			c4.9-4.9,5.4-12.3,5.4-17.8v-10.9c7.6-0.7,16.3-1.9,21.4-3.4l3.6,3.4c-5.8,1.6-13.4,2.7-20.4,3.4v3.1L191.3,108.9L191.3,108.9z
			 M186.6,118.5V113H170v0.4c0,1.5-0.1,3.3-0.2,5.1H186.6L186.6,118.5z"/>
		<path class="st0" d="M234.6,104.7H228c1.1,0.9,2.3,1.8,2.9,2.6l-2.5,2.2h5v6.5h-4.6v-3.2h-23.3v3.2h-4.4v-6.5h1.4
			c-0.7-0.8-2.1-2.2-2.9-2.9c2.2-1.9,4.4-4.9,5.5-7.9l4,1.1c-0.2,0.5-0.4,1-0.7,1.5h8.3v3.1c1.7-1.5,3.1-3.6,4-5.7l4,1.1
			c-0.2,0.5-0.4,1.1-0.7,1.6h10.5C234.6,101.3,234.6,104.7,234.6,104.7z M210.9,109.4c-0.8-1-2.3-2.5-3.4-3.5l1.4-1.2h-2.2
			c-1.2,1.8-2.5,3.4-3.8,4.7H210.9z M210.3,124.4h20.4v9.7h-4.5v-1h-15.9v1h-4.6v-19.7h23v8.3h-18.4V124.4L210.3,124.4z
			 M210.3,117.5v1.9h14.1v-1.9H210.3z M210.3,127.7v2.1h15.9v-2.1C226.2,127.7,210.3,127.7,210.3,127.7z M218.2,106.6
			c-0.7-0.6-1.5-1.2-2.1-1.6l0.3-0.3h-5c0.8,0.8,1.7,1.6,2.2,2.2l-2.7,2.5h4.3c-0.3-0.7-0.6-1.5-1-2.1L218.2,106.6L218.2,106.6z
			 M227.6,109.4c-0.9-1.1-2.5-2.4-3.7-3.4l1.6-1.4h-3.4c-0.8,1.1-1.7,2.2-2.6,2.9c-0.3-0.3-0.6-0.6-1.1-0.9c0.5,0.8,1.1,1.8,1.4,2.7
			L227.6,109.4L227.6,109.4z"/>
		<path class="st0" d="M252,126.5c-4.2,1.5-8.7,2.9-12.3,4l-1-4.5c1.3-0.3,2.9-0.8,4.6-1.2V116h-3.8v-4.1h3.8v-6.6h-4.2v-4.2h12.5
			v4.2h-4v6.6h3.4v4.1h-3.4v7.5c1.2-0.4,2.5-0.8,3.7-1.2L252,126.5L252,126.5z M274.4,128.8v4.1h-24.3v-4.1h10.4v-3.6h-7.8v-4h7.8
			V118H253v-17.4h19.7V118h-7.6v3.2h8v4h-8v3.6H274.4L274.4,128.8z M257.1,107.5h3.9v-3.1h-3.9V107.5z M257.1,114.2h3.9V111h-3.9
			V114.2z M268.5,104.4h-3.7v3.1h3.7V104.4z M268.5,111h-3.7v3.2h3.7V111z"/>
		<path class="st0" d="M313.3,125.4h-10.7c3.5,1.7,7.3,3.6,9.6,5l-3,3.4c-2.4-1.6-6.6-4.1-10.3-5.8l2-2.6h-11.2l3.2,2.6
			c-3.2,2.1-8,4.5-11.7,6c-0.6-0.9-1.7-2.4-2.5-3.3c3.3-1.2,7.7-3.4,10.2-5.2h-10.3v-4.1h3.4l-0.6-19.3c2.4-0.8,5.3-1.9,7.2-2.8
			l1.9,3.6c-1.6,0.6-3.4,1-5.1,1.5l0.1,3.4h4.3v3.6h-4.2l0.1,3.2h4.2v3.6h-4.1l0.1,3.2h19.7c0.1-1,0.1-1.9,0.2-3H302v-3.7h4
			c0-1.1,0.1-2.1,0.1-3.2h-3.8v-3.7h3.9c0-1.1,0-2.1,0-3.2H302v-3.8h8.5c0,6.7-0.2,15-0.5,20.6h3.3V125.4L313.3,125.4z M295.2,113.3
			c-0.3,2.4-0.9,4.9-1.9,6.5c-0.6-0.5-2-1.3-2.8-1.8c0.9-1.4,1.2-3.3,1.4-5.3L295.2,113.3L295.2,113.3z M297,111.8h-5.7V99.4h3.8
			v2.6h5.9v3.7h-5.9v2.7h4.2v0.1h1.4v9.5c0,1.5-0.3,2.2-1.3,2.7c-1,0.4-2.5,0.4-4.3,0.4c-0.1-0.9-0.6-1.9-1-2.7c1,0.1,2.1,0.1,2.4,0
			c0.3,0,0.5-0.1,0.5-0.4L297,111.8L297,111.8z"/>
		<path class="st0" d="M331.7,129.1c0,2.1-0.3,3.3-1.5,4.1c-1.2,0.7-2.8,0.8-5.2,0.8c-0.1-1.2-0.6-3.2-1.2-4.3c1.4,0.1,2.8,0,3.2,0
			s0.6-0.1,0.6-0.7v-7.4h-4c-0.3,4.4-1.1,9-2.6,12.4c-0.8-0.6-2.6-1.7-3.6-2.1c2.3-5.1,2.5-12.6,2.5-18.1v-13.6h11.9L331.7,129.1
			L331.7,129.1z M327.6,117.4v-4.5h-3.7v1c0,1.1,0,2.3,0,3.5H327.6L327.6,117.4z M323.9,104.4v4.3h3.7v-4.3H323.9z M352.4,114.1
			c-0.9,5.1-2.4,9.2-4.5,12.6c1.6,1.7,3.5,3,5.6,3.9c-0.9,0.8-2.1,2.4-2.8,3.5c-2-1.1-3.8-2.5-5.4-4.1c-1.4,1.6-3.1,2.9-5,4
			c-0.5-0.9-1.4-2.2-2.2-3v3.1h-4.3v-33.7h17.4v7.2c0,1.9-0.4,3-2,3.6c-1.5,0.6-3.6,0.6-6.5,0.6c-0.2-1.2-0.8-2.7-1.3-3.8
			c1.9,0.1,4.1,0.1,4.7,0.1s0.8-0.2,0.8-0.6v-3h-8.8v8.9H349l0.7-0.2L352.4,114.1L352.4,114.1z M338.1,130.5
			c1.7-0.9,3.2-2.2,4.6-3.8c-1.9-2.7-3.2-5.9-4.4-9.3h-0.2V130.5L338.1,130.5z M342.1,117.4c0.8,2.1,1.7,4.1,2.9,5.8
			c1-1.8,1.9-3.8,2.5-5.8H342.1z"/>
		<path class="st0" d="M389.4,106.5c-1,2.1-2.2,3.9-3.8,5.5c2.1,1,4.4,1.7,7,2.2c-1,0.9-2.2,2.7-2.8,3.8c-2.9-0.7-5.4-1.8-7.7-3.2
			c-2.2,1.3-4.8,2.4-7.7,3.2c-0.2-0.4-0.6-1-1.1-1.6c-0.5,2.3-1.2,4.6-1.9,6.3l-3-1.4c0.4-1.4,0.9-3.3,1.2-5.2h-2v13.2
			c0,2-0.3,3.2-1.6,3.9c-1.3,0.7-3,0.8-5.3,0.8c-0.1-1.2-0.7-3-1.3-4.2c1.4,0,2.9,0,3.4,0s0.6-0.1,0.6-0.6v-8
			c-1.3,2.8-2.9,5.3-4.7,6.9c-0.4-1.3-1.4-3.1-2-4.3c2.1-1.8,4-4.8,5.4-7.7h-4.7v-3.9h8.7c-2.1-1.3-5-2.7-7.3-3.6l2.8-2.8
			c0.9,0.3,2,0.8,3,1.2c0.8-0.7,1.7-1.5,2.4-2.4h-9.1v-3.8h12.2l0.7-0.2l2.9,1.8c-1.3,2.1-3.4,4.4-5.5,6.2c1.1,0.6,2,1.1,2.8,1.7
			l-1.9,1.9h1.8l0.6-0.2l2.7,0.9l-0.1,0.9c1.7-0.4,3.2-1,4.6-1.7c-1-0.9-1.9-2-2.7-3.1c-0.6,0.6-1.1,1.1-1.7,1.6
			c-0.9-0.7-2.6-1.9-3.7-2.5c3-2.1,5.8-5.5,7.2-8.9l4.2,1.1c-0.4,0.9-0.9,1.8-1.4,2.6h11.1v3.7L389.4,106.5L389.4,106.5z
			 M391.2,119.9c0,0-0.1,1.2-0.1,1.7c-0.6,6.5-1.3,9.4-2.4,10.6c-0.8,0.9-1.6,1.2-2.8,1.3c-1,0.1-2.5,0.1-4.2,0.1
			c0-1.2-0.5-3-1.2-4.1c1.4,0.1,2.6,0.2,3.2,0.2c0.5,0,0.8-0.1,1.2-0.4c0.5-0.5,1-2.1,1.4-5.6H382c-1.3,4.5-4,8.1-9.9,10.4
			c-0.5-1.1-1.7-2.6-2.6-3.4c4.5-1.6,6.7-4.1,7.9-7h-4.6V120h5.5c0.2-1.1,0.3-2.2,0.4-3.3h4.5c-0.1,1.1-0.2,2.2-0.4,3.3L391.2,119.9
			L391.2,119.9z M378.8,106.5c0.8,1.2,1.9,2.2,3.1,3.2c1-0.9,1.9-2,2.5-3.2H378.8L378.8,106.5z"/>
		<path class="st0" d="M44,168.1c0-8.6,3.3-14.9,8.2-19.4l3.2,2.5c-4.6,5-6.5,9.5-6.5,16.9s2,11.9,6.5,17l-3.1,2.5
			C47.3,183.1,44,176.8,44,168.1L44,168.1z"/>
		<path class="st0" d="M95.2,176.5v4.6H62.4v-4.6H95.2z M93.2,151.9v4.5H64.5v-4.5H93.2L93.2,151.9z M90.2,163.8v4.5H67.1v-4.5H90.2
			z"/>
		<path class="st0" d="M102.4,185.1c4.6-5,6.5-9.5,6.5-17s-2-11.9-6.5-16.9l3.2-2.5c4.9,4.5,8.2,10.8,8.2,19.4s-3.3,14.9-8.2,19.4
			L102.4,185.1z"/>
		<path class="st0" d="M145.7,160.1c2.4,5.5,6.2,10.6,10.6,13.6c-1.2,0.9-2.8,2.7-3.6,3.9c-1.4-1.1-2.8-2.4-4-3.9v3.3H141v6.3h-4.8
			V177h-7.9v-3.3c-1.3,1.5-2.8,2.9-4.3,4.1c-0.8-1.1-2.2-2.8-3.3-3.6c4.4-3,8.2-8.4,10.6-14H122v-4.5h14.2v-7.2h4.8v7.2h14.2v4.5
			L145.7,160.1L145.7,160.1z M136.2,172.4v-12.3H136c-1.7,4.6-4,8.8-6.7,12.3H136.2L136.2,172.4z M147.7,172.4
			c-2.7-3.5-4.9-7.8-6.6-12.3H141v12.3H147.7z"/>
		<path class="st0" d="M175.2,150.7c-2.8,6.1-7.2,12.5-11.3,16.4c-0.9-1-2.9-2.9-4-3.8c4-3.3,8-8.8,10.2-14.2L175.2,150.7
			L175.2,150.7z M185.8,167.9c3.1,4.1,6.5,9.4,8.4,12.9l-4.6,2.4c-0.5-1.1-1.2-2.3-2-3.7c-18.3,1.4-20.8,1.6-22.7,2.3
			c-0.3-0.9-1.2-3.4-1.8-4.8c1.2-0.3,2.3-1.4,3.8-3c1.6-1.6,6.3-8,9.3-14.2l5.2,2.2c-2.9,5.1-6.5,10.1-10.2,14.1l13.9-0.9
			c-1.2-1.9-2.5-3.8-3.6-5.5L185.8,167.9L185.8,167.9z M186.6,149.2c1.6,5.2,5.1,10.5,9.7,13.3c-1,1-2.6,3.1-3.4,4.5
			c-4.3-3.3-7.7-8.3-9.8-13.2H177v-4.6H186.6L186.6,149.2z"/>
		<path class="st0" d="M232.4,177.6c0,2.6-0.4,3.9-2.1,4.7c-1.6,0.8-4,0.9-7.3,0.9c-0.1-1.3-0.8-3.5-1.5-4.8
			c2.1,0.1,4.6,0.1,5.3,0.1s0.9-0.2,0.9-0.8v-22.8h-26.4v-4.2h31L232.4,177.6L232.4,177.6z M224.1,161.3h-22.2v-3.9h22.2V161.3z
			 M208.1,176.8v2.7h-4.4v-15.4H222v12.7H208.1L208.1,176.8z M208.1,167.9v5h9.5v-5H208.1z"/>
		<path class="st0" d="M253,158c-1.1,1.9-2.5,3.9-4,5.7v19.6h-4.5v-14.6c-1.1,1-2.1,1.9-3.1,2.8c-0.6-0.9-2.1-2.9-3.1-3.9
			c3.9-2.6,8-7,10.4-11.2L253,158L253,158z M251.6,150.1c-2.7,3.5-6.8,7.4-10.4,9.9c-0.6-1-1.7-2.8-2.5-3.6c3.1-2,6.7-5.4,8.5-8
			L251.6,150.1L251.6,150.1z M273.9,165h-5.2v13.1c0,2.4-0.4,3.6-2.1,4.3c-1.6,0.7-4,0.8-7.4,0.8c-0.2-1.3-0.8-3.3-1.4-4.5
			c2.1,0.1,4.6,0.1,5.3,0.1s0.9-0.1,0.9-0.7v-13h-11v-4.2h20.9V165L273.9,165z M272.9,154.7h-18.4v-4.2h18.4V154.7z"/>
		<path class="st0" d="M292.5,179.1c-4.7,1.1-9.6,2.2-13.4,3l-0.9-4.1c1.6-0.2,3.6-0.5,5.8-0.9v-9.4h-5.2v-3.8h5.2v-2.7h-3v-0.9
			c-0.4,0.4-0.9,0.8-1.3,1.2c-0.3-1-1.3-3.4-1.9-4.6c2.7-2.1,5.4-5.5,7-9l3.9,1.4c-0.2,0.4-0.4,0.9-0.6,1.3c2.1,1.7,4.5,3.7,5.9,5
			l-2.5,3.4c-0.3-0.3-0.5-0.6-0.9-0.9v3.1H288v2.7h4.2v3.8H288v8.8l4.5-0.8V179.1L292.5,179.1z M281.8,169.2c0.6,2,1.2,4.7,1.5,6.4
			l-3.1,0.9c-0.2-1.8-0.8-4.5-1.3-6.5L281.8,169.2L281.8,169.2z M289.9,157.6c-1.1-1.1-2.5-2.3-3.9-3.5c-0.8,1.2-1.6,2.4-2.5,3.5
			H289.9L289.9,157.6z M288.3,175.1c0.5-1.7,1.2-4.4,1.4-6.3l3.4,0.9c-0.8,2.2-1.5,4.6-2.1,6.3L288.3,175.1L288.3,175.1z
			 M312.1,178.4c0,2.1-0.4,3.3-1.8,3.9c-1.3,0.7-3.3,0.7-6.1,0.7c-0.1-1.2-0.7-3-1.2-4.1c1.7,0.1,3.6,0.1,4.2,0.1s0.8-0.2,0.8-0.7
			v-4.6c-3.2,0.8-6.4,1.6-9.1,2.3l-1-2.6c-0.2,3.6-0.8,7.4-2.3,10c-0.8-0.8-2.6-2-3.6-2.5c1.7-3,1.8-7.3,1.8-10.8v-11.5h7v-10.4h4.3
			v10.4h7L312.1,178.4L312.1,178.4z M295.9,158c-0.4-1.8-1.8-4.8-3.2-6.9l3.6-1.6c1.5,2.1,3,4.8,3.5,6.7L295.9,158L295.9,158z
			 M297.9,170.3c0,0.6,0,1.3,0,2c2.7-0.5,6.4-1.4,10-2.2v-7.6h-10V170.3L297.9,170.3z M299.8,164.1c2.6,0.5,6,1.7,7.7,2.7l-1.9,3
			c-1.7-1.1-5-2.3-7.6-3L299.8,164.1L299.8,164.1z M313.4,150.6c-1.2,2.6-2.5,5.3-3.6,7l-3.8-1.4c1.1-1.9,2.5-4.9,3.2-7.2
			L313.4,150.6L313.4,150.6z"/>
		<path class="st0" d="M332,177.4c-2.6,2.1-7.1,4.1-11,5c-0.6-0.9-1.7-2.4-2.6-3.2c3.8-0.5,8.2-1.8,10.5-3.2L332,177.4z
			 M352.1,171.1v3.7h-14.7v8.5h-4.5v-8.5h-14.4v-3.7h14.4v-1.6H322v-3.2h10.9v-1.7h-12.8v-3.4h7c-0.3-0.9-0.9-1.9-1.4-2.7l2.5-0.6
			h-9.6v-3.5h5.1c-0.6-1.4-1.5-3.2-2.4-4.6l3.9-1.3c1.1,1.6,2.4,3.8,2.9,5.2l-1.8,0.7h3.5v-6.1h4.2v6.1h2.8v-6.1h4.2v6.1h3.4
			L343,154c0.9-1.5,1.9-3.8,2.4-5.4l4.7,1.1c-1.1,1.7-2.1,3.4-3,4.7h4.9v3.5h-10l3.5,0.9c-0.8,0.9-1.6,1.7-2.3,2.4h7.3v3.4h-13.1
			v1.7h11.3v3.2h-11.3v1.6L352.1,171.1L352.1,171.1z M330.2,157.9c0.6,0.9,1.2,2,1.5,2.8l-2,0.5H340l-1.4-0.4c0.6-0.9,1.4-2,1.9-2.9
			L330.2,157.9L330.2,157.9z M342,175.8c3.1,1.1,7.5,3,9.9,4.2l-3.2,2.4c-2.2-1.2-6.6-3.2-9.8-4.5L342,175.8L342,175.8z"/>
		<path class="st0" d="M389.4,155.8c-1,2.1-2.2,3.9-3.8,5.5c2.1,1,4.4,1.7,7,2.2c-1,0.9-2.2,2.7-2.8,3.8c-2.9-0.7-5.4-1.8-7.7-3.2
			c-2.2,1.4-4.8,2.4-7.7,3.1c-0.2-0.4-0.6-1-1.1-1.6c-0.5,2.3-1.2,4.6-1.9,6.3l-3-1.4c0.4-1.4,0.9-3.3,1.2-5.2h-2v13.2
			c0,2-0.3,3.2-1.6,3.9c-1.3,0.7-3,0.8-5.3,0.8c-0.1-1.2-0.7-3-1.3-4.2c1.4,0,2.9,0,3.4,0s0.6-0.1,0.6-0.6v-8
			c-1.3,2.8-2.9,5.3-4.7,6.9c-0.4-1.3-1.4-3.1-2-4.3c2.1-1.8,4-4.8,5.4-7.7h-4.7v-3.9h8.7c-2.1-1.3-5-2.7-7.3-3.6l2.8-2.9
			c0.9,0.3,2,0.8,3,1.2c0.8-0.7,1.7-1.5,2.4-2.4h-9.1V150h12.2l0.7-0.1l2.9,1.8c-1.3,2.1-3.4,4.4-5.5,6.2c1.1,0.6,2,1.1,2.8,1.6
			l-1.9,1.9h1.8l0.6-0.2l2.7,0.9l-0.1,0.9c1.7-0.4,3.2-1,4.6-1.7c-1-0.9-1.9-2-2.7-3.1c-0.6,0.6-1.1,1.1-1.7,1.6
			c-0.9-0.7-2.6-1.9-3.7-2.5c3-2.1,5.8-5.5,7.2-8.9l4.2,1.1c-0.4,0.9-0.9,1.8-1.4,2.6h11.1v3.7H389.4L389.4,155.8z M391.2,169.2
			c0,0-0.1,1.2-0.1,1.7c-0.6,6.5-1.3,9.4-2.4,10.6c-0.8,0.9-1.6,1.2-2.8,1.3c-1,0.1-2.5,0.1-4.2,0.1c0-1.2-0.5-3-1.2-4.1
			c1.4,0.1,2.6,0.2,3.2,0.2c0.5,0,0.8-0.1,1.2-0.4c0.5-0.5,1-2.1,1.4-5.6H382c-1.3,4.5-4,8.1-9.9,10.4c-0.5-1.1-1.7-2.6-2.6-3.4
			c4.5-1.6,6.7-4.1,7.9-7h-4.6v-3.7h5.5c0.2-1.1,0.3-2.2,0.4-3.3h4.5c-0.1,1.1-0.2,2.2-0.4,3.3L391.2,169.2L391.2,169.2z
			 M378.8,155.8c0.8,1.2,1.9,2.2,3.1,3.2c1-0.9,1.9-2,2.5-3.2H378.8L378.8,155.8z"/>
		<path class="st0" d="M429,157.3c-4.8,7-12.6,14.4-20.2,19.3c2.3,1.4,5.5,1.7,9.5,1.7s9.6-0.4,13.2-0.9c-0.5,1.2-1.2,3.6-1.3,4.8
			c-2.7,0.2-8.4,0.4-12.1,0.4c-4.6,0-7.7-0.5-10.2-2.1c-1.6-0.9-2.9-2.2-3.7-2.2c-1.2,0-2.9,2.5-4.4,4.9l-3.2-4.2
			c2.7-2.9,5.7-4.9,7.8-4.9h0.2c6.2-3.7,12.7-9.4,16.7-14.5h-22.8v-4.4h14.7c-0.9-1.6-2.3-3.7-3.4-5.2l4-2.1
			c1.4,1.9,3.4,4.5,4.2,6.1l-2.3,1.3h8.9l0.9-0.2L429,157.3L429,157.3z"/>
		<path class="st0" d="M470.7,181H455v2.3h-4.3v-20.1c-0.8,1.1-1.6,2.1-2.4,3c-0.2-0.3-0.5-0.6-0.8-1l0.4,3
			c-1.2,0.4-2.4,0.8-3.7,1.1v8.9c0,2.1-0.4,3.3-1.6,4.1s-2.8,0.9-5.3,0.9c-0.1-1.2-0.6-3.1-1.2-4.4c1.3,0,2.6,0,3.1,0
			s0.6-0.1,0.6-0.6v-7.6l-3.6,1l-1-4.2c1.3-0.3,2.9-0.7,4.6-1.1v-6.8h-4.2v-4.1h4.2v-6.9h4.4v6.9h3.7v4.1h-3.7v5.7l2.5-0.6
			c-0.6-0.6-1.1-1.1-1.6-1.5c3.4-3.4,6.5-8.8,8.2-14.3l4.2,1.1c-0.6,1.7-1.3,3.4-2,5.1h5.1c-0.5-1.4-1.3-3.2-2.1-4.6l3.9-1.5
			c1,1.5,2.1,3.7,2.6,5.1l-2.3,1h7.2v4.1h-6v3.3h5.6v3.9h-5.6v3.4h5.6v3.9h-5.6v3.5h6.9L470.7,181L470.7,181z M459.6,158.8H455v3.3
			h4.6V158.8z M459.6,166.1H455v3.4h4.6V166.1z M455,176.9h4.6v-3.5H455V176.9z"/>
		<path class="st0" d="M509.7,151v3.8h-27.4v7.6c0,6.1-0.5,15-3.9,20.7c-0.8-0.7-2.7-1.8-3.8-2.2c3.1-5.3,3.4-13,3.4-18.5V151h14
			c-0.2-0.7-0.4-1.4-0.6-2l4.7-0.9c0.4,0.9,0.8,2,1.1,3L509.7,151L509.7,151z M501,177.1c3.2,1.1,6.5,2.4,8.5,3.3l-2,3.1
			c-2.4-1.1-6.3-2.8-9.9-4.1l1.4-2.3h-7.3l2.6,2.3c-3.3,1.4-7.7,3.1-10.7,4.1c-0.6-0.8-1.5-2.2-2.3-3c2.6-0.8,6.2-2.2,8.7-3.3h-5.9
			v-10.8h23.3v10.8L501,177.1L501,177.1z M482.9,163h26.6v2.5h-26.6V163z M492.1,155.1v1.4h7.2v-1.4h4.5v1.4h4.7v2.5h-4.7v3.1h-16
			V159h-4.4v-2.5h4.4v-1.4H492.1L492.1,155.1z M488.2,170.5h5.5v-1.6h-5.5V170.5z M488.2,174.6h5.5V173h-5.5V174.6z M492.1,159v1.3
			h7.2V159H492.1z M503.2,168.9H498v1.6h5.2V168.9z M503.2,172.9H498v1.6h5.2V172.9z"/>
		<path class="st0" d="M538.9,160.1c2.4,5.5,6.2,10.6,10.6,13.6c-1.2,0.9-2.8,2.7-3.5,3.9c-1.4-1.1-2.8-2.4-4-3.9v3.3h-7.8v6.3h-4.8
			V177h-7.9v-3.3c-1.3,1.5-2.8,2.9-4.3,4.1c-0.8-1.1-2.2-2.8-3.3-3.6c4.4-3,8.2-8.4,10.6-14h-9.3v-4.5h14.2v-7.2h4.8v7.2h14.2v4.5
			L538.9,160.1L538.9,160.1z M529.4,172.4v-12.3h-0.3c-1.7,4.6-4,8.8-6.7,12.3H529.4L529.4,172.4z M540.9,172.4
			c-2.7-3.5-4.9-7.8-6.6-12.3h-0.1v12.3H540.9L540.9,172.4z"/>
		<path class="st0" d="M588.3,174.9h-8.7c3,1.5,6.5,3.5,8.5,5.1l-3.5,3.1c-2-1.8-6.2-4.4-9.5-6.1l2.6-2.1h-4.3v8.4h-4.5v-8.4h-6.3
			l4.4,1.5c-2.2,2.6-5.9,4.9-9.1,6.3c-0.9-0.9-2.7-2.2-3.8-3c3.2-1.1,6.6-2.9,8.3-4.8H554v-3.7h14.7v-2.6h4.5v2.6h15L588.3,174.9
			L588.3,174.9z M583.7,170.3c-2.7-1.1-6.4-2.2-10.7-3.2c-4.2,1.7-9.9,2.5-17.3,2.9c-0.3-1.4-0.9-2.7-1.5-3.7
			c4.3-0.1,8-0.4,11.1-0.9c-2.1-0.4-4.2-0.8-6.5-1.1c1-0.9,2.1-1.9,3.1-3.1h-7.5v-3.5H565c0.9-1.1,1.7-2.2,2.4-3.3h-8.2v2.1H555
			v-5.7h13.4c-0.3-0.6-0.5-1.1-0.8-1.6l4.8-0.9c0.5,0.7,1,1.6,1.5,2.5h13.5v5.7H583v-2.1h-13.9l2.7,0.8c-0.6,0.8-1.2,1.6-1.9,2.4
			h7.3c0.3-0.7,0.6-1.5,0.9-2.3l4.4,0.9c-0.2,0.5-0.3,1-0.5,1.4h5.9v3.5h-7.7c-0.8,1.3-1.8,2.4-2.9,3.2c4.1,1,7.8,2,10.6,3
			L583.7,170.3L583.7,170.3z M566.6,161.2c-0.3,0.3-0.6,0.6-1,0.9c2.1,0.3,4.2,0.8,6.2,1.2c1.1-0.6,2.1-1.3,2.9-2.1L566.6,161.2
			L566.6,161.2z"/>
		<path class="st0" d="M75.8,208.1v3.2H69l-0.3,2.9H46.9l0.4-2.9h-6v-3.2h6.4l0.4-2.9h21.4l-0.3,2.9H75.8L75.8,208.1z M65.7,227.4
			c3.3,0.9,6.7,1.9,8.9,2.6l-3.1,2.7c-2.7-1-7.1-2.5-11.5-3.6l1.5-1.7h-6.9l2.3,1.6c-3.2,1.6-8.5,3.1-12.9,3.7
			c-0.5-0.9-1.6-2.2-2.4-3c3.3-0.4,7.2-1.3,9.9-2.3h-5.3v-12.1h24.6v12.1H65.7L65.7,227.4z M46.4,207.1h-4v-6.5h13.8
			c-0.3-0.8-0.7-1.6-1.1-2.2l3.9-1.1c0.6,1,1.3,2.2,1.7,3.3h13.8v6.5h-4.2V204H46.4V207.1L46.4,207.1z M50.6,218.6h15.7v-1.1H50.6
			V218.6L50.6,218.6z M50.6,221.9h15.7v-1.2H50.6V221.9L50.6,221.9z M50.6,225.2h15.7V224H50.6V225.2L50.6,225.2z M51.2,212h5
			l0.1-1.2h-5L51.2,212z M51.7,207.5l-0.1,1.1h4.9l0.1-1.1H51.7z M64.7,212l0.1-1.2H60l-0.1,1.2H64.7z M65.1,207.5h-4.8l-0.1,1.1H65
			L65.1,207.5z"/>
		<path class="st0" d="M97.7,213.9c-1.2,1.3-2.5,2.4-3.9,3.3c-0.5-0.8-1.4-1.9-2.1-2.6c0.3,1.3,0.5,2.5,0.5,3.6c0,2.4-0.5,4-1.6,4.9
			c-0.5,0.4-1.2,0.7-2,0.9c-0.6,0.1-1.5,0.1-2.3,0c0-1-0.4-2.6-1-3.7c0.6,0.1,1.1,0.1,1.5,0c0.4,0,0.7-0.1,1-0.3
			c0.4-0.3,0.6-1.2,0.6-2.3c0-1.8-0.4-4.2-2.4-6.9c0.7-2.3,1.4-5.3,2-7.8h-2.8v29.5h-3.9V199h7.9l0.6-0.1l2.8,1.5
			c-0.4,1.5-0.9,3.3-1.4,4.9c2.1-2,3.7-4.8,4.7-7.7l3.3,0.8c-0.2,0.6-0.5,1.3-0.8,1.9h2.8l0.6-0.1l2.2,0.9l-0.2,0.7l1.9-0.4v-1.7h6
			l0.7-0.2l2.4,1.4c-1,3.1-2.8,6.4-4.5,8.6c1.4,2,3.2,3.7,5.3,4.7c-0.8,0.7-2,2.1-2.5,3.1c-1.7-1.1-3.1-2.4-4.5-3.9v2.3h-11
			L97.7,213.9L97.7,213.9z M96.5,210.1c0.5-0.6,0.9-1.2,1.3-1.9c-0.8-0.7-1.7-1.5-2.7-2.3c-0.7,1-1.5,1.9-2.3,2.7
			c-0.5-0.4-1.3-1.2-2.1-1.8c-0.3,1.2-0.8,2.5-1.1,3.6c1,1.5,1.7,2.9,2,4.1c1.5-0.8,2.8-2,4-3.4c-1.5,0.3-2.7,0.5-4.2,0.8l-0.4-2.7
			c1.5-0.1,3.2-0.3,5.2-0.5L96.5,210.1L96.5,210.1z M99.5,224.3c-1.4,2.3-3.5,5.1-5.1,6.9c-0.9-0.7-2.6-1.8-3.6-2.3
			c1.7-1.5,3.5-3.8,4.7-5.9L99.5,224.3L99.5,224.3z M105.6,221.7v10.8h-4.2v-10.8h-7.1v-3.6h18.3v3.6H105.6L105.6,221.7z
			 M97.1,203.2l-0.3,0.4c0.8,0.6,1.7,1.3,2.4,1.9c0.3-0.7,0.6-1.5,0.9-2.3L97.1,203.2L97.1,203.2z M107.8,212
			c-1.8-2.5-3.2-5.6-4.2-8.9c-1,3.5-2.4,6.5-4.3,8.9H107.8L107.8,212z M107,202.5c0.4,1.3,0.9,2.5,1.5,3.6c0.7-1.1,1.3-2.4,1.8-3.6
			H107L107,202.5z M110.5,222.6c1.6,1.8,4,4.5,5.1,6.1l-3.5,2.2c-1-1.6-3.3-4.4-4.9-6.4L110.5,222.6L110.5,222.6z"/>
		<path class="st0" d="M152.5,227.3c0,2.4-0.5,3.7-2.1,4.4c-1.6,0.7-3.9,0.8-7.3,0.8c-0.2-1.3-0.8-3.3-1.5-4.5
			c2.1,0.1,4.6,0.1,5.3,0.1c0.7,0,0.9-0.2,0.9-0.8v-6.7c-0.9,1-2,2.3-2.5,3.2c-4-2.3-6.5-5.8-8.1-10.1c-1.7,4.7-4.3,8.1-8.6,10.4
			c-0.4-0.7-1.2-1.8-2-2.7v11.2H122v-26.7h13.4c-0.1-0.9-0.2-1.9-0.3-2.9h-6.4v-3.9H139c0.1,2.4,0.3,4.6,0.6,6.8h12.8
			C152.5,205.9,152.5,227.3,152.5,227.3z M126.5,220c3.7-2,6.1-5.4,7.3-9.8h-7.3V220z M140.7,210.2c1.3,4.1,3.6,7.4,7.2,9.4v-9.4
			H140.7z"/>
		<path class="st0" d="M179.5,210.4c-0.2,0.3-0.4,0.6-0.6,0.9c4.2,4.4,9.3,7,15.2,9.1c-1,1-2.2,2.4-2.8,3.7
			c-1.4-0.6-2.6-1.2-3.9-1.8v10.2h-4.6v-1h-12.9v1.1h-4.4v-9.8c-1.3,0.7-2.7,1.3-4,1.8c-0.6-1.1-1.7-2.7-2.8-3.6
			c7-2.4,13.5-6.6,16.9-12.2L179.5,210.4L179.5,210.4z M164.7,208.6h-4.4v-8.1h13.9c-0.3-0.8-0.7-1.7-1.1-2.4l4.8-1
			c0.6,1.1,1.2,2.3,1.6,3.4h13.1v8.1H188v-4h-23.2L164.7,208.6L164.7,208.6z M173.8,206.7c-2.4,3.4-6.2,6.6-9.7,8.5
			c-0.7-0.9-2.2-2.6-3-3.4c3.3-1.5,6.6-3.9,8.5-6.4L173.8,206.7z M182.8,227.6v-4h-12.9v4H182.8L182.8,227.6z M182.9,219.7
			c-2.2-1.5-4.4-3.2-6.4-5.3c-1.7,2-3.7,3.7-5.9,5.3H182.9z M181.8,205.4c3.2,1.8,7.4,4.7,9.4,6.8l-3.3,2.9c-1.9-2-6-5.1-9.3-7.1
			L181.8,205.4L181.8,205.4z"/>
		<path class="st0" d="M214.3,222c-5,2.2-10.6,4.6-14.9,6.3l-1.5-4.8c1.4-0.5,3.1-1.1,5-1.8l-0.8-21.9l4.7-0.2l0.7,20.3
			c1.9-0.8,3.8-1.6,5.7-2.3L214.3,222L214.3,222z M229.9,232.5c-1.4-2.4-4.3-5.9-7.1-9c-2.8,3.9-6.5,6.9-11.5,9.1
			c-0.6-1-2.5-3-3.6-3.9c12-4.5,15.9-13.6,17.3-29l4.9,0.4c-0.8,7.7-2.1,13.9-4.6,19c3.1,3.2,6.6,7,8.4,9.6L229.9,232.5L229.9,232.5
			z M215.8,213.3c-0.9-2.6-3.4-6.5-5.6-9.3l4.1-2c2.5,2.7,4.8,6.4,6,9L215.8,213.3L215.8,213.3z"/>
		<path class="st0" d="M251.8,223.3c-4.8,1.4-9.8,2.9-13.7,4l-1.1-4.2c1.5-0.3,3.4-0.8,5.4-1.4v-7.5h-4.2v-4.1h4.2v-6.5h-4.5v-4.1
			h13.2v4.1h-4.4v6.5h3.9v4.1h-3.9v6.4c1.5-0.4,3-0.8,4.5-1.2L251.8,223.3L251.8,223.3z M268.6,228.5c0.7,0,0.8-0.6,0.9-4.4
			c0.9,0.7,2.6,1.4,3.7,1.6c-0.4,5.1-1.4,6.5-4.2,6.5h-2.8c-3.5,0-4.2-1.3-4.2-5.1V220h-2.3c-0.7,6.1-2.4,10.4-10.5,12.8
			c-0.4-1.1-1.6-2.8-2.5-3.7c6.8-1.7,8.1-4.8,8.5-9.1h-2.8v-21H271v21h-4.6v7.3c0,1.1,0.1,1.2,0.7,1.2H268.6L268.6,228.5z
			 M256.7,204.9h9.9v-2.3h-9.9V204.9z M256.7,210.6h9.9v-2.3h-9.9V210.6z M256.7,216.3h9.9V214h-9.9V216.3z"/>
		<path class="st0" d="M297,216.3c-0.3,0.6-0.7,1.2-1.1,1.8h15.4c0,0,0,1-0.1,1.5c-0.5,7.3-1.1,10.3-2.1,11.4
			c-0.7,0.9-1.5,1.2-2.5,1.3c-0.9,0.1-2.3,0.1-3.8,0.1c-0.1-1.1-0.5-2.6-1-3.5c1.2,0.1,2.2,0.1,2.7,0.1s0.8-0.1,1.1-0.4
			c0.5-0.6,1-2.5,1.4-7h-1.5c-1.5,4.2-4.5,8.7-7.6,11.1c-0.8-0.9-2-1.9-3.2-2.5c2.9-1.8,5.4-5.1,7-8.6h-2.2c-2,3.6-5.6,7.3-8.9,9.4
			c-0.7-0.9-1.9-2-2.9-2.6c2.8-1.4,5.7-4,7.7-6.8h-2.3c-1.4,1.4-2.8,2.7-4.4,3.7c-0.6-0.7-2-2-2.9-2.6c-2.7,1.4-5.4,2.7-7.8,3.8
			l-1.7-4.5c1.3-0.5,2.9-1.1,4.6-1.8v-10.6h-3.8v-4.2h3.8V198h4.2v7.4h3.6v4.2h-3.6v8.8l3-1.3l0.8,3.2c1.4-1.2,2.5-2.5,3.5-4h-4.3
			v-3.8H312v3.8L297,216.3L297,216.3z M309.5,211.2h-17.9v-12.7h17.9V211.2z M305.3,201.6h-9.8v1.8h9.8V201.6z M305.3,206.3h-9.8
			v1.8h9.8V206.3z"/>
		<path class="st0" d="M331,200c-2.8,6.1-7.2,12.5-11.3,16.4c-0.9-1-2.9-2.9-4-3.8c4-3.3,8-8.8,10.2-14.2L331,200L331,200z
			 M341.6,217.2c3.1,4.1,6.5,9.4,8.4,12.9l-4.6,2.4c-0.5-1.1-1.2-2.3-2-3.7c-18.3,1.4-20.8,1.6-22.7,2.3c-0.3-0.9-1.2-3.4-1.9-4.8
			c1.2-0.3,2.3-1.4,3.8-3c1.6-1.6,6.3-8,9.3-14.2l5.2,2.2c-2.9,5.1-6.5,10.1-10.2,14.1l13.9-0.9c-1.2-1.9-2.5-3.8-3.6-5.5
			L341.6,217.2L341.6,217.2z M342.3,198.5c1.6,5.2,5.1,10.5,9.7,13.3c-1,1-2.6,3.1-3.4,4.5c-4.3-3.3-7.7-8.3-9.8-13.2h-6v-4.6H342.3
			L342.3,198.5z"/>
		<path class="st0" d="M369.7,207.1c-0.9,1.9-1.9,3.9-3.1,5.7h6.1v-4.3h4.5v4.3h10.9v11.6c0,2.1-0.4,3.2-1.9,3.9
			c-1.4,0.6-3.5,0.7-6.3,0.7c-0.2-1.2-0.8-2.9-1.4-4.1c1.7,0.1,3.7,0.1,4.3,0.1c0.6,0,0.8-0.1,0.8-0.6V217h-6.3v15.5h-4.5V217h-6
			v12.2h-4.5v-10.8c-1.5,1.5-3,2.9-4.8,4.1c-0.6-1.1-1.7-2.9-2.5-3.9c4.2-2.7,7.4-6.9,9.8-11.4h-8.4v-4.3h10.4
			c0.7-1.8,1.3-3.6,1.7-5.4l4.6,1.1c-0.5,1.5-0.9,2.9-1.5,4.4h18.5v4.3L369.7,207.1L369.7,207.1z"/>
		<path class="st0" d="M429,219.4c-0.6,7.3-1.3,10.4-2.5,11.6c-0.8,0.9-1.7,1.2-2.8,1.4c-1,0.1-2.7,0.1-4.5,0.1
			c-0.1-1.2-0.5-2.9-1.2-4c1.5,0.2,3,0.2,3.7,0.2c0.5,0,0.9-0.1,1.2-0.4c0.6-0.6,1.1-2.5,1.5-6.7h-22.5c-0.6,0.4-1.2,0.9-1.9,1.3
			l3.4,1.1c-0.8,3.2-2,6.4-4.4,8.5l-3.5-2.2c2-1.7,3.4-4.3,4.1-7.1c-0.9,0.6-1.9,1.1-2.8,1.5c-0.5-1.1-1.6-2.9-2.3-3.9
			c6.2-2.9,11-7.5,14.5-12.9h-12.1V204h6.4c-0.6-1.5-1.5-3.3-2.4-4.8l3.9-1.5c1.2,1.7,2.4,3.9,2.9,5.5l-1.9,0.8h5.5
			c1.1-2.1,1.9-4.2,2.6-6.4l4.5,1.2c-0.6,1.8-1.4,3.5-2.1,5.2h7.4c-0.4,2.2-1,4.8-1.4,6.9h4.3c-0.4,2.2-0.9,4.9-1.4,6.9h4L429,219.4
			L429,219.4z M408.4,223.9c0.6,2.2,1.1,5,1,6.9l-3.9,0.5c0.1-1.8-0.2-4.7-0.8-6.9L408.4,223.9L408.4,223.9z M409.3,214.7
			c-0.9,1.1-1.8,2.1-2.8,3h14.4c0.2-0.9,0.5-1.9,0.7-3H409.3L409.3,214.7z M414,223.2c0.8,1.9,1.5,4.4,1.8,6.1l-3.6,0.9
			c-0.2-1.7-1-4.2-1.7-6.2L414,223.2z M414.1,207.9c-0.6,1-1.2,2-1.8,3h5.8c0.2-0.9,0.5-1.9,0.6-3H414.1L414.1,207.9z M418.3,228.2
			c-0.3-1.3-1.3-3.5-2.2-5.1l3.1-1.1c1,1.5,2.1,3.6,2.5,4.9L418.3,228.2L418.3,228.2z"/>
		<path class="st0" d="M468.9,226.1h-15.1v6.5h-4.6v-6.5h-14.6v-4h14.6v-1.6h-3.3v-11.8c-0.3,0.3-0.6,0.6-1,0.8
			c-0.7-0.7-2.1-1.8-3.1-2.6l-2.1,3c-1.3-1-3.9-2.2-5.9-3.1l2.3-3c1.7,0.6,4.2,1.7,5.6,2.6c3-2.2,5.8-5.6,7.3-9.1l4.3,1.3
			c-0.4,0.9-1,1.8-1.5,2.8h3.8c-0.3-0.9-0.7-1.8-1-2.5l4.3-1.2c0.6,1.1,1.2,2.5,1.7,3.6h6.9v3.3h-7.6v1.8h6.1v2.7h-6.1v1.6h6.1v2.7
			h-6.1v2h8.2v3.5h-17.8v0.6h3.5v2.3h15.1L468.9,226.1L468.9,226.1z M444.9,212.9c-2.1,2.6-4.6,5.4-6.9,8l-3.1-3.3
			c2.1-1.8,5.1-4.7,7.7-7.6L444.9,212.9L444.9,212.9z M442.4,203.8c-1.2-1-3.8-2.4-5.8-3.2l2.3-3c1.9,0.7,4.5,1.9,5.9,2.9
			L442.4,203.8L442.4,203.8z M455.6,204.8h-5.3v1.8h5.3V204.8z M455.6,209.3h-5.3v1.6h5.3V209.3z M455.6,213.7h-5.3v2h5.3V213.7z"/>
	</g>
</g>
</svg>
