<svg width="368" height="699" viewBox="0 0 368 699" fill="none" xmlns="http://www.w3.org/2000/svg">
<path d="M323.7 12.85H360.89V34.88H323.7V39.81H346.26V79.29H219.71V39.81H239.8V34.88H202.96V12.85H239.8V2.09998L270.47 3.68998C270.29 5.62998 268.71 6.85998 265.18 7.56998V12.86H298.14V2.10998L328.98 3.69997C328.8 5.81997 327.39 6.86998 323.69 7.57998V12.87L323.7 12.85ZM204.2 117.02V84.41H359.66V117.02H334.46V103.45H284.58C283.7 104.33 282.29 104.86 280.53 104.86L277.36 108.56H311.2L315.25 107.68L332.52 115.79C331.99 117.02 330.93 117.55 329.88 118.26C312.08 148.58 274.36 163.2 230.83 169.9C228.54 163.91 223.43 154.39 219.37 149.1C232.41 147.87 245.1 145.57 256.56 142.4C253.56 140.46 250.39 138.7 247.39 137.46L262.55 125.3H258.14C249.33 131.47 238.93 137.29 226.06 142.4C222.89 136.94 215.84 128.48 211.08 124.77C229.23 119.13 242.63 111.73 251.62 103.44H228.18V117.01H204.21L204.2 117.02ZM254.61 63.26V55.68H242.27V63.26H254.61ZM263.95 125.3C269.24 127.42 275.05 130.59 279.64 133.76C284.75 131.29 289.33 128.47 293.39 125.3H263.96H263.95ZM298.14 39.82V34.89H265.18V39.82H298.14ZM288.45 63.26V55.68H275.76V63.26H288.45ZM322.47 63.26V55.68H309.6V63.26H322.47Z" fill="white"/>
<path d="M228.88 286.4V258.73C224.12 266.31 218.83 273.01 213.37 278.12C209.67 272.66 202.09 264.55 196.98 260.32C207.91 252.21 218.31 238.29 225.18 224.36H201.56V202.86H228.88V178.54L258.31 180.13C258.13 182.07 256.72 183.13 253.2 183.83V202.87H276.11V224.37H253.2V228.95C260.07 233 276.29 244.11 280.52 247.28L267.12 267.73C263.59 263.68 258.48 258.57 253.2 253.63V286.41H228.88V286.4ZM243.33 301.21C238.4 315.49 231.35 330.64 220.42 340.87L198.92 325.89C208.44 317.78 216.37 305.09 220.6 292.23L243.34 301.22L243.33 301.21ZM271.35 316.37C271.35 321.48 272.58 322.01 279.81 322.01H297.79C303.43 322.01 304.49 320.42 305.37 309.32C310.31 313.02 321.06 316.72 327.93 318.13C324.93 339.28 318.24 344.57 300.26 344.57H276.29C251.44 344.57 245.97 337.52 245.97 316.72V295.75L269.41 296.98L262.89 292.04L279.63 278.82L282.8 280.94V187H356.65V284.12H287.38C294.96 289.76 302.71 296.46 306.77 301.92L288.79 316.37C285.62 311.79 279.98 305.97 273.63 300.51L271.34 301.04V316.37H271.35ZM306.07 206.92V213.62H332.16V206.92H306.07ZM306.07 232.12V238.99H332.16V232.12H306.07ZM306.07 257.32V264.37H332.16V257.32H306.07ZM345.02 342.45C340.44 330.99 327.39 314.43 314.88 302.62L335.68 290.11C348.19 301.21 362.12 316.55 367.76 328.71L345.02 342.46V342.45Z" fill="white"/>
<path d="M365.65 491.21H344.15C352.43 497.38 362.13 504.78 367.42 510.25L348.56 522.06C342.74 515.54 330.05 504.79 320.54 497.56L331.29 491.22H305.91L316.84 497.56C316.31 498.26 315.25 498.79 314.02 498.97C307.85 506.55 293.93 516.95 282.12 522.06C278.42 518.01 271.72 511.84 266.61 507.96C262.73 522.24 248.99 522.24 234.53 522.24C234.18 515.37 231.89 505.85 228.54 499.68C232.95 500.21 236.82 500.21 239.29 500.21C241.41 500.21 242.82 499.68 244.23 497.39C246.17 494.04 246.87 480.47 247.4 443.1H237.88C235.41 472.89 229.77 501.09 214.97 521.89C210.92 515.72 203.34 507.97 196.99 503.91C214.09 479.94 215.14 443.45 215.67 404.15H199.81V380.53H225.01V354.8L254.62 356.39C254.44 358.33 253.03 359.39 249.51 360.09V380.54H272.07V384.77C278.24 376.13 283 365.21 285.47 354.45L311.03 360.97C310.5 362.38 309.09 363.26 306.62 363.08C305.74 365.9 304.68 368.9 303.62 371.72H365.66V392.17H293.22L291.63 394.64L314.54 395.87C314.36 397.63 312.95 398.69 309.61 399.4V407.68H327.24V394.28L355.79 395.87C355.61 397.63 354.2 398.87 350.68 399.4V407.68H363.37V427.6H350.68V471.31H365.66V491.23L365.65 491.21ZM258.13 420L270.64 420.35C270.64 422.29 270.64 425.11 270.46 427.75C269.93 473.75 269.4 496.49 266.76 507.06C275.4 503.36 284.56 497.19 291.08 491.2H271.87V471.28H286.5V427.57H274.34V407.65H286.5V401.13C285.09 402.89 283.5 404.48 281.92 405.89C279.63 403.6 275.75 400.78 272.05 398.13V404.12H239.62L239.09 419.98H258.13V420ZM327.22 427.58H309.59V431.63H327.22V427.58ZM327.22 451.37V447.14H309.59V451.37H327.22ZM309.59 466.88V471.29H327.22V466.88H309.59Z" fill="white"/>
<path d="M266.07 619.18L259.72 620.06V677.7C259.72 693.74 254.43 698.5 233.63 698.5C233.1 693.21 230.63 684.75 227.99 679.64C230.63 679.82 233.45 679.99 235.57 679.99C240.68 679.99 241.21 679.99 241.21 677.35V622.71L224.47 625C224.12 648.79 221.83 679.11 211.78 698.67C208.43 695.67 200.32 690.74 195.92 688.98C204.38 671.88 206.14 647.91 206.5 627.29L204.38 627.64C204.03 629.23 202.44 630.11 201.03 630.28L196.62 609.13L206.49 608.25V554.32H221.12C222.35 546.74 223.41 537.58 223.76 530.7L250.02 535.28C249.49 536.69 247.9 537.57 245.26 537.75C243.85 542.51 241.91 548.68 239.97 554.32H259.71V603.14L265.53 602.61L266.06 619.18H266.07ZM235.75 576.88C238.39 582.87 240.51 590.63 241.21 596.44H241.39L241.21 573.35H224.47V580.58L235.75 576.88ZM224.47 606.67L241.21 605.08V598.03L228.17 602.44C227.99 597.5 226.41 590.28 224.47 583.93V606.67ZM241.04 628C240.86 629.23 239.81 630.12 237.69 630.29V666.95H226.94V627.12L241.04 628ZM355.78 676.29H365.65V695.33H261.66V676.29H271.53V630.29H355.78V676.29ZM284.57 623.77V626.24H267.47V536.7H317.53V552.56H305.54V560.84H316.82V578.82C321.58 566.66 324.05 548.33 325.28 531.06L349.6 536C349.07 537.41 347.66 538.47 345.37 538.47C344.84 543.23 344.31 547.99 343.43 552.92H364.93V571.96H339.73C337.61 580.42 334.97 588.18 331.62 594.34C328.1 591.34 321.75 587.47 316.81 584.65V599.28H305.53V607.56H319.81V623.78H284.56L284.57 623.77ZM289.68 552.56H284.57V560.84H289.68V552.56ZM300.08 575.3H284.57V584.82H300.08V575.3ZM289.68 607.55V599.27H284.57V607.55H289.68ZM290.38 649.15V676.29H294.96V649.15H290.38ZM315.41 649.15H310.83V676.29H315.41V649.15ZM322.28 615.49V596.45H362.11V615.49H322.28ZM335.85 649.15H331.27V676.29H335.85V649.15Z" fill="white"/>
<path d="M117.17 52.16C111.88 47.23 106.42 42.47 101.31 38.24L121.23 22.73C138.86 36.3 160.89 55.87 170.58 70.85L148.55 88.65C146.26 84.6 142.91 80.01 138.86 75.25C92.5 77.54 44.56 79.48 13.01 80.54C12.48 82.48 10.72 83.36 8.95999 83.54L0.149994 54.99L30.82 54.46C41.4 38.6 52.5 17.8 59.02 0.349976L90.75 11.98C89.87 13.74 87.58 14.62 84.58 14.62C78.59 26.96 69.95 41.23 61.31 53.75L117.18 52.16H117.17ZM26.22 169.55V92H144.13V168.85H117.16V164.27H51.95V169.56H26.22V169.55ZM117.17 116.5H51.95V139.41H117.16V116.5H117.17Z" fill="white"/>
<path d="M14.06 226.65C22.87 230.7 34.68 237.4 40.5 242.69L25.69 262.25C20.58 256.96 8.95 249.21 0.130005 244.45L14.05 226.65H14.06ZM17.76 180.82C26.57 185.23 38.21 192.45 43.85 198.09L28.52 217.3C23.59 211.48 12.13 203.38 3.32001 198.09L17.77 180.82H17.76ZM4.54001 331.17C11.06 317.25 19.87 295.21 26.75 274.06L47.02 287.1C41.38 305.96 34.68 324.64 29.04 338.39C30.27 339.62 30.98 341.03 30.98 342.44C30.98 343.32 30.63 344.2 30.28 345.08L4.55 331.16L4.54001 331.17ZM152.07 241.46L161.94 238.29C165.29 245.34 168.64 254.51 170.05 260.5L157.18 264.91C156.3 260.33 154.36 253.63 152.07 247.64V268.79H136.21V250.99C134.27 257.16 131.63 263.68 128.28 268.09C126.34 266.33 122.99 263.86 120.17 261.92V267.74H85.98V257.52L74.7 260.69C74.17 256.64 72.94 250.64 71.53 245.36V268.8H56.02V252.41C53.9 257.87 51.26 263.34 48.09 267.39C45.45 264.92 40.51 261.4 37.34 259.46C41.04 254.35 43.86 246.06 45.45 238.31L56.03 241.31V235.49L46.16 236.02C45.81 237.43 44.57 238.13 43.34 238.31L38.76 221.21H49.16C50.57 219.45 52.16 217.69 53.74 215.92C50.04 212.04 45.28 207.81 40.87 204.64L48.63 192.3L50.57 193.53C53.57 188.42 56.39 182.43 58.15 177.84L73.84 186.65C73.13 187.71 71.55 188.24 69.61 188.06C67.49 191.76 64.32 196.87 60.97 201.46L63.26 203.57C65.9 199.87 68.37 196.17 70.31 192.99L81.24 199.86V195.63H123.36V199.51L127.94 192.28L129.88 193.51C133.05 188.4 136.05 182.41 137.99 177.82L153.68 186.63C152.97 187.69 151.39 188.22 149.45 188.04C147.16 191.74 143.81 196.85 140.46 201.44L142.93 203.73C145.93 199.85 148.75 195.98 150.86 192.45L166.19 202.14C165.31 203.37 163.55 203.55 161.78 203.37C157.55 208.48 151.73 215.18 145.74 221.17H153.32C152.79 219.41 152.09 217.65 151.38 216.06L163.19 211.3C166.36 218 169.36 227.16 170.24 232.98L157.73 238.27C157.55 237.04 157.38 235.63 157.02 234.22L152.09 234.57V241.44L152.07 241.46ZM142.73 308.26L147.67 307.55L161.95 311.43C161.6 313.19 161.07 314.96 160.19 316.37C155.61 344.04 149.44 345.8 122.82 345.8C118.41 345.8 113.3 345.8 108.01 345.62C107.83 339.98 105.19 332.4 101.84 327.29C108.89 328 116.47 328.17 121.4 328.17C130.74 328.17 132.15 328.17 134.27 323.59H72.93L71.7 328L48.79 325.18C51.96 315.49 55.31 301.74 57.43 290.28H126.52V286.75H51.77V272.47H150.12V304.55H77.68L76.8 308.25H142.72L142.73 308.26ZM120.17 255.21C122.29 250.27 123.87 244.11 124.93 238.29L136.21 241.46V235.47L126.87 236C126.52 237.41 125.28 238.11 124.05 238.29L120 222.96H85.98V211.86H120.17V221.2H128.45C130.04 219.61 131.62 217.85 133.21 215.91C130.21 212.91 126.86 209.74 123.34 207.1V208.33H81.22V203.92C77.34 208.86 71.88 215.2 66.06 221.19H72.76L71.17 216.08L81.57 212.38C83.51 216.96 84.92 222.43 85.98 227.19V226.48H120.17V237.58H85.98V234.41L75.76 238.11C75.76 236.88 75.58 235.64 75.41 234.23L71.53 234.58V241.28L81.93 238.64C83.52 243.58 85.1 249.57 85.98 254.15V241.11H120.17V255.21ZM118.76 180.83V192.11H87.74V180.83H118.76ZM105.19 257.15V251.69H100.25V257.15H105.19Z" fill="white"/>
<path d="M144.84 443.8L160.53 449.44C160 451.03 159.3 451.56 158.41 452.61C154.53 467.42 148.19 480.28 139.73 490.86C148.19 495.8 157.71 499.5 168.64 501.96C163.35 506.54 156.66 515.88 153.48 521.88C142.02 518.53 131.98 513.6 123.16 507.43C115.58 513.42 107.12 518.36 97.6 522.24C94.96 516.78 89.49 508.49 84.91 503.56V522.07H60.41V507.79C42.96 509.73 26.22 511.67 14.41 512.73C14.06 514.49 12.65 515.37 11.24 515.55L4.37 491.58C8.6 491.4 13.53 491.23 19 490.88V440.47H4.19V420.38H166.87V440.47H84.91V502.16C92.49 499.52 99.54 495.81 105.71 491.23C99.89 484.18 95.13 476.25 91.08 467.44L104.48 463.74H88.09V444.53H140.79L144.84 443.83V443.8ZM143.43 360.26V415.96H27.63V360.26H143.43ZM60.41 440.46H42.26V444.69H60.41V440.46ZM42.26 461.96V466.72H60.41V461.96H42.26ZM42.26 489.63L60.41 488.4V483.99H42.26V489.63ZM117.7 380.53V376.3H52.13V380.53H117.7ZM117.7 399.92V395.51H52.13V399.92H117.7ZM112.59 463.72C114.88 468.13 117.88 472.18 121.23 476.06C124.23 472.18 126.69 468.13 128.98 463.72H112.59Z" fill="white"/>
<path d="M164.58 603.14H103.77C113.99 636.8 133.38 662.18 168.98 673.47C162.81 679.11 154.35 690.74 150.47 698.32C117.86 685.81 98.83 664.13 86.14 633.81C76.09 659.9 57.23 682.63 21.63 698.32C17.93 691.09 10.17 681.58 2.95001 675.76C44.19 659.19 60.23 633.64 66.4 603.14H6.65001V576.53H69.57C70.45 561.9 70.28 546.57 70.45 530.88L103.94 532.99C103.59 535.11 101.83 536.52 98.48 537.04C98.3 550.08 97.95 563.48 97.25 576.52H164.58V603.13V603.14Z" fill="white"/>
</svg>
