<?xml version="1.0" encoding="utf-8"?>
<!-- Generator: Adobe Illustrator 27.0.0, SVG Export Plug-In . SVG Version: 6.00 Build 0)  -->
<svg version="1.1" id="_圖層_2" xmlns="http://www.w3.org/2000/svg" xmlns:xlink="http://www.w3.org/1999/xlink" x="0px" y="0px"
	 viewBox="0 0 536.4 193.4" style="enable-background:new 0 0 536.4 193.4;" xml:space="preserve">
<style type="text/css">
	.st0{fill:#FFFFFF;}
</style>
<g id="_圖層_1-2">
	<g>
		<path class="st0" d="M0,33.7h85.8v15.8H0V33.7z"/>
		<path class="st0" d="M92.1,16.5l8.4,0.7c-0.5,5.4-1.3,15-2.5,28.8l-8.8-1C90.2,35.9,91.2,26.4,92.1,16.5z M133.9,0.7h14.4
			c0,4-0.1,7.7-0.4,11.2h21.1v28.8h5.6v13.4h-23.6c3.8,7,11.5,13,23.2,17.9c-4,4.7-7,8.7-9.1,11.9c-11.5-6.3-19.1-13-22.9-20
			C139.8,71,133,78,122,85.1c-0.7-1.2-2.5-3.4-5.3-6.7c-1.2-1.6-2.1-2.8-2.8-3.5v8.8h-13.4V0.3h13.4v15.5c0.9,0.5,2.3,1.2,4.2,2.1
			c1.6,0.9,2.9,1.6,3.9,2.1v-8.1h11.9L133.9,0.7L133.9,0.7z M117.4,54.1V40.8h16.2c0.2-4.7,0.4-10,0.4-15.8h-8.8l-4.9,10.2l-6.3-4.2
			v41.8c11-5.6,17.2-11.8,18.6-18.6L117.4,54.1L117.4,54.1z M148,25c-0.2,5.6-0.4,10.9-0.4,15.8h8.1V25C155.7,25,148,25,148,25z"/>
		<path class="st0" d="M182.1,61.9h81.2v14.8h-81.2V61.9z M188.4,8.8h68.9v15.5h-68.9V8.8L188.4,8.8z"/>
		<path class="st0" d="M297,6h18.6V0H329v6h24.2v10.5H329v3.2h21.1v13h5.3v10.2h-5.3v13.4H329v3.5h22.5v9.5H329v3.9
			c9.8,0.2,18.7,0.2,26.7,0c-1.4,3.3-2.5,6.7-3.2,10.2c-11.5,0-22-0.1-31.6-0.3c-8,0-13.5-2.1-16.5-6.3c-2.1,2.8-4.7,5.7-7.7,8.8
			l-0.4-0.3c-2.8-3.3-5.2-5.8-7-7.4c-0.9,2.8-3.8,4.6-8.4,5.3c-1.2,0-2.6,0.1-4.2,0.3c-1.9,0-3.4,0.1-4.6,0.3
			c-0.2-0.9-0.5-2.3-0.7-4.2c-0.5-3.8-0.9-6.7-1.4-8.8c1.4,0.2,2.8,0.3,4.2,0.3c2.8,0,4.1-1.4,3.9-4.2V55.5
			c-0.7,0.2-1.9,0.5-3.5,0.7c-1.4,0.5-2.6,0.8-3.5,1l-1-14.8c2.1-0.5,4.8-0.8,8.1-1v-13h-6.7v-13h6.7V0.3h12.6v15.1h5.3v13h-5.3
			v10.9c1.6-0.5,3.5-0.8,5.6-1c-0.2,5.2-0.2,9.7,0,13.7c-0.5,0-1.4,0.1-2.8,0.3c-1.2,0.2-2.1,0.5-2.8,0.7v17.6
			c0,1.4-0.1,2.6-0.4,3.5c4.7-3.3,7.4-8.9,8.1-16.9l12.3,1.4c-0.2,3-0.7,5.9-1.4,8.4c1.9,2.8,4,4.6,6.3,5.3V56.2h-16.9v-9.8h16.9
			v-3.5h-18.3V32.7h18.3v-3.5h-16.5v-9.5h16.5v-3.2H297L297,6L297,6z M338.1,29.2H329v3.5h9.1C338.1,32.7,338.1,29.2,338.1,29.2z
			 M329,46.4h9.1v-3.5H329V46.4z"/>
		<path class="st0" d="M361,64.7h84v14.4h-84V64.7z M365.9,6h73.8v14.8h-73.8V6L365.9,6z M370.1,35.1h65.7v14.4h-65.7V35.1z"/>
		<path class="st0" d="M450.6,37.6h8.8v-5.3h-6.3v-8.8c-0.5-0.5-1-1.3-1.8-2.5c-0.9-1.4-1.6-2.3-2.1-2.8c5.1-5.4,8.9-11.5,11.2-18.3
			l11.6,0.7c0,0.5-0.1,1-0.4,1.8c-0.2,0.9-0.5,1.6-0.7,2.1c4,3.5,7.5,7,10.5,10.5l-1,1.1h8.8v-2.8h-8.8V4.9h8.8V0h11.6v4.9h8.4v8.4
			h-8.4v2.8h10.2V0H522v4.2l8.1-3.5c0.9,1.6,2.3,4.1,4.2,7.4c0.7,1.4,1.3,2.6,1.8,3.5l-8.4,3.9c-0.5-1.2-1.4-2.9-2.8-5.3
			c-1.2-2.6-2.1-4.4-2.8-5.6v11.6h13.4v9.5h-13v6.7c0,1.6,0.1,3.8,0.3,6.3c0,3,0.1,5.3,0.3,6.7c0.2-0.7,0.7-1.9,1.4-3.5
			c1.2-2.8,2.1-5.2,2.8-7l9.1,4.6c-4,9.6-8.1,17.9-12.3,25c0.2,0.7,0.3,1.5,0.3,2.5c0.5,2.6,1,3.9,1.8,3.9c0.9,0.2,1.5-0.8,1.8-3.2
			c0-0.7,0.1-1.6,0.3-2.8c0.2-3,0.5-5.7,0.7-8.1c2.6,0.9,4.9,1.9,7,2.8c-0.2,2.3-0.5,5.4-0.7,9.1c-0.5,2.6-0.7,4.4-0.7,5.6
			c-1.4,6.8-4.5,10.2-9.1,10.2s-7.6-2.9-9.5-8.8c-1.2,1.4-3,3.5-5.6,6.3c-1.2,1.4-2.1,2.5-2.8,3.2c-1.4-2.3-3-4.6-4.9-6.7
			c-4.7,0.2-11.5,0.7-20.4,1.4c-1.4,0.2-2.5,0.3-3.2,0.3l-1-9.8c4,0,7.7-0.1,11.2-0.3v-3.5h-9.1v-7.7h9.1v-2.8h-9.8v-8.4H510v8.4
			h-9.8v2.8h8.4v7.7h-8.4v3.2c2.8-0.2,5.4-0.3,7.7-0.3c2.1-2.6,4-5,5.6-7.4c-0.2-3.5-0.7-10.1-1.4-19.7c0-3.8-0.1-6.7-0.4-8.8
			c0-2.3-0.1-4.9-0.4-7.7h-33v-6.3l-2.8,3.2h0.4v9.8h-6.3v5.3h8.1v10.2h-8.1v15.8c0.2-0.9,0.6-2.3,1-4.2c0.9-4,1.5-7.1,1.8-9.5
			l5.6,1.4c-0.9,5.2-2,10.1-3.2,14.8l-5.3-1.4v4.6c2.6-0.5,5.3-0.8,8.1-1.1v10.5c-6.3,0.7-15,1.9-26,3.5l-1.8-10.5
			c3.5-0.5,6.7-0.8,9.5-1.1v-3.9l-5.6,1.8c-1.4-6.8-2.6-12.4-3.5-16.9l6-1.4c0.5,1.6,1,4,1.8,7c0.7,3.3,1.2,5.7,1.4,7.4V47.8h-8.8
			L450.6,37.6L450.6,37.6z M465.7,14.8c-1.4,2.6-3.2,5.2-5.3,7.7h12.3c-0.7-0.9-1.9-2.2-3.5-3.9C467.6,17,466.4,15.7,465.7,14.8
			L465.7,14.8z M480.1,28.1h29.2V45h-29.2C480.1,45,480.1,28.1,480.1,28.1z M498.8,38.3v-3.5h-8.1v3.5H498.8z"/>
		<path class="st0" d="M3.5,192v-36.6h14.4v19.7h17.2v-25.7H7.4v-33.7h14.4v20h13.4v-27.4h15.5v27.4H64v-20h14.4v33.7H50.6v25.7
			h17.2v-19.7h14.1V192H67.8v-4.2H17.9v4.2L3.5,192L3.5,192z"/>
		<path class="st0" d="M114.9,192h-13.7v-28.1c-2.1,2.1-4.4,4.1-7,6c-0.2-0.9-0.7-2.5-1.4-4.6c-1.2-4.2-2.1-7.3-2.8-9.1
			c7-5.6,14.5-13.5,22.5-23.6l10.9,8.1c-0.2,0.2-0.5,0.6-0.7,1.1c-3.1,4-5.6,6.9-7.7,8.8L114.9,192L114.9,192z M111.4,107.6
			l11.2,8.8c-7.5,8.2-16.2,16.2-26,23.9c-0.5-0.9-1.3-2.8-2.5-5.6c-1.6-4-2.8-6.7-3.5-8.1C97.5,121.9,104.4,115.6,111.4,107.6
			L111.4,107.6z M149,172.3v-20h-24.6v-13.7H175v13.7h-11.2v23.2c0.5,9.8-4.3,14.9-14.4,15.1c-2.6,0-6.2,0.1-10.9,0.4h-6.7
			c0-0.5-0.1-1.3-0.4-2.5c-0.7-4.7-1.4-8.2-2.1-10.5h6.3c3.5,0.2,6,0.4,7.4,0.4C147.3,178.3,149.3,176.3,149,172.3L149,172.3z
			 M127.2,112.9h45v13.4h-45C127.2,126.2,127.2,112.9,127.2,112.9z"/>
		<path class="st0" d="M216.2,108h14.1v15.1c0,2.8-0.7,5.2-2.1,7c7-2.8,11.9-4.9,14.8-6.3l-8.1-4.9l7.4-9.8c8,4,15.8,8.4,23.5,13.4
			l-7,11.2c-1.6-1.2-4.2-2.8-7.7-4.9c-3.3-2.1-5.9-3.8-7.7-4.9l6.7,10.5c-6.3,2.6-12.6,4.9-19,7h28.8v51H246v-2.8h-42.2v2.8h-13.7
			V153l-7,1.8c-0.5-1.6-1.2-4.1-2.1-7.4c-0.7-2.1-1.2-3.8-1.4-4.9c15.5-2.8,28.1-5.7,38-8.8c-1.9,0.2-4.8,0.4-8.8,0.4
			c-0.2-1.2-0.6-2.7-1.1-4.6c-0.7-1.9-1.2-3.4-1.4-4.6c-2.1,1.4-5.5,3.4-10.2,6c-3.5,1.9-6.1,3.3-7.7,4.2c-0.2-0.5-0.8-1.2-1.8-2.1
			c-2.8-4.2-4.9-7-6.3-8.4c11-5.8,19-10.5,23.9-14.1l8.8,9.8c-0.5,0.2-1.2,0.7-2.1,1.4c-1.6,1.2-3.1,2.1-4.2,2.8h6.3
			c2.3,0.2,3.4-1.1,3.2-3.9L216.2,108L216.2,108z M203.9,151.6v3.9H246v-3.9H203.9z M203.9,163.9v3.9H246v-3.9H203.9z M203.9,175.8
			v3.9H246v-3.9H203.9z"/>
		<path class="st0" d="M273.1,112.9h28.8v74.5h-11.2v-5.3h-6v6.7h-11.6L273.1,112.9L273.1,112.9z M284.7,124.8v17.2h6v-17.2
			C290.7,124.8,284.7,124.8,284.7,124.8z M284.7,153.7v17.2h6v-17.2H284.7z M303.3,134.7H322v-5.6h-15.5v-11.9H322v-8.8h13.4v8.8
			h16.2v11.9h-16.2v5.6h20V147h-52V134.7z M333.2,148.1h13.7v4.6h7.7v11.9h-7.7v13.7c0.7,8.7-3.4,13-12.3,13
			c-3.5,0.2-8.6,0.4-15.1,0.4c-0.2-3.1-0.9-7-2.1-11.9l-2.1,1.8c-2.6-3.5-5.7-7.5-9.5-11.9l6.3-4.9h-7.7v-11.9h28.8L333.2,148.1
			L333.2,148.1z M325.5,173.4l-7.4,6c2.3,0.2,5.7,0.4,10.2,0.4c3.8,0,5.4-1.6,4.9-4.9v-10.2h-15.8
			C320.4,167.6,323.1,170.6,325.5,173.4L325.5,173.4z"/>
		<path class="st0" d="M372.6,108l13.4,3.5c-1.4,5.4-3.2,10.9-5.3,16.5v54.1c4.9-0.5,9-1.2,12.3-2.1c-0.5-0.5-1.3-1.2-2.5-2.1
			c-1.9-1.6-3.4-2.9-4.6-3.9l3.5-3.2H387V127h21.4v-4.2h-21.8v-11.2h58v11.2h-23.5v4.2h21.1v44.6h-12V167H420
			c-0.7,4.9-2.1,8.7-4.2,11.2c6.1,0.9,16,1.4,29.9,1.4c-2.1,3.8-4,7.7-5.6,11.9c-16.9-0.9-28.4-2.7-34.5-5.3
			c-4.7,2.3-10.8,4.7-18.3,7c-0.9-1.6-2.5-4-4.6-7c-0.9-1.6-1.6-2.8-2.1-3.5v9.5H368v-37.6c-2.1,3.5-4.2,6.8-6.3,9.8
			c0-0.7-0.1-1.9-0.4-3.5c-0.5-6.6-1-11.8-1.8-15.8C365.4,133.5,369.8,121.1,372.6,108L372.6,108z M403.2,174.4
			c2.1-2.1,3.5-4.6,4.2-7.4h-8.1v3.9h-2.1C399.3,172.3,401.3,173.5,403.2,174.4L403.2,174.4z M399.3,137.5v4.6h9.1v-4.6H399.3z
			 M408.1,156.5v-2.1c0.2-1.2,0.4-2.1,0.4-2.8h-9.1v4.9H408.1z M421.1,151.6c0,0.7-0.1,1.6-0.4,2.8v2.1h9.5v-4.9H421.1L421.1,151.6z
			 M421.1,137.5v4.6h9.1v-4.6H421.1z"/>
		<path class="st0" d="M477,113.9h18.6v-6H509v6h24.2v10.5H509v3.2H530v13h5.3v10.2H530v13.4H509v3.5h22.5v9.5H509v3.9
			c9.8,0.2,18.7,0.2,26.7,0c-1.4,3.3-2.5,6.7-3.2,10.2c-11.5,0-22-0.1-31.6-0.4c-8,0-13.5-2.1-16.5-6.3c-2.1,2.8-4.7,5.7-7.7,8.8
			l-0.4-0.4c-2.8-3.3-5.2-5.8-7-7.4c-0.9,2.8-3.8,4.6-8.4,5.3c-1.2,0-2.6,0.1-4.2,0.4c-1.9,0-3.4,0.1-4.6,0.4
			c-0.2-0.9-0.5-2.3-0.7-4.2c-0.5-3.8-0.9-6.7-1.4-8.8c1.4,0.2,2.8,0.4,4.2,0.4c2.8,0,4.1-1.4,3.9-4.2v-11.2
			c-0.7,0.2-1.9,0.5-3.5,0.7c-1.4,0.5-2.6,0.8-3.5,1.1l-1-14.8c2.1-0.5,4.8-0.8,8.1-1.1v-13h-6.7v-13h6.7v-15.1h12.6v15.1h5.3v13
			h-5.3v10.9c1.6-0.5,3.5-0.8,5.6-1.1c-0.2,5.2-0.2,9.7,0,13.7c-0.5,0-1.4,0.1-2.8,0.4c-1.2,0.2-2.1,0.5-2.8,0.7v17.6
			c0,1.4-0.1,2.6-0.4,3.5c4.7-3.3,7.4-8.9,8.1-16.9l12.3,1.4c-0.2,3.1-0.7,5.9-1.4,8.4c1.9,2.8,4,4.6,6.3,5.3v-16.2h-16.9v-9.8h16.9
			v-3.5h-18.3v-10.2h18.3v-3.5h-16.5v-9.5h16.5v-3.2H477L477,113.9L477,113.9z M518.1,137.1H509v3.5h9.1V137.1z M509,154.4h9.1v-3.5
			H509V154.4z"/>
	</g>
</g>
</svg>
