<?xml version="1.0" encoding="utf-8"?>
<!-- Generator: Adobe Illustrator 27.0.0, SVG Export Plug-In . SVG Version: 6.00 Build 0)  -->
<svg version="1.1" id="_圖層_2" xmlns="http://www.w3.org/2000/svg" xmlns:xlink="http://www.w3.org/1999/xlink" x="0px" y="0px"
	 viewBox="0 0 712 70.3" style="enable-background:new 0 0 712 70.3;" xml:space="preserve">
<style type="text/css">
	.st0{fill:#FFFFFF;}
</style>
<g id="_圖層_1-2">
	<g>
		<path class="st0" d="M254,58.8c7.2,2.3,15.1,5.2,20,7.3l-10.7,3.9c-4.2-2.2-11.6-5.3-19.1-7.8l6.4-3.5H230l5.9,2.7
			c-6.2,3.6-15.7,7-23.3,8.8c-1.4-1.7-4.6-4.8-6.4-6.3c6.9-1.2,14.6-3,19.8-5.2h-10.2V30.5h49.8v28.4H254z M273.7,28h-67.1v-6.6
			h29.2v-2.7h-19.3V4.9h19.3V1h8.7v3.8h20.3v13.9h-20.3v2.7h29.2C273.7,21.4,273.7,28,273.7,28z M224.5,38.4h32.1v-2.9h-32.1
			C224.5,35.5,224.5,38.4,224.5,38.4z M224.5,46h32.1v-3h-32.1C224.5,43.1,224.5,46,224.5,46z M224.5,53.8h32.1v-3h-32.1
			C224.5,50.8,224.5,53.8,224.5,53.8z M235.8,13.5v-3.5h-10.9v3.5H235.8z M244.5,10.1v3.5H256v-3.5C256,10.1,244.5,10.1,244.5,10.1z
			"/>
		<path class="st0" d="M332.4,59.3c6.8,2,13.7,4.1,18.2,5.8l-7.9,5.1c-4.8-2.1-13.2-5.2-21.4-7.5l4.1-3.4h-15.6l4.8,3.3
			c-6.1,3.3-16.3,6.3-24.8,7.5c-1.3-1.6-3.8-4.4-5.6-6c6.8-1,14.6-2.8,19.9-4.9h-9.4V38c-2.8,0.3-5.4,0.6-8,0.8
			c-0.8-1.9-3-5.5-4.2-7.2c3.2-0.1,6.5-0.4,9.8-0.6c-1.2-1.3-2.5-2.7-3.4-3.5c4.5-1.3,9.2-3.3,11.9-5.8h-2.9v-6.1h39.8v6.1h-2.5
			l6.3,3.3c-4.2,2.8-9.6,5.2-15.7,7h16.7v27.2L332.4,59.3L332.4,59.3z M294.8,20.2h-8V6.1h25.3c-0.5-1.1-1.1-2.1-1.6-3.1l8.4-3
			c1.2,1.8,2.5,4,3.5,6.1H349v14.1h-8.4v-7h-45.9L294.8,20.2L294.8,20.2z M308.8,23.3c-2.2,2.6-5.3,4.9-8.6,6.9
			c4.7-0.5,9.2-1.3,13.6-2.1v-6.4h-10L308.8,23.3L308.8,23.3z M303.3,36.9v2.8h30.1v-2.9h-29.8C303.6,36.8,303.3,36.9,303.3,36.9z
			 M333.4,44.1h-30.1v3h30.1V44.1z M303.3,54.5h30.1v-3h-30.1V54.5z M321.5,26.2c4.5-1.2,8.5-2.7,11.6-4.5h-11.6V26.2z"/>
		<path class="st0" d="M381.7,44.9c0.8-2.4,1.7-5.8,2.5-9.3h-4.5v25.1c0,4.1-0.7,6.4-3.4,7.8c-2.8,1.3-6.5,1.6-11.5,1.6
			c-0.3-2.5-1.5-6.1-2.7-8.4c3.2,0.1,6.7,0.1,7.7,0.1c1-0.1,1.3-0.3,1.3-1.1V35.5h-11v-7.8h16c-3.8-2.8-8.7-5.7-12.9-7.8l4.4-5.7
			c2.2,1,4.5,2.1,6.9,3.4c1.6-1.8,3.4-3.8,4.8-6h-17.3V4.1h22.8l1.6-0.5l5.1,3.7V3.9h37.9v7.4h-14c-0.5,1.7-1,3.3-1.6,4.9h13.4v39.1
			h-33.2V16.2h10.9c0.3-1.6,0.5-3.2,0.8-4.9h-14.2V8.1c-2.8,4.5-6.7,9.6-10.6,13.5c1.8,1.2,3.3,2.4,4.5,3.5l-1.9,2.7h3.6l1.2-0.2
			l5.4,1.2c-1.6,6.1-3.6,13.1-5.2,17.4L381.7,44.9L381.7,44.9z M408.4,60c-4.1,3.9-11.1,8.1-16.9,10.3c-1.4-1.7-4-4.2-6-5.8
			c5.8-2,12.4-5.9,15.6-9.2L408.4,60z M418.7,22.7H402v4.7h16.6V22.7z M418.7,33.3H402v4.7h16.6V33.3z M418.7,44.1H402v4.7h16.6
			V44.1z M418.6,55.9c4.1,2.7,9.8,6.7,12.7,9.5l-7,4.9c-2.5-2.8-8.1-7.1-12.2-10C412,60.2,418.6,55.9,418.6,55.9z"/>
		<path class="st0" d="M450.4,51.2c-1,6.3-3,13.3-4.8,17.7c-1.8-1-5.4-2.1-7.5-2.6c2.1-4.2,3.8-10.9,4.7-16.7L450.4,51.2L450.4,51.2
			z M463.7,46.6c-0.1-1.1-0.4-2.3-0.8-3.7c-17,2.6-19.9,3.4-21.8,4.3c-0.5-1.6-1.8-5.7-2.8-8c2-0.4,3.8-1.9,6.4-4.7
			c1.1-1,3.1-3.2,5.5-6.1c-6.6,0.8-8.3,1.3-9.5,1.8c-0.4-1.6-1.7-5.5-2.7-7.7c1.5-0.4,2.9-1.8,4.6-3.9c1.7-2.1,7.1-10.1,10.2-17.9
			l8.1,3.4c-3.2,6.1-7.2,12.3-11.3,17.4l6.2-0.4c2-2.9,4-6.1,5.8-9.3l7.3,4.9c-4.5,7.2-10.4,14.4-16.3,20.6l8.4-1.2
			c-0.5-1.9-1.2-3.8-1.8-5.5l6.9-1.8c2,5,4.2,11.7,5,15.7L463.7,46.6L463.7,46.6z M458.9,48.9c1.2,5.2,2.2,11.9,2.6,16.5l-7.4,1.9
			C454,62.8,453,56,452,50.7C452,50.7,458.9,48.9,458.9,48.9z M467.4,47.1c1.9,4.4,3.9,9.9,4.7,13.6l-6.7,2.6
			c-0.8-3.8-2.7-9.6-4.4-14L467.4,47.1L467.4,47.1z M505.8,14.2c0,0-0.1,3.1-0.1,4.1c-0.8,31.9-1.7,43.2-4.5,47
			c-2.1,2.7-4.2,3.6-7.3,4.1c-2.7,0.5-7.3,0.4-11.6,0.2c-0.1-2.4-1.3-6.3-2.9-8.8c4.5,0.4,8.6,0.4,10.6,0.4c1.4,0.1,2.3-0.2,3.1-1.2
			c2.1-2.2,2.9-12.7,3.6-37.5H479c-1.8,3.7-3.7,7.1-5.7,9.8c-1.6-1.3-5.5-3.8-7.6-5c5.1-6.2,9.1-16.4,11.2-26.3l8.7,1.7
			c-0.9,3.8-2,7.7-3.4,11.4L505.8,14.2L505.8,14.2z M486.3,51.1c-2.2-4.6-7.8-11.3-12.8-16l6-4.5c5,4.5,10.9,10.9,13.4,15.4
			C492.9,46,486.3,51.1,486.3,51.1z"/>
	</g>
</g>
</svg>
