<?xml version="1.0" encoding="utf-8"?>
<!-- Generator: Adobe Illustrator 27.0.0, SVG Export Plug-In . SVG Version: 6.00 Build 0)  -->
<svg version="1.1" id="_圖層_2" xmlns="http://www.w3.org/2000/svg" xmlns:xlink="http://www.w3.org/1999/xlink" x="0px" y="0px"
	 viewBox="0 0 1139.8 115.3" style="enable-background:new 0 0 1139.8 115.3;" xml:space="preserve">
<style type="text/css">
	.st0{fill:#FFFFFF;}
</style>
<g id="_圖層_1-2">
	<g>
		<path class="st0" d="M110.7,60.6c-17.4,37.1-57.8,50-104.8,54.4c-1.1-4-3.6-10.4-5.9-14.1c19.5-1.3,37.8-4.2,53.4-9.7
			c-3.5-3.5-8.4-7.7-12.8-11.4c-4.9,2.4-10.2,4.8-15.9,6.7c-1.7-3.3-5.9-8.7-9-11.2c25.4-7.8,42.4-19.8,51.8-31.6l15.9,3.7
			c-2.5,2.8-4.8,5.5-7.5,8.2h22.1l2.7-0.7L110.7,60.6L110.7,60.6z M94.4,15.6C78.5,43.7,43.5,58.9,8,65.5c-1.4-3.7-4.2-9.7-6.8-12.8
			c12.5-1.8,25-4.9,36.4-9.3c-3.3-3.4-7.8-7.5-12.1-11c-3.6,2-7.3,3.8-11.2,5.5c-2.2-3.3-6.8-8.3-10-10.4
			C24.2,20.2,38.8,9.8,47.1,0.2l15.8,3.7c-2.1,2.2-4.3,4.4-6.7,6.6h26l2.6-0.6L94.4,15.6L94.4,15.6z M40.4,23.3
			c-1.1,0.9-2.3,1.6-3.6,2.4c5.2,3.7,10.4,8.1,13.9,11.9c7.9-4,14.9-8.9,20.3-14.3H40.4L40.4,23.3z M60.3,68.4
			c-2.3,1.6-4.8,3.2-7.2,4.8c5.1,3.7,10.6,8.2,14.4,12.1c8.4-4.5,15.4-10.1,20.7-16.9L60.3,68.4L60.3,68.4z"/>
		<path class="st0" d="M232.4,34h-19l8.1,2.1c-1.2,1.5-2.5,2.9-3.7,4.3h14.6v32.9h-77.2V40.3h15.3c-1-1.5-2-2.9-3.1-4.3l6.3-2.1
			h-21.2v7.3c0,21.1-2,52.7-14.7,72.8c-2.8-2.4-9.2-6.1-13.1-7.6c12.1-18.4,13.1-45.9,13.1-65.2v-36h94.6L232.4,34L232.4,34z
			 M217.8,16.4h-65.2V23h65.2L217.8,16.4L217.8,16.4z M160.4,77h67.8v37.8h-14.9v-3.5h-38.7v3.5h-14.2V77z M168.7,65.2h18V48.1h-18
			V65.2z M178.4,48.7c2.8,3.3,5.9,7.9,7.1,11.1l-9,5c-1.1-3.3-4.1-8.1-6.9-11.6C169.7,53.3,178.4,48.7,178.4,48.7z M174.6,85.8v4.4
			h38.7v-4.4H174.6z M213.3,102.4v-4.6h-38.7v4.6H213.3z M204.1,40.3c1.4-2.1,3-4.4,4.1-6.3H180c1.6,2,3.1,4.4,4.1,6.3H204.1
			L204.1,40.3z M218.3,48.1h-18.1v17.1h18.1C218.3,65.2,218.3,48.1,218.3,48.1z M200.3,60.1c2.6-2.9,5.9-8.2,7.8-11.7l9.1,4.9
			c-3,4.4-6.2,8.5-8.6,11.4L200.3,60.1z"/>
		<path class="st0" d="M294.3,81.6h-39.1V67.1h39.1V81.6z M291.6,32.3h-33.9v-14h33.9V32.3z M332.6,51.8c5.2,23.3,15.9,41.5,37,49.4
			c-3.3,2.9-7.8,9-9.7,12.9c-15.8-7-25.8-18.8-32.4-34.7c-5.2,13.1-15.7,26.3-36,35.9c-2.2-3.5-7.5-9.2-11.1-12
			c33-15,36.5-38.8,36.5-54.6V37.5h15.8C332.6,37.5,332.6,51.8,332.6,51.8z M311,34.3c-3.8,9.9-8.5,18.6-13.4,25.4
			c-3.2-2.4-10.7-6.6-14.7-8.4C293.1,40,300.4,20.4,304,0.7l16.3,2.7c-1.2,5.6-2.6,11.1-4.2,16.5h37.1l2.8-0.9l10.7,6.2
			c-3.2,12.9-8.4,26-12.8,35.4c-3-1.7-9-4.6-12.6-6c2.3-5.1,5.2-13,7.3-20.4H311L311,34.3z"/>
		<path class="st0" d="M428.5,11c-3.3,10.8-7.6,24.3-11.3,34c7.9,9.7,9.4,18.1,9.4,25.2c0,8.1-1.7,13.1-5.8,16
			c-1.9,1.5-4.3,2.3-7.1,2.7c-2.3,0.4-5.4,0.4-8.3,0.4c-0.1-3.8-1.2-9.4-3.3-13.1c2.2,0.2,4.1,0.2,5.4,0.1c1.4,0,2.6-0.2,3.7-1
			c1.5-1.1,2.1-3.5,2.1-7.1c0-5.6-1.7-13.4-8.9-21.8c2.7-7.8,5.4-19.1,7.4-27.6h-10.9v95.9h-13.7V5.9h29.2l2.1-0.6L428.5,11
			L428.5,11z M456.1,33.6c-0.2,5-0.4,9.8-0.7,14.5h33.9c0,0-0.1,4.3-0.1,6.1c-1.2,35.5-2.5,49.6-6.2,54.2c-2.8,3.7-5.7,4.9-9.7,5.5
			c-3.6,0.6-9.6,0.6-15.9,0.4c-0.2-4.3-2-10.3-4.4-14.4c5.5,0.6,10.5,0.7,13,0.7c2,0,3.2-0.5,4.2-1.8c2.2-2.4,3.5-12.5,4.2-37.5
			h-20.1c-3.1,23-10.7,41.2-32.3,53c-1.9-3.5-6-8.6-9.4-11.2c26.5-13.8,28.4-37.9,29.1-69.5h-15.8V20.2h30c-1-4.6-3.1-11.6-4.9-17
			L464.3,0c2.2,5.4,4.8,12.8,5.8,17.2L460,20.2h36v13.4L456.1,33.6L456.1,33.6z"/>
		<path class="st0" d="M557,33.5c-5.4,33-18.7,57.7-36,70.5c-2.5-3.4-8.3-9.2-11.8-11.2c14.2-9.5,24.8-26.3,30.2-47.6h-25.8V30.4
			h31.1l2.7-0.5L557,33.5z M618.3,31.4c-9.1,9-19.8,19.2-28.6,26.1c9.4,14.1,22,25.5,37.5,32.2c-3.6,3.2-8.5,9.3-11,13.6
			c-17.4-9.2-30.5-24.1-40.1-42.3v35.1c0,8.4-1.6,12.7-6.5,15.4c-4.8,2.6-12.2,3.3-22.2,3.3c-0.6-4.5-3.2-11.8-5.4-16.2
			c6.8,0.2,13.3,0.2,15.7,0.2c2.1,0,2.8-0.7,2.8-2.8V0.6h15.7v29.8c2,5.5,4.2,10.6,6.8,15.8c7.8-7.3,16.3-16.6,21.8-24.2L618.3,31.4
			L618.3,31.4z"/>
		<path class="st0" d="M752.4,91.6v14.7H640.4V91.6h47V28.5H647V13.3h98.5v15.1h-41.4v63.2L752.4,91.6L752.4,91.6z"/>
		<path class="st0" d="M805.5,81.7c-1.6-4-4.7-10-7.6-15.5v48.6h-13.9V69.4c-3.6,10.1-7.7,19.7-12.2,26.4
			c-1.2-4.4-4.3-10.8-6.3-14.4c5.8-8.1,11.6-21,15.2-32.7H767V35.1h16.9V20.4c-4,0.7-7.9,1.5-11.6,2c-0.6-3.3-2.3-8.2-4-11.2
			C780.9,8.9,794.9,5.2,804,1l7.8,12c-4.3,1.7-9,3.2-13.9,4.4V35h13.8v13.6h-13.8v2c3.2,3.5,13.2,16.2,15.4,19.3L805.5,81.7
			L805.5,81.7z M880.9,99.4v12.9h-71.3V99.4h29.7V88.3h-23.4V75.9h23.4V66c-6.5,0.5-13.2,0.8-19.4,1.1c-0.5-3.2-2.1-8.1-3.6-11
			c17.8-1.1,37.8-3.4,50.3-6.6l9,11c-6.5,1.6-14.1,2.8-21.8,3.9v11.5H876v12.5h-22.1v11.1L880.9,99.4L880.9,99.4z M875,47.9h-58.4
			v-42H875C875,5.9,875,47.9,875,47.9z M860.8,18.1h-30.7v17.6h30.7C860.8,35.7,860.8,18.1,860.8,18.1z"/>
		<path class="st0" d="M987.3,69.9c6.5,5.9,15.2,11.1,24,14.2c-3.2,2.6-7.6,7.7-9.7,11.2c-6.7-3.1-13.3-7.6-19.4-12.8v9h-22.4v7.9
			h40.2v12h-93.8v-12h38.7v-7.9h-21.8v-7.6c-6,5-12.7,9.4-19.6,12.5c-2.1-3.4-6.3-8.6-9.4-11.1c9-3.3,18.1-8.9,24.9-15.4h-23.8V58
			h23.5V21.6h-17V9.9h17V0.7h14.7v9.2h38.6V0.7h15v9.2h16.9v11.7h-16.9V58h22.8v11.8H987.3L987.3,69.9z M979.6,80
			c-3.3-3.2-6.3-6.6-8.9-10.1h-34.8c-2.5,3.5-5.5,7-8.8,10.1h17.8v-7.6h14.9V80H979.6L979.6,80z M933.5,21.6V27h38.6v-5.4H933.5z
			 M933.5,42.4h38.6V37h-38.6V42.4z M933.5,58h38.6v-5.5h-38.6V58z"/>
		<path class="st0" d="M1042,99.9v9h-10.5V68.5c-1.8,2.9-3.7,5.6-5.7,8.1c-0.5-3.7-3.1-12.3-4.9-16.2c7.5-10.1,12.6-25,15.8-41.2
			H1025V6h37.2v13.2h-12.7c-1.7,8.3-3.9,16.7-6.7,24.7h18.2v56.1H1042L1042,99.9z M1051.3,56.6h-9.4v30.7h9.4V56.6z M1106.2,99.7
			c2.5,0.2,5.1,0.4,7.8,0.4c3.9,0,20.5,0,25.8-0.1c-1.6,2.8-3.3,8.7-3.9,12.2h-22.7c-15.4,0-27-2.8-35-14.3
			c-2.5,6.8-6.3,12.8-12.2,17.5l-9.7-9.2c9.9-7.3,13.4-20.3,14.8-35.6l12.2,2.1c-0.4,3.4-0.7,6.8-1.4,10.1c2.7,6.5,6.3,10.8,11,13.2
			V67.6h-29.3V55.8h63l2.1-0.6l9.5,2.9c-2.1,6.5-5.1,14.2-7.4,19.1l-11.1-3.7c0.6-1.6,1.4-3.8,2.1-6h-15.4v10.1h27.5v11.6h-27.5
			L1106.2,99.7L1106.2,99.7z M1077,37.1c-3.3,5.4-7,10.5-10.8,14c-1.2-2.7-3.8-7.3-6-9.7c4.9-3.9,10-11,13.2-18.1h-9v-11h12.7V0.9
			h11.3v11.6h10.2v11h-10.1c3.1,2.7,10.5,10.1,12.2,12.2l-6.9,8.5c-1.2-2.1-3.2-5.1-5.4-8.2v17H1077L1077,37.1L1077,37.1z
			 M1112.3,40.3c-3,4.8-6.4,9-10,12c-1.2-2.6-3.7-7-5.8-9.3c5.6-4,11-11.6,14.3-19.5h-9.7v-11h11.2V0.9h11.5v11.6h13.6v11h-11.5
			c4.2,4.4,12,13.2,13.9,15.6l-8,9.8c-1.6-3.4-4.8-9-8-13.9V53h-11.5L1112.3,40.3L1112.3,40.3z"/>
	</g>
</g>
</svg>
