<?xml version="1.0" encoding="utf-8"?>
<!-- Generator: Adobe Illustrator 27.0.0, SVG Export Plug-In . SVG Version: 6.00 Build 0)  -->
<svg version="1.1" id="_圖層_2" xmlns="http://www.w3.org/2000/svg" xmlns:xlink="http://www.w3.org/1999/xlink" x="0px" y="0px"
	 viewBox="0 0 351.8 41.9" style="enable-background:new 0 0 351.8 41.9;" xml:space="preserve">
<style type="text/css">
	.st0{fill:#FFFFFF;}
</style>
<g id="_圖層_1-2">
	<g>
		<path class="st0" d="M13.7,15.9c-1.1,0-2.1-0.8-2.9-2.4C10,14.2,9,15,7.8,15.9c-0.3-0.4-0.7-0.8-1.2-1.3c1.4-0.9,2.5-1.8,3.4-2.9
			c-0.5-1.8-0.9-4.2-1-7H3.2v2.2h4.5c0,0.9,0,2.3-0.1,4.1v0.5c0,1.7-0.8,2.5-2.3,2.5c-0.4,0-0.9,0.1-1.7,0.1c0-0.2,0-0.5-0.1-0.9
			c0-0.4-0.1-0.7-0.1-0.9h1.4c0.8,0,1.1-0.3,1.1-1.1c0-0.4,0.1-0.8,0.1-1.4c0-0.6,0.1-1.1,0.1-1.4H3.2c0.1,3.1-0.5,5.6-1.7,7.7
			c-0.1,0-0.2-0.1-0.4-0.3C0.6,15.4,0.2,15.1,0,15c0.6-1.1,1-2.1,1.3-3.1C1.4,11,1.5,9.6,1.5,7.7V3H9C9,2.4,9,1.4,9,0.1h1.7
			c0,1.3,0,2.3,0.1,3H16v1.6h-5.2c0.1,2.3,0.4,4.1,0.7,5.4c0.6-0.9,1.4-2.3,2.2-4.2l1.6,0.7c-1.1,2.4-2.2,4.3-3.2,5.5
			c0,0,0.1,0.1,0.1,0.2c0.5,1.3,1,1.9,1.5,1.9c0.3,0,0.5-0.2,0.7-0.7c0.2-0.8,0.4-1.6,0.4-2.3c0.3,0.1,0.6,0.3,1.1,0.5
			c0.2,0,0.3,0.1,0.3,0.1c-0.1,1.2-0.3,2.1-0.5,2.6C15.3,15.3,14.6,15.9,13.7,15.9L13.7,15.9z M13.7,3c-0.7-0.6-1.4-1.2-2.1-1.8
			l1.2-0.9c0.8,0.5,1.5,1.1,2.1,1.7L13.7,3L13.7,3z"/>
		<path class="st0" d="M20.6,16V9.7c-0.5,0.5-1,1-1.5,1.5c-0.1-0.6-0.2-1.2-0.5-1.8c1.3-1.3,2.5-2.9,3.6-4.8l1.4,0.9
			c-0.1,0.1-0.2,0.2-0.3,0.5c-0.4,0.8-0.8,1.4-1.1,1.7V16H20.6z M19.7,5.6C19.4,4.9,19.2,4.3,19,4c1.1-1,2.2-2.2,3.2-3.8l1.3,1
			C22.5,2.8,21.2,4.3,19.7,5.6z M23.9,14.9c-0.5-0.2-0.9-0.4-1.3-0.5c0.5-1,1-2,1.3-2.9l1.3,0.4l-0.2,0.4
			C24.9,13.1,24.5,14,23.9,14.9z M23.3,10.6V9.3h11.4v1.3h-5.5c0.5,0.7,0.9,1.3,1.2,1.8L29,13.1c-0.4-0.7-0.8-1.5-1.3-2.3l0.7-0.3
			L23.3,10.6L23.3,10.6z M23.6,2.9V1.5h4.5V0.1h1.7v1.5h4.7v1.3h-4.7V4H34v4.2H23.8V4h4.2V2.8C28.1,2.8,23.6,2.8,23.6,2.9z
			 M25.3,5.2V7h1.5V5.2H25.3z M27.7,15.7c-1.3,0-2-0.6-1.9-1.7v-2.5h1.5v1.9c0,0.7,0.3,1,1.1,0.9h1.2c0.7,0,1-0.2,1.1-0.6
			c0.1-0.4,0.2-0.9,0.3-1.3c0.7,0.2,1.1,0.4,1.5,0.5c-0.1,0.6-0.3,1.1-0.4,1.5c-0.3,0.9-1,1.3-2.1,1.3L27.7,15.7L27.7,15.7z
			 M28.1,5.2V7h1.5V5.2H28.1z M32.5,5.2h-1.6V7h1.6V5.2z M33.5,14.6c-0.4-0.8-0.9-1.7-1.5-2.8l1.3-0.5c0.6,0.9,1.2,1.9,1.6,2.8
			L33.5,14.6L33.5,14.6z"/>
		<path class="st0" d="M38,16V0.7h14.7V16H51v-0.7H39.7V16H38z M39.7,2.1v11.8H51V2.1H39.7z M40.3,5.2V3.9h5.5V2.5h1.5v1.4h1.3
			l-0.6-1l0.9-0.3C49,2.7,49.2,3,49.4,3.3c0.1,0.3,0.2,0.5,0.3,0.6h0.6v1.3h-3c0,1.5,0.2,2.7,0.3,3.6c0.5-0.8,1-1.8,1.4-2.9l1.2,0.6
			c-0.8,1.8-1.5,3.2-2.3,4.1c0,0.1,0.1,0.2,0.2,0.3c0,0.2,0.1,0.3,0.1,0.4c0.2,0.4,0.4,0.6,0.6,0.5c0.2,0,0.3-0.2,0.4-0.6
			c0.1-0.3,0.2-0.8,0.4-1.7c0.2,0.2,0.5,0.4,1,0.6c0,0.4-0.2,0.9-0.3,1.5c0,0.2-0.1,0.4-0.1,0.5c-0.3,0.9-0.8,1.4-1.5,1.3
			c-0.8,0-1.3-0.5-1.7-1.5c-0.2,0.2-0.4,0.5-0.7,0.9c-0.3,0.4-0.6,0.6-0.8,0.8c-0.1-0.2-0.5-0.6-1.1-1.1h0.1
			c-0.8,0.1-2.1,0.2-3.7,0.5c-0.2,0-0.4,0.1-0.5,0.1l-0.3-1.4c2-0.2,3.8-0.4,5.2-0.5v0.7c0.4-0.4,0.8-0.8,1.2-1.3
			c-0.3-1.1-0.5-2.8-0.7-5.2L40.3,5.2L40.3,5.2z M40.8,10.3V6.2H45v4.1H40.8z M42,7.4v1.8h1.7V7.4H42z"/>
		<path class="st0" d="M57.8,12.4c-0.7-0.3-1.3-0.6-1.9-0.7c1.3-2.5,2.3-5.2,3-8l1.9,0.5C60,7,58.9,9.7,57.8,12.4z M60.1,15.7
			c0-0.7-0.2-1.3-0.4-1.8c0.5,0,1.2,0.1,2.1,0.1c1,0.1,1.4-0.4,1.3-1.3V0.3h1.9v12.9c0.1,1.6-0.7,2.5-2.5,2.5H60.1z M70.2,12.2
			c-0.9-2.4-2-5-3.2-7.9l1.8-0.6c0.6,1.3,1.5,3.5,2.9,6.6c0.3,0.5,0.4,0.9,0.5,1.2L70.2,12.2z"/>
		<path class="st0" d="M75.7,4.8c-0.3-0.4-0.7-0.8-1.1-1.1c1.2-0.9,2.2-2.2,2.9-3.7l1.8,0.1c-0.1,0.1-0.2,0.3-0.3,0.6
			s-0.2,0.5-0.3,0.6h4.2v1.4H80L81,4l-1.5,0.4c-0.2-0.2-0.5-0.6-0.9-1.2c-0.1-0.2-0.2-0.4-0.3-0.5h-0.6C77.1,3.5,76.5,4.2,75.7,4.8
			L75.7,4.8z M75.5,15.8c-0.3-0.6-0.6-1.1-0.9-1.5c2.7-0.6,4.6-1.5,5.8-2.7h-3.1l-0.1,0.5h-1.7l0.8-4.7h5.4V6h-5.6V4.6h13.2v4.2
			h-5.8v1.4h6.6c0,1-0.1,1.8-0.2,2.6c0,1.4-0.8,2.1-2.4,2.1c-0.6,0-1.3,0.1-2.3,0.1c0-0.1-0.1-0.4-0.1-0.7c-0.1-0.4-0.2-0.6-0.2-0.7
			c0.4,0,1.2,0.1,2.3,0.1c0.7,0,1-0.2,1.1-0.9v-0.4c0-0.3,0.1-0.5,0.1-0.7h-4.8v4.5h-1.8v-3.9C80.3,13.7,78.3,14.9,75.5,15.8
			L75.5,15.8z M77.8,8.8l-0.3,1.4h4.2V8.8H77.8L77.8,8.8z M83.5,4.4C83.4,4.3,83.2,4.2,83,4c-0.3-0.3-0.6-0.5-0.7-0.6
			c1-1,1.8-2.2,2.3-3.4l1.8,0.1l-0.2,0.4c-0.2,0.4-0.3,0.7-0.4,0.8h4.8v1.4h-3.2C87.7,3.1,88,3.5,88.4,4l-1.5,0.4
			c-0.1-0.1-0.3-0.3-0.5-0.7c-0.4-0.4-0.7-0.8-0.9-1h-0.6C84.5,3.3,84,3.8,83.5,4.4L83.5,4.4z M87.5,6h-4.1v1.4h4.1V6z"/>
		<path class="st0" d="M93.2,8.8v-2h16.1v2H93.2z"/>
		<path class="st0" d="M112.1,4.8V3.2h1.6V0.1h1.7v3.1h1.2v1.7h-1.2v2.6l1.3-0.4v1.7l-1.3,0.4v4.8c0,1.1-0.5,1.7-1.7,1.8h-1.4
			c-0.1-0.5-0.2-1.1-0.3-1.7h1.1c0.5,0,0.7-0.1,0.7-0.5V9.7c-0.6,0.2-1.2,0.4-1.7,0.5l-0.2-1.8l1.9-0.5V4.9L112.1,4.8L112.1,4.8z
			 M117.1,4.4V2.9h2.5V0.1h1.7V9c0.1,3.3-0.6,5.7-2.3,7.2c-0.4-0.4-0.9-0.7-1.5-0.9c1-1,1.6-1.9,1.8-2.8l-2.7,0.5l-0.2-1.7
			c1-0.1,2-0.2,3.2-0.4c0-0.5,0.1-1.1,0.1-1.9V8.5h-2.4V6.9h2.4V4.4L117.1,4.4L117.1,4.4z M122.9,16V0.1h1.7v2.8h3v1.5h-3v2.5h2.7
			v1.6h-2.7V11h3.2v1.6h-3.2V16H122.9z"/>
		<path class="st0" d="M139.9,5v2.2c0,1.7-0.7,3-2.2,3.8l-0.6-0.7c1.1-0.7,1.7-1.6,1.7-2.7h-1.3V5L139.9,5L139.9,5z"/>
		<path class="st0" d="M149.3,4.7V3.1h1.7v-3h1.7v3h1.3v1.6h-1.3v2.9l1.4-0.4V9l-1.4,0.4v4.6c0,1.2-0.5,1.9-1.7,1.9
			c-0.6,0-1.2,0.1-1.7,0.1c0-0.3-0.1-0.8-0.2-1.5c0-0.1-0.1-0.2-0.1-0.3c0.4,0,0.9,0.1,1.3,0.1c0.5,0,0.8-0.2,0.7-0.7V9.8
			c-0.6,0.1-1.2,0.3-1.8,0.5l-0.2-1.9c0.6-0.1,1.3-0.3,2-0.4V4.7L149.3,4.7L149.3,4.7z M154.2,10.3V8.8h2.9c0.3-0.5,0.5-0.9,0.8-1.4
			l1.7,0.3c0,0-0.1,0.1-0.2,0.3c-0.1,0.2-0.2,0.5-0.5,0.9h6v1.5h-1.9c-0.6,1.2-1.2,2.2-1.8,2.8c1.2,0.5,2.4,1,3.6,1.4l-0.9,1.5
			c-1.1-0.5-2.4-1.1-4.1-1.9c-1.2,0.8-3.1,1.4-5.8,1.9l-0.3-0.5c-0.1-0.1-0.3-0.5-0.6-1c2.3-0.3,3.9-0.7,4.8-1.1l-1.7-0.7
			c0,0-0.1,0.1-0.2,0.2c-0.1,0.1-0.2,0.2-0.2,0.3l-1.5-0.7c0.5-0.6,1.1-1.3,1.6-2.1L154.2,10.3L154.2,10.3z M154.2,7.1V5.6h2.9
			c-0.1-0.2-0.4-0.6-0.7-1.1C156.2,4.2,156,4,156,3.8l1.6-0.5c0.1,0.1,0.2,0.3,0.4,0.6c0.6,0.8,0.9,1.3,1.1,1.6l-0.2,0.1h1.5
			c0.2-0.3,0.4-0.6,0.7-1.1c0.4-0.5,0.6-0.9,0.7-1.1l1.7,0.5c-0.1,0.2-0.3,0.5-0.6,0.9c-0.3,0.4-0.5,0.7-0.7,0.9h2.9v1.5H154.2
			L154.2,7.1z M154.8,3.2V1.9h4.1V0.1h1.7v1.8h4.1v1.4H154.8z M157.3,11.4l2.4,1c0.7-0.5,1.2-1.2,1.6-2.1h-3.2
			C157.8,10.7,157.5,11.1,157.3,11.4L157.3,11.4z"/>
		<path class="st0" d="M170.6,6.8c-0.6-0.5-1.6-1.2-2.8-2.1c-0.1-0.1-0.2-0.2-0.3-0.2l1-1.3c0.2,0.2,0.6,0.4,1.1,0.7
			c0.9,0.6,1.6,1.1,2.1,1.5L170.6,6.8L170.6,6.8z M168.5,16l-0.8-1.9c0.7-0.6,1.3-1.2,1.9-1.8V9h-1.8V7.4h3.5v5.1
			c0.6,1.1,1.8,1.6,3.4,1.6c2.5,0,5.5,0,9.2,0c-0.2,0.5-0.4,1-0.5,1.6h-5.6c-1.4,0-2.5,0-3.4-0.1c-1.9,0-3.2-0.6-3.9-1.8
			C169.7,14.5,169,15.2,168.5,16L168.5,16z M171.3,3.6c-1.1-0.9-2.1-1.7-3.1-2.3l1-1.3c1.1,0.7,2.1,1.4,3.1,2.2L171.3,3.6L171.3,3.6
			z M173,4.8V3.2h2.7c0-0.1-0.1-0.2-0.3-0.3c-0.6-0.9-1.1-1.5-1.5-2l1.5-0.8c0.3,0.3,0.6,0.8,1.1,1.3c0.4,0.4,0.6,0.8,0.8,1
			l-1.5,0.8h2.7c0.4-0.5,0.8-1.4,1.5-2.5c0.1-0.3,0.2-0.5,0.3-0.6l1.7,0.7c0,0.1-0.1,0.2-0.3,0.4c-0.4,0.6-0.9,1.2-1.5,2h2.9v1.6
			h-4.4l-0.1,2V7h4.9v1.6h-5.1c0,0.1,0,0.3-0.1,0.5c0-0.2,0-0.1-0.1,0.1l0.4-0.4c1.7,1.2,3.1,2.4,4.4,3.4l-1.3,1.3
			c-0.8-0.7-1.9-1.7-3.4-3c-0.2-0.2-0.4-0.3-0.5-0.4c-0.7,1.4-2.1,2.6-4.2,3.6c-0.1-0.2-0.4-0.6-0.9-1.1c-0.1-0.2-0.2-0.3-0.3-0.3
			c2.5-1.1,3.9-2.3,4.1-3.8h-4.2V7h4.4V4.8H173L173,4.8z"/>
		<path class="st0" d="M186.9,3.1V1.3h15.2v1.8h-5.8c-0.7,1.1-1.3,2.1-2,3h1.1v9.8h-2V7.2c-1.4,1.7-3.4,3.3-5.8,5
			c-0.4-0.7-0.8-1.2-1.2-1.6c3.7-2.4,6.2-4.8,7.7-7.5L186.9,3.1L186.9,3.1z M201.1,11.9c-1.9-1.6-3.6-3-5.1-4.1l1.2-1.3
			c1.8,1.2,3.6,2.5,5.3,3.8L201.1,11.9L201.1,11.9z"/>
		<path class="st0" d="M216,4.2v0.9h4.6c0,0.2,0,0.4-0.1,0.7c0,0.3,0,0.6-0.1,0.7c0,0.8-0.5,1.2-1.3,1.3v5.9H207V8.6l-1.3,0.3
			c-0.1-0.4-0.3-0.9-0.6-1.3c2.5-0.3,4.1-0.8,4.6-1.5h-2.1l-0.1,0.5h-1.6l0.6-3.4h3.8V2.3H206V1.3h4.2V0.1h1.7v1.1h2.5V0.1h1.7v1.1
			h4v3H216z M205.8,16.1c-0.2-0.4-0.4-0.8-0.6-1.3c0.8-0.1,2-0.3,3.5-0.5c1.1-0.1,2-0.2,2.6-0.3l0.6,1
			C209.4,15.4,207.3,15.8,205.8,16.1L205.8,16.1z M207.9,4.2l-0.2,0.9h2.4c0.1-0.3,0.1-0.5,0.1-0.8V4.2L207.9,4.2L207.9,4.2z
			 M208.7,8.5v0.8h8.7V8.5H208.7z M208.7,10.2V11h8.7v-0.8H208.7z M208.7,11.9v0.9h8.7v-0.9H208.7z M214.4,7.2V6.1h-2.8
			c-0.3,0.6-0.7,1.1-1.4,1.4h7.2c0,0,0-0.1-0.1-0.3c-0.1-0.2-0.2-0.3-0.2-0.5h1.3c0.4,0,0.6-0.1,0.6-0.3V6.1H216v1.1H214.4z
			 M211.9,4.4c0,0.1,0,0.2-0.1,0.4v0.3h2.5V4.3h-2.5L211.9,4.4L211.9,4.4z M211.9,2.3v0.9h2.5V2.3H211.9z M220.4,16
			c-1.7-0.3-3.8-0.7-6.2-1.2l0.6-1c0.2,0,0.4,0.1,0.7,0.1c2.3,0.4,4,0.6,5.3,0.8L220.4,16L220.4,16z M218.4,2.3H216v0.9h2.4V2.3z"/>
		<path class="st0" d="M225,15.9c-0.1-0.1-0.2-0.2-0.3-0.4c-0.5-0.6-0.8-0.9-1-1.1c3.7-1.9,5.5-4.9,5.5-9.1h-5V3.5h5.1
			c0-0.3,0-0.9,0.1-1.7c0-0.8,0-1.3,0.1-1.7h1.9c0,0.8,0,1.8-0.1,3.2c0,0,0,0,0,0.2h7.4c-0.1,3.4-0.3,6.3-0.4,8.7
			c0,2.2-1.1,3.3-3.3,3.2c-1,0-2.1,0.1-3.4,0.1c0-0.4-0.2-0.9-0.3-1.6c0-0.1-0.1-0.2-0.1-0.3c0.7,0,1.8,0.1,3.1,0.1
			c1.4,0.1,2.1-0.7,2.1-2.3c0.1-0.9,0.1-2.6,0.2-5c0-0.5,0.1-0.9,0.1-1.1h-5.5C231.2,10.2,229.1,13.7,225,15.9L225,15.9z"/>
		<path class="st0" d="M252.8,9.4l-1.4,1.3l-3.6-4.1l1.3-1.1L252.8,9.4z"/>
		<path class="st0" d="M260.9,13v-1.4h7.6v-0.2l2.3-1.3h-6.5V8.9h9.2v1.3l-2.9,1.5h6.4V13h-6.7V14c0,1.3-0.6,1.9-1.9,1.9
			c-0.5,0-1.5,0.1-3,0.1c-0.1-0.7-0.2-1.1-0.3-1.5c0.4,0,1.2,0.1,2.5,0.1c0.7,0,1-0.3,1-0.8V13L260.9,13L260.9,13z M271.7,3.7V2.7
			h2.4v-1h-2.6V0.5h4.2v6.1h0.9v3.1H275V7.8h-12.1v1.9h-1.6V6.6h0.9V0.9c1.5-0.3,2.7-0.5,3.6-0.7l0.5,1.3c-0.4,0.1-1,0.2-1.9,0.3
			c-0.3,0.1-0.5,0.1-0.6,0.1v0.9h2.5v0.9h-2.5v1h2.5v1h-2.5v1h10.4v-1h-2.5v-1h2.5v-1L271.7,3.7L271.7,3.7z M266.5,2.5
			c0.5-0.3,1-0.5,1.5-0.8c-0.4-0.3-0.9-0.6-1.4-0.9l0.7-0.8c0.2,0.1,0.4,0.2,0.8,0.5c0.4,0.3,0.7,0.4,0.9,0.5c0.5-0.3,1-0.7,1.4-1.1
			l0.8,0.7c-0.1,0.1-0.3,0.2-0.6,0.4c-0.3,0.3-0.5,0.4-0.7,0.5c0.2,0.1,0.4,0.2,0.7,0.4c0.3,0.2,0.5,0.4,0.7,0.5l-0.7,0.8l0.5,0.4
			c-0.4,0.3-0.8,0.7-1.2,0.9c0.1,0.1,0.3,0.2,0.5,0.3c0.4,0.3,0.6,0.4,0.9,0.5l-0.8,0.9c-0.5-0.4-1-0.8-1.5-1.1
			c-0.6,0.4-1.3,0.8-1.9,1.1c-0.2-0.3-0.4-0.7-0.6-0.9c0.5-0.3,1-0.6,1.5-0.9c-0.4-0.3-0.8-0.6-1.3-0.9l0.5-0.5l-0.1,0.1
			C266.9,3.1,266.7,2.8,266.5,2.5L266.5,2.5z M268.9,2.3c-0.4,0.3-0.9,0.5-1.4,0.8c0.1,0.1,0.3,0.2,0.6,0.4c0.4,0.3,0.7,0.4,0.9,0.5
			c0.4-0.3,0.7-0.6,1.1-0.9L268.9,2.3L268.9,2.3z"/>
		<path class="st0" d="M280.5,7.8L280,6.3c2-0.5,3.7-1.3,5.2-2.3V3.2c-1.8,1-3.4,1.8-5,2.2l-0.5-1.3c1.6-0.3,3.2-1,4.7-1.8h-4.5V0.9
			h7v5.8h-1.7V5.5C283.8,6.4,282.3,7.2,280.5,7.8L280.5,7.8z M281.4,16V8.2h3.7c0.2-0.4,0.3-0.9,0.5-1.3l1.7,0.2l-0.4,1.1h6.7V16
			h-1.7v-0.8h-8.7V16H281.4L281.4,16z M283.2,9.6v1.6h8.7V9.6H283.2z M283.2,12.4v1.5h8.7v-1.5H283.2z M288.3,7.5L287.8,6
			c1.9-0.5,3.6-1.2,5-2.2V3c-1.5,1-3.1,1.8-5,2.3l-0.5-1.4c1.3-0.3,2.7-0.8,4.4-1.7h-4.1V0.9h6.9v6.3h-1.7V5.3
			C291.5,6.2,289.9,6.9,288.3,7.5L288.3,7.5z"/>
		<path class="st0" d="M304.2,14.3c-0.6-0.4-1.2-0.9-1.7-1.5c-0.6,0.8-1.6,1.8-3.2,3c-0.4-0.5-0.8-1-1.2-1.3
			c1.4-0.9,2.5-1.9,3.1-2.8l-1.3-1.2l-0.2,0.7l-1.5-0.6c0.6-1.9,1.1-3.7,1.5-5.5h-1.3V3.4h1.7c0.2-1.2,0.3-2.3,0.5-3.4l1.8,0.1
			c-0.2,1-0.4,2.1-0.6,3.2h3.2V5c-0.3,2.7-0.8,4.8-1.5,6.4c0.7,0.5,1.3,1.1,1.9,1.7L304.2,14.3L304.2,14.3z M303.2,5.1h-1.9
			c-0.1,0.3-0.2,0.9-0.4,1.6c-0.2,1.1-0.4,1.8-0.5,2.3c0.1,0.1,0.3,0.2,0.5,0.4c0.2,0.2,0.6,0.5,1.2,0.9C302.7,9,303,7.3,303.2,5.1
			L303.2,5.1z M305.1,9V7.3h3.9v-2l2.7-2.7h-5.9V1h8.1v1.8l-3,3.1v1.5h3.5V9h-3.5v4.6c0,1.4-0.7,2.1-2.3,2.1c-0.6,0-1.3,0.1-2.2,0.1
			c0,0,0-0.1-0.1-0.2c-0.1-0.8-0.2-1.3-0.3-1.5h1.9c0.8,0,1.1-0.3,1.1-1V9L305.1,9L305.1,9z"/>
		<path class="st0" d="M317,3V1.7h2.6V0.1h1.6v1.5h2.5V3h-2.5v1.3h2.3v6.6h-2.3v1.3h2.7v1.5h-2.7V16h-1.6v-2.3h-2.7v-1.5h2.7v-1.3
			h-2.3V4.3h2.3V3.1L317,3L317,3z M318.4,5.6V7h1.4V5.6H318.4z M318.4,8.2v1.5h1.4V8.2H318.4z M322.4,5.6h-1.5V7h1.5V5.6z
			 M320.9,8.2v1.5h1.5V8.2H320.9z M324.4,11.2V9.6h8v1.6h-3.2v2.7h3.7v1.5h-9.3v-1.5h3.9v-2.7H324.4L324.4,11.2z M325.8,9.2
			c-0.3-0.5-0.8-1.4-1.7-2.7c-0.1-0.2-0.2-0.3-0.3-0.4c0.7-0.9,1.3-1.9,1.9-3l1.3,0.5c-0.7,1.2-1.2,2-1.7,2.5c0.3,0.3,0.7,1,1.3,1.9
			c0.2,0.3,0.3,0.5,0.4,0.6L325.8,9.2L325.8,9.2z M324.2,2.6V1h8.4v1.6L324.2,2.6L324.2,2.6z M328.6,9.2c-0.4-0.8-1.1-1.8-1.9-3.1
			c0.9-1.4,1.5-2.4,1.9-3l1.3,0.5c-0.7,1.1-1.2,2-1.7,2.5l0.1,0.1c0.8,1,1.3,1.8,1.7,2.4L328.6,9.2L328.6,9.2z M331.5,9.2
			c-0.8-1.3-1.5-2.3-2.1-3.1c0.6-0.8,1.3-1.8,2-3l1.3,0.5c-0.3,0.5-0.8,1.2-1.3,2c-0.2,0.2-0.3,0.4-0.4,0.5c0.6,0.8,1.2,1.6,1.9,2.4
			L331.5,9.2z"/>
		<path class="st0" d="M335.8,10.8V9.4h2.4V8.3h1.6v1.1h2.1v1.3h-2.1v1.4l0.5-0.5c0.1,0.1,0.3,0.2,0.6,0.5c0.4,0.2,0.8,0.6,1.4,1
			l-1,1c-0.1-0.1-0.2-0.2-0.5-0.4c-0.5-0.4-0.8-0.6-1.1-0.9v3.1h-1.6v-3.3c-0.6,1-1.3,1.8-2.1,2.3c-0.1-0.3-0.3-0.7-0.7-1.4
			c1.1-0.7,1.9-1.6,2.6-2.8L335.8,10.8L335.8,10.8z M335.6,6.1V5.2h1.1V0.7h6.8v0.9h-5.2v0.7h5v0.7h-5v0.7h5v0.7h-5v0.7h5.5v0.9
			h-1.5c0.8,0.8,1.3,1.3,1.6,1.7l-1.1,0.7c0,0-0.1-0.1-0.2-0.2c-0.1-0.2-0.3-0.3-0.4-0.4c-0.9,0-2.3,0.1-4.2,0.2
			c-1,0-1.7,0.1-2.1,0.1L335.9,7h1c0.3-0.3,0.5-0.6,0.7-0.9L335.6,6.1L335.6,6.1z M339.2,6.1L338.6,7c0.3,0,0.8,0,1.5-0.1
			c0.7,0,1.1,0,1.5-0.1l-0.7-0.6l0.2-0.1L339.2,6.1L339.2,6.1z M342.8,13c0,0-0.1-0.1-0.3-0.3c-0.3-0.4-0.5-0.6-0.7-0.7
			c1-0.7,1.8-1.6,2.5-2.7l1.2,0.5C344.8,11.1,343.9,12.2,342.8,13L342.8,13z M342.6,15.7l-0.2-1.2l1.2-0.1c0.6-0.8,1.4-2,2.3-3.6
			l1.5,0.5c-0.2,0.2-0.5,0.7-0.9,1.3c-0.6,0.9-1.1,1.5-1.3,1.7c1.1,0,2.1,0,3.1-0.1l-1-1.2l1.2-0.5c1.1,1.1,1.9,2.2,2.5,3l-1.3,0.7
			l-0.6-0.8C346,15.5,343.8,15.6,342.6,15.7L342.6,15.7z M344.7,3.1c-0.1-0.4-0.3-0.9-0.5-1.3c2-0.4,3.9-0.9,5.6-1.5l0.6,1.2
			C348.1,2.3,346.2,2.8,344.7,3.1L344.7,3.1z M344.9,8c-0.2-0.6-0.4-1-0.5-1.3c2.2-0.3,4.3-0.9,6.3-1.7l0.5,1.2
			C349,7.1,346.9,7.6,344.9,8z M344.9,5.5c0-0.1-0.1-0.2-0.2-0.5c-0.1-0.3-0.2-0.6-0.3-0.7c1.8-0.3,3.7-0.9,5.6-1.6l0.5,1.1
			C348.9,4.5,347,5.1,344.9,5.5L344.9,5.5z M344.9,9.6V8.4h3.7v0.1c0.7,1.3,1.8,2.3,3.1,3.1c-0.1,0.2-0.3,0.4-0.6,0.7
			c-0.1,0.2-0.2,0.4-0.3,0.5c-1.3-0.8-2.4-1.9-3.1-3.2C347.7,9.6,344.9,9.6,344.9,9.6z"/>
		<path class="st0" d="M25.8,28.8v-1.4h7.1v-1.6h1.8v1.6h6.9v1.4h-4.7c0.6,0.4,1.4,1,2.6,1.7c0.7,0.5,1.2,0.9,1.6,1.1l-1.2,1.2
			l-1.4-1.1c-3.9,0.1-7.7,0.2-11.4,0.3l-0.3-1.5h2c0.6-0.6,1.2-1.2,1.7-1.9L25.8,28.8L25.8,28.8z M27.6,41.7V33h12.1v6.6
			c0.1,1.3-0.6,2-2.2,2h-1c-0.8,0-1.3,0.1-1.7,0.1c0-0.2-0.1-0.5-0.3-1.1c0-0.2-0.1-0.3-0.1-0.4c0.3,0,0.8,0,1.3,0.1h1.1
			c0.8,0,1.1-0.2,1.1-0.9V39h-8.6v2.7L27.6,41.7L27.6,41.7z M29.4,34.2v1.2H38v-1.2H29.4z M29.4,36.6v1.2H38v-1.2H29.4z M31.2,30.6
			c0.7,0,1.7,0,3-0.1h2.7c-0.6-0.5-1.2-0.9-1.9-1.3l0.5-0.4h-2.6c-0.2,0.2-0.5,0.5-0.9,0.9C31.6,30.1,31.3,30.4,31.2,30.6L31.2,30.6
			z"/>
		<path class="st0" d="M53,31.9v-1.5h4v-2.1h-4v-1.5H59v8.8H55v3.1c0,0.7,0.3,1.1,1.1,1.1h1c0.9,0,1.3-0.3,1.4-0.9
			c0-0.2,0.1-0.7,0.1-1.3c0,0.1,0,0,0.1-0.3c0.6,0.2,1.2,0.4,1.7,0.6c-0.1,0.8-0.3,1.5-0.4,2c-0.2,1.1-1.1,1.6-2.5,1.5h-2.1
			c-1.5,0-2.2-0.6-2.1-2v-3.7h-2.3c0.2,2.8-1.7,4.9-5.6,6.1c-0.2-0.4-0.6-1-1.1-1.6c3.4-0.9,5-2.4,4.8-4.5h-3.5v-8.7
			c2.1-0.2,4-0.5,5.6-0.9l0.6,1.6c-1.9,0.4-3.3,0.6-4.5,0.7v2.1h4.1v1.5h-4.1v2.2h9.6v-2.2L53,31.9L53,31.9z"/>
		<path class="st0" d="M77.8,41.6c-3.1-0.9-5.4-2-6.9-3.2c-1.5,1.2-3.7,2.3-6.8,3.4c-0.6-0.9-1-1.5-1.2-1.7c2.8-0.7,5-1.7,6.6-3
			c-1.2-1.4-2.3-3.1-3.1-5.2l1.7-0.9c0.8,2,1.7,3.6,2.8,4.7c1-1,1.9-2.6,2.8-4.8l1.7,0.8c-0.9,2.3-2,4-3.1,5.3
			c1.6,1.3,3.8,2.2,6.6,2.8C78.7,40.1,78.3,40.7,77.8,41.6z M64.5,32.6c-0.5-0.5-1-1-1.3-1.3c2-1.6,3.8-3.3,5.2-5.1l1.5,1.1
			C68.3,29.1,66.5,30.9,64.5,32.6L64.5,32.6z M77.4,32.2c-1.2-1.2-3-2.8-5.3-4.9l1.3-1.1c1.9,1.5,3.7,3,5.5,4.6
			C78.8,30.8,77.4,32.2,77.4,32.2z"/>
		<path class="st0" d="M81.5,33.6v-1.7h1.9l0.6-5.2h11.8c0,1.8-0.1,3.6-0.2,5.2h2v1.7h-2c0,1.4-0.1,2.7-0.2,3.7h1.5v1.6h-1.6
			c-0.1,1.8-1.2,2.6-3.1,2.6H89c0-0.5-0.2-1-0.4-1.5h3.1c1.1,0,1.7-0.3,1.7-1.1h-8.8l-0.1,0.8h-2l0.7-6.1H81.5L81.5,33.6z
			 M93.6,37.3c0.1-1.1,0.2-2.3,0.2-3.7h-8.6l-0.4,3.7H93.6z M85.7,28.3l-0.4,3.6h8.5l0.1-3.6H85.7z M90,37.2
			c-0.7-0.7-1.6-1.4-2.7-2.3l1.1-1.1c0.1,0.1,0.2,0.2,0.5,0.4c0.6,0.4,1.3,1,2.3,1.7L90,37.2L90,37.2z M90.4,31.8
			c-0.8-0.8-1.7-1.5-2.7-2.3l1.1-1.2c0.2,0.2,0.6,0.4,1,0.8c0.3,0.2,0.8,0.6,1.7,1.3C91.5,30.5,90.4,31.8,90.4,31.8z"/>
		<path class="st0" d="M100.2,33.7v-1.3h16.1v1.3h-8.3v8h-1.5v-1.3c-1.1,0.1-2.4,0.2-4,0.4c-0.8,0.1-1.5,0.2-2,0.2l-0.2-1.3l1.4-0.1
			v-6C101.6,33.7,100.2,33.7,100.2,33.7z M102.2,31.5v-5h11.9v5H102.2z M103.2,33.7v1.2h3.2v-1.2H103.2z M103.2,35.9v1.1h3.2v-1.1
			H103.2z M103.2,39.5c0.3,0,0.8,0,1.3-0.1c0.8,0,1.4-0.1,1.9-0.1v-1.1h-3.2C103.2,38.1,103.2,39.5,103.2,39.5z M104,27.6v0.9h8.4
			v-0.9H104z M104,29.5v0.9h8.4v-0.9H104z M115.6,41.6c-1.4-0.4-2.5-1-3.4-1.7c-0.6,0.4-1.6,1-3.1,1.8c-0.2-0.4-0.4-0.9-0.8-1.4
			c1.1-0.3,2-0.8,2.7-1.2c-0.8-0.8-1.4-1.8-1.9-3l0.5-0.3h-0.9v-1.3h6.6V36c-0.5,1.2-1.2,2.2-1.9,3c0.8,0.4,1.8,0.8,2.9,1.1
			C116,40.6,115.8,41,115.6,41.6L115.6,41.6z M113.7,35.9h-3.1c0.5,0.9,1,1.7,1.6,2.3C112.7,37.6,113.2,36.8,113.7,35.9z"/>
		<path class="st0" d="M119.3,28.2v-1.1h6.6v-1.3h1.8v1.3h6.6v1.1h-6.6v1h5.8v1.1h-5.8v1h7v1.1h-15.7v-1.1h7v-1h-5.8v-1.1h5.8v-1
			H119.3L119.3,28.2z M120.8,41.7v-8.2h12.1v6c0,1.3-0.7,2-2.1,2.1H128c-0.1-0.2-0.2-0.5-0.3-1.1c0-0.1-0.1-0.2-0.1-0.3
			c0.6,0,1.4,0.1,2.5,0.1c0.8,0,1.2-0.2,1.1-0.9v-0.3h-8.6v2.7L120.8,41.7L120.8,41.7z M122.5,34.6v1.1h8.6v-1.1
			C131.2,34.6,122.5,34.6,122.5,34.6z M122.5,36.8v1h8.6v-1C131.2,36.8,122.5,36.8,122.5,36.8z"/>
		<path class="st0" d="M143.5,29.4v-1.5h3.9v-2h1.6v2h4.1v1.5H149v4.5c1.1,2.2,2.6,3.9,4.6,5c-0.4,0.6-0.8,1.1-0.9,1.5
			c-1.6-1.1-2.8-2.4-3.6-4v5.3h-1.6v-5.3c-0.8,1.5-2.1,2.9-3.7,4.2c-0.3-0.4-0.6-0.8-0.9-1.1v1.7h-1.4v-1.3h-1.9v1.3h-1.5V26.9h4.7
			v7.2c1-1.2,1.7-2.6,2-4l1.3,0.1c0,0.3-0.2,0.6-0.3,1.1c0,0.3-0.1,0.4-0.1,0.5l1.5,1.5l-0.9,1.2c-0.4-0.5-0.8-1-1.2-1.4
			c-0.4,0.7-0.8,1.4-1.3,2.1c-0.1-0.2-0.5-0.5-1-1v5c1.9-1.2,3.4-3,4.6-5.2v-4.6H143.5L143.5,29.4z M139.6,28.4v2.4h1.9v-2.4H139.6z
			 M139.6,32.2v2.3h1.9v-2.3H139.6z M139.6,36v2.4h1.9V36H139.6z M152.6,34.9c-0.4-0.5-1-1.2-1.6-1.9c-0.1,0.2-0.3,0.6-0.6,1.1
			c-0.1,0.2-0.2,0.3-0.3,0.4c-0.1-0.2-0.4-0.4-0.7-0.6c-0.2-0.2-0.3-0.3-0.4-0.4c0.8-1.1,1.4-2.2,1.7-3.4l1.3,0.1
			c-0.1,0.6-0.3,1.1-0.5,1.5c0.7,0.7,1.3,1.3,1.8,1.9L152.6,34.9L152.6,34.9z"/>
		<path class="st0" d="M156.7,41.5v-13h1.8c0.1-0.5,0.3-1.1,0.5-2c0-0.3,0.1-0.5,0.1-0.6l1.9,0.3c-0.2,0.8-0.4,1.6-0.7,2.3h2.9v13
			h-1.7v-1.2h-3.1v1.3L156.7,41.5L156.7,41.5z M158.4,30.1v3.5h3.1v-3.5H158.4z M158.4,35.2v3.5h3.1v-3.5H158.4z M165.6,41.4
			c-0.1-0.7-0.2-1.2-0.3-1.7h1.2c0.6,0,1,0.1,1.3,0.1c1.2,0,1.8-0.6,1.8-1.7c0-0.7,0.1-2.2,0.1-4.5c0-1.6,0.1-2.8,0.1-3.5h-3.6
			c-0.4,0.9-0.8,1.7-1.2,2.5c-0.1,0-0.2-0.1-0.4-0.3c-0.2-0.1-0.6-0.3-1.1-0.6c1-1.9,1.8-3.8,2.4-5.8l1.8,0.4c0,0.2-0.1,0.4-0.3,0.7
			c-0.2,0.6-0.4,1.1-0.5,1.5h4.8c-0.1,4.8-0.2,8.2-0.3,10c0,2-0.9,3-2.9,2.9C167.6,41.4,166.6,41.4,165.6,41.4L165.6,41.4z
			 M167,36.9c-0.8-1.2-1.6-2.3-2.5-3.5l1.4-0.9c0.8,0.9,1.7,2.1,2.6,3.4L167,36.9L167,36.9z"/>
		<path class="st0" d="M178.9,40.6V30c-1,1-2.4,1.8-4.2,2.6v-1.8c2.3-1.1,3.9-2.4,4.6-3.9h1.5v13.8L178.9,40.6L178.9,40.6z"/>
		<path class="st0" d="M185.5,37.2l2-0.5c0.3,1.7,1.3,2.6,2.9,2.6c1.8-0.1,2.7-1.2,2.8-3c0-2-1-3-2.9-3c-1.2,0-2.1,0.5-2.7,1.3
			l-1.6-0.1l0.6-7.4h7.8v1.7h-6.1l-0.4,4.1c0.8-0.7,1.7-1.1,2.9-1.1c2.8,0.1,4.2,1.6,4.4,4.4c-0.1,3-1.7,4.6-4.8,4.7
			C187.8,40.8,186.1,39.6,185.5,37.2L185.5,37.2z"/>
		<path class="st0" d="M199.3,32.8c-0.1-0.1-0.2-0.3-0.4-0.6c-0.1-0.2-0.4-0.5-0.7-1c1.6-1.4,2.9-3.2,3.8-5.5l2,0.2
			c-0.3,0.6-0.5,1.1-0.8,1.6h10.3v1.6h-5.4v2.6h5v1.6h-5v3h6v1.7h-6v3.7h-1.8v-3.7h-8.2v-1.7h2.5v-4.6h5.7v-2.6h-4.1
			C201.5,30.4,200.5,31.6,199.3,32.8L199.3,32.8z M202.4,33.4v3h3.9v-3H202.4z"/>
		<path class="st0" d="M217.9,41.9c0,0-0.1-0.2-0.2-0.3c-0.4-0.6-0.7-1.1-0.9-1.3c3.2-0.9,5.3-2.3,6.2-4.1h-4.6v-4.4l-0.6,0.5
			c0-0.1-0.1-0.2-0.3-0.4c-0.1-0.2-0.4-0.6-0.8-1.1c2.1-1.4,3.8-3,4.9-4.9l2,0.3c-0.3,0.4-0.5,0.8-0.8,1.2h6.2v1.3l-1.9,1.9h3.7v5.6
			h-6.1c0,0.2-0.1,0.4-0.3,0.6h1.7v2.2c-0.1,0.7,0.3,1,1.2,0.9h2.1c0.8,0,1.2-0.2,1.3-0.9c0-0.1,0-0.2,0.1-0.4
			c0.1-0.7,0.1-1.2,0.2-1.5c0.2,0,0.5,0.1,0.9,0.3s0.7,0.2,0.8,0.3c0,0.1,0,0.2-0.1,0.3c-0.1,0.9-0.2,1.6-0.3,2
			c-0.2,1.1-1,1.6-2.4,1.5h-3.1c-1.6,0-2.3-0.6-2.3-2v-2.6C223.6,38.8,221.4,40.5,217.9,41.9L217.9,41.9z M226.7,28.7h-5.1
			c-0.5,0.6-1.1,1.2-1.7,1.7h5.1L226.7,28.7z M220.1,31.9v2.7h3.4c0,0,0-0.1,0.1-0.2v-0.1c0.2-0.8,0.3-1.5,0.3-2.4H220.1L220.1,31.9
			z M229.3,31.9h-3.6c-0.1,1-0.2,1.8-0.3,2.5l-0.1,0.3h4.1V31.9L229.3,31.9z"/>
		<path class="st0" d="M235.7,41.6c0-0.6-0.1-1.2-0.3-1.7h1c0.6,0,0.8-0.2,0.8-0.7v-3.4c-0.6,0.1-1.2,0.3-1.8,0.5l-0.1-1.9
			c0.7-0.1,1.3-0.3,1.9-0.5v-3.5h-1.8V29h1.8v-3h1.6v3h1.3v0.9c1.4-1.1,2.5-2.5,3.3-4l1.9,0.1c-0.3,0.4-0.6,0.9-0.9,1.3h4.9v1.3
			l-1.3,1.5h2.3v6H249v-4.7h-6.3V36h-1.5v-4.9l-0.2,0.2c-0.2-0.4-0.5-0.8-0.7-1.1v0.3h-1.3v3l1.4-0.3V35l-1.4,0.3v4.3
			c0,1.1-0.5,1.7-1.6,1.9c-0.2,0-0.4,0-0.7,0.1L235.7,41.6L235.7,41.6z M240.3,37.4v-1.3h4.6v-0.8c0-0.4,0.1-0.7,0.1-0.9h1.6
			c0,0.8,0,1.3-0.1,1.7h4.9v1.3h-4.6c0.7,1.4,2.3,2.2,4.8,2.6c-0.1,0.2-0.3,0.5-0.4,0.9c-0.2,0.3-0.3,0.6-0.4,0.7
			c-2.5-0.7-4.2-1.7-4.9-3.1c-0.6,1.3-2.4,2.4-5.2,3.3c-0.1-0.1-0.2-0.3-0.3-0.6c-0.3-0.4-0.5-0.8-0.6-0.9c2.9-0.6,4.5-1.6,5-2.9
			L240.3,37.4L240.3,37.4z M243.7,28.6c-0.4,0.4-0.8,0.9-1.3,1.4h3.9l1.2-1.4H243.7L243.7,28.6z M243.7,35.1c-0.2-0.2-0.5-0.6-1-1.1
			c1.3-0.6,2.2-1.5,2.5-2.6l1.5,0.2c-0.1,0.3-0.2,0.5-0.3,0.7c0.4,0.2,1,0.6,1.7,1.1c0.4,0.2,0.7,0.4,0.8,0.5L248,35
			c-0.7-0.5-1.4-1.1-2.2-1.6C245.3,34,244.6,34.6,243.7,35.1L243.7,35.1z"/>
		<path class="st0" d="M255.3,41.7c-0.5-0.4-0.9-0.8-1.3-1.3c0.6-1.1,1-2.2,1.2-3.2s0.3-2.7,0.3-5v-5.6h13.7v4h-12v2.2
			c0,2.3-0.1,4-0.4,5.2C256.5,39.1,256.1,40.4,255.3,41.7L255.3,41.7z M258,32.8v-1.3h11.3v1.3h-5.9l-1.9,1.9c1.5,0,3,0,4.5-0.1
			l-1.1-1l1.2-0.8c0.1,0.1,0.3,0.3,0.6,0.5c0.8,0.7,1.7,1.5,2.8,2.4l-1.2,1c-0.3-0.3-0.6-0.7-1-0.9l-2.9,0.1v1.3h4.6v1.3h-4.6v1.3
			h5.6v1.3h-13.1v-1.3h5.7v-1.3H258v-1.3h4.6v-1.3c-0.3,0-0.7,0-1.3,0.1c-0.5,0-1,0-1.3,0.1c-0.5,0-1,0-1.5,0.1l-0.5-1.3h1.3
			c0.5-0.5,1.1-1.1,1.8-1.9L258,32.8L258,32.8z M257.2,27.9v1.4h10.2v-1.4H257.2z"/>
		<path class="st0" d="M272.6,38.7v-1.4h7.6v-0.2l2.3-1.3H276v-1.3h9.2v1.3l-2.9,1.5h6.4v1.4H282v0.9c0,1.3-0.6,1.9-1.9,1.9
			c-0.5,0-1.5,0.1-3,0.1c-0.1-0.7-0.2-1.2-0.3-1.5c0.4,0,1.2,0.1,2.5,0.1c0.7,0,1-0.3,1-0.8v-0.7L272.6,38.7L272.6,38.7z
			 M283.4,29.4v-0.9h2.4v-1h-2.6v-1.2h4.2v6.1h0.9v3.1h-1.7v-1.9h-12.1v1.9H273v-3.1h0.9v-5.8c1.5-0.3,2.7-0.5,3.6-0.7l0.5,1.3
			c-0.4,0.1-1,0.2-1.9,0.3c-0.3,0.1-0.5,0.1-0.6,0.1v0.9h2.5v0.9h-2.5v1h2.5v1h-2.5v1h10.4v-1h-2.5v-1h2.5v-1L283.4,29.4L283.4,29.4
			z M278.2,28.3c0.5-0.3,1-0.5,1.5-0.8c-0.4-0.3-0.9-0.6-1.4-0.9l0.7-0.8c0.2,0.1,0.4,0.2,0.8,0.5c0.4,0.3,0.7,0.4,0.9,0.5
			c0.5-0.3,1-0.7,1.4-1.1l0.8,0.7c-0.1,0.1-0.3,0.2-0.6,0.4c-0.3,0.3-0.5,0.4-0.7,0.5c0.2,0.1,0.4,0.2,0.7,0.4
			c0.3,0.2,0.5,0.4,0.7,0.5l-0.7,0.8l0.5,0.4c-0.4,0.4-0.8,0.7-1.2,0.9c0.1,0.1,0.3,0.2,0.5,0.3c0.4,0.3,0.6,0.4,0.9,0.5l-0.8,0.9
			c-0.5-0.4-1-0.8-1.5-1.1c-0.6,0.4-1.3,0.8-1.9,1.1c-0.2-0.4-0.4-0.7-0.6-0.9c0.5-0.3,1-0.5,1.5-0.9c-0.4-0.3-0.8-0.5-1.3-0.9
			l0.5-0.5l-0.1,0.1C278.6,28.8,278.4,28.5,278.2,28.3L278.2,28.3z M280.6,28.1c-0.4,0.3-0.9,0.5-1.4,0.8c0.1,0.1,0.3,0.2,0.6,0.4
			c0.4,0.3,0.7,0.4,0.9,0.5c0.4-0.3,0.7-0.6,1.1-0.9L280.6,28.1L280.6,28.1z"/>
		<path class="st0" d="M292.1,27.9v-1.5h14.8v1.5h-12.7v11.4c0,0.3,0.2,0.5,0.7,0.5h12.2v1.4h-13c-1,0-1.5-0.5-1.5-1.4V27.9
			L292.1,27.9L292.1,27.9z M295.4,38.6v-4.5h4.9v4.5H295.4z M296.7,33.1V29h8.3v4.1H296.7z M296.8,35.4v2.1h2.1v-2.1H296.8z
			 M298.3,30.2v1.7h5.1v-1.7H298.3z M301.5,38.6v-4.5h4.9v4.5H301.5z M302.8,35.4v2.1h2.3v-2.1H302.8z"/>
		<path class="st0" d="M310.3,37.3l-0.1-1.7l5.5-0.5V33c-0.8,0.1-2,0.2-3.5,0.3c0.9,0,0.8,0-0.4,0l-0.3-1.7c4.5-0.1,8.5-0.4,12-0.8
			l0.3,1.7c-0.5,0-1.4,0.1-2.5,0.2c-1.6,0.1-2.9,0.2-3.6,0.3v2.2l8-0.6l0.1,1.7l-8.1,0.6v1.7c0,0.9,0.4,1.4,1.3,1.3h3.2
			c0.8,0,1.3-0.3,1.4-1c0.1-0.4,0.2-1,0.3-1.7c0.7,0.2,1.3,0.4,1.8,0.5c0,0.7-0.2,1.4-0.4,2.1c-0.2,1.1-1.1,1.6-2.6,1.6H318
			c-1.6,0-2.5-0.8-2.5-2.4v-1.9L310.3,37.3L310.3,37.3z M310.5,31.1v-3.5h6.6v-1.8h1.9v1.8h6.4V31h-1.8v-1.8h-11.2v1.9
			C312.3,31.1,310.5,31.1,310.5,31.1z"/>
	</g>
</g>
</svg>
