<?xml version="1.0" encoding="utf-8"?>
<!-- Generator: Adobe Illustrator 27.0.0, SVG Export Plug-In . SVG Version: 6.00 Build 0)  -->
<svg version="1.1" id="_圖層_2" xmlns="http://www.w3.org/2000/svg" xmlns:xlink="http://www.w3.org/1999/xlink" x="0px" y="0px"
	 viewBox="0 0 385.3 209.1" style="enable-background:new 0 0 385.3 209.1;" xml:space="preserve">
<style type="text/css">
	.st0{fill:#FFFFFF;}
</style>
<g id="_圖層_1-2">
	<g>
		<path class="st0" d="M2.7,4.2h36.1v69.2c4-6.8,6-17.3,5.7-31.5V3.4h43.7v70.7c0.5,9.6-3.9,14.6-13.3,14.8c-3,0.2-7.7,0.4-14.1,0.4
			c-1-5.3-2.2-10.1-3.4-14.4c3,0.2,6.2,0.4,9.5,0.4c3.8,0,5.6-1.9,5.3-5.7v-6.5H58.9c-1,8.6-5.2,18.1-12.5,28.5
			c-3.8-3.6-8.2-7.1-13.3-10.6h-16v6.5H2.7V4.2z M17.1,17.9v18.2h7.6V17.9H17.1z M17.1,68h7.6V49.4h-7.6V68z M60.4,42.9
			c0,2.5-0.1,4.9-0.4,7.2h12.2V39.9H60.4V42.9z M60.4,16.7V27h11.8V16.7H60.4z"/>
		<path class="st0" d="M164.1,90.4v-5.7h-42.6v5.7h-16.3V4.6h75.6v85.9H164.1L164.1,90.4z M121.6,19.4v18.2h42.6V19.4H121.6z
			 M121.6,52.1v18.6h42.6V52.1H121.6z"/>
		<path class="st0" d="M239.4,74.1c10.9,0.3,26.6,0.1,47.1-0.4c-1.3,3.8-2.8,8.7-4.6,14.8h-27c-7.1-0.3-13.7-0.5-19.8-0.8
			c-9.1-0.3-16.2-3.6-21.3-9.9c-0.8-1.3-1.8-1.3-3,0c-3.8,4.1-7.7,8.5-11.8,13.3l-5.3-17.5c3.3-3.5,7.3-7.3,12.2-11.4
			c2.5-2.5,5.1-3.8,7.6-3.8c1.3,0,2.4,0.2,3.4,0.8c12.9-7.6,26.5-17.2,40.7-28.9h-57.4V16h32.7V0h14.8v16h31.9v15.6
			c-16.2,15.2-33.7,28-52.4,38.4C230.3,73,234.3,74.4,239.4,74.1L239.4,74.1z"/>
		<path class="st0" d="M376.2,72.6h-28.9v4.2h36.1v11h-91.2v-11h39.5v-4.2h-26.2v-6.8c-0.3,0.5-0.9,1.3-1.9,2.3
			c-0.8,1.3-1.4,2.2-1.9,2.7c-3.8-2.5-7.6-5.3-11.4-8.4c5.8-5.6,9.6-11.9,11.4-19h14.4c0,0.3-0.1,0.9-0.4,1.9
			c-0.3,0.8-0.5,1.4-0.8,1.9h16.7v-5.3h-31.9V3h76v38.8h-28.5v5.3h32.3v11h-32.3v3.8h28.9L376.2,72.6L376.2,72.6z M310.1,58.1
			c-0.2,0.8-0.8,1.8-1.5,3c-0.3,0.3-0.5,0.5-0.8,0.8h23.9v-3.8H310.1z M315.4,14.8v3.4h45.2v-3.4H315.4z M315.4,31.2h45.2v-3.8
			h-45.2V31.2z"/>
		<path class="st0" d="M6.1,149.4v-11h79v11h-8.4v5.3h14.4v11H76.8v5.7h8.7v10.6H53.2v4.6h26.6v11H53.2v9.9H38v-9.9H11v-11h27v-4.6
			H5.7v-10.6h8.7v-5.7H0v-11h14.4v-5.3H6.1z M54.7,116.7h15.2v5.3h20.5v11.4H69.9v3.4H54.7v-3.4H36.1v3.4H21.3v-3.4H0.8V122h20.5
			v-5.3h14.8v5.3h18.6C54.7,122,54.7,116.7,54.7,116.7z M28.9,149.4v5.3H38v-5.3H28.9z M28.9,165.8v5.7H38v-5.7H28.9z M53.2,149.4
			v5.3h9.1v-5.3H53.2z M53.2,165.8v5.7h9.1v-5.7H53.2z"/>
		<path class="st0" d="M185.8,161.6v20.1h-4.2l3.8,7.2l-6.5,1.5c0.5,0.3,1.1,0.5,1.9,0.8c2,0.8,4.7,1.5,8,2.3
			c-0.5,2.8-1.1,5.2-1.9,7.2c-0.5,4.1-4.2,6.1-11,6.1h-14.4c-7.9,0.2-11.6-3.6-11.4-11.4v-13.7H133v3h14.4v8H133v3.8
			c5.3-0.5,10.3-1.1,14.8-1.9c0,3.8,0.1,6.6,0.4,8.4c-3.3,0.5-10.6,1.9-22,4.2c-4.1,0.8-6.7,1.3-8,1.5l-2.3-9.9l4.2-0.8v-16.3h-4.2
			c-0.3,8.4-3,17.5-8.4,27.4c-3.8-3-7.7-6-11.8-8.7c5.1-6.8,7.3-16.7,6.8-29.6v-22.4h33.8v-1.9h-8V138h-12.9v8.4h-12.9v-15.2h38.8
			v11.8h4.2v-11.8h39.1v15.2h-12.9V138h-13.3v8.4h-7.6v1.9h36.5v9.1H163v4.2H185.8L185.8,161.6z M141.7,128.5h-40.7v-8.7h40.7V128.5
			z M118.5,146.7l-2.7-6.8l9.1-1.9l2.7,7.2L118.5,146.7L118.5,146.7z M115.9,157.4v4.2h11v-4.2C126.9,157.4,115.9,157.4,115.9,157.4
			z M115.9,172.2v1.5h11v-4.2h-11L115.9,172.2L115.9,172.2z M139.8,157.4v4.2h10.3v-4.2H139.8z M139.8,169.5v4.2h10.3v-4.2H139.8z
			 M185.8,128.5h-40.7v-8.7h40.7V128.5z M161.5,147.1l-2.7-7.6l9.5-1.5l2.7,7.2L161.5,147.1L161.5,147.1z M173.3,169.5H163v4.2h10.3
			V169.5z M163.4,185.9c5.3-1.3,10.4-2.7,15.2-4.2h-15.2V185.9z M177.1,191.2c-1,0.3-2.5,0.6-4.6,1.1c-3.8,1-6.8,1.8-9.1,2.3
			c0.2,1.5,1.5,2.3,3.8,2.3h5.3c2.3,0,3.5-0.8,3.8-2.3L177.1,191.2L177.1,191.2z"/>
		<path class="st0" d="M269.8,119.4c5.3,11.9,11.5,20.9,18.6,27c-1,2.5-2.5,7.1-4.6,13.7c-1-0.8-2.2-1.6-3.4-2.7v23.2h-9.1v12.5
			c0,1.5,0.6,2.3,1.9,2.3h0.8c0.8,0,1.4-1,1.9-3c0.2-1,0.4-2.7,0.4-4.9c0.2-2.3,0.4-4.1,0.4-5.3c1,0.3,2.1,0.8,3.4,1.5
			c2.5,1,4.6,1.8,6.1,2.3c-0.5,4.8-1.1,8.9-1.9,12.2c-0.8,5.3-4.3,8-10.6,8h-3.8c-7.6,0.2-11.3-3-11-9.9v-15.6h-3.4
			c-0.3,11.4-5.7,20.8-16.3,28.1l-5.7-6.5l-6.1,1.5l-1.1-4.6c-11.1,1.5-21.3,3-30.4,4.6l-2.3-12.9c4.3,0,9-0.4,14.1-1.1v-15.2h-1.9
			v4.6h-9.1v-47.1h11v-14.8H220v14.8h10.6v16.3c5.1-5.3,8.2-11,9.5-17.1l11.4,3.8c-1.8,5.6-3.9,10.4-6.5,14.4h27
			c-4-4.8-7.6-10.6-10.6-17.5h-13.7v-12.5L269.8,119.4L269.8,119.4z M205.6,145.2v16.3h4.2v-16.3H205.6z M221.5,145.2h-3.8v16.3h3.8
			V145.2z M230.6,179c0.5,1.8,1.1,4.2,1.9,7.2c1,4.3,1.8,7.6,2.3,9.9c5.1-3.8,7.9-9,8.4-15.6h-6.8V160l-3,2.3
			c-0.8-2.5-1.6-4.9-2.7-7.2v23.2h-9.1v-3.8h-2.3v14.4l4.6-0.8c0-0.8-0.3-1.8-0.8-3c-0.2-2-0.5-3.5-0.8-4.6L230.6,179L230.6,179z
			 M249.3,160.8v8.4h18.2v-8.4H249.3z"/>
		<path class="st0" d="M354.1,155.1L353,146h1.9c1-0.2,1.8-0.4,2.3-0.4c1-1,2.9-3.2,5.7-6.5c-1.8,2.3-1.4,1.9,1.1-1.1
			c-0.8-0.5-2-1.5-3.8-3c-2.8-1.8-4.8-3.2-6.1-4.2v3.8h-31.5v-3.4l-6.8,6.8c-1.8,1.8-3,3-3.8,3.8l7.2-2.3c2.3,6.8,3.9,11.9,4.9,15.2
			l-8,2.3l-0.8-2.3l-2.7,0.4v16.7h-9.5v-16.3c-5.3,0.5-8.7,0.9-10.3,1.1l-1.1-9.5h4.2c2-2,4.2-4.6,6.5-7.6
			c-3.5-2.8-7.5-5.7-11.8-8.7l6.1-7.6l2.3,1.9c2-3.3,3.8-6.1,5.3-8.4l10.3,4.2c-1.3,1.3-3,3.3-5.3,6.1c-1.3,1.8-2.2,2.9-2.7,3.4
			c0.8,0.8,1.5,1.3,2.3,1.5c1.8-2.3,3.4-4.3,4.9-6.1l8.7,4.6V127h31.5l4.2-5.3l2.3,1.9c2-2.8,3.7-5.6,4.9-8.4l10.3,4.2
			c-0.8,0.8-2,2.3-3.8,4.6c-2,2.3-3.4,3.9-4.2,4.9l2.3,1.5c0.8-0.8,1.9-2.1,3.4-4.2c0.8-0.8,1.3-1.4,1.5-1.9l9.1,4.9
			c-4.3,4.3-8,8.1-11,11.4l7.2-2.3c2,6.1,3.7,11.1,4.9,15.2l-8,2.3l-0.4-2.7l-2.7,0.4v17.9h-9.9v-17.1L354.1,155.1L354.1,155.1z
			 M376.9,175.2v9.5h-7.6c-4.6,3.8-9.1,7-13.7,9.5c7.6,1,17,1.8,28.1,2.3c-1.3,1.8-2.8,4.7-4.6,8.7c-0.3,0.8-0.5,1.4-0.8,1.9
			c-19-1.5-32.5-3.4-40.7-5.7c-10.9,3-24.2,5.3-39.9,6.8c-0.5-1-1.4-2.8-2.7-5.3c-1-2.3-1.9-4.2-2.7-5.7c11.9-0.5,21-1.3,27.4-2.3
			c-2.5-1.5-5.2-3.3-8-5.3c-3.3,2.3-7.2,4.6-11.8,6.8c-1-1.3-2.9-3.7-5.7-7.2c-0.8-1.3-1.4-2.1-1.9-2.7c9.4-4.1,17.2-9.1,23.6-15.2
			l14.4,1.1l-2.7,2.7L376.9,175.2L376.9,175.2z M302.1,158.5c-0.2,4.1-0.8,8.4-1.5,12.9l-7.6-1.1c0.2-1.5,0.6-3.5,1.1-6.1
			c0.2-2.5,0.5-4.6,0.8-6.1L302.1,158.5L302.1,158.5z M313.5,146.8l-1.5-4.6l-4.9,4.9C309.3,146.9,311.4,146.8,313.5,146.8z
			 M319.9,157c1.3,2.8,2.4,6.8,3.4,12.2l-7.2,1.5c-0.3-1.3-0.6-3.2-1.1-5.7c-0.3-1.5-0.8-3.8-1.5-6.8L319.9,157L319.9,157z
			 M324.5,136.9h27.7v6.5h-27.7V136.9z M324.5,146h27.7v6.5h-27.7V146z M324.5,170.7v-16h27.7v16H324.5z M324.5,184.7
			c3.8,2.3,8.1,4.2,12.9,5.7c4.6-1.5,8.9-3.4,12.9-5.7H324.5L324.5,184.7z M325.6,118.2h26.2v6.1h-26.2V118.2z M334.8,161.2v3h7.2
			v-3H334.8z M363.3,157.4c-0.3,3-0.8,7.4-1.5,12.9l-7.6-1.5c0.2-1,0.5-2.3,0.8-3.8c0.5-3.3,0.9-6.1,1.1-8.4L363.3,157.4
			L363.3,157.4z M374.7,145.2l-1.5-4.6l-4.9,4.9c0.8,0,1.9-0.1,3.4-0.4H374.7L374.7,145.2z M381.1,155.5c1.3,2.8,2.4,6.8,3.4,12.2
			l-6.8,1.5c-0.5-2.8-1.3-6.2-2.3-10.3c-0.5-1-0.8-1.8-0.8-2.3L381.1,155.5L381.1,155.5z"/>
	</g>
</g>
</svg>
