<?xml version="1.0" encoding="utf-8"?>
<!-- Generator: Adobe Illustrator 27.0.0, SVG Export Plug-In . SVG Version: 6.00 Build 0)  -->
<svg version="1.1" id="_圖層_2" xmlns="http://www.w3.org/2000/svg" xmlns:xlink="http://www.w3.org/1999/xlink" x="0px" y="0px"
	 viewBox="0 0 712 36.7" style="enable-background:new 0 0 712 36.7;" xml:space="preserve">
<style type="text/css">
	.st0{fill:#FFFFFF;}
</style>
<g id="_圖層_1-2">
	<g>
		<path class="st0" d="M60,23.2c-0.1,0.7-0.2,1.4-0.4,2h12.6c0,0,0,1-0.1,1.6c-0.4,4.8-0.9,7.1-1.9,8c-0.9,0.8-1.9,1.1-3.2,1.2
			c-1.1,0.2-3,0.2-5.1,0.1c0-1.2-0.5-2.8-1.2-3.8c1.8,0.2,3.5,0.2,4.3,0.2c0.6,0,1-0.1,1.3-0.3c0.4-0.4,0.7-1.4,1-3.5h-8.9
			c-1.6,3.3-4.4,5.8-10,7.5c-0.4-1.1-1.6-2.7-2.5-3.6c-0.7,1.5-1.6,2.8-2.7,4c-0.5-0.8-2.3-2.6-3.2-3.2c4.2-5,4.6-12.1,4.6-17.7V3.1
			c8.9-0.5,19-1.5,25.1-2.9l3.5,3.4c-6.7,1.5-15.8,2.4-24,2.9v1.2h24.5V17H62.9c0.4,0.8,0.9,1.8,1.2,2.7H76v3.6
			C76,23.2,60,23.2,60,23.2z M48.7,23.2c-0.5,3.2-1.3,6.5-2.7,9.4c7-1.9,8.7-5.1,9.3-9.4C55.3,23.2,48.7,23.2,48.7,23.2z M59,19.6
			c-0.3-0.7-0.5-1.4-0.9-2l3.8-0.7H49.2c0,0.9-0.1,1.7-0.1,2.7H59z M49.2,11.2v2.3h19.9v-2.3H49.2z"/>
		<path class="st0" d="M116.5,30.8v4.3H81.3v-4.3h15.3v-3.1H85.3v-4.2h11.3v-2.4h-2.9v-7.4h-3.6c-0.6,3.2-2.3,6.4-6.1,8.5
			c-0.6-0.9-2.2-2.6-3-3.2c2.9-1.5,4.2-3.3,4.8-5.3h-3.9V9.6h4.4V5.5H83v-4h17.7v4H98v4.1h3.7v4.1H98v6.8h3.4v3.1h11.3v4.2h-11.3
			v3.1L116.5,30.8L116.5,30.8z M93.7,9.6V5.5h-3.3v4.1H93.7L93.7,9.6z M107.6,15.4h-4.3v-13h4.3V15.4z M114.8,17.1
			c0,2.1-0.4,3.2-1.9,3.9c-1.4,0.6-3.4,0.7-6.1,0.7c-0.2-1.2-0.8-2.9-1.4-4.1c1.8,0.1,3.6,0.1,4.2,0c0.6,0,0.7-0.1,0.7-0.7V0.6h4.4
			C114.8,0.6,114.8,17.1,114.8,17.1z"/>
		<path class="st0" d="M136.8,10.2h-15.2V6.5h6.4c-0.6-1.5-1.6-3.4-2.5-4.9l3.7-1.6c1.1,1.6,2.3,3.7,2.8,5.2l-2.6,1.4h7.4V10.2
			L136.8,10.2z M135.2,12.8c3.8-2.1,4.3-4.8,4.3-7.3V1.4h13.2v8.4c0,1.1,0.1,1.6,0.6,1.6h1.6c0.6,0,1.4-0.1,1.9-0.3
			c0.1,1.2,0.2,2.8,0.3,3.8c-0.6,0.2-1.4,0.3-2.2,0.3h-2c-3.7,0-4.4-1.6-4.4-5.5v-4h-4.7l0,0c0,3.8-1.1,8.1-6,10.7
			c-0.4-0.7-1.6-2.1-2.5-2.9v1.9h-12v-3.5h11.9L135.2,12.8L135.2,12.8z M135.3,20.6h-12v-3.5h12V20.6z M156.2,17.9
			c-1.3,4.8-3.4,8.4-6.2,11.3c2.4,1.2,5.1,2.2,8.1,2.8c-1,0.9-2.2,2.9-2.8,4.1c-3.4-0.8-6.4-2.1-9.1-3.8c-2.7,1.7-5.7,3-9.1,3.9
			c-0.4-1-1.1-2.4-1.8-3.4v1.4h-8v1.6h-3.9V22.5h11.9V32c2.6-0.6,5-1.5,7.2-2.8c-2-2-3.8-4.5-5.1-7.2l2.5-0.9h-3.6v-4.3h16.3
			l0.8-0.2L156.2,17.9L156.2,17.9z M131.3,26.1h-4v4.3h4V26.1z M141.5,21.2c1.1,2.1,2.7,3.9,4.6,5.5c1.7-1.5,3.1-3.4,4.2-5.5H141.5z
			"/>
		<path class="st0" d="M179.4,10.2H163V6.5h6.8c-0.6-1.5-1.6-3.4-2.5-4.9l3.6-1.7c1.1,1.6,2.3,3.7,2.9,5.2l-2.6,1.4h8.2V10.2
			L179.4,10.2z M164.7,15.4v-3.5h13.1v3.5H164.7z M177.7,20.6h-13v-3.5h13V20.6z M177.9,34.2h-9.1v1.6h-3.9V22.4h13V34.2z
			 M168.8,26.1v4.3h5.1v-4.3C173.9,26.1,168.8,26.1,168.8,26.1z M198.1,17.5h-7.2v18.8h-4.8V17.5h-6.8V13h6.8V0.9h4.8V13h7.2V17.5
			L198.1,17.5z"/>
		<path class="st0" d="M207.4,15c0-2.1,1.6-3.7,3.6-3.7s3.6,1.6,3.6,3.7s-1.6,3.7-3.6,3.7S207.4,17.1,207.4,15z M207.4,29.7
			c0-2.1,1.6-3.7,3.6-3.7s3.6,1.6,3.6,3.7s-1.6,3.7-3.6,3.7S207.4,31.9,207.4,29.7z"/>
		<path class="st0" d="M223.8,29.7c6.1-6.7,10-11.7,10-16.5c0-2.7-1-4.3-2.9-4.3c-1.6,0-3,1.2-4.1,2.7l-3.2-3.2
			c2.4-2.6,4.7-4.1,8.1-4.1c4.6,0,7.7,3.4,7.7,8.5s-3.6,10.1-7.9,15.6c1.5-0.1,2.8-0.3,4.2-0.3h4.8v4.7h-16.6L223.8,29.7L223.8,29.7
			z"/>
		<path class="st0" d="M264.7,23.2c-0.1,0.7-0.2,1.4-0.4,2h12.6c0,0,0,1-0.1,1.6c-0.4,4.8-0.9,7.1-1.9,8c-0.9,0.8-1.9,1.1-3.2,1.2
			c-1.1,0.2-3,0.2-5.1,0.1c0-1.2-0.6-2.8-1.2-3.8c1.8,0.2,3.5,0.2,4.3,0.2c0.6,0,1-0.1,1.3-0.3c0.4-0.4,0.7-1.4,1-3.5h-8.9
			c-1.6,3.3-4.4,5.8-10,7.5c-0.4-1.1-1.6-2.7-2.5-3.6c-0.7,1.5-1.6,2.8-2.7,4c-0.7-0.9-2.5-2.8-3.3-3.4c4.2-5,4.6-12.1,4.6-17.7V3.1
			c8.9-0.5,19.1-1.5,25.1-2.9l3.6,3.4c-6.7,1.5-15.7,2.4-24,2.9v1.2h24.5V17h-10.8c0.4,0.8,0.9,1.8,1.2,2.7h11.9v3.6L264.7,23.2
			L264.7,23.2z M253.3,23.2c-0.5,3.2-1.3,6.5-2.7,9.4c6.9-1.9,8.7-5.1,9.3-9.4C259.9,23.2,253.3,23.2,253.3,23.2z M263.6,19.6
			c-0.3-0.7-0.6-1.4-0.9-2l3.8-0.7h-12.8c0,0.9-0.1,1.7-0.1,2.7H263.6z M253.8,11.2v2.3h19.9v-2.3H253.8z"/>
		<path class="st0" d="M305.8,29.4l2.9-3.6c1.4,1.8,3,2.9,4.8,2.9c2.1,0,3.7-1.2,3.7-3.6c0-2.8-1.4-4.5-6-4.5v-4.1
			c3.9,0,5.4-1.9,5.4-4.3c0-2.1-1.1-3.3-3-3.3c-1.4,0-2.7,1-4.1,2.5l-3-3.4c2.2-2.2,4.7-3.6,7.6-3.6c4.8,0,7.9,2.7,7.9,7.3
			c0,3.2-1.4,5.3-3.8,6.5v0.1c2.4,0.9,4.5,3.2,4.5,7.2c0,4.9-3.8,7.8-8.4,7.8C310.3,33.4,307.6,31.7,305.8,29.4L305.8,29.4z"/>
		<path class="st0" d="M347.5,23.2c-0.1,0.7-0.2,1.4-0.4,2h12.6c0,0,0,1-0.1,1.6c-0.4,4.8-0.9,7.1-1.9,8c-0.9,0.8-1.9,1.1-3.2,1.2
			c-1.1,0.2-3,0.2-5.1,0.1c0-1.2-0.5-2.8-1.2-3.8c1.8,0.2,3.5,0.2,4.3,0.2c0.6,0,1-0.1,1.3-0.3c0.4-0.4,0.7-1.4,1-3.5h-8.9
			c-1.6,3.3-4.4,5.8-10,7.5c-0.4-1.1-1.6-2.7-2.5-3.6c-0.7,1.5-1.6,2.8-2.7,4c-0.7-0.9-2.5-2.8-3.3-3.4c4.2-5,4.6-12.1,4.6-17.7V3.1
			c8.9-0.5,19.1-1.5,25.1-2.9l3.5,3.4c-6.7,1.5-15.7,2.4-24,2.9v1.2h24.5V17h-10.8c0.4,0.8,0.9,1.8,1.2,2.7h11.9v3.6L347.5,23.2
			L347.5,23.2z M336.1,23.2c-0.5,3.2-1.3,6.5-2.7,9.4c7-1.9,8.7-5.1,9.3-9.4L336.1,23.2L336.1,23.2z M346.4,19.6
			c-0.3-0.7-0.5-1.4-0.9-2l3.8-0.7h-12.8c0,0.9-0.1,1.7-0.1,2.7H346.4L346.4,19.6z M336.6,11.2v2.3h20v-2.3H336.6z"/>
	</g>
</g>
</svg>
