<?xml version="1.0" encoding="utf-8"?>
<!-- Generator: Adobe Illustrator 27.0.0, SVG Export Plug-In . SVG Version: 6.00 Build 0)  -->
<svg version="1.1" id="_圖層_2" xmlns="http://www.w3.org/2000/svg" xmlns:xlink="http://www.w3.org/1999/xlink" x="0px" y="0px"
	 viewBox="0 0 512.2 42.1" style="enable-background:new 0 0 512.2 42.1;" xml:space="preserve">
<style type="text/css">
	.st0{fill:#231815;}
</style>
<g id="_圖層_1-2">
	<g>
		<path class="st0" d="M27.2,15.6l-0.3-1.7l0.7-0.1v-6H29v5.8c0.4-0.1,0.9-0.1,1.3-0.2V6.6h-2.4V1h5.4v5.6h-1.5v2.2h1.8v1.5h-1.8v3
			l1.9-0.3v1.5C31.5,14.8,29.3,15.2,27.2,15.6L27.2,15.6z M29.4,2.5V5h2.3V2.5L29.4,2.5L29.4,2.5z M34.3,2.7V1.1h8.6v1.6h-6.2v2.7
			h5.5v5.9h-5.5v2.9H43v1.5h-8.9v-1.5H35V2.7L34.3,2.7L34.3,2.7z M40.5,6.9h-3.8v2.8h3.8V6.9z"/>
		<path class="st0" d="M45.9,3.1V1.7h3.2V0.3h1.6v1.4h3v1.4H45.9L45.9,3.1z M46.4,8.4V4h1.3v3.2h4.5V3.9h1.3v4.4h-2.7l-0.4,1.2h3.4
			v4.8c0.1,1.1-0.5,1.7-1.7,1.7h-1.5c0-0.4-0.1-0.8-0.3-1.3h1.4c0.5,0,0.7-0.2,0.7-0.6v-3.3h-2.5c0,0.1-0.1,0.3-0.2,0.6
			c-0.2,0.6-0.3,1-0.4,1.2l1.3-0.1c-0.1-0.4-0.2-0.7-0.3-1l0.9-0.3c0.4,0.9,0.8,1.8,1.1,2.7l-0.9,0.4c0-0.3-0.1-0.5-0.3-0.7
			c-1.2,0.1-2.3,0.3-3.2,0.5l-0.3-1.1l0.6-0.1c0.1-0.2,0.2-0.6,0.3-1c0.1-0.4,0.2-0.8,0.3-1h-1.3v5.3H46V9.6h2.9
			c0.1-0.4,0.2-0.8,0.3-1.2H46.4L46.4,8.4z M51.2,6.8l-1.3-1c-0.4,0.3-1,0.7-1.5,1.1L47.8,6c0.5-0.3,0.9-0.5,1.3-0.8l-1.3-1l0.7-0.7
			L50,4.5c0.4-0.3,0.8-0.7,1.1-1.1l0.7,0.7c-0.3,0.4-0.7,0.8-1.1,1.1L52,6.1L51.2,6.8L51.2,6.8z M54.8,16.1V6.4l-0.7,1.2
			c-0.1-0.7-0.3-1.3-0.5-1.8c1-1.6,1.7-3.4,2.1-5.5l1.5,0.3c-0.3,0.8-0.5,1.7-0.9,2.5h1.7c0-0.2,0.1-0.5,0.3-0.9
			c0.3-0.8,0.4-1.4,0.5-1.7l1.5,0.3l-0.7,2.3h2v1.4h-1.9v2.2h1.7v1.4h-1.7v2.2h1.7v1.5h-1.7v2.2h2v1.3h-5.3v0.9L54.8,16.1L54.8,16.1
			z M56.3,4.5v2.2h1.9V4.5H56.3z M56.3,8.1v2.2h1.9V8.1C58.1,8.1,56.3,8.1,56.3,8.1z M56.3,11.8V14h1.9v-2.2H56.3z"/>
		<path class="st0" d="M79.3,7.7c-0.4-0.2-1.1-0.5-1.9-0.9c-0.2-0.1-0.3-0.2-0.4-0.2v1.3h-3.8V10h5v1.7h-5v2.3h6.5v1.5H64.9v-1.5
			h6.4v-2.3h-5V10h5V7.9h-3.8V6.7c-0.7,0.4-1.5,0.8-2.4,1.2c-0.4-0.7-0.7-1.2-1-1.6c3-1.2,5.1-2.5,6.4-4.1h-3.7V0.8h6
			c1.6,2.3,4.1,4.1,7.4,5.2c0,0-0.1,0.1-0.1,0.3C79.8,7,79.5,7.5,79.3,7.7L79.3,7.7z M72.5,2.6c-1.1,1.4-2.6,2.6-4.3,3.7h8.3
			C75,5.4,73.7,4.2,72.5,2.6z"/>
		<path class="st0" d="M89.5,11.3V5.9h-2.8v7.8h11.8v1.5H86.7v1h-1.8V5.9H83V4.2h1.9v-3h1.8v3h2.8V0.5h1.8v3.7h3.7V0.5h1.8v3.7h2.1
			v1.7h-2.1v5.4H89.5L89.5,11.3z M91.3,5.9v3.7h3.7V5.9H91.3z"/>
		<path class="st0" d="M111.6,16.1V11h1.3c-1.2-0.7-2.3-1.5-3.2-2.4l0.3-0.2h-0.1c-1.1,1-2.2,1.8-3.4,2.5h1.2c0,0.4,0,0.9-0.1,1.5
			c0,0,0,0,0,0.1c-0.2,1.5-1.2,2.7-2.9,3.7c-0.4-0.3-0.9-0.6-1.5-1c1.7-0.8,2.5-1.8,2.6-2.7c0.1-0.4,0.1-0.8,0.1-1.3
			c-1.1,0.6-2.3,1.1-3.6,1.5c-0.2-0.5-0.5-1-0.7-1.5c2.6-0.8,4.6-1.7,6-2.9H103V1h13.2v7.4h-4.6c1.4,1.1,3.4,1.9,6,2.5
			c-0.3,0.6-0.5,1.1-0.7,1.7c-1.2-0.3-2.4-0.8-3.6-1.3v4.8C113.3,16.1,111.6,16.1,111.6,16.1z M104.8,2.5v1.7h3.9V2.5H104.8z
			 M104.8,5.4V7h3.9V5.4H104.8z M114.3,2.5h-3.9v1.7h3.9V2.5z M110.4,5.4V7h3.9V5.4H110.4z"/>
		<path class="st0" d="M120.2,8.2V6.8h16.1v1.3h-8.3v8h-1.5v-1.3c-1.1,0.1-2.4,0.2-4,0.4c-0.8,0.1-1.5,0.1-2,0.2l-0.2-1.3l1.4-0.1
			v-6C121.6,8.2,120.2,8.2,120.2,8.2z M122.2,6V1h11.9v5H122.2z M123.2,8.2v1.2h3.2V8.2H123.2z M123.2,10.4v1.1h3.2v-1.1H123.2z
			 M123.2,14c0.3,0,0.8,0,1.3-0.1c0.8,0,1.4-0.1,1.9-0.1v-1.1h-3.2V14z M124,2.1v0.9h8.4V2.1C132.4,2.1,124,2.1,124,2.1z M124,4v0.9
			h8.4V4C132.4,4,124,4,124,4z M135.6,16.1c-1.4-0.4-2.5-1-3.4-1.7c-0.6,0.4-1.6,1-3.1,1.8c-0.2-0.4-0.4-0.9-0.8-1.4
			c1.1-0.4,2-0.8,2.7-1.2c-0.8-0.8-1.4-1.8-1.9-3l0.5-0.3h-0.9V9.1h6.6v1.4c-0.5,1.2-1.2,2.2-1.9,3.1c0.8,0.4,1.8,0.8,2.9,1.1
			C136,15,135.8,15.5,135.6,16.1L135.6,16.1z M133.6,10.4h-3.1c0.5,0.9,1,1.7,1.6,2.3C132.7,12.1,133.2,11.3,133.6,10.4z"/>
		<path class="st0" d="M140.1,6.8V5.1l-0.4,0.3c-0.4-0.4-0.8-0.7-0.9-0.9c0.8-0.6,1.5-1.3,1.9-2.1l1.4,0.2L141.7,3h5.5
			c0,0.2-0.1,0.7-0.1,1.3c0,0.6-0.1,1.1-0.1,1.3c0,1.1-0.6,1.6-1.7,1.6h-1.2l-0.1-0.4L140.1,6.8L140.1,6.8z M140.7,16l-1.7-0.3
			c0.4-0.8,0.8-1.5,1.1-2.3l1.6,0.2C141.3,14.5,141,15.3,140.7,16L140.7,16z M139.2,2.1v-1h2.4V0.3h1.5v2.1h-1.5V2.1L139.2,2.1
			L139.2,2.1z M141.1,3.8c-0.1,0.2-0.3,0.4-0.5,0.6h3.9v1.7h0.4c0.5,0,0.8-0.2,0.7-0.7c0-0.3,0.1-0.8,0.1-1.6L141.1,3.8L141.1,3.8z
			 M141,13.4V7.6h12.1v0.9h-5v0.7h4.4V10h-4.4v0.7h4.4v0.8h-4.4v0.7h6c0,0.4,0,0.5,0,0.4c-0.1,0.9-0.2,1.5-0.2,1.8
			c0,1.2-0.8,1.8-2.2,1.8H149c-0.1-0.4-0.2-0.7-0.3-1.1h2.4c0.8,0,1.3-0.2,1.3-0.7c0.1-0.4,0.1-0.8,0.1-1.3h-9.8v0.4L141,13.4
			L141,13.4z M141.3,5.2V6h2.1V5.2H141.3z M142.6,8.5v0.7h3.8V8.5H142.6z M142.6,9.9v0.7h3.8V9.9H142.6z M142.6,11.4v0.7h3.8v-0.7
			H142.6z M143.2,15.7c0-0.2-0.1-0.6-0.3-1c-0.1-0.4-0.2-0.8-0.3-1l1.5-0.1c0.3,0.9,0.5,1.6,0.6,2L143.2,15.7L143.2,15.7z
			 M144.2,2.6V0.3h1.5V1h2.5v1h-2.5v0.6L144.2,2.6L144.2,2.6z M146.6,15.4c-0.2-0.6-0.4-1.1-0.8-1.7l1.5-0.3l0.4,0.8
			c0.3,0.4,0.4,0.7,0.5,0.9C148.2,15.1,146.6,15.4,146.6,15.4z M148.2,4.7l-0.8-1.1c1-0.9,1.8-2,2.3-3.3l1.5,0.2
			c0,0.1-0.1,0.2-0.2,0.4c0,0.1-0.2,0.4-0.3,0.7h4.2v1.1h-1c-0.3,1.1-0.8,1.9-1.5,2.6c0.9,0.3,1.8,0.6,2.6,0.8
			c-0.3,0.5-0.5,0.9-0.7,1.3c-1.5-0.4-2.5-0.9-3-1.3c-0.8,0.5-1.9,0.9-3.2,1.3c0,0,0-0.1-0.1-0.1c-0.3-0.5-0.5-0.8-0.7-1
			c1.2-0.3,2.1-0.6,2.9-0.9c-0.4-0.4-0.8-0.9-1.1-1.5C148.8,4.1,148.5,4.4,148.2,4.7L148.2,4.7z M149.8,14.7
			c-0.2-0.4-0.5-0.8-0.8-1.3l1.3-0.3c0.3,0.4,0.5,0.8,0.8,1.2C151.2,14.4,149.8,14.7,149.8,14.7z M149.9,2.6
			c0.3,0.8,0.7,1.4,1.3,1.9c0.5-0.4,0.9-1.1,1.2-1.9H149.9L149.9,2.6z"/>
		<path class="st0" d="M172.1,15.9c-3.8-2-6-4.9-6.6-8.6c-0.7,3.7-2.9,6.7-6.8,8.8c-0.4-0.6-0.8-1.1-1.3-1.7c4.2-2.2,6.5-5.5,6.8-10
			c0.1-1.1,0.1-2.4,0.1-4h2c0,0.1-0.1,0.5-0.1,1.2c0,0.5-0.1,0.9-0.1,1.2c0.4,5.8,2.8,9.5,7.2,11.4
			C172.8,14.8,172.4,15.4,172.1,15.9L172.1,15.9z"/>
		<path class="st0" d="M176.6,15.9v-13h1.8c0.1-0.5,0.3-1.1,0.5-2c0-0.3,0.1-0.5,0.1-0.6l1.9,0.3c-0.2,0.8-0.4,1.6-0.7,2.3h2.9v12.9
			h-1.7v-1.2h-3.1v1.3L176.6,15.9L176.6,15.9z M178.4,4.6V8h3.1V4.6H178.4z M178.4,9.7v3.4h3.1V9.7H178.4z M185.6,15.9
			c-0.1-0.7-0.2-1.2-0.3-1.7h1.2c0.6,0,1,0.1,1.3,0.1c1.2,0,1.8-0.6,1.8-1.7c0-0.7,0.1-2.2,0.1-4.5c0-1.6,0.1-2.8,0.1-3.4h-3.6
			c-0.4,0.9-0.8,1.7-1.2,2.5c-0.1,0-0.2-0.1-0.4-0.3c-0.2-0.1-0.6-0.3-1.1-0.6c1-1.9,1.8-3.8,2.4-5.8l1.8,0.4c0,0.2-0.1,0.4-0.3,0.7
			c-0.2,0.6-0.4,1.1-0.5,1.5h4.8c-0.1,4.8-0.2,8.1-0.3,10c0,2-0.9,3-2.9,2.9C187.6,15.8,186.6,15.9,185.6,15.9L185.6,15.9z
			 M187,11.4c-0.8-1.1-1.6-2.3-2.5-3.5l1.4-0.9c0.8,0.9,1.7,2.1,2.6,3.4L187,11.4L187,11.4z"/>
		<path class="st0" d="M195,6.4V4.6h6.7c0-1,0.1-2.4,0.1-4.2h2l-0.1,4.2h6.7v1.8h-6.6c0.6,3.8,2.9,6.4,7,7.9c-0.4,0.4-0.9,1-1.3,1.7
			c-3.7-1.6-5.9-3.9-6.7-7c-0.7,3-2.9,5.4-6.7,7.2c-0.1-0.2-0.4-0.5-0.7-1c-0.3-0.3-0.4-0.5-0.5-0.7c4.2-1.8,6.5-4.5,6.8-8.1
			L195,6.4L195,6.4z"/>
		<path class="st0" d="M214.9,16.2V2.3h4.3c0.2-0.8,0.4-1.4,0.5-2.1l2.1,0.2c-0.2,0.5-0.4,1.1-0.6,1.9h6.6v13.9H226v-1.1h-9.3v1.1
			H214.9L214.9,16.2z M216.7,3.9v2.3h9.3V3.9L216.7,3.9L216.7,3.9z M216.7,7.7V10h9.3V7.7H216.7z M216.7,11.4v2.3h9.3v-2.3H216.7z"
			/>
		<path class="st0" d="M232.7,7.5c0-0.2-0.2-0.5-0.3-0.9c-0.1-0.4-0.2-0.7-0.3-0.8c1.5-1.5,2.6-3.4,3.3-5.6l1.7,0.3l-0.7,1.5h3.8
			v1.6c-0.9,3.8-3.2,6.7-6.7,8.8c-0.1-0.2-0.4-0.4-0.7-0.8c-0.2-0.3-0.4-0.4-0.5-0.5c1.3-0.7,2.4-1.4,3.2-2.2
			c-0.3-0.2-0.6-0.5-1.1-0.9c-0.4-0.3-0.6-0.5-0.8-0.6l0.9-1.1c0.6,0.4,1.3,0.8,2.1,1.3c0,0,0.1-0.1,0.1-0.1
			c0.1-0.2,0.3-0.4,0.5-0.8c-0.7-0.5-1.4-0.9-2.1-1.4l0.9-1.1c0.2,0.1,0.4,0.2,0.7,0.5c0.5,0.3,0.9,0.5,1.2,0.7
			c0.3-0.6,0.5-1.2,0.7-1.9h-2.9C234.9,4.8,234,6.1,232.7,7.5L232.7,7.5z M233.9,16.1l-1.7-0.5c0.4-0.7,0.9-1.8,1.7-3.3l1.6,0.5
			C235.2,13.6,234.7,14.7,233.9,16.1z M237.7,15.8c-0.1-0.4-0.4-1.1-0.7-2.1c-0.1-0.4-0.2-0.6-0.3-0.9l1.7-0.2
			c0,0.1,0.1,0.4,0.3,0.7c0.4,0.9,0.6,1.6,0.8,2.3L237.7,15.8L237.7,15.8z M240.1,5.8V4.3h1.9c0.1-1.4,0.1-2.7,0.1-4h1.7
			c0,0.4-0.1,1.1-0.1,2c0,0.9-0.1,1.5-0.1,2h4v1.5H244c0.5,2,1.8,3.5,4.1,4.5c-0.4,0.5-0.8,1-1.1,1.5c-2.1-1.2-3.4-2.8-4-4.6
			c-0.4,1.9-1.7,3.5-3.9,4.8c-0.2-0.3-0.5-0.6-0.9-1.1c-0.1-0.1-0.2-0.2-0.2-0.3c2.3-1.3,3.6-2.9,3.9-4.8L240.1,5.8L240.1,5.8z
			 M241.8,15.7c0-0.1-0.1-0.2-0.1-0.4c-0.4-1-0.8-1.8-1.1-2.5l1.7-0.3c0.2,0.4,0.4,0.8,0.7,1.5c0.3,0.6,0.5,1,0.6,1.4
			C243.5,15.3,241.8,15.7,241.8,15.7z M246,3.8c-0.2-0.2-0.4-0.5-0.8-0.9c-0.4-0.5-0.7-0.9-0.9-1.1l1.2-0.7c0.7,0.7,1.3,1.3,1.8,1.9
			L246,3.8z M246.2,15.8c-0.5-1-1.1-2.1-1.7-3.2L246,12c0.7,1.2,1.3,2.3,1.9,3.2L246.2,15.8L246.2,15.8z"/>
		<path class="st0" d="M250.7,5.6l-0.4-1.5h1c1.1-1.7,2-3,2.6-4.1l1.7,0.7c-0.7,1-1.5,2.1-2.5,3.3c1.1-0.1,2.3-0.2,3.3-0.2l-1.1-1.3
			l1.2-0.7c1.1,1.3,2.1,2.4,2.9,3.5l-1.3,0.9c-0.1-0.1-0.2-0.3-0.3-0.5c-0.2-0.2-0.3-0.4-0.4-0.5c-0.9,0-2.2,0.1-3.9,0.3
			C252.2,5.5,251.3,5.5,250.7,5.6L250.7,5.6z M251.4,16.1V6.6h6.8v7.6c0,1.1-0.5,1.7-1.7,1.7h-0.8c-0.5,0-0.8,0.1-1.1,0.1
			c0-0.3-0.1-0.6-0.2-1c0-0.2-0.1-0.4-0.1-0.5h1.5c0.5,0,0.8-0.2,0.8-0.5v-1h-3.8v3H251.4L251.4,16.1z M252.9,8v1.3h3.8V8H252.9
			L252.9,8z M252.9,10.5v1.3h3.8v-1.3H252.9L252.9,10.5z M261.8,7.7c-1.5,0-2.2-0.7-2.1-2.1V0.4h1.7v2.5c1.2-0.4,2.5-1.1,4-1.9
			l0.9,1.3c-1.6,0.8-3.2,1.5-4.9,2.2v0.9c0,0.7,0.3,1,1,0.9h1.3c0.7,0,1-0.3,1.1-0.8c0-0.4,0.1-0.5,0.1-0.4c0-0.5,0.1-0.9,0.1-1.3
			c0.3,0,0.6,0.1,1,0.3c0.2,0.1,0.4,0.2,0.5,0.2c0,0.5-0.1,1.1-0.3,1.7c0,0,0,0-0.1,0.2c-0.2,1-0.9,1.5-2.2,1.5L261.8,7.7L261.8,7.7
			z M261.8,15.9c-1.4,0-2.1-0.6-2.1-2.1V8.5h1.7v2.1c1.3-0.4,2.7-1.1,4.1-1.9l0.9,1.4c-2,0.9-3.6,1.7-5,2.2v1.2c0,0.6,0.3,0.9,1,0.9
			h1.4c0.7,0,1-0.2,1.1-0.7c0.1-0.5,0.2-1.1,0.2-1.8c0.2,0,0.4,0.1,0.7,0.3c0.4,0.1,0.6,0.2,0.8,0.3c0,0.5-0.1,1.1-0.2,1.7l-0.1,0.1
			c-0.3,1.1-1,1.6-2.2,1.6C264.1,15.9,261.8,15.9,261.8,15.9z"/>
		<path class="st0" d="M270.9,12.2V7.6h12.6v4.6h-5.5V13h6v0.9h-6v0.7h7.2v1.1h-16.1v-1.1h7.2V14h-6V13h6v-0.8H270.9L270.9,12.2z
			 M269.3,6.9v-1h15.9v1H269.3z M270.8,5.2V0.9h12.8v4.2C283.6,5.2,270.8,5.2,270.8,5.2z M272.5,1.9v0.8h9.4V1.9H272.5z M272.5,3.5
			v0.8h9.4V3.5C281.9,3.5,272.5,3.5,272.5,3.5z M272.6,8.6v0.9h3.8V8.6H272.6z M272.6,10.4v0.9h3.8v-0.9H272.6z M281.9,8.6h-3.8v0.9
			h3.8V8.6z M278.1,10.4v0.9h3.8v-0.9H278.1z"/>
		<path class="st0" d="M288,6.2V4.6h1.5V0.3h1.6v4.2h1.5v1.7h-1.5v6.2c0.5-0.1,1.1-0.3,1.7-0.4c0,0.6,0,1.2,0.1,1.7
			c-2.1,0.4-3.7,0.8-4.8,1.1l-0.3-1.6c0.5-0.1,1.1-0.2,1.7-0.3V6.2H288L288,6.2z M292.6,8.9V7.6h11.3v1.3h-7.6
			c-0.2,0.4-0.5,0.8-0.7,1.1h7.7c0,1.2,0,2.5-0.1,3.9s-0.8,2.1-2.1,2.1h-1.8c-0.1-0.7-0.2-1.1-0.3-1.5c0.3,0,0.9,0.1,1.7,0.1
			c0.6,0,1-0.3,1-0.8c0.1-0.7,0.1-1.5,0.1-2.5h-1.1c-0.6,2-2,3.7-4.1,5c-0.3-0.3-0.6-0.6-1.1-1c1.9-1.1,3.1-2.4,3.6-4h-1.5
			c-0.8,1.7-2.3,3.1-4.6,4.2c-0.4-0.5-0.7-0.9-0.9-1.1c1.9-0.8,3.2-1.8,4-3.1h-1.7c0,0-0.1,0.1-0.2,0.1c-0.3,0.3-0.6,0.6-1.1,0.9
			c-0.4-0.4-0.7-0.8-1-1.1c1-0.5,1.9-1.3,2.6-2.3L292.6,8.9L292.6,8.9z M293.9,6.7V1h8.8v5.7C302.7,6.7,293.9,6.7,293.9,6.7z
			 M295.5,2.2v1.1h5.6V2.2H295.5z M295.5,4.4v1.1h5.6V4.4H295.5z"/>
		<path class="st0" d="M306,7.8h17.1v1.3H306V7.8z"/>
		<path class="st0" d="M325.2,3.5V1.9h7V0.3h1.8v1.6h7v1.5h-7v1.5h6.3V14c0,1.3-0.7,1.9-2,2c-0.5,0-1.4,0.1-2.7,0.1
			c0-0.1-0.1-0.3-0.1-0.6c-0.1-0.5-0.2-0.8-0.3-1.1h2.1c0.9,0,1.3-0.3,1.2-0.9V6.4h-10.8v9.7H326V4.9h6.2V3.4
			C332.2,3.4,325.2,3.4,325.2,3.5z M328.8,10.1V8.8h2c0,0-0.1-0.1-0.2-0.3c-0.5-0.8-0.8-1.3-0.9-1.4l1.6-0.3
			c0.1,0.1,0.4,0.5,0.9,1.2c0.2,0.3,0.3,0.5,0.3,0.5l-0.7,0.3h1.7c0.2-0.3,0.5-0.8,0.9-1.5c0.2-0.3,0.4-0.5,0.4-0.6l1.6,0.3
			c0,0-0.1,0.1-0.1,0.2c-0.4,0.7-0.7,1.2-0.9,1.5h2v1.3H334v1.4h3.9v1.4H334v2.9h-1.7v-2.9h-3.8v-1.4h3.8v-1.4L328.8,10.1
			L328.8,10.1z"/>
		<path class="st0" d="M345.8,8.4c-0.6-0.8-1.3-1.8-2.1-2.7l1.5-0.8c0.8,0.8,1.5,1.6,2.2,2.5L345.8,8.4z M347.7,11.6
			c0-0.2-0.1-0.4-0.3-0.7c-0.1-0.3-0.2-0.5-0.3-0.7l-1.3,5.8l-1.7-0.5c0.5-1.7,1-3.7,1.5-6c0.2,0,0.4,0.1,0.7,0.2
			c0.4,0.1,0.6,0.2,0.7,0.3V10c1.5-0.8,2.7-1.9,3.6-3.3h-3V5.3h2.7V3.5h-2.1V2.1h2.1V0.3h1.7v1.7h3V0.3h1.7v1.7h2.4v1.4h-2.4v1.9h3
			v1.4h-3.2c0.8,1.3,2,2.3,3.5,3l-0.8,1.5c-1-0.6-1.8-1.2-2.5-1.9v3.3h-5.8v0.7c0,0.7,0.3,1,1.1,0.9h4.1c0.8,0,1.2-0.2,1.3-0.8
			c0-0.2,0.1-0.5,0.2-1c0-0.3,0.1-0.5,0.1-0.6c0.5,0.2,1,0.4,1.5,0.5c-0.1,0.7-0.2,1.3-0.4,1.8c-0.3,1-1.1,1.5-2.4,1.5h-5
			c-1.3,0-2-0.7-2.1-1.9v-3.4C348.7,10.8,348.2,11.2,347.7,11.6L347.7,11.6z M346.3,4.1c-0.3-0.4-0.8-1.1-1.5-1.9
			c-0.3-0.4-0.5-0.7-0.7-0.9l1.5-0.8l2.1,2.5C347.8,3.1,346.3,4.1,346.3,4.1z M350.8,9.8v1.7h4.2V9.8H350.8z M352.3,6.7
			c-0.4,0.6-0.8,1.2-1.3,1.7h4.7c-0.3-0.3-0.6-0.8-1.1-1.5c0-0.1-0.1-0.2-0.1-0.2L352.3,6.7L352.3,6.7z M351.9,3.5v1.9h3V3.5H351.9z
			"/>
		<path class="st0" d="M363.4,9.6c-0.1-0.2-0.4-0.6-0.8-1.1c-0.2-0.2-0.3-0.4-0.4-0.5c2.1-1.6,3.5-3.3,4.4-5.3l1.7,0.7
			C367,5.9,365.4,7.9,363.4,9.6L363.4,9.6z M363.7,15.5l-0.5-1.6c0.2,0,0.4,0,0.8-0.1h0.7c1.7-2.4,3.2-4.8,4.5-7.4l1.9,0.9
			c-1.2,2-2.6,4.1-4.2,6.4l6.8-0.4c-0.3-0.4-0.8-0.9-1.3-1.7c-0.4-0.6-0.7-1-0.9-1.3l1.4-0.9c0.8,1,2,2.5,3.7,4.6
			c0.4,0.5,0.8,0.9,1,1.1l-1.6,1.1l-1.1-1.5c-1.7,0.1-4.3,0.3-7.8,0.5C365.6,15.4,364.5,15.4,363.7,15.5L363.7,15.5z M377.4,9
			c-2.6-1.7-4.5-3.9-5.5-6.6h-4.1V0.9h5.5c1.1,2.8,2.9,4.8,5.3,6.3c0,0-0.1,0.1-0.2,0.3C378,8.2,377.7,8.7,377.4,9L377.4,9z"/>
		<path class="st0" d="M381.7,16.2V1h14.6v15.2h-1.7v-0.7h-11.3v0.7L381.7,16.2L381.7,16.2z M383.4,2.3v12h11.3v-12
			C394.7,2.3,383.4,2.3,383.4,2.3z M385,9.9V7h8v2.8c0,0,0.1,0,0.1-0.1h0.1l0.9,0.8c-0.5,0.4-1,0.7-1.5,1.1l1.7,0.9l-0.7,1
			c-1.1-0.6-2.4-1.3-4-2.1l0.7-0.9l1.3,0.6c0.3-0.2,0.8-0.6,1.3-1.1c0.1,0,0.2-0.1,0.2-0.1h-3.5c-0.2,0.3-0.4,0.5-0.7,0.6v2.2h0.2
			c0.5,0,1.1-0.1,1.8-0.3c0,0.3-0.1,0.6-0.1,1c-2.2,0.2-3.8,0.4-4.8,0.6l-0.2-1c0.5-0.1,1.1-0.1,1.6-0.2v-1.3c-0.9,0.5-1.9,1-3,1.5
			c0,0-0.1-0.1-0.2-0.3c-0.2-0.4-0.4-0.7-0.5-0.9c1.6-0.5,3-1.1,4.1-1.9L385,9.9L385,9.9z M384.8,4.4v-1h3.5V2.4h1.5v1.1h3.5v1h-3.5
			v0.9h4.2v1h-10v-1h4.2V4.4H384.8z M386.5,8v1h5V8C391.6,8,386.5,8,386.5,8z"/>
		<path class="st0" d="M400,9.8c0-0.4-0.2-0.9-0.3-1.7c0-0.3-0.1-0.5-0.1-0.7c1.1-1.9,2.1-4.3,2.9-7.2l1.7,0.3
			c-0.3,1.2-0.7,2.4-1.1,3.5v12.1h-1.6V7.6c-0.2,0.3-0.4,0.8-0.8,1.4C400.4,9.3,400.2,9.6,400,9.8L400,9.8z M404.2,2.9V1.6h1.9V0.3
			h1.7v1.3h3.9V0.3h1.7v1.3h2.3v1.3h-2.3v2.1h-2.8v0.9h4.4v3.5h-4.4v1h4.4v1.1h-4.4v1h4v1h-4v0.9h5.2v1.3h-12v-1.3h5.1v-0.9h-4v-1h4
			v-1h-4.4v-1.1h4.4v-1h-4.4V5.8h4.4V4.9h-2.8V2.9L404.2,2.9L404.2,2.9z M406.1,7v1.2h2.8V7C408.9,7,406.1,7,406.1,7z M407.7,2.9
			v1.1h3.9V2.9H407.7z M413.3,7h-2.8v1.2h2.8C413.3,8.2,413.3,7,413.3,7z"/>
		<path class="st0" d="M426.6,10.5h1.8V12h-1.8v3.1h-1.9V12h-6.6v-1.3l6.6-9.4h1.9V10.5z M420.1,10.5h4.6v-6c0-0.5,0.1-0.8,0.1-0.9
			v0.1c0,0,0,0.1-0.1,0.2c0,0.1-0.1,0.2-0.1,0.3c0,0,0,0.1-0.1,0.2c-0.1,0.2-0.2,0.4-0.3,0.5c0,0.1-0.2,0.2-0.3,0.5
			c-0.5,0.8-1,1.4-1.3,1.9c0,0.1-0.1,0.2-0.3,0.3c-0.1,0.2-0.2,0.3-0.3,0.4c-0.4,0.5-0.9,1.2-1.5,2.1
			C420.2,10.3,420.1,10.4,420.1,10.5L420.1,10.5z"/>
		<path class="st0" d="M436.6,1.3c3.2,0,4.8,2.4,4.9,7c0,4.7-1.6,7-4.9,7c-3.2,0-4.9-2.4-4.9-7C431.8,3.7,433.4,1.4,436.6,1.3z
			 M436.6,13.8c1.8,0,2.7-1.8,2.7-5.4c0-3.8-0.9-5.6-2.7-5.5c-1.8,0-2.7,1.8-2.7,5.5S434.8,13.9,436.6,13.8z"/>
		<path class="st0" d="M449.6,1.3c3.2,0,4.8,2.4,4.9,7c0,4.7-1.6,7-4.9,7c-3.2,0-4.9-2.4-4.9-7C444.8,3.7,446.4,1.4,449.6,1.3z
			 M449.6,13.8c1.8,0,2.7-1.8,2.7-5.4c0-3.8-0.9-5.6-2.7-5.5c-1.8,0-2.7,1.8-2.7,5.5S447.8,13.9,449.6,13.8z"/>
		<path class="st0" d="M458.4,9.6c-0.1-0.2-0.4-0.6-0.8-1.1c-0.2-0.2-0.3-0.4-0.4-0.5c2.1-1.6,3.5-3.3,4.4-5.3l1.7,0.7
			C462.1,5.9,460.5,7.9,458.4,9.6L458.4,9.6z M458.8,15.5l-0.5-1.6c0.2,0,0.4,0,0.8-0.1h0.7c1.7-2.4,3.2-4.8,4.5-7.4l1.9,0.9
			c-1.2,2-2.6,4.1-4.2,6.4l6.8-0.4c-0.3-0.4-0.8-0.9-1.3-1.7c-0.4-0.6-0.7-1-0.9-1.3l1.4-0.9c0.8,1,2,2.5,3.7,4.6
			c0.4,0.5,0.8,0.9,1,1.1l-1.6,1.1l-1.1-1.5c-1.7,0.1-4.3,0.3-7.8,0.5C460.6,15.4,459.5,15.4,458.8,15.5L458.8,15.5z M472.5,9
			c-2.6-1.7-4.5-3.9-5.5-6.6h-4.1V0.9h5.5c1.1,2.8,2.9,4.8,5.3,6.3c0,0-0.1,0.1-0.2,0.3C473,8.2,472.7,8.7,472.5,9L472.5,9z"/>
		<path class="st0" d="M490.9,15.8c-4.2-1.2-6.9-3.7-7.9-7.6h-2.9c0,3.4-0.9,6.1-2.7,8l-1.4-1.4c1.6-1.6,2.3-4.2,2.2-7.6V1.3h12.1V9
			h-1.8V8.2h-3.6c0.9,3,3.3,5,7,6c-0.2,0.1-0.4,0.5-0.8,1.1C491,15.6,490.9,15.7,490.9,15.8L490.9,15.8z M480.1,3.1v3.4h8.4V3
			C488.5,3,480.1,3,480.1,3.1z"/>
		<path class="st0" d="M1.3,41.9c-0.4-0.5-0.9-1-1.3-1.5c1.7-1.2,3.4-2.5,5.1-4.2l1.5,1.2C4.8,39.2,3.1,40.7,1.3,41.9L1.3,41.9z
			 M1.9,35.6V27h12.4v8.6H1.9z M3.7,28.7V34h8.7v-5.2H3.7z M14.5,41.9c-0.8-0.8-2.1-1.8-3.8-3.2c-0.6-0.5-1.1-0.9-1.4-1.2l1.4-1.3
			c2,1.6,3.8,3,5.3,4.2L14.5,41.9L14.5,41.9z"/>
		<path class="st0" d="M19.1,28.1v-1.4h15.1v1.4h-4.7v1.4h4V34h-8.7l1.5,0.1c-0.1,0.1-0.2,0.3-0.3,0.5c-0.2,0.3-0.4,0.5-0.5,0.7h9.2
			v1.4h-3.2c-0.6,1-1.3,1.8-2.1,2.5c1.5,0.4,3.1,0.8,4.6,1.1l-0.7,1.5c-1.5-0.5-3.3-1.1-5.5-1.7c-1.8,0.9-4.5,1.5-8.1,1.9
			c0-0.1-0.1-0.2-0.1-0.4c-0.2-0.5-0.3-0.9-0.4-1.2c2.6-0.2,4.7-0.5,6.2-0.9l-2.5-0.7l-0.5,0.6l-1.6-0.6c0.2-0.2,0.4-0.5,0.8-0.9
			c0.4-0.5,0.8-0.9,1-1.2h-3.9v-1.4h4.9c0.1-0.2,0.3-0.4,0.5-0.7c0.2-0.3,0.4-0.5,0.5-0.7h-4.7v-4.5h4v-1.4L19.1,28.1L19.1,28.1z
			 M21.4,30.9v1.7h2.5v-1.7H21.4z M27.4,38.7c0.8-0.5,1.5-1.2,2.1-1.9h-5.1l-0.7,0.9C23.8,37.7,27.4,38.7,27.4,38.7z M25.5,28.1v1.4
			h2.4v-1.4H25.5z M25.5,30.9v1.7h2.4v-1.7H25.5z M32,30.9h-2.5v1.7H32V30.9z"/>
		<path class="st0" d="M37.6,29.8v-1.5h2.5v-2.3h1.6v2.3h2.1v1.5h-2.1v1.5l0.5-0.5c0.3,0.2,0.3,0.3,0.3,0.2c0.7,0.6,1.3,1,1.7,1.4
			L43,33.6l-1.4-1.3V36h-1.6v-3.9c-0.5,1.1-1.3,2.2-2.3,3.2c0-0.1-0.1-0.3-0.1-0.5c-0.1-0.6-0.2-1.1-0.3-1.3
			c1.1-1.1,1.9-2.3,2.5-3.6L37.6,29.8L37.6,29.8z M38.8,40.9c-0.5-0.3-1-0.5-1.5-0.7c0.4-0.7,0.9-1.8,1.5-3.5l1.6,0.5
			C40,38.5,39.4,39.8,38.8,40.9z M43.6,41.5c-1.5,0-2.3-0.7-2.3-2.1v-2.7H43v2.2c0,0.8,0.4,1.1,1.3,1.1h2.4c0.8,0,1.3-0.3,1.4-0.9
			c0-0.2,0.1-0.5,0.1-1c0,0.1,0,0,0.1-0.3c0.2,0,0.4,0.1,0.8,0.3c0.4,0.2,0.7,0.3,0.9,0.3c-0.1,0.7-0.3,1.3-0.4,1.7
			c-0.3,1-1.1,1.5-2.5,1.5H43.6z M45.9,39c-0.7-0.8-1.3-1.5-1.9-2.2l1.2-0.9c0.2,0.2,0.5,0.5,0.9,1c0.4,0.4,0.8,0.8,1.1,1.1
			C47.2,38,45.9,39,45.9,39z M44.4,35.7v-9h7.8v9H44.4z M46.2,28v1.4h4.4V28H46.2z M46.2,30.5v1.3h4.4v-1.3H46.2z M46.2,33v1.4h4.4
			V33H46.2z M51.9,40.5c-0.1-0.2-0.3-0.5-0.7-1c-0.5-0.9-1-1.6-1.3-2.1l1.5-0.7c0.8,1.1,1.4,2.1,2.1,3.2L51.9,40.5z"/>
		<path class="st0" d="M58.5,32.8c-0.9-0.8-1.8-1.6-2.7-2.3l1.1-1.2c1.2,0.9,2.2,1.6,2.8,2.3L58.5,32.8z M56.6,41.8L55.8,40
			c0.7-0.6,1.3-1.2,1.9-1.7v-3.5H56v-1.5h3.4v5c0.8,1.1,2,1.7,3.8,1.7c2.8,0,5.7,0,8.9,0c0,0.1-0.1,0.3-0.2,0.5
			c-0.2,0.4-0.3,0.7-0.3,1h-5.2c-1.3,0-2.5,0-3.5-0.1c-1.9,0-3.3-0.6-4.2-1.7C57.6,40.6,57,41.3,56.6,41.8L56.6,41.8z M59,29.5
			c-0.9-0.8-1.9-1.6-2.8-2.3l1.1-1.1c0.5,0.4,1.2,0.9,2.1,1.6c0.3,0.3,0.6,0.5,0.8,0.6C60.2,28.2,59,29.5,59,29.5z M60.5,29.4v-2.7
			h10.8v2.7h-1.2v0.9h-3.4v1h4v5h-4v1.1h4.8v1.2h-4.8V40h-1.7v-1.4h-4.8v-1.2h4.8v-1.1h-4v-5h4v-1h-3.4v-0.9H60.5L60.5,29.4z
			 M62.1,28v1.1h3V28C65.1,28,62.1,28,62.1,28z M62.7,32.3v1.1h2.3v-1.1C65.1,32.3,62.7,32.3,62.7,32.3z M62.7,34.3v1.1h2.3v-1.1
			C65.1,34.3,62.7,34.3,62.7,34.3z M69.7,28h-3v1.1h3V28z M69.1,32.3h-2.4v1.1h2.4V32.3z M66.7,34.3v1.1h2.4v-1.1H66.7z"/>
		<path class="st0" d="M75.3,28.2c0-0.1,0-0.2-0.1-0.5C75.1,27.4,75,27.2,75,27c2.4,0,5.1-0.1,8-0.3l0.3,1.2c-0.3,0-0.7,0-1.3,0.1
			c-0.9,0.1-1.6,0.1-2.1,0.1v1.1h3.6v1.3H80v0.9h3.3v5.4H80v1.1h3.3V39H80V40c0.4,0,1,0,1.7-0.1c0.8,0,1.4,0,1.7-0.1v0.4
			c1.2-1.5,1.9-4.1,1.9-8v-1.4h-1.2v-1.6h1.3v-3.2h1.6l-0.1,3.2H90c0,4.2-0.1,7.5-0.2,10c0,1.5-0.6,2.3-1.9,2.3
			c-0.3,0-0.9,0.1-1.7,0.1c0-0.2-0.1-0.4-0.1-0.8c-0.1-0.4-0.2-0.7-0.2-0.8h1.4c0.7,0,1.1-0.4,1.1-1.2v-0.5c0.1-3.4,0.2-5.9,0.2-7.4
			h-1.7v1.3c0,4.5-0.9,7.8-2.5,9.9c-0.3-0.3-0.6-0.7-1-0.9c-2.7,0-5.6,0.2-8.6,0.4l-0.1-1.4l4-0.1v-1.1H75v-1.1h3.5v-1.1h-3.3v-5.4
			h3.3v-0.9h-3.9v-1.3h3.9v-1.1c-0.3,0-0.9,0.1-1.7,0.1C76.2,28.2,75.6,28.3,75.3,28.2L75.3,28.2z M76.6,32.5v1.1h1.9v-1.1H76.6z
			 M76.6,34.6v1.1h1.9v-1.1H76.6z M81.9,32.5H80v1.1h1.9V32.5z M80,34.6v1.1h1.9v-1.1H80z"/>
		<path class="st0" d="M103.7,35.3l-1.4,1.3l-3.6-4l1.3-1.1C99.9,31.5,103.7,35.4,103.7,35.3z"/>
		<path class="st0" d="M112.1,29.8v-1.5h2.5v-2.3h1.6v2.3h2.1v1.5h-2.1v1.5l0.5-0.5c0.3,0.2,0.3,0.3,0.3,0.2c0.7,0.6,1.3,1,1.7,1.4
			l-1.1,1.1l-1.4-1.3V36h-1.6v-3.9c-0.5,1.1-1.3,2.2-2.3,3.2c0-0.1-0.1-0.3-0.1-0.5c-0.1-0.6-0.2-1.1-0.3-1.3
			c1.1-1.1,1.9-2.3,2.5-3.6L112.1,29.8L112.1,29.8z M113.3,40.9c-0.5-0.3-1-0.5-1.5-0.7c0.4-0.7,0.9-1.8,1.5-3.5l1.6,0.5
			C114.5,38.5,113.9,39.8,113.3,40.9z M118.1,41.5c-1.6,0-2.3-0.7-2.3-2.1v-2.7h1.7v2.2c0,0.8,0.4,1.1,1.3,1.1h2.4
			c0.8,0,1.3-0.3,1.4-0.9c0-0.2,0.1-0.5,0.1-1c0,0.1,0,0,0.1-0.3c0.2,0,0.4,0.1,0.8,0.3c0.4,0.2,0.7,0.3,0.9,0.3
			c-0.1,0.7-0.3,1.3-0.4,1.7c-0.3,1-1.1,1.5-2.5,1.5C121.6,41.5,118.1,41.5,118.1,41.5z M120.4,39c-0.7-0.8-1.3-1.5-1.9-2.2l1.2-0.9
			c0.2,0.2,0.5,0.5,0.9,1c0.4,0.4,0.8,0.8,1.1,1.1C121.7,38,120.4,39,120.4,39z M119,35.7v-9h7.8v9H119z M120.7,28v1.4h4.4V28H120.7
			z M120.7,30.5v1.3h4.4v-1.3H120.7z M120.7,33v1.4h4.4V33H120.7z M126.4,40.5c-0.1-0.2-0.4-0.5-0.7-1c-0.5-0.9-1-1.6-1.3-2.1
			l1.5-0.7c0.8,1.1,1.4,2.1,2.1,3.2C127.9,39.8,126.4,40.5,126.4,40.5z"/>
		<path class="st0" d="M145.4,41.9c-1.6-1.1-2.7-2-3.4-2.7c-1.1,1.1-2.4,2-3.8,2.9c-0.4-0.5-0.7-1.1-1.1-1.7
			c1.6-0.8,2.8-1.7,3.8-2.7c-0.8-1.3-1.4-2.9-1.7-4.7c0,0.1-0.1,0.2-0.2,0.3c-0.1,0.2-0.4,0.5-0.7,0.9c-0.3-0.5-0.6-0.9-0.9-1.3
			c0,1.1,0,2.7-0.1,4.8c0,0.7-0.1,1.2-0.1,1.5c0,1.4-0.7,2.1-2.1,2.1c-0.4,0-0.9,0.1-1.7,0.1c0-0.2-0.1-0.6-0.3-1.2
			c0-0.2-0.1-0.3-0.1-0.4c0.4,0,0.8,0.1,1.3,0.1c0.8,0,1.2-0.3,1.1-1.1c0.1-1.5,0.2-3,0.2-4.6h-2.1c-0.1,3.5-0.8,6-2.2,7.7
			c-0.1-0.1-0.2-0.2-0.4-0.3c-0.4-0.4-0.7-0.8-0.9-0.9c1.2-1.6,1.8-4,1.9-7.3c0-0.3,0-0.9,0.1-1.6v-1.5h-1.7v-1.6h3.1v-2.7h1.7v2.7
			h2.9v1.6h-4.3l-0.1,2.3h3.6c1.3-1.9,2.2-4.1,2.9-6.6l1.8,0.3c-0.2,0.8-0.5,1.6-0.9,2.5h5.2v1.7h-1.1c-0.3,3.2-1,5.6-2.2,7.3
			c0.8,1,2,1.8,3.4,2.4c-0.2,0.3-0.5,0.8-0.9,1.5C145.5,41.7,145.5,41.8,145.4,41.9L145.4,41.9z M142,36.2c0.8-1.3,1.3-3.2,1.6-5.8
			h-3.1l-0.1,0.3C140.7,33,141.2,34.8,142,36.2L142,36.2z"/>
		<path class="st0" d="M151.4,36.2v-1.6h11.4v1.6H158v3.5h6.6v1.5h-15.1v-1.5h6.6v-3.5H151.4L151.4,36.2z M151.8,33.9
			c-0.3-0.5-0.6-1-0.9-1.3c2.1-0.5,3.2-1.5,3.2-3h-2.7v1.7h-1.8v-3.4h6.6v-1.8h1.8v1.8h6.6v3.4h-1.1c-0.1,1.3-0.7,2-1.8,2h-2.3
			c-0.9,0-1.4-0.5-1.4-1.5v-2.3h-2.5C155.6,31.7,154.3,33.1,151.8,33.9L151.8,33.9z M162.8,29.6h-3.2v1.9c0,0.4,0.2,0.5,0.5,0.5h1.1
			c0.4,0,0.7-0.4,0.7-1.2c0.2,0.1,0.5,0.2,0.9,0.3L162.8,29.6L162.8,29.6z"/>
		<path class="st0" d="M178.2,35.3l-1.4,1.3l-3.6-4l1.3-1.1C174.5,31.5,178.2,35.4,178.2,35.3z"/>
		<path class="st0" d="M186.6,29.8v-1.5h2.5v-2.3h1.6v2.3h2.1v1.5h-2.1v1.5l0.5-0.5c0.3,0.2,0.4,0.3,0.3,0.2c0.7,0.6,1.3,1,1.7,1.4
			l-1.1,1.1l-1.4-1.3V36h-1.6v-3.9c-0.5,1.1-1.3,2.2-2.3,3.2c0-0.1-0.1-0.3-0.1-0.5c-0.1-0.6-0.2-1.1-0.3-1.3
			c1.1-1.1,1.9-2.3,2.5-3.6L186.6,29.8L186.6,29.8z M187.8,40.9c-0.5-0.3-1-0.5-1.5-0.7c0.4-0.7,0.9-1.8,1.5-3.5l1.6,0.5
			C189,38.5,188.5,39.8,187.8,40.9z M192.6,41.5c-1.6,0-2.3-0.7-2.3-2.1v-2.7h1.7v2.2c0,0.8,0.4,1.1,1.3,1.1h2.4
			c0.8,0,1.3-0.3,1.4-0.9c0-0.2,0.1-0.5,0.1-1c0,0.1,0,0,0.1-0.3c0.2,0,0.4,0.1,0.8,0.3c0.4,0.2,0.7,0.3,0.9,0.3
			c-0.1,0.7-0.3,1.3-0.4,1.7c-0.3,1-1.1,1.5-2.5,1.5H192.6z M194.9,39c-0.7-0.8-1.3-1.5-1.9-2.2l1.2-0.9c0.2,0.2,0.5,0.5,0.9,1
			c0.4,0.4,0.8,0.8,1.1,1.1L194.9,39L194.9,39z M193.5,35.7v-9h7.8v9H193.5z M195.2,28v1.4h4.4V28H195.2z M195.2,30.5v1.3h4.4v-1.3
			H195.2z M195.2,33v1.4h4.4V33H195.2z M200.9,40.5c-0.1-0.2-0.4-0.5-0.7-1c-0.5-0.9-1-1.6-1.3-2.1l1.5-0.7c0.8,1.1,1.4,2.1,2.1,3.2
			L200.9,40.5z"/>
		<path class="st0" d="M205.2,28.6v-1.1h2.7V26h1.5v1.5h2.6v1.1h-2.6v0.9h2.3v1.1h-2.3v1h2.8v1.1H205v-1.1h2.9v-1h-2.3v-1.1h2.3
			v-0.9L205.2,28.6L205.2,28.6z M205.7,41.9v-8.2h5.9V40c0,1.1-0.5,1.7-1.6,1.7h-1.5c-0.1-0.3-0.2-0.8-0.3-1.3c0.2,0,0.4,0,0.7,0.1
			h0.5c0.5,0,0.8-0.2,0.7-0.6v-0.8h-3v2.8L205.7,41.9L205.7,41.9z M207.1,34.8v1.1h3v-1.1H207.1z M207.1,36.9V38h3v-1.1H207.1z
			 M212.7,28.4c0,0,0-0.1-0.1-0.3c0-0.5-0.1-0.9-0.2-1.1c2.2,0,4.8-0.2,7.8-0.4l0.3,1.3c-1.7,0.2-4,0.3-6.7,0.4
			C213.3,28.3,212.9,28.4,212.7,28.4z M218.8,38.8V38h-1.9v1.9c0,1.2-0.6,1.8-1.8,1.8h-1.7c0-0.1,0-0.4-0.1-0.7
			c0-0.3-0.1-0.6-0.1-0.8c0.3,0,0.7,0.1,1.4,0.1c0.6,0,0.9-0.2,0.9-0.7V38h-2.5v-1.3h2.5v-1.5h-2.9v-1.4h2.9v-1.5H213V31h5.6
			l-0.7-0.3c0.2-0.4,0.5-1,0.8-1.7c0.1-0.2,0.2-0.4,0.3-0.5l1.3,0.5c-0.3,0.6-0.7,1.3-1.1,2.1h1.1v2.8h0.9v1.4h-0.9v3.7L218.8,38.8
			L218.8,38.8z M213.7,30.8c-0.4-0.7-0.7-1.3-0.9-1.7l1.1-0.4c0,0,0.1,0.1,0.1,0.3c0.4,0.6,0.6,1.1,0.8,1.5L213.7,30.8L213.7,30.8z
			 M216.1,30.6c-0.2-0.6-0.4-1.2-0.7-1.8l1.2-0.4c0.1,0.2,0.2,0.5,0.4,0.9c0.1,0.4,0.2,0.7,0.3,0.9
			C217.3,30.2,216.1,30.6,216.1,30.6z M218.8,32.3h-1.9v1.5h1.9V32.3z M216.9,35.2v1.5h1.9v-1.5H216.9z"/>
		<path class="st0" d="M225.2,38c-0.2-0.1-0.6-0.3-1.2-0.5c-0.3-0.1-0.4-0.2-0.5-0.2c0.8-2.4,1.4-4.5,1.8-6.3l1.8,0.5
			C226.4,33.8,225.8,35.9,225.2,38L225.2,38z M230.5,41.3c-1.9,0-2.8-0.8-2.7-2.6v-9.2h1.9v8.8c0,1,0.4,1.4,1.4,1.4h2.1
			c0.9,0,1.5-0.4,1.7-1.3c0-0.1,0-0.4,0.1-0.7c0.1-0.6,0.1-1.1,0.2-1.5c0.2,0,0.5,0.2,0.9,0.3c0.4,0.1,0.8,0.2,0.9,0.3
			c-0.1,1-0.3,1.9-0.5,2.7c-0.2,1.2-1.2,1.8-3,1.8L230.5,41.3L230.5,41.3z M233.1,31.1c-0.8-0.9-2-2.2-3.7-3.9l1.3-1.3
			c1.5,1.3,2.8,2.5,3.8,3.6L233.1,31.1L233.1,31.1z M238,36.9c-0.8-1.6-1.7-3.5-2.8-5.5l1.6-0.9c0.8,1.4,1.8,3.2,2.9,5.4L238,36.9
			L238,36.9z"/>
		<path class="st0" d="M244.5,35.8v-6.1H256v6.1h-4.9v1.3h7.1v1.5h-15.9v-1.5h7v-1.3H244.5L244.5,35.8z M243.1,42.1
			c-0.1-0.5-0.4-1-0.7-1.5c2-0.5,4.1-1.1,6.2-1.7l0.8,1.1c-0.3,0.1-0.8,0.2-1.5,0.5C246.5,41,244.9,41.5,243.1,42.1L243.1,42.1z
			 M242.7,30.4V27h15.1v3.3H256v-1.9h-11.6v1.9H242.7L242.7,30.4z M246.3,31v1.2h8V31C254.2,31,246.3,31,246.3,31z M246.3,33.2v1.3
			h8v-1.3H246.3z M257.4,41.9c-2.2-0.7-4.3-1.3-6.3-1.9l0.7-1.1c0.8,0.2,1.9,0.5,3.5,0.9c1.3,0.3,2.3,0.5,2.8,0.7L257.4,41.9
			L257.4,41.9z"/>
		<path class="st0" d="M261.2,29.8v-1.5h2.5v-2.3h1.6v2.3h2.1v1.5h-2.1v1.5l0.5-0.5c0.3,0.2,0.4,0.3,0.3,0.2c0.7,0.6,1.3,1,1.7,1.4
			l-1.1,1.1l-1.4-1.3V36h-1.6v-3.9c-0.5,1.1-1.3,2.2-2.3,3.2c0-0.1-0.1-0.3-0.1-0.5c-0.1-0.6-0.2-1.1-0.3-1.3
			c1.1-1.1,1.9-2.3,2.5-3.6L261.2,29.8L261.2,29.8z M262.4,40.9c-0.5-0.3-1-0.5-1.5-0.7c0.4-0.7,0.9-1.8,1.5-3.5l1.6,0.5
			C263.5,38.5,263,39.8,262.4,40.9z M267.2,41.5c-1.5,0-2.3-0.7-2.3-2.1v-2.7h1.7v2.2c0,0.8,0.4,1.1,1.3,1.1h2.4
			c0.8,0,1.3-0.3,1.4-0.9c0-0.2,0.1-0.5,0.1-1c0,0.1,0,0,0.1-0.3c0.2,0,0.4,0.1,0.8,0.3c0.4,0.2,0.7,0.3,0.9,0.3
			c-0.1,0.7-0.3,1.3-0.4,1.7c-0.3,1-1.1,1.5-2.5,1.5H267.2L267.2,41.5z M269.5,39c-0.7-0.8-1.3-1.5-1.9-2.2l1.2-0.9
			c0.2,0.2,0.5,0.5,0.9,1c0.4,0.4,0.8,0.8,1.1,1.1L269.5,39L269.5,39z M268,35.7v-9h7.8v9H268z M269.8,28v1.4h4.4V28H269.8z
			 M269.8,30.5v1.3h4.4v-1.3H269.8z M269.8,33v1.4h4.4V33H269.8z M275.5,40.5c-0.1-0.2-0.4-0.5-0.7-1c-0.5-0.9-1-1.6-1.3-2.1
			l1.5-0.7c0.8,1.1,1.4,2.1,2.1,3.2L275.5,40.5z"/>
		<path class="st0" d="M288.9,30.9v2.2c0,1.7-0.7,3-2.2,3.8l-0.6-0.7c1.1-0.7,1.7-1.6,1.7-2.7h-1.3v-2.5L288.9,30.9L288.9,30.9z"/>
		<path class="st0" d="M298.5,35.7c-0.1-0.8-0.3-1.5-0.5-2.2c1.5-2.2,2.7-4.6,3.5-7.4l1.9,0.5c-0.5,1.4-1,2.5-1.4,3.4v12h-1.7v-8.6
			c0,0.1-0.1,0.2-0.3,0.4C299.6,34.3,299.1,34.9,298.5,35.7L298.5,35.7z M304.1,29.3c-0.1-0.6-0.2-1.2-0.3-1.7
			c3.2-0.1,6.4-0.4,9.6-0.7l0.4,1.7c-1.2,0.1-2.6,0.2-4,0.3v4.4h4.5V35h-4.5v4.5h4.1v1.5h-10.2v-1.5h4.3V35h-4.7v-1.7h4.7V29
			C306.7,29.2,305.4,29.3,304.1,29.3L304.1,29.3z"/>
		<path class="st0" d="M317.1,35.5c-0.1-0.8-0.3-1.6-0.5-2.3c1.4-2.1,2.5-4.5,3.4-7.2l1.7,0.5c-0.4,1.1-0.8,2.2-1.3,3.2v12.1h-1.7
			v-8.8C318.3,33.9,317.7,34.8,317.1,35.5L317.1,35.5z M322,28.8v-1.7h10.8v1.7h-1.3v10.2c0.1,1.7-0.7,2.5-2.5,2.5
			c-0.5,0-1.4,0.1-2.7,0.1c0-0.3-0.1-0.8-0.3-1.5L326,40h2.3c1,0.1,1.5-0.3,1.4-1.2v-10H322L322,28.8z M322.3,37.9v-7.2h5.6v7.2
			H322.3z M323.8,32.2v4.2h2.5v-4.2H323.8z"/>
		<path class="st0" d="M336,41V27.2h4.9v13.5h-1.5v-1h-1.9V41L336,41L336,41z M337.6,28.8v3.9h1.9v-3.9
			C339.4,28.8,337.6,28.8,337.6,28.8z M337.6,34.2v4h1.9v-4H337.6z M342.1,29.6v-1.5h3.3V26h1.7v2.1h3.5v1.5h-3.5v1.9h4.2v1.5h-9.9
			v-1.5h4v-1.9C345.5,29.6,342.1,29.6,342.1,29.6z M341.5,36.3v-1.5h6.2v-1.3h1.7v1.3h1.9v1.5h-1.9v3.2c0,1.4-0.6,2.1-2.1,2.1
			c-0.7,0-1.5,0.1-2.5,0.1c0-0.2-0.1-0.6-0.2-1.1c-0.1-0.3-0.1-0.5-0.1-0.6c0.6,0,1.2,0.1,2,0.1c0.8,0,1.2-0.3,1.1-0.9v-2.8H341.5z
			 M344.3,39.7c-0.5-0.7-1.2-1.4-2-2.2l1.3-1c0.3,0.3,0.7,0.7,1.3,1.3c0.4,0.4,0.6,0.7,0.8,0.9L344.3,39.7L344.3,39.7z"/>
		<path class="st0" d="M355.5,41.9v-8.4c-0.1,0.2-0.2,0.4-0.5,0.7c-0.4,0.6-0.6,1.1-0.8,1.4c0-0.3-0.2-1-0.3-1.9
			c0-0.2-0.1-0.4-0.1-0.5c1.2-2.1,2.1-4.5,2.7-7.2l1.7,0.3c-0.4,1.3-0.7,2.6-1.1,3.7v11.9H355.5L355.5,41.9z M358.3,39.1V28.4h1.5
			v10.7H358.3z M361.5,35.8c-0.3-0.2-0.8-0.5-1.3-0.8c0.9-1.1,1.5-2.2,1.9-3.4l1.5,0.2l-0.3,1h6.1v1.5H366c0,0.2,0,0.6-0.1,1.1v0.8
			h4v1.5h-3.8c0.8,1.4,2.1,2.3,4,2.8c-0.4,0.5-0.7,1-0.9,1.5c-2-0.8-3.4-1.9-4-3.2c-0.5,1.3-2.1,2.5-4.9,3.4
			c-0.2-0.4-0.5-0.9-0.9-1.5c2.8-0.8,4.3-1.8,4.6-3h-3.8v-1.5h4c0-0.6,0.1-1.2,0.1-1.9h-1.8C362.3,34.8,361.9,35.3,361.5,35.8
			L361.5,35.8z M360.5,31.2v-1.4h6.1l0.1-1.7h-5.5v-1.4h7.2l-0.2,3.1h1.8v1.4H360.5L360.5,31.2z"/>
		<path class="st0" d="M374,40.1c-0.3-0.1-0.7-0.2-1.4-0.5c0.3-0.5,0.7-1.5,1.3-3c0-0.2,0.1-0.3,0.1-0.3l1.5,0.4
			C374.8,38.4,374.3,39.5,374,40.1L374,40.1z M372.8,29.4v-1.5h3.3v-1.8h1.6v1.8h3.2v1.5L372.8,29.4L372.8,29.4z M373.6,35.5v-4.9
			h6.7v4.9h-2.5v4.2c0,1.3-0.5,1.9-1.8,1.9c-0.3,0-0.8,0.1-1.5,0.1c-0.1-0.5-0.2-1-0.3-1.5c0.1,0,0.4,0,0.7,0.1h0.6
			c0.5,0,0.8-0.2,0.8-0.7v-4L373.6,35.5L373.6,35.5z M375.2,32v2.1h3.5V32H375.2z M379.4,39c-0.2-0.4-0.5-1.2-1.1-2.4l1.3-0.5
			c0.4,0.8,0.8,1.5,1.1,2.3L379.4,39z M380.9,31.9v-1.5h1.6v-2c0-1,0.1-1.8,0.1-2.3h1.7c0,0.9,0,2.4-0.1,4.3h4.3v1.5H384
			c-0.1,4.2-1.2,7.5-3.4,10.1c-0.2-0.2-0.7-0.5-1.4-1.1c2.1-2.3,3.2-5.3,3.2-9L380.9,31.9L380.9,31.9z M385.9,41.5
			c-1.1,0-1.7-0.6-1.7-1.7v-7h1.6v6.5c0,0.4,0.2,0.7,0.6,0.7h0.3c0.4,0,0.6-0.3,0.7-0.8c0.1-0.9,0.1-1.7,0.1-2.5
			c0.7,0.2,1.1,0.3,1.3,0.4c0,1.1-0.1,2-0.3,2.8c-0.2,1.2-0.8,1.7-1.9,1.7L385.9,41.5L385.9,41.5z M386.8,29.7c-0.6-0.7-1.2-1.3-2-2
			l1.1-0.9c0.8,0.6,1.4,1.3,2.1,1.9L386.8,29.7L386.8,29.7z"/>
		<path class="st0" d="M391.6,29.4v-1.6h6.8V26h1.9v1.9h6.8v1.6h-6.8v4.9c1.7,2.3,4.1,4,7.2,5c-0.4,0.5-0.7,1.1-0.9,1.6
			c-2.8-1.1-4.8-2.5-6.2-4.4v5.5h-1.9v-5.5c-1.5,1.9-3.6,3.4-6.2,4.5c-0.3-0.5-0.6-1-1-1.5c3-1.2,5.5-2.9,7.2-5.2v-4.9H391.6
			L391.6,29.4z M396.6,35.2c-0.4-0.5-1-1.2-1.8-1.9c-0.5,0.9-1.2,1.8-2.1,2.7c-0.4-0.4-0.7-0.8-1.1-1.2c1.4-1.3,2.4-2.9,2.9-4.7
			l1.7,0.2c0,0.3-0.2,0.7-0.4,1.2c-0.1,0.2-0.2,0.4-0.2,0.5c0.6,0.5,1.4,1.1,2.2,1.9L396.6,35.2L396.6,35.2z M405.8,35.6l-0.8-0.8
			c-0.7-0.7-1.2-1.2-1.6-1.6c-0.4,0.6-0.9,1.2-1.4,1.8c-0.4-0.4-0.8-0.8-1.2-1.1c1.1-1,1.9-2.3,2.3-3.9l1.7,0.2
			c-0.1,0.6-0.3,1.1-0.6,1.7c0.4,0.4,1.1,0.9,1.9,1.6c0.4,0.3,0.7,0.6,0.9,0.8L405.8,35.6L405.8,35.6z"/>
		<path class="st0" d="M410.9,35.3c-0.1-0.2-0.4-0.6-0.8-1.1c-0.2-0.2-0.3-0.4-0.4-0.5c2.1-1.5,3.5-3.3,4.4-5.3l1.7,0.7
			C414.6,31.6,412.9,33.7,410.9,35.3L410.9,35.3z M411.2,41.2l-0.5-1.6c0.2,0,0.4,0,0.8-0.1h0.7c1.7-2.4,3.2-4.8,4.5-7.4l1.9,0.9
			c-1.2,2-2.6,4.1-4.2,6.4l6.8-0.4c-0.3-0.4-0.8-1-1.3-1.7c-0.4-0.6-0.7-1-0.9-1.3l1.4-0.9c0.8,1,2,2.5,3.7,4.6
			c0.4,0.5,0.8,0.9,1,1.1l-1.6,1.1l-1.1-1.5c-1.7,0.1-4.3,0.3-7.8,0.5C413.1,41.1,412,41.2,411.2,41.2L411.2,41.2z M425,34.7
			c-2.6-1.7-4.5-3.9-5.5-6.6h-4.1v-1.4h5.5c1.1,2.8,2.9,4.9,5.3,6.3c0,0-0.1,0.1-0.2,0.3C425.5,33.9,425.2,34.4,425,34.7L425,34.7z"
			/>
		<path class="st0" d="M429.3,41.9V26.7h14.6v15.2h-1.7v-0.7h-11.3v0.7H429.3L429.3,41.9z M430.9,28v12h11.3V28H430.9z M432.5,35.6
			v-2.9h8v2.8c0,0,0.1,0,0.1-0.1h0.1l0.9,0.8c-0.5,0.3-1,0.7-1.5,1.1l1.7,0.9l-0.7,1c-1.1-0.6-2.4-1.3-4-2.1l0.7-0.9l1.3,0.6
			c0.3-0.2,0.8-0.6,1.3-1.1c0.1,0,0.1-0.1,0.2-0.1H437c-0.2,0.3-0.4,0.5-0.7,0.6v2.2h0.2c0.5,0,1.1-0.1,1.8-0.3c0,0.3-0.1,0.6-0.1,1
			c-2.2,0.2-3.8,0.4-4.8,0.6l-0.2-1c0.5-0.1,1.1-0.2,1.6-0.2v-1.3c-0.9,0.5-1.9,1-3,1.5c0,0-0.1-0.2-0.2-0.3
			c-0.2-0.4-0.4-0.7-0.5-0.9c1.6-0.5,3-1.1,4.1-1.9L432.5,35.6L432.5,35.6z M432.3,30.2v-1h3.5v-1.1h1.5v1.1h3.5v1h-3.5V31h4.2v1
			h-10v-1h4.2v-0.9H432.3z M434,33.7v1h5v-1H434z"/>
		<path class="st0" d="M448.4,41.9c-0.1-0.1-0.2-0.2-0.4-0.4c-0.1-0.1-0.4-0.4-0.9-0.9c1.7-1.3,2.7-3.3,3-6l1.8,0.2
			c0,0.1-0.1,0.3-0.1,0.6c-0.2,0.7-0.3,1.2-0.4,1.6c0.8,1.4,1.8,2.3,3.2,2.5v-5.4h1.8v1.7h5.4v1.5h-5.4v2.4h6.9
			c-0.2,0.4-0.4,0.9-0.5,1.6c-2.2,0-4.5,0-6.8-0.1c-2.6-0.1-4.3-0.9-5.2-2.3C450.2,39.9,449.4,40.9,448.4,41.9L448.4,41.9z
			 M448.9,29.8v-1.6h5.5v-2.2h1.8v2.2h5.5v1.6h-5.5v2.3h6.9v1.6h-15.7v-1.6h7v-2.3C454.3,29.8,448.9,29.8,448.9,29.8z"/>
		<path class="st0" d="M467,41.9c-0.1-0.1-0.2-0.2-0.4-0.4c-0.1-0.1-0.4-0.4-0.9-0.9c1.7-1.3,2.7-3.3,3-6l1.8,0.2
			c0,0.1-0.1,0.3-0.1,0.6c-0.2,0.7-0.3,1.2-0.4,1.6c0.8,1.4,1.8,2.3,3.2,2.5v-5.4h1.8v1.7h5.4v1.5H475v2.4h6.9
			c-0.2,0.4-0.4,0.9-0.5,1.6c-2.2,0-4.5,0-6.8-0.1c-2.6-0.1-4.3-0.9-5.2-2.3C468.8,39.9,468.1,40.9,467,41.9L467,41.9z M467.5,29.8
			v-1.6h5.5v-2.2h1.8v2.2h5.5v1.6h-5.5v2.3h6.9v1.6H466v-1.6h7v-2.3C473,29.8,467.5,29.8,467.5,29.8z"/>
		<path class="st0" d="M485,40V27.4h4.5v12.3H488v-1.1h-1.5V40H485z M486.6,28.9v8h1.5v-8H486.6z M493.1,41.4
			c-1.5,0-2.3-0.7-2.3-2.3V26.8h8.7v8.1h-7v4c0,0.8,0.4,1.1,1.2,1.1h3.5c0.8,0,1.3-0.3,1.5-1.1c0.1-0.7,0.2-1.5,0.3-2.3
			c0.2,0,0.6,0.2,1.1,0.4c0.2,0,0.4,0.1,0.5,0.1c-0.1,1.1-0.3,2-0.5,2.7c-0.3,1.1-1.2,1.7-2.7,1.7L493.1,41.4L493.1,41.4z
			 M492.5,28.4v5h1.9v-5H492.5z M497.9,28.4h-2v5h2V28.4z"/>
		<path class="st0" d="M512.2,27.3l-0.4,9.7h-1.7l-0.3-9.7H512.2z M512.1,40.9H510v-2.1h2.1V40.9z"/>
	</g>
</g>
</svg>
