<?xml version="1.0" encoding="utf-8"?>
<!-- Generator: Adobe Illustrator 27.0.0, SVG Export Plug-In . SVG Version: 6.00 Build 0)  -->
<svg version="1.1" id="_圖層_2" xmlns="http://www.w3.org/2000/svg" xmlns:xlink="http://www.w3.org/1999/xlink" x="0px" y="0px"
	 viewBox="0 0 662.6 56" style="enable-background:new 0 0 662.6 56;" xml:space="preserve">
<style type="text/css">
	.st0{fill:#FFFFFF;}
</style>
<g id="_圖層_1-2">
	<g>
		<path class="st0" d="M14.5,8.3C13,8.6,11.4,9,9.7,9.4l0.2,3.5h3.5v7.4h-3.2V24h3.2v7.6h-3l0.2,4.1h3.9V1.4h25.8v34.3h3.9l0.2-3.9
			h-3v-7.4h3.2l0.2-3.7h-3.5v-7.4h3.7V9.7h-3.7V2.3H53l-1.2,33.4h3v7.6H34.6c4.2,0.9,10.1,2.4,18,4.4c1.1,0.3,1.8,0.5,2.3,0.7
			l-3.5,7.4c-3.5-1.1-9-2.7-16.4-4.8c-1.8-0.6-3.3-1.1-4.4-1.4l3-6.2H20.3l3.7,6.2c-4.1,1.5-10,3.4-17.5,5.5
			c-1.2,0.5-2.2,0.8-2.8,0.9l-3.4-7.4c6.8-1.7,12.9-3.5,18.4-5.3H0v-7.6h2.8L2.1,4.2c2.9-0.6,6-1.5,9.2-2.5L14.5,8.3L14.5,8.3z
			 M33.2,8.8H21.7v27h11.5V8.8z M22.8,11.1h9v6h-9C22.8,17,22.8,11.1,22.8,11.1z M23.1,18.9h8.8v14.8h-8.8V18.9z M28.6,28.4v-3.9
			h-2.3v3.9H28.6z"/>
		<path class="st0" d="M66.4,10.6h-6.9V2.8h16.8v7.8l-4.6,9h4.8v1.8c-0.2,9.2-1.5,16.3-3.9,21.2c2.9,2.6,7.7,3.8,14.3,3.7H88v-2.5
			h-12v-6.2h12v-2.1H77.7V29H88V27H77.9v-6.2H88v-2.3h-12v-6.2h12V9.9h-9.7V3.5H88V0h8.8v3.5h13.6v8.8h4.2v6.2h-4.2V27H96.8V29h14.3
			v6.5H96.8v2.1h15.7v6.2H96.8v2.5c3.8,0.2,9,0.2,15.4,0h2.3l-2.3,7.8c-5.2,0-13.8-0.2-25.8-0.5c-8.6,0-14.5-1.6-17.8-4.8
			c-2,2.5-4.1,4.7-6.2,6.7c-1.2-2.8-2.6-5.3-4.2-7.6c0.9-0.8,2.2-2.1,3.7-3.9c0.5-0.5,0.8-0.8,0.9-1.2c-2.3-3.4-3.9-6.5-4.8-9.5
			l6.2-3.7c0.9,2.1,1.8,3.9,2.5,5.3c0.9-2.5,1.4-5.1,1.4-7.8h-0.7l-0.7,1.4h-9.7L66.4,10.6L66.4,10.6z M102.1,9.9h-5.3v2.3h5.3V9.9z
			 M96.8,18.4v2.3h5.3v-2.3H96.8z"/>
		<path class="st0" d="M168,21.4c0.6,0.3,2.1,0.9,4.4,1.8c0.6,0.3,1,0.5,1.1,0.5c-0.1,1.2-0.3,2.7-0.5,4.4c0-0.3-0.1,0-0.2,0.9
			c-0.6,4-2.8,5.8-6.7,5.5h-2.8c-3.2,0-5.1-1.3-5.5-3.9l-4.4,3.2c-0.5-0.6-1.4-1.8-2.8-3.5c-0.8-0.9-1.4-1.7-1.8-2.3
			c-0.6,2.1-2.1,4.4-4.4,6.7h5.3v2.3h22.4v6.7h-16.6c3.5,2.3,9.7,4,18.4,5.1c-1.5,2.2-2.9,4.3-4.1,6.5c-8.8-1.8-15.4-4.4-20.1-7.6
			v7.8h-8.8v-7.8c-4.3,2.9-11,5.5-20.1,7.8c-0.6-1.1-1.6-2.8-3-5.1c-0.5-0.8-0.8-1.3-1.2-1.6c8.3-1.1,14.4-2.8,18.2-5.1h-16.4v-6.7
			h22.4v-2.3h1.6c-0.9-0.9-2.3-2-4.1-3.2v1.4c-7.7,0.6-14,1.2-18.9,1.8l-1.4-6.7c0.8-0.1,2-0.2,3.7-0.2c1.5-0.1,2.7-0.2,3.5-0.2
			v-5.3h-5.8v-6.2h3c-1.8-1.7-3.7-3.3-5.5-4.8c3.7-3.2,6.4-6.8,8.3-10.8l9,0.5c-0.5,1.1-1,2.1-1.6,3h13.1v5.3c1.7-2.5,3.3-5.4,4.8-9
			l8.5,0.7c-0.1,0.2-0.3,0.5-0.5,0.9c-0.1,0.5-0.4,1.1-0.7,2.1H172v6.7h-7.4c0.8,1.1,1.5,2.2,2.1,3.5l-8.1,0.9
			c-0.3-0.6-0.9-1.5-1.6-2.5c-0.3-0.8-0.6-1.4-0.9-1.8h-1.6c-1.1,1.8-2.3,3.5-3.7,5.1c-1.1-0.6-2.5-1.3-4.4-2.1
			c-1.2-0.6-2.1-1.1-2.8-1.4c0.5-0.6,0.8-1.1,1.1-1.6h-6.4c0.8,1.1,1.5,2.2,2.1,3.5l-8.1,0.9c-0.6-1.4-1.4-2.8-2.3-4.4h-1.4
			c-1.1,1.4-2.8,3.2-5.1,5.5h15.2v6.2h-5.1V27c2,0,3.7-0.1,5.1-0.5c0,1.1-0.1,2.2-0.2,3.5c2.1-2,3.1-4.5,3-7.6v-6.2h24V27
			c0,0.6,0.3,0.9,0.9,0.9s0.9-0.4,0.9-1.1c0.1-0.3,0.3-1.6,0.5-3.9C168,22.2,168,21.7,168,21.4L168,21.4z M153,23.3
			c1.8,2.1,3.3,3.8,4.4,4.8v-5.8h-8.1v3.5L153,23.3z"/>
		<path class="st0" d="M211.6,55.3h-9.4V33.9c-0.9,1.1-2.4,2.5-4.4,4.2c-0.8,0.6-1.3,1.1-1.6,1.4c-0.6-2.2-1.7-5.5-3.2-9.9
			c6-5.2,10.4-10.5,13.1-15.7h-12.2V5.5H210c0.1-0.8,0.5-1.9,1.1-3.5c0.3-0.9,0.5-1.6,0.7-2.1l10.6,0.7c-0.5,1.5-1.1,3.2-1.8,4.8
			h28.4v8.3h-32c-0.3,0.6-0.8,1.4-1.4,2.3l-0.2,0.5h28.8v30.2c0.5,5.7-2.5,8.5-8.8,8.3c-2.8,0.2-6.2,0.2-10.4,0.2
			c-0.6-3.1-1.3-5.6-2.1-7.6h7.6c2.8,0.3,4.1-0.8,4.1-3.2h-23.1L211.6,55.3L211.6,55.3z M211.6,24.4v3h23.1v-3H211.6z M211.6,34.6
			v2.8h23.1v-2.8H211.6z"/>
		<path class="st0" d="M258.1,15.7c2.1,2,5,4.8,8.5,8.3l-7.1,6c-0.8-0.8-1.9-2.1-3.5-3.9c-2-2.1-3.5-3.8-4.4-4.8L258.1,15.7z
			 M256.5,31.8l8.3,2.3c-1.1,5.2-2.6,12.1-4.6,20.5l-8.3-2.1C254.1,43.8,255.6,36.9,256.5,31.8z M260,0.7c0.8,0.6,1.8,1.5,3.2,2.8
			c2.6,2.5,4.5,4.2,5.5,5.3l-6.9,6.2c-0.8-0.8-2.1-2.1-3.9-4.1c-1.8-2-3.2-3.5-4.1-4.4C253.8,6.4,260,0.7,260,0.7z M263.7,53.5v-6.7
			h3V29.5h38.7v17.3h2.8v6.7L263.7,53.5L263.7,53.5z M269.2,27.4V2.1h33.9v25.4C303.1,27.4,269.2,27.4,269.2,27.4z M275.2,36.4v10.4
			h2.8V36.4H275.2z M277.5,9v6.4c2.9-1.8,4.8-4,5.5-6.4H277.5z M277.5,20.5h17v-5.1l-3.7,4.8c-0.5-0.5-1.2-1.1-2.3-2.1
			c-1.1-0.8-1.9-1.4-2.5-1.8c-0.9,1.4-2.3,2.7-4.1,3.9c-2-2-3.5-3.4-4.4-4.1L277.5,20.5L277.5,20.5z M284.6,36.4v10.4h2.8V36.4
			H284.6z M294.5,9h-4.6c-0.1,0.9-0.4,1.6-0.7,2.1c2,1.5,3.8,2.8,5.3,3.9V9z M297.1,36.4h-3v10.4h3V36.4z"/>
		<path class="st0" d="M346.6,0.5v3.9h20v7.4h-8.1v3h7.6v7.1h-7.6v8.3h-29.3v-8.3h-5.8V27c0,8.9-0.8,16.1-2.3,21.4
			c5.1-0.6,9.7-1.4,13.8-2.3c-2.8-1.8-5.1-4.2-7.1-6.9h-3.7v-6.9h37.8v7.1c-2.5,2.5-5.1,4.7-7.8,6.7c3.7,0.8,8,1.2,12.9,1.2
			c-1.4,2.5-2.6,5.1-3.7,7.8c-7.8-0.6-14.3-2.1-19.4-4.4c-5.1,2-11.5,3.7-19.4,5.1c-1.4-3.1-2.5-5.4-3.5-6.9
			c-0.3,0.5-0.7,1.3-1.1,2.5c-0.6,2-1.1,3.5-1.6,4.6c-2.1-1.8-4.7-3.9-7.6-6.2c2.9-5.4,4.3-13.2,4.1-23.5V4.4h21.9V0.5H346.6z
			 M323.6,11.8v3h5.8v-3H323.6z M351.2,39.2h-13.6c1.8,1.4,4.1,2.7,6.7,3.9C347.1,41.9,349.4,40.6,351.2,39.2L351.2,39.2z
			 M337.9,11.8v3h12.2v-3H337.9z M337.9,21.9v2.5h12.2v-2.5H337.9z"/>
		<path class="st0" d="M424.1,43.1c0,7.4-3.4,11.1-10.1,11.3c-2.8,0.2-6.3,0.2-10.6,0.2c-0.1-0.6-0.3-1.5-0.5-2.8
			c-0.3-1.8-0.8-3.9-1.4-6.2c1.8,0.2,4.6,0.2,8.3,0.2c3.4,0.3,5.1-1.3,5.1-4.8v-9.7c0.1-6.5,0.2-11,0.2-13.6H407
			c-0.9,2.5-2,4.8-3.2,7.1c-2.3-1.2-4.7-2.5-7.1-3.9v33.4h-9v-3.2H381v3.5h-9V9h6.5c0.8-3.1,1.3-5.9,1.6-8.5l10.1,1.1
			c-0.1,0.5-0.3,1.1-0.5,1.8C389.4,5.1,389,7,388.3,9h8.3v9.7c3.1-6.6,5.4-12.8,6.9-18.4l9.2,2.1c-0.1,0.8-0.5,1.8-0.9,3.2
			c-0.5,1.5-0.9,2.7-1.1,3.5h14.1C424.4,25.9,424.2,37.2,424.1,43.1L424.1,43.1z M381,17.7v8.1h6.7v-8.1H381z M381,34.6v8.1h6.7
			v-8.1H381z M405.8,24c1.4,1.7,3.4,4.3,6,7.8c1.1,1.5,1.9,2.7,2.5,3.5l-7.8,5.1c-3.2-4.9-5.9-8.8-8.1-11.8L405.8,24L405.8,24z"/>
		<path class="st0" d="M451.5,3.9h11.8V0.2h8.3v3.7H484v5.8h-12.5v1.8h11.3v5.3h-11.3v1.8h13.4v5.8h-34.3v-5.8h12.7v-1.8h-11.1v-5.3
			h11.1V9.7h-11.8V5.5c-0.3,1.1-0.8,2.7-1.4,4.8c-0.9,3.2-1.6,5.7-2.1,7.4l-4.1-1.6v3.5h5.5v7.6h-5.5v5.3l2.5-2.3l2.1,2.1
			c1.7,2,2.9,3.5,3.7,4.4V26.3h30.4v20.3c0.3,5.4-2.1,8.1-7.4,8.3h-3c-1.8,0.2-3.5,0.2-5.1,0.2c-0.1-0.9-0.5-2.5-1.1-4.6
			c-0.1-0.8-0.3-1.3-0.5-1.6h6c1.7,0,2.6-0.7,2.8-2.1h-13.8v8.5h-8.3v-17l-4.8,4.2c-0.1-0.2-0.5-0.5-0.9-0.9
			c-1.1-1.5-1.9-2.7-2.5-3.5v17.3h-7.6V40.1c-1.5,3.4-3.3,6.3-5.3,8.8c-0.5-2.5-1.2-5.8-2.3-9.9c2.8-3.1,5-7,6.7-11.8h-5.8v-7.6h6.7
			v-3.5l-4.8,1.6c-0.3-1.5-0.8-3.6-1.4-6.2c-0.6-2.8-1.1-4.8-1.4-6.2l4.8-1.4c0.3,1.2,0.8,3.1,1.4,5.5c0.6,2.3,1.1,4.1,1.4,5.5V0.5
			h7.6v13.8c0.6-1.8,1.4-4.4,2.3-7.6c0.3-1.2,0.5-2.2,0.7-2.8l4.6,1.4L451.5,3.9L451.5,3.9z M460.5,32.3v2.1h14.1v-2.1H460.5z
			 M460.5,39.4v2.3h14.1v-2.3H460.5z"/>
		<path class="st0" d="M490.2,55.1V28.6H514v26.5h-8.3v-2.5h-7.1v2.5H490.2L490.2,55.1z M495,3h42.2v21.9H495V3L495,3z M498.5,36.2
			v9h7.1v-9H498.5z M504.7,17.1h22.8v-6h-22.8V17.1z M517.6,55.1V28.6h24.2v26.3h-8.3v-2.3h-7.4v2.5L517.6,55.1L517.6,55.1z
			 M526.2,36.2v9h7.4v-9H526.2z"/>
		<path class="st0" d="M555,10.6h-6.9V2.8h16.8v7.8l-4.6,9h4.8v1.8c-0.2,9.2-1.5,16.3-3.9,21.2c2.9,2.6,7.7,3.8,14.3,3.7h1.2v-2.5
			h-12v-6.2h12v-2.1h-10.4V29h10.4V27h-10.1v-6.2h10.1v-2.3h-12v-6.2h12V9.9H567V3.5h9.7V0h8.8v3.5H599v8.8h4.2v6.2H599V27h-13.6V29
			h14.3v6.5h-14.3v2.1h15.7v6.2h-15.7v2.5c3.8,0.2,9,0.2,15.4,0h2.3l-2.3,7.8c-5.2,0-13.8-0.2-25.8-0.5c-8.6,0-14.5-1.6-17.8-4.8
			c-2,2.5-4.1,4.7-6.2,6.7c-1.2-2.8-2.6-5.3-4.2-7.6c0.9-0.8,2.2-2.1,3.7-3.9c0.5-0.5,0.8-0.8,0.9-1.2c-2.3-3.4-3.9-6.5-4.8-9.5
			l6.2-3.7c0.9,2.1,1.8,3.9,2.5,5.3c0.9-2.5,1.4-5.1,1.4-7.8h-0.7l-0.7,1.4h-9.7L555,10.6L555,10.6z M590.7,9.9h-5.3v2.3h5.3V9.9z
			 M585.4,18.4v2.3h5.3v-2.3H585.4z"/>
		<path class="st0" d="M656.6,21.4c0.6,0.3,2.1,0.9,4.4,1.8c0.6,0.3,1,0.5,1.2,0.5c-0.2,1.2-0.3,2.7-0.5,4.4c0-0.3-0.1,0-0.2,0.9
			c-0.6,4-2.8,5.8-6.7,5.5H652c-3.2,0-5.1-1.3-5.5-3.9l-4.4,3.2c-0.5-0.6-1.4-1.8-2.8-3.5c-0.8-0.9-1.4-1.7-1.8-2.3
			c-0.6,2.1-2.1,4.4-4.4,6.7h5.3v2.3h22.4v6.7h-16.6c3.5,2.3,9.7,4,18.4,5.1c-1.5,2.2-2.9,4.3-4.2,6.5c-8.8-1.8-15.4-4.4-20-7.6v7.8
			h-8.8v-7.8c-4.3,2.9-11,5.5-20,7.8c-0.6-1.1-1.6-2.8-3-5.1c-0.5-0.8-0.8-1.3-1.2-1.6c8.3-1.1,14.4-2.8,18.2-5.1h-16.4v-6.7h22.4
			v-2.3h1.6c-0.9-0.9-2.3-2-4.2-3.2v1.4c-7.7,0.6-14,1.2-18.9,1.8l-1.4-6.7c0.8-0.1,2-0.2,3.7-0.2c1.5-0.1,2.7-0.2,3.5-0.2v-5.3
			h-5.8v-6.2h3c-1.8-1.7-3.7-3.3-5.5-4.8c3.7-3.2,6.5-6.8,8.3-10.8l9,0.5c-0.5,1.1-1,2.1-1.6,3h13.1v5.3c1.7-2.5,3.3-5.4,4.8-9
			l8.5,0.7c-0.2,0.2-0.3,0.5-0.5,0.9S647,3,646.7,3.9h13.8v6.7h-7.4c0.8,1.1,1.5,2.2,2.1,3.5l-8.1,0.9c-0.3-0.6-0.8-1.5-1.6-2.5
			c-0.3-0.8-0.6-1.4-0.9-1.8H643c-1.1,1.8-2.3,3.5-3.7,5.1c-1.1-0.6-2.5-1.3-4.4-2.1c-1.2-0.6-2.2-1.1-2.8-1.4
			c0.5-0.6,0.8-1.1,1.2-1.6h-6.5c0.8,1.1,1.5,2.2,2.1,3.5l-8.1,0.9c-0.6-1.4-1.4-2.8-2.3-4.4h-1.4c-1.1,1.4-2.8,3.2-5.1,5.5h15.2
			v6.2h-5.1V27c2,0,3.7-0.1,5.1-0.5c0,1.1-0.1,2.2-0.2,3.5c2.2-2,3.2-4.5,3-7.6v-6.2h24V27c0,0.6,0.3,0.9,0.9,0.9s0.9-0.4,0.9-1.1
			c0.2-0.3,0.3-1.6,0.5-3.9C656.6,22.2,656.6,21.7,656.6,21.4L656.6,21.4z M641.6,23.3c1.8,2.1,3.3,3.8,4.4,4.8v-5.8h-8.1v3.5
			L641.6,23.3z"/>
	</g>
</g>
</svg>
