<?xml version="1.0" encoding="utf-8"?>
<!-- Generator: Adobe Illustrator 27.0.0, SVG Export Plug-In . SVG Version: 6.00 Build 0)  -->
<svg version="1.1" id="_圖層_2" xmlns="http://www.w3.org/2000/svg" xmlns:xlink="http://www.w3.org/1999/xlink" x="0px" y="0px"
	 viewBox="0 0 752.7 310.8" style="enable-background:new 0 0 752.7 310.8;" xml:space="preserve">
<style type="text/css">
	.st0{fill:#FFFFFF;}
</style>
<g id="_圖層_1-2">
	<g>
		<path class="st0" d="M15.5,24.9c-1.5,0.5-3,0.9-4.5,1.4v11.8c0,2.6-0.4,4-1.8,4.8c-1.5,0.9-3.4,1.1-6.5,1
			c-0.1-1.3-0.8-3.6-1.4-5.1c1.6,0.1,3.3,0.1,3.9,0c0.6,0,0.8-0.2,0.8-0.8V27.8c-1.6,0.5-3.1,0.9-4.5,1.3l-1.2-5.3
			c1.6-0.3,3.6-0.8,5.7-1.4v-8.1H0.9V9.2h4.9V0.5H11v8.8h4.3v5.1H11V21l3.8-1.1C14.8,20,15.5,24.9,15.5,24.9z M22.8,0.4h5V20
			c0,9.4-1,18.1-9.2,23.9c-0.9-1.1-2.9-2.8-4-3.7c3.2-2.2,5.2-4.9,6.4-7.9c-1.9,0.8-3.8,1.5-5.5,2.1l-2.1-4.8c2.3-0.6,5.6-1.6,9-2.7
			c0.2-1.5,0.3-2.9,0.3-4.4h-6.5v-4.9h6.5V13h-7V8h7L22.8,0.4L22.8,0.4z M44.5,32.8h-8.1v11.1h-5.3V0.4h5.3V8h7.3v5h-7.3v4.8h6.9
			v4.9h-6.9v5.1h8.1V32.8z"/>
		<path class="st0" d="M67.4,13c-2.1,12.6-7.2,22-13.7,26.9c-0.9-1.3-3.2-3.5-4.5-4.3c5.4-3.6,9.5-10,11.5-18.2h-9.8v-5.6h11.9
			l1-0.2L67.4,13z M90.8,12.2c-3.5,3.4-7.6,7.3-10.9,10c3.6,5.4,8.4,9.7,14.3,12.3c-1.4,1.2-3.2,3.5-4.2,5.2
			c-6.6-3.5-11.6-9.2-15.3-16.1v13.4c0,3.2-0.6,4.8-2.5,5.9c-1.8,1-4.7,1.3-8.5,1.3c-0.2-1.7-1.2-4.5-2.1-6.2c2.6,0.1,5.1,0.1,6,0.1
			c0.8,0,1.1-0.3,1.1-1.1V0.4h6v11.4c0.8,2.1,1.6,4.1,2.6,6c3-2.8,6.2-6.3,8.3-9.2C85.6,8.6,90.8,12.2,90.8,12.2z"/>
		<path class="st0" d="M141.8,23.3c-6.6,14.2-22.1,19.1-40,20.7c-0.4-1.5-1.4-4-2.3-5.4c7.4-0.5,14.4-1.6,20.4-3.7
			c-1.3-1.3-3.2-2.9-4.9-4.3c-1.9,0.9-3.9,1.8-6.1,2.6c-0.7-1.3-2.3-3.3-3.4-4.3c9.7-3,16.2-7.5,19.8-12.1l6.1,1.4
			c-0.9,1.1-1.8,2.1-2.9,3.1h8.4l1-0.3L141.8,23.3L141.8,23.3z M135.5,6.1c-6.1,10.7-19.4,16.5-33,19c-0.5-1.4-1.6-3.7-2.6-4.9
			c4.8-0.7,9.6-1.9,13.9-3.5c-1.3-1.3-3-2.8-4.6-4.2c-1.4,0.8-2.8,1.4-4.3,2.1c-0.8-1.3-2.6-3.2-3.8-4c7.6-2.8,13.2-6.8,16.3-10.4
			l6,1.4c-0.8,0.8-1.7,1.7-2.5,2.5h9.9l1-0.2L135.5,6.1z M114.9,9.1c-0.4,0.3-0.9,0.6-1.4,0.9c2,1.4,3.9,3.1,5.3,4.5
			c3-1.5,5.7-3.4,7.8-5.4L114.9,9.1L114.9,9.1z M122.5,26.3c-0.9,0.6-1.8,1.2-2.7,1.8c1.9,1.4,4.1,3.1,5.5,4.6
			c3.2-1.7,5.9-3.9,7.9-6.4L122.5,26.3L122.5,26.3z"/>
		<path class="st0" d="M191,7.5h-8.2c1.4,1.1,2.8,2.3,3.6,3.2l-3.1,2.8h6.3v8.1h-5.7v-4h-29v4h-5.4v-8.1h1.7c-0.9-1-2.6-2.8-3.6-3.6
			c2.8-2.4,5.4-6.1,6.9-9.8l4.9,1.4c-0.2,0.6-0.5,1.3-0.9,1.9h10.4v3.9c2.1-1.9,3.9-4.5,4.9-7.1l5,1.3c-0.2,0.6-0.5,1.3-0.9,2h13
			L191,7.5L191,7.5z M161.4,13.4c-0.9-1.3-2.8-3.1-4.3-4.3l1.7-1.5h-2.8c-1.5,2.3-3.1,4.3-4.7,5.9L161.4,13.4L161.4,13.4z M160.8,32
			h25.4v12h-5.6v-1.3h-19.9V44h-5.7V19.4h28.6v10.4h-23L160.8,32L160.8,32z M160.8,23.5v2.4h17.5v-2.4H160.8z M160.8,36v2.6h19.9V36
			H160.8z M170.6,9.8c-0.9-0.8-1.9-1.5-2.6-2l0.4-0.3h-6.2c1,0.9,2.1,2,2.8,2.8l-3.4,3.1h5.4c-0.4-0.9-0.8-1.9-1.2-2.7L170.6,9.8
			L170.6,9.8z M182.2,13.4c-1.2-1.3-3.1-3-4.7-4.2l2-1.7h-4.2c-1,1.4-2.2,2.7-3.3,3.6c-0.3-0.3-0.8-0.7-1.3-1.1
			c0.7,1,1.4,2.3,1.8,3.4H182.2L182.2,13.4z"/>
		<path class="st0" d="M215,12.5h-18.4V8.1h7.8c-0.7-1.8-1.9-4.1-3-5.9l4.4-2c1.3,1.9,2.7,4.5,3.4,6.2l-3.1,1.7h8.9L215,12.5
			L215,12.5z M213.1,15.7c4.6-2.5,5.2-5.7,5.2-8.8v-5h15.9v10.2c0,1.4,0.1,1.9,0.7,1.9h1.9c0.7,0,1.7-0.1,2.3-0.3
			c0.1,1.4,0.2,3.3,0.4,4.6c-0.7,0.3-1.7,0.3-2.6,0.3h-2.4c-4.4,0-5.3-2-5.3-6.6V7h-5.6v0.1c0,4.5-1.3,9.7-7.2,12.9
			c-0.5-0.9-2-2.5-3.1-3.5v2.3h-14.4v-4.2h14.4L213.1,15.7L213.1,15.7z M213.2,25h-14.5v-4.2h14.5V25z M238.4,21.8
			c-1.6,5.7-4.1,10.2-7.5,13.6c2.9,1.5,6.1,2.7,9.7,3.4c-1.2,1.1-2.7,3.5-3.4,5c-4.1-1-7.8-2.5-10.9-4.6c-3.2,2-6.9,3.6-10.9,4.7
			c-0.5-1.2-1.3-2.8-2.2-4.2v1.7h-9.6v2h-4.8V27.3h14.4v11.5c3.1-0.8,6.1-1.8,8.7-3.3c-2.4-2.4-4.5-5.4-6.2-8.7l3.1-1.1h-4.4v-5.2
			H234l0.9-0.2L238.4,21.8L238.4,21.8z M208.3,31.7h-4.8v5.2h4.8C208.3,36.9,208.3,31.7,208.3,31.7z M220.7,25.7
			c1.4,2.5,3.2,4.7,5.6,6.6c2.1-1.9,3.8-4.1,5-6.6C231.2,25.7,220.7,25.7,220.7,25.7z"/>
		<path class="st0" d="M266.3,12.5h-19.8V8.1h8.2c-0.7-1.8-1.9-4.1-3-5.9l4.4-2c1.3,1.9,2.7,4.5,3.4,6.2l-3.1,1.7h9.9V12.5
			L266.3,12.5z M248.6,18.8v-4.2h15.8v4.2H248.6z M264.2,25h-15.7v-4.2h15.7V25z M264.4,41.4h-11v2h-4.7V27.3h15.7L264.4,41.4
			L264.4,41.4z M253.5,31.7v5.2h6.1v-5.2L253.5,31.7L253.5,31.7z M288.9,21.3h-8.7v22.6h-5.8V21.4h-8.2v-5.4h8.2V1.3h5.8v14.6h8.7
			V21.3L288.9,21.3z"/>
		<path class="st0" d="M363.1,15.4c-1.4,1-3,1.9-4.4,2.7c1.6,0.8,3.5,1.5,5.5,1.9c-1,0.9-2.4,2.8-3,4c-1.8-0.6-3.4-1.2-4.9-2v2.4
			c0,1,0,1.3,0.7,1.3h1.7c0.6,0,1.7,0,2.2-0.2c0.1,1.1,0.2,2.5,0.3,3.5c-0.6,0.2-1.5,0.3-2.5,0.3h-2.4c-3.6,0-4.3-1.5-4.3-4.9V23
			h-3.1c0,2.5-0.8,5.3-3.9,7.1c-0.5-0.6-1.8-1.9-2.6-2.6v1.5h-7.9l-0.6,2.3h8.3c0,0,0,1.1-0.1,1.7c-0.5,5.7-1,8.3-2.1,9.4
			c-0.9,0.9-1.8,1.2-3.2,1.3c-1.1,0.1-3.1,0.1-5.2,0c-0.1-1.3-0.6-2.9-1.3-4.1c1.8,0.2,3.6,0.2,4.3,0.2c0.7,0,1,0,1.5-0.4
			c0.5-0.5,0.9-1.8,1.2-4.7h-8.9c0.9-2.6,1.8-6.4,2.5-9.5h7.3v-2.5h-4.4c-1.4,0.7-2.7,1.3-4.2,1.7c-0.3-0.7-1-1.8-1.7-2.7
			c-0.3,7.2-1.3,16.1-4.5,22.1c-0.9-1-3.1-2.7-4.2-3.2c3.4-6.8,3.7-16.5,3.7-23.5V3.7h16.2c-0.3-0.5-0.7-0.9-1-1.3l4.6-2.3
			c0.9,1.1,1.9,2.4,2.7,3.6h17.7v4.5H328v9.1c0,1.1,0,2.2,0,3.4c1.6-0.5,3.2-1.3,4.8-2.1c-1-0.8-2.2-1.6-3.2-2.2l3-2.4
			c1.2,0.6,2.5,1.4,3.6,2.2c0.9-0.8,1.8-1.8,2.5-2.8h-7.9V9.8H341l0.8-0.1l2.9,1.2c-1.2,3.4-3.2,6.1-5.7,8.4h3.4v7.6
			c2.2-1.4,2.5-2.8,2.5-4.4v-3.2h7.5c-3-2.6-5.3-5.8-6.8-9.7l4.1-1c0.5,1.2,1.1,2.3,1.8,3.3c1.4-0.8,2.8-1.9,3.7-2.7l3.4,2.1
			c-1.6,1.2-3.4,2.3-4.9,3.1c0.5,0.6,1.1,1.1,1.8,1.6c1.5-0.9,3.1-2.1,4.1-2.9L363.1,15.4L363.1,15.4z M360,30.9
			c-0.9,2.8-2.3,5-4,6.8c1.9,1.1,3.5,2.1,4.8,3l-3,3.2c-1.3-1-3.1-2.2-5.1-3.4c-2.6,1.5-5.5,2.7-8.9,3.5c-0.4-1-1.3-2.7-2.1-3.5
			c2.5-0.5,4.9-1.2,7-2.2c-2.1-1.1-4.2-2.1-6.1-3l1.6-1.6h-0.7v-3.5h13.2l0.8-0.1L360,30.9L360,30.9z M347.9,33.7
			c1.4,0.7,3,1.4,4.4,2.1c0.7-0.7,1.4-1.3,1.9-2.1H347.9L347.9,33.7z"/>
		<path class="st0" d="M386.4,13c-2.1,12.6-7.1,22-13.7,26.9c-0.9-1.3-3.1-3.5-4.5-4.3c5.4-3.6,9.5-10,11.5-18.2h-9.8v-5.6h11.9
			l1-0.2L386.4,13L386.4,13z M409.8,12.2c-3.5,3.4-7.6,7.3-10.9,10c3.6,5.4,8.4,9.7,14.3,12.3c-1.4,1.2-3.2,3.5-4.2,5.2
			c-6.6-3.5-11.6-9.2-15.3-16.1v13.4c0,3.2-0.6,4.8-2.5,5.9c-1.8,1-4.7,1.3-8.5,1.3c-0.2-1.7-1.2-4.5-2.1-6.2c2.6,0.1,5.1,0.1,6,0.1
			c0.8,0,1.1-0.3,1.1-1.1V0.4h6v11.4c0.8,2.1,1.6,4.1,2.6,6c3-2.8,6.2-6.3,8.3-9.2L409.8,12.2L409.8,12.2z"/>
		<path class="st0" d="M447.6,34.1c5,1.6,10.3,3.7,13.4,5.5l-2.5,4.5c-4-2.5-12.2-5.8-18.4-7.7l1.4-2.3h-1.7c-2,3.9-7.2,7.6-19,9.9
			c-0.7-1.2-2.3-3.3-3.3-4.3c8.5-1.5,13-3.5,15.4-5.6h-13.7v-4.8h16.3c0-0.2,0-0.5,0-0.7v-2.8h-12.4V3.7h11.4c0.4-1.2,0.8-2.4,1-3.4
			l6.7,0.5c-0.5,1-1,2-1.5,2.9h14.9v22.1h-5.4c1.7,0.8,3.4,1.8,4.4,2.5l-1.1,1h6.5v4.8H447.6L447.6,34.1z M429,9.9h20.3V7.7H429V9.9
			z M429,15.8h20.3v-2.1H429V15.8z M429,21.7h20.3v-2.2H429V21.7z M441,29.3h8c-1.2-0.8-2.5-1.5-3.7-2l1.8-1.5H441L441,29.3
			L441,29.3z"/>
		<path class="st0" d="M502.7,16.3c-0.1,12.7,0.3,22,3.1,22c0.7,0,0.9-2.6,1-6.5c1.1,1.4,2.5,2.8,3.6,3.5c-0.4,6-1.5,8.5-5,8.5
			c-7,0-8.1-9.8-8.3-23.5h-25.4v-3.7c-0.6,0.5-1.1,1-1.6,1.4c-0.8-1.1-2.7-3.4-3.9-4.5c4.4-3,8.3-7.9,10.5-13.1l5.5,1.6
			c-0.3,0.8-0.7,1.5-1.1,2.3h27.6v4.2h-30c-0.4,0.6-0.8,1.2-1.2,1.8h27.2v4h-27.5v-3.7c-1.5,2.1-3.1,4-4.9,5.6L502.7,16.3
			L502.7,16.3z M480,34.7c-2.1,3.6-5.8,7.3-9.5,9.2c-0.8-1.2-2.4-3-3.5-4c3.4-1.3,7.1-4,8.9-6.7C475.9,33.2,480,34.7,480,34.7z
			 M485.5,32.6v11.2h-5.3V32.6h-11.6v-4.2h5.4c-0.5-1.5-1.6-3.8-2.9-5.3l4.2-1.7c1.3,1.7,2.7,3.9,3.1,5.4l-3.9,1.6h5.6v-7h5.3v7h4
			l-2.5-1c1.1-1.6,2.5-4.1,3.2-5.8l4.9,1.5c-1.5,1.9-3.1,3.9-4.3,5.3h5.6v4.2H485.5L485.5,32.6z M489.3,33.1
			c2.8,1.9,6.7,4.8,8.7,6.7l-3.3,3.4c-1.8-2-5.6-5-8.5-7.1L489.3,33.1L489.3,33.1z"/>
		<path class="st0" d="M543.9,15.5c5,3.6,12.3,9,15.7,12.6l-4.8,4.2c-2.9-3.5-9.3-8.8-14.4-12.6v24.1h-6.1V21.1
			c-4.3,4.5-9.3,8.6-15,11.5c-0.9-1.5-2.6-3.8-3.9-5c8.6-4,15.9-11.2,20.3-18.3H517V3.5h40.8v5.7h-14.6c-0.8,1.4-1.7,2.9-2.7,4.3
			v4.8L543.9,15.5L543.9,15.5z"/>
		<path class="st0" d="M608.3,33.3h-5.4V38c0,2.8-0.6,4.3-2.6,5.1c-1.9,0.9-4.7,0.9-8.7,0.9c-0.3-1.5-1.1-3.8-1.9-5.2
			c2.6,0.1,5.6,0.1,6.5,0.1s1.1-0.2,1.1-1v-4.5h-22.2V44h-5.5V33.3h-5.4v-5.1h5.4V11.1h13.7V8h-17.1V2.9h40.2V8h-17.5v3.1h14v17.1
			h5.4L608.3,33.3L608.3,33.3z M575.2,16.1v3.6h8.1v-3.6H575.2z M575.2,28.2h8.1v-3.8h-8.1V28.2z M588.9,16.1v3.6h8.4v-3.6H588.9z
			 M597.3,28.2v-3.8h-8.4v3.8H597.3z"/>
		<path class="st0" d="M628.9,36.5h-9.2v3.8h-5.1V3h14.3V36.5z M619.7,7.9v4.7h3.9V7.9C623.6,7.9,619.7,7.9,619.7,7.9z M619.7,22
			h3.9v-4.8h-3.9V22z M623.6,31.7v-5h-3.9v5H623.6z M657,23.7v4.1h-27v-4.1h10V22h-7.3v-3.8h7.3v-2c-2.5,0.1-5.1,0.1-7.4,0.1
			c-0.1-1-0.7-2.6-1.2-3.5c2.7-0.1,5.7-0.1,8.6-0.3V9.8h5.3v2.1c2.2-0.2,4.1-0.5,5.7-0.8l0.2,0.2V8.8h-16v3.4h-5.1V4.7h11.1
			c-0.6-1.1-1.4-2.3-2.2-3.2l4.8-1.5c1.3,1.4,2.5,3.2,3.2,4.7h9.6v7.4h-4.5l2.4,2.3c-2.6,0.6-5.7,1-9.1,1.3v2.4h9V22h-9v1.8H657
			L657,23.7z M632.5,29.7h21.8v14.1h-5.7v-1.3H638V44h-5.5L632.5,29.7L632.5,29.7z M638,33.9v4.4h10.6v-4.4H638z"/>
		<path class="st0" d="M676.6,25c-1.4,0.4-2.7,0.8-4,1.3v11.4c0,2.6-0.5,4-1.9,4.8c-1.4,0.8-3.4,1.1-6.4,1c-0.1-1.4-0.8-3.6-1.5-5.2
			c1.7,0.1,3.3,0.1,3.9,0.1s0.8-0.2,0.8-0.8v-9.9l-4.1,1.3l-1.3-5.3c1.5-0.4,3.4-0.8,5.4-1.3v-8h-5V9.2h5V0.4h5.1v8.8h3.5v5.1h-3.5
			v6.6l3.1-0.9V16h2.9l-0.5-13.3c2.2-0.5,4.7-1.3,6.2-2.1l2.2,2.8l1.7-1.6c0.6,0.4,1.4,0.8,2.2,1.3c0.5-0.6,0.9-1.2,1.2-1.9l3.1,0.8
			c-0.5,0.9-1,1.8-1.7,2.7c0.8,0.6,1.5,1,2.1,1.5L693,8.4c-0.5-0.5-1.3-1-2.1-1.6c-0.9,0.8-1.9,1.6-2.8,2.3c-0.4-0.5-1.3-1.3-2-1.9
			v2.1h-3.2l0,2h3.2V14c0.8-0.4,1.5-0.9,2.1-1.4c-0.7-0.5-1.4-0.9-2-1.3l2-2.1c0.7,0.4,1.4,0.8,2.1,1.3c0.5-0.6,0.9-1.2,1.3-1.9
			l3.1,0.8c-0.5,0.9-1.1,1.8-1.8,2.7c0.9,0.6,1.8,1.2,2.4,1.6l-2,2.3h5.4l0.1-1.7h-3.4v-3h3.6l0.1-1.9h-3.6V6.4h3.7l0-1.9h-4V1.6
			h8.4c-0.1,4.6-0.3,10.4-0.7,14.4h2.1v7.7H701v-4.1h-21.4v4.1h-3.3L676.6,25L676.6,25z M701.1,39.9c1,0,1.2-0.5,1.3-3.5
			c0.9,0.7,2.7,1.3,4,1.5c-0.5,4.5-1.7,5.6-4.7,5.6h-4.3c-4.2,0-5.2-1.2-5.2-4.8v-2.9H689c-1.1,4.3-3.6,6.8-11.1,8.3
			c-0.4-1.2-1.6-2.8-2.5-3.7c5.7-0.9,7.6-2.2,8.5-4.6H680V21.1h20.9v14.8h-4v2.9c0,1,0.2,1.1,1.2,1.1H701.1L701.1,39.9z M686.1,6.7
			c0.8-0.5,1.5-1,2.2-1.6c-0.7-0.5-1.5-0.9-2.1-1.3c-1.1,0.4-2.3,0.7-3.4,1l0,1.5h3.3V6.7z M683.1,16h4.2c-0.6-0.6-1.4-1.2-1.9-1.6
			l0.4-0.2H683L683.1,16L683.1,16z M684.8,25.4h11.1v-1.5h-11.1V25.4z M684.8,29.2h11.1v-1.5h-11.1V29.2z M684.8,33.1h11.1v-1.6
			h-11.1V33.1z M693.2,16c-0.6-0.5-1.4-1.1-2.3-1.7c-0.7,0.6-1.4,1.2-2.2,1.7H693.2z"/>
		<path class="st0" d="M725.8,20.2c1.9,1.9,6.1,6.8,7.2,8l-3.2,4.6c-0.9-1.6-2.4-3.9-4-6.1v17.2h-5.7V27.3
			c-1.9,4.4-4.1,8.4-6.6,11.1c-0.5-1.6-1.9-3.8-2.8-5.2c3.2-3.4,6.2-8.7,8-13.9h-7v-5.1h8.4V8.2c-2.3,0.4-4.6,0.7-6.7,1
			c-0.2-1.3-0.9-3.1-1.5-4.3c6.1-0.8,13-2.3,17.3-4l3.6,4.3c-2.1,0.8-4.5,1.4-7,2v7.1h6.8v5.1h-6.8L725.8,20.2L725.8,20.2z
			 M752.6,4.8v36.6h-5.8V38h-7.5v3.7h-5.5V4.8H752.6z M746.9,32.7V10.1h-7.5v22.6H746.9z"/>
		<path class="st0" d="M9.3,88.9c-1.8-1.6-5.7-3.8-8.7-5.1l2.9-4.2c3,1.1,7,3.1,8.9,4.7L9.3,88.9L9.3,88.9z M2.1,106.3
			c2.4-3.5,5.8-9.3,8.5-14.6l4.2,3.6c-2.4,4.9-5.2,10.2-7.9,14.7C6.9,109.9,2.1,106.3,2.1,106.3z M6.4,67.2c3,1.1,6.9,3.2,8.8,4.8
			l-3.3,4.5c-1.7-1.7-5.6-3.9-8.6-5.2C3.3,71.3,6.4,67.2,6.4,67.2z M44.6,90.2H33.2v13.3c0,3.1-0.6,4.8-2.6,5.8
			c-2,1-4.9,1.1-9.1,1.1c-0.2-1.7-1.1-4.5-1.9-6.2c2.6,0.2,5.7,0.1,6.6,0.1c0.9-0.1,1.2-0.3,1.2-1V90.2h-12v-5.4h11.9v-9.5H17V70
			h26.7v5.4H33.2v9.5h11.4V90.2z"/>
		<path class="st0" d="M67.4,79.5c-2.1,12.6-7.2,22-13.7,26.9c-0.9-1.3-3.2-3.5-4.5-4.3c5.4-3.6,9.5-10,11.5-18.2h-9.8v-5.6h11.9
			l1-0.2L67.4,79.5z M90.8,78.7c-3.5,3.4-7.6,7.3-10.9,10c3.6,5.4,8.4,9.7,14.3,12.3c-1.4,1.2-3.2,3.5-4.2,5.2
			c-6.6-3.5-11.6-9.2-15.3-16.1v13.4c0,3.2-0.6,4.8-2.5,5.9c-1.8,1-4.7,1.3-8.5,1.3c-0.2-1.7-1.2-4.5-2.1-6.2c2.6,0.1,5.1,0.1,6,0.1
			c0.8,0,1.1-0.3,1.1-1.1V67h6v11.4c0.8,2.1,1.6,4.1,2.6,6c3-2.8,6.2-6.3,8.3-9.2L90.8,78.7z"/>
		<path class="st0" d="M141.9,81.9c-1.4,1-3,1.9-4.4,2.7c1.6,0.8,3.5,1.4,5.5,1.9c-1,0.9-2.4,2.8-3,4c-1.8-0.6-3.4-1.2-4.9-2.1v2.4
			c0,1,0.1,1.3,0.7,1.3h1.7c0.6,0,1.7,0,2.2-0.2c0.1,1.1,0.2,2.5,0.3,3.5c-0.6,0.2-1.6,0.3-2.4,0.3h-2.4c-3.6,0-4.3-1.5-4.3-4.9
			v-1.3h-3.1c-0.1,2.5-0.8,5.3-3.9,7.1c-0.5-0.7-1.8-1.9-2.6-2.6v1.4h-7.9l-0.6,2.3h8.3c0,0-0.1,1.1-0.1,1.7c-0.5,5.7-1,8.3-2.1,9.4
			c-0.8,0.9-1.8,1.2-3.2,1.3c-1.1,0.1-3.1,0.1-5.2,0.1c-0.1-1.3-0.6-2.9-1.3-4.1c1.8,0.2,3.6,0.2,4.3,0.2c0.7,0,1-0.1,1.5-0.4
			c0.5-0.5,0.8-1.8,1.2-4.7h-8.9c0.9-2.6,1.8-6.4,2.4-9.5h7.3v-2.5h-4.4c-1.4,0.7-2.7,1.3-4.2,1.7c-0.3-0.7-1-1.8-1.7-2.7
			c-0.3,7.2-1.3,16.1-4.5,22.1c-0.9-1-3.1-2.7-4.2-3.2c3.4-6.8,3.7-16.5,3.7-23.5V70.2h16.2c-0.3-0.5-0.7-0.9-1-1.3l4.6-2.3
			c0.9,1.1,1.9,2.4,2.7,3.6h17.7v4.5h-35.1v9.1c0,1.1,0,2.2-0.1,3.4c1.7-0.5,3.2-1.3,4.8-2.1c-1-0.8-2.2-1.6-3.2-2.2l3-2.4
			c1.2,0.6,2.5,1.4,3.6,2.2c0.9-0.8,1.8-1.8,2.5-2.8h-7.9v-3.7h10.3l0.8-0.1l2.9,1.2c-1.2,3.4-3.2,6.2-5.7,8.4h3.4v7.6
			c2.2-1.3,2.4-2.8,2.4-4.4v-3.2h7.5c-3-2.6-5.3-5.8-6.8-9.7l4.1-1c0.5,1.2,1.1,2.3,1.8,3.3c1.4-0.8,2.8-1.9,3.7-2.7l3.4,2.1
			c-1.6,1.2-3.4,2.3-4.9,3.1c0.5,0.6,1.1,1.1,1.8,1.6c1.5-0.9,3.1-2.1,4.1-2.9L141.9,81.9L141.9,81.9z M138.8,97.5
			c-0.9,2.8-2.3,5-4.1,6.8c1.9,1.1,3.5,2.1,4.8,3l-3,3.2c-1.3-1-3.1-2.2-5.1-3.4c-2.6,1.5-5.6,2.7-8.9,3.4c-0.4-1-1.3-2.7-2.1-3.5
			c2.5-0.5,4.9-1.2,7-2.2c-2.1-1.1-4.2-2.1-6.1-3l1.6-1.6h-0.7v-3.5h13.2l0.8-0.1L138.8,97.5L138.8,97.5z M126.7,100.2
			c1.4,0.7,3,1.4,4.4,2.1c0.7-0.7,1.4-1.3,1.9-2.1H126.7z"/>
		<path class="st0" d="M165.2,79.5c-2.1,12.6-7.1,22-13.7,26.9c-0.9-1.3-3.1-3.5-4.5-4.3c5.4-3.6,9.5-10,11.5-18.2h-9.8v-5.6h11.9
			l1-0.2L165.2,79.5L165.2,79.5z M188.6,78.7c-3.5,3.4-7.6,7.3-10.9,10c3.6,5.4,8.4,9.7,14.3,12.3c-1.4,1.2-3.2,3.5-4.2,5.2
			c-6.6-3.5-11.6-9.2-15.3-16.1v13.4c0,3.2-0.6,4.8-2.5,5.9c-1.8,1-4.7,1.3-8.5,1.3c-0.2-1.7-1.2-4.5-2.1-6.2c2.6,0.1,5.1,0.1,6,0.1
			c0.8,0,1.1-0.3,1.1-1.1V67h6v11.4c0.8,2.1,1.6,4.1,2.6,6c3-2.8,6.2-6.3,8.3-9.2L188.6,78.7L188.6,78.7z"/>
		<path class="st0" d="M227.4,67.7c2.2,6.8,7,13.4,13.5,16.8c-1.1,1.2-3.1,3.5-3.9,5.1c-1.2-0.8-2.4-1.7-3.6-2.7
			c-0.5,13.8-1.1,19.1-2.7,21c-1.2,1.5-2.4,2-4.3,2.2c-1.6,0.2-4.3,0.2-7.1,0.1c-0.1-1.7-0.9-4-1.8-5.6c2.6,0.2,5,0.2,6.2,0.2
			c0.9,0,1.4-0.1,1.9-0.7c0.9-1,1.5-5.2,1.9-14.9h-9.3c-1.2,8.9-4.2,16.9-16.4,21.5c-0.7-1.6-2.4-3.9-3.7-5.1
			c10.6-3.4,13.1-9.6,14-16.3H204v-3.1c-1.1,1.2-2.3,2.3-3.5,3.4c-1-1.1-3.4-3.2-4.7-4.1c5.3-3.8,9.5-10,11.7-17l5.9,1.4
			c-1.7,5.2-4.3,10.1-7.4,14h24.4c-3.1-3.3-5.5-7.2-7.1-11.1h-7.5v-5.2L227.4,67.7L227.4,67.7z"/>
		<path class="st0" d="M288.9,74h-8.2c1.4,1.1,2.8,2.3,3.6,3.2l-3.1,2.8h6.3V88h-5.7v-4h-29v4h-5.4v-8.1h1.7c-0.9-1-2.6-2.8-3.6-3.6
			c2.8-2.4,5.4-6.1,6.9-9.8l4.9,1.4c-0.2,0.6-0.5,1.3-0.9,1.9h10.4v3.9c2.1-1.9,3.9-4.5,4.9-7.1l5,1.3c-0.2,0.7-0.5,1.3-0.9,2h13
			L288.9,74L288.9,74z M259.3,79.9c-0.9-1.3-2.8-3.1-4.3-4.3l1.7-1.5H254c-1.5,2.3-3.1,4.3-4.7,5.9L259.3,79.9L259.3,79.9z
			 M258.6,98.5h25.5v12h-5.6v-1.3h-19.9v1.3H253V86h28.6v10.4h-23V98.5z M258.6,90v2.4h17.5V90H258.6z M258.6,102.6v2.6h19.9v-2.6
			H258.6z M268.5,76.3c-0.9-0.8-1.9-1.5-2.6-2l0.4-0.3h-6.2c1,0.9,2.1,2,2.8,2.8l-3.4,3.1h5.4c-0.4-0.9-0.8-1.9-1.2-2.7L268.5,76.3z
			 M280.1,79.9c-1.2-1.3-3.1-3-4.7-4.2l2-1.7h-4.2c-1,1.4-2.2,2.7-3.3,3.6c-0.3-0.3-0.8-0.7-1.3-1.1c0.7,1,1.4,2.3,1.8,3.4H280.1
			L280.1,79.9z"/>
		<path class="st0" d="M309.1,91.5c-1.5,0.5-3,0.9-4.5,1.3v11.8c0,2.6-0.4,4-1.8,4.8c-1.5,0.9-3.4,1.1-6.5,1
			c-0.1-1.3-0.8-3.6-1.4-5.1c1.6,0.1,3.3,0.1,3.9,0.1c0.6,0,0.8-0.2,0.8-0.8V94.4c-1.5,0.5-3.1,0.9-4.5,1.3l-1.2-5.3
			c1.6-0.3,3.6-0.8,5.7-1.3v-8.1h-4.9v-5.1h4.9v-8.8h5.1v8.8h4.3v5.1h-4.3v6.7l3.8-1.1L309.1,91.5L309.1,91.5z M316.4,67h5v19.6
			c0,9.4-1,18.1-9.2,23.9c-0.9-1.1-2.9-2.8-4-3.7c3.2-2.2,5.2-4.9,6.4-7.9c-1.9,0.8-3.8,1.5-5.5,2.1l-2.1-4.8c2.4-0.6,5.6-1.6,9-2.7
			c0.2-1.4,0.3-2.9,0.3-4.4h-6.5v-4.8h6.5v-4.8h-7v-5h7L316.4,67L316.4,67z M338.1,99.3H330v11.1h-5.3V67h5.3v7.6h7.3v5H330v4.8h6.9
			v4.8H330v5.1h8.1C338.1,94.3,338.1,99.3,338.1,99.3z"/>
		<path class="st0" d="M361,79.5c-2.1,12.6-7.1,22-13.7,26.9c-0.9-1.3-3.1-3.5-4.5-4.3c5.4-3.6,9.5-10,11.5-18.2h-9.8v-5.6h11.9
			l1-0.2L361,79.5L361,79.5z M384.4,78.7c-3.5,3.4-7.6,7.3-10.9,10c3.6,5.4,8.4,9.7,14.3,12.3c-1.4,1.2-3.2,3.5-4.2,5.2
			c-6.6-3.5-11.6-9.2-15.3-16.1v13.4c0,3.2-0.6,4.8-2.5,5.9c-1.8,1-4.7,1.3-8.5,1.3c-0.2-1.7-1.2-4.5-2.1-6.2c2.6,0.1,5.1,0.1,6,0.1
			c0.8,0,1.1-0.3,1.1-1.1V67h6v11.4c0.8,2.1,1.6,4.1,2.6,6c3-2.8,6.2-6.3,8.3-9.2L384.4,78.7L384.4,78.7z"/>
		<path class="st0" d="M43.8,149.3c0,0,0,1.6,0,2.2c-0.3,15.8-0.7,21.5-1.9,23.2c-0.9,1.3-1.8,1.8-3.1,2c-1.1,0.2-2.8,0.2-4.6,0.2
			c0-0.9-0.3-2-0.6-3l-0.7,0.2c-0.1-0.5-0.2-1.1-0.4-1.7c-6.1,0.6-12.2,1.4-16.8,1.9l-0.5-4.5c2.5-0.1,5.6-0.4,9-0.7v-3h-7.2v-8.6
			c-0.7-0.6-1.8-1.6-2.9-2.4c0.1,1.2,0.1,2.4,0.1,3.6c0,6.6-0.4,13.1-2.5,16c-0.7,0.9-1.6,1.6-2.8,1.8c-1.7,0.4-3.5,0.5-5.5,0.4
			c0-1.8-0.4-3.7-1.4-5.3c2,0.1,3.4,0.1,4.3,0.1c0.6-0.1,1-0.3,1.4-0.8c0.9-1.1,1.3-5.7,1.3-10.9c-1.7,2.2-3.5,4.2-5.2,5.7
			c-0.8-1.4-2.3-3.2-3.6-4.2c3.1-2,6.4-5.8,8.5-9.4c-0.2-1.6-0.5-3.1-0.9-4.6c-1.2,1.3-2.5,2.4-3.8,3.4c-0.9-1.1-2.6-2.8-3.8-3.6
			c1.8-1.4,3.6-3.1,5.3-5c-1.2-2-2.7-3.9-4.7-5.7l3.9-2.9c1.6,1.4,3,2.9,4.1,4.4c0.9-1.4,1.7-2.8,2.4-4.2l4.9,2.4
			c-1.3,2.3-2.8,4.6-4.5,6.8c1.5,3.4,2.1,6.9,2.4,10.5c2.1-1.8,4-4.1,5.4-6.6h-3.1v-11.8h26.5V147H24.8c-0.3,0.8-0.8,1.6-1.2,2.3
			L43.8,149.3L43.8,149.3z M34.1,166.2c1,1.9,1.9,4.2,2.4,6.1c0.3-0.1,0.5-0.3,0.7-0.6c0.7-1,1.1-5.4,1.4-17.9H20.8
			c-0.9,1.1-1.7,2.1-2.6,2.9h6v-2.2h4.2v2.2h7.4v9.6C35.7,166.2,34.1,166.2,34.1,166.2z M20.9,142.9h3v-3.5h-3
			C20.9,139.3,20.9,142.9,20.9,142.9z M24.1,162.8v-2.8H21v2.8H24.1z M27.8,142.9h3v-3.5h-3V142.9z M28.3,162.8h3.1v-2.8h-3.1V162.8
			z M31,168.6c-0.2-0.6-0.5-1.1-0.8-1.6l2.8-0.8h-4.7v2.7L31,168.6L31,168.6z M34.7,142.9h3.1v-3.5h-3.1V142.9z"/>
		<path class="st0" d="M92.9,169.7v5.6H50.2v-5.6h23c2.3-5.7,4.8-14.2,6.1-20.8l6.3,1.2c-1.8,6.8-4.2,14.1-6.3,19.5L92.9,169.7
			L92.9,169.7z M90.9,147.5H52.3v-5.6h17.1c-0.5-2.1-1.4-5.2-2.3-7.5l5.6-1.4c1,2.3,2,5.4,2.5,7.4l-5,1.4h20.7L90.9,147.5
			L90.9,147.5z M62,168.6c-0.6-5-2.3-12.6-3.9-18.4l5.7-1.4c1.8,5.9,3.5,13.2,4.3,18.2L62,168.6L62,168.6z"/>
		<path class="st0" d="M129.5,134.2c2.2,6.8,7,13.4,13.5,16.8c-1.1,1.2-3.1,3.5-3.9,5.1c-1.2-0.8-2.4-1.7-3.6-2.7
			c-0.5,13.8-1.1,19.1-2.7,21c-1.2,1.5-2.4,2-4.3,2.2c-1.6,0.2-4.3,0.2-7.1,0.1c-0.1-1.7-0.8-4-1.8-5.6c2.6,0.2,5,0.2,6.2,0.2
			c0.8,0,1.4-0.1,1.9-0.6c0.9-1,1.5-5.2,1.9-14.9h-9.3c-1.2,8.9-4.2,16.9-16.4,21.4c-0.7-1.6-2.3-3.9-3.7-5.1
			c10.6-3.4,13.1-9.6,14-16.3h-7.9v-3.1c-1.1,1.2-2.3,2.3-3.5,3.4c-1-1.1-3.4-3.2-4.7-4.1c5.3-3.8,9.5-10,11.7-17l5.9,1.4
			c-1.7,5.2-4.3,10.1-7.4,14h24.4c-3.1-3.3-5.5-7.2-7.1-11.1h-7.5v-5.2L129.5,134.2L129.5,134.2z"/>
		<path class="st0" d="M156.2,156c-1.8-1.6-5.7-3.8-8.7-5l2.9-4.2c3,1.1,7,3.1,8.9,4.7L156.2,156z M161.3,161.8
			c-2.5,4.9-5.5,10.2-8.2,14.7l-4.8-3.7c2.5-3.5,6.1-9.3,8.9-14.7L161.3,161.8z M157.8,143.6c-1.7-1.7-5.4-4.1-8.4-5.4l3.1-4.1
			c2.9,1.3,6.7,3.3,8.6,5.1L157.8,143.6z M165,156h5v4.5c0,5.2-0.8,11.7-7,16.4c-0.8-1.1-2.7-2.9-3.9-3.6c5.3-3.8,5.9-8.9,5.9-13
			V156L165,156z M186.9,156.1c-0.5-0.8-1.2-1.9-2-3c-17.4,1.2-20,1.4-21.7,2.1c-0.3-1.1-1.1-3.7-1.7-5.1c1.2-0.3,2.2-1.3,3.6-2.9
			c0.6-0.6,1.5-1.7,2.5-3.2h-6.2v-4.9h9.4c1.1-1.9,2.2-3.8,3.1-5.8l5.5,2.1c-0.7,1.3-1.4,2.5-2.2,3.7h13.4v4.9H184
			c2.4,2.9,5.7,6.8,7.4,9.2L186.9,156.1L186.9,156.1z M173.7,144.1c-1.4,1.9-2.9,3.7-4.3,5.4l12.2-0.6c-0.8-1-1.6-2-2.3-2.8l3.3-1.9
			H173.7L173.7,144.1z M172.9,156.4h4.9V175h-4.9V156.4z M188.4,171.8c0.7,0,1.6-0.1,2.3-0.3c0.1,1.3,0.2,3,0.4,4.2
			c-0.7,0.3-1.7,0.3-2.6,0.3h-2.4c-4.4,0-5.3-1.9-5.3-6.3V156h5.1v13.8c0,1.5,0.1,2,0.7,2L188.4,171.8L188.4,171.8z"/>
		<path class="st0" d="M232.9,155.3c-0.7,4.1-1.7,8.5-3.1,12c1,0.5,2.1,1.4,3.9,2.4c3.2,1.9,7.8,2.2,13.3,2.2s14-0.5,19.2-1.2
			c-0.6,1.4-1.5,4-1.6,5.4c-3.8,0.2-12.3,0.5-17.9,0.5c-6.3,0-10.4-0.5-13.8-2.4c-2-1.2-3.7-2.7-4.7-2.7s-2.4,3.1-3.4,5.8l-3.5-5
			c1.1-1.4,2.2-2.7,3.3-3.5c1.1-2.6,2.1-6.1,2.8-9.4h-4.7c0.9-2.8,2.1-6.5,3-10.1h-3.5v-4.9h9.6c-0.9,3.3-1.9,7-2.8,10.3h1.1
			l0.7-0.1L232.9,155.3L232.9,155.3z M226.6,143c-0.5-2.1-1.6-5.5-2.3-8l4.3-1.3c0.8,2.5,1.8,5.7,2.4,7.8L226.6,143z M236.7,162.7
			c-0.5,1.1-1,2.1-1.6,3c-0.7-0.9-2.6-2.7-3.5-3.2c3.3-5.7,3.6-13.7,3.6-19.2v-7.9h12.6v13.8h-8.3c-0.1,1.2-0.2,2.4-0.4,3.7h9.1
			v14.3H241v1.8h-4.3L236.7,162.7L236.7,162.7z M239.8,139.5v5.4h3.8v-5.4H239.8z M241,157v5.9h3V157H241z M254.6,154.4h-5.8V150
			h8.5c0.9-2,1.8-4.7,2.3-6.6l4.5,1c-0.9,1.9-1.7,3.9-2.5,5.6h3.8v4.4h-5.7v3.4h5.3v4.4h-5.3v6.9h-5v-6.9h-5.4v-4.4h5.4L254.6,154.4
			L254.6,154.4z M265,143.3h-15.9v-4.3h5.6c-0.4-1.4-1-2.8-1.6-4.1l4.5-1.3c0.9,1.7,1.7,3.7,2.2,5.4h5.2V143.3z M252.1,150
			c-0.1-1.6-0.7-3.9-1.4-5.6l3.8-0.9c0.8,1.7,1.4,3.9,1.6,5.4L252.1,150z"/>
		<path class="st0" d="M307.3,171.3c1.6,0,1.9-0.8,2.1-6c1.2,0.9,3.6,1.8,5.1,2.1c-0.6,6.9-2.1,8.8-6.7,8.8h-6.4
			c-5.6,0-7.1-1.6-7.1-6.6V161h-0.8c-2.5,6.9-7.6,12.5-19.4,15.8c-0.6-1.4-1.9-3.4-3.1-4.7c9.6-2.4,14.2-6.3,16.4-11.1h-11.8v-10.4
			c-0.5,0.4-1,0.8-1.5,1.2c-0.9-1.4-2.6-3.3-4-4.2c6.3-4.1,10.8-9.6,13.2-14.2l6,1.1c-0.4,0.7-0.8,1.4-1.3,2.1h9.4l0.9-0.2l3.9,2.5
			c-1.1,1.9-2.7,4.2-4.4,6.3h12.7V161h-10.5v8.5c0,1.6,0.3,1.8,2.1,1.8L307.3,171.3L307.3,171.3z M289.1,156.1c0.4-2,0.6-3.9,0.8-6
			h-8.6v6H289.1z M285.1,141.1c-1.1,1.4-2.2,2.7-3.4,4h9.8c1-1.2,2.1-2.6,3-4H285.1z M295.8,150c-0.2,2.1-0.5,4.1-0.9,6h9.8v-6
			H295.8L295.8,150z"/>
		<path class="st0" d="M337.5,137.2c-1.3,3.9-2.9,8.6-4.2,12.2c3,3.6,3.6,6.9,3.6,9.7c0,3-0.6,4.9-2.2,6.1c-0.7,0.6-1.6,0.8-2.7,1
			c-0.9,0.1-2,0.1-3.1,0.1c0-1.4-0.4-3.4-1.2-4.8c0.9,0.1,1.6,0.1,2.1,0.1c0.5,0,1-0.1,1.4-0.4c0.6-0.4,0.9-1.4,0.9-2.8
			c0-2.2-0.7-5.2-3.4-8.5c0.9-2.8,2-6.6,2.8-9.6h-4.4V177h-5.2v-41.6h11.4l0.8-0.2L337.5,137.2L337.5,137.2z M363.6,170.6v5.1h-29.4
			v-5.1h4.7v-34.7H360v34.7H363.6z M344.2,141v6.3h10.2V141H344.2z M354.4,152.3h-10.2v6.5h10.2V152.3z M344.2,170.6h10.2v-6.8
			h-10.2V170.6z"/>
		<path class="st0" d="M402,160.4c2.8,2.1,6.8,3.9,10.7,4.9c-1.2,1.1-2.8,3.1-3.6,4.4c-2.5-0.8-5.1-2.1-7.4-3.6v2.6h-8.4v3h15.4v4.5
			h-36.1v-4.5h15.4v-3h-8.1V166c-2.4,1.6-5.1,3-7.8,3.9c-0.8-1.3-2.4-3.2-3.5-4.2c3.9-1.1,8-3,10.8-5.2h-9.5v-4.6h11.5v-2.1H375
			v-3.8h6.4v-2.1h-6.9v-2.7H370v-8.9h17.7c-0.4-0.8-0.8-1.6-1.1-2.3l6-1.1c0.6,1,1.4,2.2,2,3.4h16.6v8.9h-4.5v2.7H400v2.1h6.4v3.8
			H400v2.1h11.4v4.6L402,160.4L402,160.4z M381.3,144v-2.1h5.3v2.1h8v-2.1h5.4v2.1h5.5v-3h-30v3H381.3z M399.4,164.5
			c-1.5-1.3-3-2.6-4.1-4.1h-9.2c-1.1,1.4-2.6,2.8-4.2,4.1h6.1v-2.9h5.3v2.9H399.4z M386.6,149.9h8v-2.1h-8V149.9z M386.6,155.8h8
			v-2.1h-8V155.8z"/>
		<path class="st0" d="M432.2,153.3c1.9,1.9,6.1,6.8,7.1,8l-3.2,4.6c-0.9-1.6-2.4-3.9-4-6.1V177h-5.6v-16.6
			c-1.9,4.4-4.1,8.4-6.6,11.1c-0.5-1.6-1.9-3.8-2.8-5.2c3.2-3.4,6.2-8.7,8-13.9h-7v-5.1h8.4v-6.1c-2.3,0.4-4.6,0.7-6.7,1
			c-0.2-1.3-0.9-3.1-1.5-4.3c6.1-0.8,13-2.3,17.3-4l3.6,4.3c-2.1,0.8-4.5,1.4-7,2v7.1h6.8v5.1h-6.8L432.2,153.3L432.2,153.3z
			 M459,137.9v36.6h-5.8v-3.4h-7.5v3.7h-5.5v-36.9H459z M453.2,165.8v-22.6h-7.5v22.6H453.2z"/>
		<path class="st0" d="M496.5,160.9c-1.1,4.2-3.7,8-9.2,10.5c1.4,0.1,2.8,0.1,4.4,0.1c5.4,0,13.8-0.5,19-1.2
			c-0.7,1.5-1.5,4.2-1.6,5.7c-4,0.2-12.2,0.6-17.7,0.6c-6.3,0-10.2-0.5-13.5-2.5c-2-1.1-3.6-2.6-4.6-2.6c-1.1,0-2.7,3.2-3.7,5.8
			l-3.8-5.3c2-2.4,4.1-4.2,5.8-5c1.1-2.2,2.1-5.1,2.9-7.8h-6.3c1.1-2.6,2.3-6.3,3.5-9.8h-5v-4.9h11.6c-1,3.2-2.2,6.8-3.3,10h2.7
			l0.8-0.2l2.4,1c-1,4.5-2.5,9.1-4.4,12.7c0.6,0.4,1.3,0.9,2.2,1.4c2.2,1.3,5,1.9,8.4,2.1c-0.7-1.2-2.3-3-3.3-3.9
			c4.2-1.4,6.3-3.9,7.3-6.6H482v-13.5h5.2v8.7h4.6v-10.6h-12.3v-4.9h6.9c-0.8-1.6-2.1-3.5-3.2-5l4.5-2.2c1.5,1.7,3.3,4.1,4,5.8
			l-2.7,1.4h7.9c1.3-2.1,2.8-4.9,3.6-7.1l5.9,1.4c-1.2,2.1-2.4,4-3.5,5.7h6.9v4.9h-12.4v10.6h4.9v-8.8h5.5v13.6L496.5,160.9
			L496.5,160.9z M471.9,143.2c-0.6-2.1-1.7-5.4-2.6-7.8l5.1-1.5c0.9,2.5,2,5.6,2.7,7.6L471.9,143.2L471.9,143.2z"/>
		<path class="st0" d="M524.1,156c-1.8-1.6-5.7-3.8-8.7-5l2.9-4.2c3,1.1,7,3.1,8.9,4.7L524.1,156L524.1,156z M529.2,161.8
			c-2.5,4.9-5.5,10.2-8.2,14.7l-4.8-3.7c2.5-3.5,6.1-9.3,8.9-14.7L529.2,161.8L529.2,161.8z M525.7,143.6c-1.7-1.7-5.4-4.1-8.4-5.4
			l3.2-4.1c2.9,1.3,6.7,3.3,8.6,5.1L525.7,143.6L525.7,143.6z M532.9,156h5v4.5c0,5.2-0.8,11.7-7,16.4c-0.8-1.1-2.7-2.9-4-3.6
			c5.3-3.8,5.9-8.9,5.9-13V156L532.9,156z M554.8,156.1c-0.5-0.8-1.2-1.9-2-3c-17.5,1.2-20,1.4-21.7,2.1c-0.3-1.1-1.1-3.7-1.7-5.1
			c1.2-0.3,2.2-1.3,3.6-2.9c0.6-0.6,1.5-1.7,2.5-3.2h-6.2v-4.9h9.4c1.1-1.9,2.2-3.8,3.2-5.8l5.5,2.1c-0.7,1.3-1.4,2.5-2.2,3.7h13.4
			v4.9H552c2.5,2.9,5.7,6.8,7.4,9.2L554.8,156.1L554.8,156.1z M541.7,144.1c-1.4,1.9-2.9,3.7-4.3,5.4l12.2-0.6c-0.8-1-1.5-2-2.3-2.8
			l3.3-1.9H541.7L541.7,144.1z M540.8,156.4h4.9V175h-4.9V156.4z M556.4,171.8c0.7,0,1.7-0.1,2.3-0.3c0.1,1.3,0.2,3,0.4,4.2
			c-0.7,0.3-1.7,0.3-2.6,0.3h-2.3c-4.4,0-5.3-1.9-5.3-6.3V156h5.1v13.8c0,1.5,0,2,0.7,2L556.4,171.8L556.4,171.8z"/>
		<path class="st0" d="M15.5,224.6c-1.5,0.5-3,0.9-4.5,1.4v11.8c0,2.6-0.4,4-1.8,4.9c-1.5,0.9-3.4,1.1-6.5,1
			c-0.1-1.4-0.8-3.6-1.4-5.1c1.6,0.1,3.3,0.1,3.9,0.1c0.6,0,0.8-0.2,0.8-0.8v-10.3c-1.6,0.5-3.1,0.9-4.5,1.3l-1.2-5.3
			c1.6-0.3,3.6-0.8,5.7-1.4V214H0.9v-5.1h4.9v-8.8H11v8.8h4.3v5.1H11v6.7l3.8-1.1L15.5,224.6L15.5,224.6z M22.8,200.1h5v19.6
			c0,9.4-1,18.1-9.2,23.9c-0.9-1.1-2.9-2.8-4-3.7c3.2-2.2,5.2-4.9,6.4-7.9c-1.9,0.8-3.8,1.5-5.5,2.1l-2.1-4.8c2.3-0.6,5.6-1.6,9-2.7
			c0.2-1.4,0.3-2.9,0.3-4.4h-6.5v-4.9h6.5v-4.8h-7v-5h7L22.8,200.1L22.8,200.1z M44.5,232.4h-8.1v11.1h-5.3v-43.5h5.3v7.6h7.3v5
			h-7.3v4.8h6.9v4.9h-6.9v5.1h8.1V232.4L44.5,232.4z"/>
		<path class="st0" d="M67.4,212.6c-2.1,12.6-7.2,22-13.7,26.9c-0.9-1.3-3.2-3.5-4.5-4.3c5.4-3.6,9.5-10,11.5-18.2h-9.8v-5.6h11.9
			l1-0.2L67.4,212.6z M90.8,211.8c-3.5,3.4-7.6,7.3-10.9,10c3.6,5.4,8.4,9.7,14.3,12.3c-1.4,1.2-3.2,3.5-4.2,5.2
			c-6.6-3.5-11.6-9.2-15.3-16.1v13.4c0,3.2-0.6,4.9-2.5,5.9c-1.8,1-4.7,1.3-8.5,1.3c-0.2-1.7-1.2-4.5-2.1-6.2c2.6,0.1,5.1,0.1,6,0.1
			c0.8,0,1.1-0.3,1.1-1.1v-36.4h6v11.4c0.8,2.1,1.6,4.1,2.6,6c3-2.8,6.2-6.3,8.3-9.2L90.8,211.8L90.8,211.8z"/>
		<path class="st0" d="M142.1,207.1h-8.2c1.4,1.1,2.8,2.3,3.6,3.2l-3.1,2.8h6.3v8.1h-5.7v-4h-29v4h-5.4v-8.1h1.7
			c-0.8-1-2.6-2.8-3.6-3.6c2.8-2.4,5.4-6.1,6.9-9.8l4.9,1.4c-0.2,0.6-0.5,1.3-0.8,1.9h10.3v3.9c2.1-1.9,3.9-4.5,4.9-7.1l5,1.3
			c-0.2,0.6-0.5,1.3-0.9,2h13L142.1,207.1L142.1,207.1z M112.5,213.1c-0.9-1.3-2.8-3.1-4.3-4.3l1.7-1.5h-2.8
			c-1.5,2.3-3.2,4.3-4.7,5.9L112.5,213.1L112.5,213.1z M111.8,231.7h25.4v12h-5.6v-1.3h-19.8v1.3h-5.7v-24.6h28.7v10.4h-23
			C111.8,229.5,111.8,231.7,111.8,231.7z M111.8,223.1v2.4h17.5v-2.4H111.8z M111.8,235.7v2.6h19.9v-2.6
			C131.7,235.7,111.8,235.7,111.8,235.7z M121.7,209.5c-0.9-0.8-1.9-1.5-2.6-2l0.4-0.3h-6.2c1,0.9,2.1,2,2.8,2.8l-3.4,3.1h5.4
			c-0.4-0.9-0.8-1.9-1.2-2.7L121.7,209.5z M133.3,213.1c-1.2-1.3-3.1-3-4.7-4.2l2-1.7h-4.2c-1,1.4-2.2,2.7-3.3,3.6
			c-0.3-0.3-0.8-0.7-1.3-1.1c0.7,1,1.4,2.3,1.8,3.4H133.3L133.3,213.1z"/>
		<path class="st0" d="M162.3,224.6c-1.5,0.5-3,0.9-4.5,1.4v11.8c0,2.6-0.4,4-1.8,4.9c-1.5,0.9-3.4,1.1-6.5,1
			c-0.1-1.4-0.8-3.6-1.4-5.1c1.7,0.1,3.3,0.1,3.9,0.1c0.6,0,0.8-0.2,0.8-0.8v-10.3c-1.6,0.5-3.1,0.9-4.5,1.3l-1.2-5.3
			c1.6-0.3,3.6-0.8,5.7-1.4V214h-4.9v-5.1h4.9v-8.8h5.1v8.8h4.3v5.1h-4.3v6.7l3.8-1.1L162.3,224.6L162.3,224.6z M182.1,228.1
			c2.4,3.7,6.2,7.2,10,9.1c-1.2,1-2.8,2.9-3.7,4.2c-3.2-2.1-6.4-5.5-9-9.1v11.1h-5.3V232c-2.8,4-6.5,7.5-10.4,9.6
			c-0.9-1.3-2.5-3.3-3.7-4.3c4.3-1.9,8.5-5.4,11.1-9.2h-8.1v-4.8h11.1v-4.7h5.3v4.7h11.3v4.8L182.1,228.1L182.1,228.1z M189.8,204.8
			c-7.2,2-17.4,3.1-25.9,3.6c-0.2-1.3-0.9-3.3-1.5-4.4c8.4-0.6,17.9-1.8,23.7-3.5L189.8,204.8L189.8,204.8z M166,219.4
			c-0.4-2.3-1.6-6.1-2.9-8.9l4.4-1.1c1.4,2.7,2.8,6.3,3.2,8.7L166,219.4L166,219.4z M174,217.6c-0.1-2.2-0.9-5.8-1.9-8.6l4.7-0.9
			c1.1,2.7,2.1,6.1,2.2,8.5L174,217.6L174,217.6z M180.4,218.6c1.8-2.9,4.2-7.7,5.4-11.2l5.3,1.9c-2,4-4.5,8.3-6.4,11.1L180.4,218.6
			L180.4,218.6z"/>
		<path class="st0" d="M214.2,211.4c-1.6,3.4-3.5,6.6-5.7,9.6v22.6h-5.6v-16.3c-1.4,1.3-2.8,2.4-4.4,3.4c-0.6-1.4-1.8-3.9-2.6-5.3
			c5.1-3.3,9.2-8.4,12-14h-10.4v-5.3h12.8c0.8-2.1,1.4-4.1,1.9-6.1l5.8,1.4c-0.5,1.6-1,3.1-1.6,4.7h22.9v5.3L214.2,211.4
			L214.2,211.4z M240,231.9h-11.1v5.8c0,2.8-0.5,4.2-2.5,5.1c-2,0.8-4.8,0.8-8.5,0.8c-0.2-1.6-0.9-3.7-1.6-5.3
			c2.4,0.1,5.1,0.1,5.9,0.1c0.8-0.1,1-0.2,1-0.8v-5.7h-11.9v-5.2h11.9v-3.3c1.5-0.9,3-2.1,4.5-3.4h-12.8v-5h17.9l1.2-0.3l3.5,2.8
			c-2.4,2.5-5.6,5.3-8.7,7.4v1.8H240L240,231.9L240,231.9z"/>
		<path class="st0" d="M263.1,212.6c-2.1,12.6-7.1,22-13.7,26.9c-0.9-1.3-3.1-3.5-4.5-4.3c5.4-3.6,9.5-10,11.5-18.2h-9.8v-5.6h11.9
			l1-0.2L263.1,212.6z M286.5,211.8c-3.5,3.4-7.6,7.3-10.9,10c3.6,5.4,8.4,9.7,14.3,12.3c-1.4,1.2-3.2,3.5-4.2,5.2
			c-6.6-3.5-11.6-9.2-15.3-16.1v13.4c0,3.2-0.6,4.9-2.5,5.9c-1.8,1-4.7,1.3-8.5,1.3c-0.2-1.7-1.2-4.5-2.1-6.2c2.6,0.1,5.1,0.1,6,0.1
			c0.8,0,1.1-0.3,1.1-1.1v-36.4h6v11.4c0.8,2.1,1.6,4.1,2.6,6c3-2.8,6.2-6.3,8.3-9.2L286.5,211.8L286.5,211.8z"/>
		<path class="st0" d="M300.4,218.2c-0.5,2.2-1.4,4.6-2.4,6.2c-0.7-0.5-2.1-1.3-2.9-1.6c1-1.6,1.6-3.5,1.9-5.4L300.4,218.2z
			 M307.7,216.8c-0.1-0.4-0.3-0.9-0.5-1.4c-8,0.8-9.3,1-10.1,1.4c-0.1-0.8-0.7-2.6-1.1-3.4c0.9-0.1,1.7-0.7,2.7-1.5
			c0.5-0.3,1.3-1.1,2.4-2.1c-2.9,0.3-3.7,0.4-4.2,0.6c-0.2-0.8-0.8-2.5-1.3-3.4c0.7-0.1,1.3-0.5,1.8-1.1c0.6-0.6,2.7-2.8,3.9-5.2
			l3.8,1.1c-1.2,1.9-2.7,3.7-4,5.2l2.7-0.1c0.6-0.7,1.1-1.4,1.6-2.1l3.6,1.4c-2.2,2.7-4.6,5.1-6.9,7.1l4-0.3
			c-0.3-0.6-0.6-1.2-0.9-1.7l2.9-0.9c1,1.7,2.3,4.1,2.7,5.5L307.7,216.8L307.7,216.8z M335.1,234.5c0,0-0.2,1.5-0.4,2.2
			c-0.7,3.2-1.6,4.9-3.1,5.8c-1.4,0.8-3,0.9-5.5,0.9c-2.1,0.1-6.5,0-10.4-0.2c0-1-0.5-2.5-1.3-3.5c4,0.3,8.7,0.4,10.4,0.4
			c1.3,0,2-0.1,2.5-0.3c0.6-0.3,1-1,1.5-2h-30.2c1-2.3,2.1-5.6,2.9-8.4h25.7v-1.6h-28v-3.3h33.2v8.2h-26.7l-0.6,1.8L335.1,234.5
			L335.1,234.5z M302.1,223.8c-0.1-1.5-0.6-3.9-1.2-5.7l3.1-0.6c0.7,1.7,1.3,4.1,1.4,5.6L302.1,223.8z M307.1,222.5
			c-0.2-1.4-0.9-3.4-1.6-4.9l2.7-0.8c0.9,1.5,1.6,3.4,1.9,4.7L307.1,222.5L307.1,222.5z M323.2,206.6h-14v-2.9h5.5
			c-0.3-0.8-0.7-1.7-1.1-2.4l3.4-1c0.7,1.1,1.3,2.3,1.7,3.4h4.5V206.6z M310.6,215.8h11.4v7.1h-11.4V215.8z M321.9,210.4h-11.1v-2.4
			h11.1V210.4z M310.7,211.9h11.1v2.5h-11.1V211.9z M313.9,220.5h4.8v-2.1h-4.8V220.5z M327.8,218.2c-0.4,2.1-1.2,4.3-2.1,5.8
			c-0.6-0.5-2.1-1.2-3-1.5c0.9-1.5,1.5-3.3,1.7-5L327.8,218.2z M335.1,216.9c-0.1-0.4-0.2-0.9-0.4-1.4c-8.4,0.8-9.7,1.1-10.5,1.5
			c-0.2-0.8-0.7-2.5-1.1-3.4c0.9-0.1,1.8-0.6,2.8-1.5c0.5-0.3,1.4-1.1,2.5-2.1c-3.1,0.2-3.9,0.4-4.4,0.6c-0.2-0.7-0.8-2.3-1.1-3.2
			c0.6-0.1,1.2-0.5,1.8-1.1c0.6-0.6,2.7-2.9,4-5.4l3.4,1.2c-1.2,1.9-2.5,3.6-4,5.1l3-0.1c0.7-0.8,1.3-1.6,1.9-2.3l3.4,1.4
			c-2.2,2.7-4.6,5.2-7,7.2l4.1-0.3c-0.3-0.6-0.6-1.1-0.9-1.6l2.8-1c1.1,1.7,2.2,3.9,2.6,5.4L335.1,216.9L335.1,216.9z M329.5,223.5
			c0-1.5-0.5-3.8-1.1-5.6l3.1-0.6c0.6,1.8,1.1,4,1.3,5.4L329.5,223.5z M335.8,216.7c0.9,1.6,1.6,3.8,2,5.2l-3,0.9
			c-0.2-1.4-1-3.6-1.8-5.3L335.8,216.7L335.8,216.7z"/>
		<path class="st0" d="M361.8,212.2h-18.4v-4.4h7.8c-0.7-1.8-1.9-4.1-3-5.9l4.4-2c1.3,1.9,2.7,4.5,3.4,6.2l-3.1,1.7h8.9L361.8,212.2
			L361.8,212.2z M359.9,215.3c4.6-2.5,5.2-5.7,5.2-8.8v-5h15.9v10.2c0,1.4,0.1,1.9,0.7,1.9h1.9c0.7,0,1.7-0.1,2.3-0.3
			c0.1,1.4,0.2,3.3,0.4,4.6c-0.7,0.3-1.7,0.3-2.6,0.3h-2.5c-4.4,0-5.3-2-5.3-6.6v-5h-5.6v0.1c0,4.5-1.3,9.7-7.2,12.9
			c-0.5-0.9-2-2.5-3.1-3.4v2.3h-14.4v-4.2h14.4L359.9,215.3L359.9,215.3z M360,224.7h-14.5v-4.2H360V224.7z M385.2,221.5
			c-1.5,5.7-4.1,10.2-7.5,13.6c2.9,1.5,6.1,2.7,9.7,3.4c-1.2,1.1-2.7,3.5-3.4,5c-4.1-1-7.8-2.5-10.9-4.6c-3.2,2.1-6.9,3.6-10.9,4.7
			c-0.5-1.2-1.3-2.8-2.2-4.1v1.7h-9.6v2h-4.8V227H360v11.5c3.1-0.8,6.1-1.8,8.7-3.3c-2.5-2.4-4.5-5.4-6.2-8.7l3.1-1.1h-4.4v-5.2
			h19.6l0.9-0.2L385.2,221.5L385.2,221.5z M355.1,231.4h-4.8v5.2h4.8V231.4z M367.5,225.4c1.4,2.5,3.2,4.7,5.5,6.6
			c2.1-1.9,3.8-4.1,5-6.6H367.5z"/>
		<path class="st0" d="M413.1,212.2h-19.8v-4.4h8.2c-0.7-1.8-1.9-4.1-3-5.9l4.4-2c1.3,1.9,2.7,4.5,3.4,6.2l-3.1,1.7h9.9V212.2z
			 M395.4,218.5v-4.2h15.8v4.2H395.4z M411.1,224.7h-15.7v-4.2h15.7V224.7z M411.2,241.1h-11v2h-4.7v-16.1h15.7L411.2,241.1
			L411.2,241.1z M400.3,231.4v5.2h6.1v-5.2H400.3z M435.7,221H427v22.6h-5.8V221h-8.2v-5.5h8.2v-14.6h5.8v14.6h8.7V221z"/>
		<path class="st0" d="M18.2,277.5c-0.5,1.3-1.2,2.5-1.9,3.7h21.9v23c0,2.8-0.5,4.2-2.5,5.1c-1.8,0.9-4.5,0.9-8.3,0.9
			c-0.2-1.5-1-3.9-1.7-5.4c2.4,0.1,5.1,0.1,5.9,0.1c0.8,0,1.1-0.3,1.1-0.9v-2.8H15.1c-0.8,3.5-2.3,6.9-5.2,9.3
			c-0.8-1.2-2.9-3.5-4.1-4.2c4.1-3.5,4.4-8.5,4.4-12.8v-3.8c-1.8,1.9-3.7,3.6-5.8,5.1c-0.8-1.3-2.6-3.3-3.7-4.3
			c4.8-3.1,8.5-7.8,11.3-13H1.8v-5.2h12.6c0.8-1.9,1.4-3.8,1.9-5.6l5.8,1.3c-0.5,1.4-1,2.9-1.5,4.3h23v5.2L18.2,277.5L18.2,277.5z
			 M32.8,296.6v-3H15.9c0,1-0.1,2-0.1,3H32.8z M32.8,286H15.9v2.9h16.9V286z"/>
		<path class="st0" d="M90.8,279.9c-1.1,7.1-2.8,13-5.5,17.9c2.3,3.4,5.2,6.1,8.5,8c-1.3,1-3,3-3.9,4.4c-3.1-2-5.7-4.6-7.9-7.7
			c-2.7,3.2-6,5.8-10.1,7.9c-0.7-1-2.7-3.1-3.9-4.1c4.8-2,8.4-4.9,11-8.6c-1.3-2.6-2.4-5.4-3.4-8.3c-0.6,1-1.3,2-2,2.9
			c-0.5-1.1-2.2-3.2-3.2-4.3l-2.1,1.2c-0.2-0.6-0.5-1.3-0.8-2c-0.7,2.6-1.6,5-2.6,7.2c2.4,2.8,4.5,5.5,5.8,7.7l-4.5,3.5
			c-0.9-1.7-2.3-3.8-4.1-6.1c-2.5,4-5.6,7.3-9.3,9.7c-0.7-1.1-2.6-3.1-3.7-4.1c4-2.3,7.2-5.7,9.5-9.9c-1.6-1.8-3.2-3.5-4.8-5.1
			c-0.5,0.6-0.9,1.3-1.3,1.8c-0.8-0.9-2.7-2.7-3.8-3.5c2.3-2.7,4.8-6.7,6.2-10.4l4.8,1.5c-1.4,3.4-3.5,7-5.4,10L58,287
			c1,1,2.1,2.1,3.2,3.2c0.6-1.5,1.1-3.2,1.5-4.9l4.5,0.8c-1.1-2.1-2.6-4.4-4.1-6.2l3.4-1.9H50.3v-5h9.3c-0.6-1.5-1.5-3.4-2.5-4.9
			l4.8-1.7c1.2,1.7,2.5,3.9,2.9,5.4l-3,1.2h10.8v5h-5.4c1.8,2.2,3.7,4.9,4.8,7.2c2.8-4.9,4.5-11.7,5.5-18.6l5.1,0.8
			c-0.3,2.5-0.8,4.9-1.4,7.3H93v5.1L90.8,279.9L90.8,279.9z M79.9,279.9c-0.3,1-0.7,2-1,2.9c0.8,3.4,1.9,6.6,3.3,9.5
			c1.5-3.5,2.5-7.7,3.2-12.5C85.4,279.9,79.9,279.9,79.9,279.9z"/>
		<path class="st0" d="M108.4,292.7v11.5c0,2.5-0.4,3.9-1.7,4.7c-1.4,0.9-3.2,1.1-6,1.1c-0.1-1.4-0.8-3.6-1.4-5.1
			c1.5,0.1,2.9,0.1,3.4,0c0.5,0,0.7-0.1,0.7-0.7v-9.7l-3.5,1.2l-1.3-5.3c1.4-0.4,3-0.8,4.8-1.4v-8.4h-4.2v-5.1h4.2v-8.8h5.1v8.8h3.7
			v5.1h-3.7v6.8l3.4-1.1l0.8,4.9L108.4,292.7L108.4,292.7z M123.9,294.2c0.1,1.4,0.4,3.5,0.7,4.6c-8.5,3.2-10.1,4.1-11,4.9
			c-0.5-1.1-1.8-3-2.8-3.8c1.1-0.8,2.6-2.6,2.6-5v-23.2c3.4-1.2,7.3-2.9,9.8-4.2l3.7,4.1c-2.5,1.1-5.4,2-8.2,2.9v21.5L123.9,294.2
			L123.9,294.2z M140.9,297.2c0,2.4-0.4,3.9-1.9,4.9c-1.5,0.9-3.3,1-6,1c-0.2-1.5-1-3.9-1.8-5.3c1.6,0,3.1,0,3.6,0
			c0.5,0,0.7-0.1,0.7-0.7v-19.8h-5v32.9h-5.4v-37.8h15.7L140.9,297.2L140.9,297.2z"/>
		<path class="st0" d="M163.7,281.3H174v5h-10.3v3.4h9.2v11.9c0,2.1-0.3,3.5-1.7,4.2c-1.3,0.8-3.1,0.9-5.5,0.8
			c-0.1-1.4-0.8-3.4-1.4-4.7c1.3,0.1,2.4,0.1,2.9,0c0.4,0,0.6-0.1,0.6-0.6v-6.8h-4.1v15.5h-5.3v-15.5h-3.9v11.8h-5v-16.7h8.8v-3.4
			h-10.7v-5h3.5c-1.2-0.6-3.1-1.4-4.2-1.8c1.9-2.9,3.5-7.6,4.3-12.1l5.1,1.1c-0.3,1.5-0.7,2.8-1.1,4.2h3v-5.9h5.3v5.9h8.4v5h-8.4
			L163.7,281.3L163.7,281.3z M158.4,281.3v-3.5h-4.8c-0.5,1.3-1.1,2.5-1.6,3.5H158.4z M181.3,296.7h-5.2v-26.2h5.2V296.7z
			 M189.9,267.4v36.2c0,3-0.6,4.5-2.3,5.4c-1.7,0.9-4.5,1.1-8.1,1.1c-0.2-1.5-0.9-4-1.6-5.6c2.4,0.1,4.9,0.1,5.6,0.1
			c0.8,0,1-0.2,1-1v-36.1L189.9,267.4L189.9,267.4z"/>
		<path class="st0" d="M227.3,301.7c4.5,1.5,9.3,3.4,12.4,4.8l-4.7,3.8c-3.1-1.6-8.6-4-13.7-5.7l2.9-2.8h-12.4l3.9,2.7
			c-3.8,2.4-9.7,4.7-14.7,5.8c-0.8-1.2-2.4-3-3.5-4.1c4.2-0.9,9.3-2.8,12.4-4.5h-12.5v-4.8h10.7v-3.5h-7.8v-4.8h7.8v-3.1h-6.3v-17.3
			h33.5v17.3h-6.4v3.1h8.1v4.8h-8.1v3.5h10.9v4.8L227.3,301.7L227.3,301.7z M207,274.9h8.5v-2.6H207V274.9z M207,281.4h8.5v-2.6H207
			V281.4z M213.6,288.7h9.4v-3.1h-9.4V288.7z M213.6,297h9.4v-3.5h-9.4V297z M229.5,272.4h-8.6v2.6h8.6V272.4z M229.5,278.8h-8.6
			v2.6h8.6V278.8z"/>
		<path class="st0" d="M251.9,298.5v3.7h-5.1v-31.6h14.1v27.8H251.9L251.9,298.5z M251.9,276v17.1h3.9V276H251.9z M279.3,290
			c2.5,5.1,6.3,10.1,10.3,12.9c-1.3,1.1-3.1,3.1-4.1,4.6c-2.8-2.5-5.4-6.1-7.6-10.1v12.7h-5.6v-13c-2.7,4.3-6,7.9-9.8,10.3
			c-0.9-1.3-2.6-3.3-3.8-4.4c5.1-2.6,9.5-7.6,12.1-13h-8.6v-5.3h10.1v-5.8h-8.6v-5.3h8.6V267h5.6v6.6h9.6v5.3h-9.6v5.8H289v5.3
			L279.3,290L279.3,290z"/>
		<path class="st0" d="M338.2,304.6v4.5h-34.6v-4.5h14.2v-2.7h-10v-3.4c-0.9,1.1-1.8,2-2.7,2.8c-0.3-1-1.4-3.3-2.2-4.6
			c-0.6,4.9-1.9,10.2-5,14c-0.9-1-3.1-3-4.3-3.6c3.8-4.7,4.2-11.3,4.2-16.1v-8.3h6.4c-0.8-0.8-1.7-1.6-2.4-2.1
			c3.4-0.5,7.1-1.2,10.7-2c-3-0.8-6-1.4-8.8-1.9l2.6-2h-8.1v-4.3h16.4c-0.6-0.9-1.2-1.7-1.8-2.4l3.8-1.8c1.1,1.2,2.4,2.8,3.1,4.2
			h16.3v4.3h-6.8l2.3,1.4c-1.7,0.8-3.7,1.6-5.8,2.3c2.8,0.8,5.3,1.5,7.4,2.2l-2.6,2.1h6.9v4.4h-34.1v3.9c0,1.5,0,3.1-0.2,4.9
			c2.3-2.2,4.2-5.2,5.4-8.4l4.8,1.4c-0.2,0.6-0.5,1.2-0.8,1.9h5.5V288h5.5v2.8H335v4.3h-11.6v2.4h10.2v4.2h-10.2v2.7L338.2,304.6
			L338.2,304.6z M317.9,297.6v-2.4h-7.7c-0.5,0.8-1,1.6-1.6,2.4H317.9L317.9,297.6z M327.5,282.8c-2.3-0.8-5.1-1.6-8.1-2.4
			c-3.4,0.9-6.8,1.7-10.1,2.4H327.5L327.5,282.8z M310.5,274.7c3,0.6,6.1,1.4,9.2,2.1c2.3-0.6,4.4-1.4,6.2-2.1H310.5L310.5,274.7z"
			/>
		<path class="st0" d="M386.4,303.4v5.5h-42.3v-5.5h18.2v-9.4h-12.8v-5.4h12.8v-8.2h-9.7c-1.4,2.6-2.8,4.9-4.4,6.8
			c-1.1-0.9-3.6-2.6-5-3.3c3.7-3.9,6.7-10.4,8.3-16.7l5.8,1.3c-0.7,2.2-1.4,4.4-2.2,6.6h7.2v-8.4h5.9v8.4H384v5.4h-15.9v8.2h14.1
			v5.4h-14.1v9.4L386.4,303.4L386.4,303.4z"/>
		<path class="st0" d="M406.8,286.4c1.9,1.9,6.1,6.8,7.1,8l-3.2,4.6c-0.9-1.6-2.4-3.9-4-6.1v17.2h-5.6v-16.6
			c-1.9,4.4-4.1,8.4-6.6,11.1c-0.5-1.6-1.9-3.8-2.8-5.2c3.2-3.4,6.2-8.7,8-13.9h-7v-5.1h8.4v-6.1c-2.3,0.4-4.6,0.7-6.7,1
			c-0.2-1.3-0.9-3.1-1.5-4.3c6.1-0.8,13-2.3,17.3-4l3.6,4.3c-2.1,0.8-4.5,1.4-7,2v7.1h6.8v5.1h-6.8L406.8,286.4L406.8,286.4z
			 M433.6,271v36.6h-5.8v-3.4h-7.5v3.7h-5.5V271L433.6,271L433.6,271z M427.8,299v-22.6h-7.5V299L427.8,299L427.8,299z"/>
		<path class="st0" d="M484.1,290.4v4.5h-41.9v-4.5h18.2v-2h-13.8v-4.1h13.8v-1.6c-4.7,0.2-9.4,0.2-13.7,0.2c0-0.8-0.3-1.9-0.6-2.8
			h-2.9v-9.6h17.6c-0.5-1-1-2.1-1.5-2.9l5.4-1.5c0.9,1.4,1.8,3,2.5,4.5h15.8v9.6h-3.3l0.6,0.6c-4.1,0.8-9.2,1.4-14.5,1.7v1.9h14.2
			v4.1h-14.2v2H484.1L484.1,290.4z M448.6,296.6H478v13.5h-5.6v-1.3H454v1.4h-5.4V296.6z M448.7,279.2c3.8,0,7.9-0.1,11.7-0.3V276
			h5.2v2.5c4.4-0.3,8.4-0.7,11.3-1.3l0.2,0.2v-2.1h-28.5L448.7,279.2L448.7,279.2z M454,301v3.6h18.4V301H454z"/>
		<path class="st0" d="M530.3,310.2c-0.2-0.7-0.6-1.5-0.9-2.4c-6.1,0.5-12.3,0.8-17.1,1.1l0-0.3l-3.8,1.6c-0.2-0.8-0.5-1.6-0.8-2.5
			c-6.2,0.5-12.6,0.8-17.4,1.1l-0.3-4.7c2.5-0.1,5.5-0.2,8.8-0.3v-3.3h-7.1v-11h7.1v-2.8h4.5v2.8h7.2v11h-1.6c1.2,2.2,2.5,4.9,3.3,7
			l-0.3-3.4c2.2,0,4.9-0.1,7.9-0.3v-3.4h-7.2v-11h7.2v-2.8h4.7v2.8h7.5v11h-1.5c1.7,2.5,3.3,5.6,4.2,7.8L530.3,310.2L530.3,310.2z
			 M493,282.2c4.2,0,9.8,0,16,0v-2.6h-13.4v-10.3H509v-2.7h5.5v2.7h14v10.3h-3.8c2.8,2,5.7,4.4,7.5,6l-4,2.5
			c-0.6-0.6-1.4-1.4-2.3-2.1c-11.8,0.4-24.3,0.6-32.7,0.8L493,282.2L493,282.2z M498.7,296.5v-3h-3v3H498.7z M509,275.7v-2.5h-8.2
			v2.5H509z M503.2,293.5v3h2.9v-3H503.2z M505.8,303.5c-0.3-0.6-0.7-1.2-0.9-1.8l3.2-1.3h-4.9v3.2L505.8,303.5z M514.5,273.2v2.5
			h8.5v-2.5H514.5z M514.5,282.2l6.9-0.1c-0.8-0.6-1.5-1.1-2.2-1.5l1.8-1h-6.6L514.5,282.2L514.5,282.2z M519.6,296.4v-2.9h-3.1v2.9
			H519.6z M524.3,293.5v2.9h3.2v-2.9H524.3z M527.1,303.6c-0.4-0.6-0.7-1.2-1.1-1.8l3-1.4h-4.8v3.3L527.1,303.6z"/>
		<path class="st0" d="M582.9,304.6v4.5h-34.6v-4.5h14.3v-2.7h-10v-3.4c-0.8,1.1-1.8,2-2.7,2.8c-0.3-1-1.4-3.3-2.2-4.6
			c-0.6,4.9-1.9,10.2-5,14c-0.8-1-3.2-3-4.3-3.6c3.8-4.7,4.2-11.3,4.2-16.1v-8.3h6.3c-0.8-0.8-1.7-1.6-2.3-2.1
			c3.4-0.5,7.1-1.2,10.7-2c-3-0.8-6-1.4-8.8-1.9l2.6-2H543v-4.3h16.4c-0.6-0.9-1.2-1.7-1.8-2.4l3.8-1.8c1.1,1.2,2.3,2.8,3.2,4.2
			h16.3v4.3H574l2.3,1.4c-1.7,0.8-3.7,1.6-5.8,2.3c2.8,0.8,5.3,1.5,7.4,2.2l-2.6,2.1h6.9v4.4H548v3.9c0,1.5,0,3.1-0.2,4.9
			c2.3-2.2,4.2-5.2,5.4-8.4l4.8,1.4c-0.2,0.6-0.5,1.2-0.8,1.9h5.5V288h5.5v2.8h11.6v4.3h-11.6v2.4h10.3v4.2h-10.3v2.7L582.9,304.6
			L582.9,304.6z M562.6,297.6v-2.4h-7.7c-0.5,0.8-1,1.6-1.6,2.4H562.6L562.6,297.6z M572.2,282.8c-2.3-0.8-5.1-1.6-8.1-2.4
			c-3.4,0.9-6.8,1.7-10.1,2.4H572.2z M555.2,274.7c3,0.6,6.1,1.4,9.2,2.1c2.3-0.6,4.4-1.4,6.2-2.1H555.2L555.2,274.7z"/>
		<path class="st0" d="M631.1,303.4v5.5h-42.3v-5.5h18.2v-9.4h-12.8v-5.4h12.8v-8.2h-9.7c-1.4,2.6-2.8,4.9-4.4,6.8
			c-1.1-0.9-3.6-2.6-5-3.3c3.7-3.9,6.7-10.4,8.3-16.7l5.8,1.3c-0.7,2.2-1.4,4.4-2.2,6.6h7.2v-8.4h5.9v8.4h15.8v5.4h-15.8v8.2h14.1
			v5.4h-14.1v9.4L631.1,303.4L631.1,303.4z"/>
	</g>
</g>
</svg>
