<?xml version="1.0" encoding="utf-8"?>
<!-- Generator: Adobe Illustrator 27.0.0, SVG Export Plug-In . SVG Version: 6.00 Build 0)  -->
<svg version="1.1" id="_圖層_2" xmlns="http://www.w3.org/2000/svg" xmlns:xlink="http://www.w3.org/1999/xlink" x="0px" y="0px"
	 viewBox="0 0 1050.4 91.6" style="enable-background:new 0 0 1050.4 91.6;" xml:space="preserve">
<style type="text/css">
	.st0{fill:#FFFFFF;}
</style>
<g id="_圖層_1-2">
	<g>
		<g>
			<path class="st0" d="M84.3,73.6v11.7H0V73.6H84.3z M79,10.5V22H5.4V10.5L79,10.5L79,10.5z M71.4,41.2v11.6H12.1V41.2H71.4z"/>
			<path class="st0" d="M148.9,25.4v10.8h31.3v32.4c0,5.7-1.2,8.8-5.2,10.6c-4,1.8-9.6,1.9-17.1,1.9c-0.5-3.4-2.2-8.2-3.9-11.2
				c4.9,0.3,10.6,0.3,12,0.2c1.6,0,2.1-0.4,2.1-1.6V47.3h-19.2v43.3h-12V47.3h-18v33.8h-11.7V36.2h29.6V25.4H99.1V14.2h38.9
				c-1.5-3.5-3.3-7.4-4.9-10.6l11.5-3.6c2.4,4.4,5.6,10.2,7.3,14.1h35.8v11.2C187.7,25.4,148.9,25.4,148.9,25.4z"/>
			<path class="st0" d="M268.6,45.3c-3.9,9-9,16.5-15.3,22.6c9.3,6.1,21,10.2,35.2,12.3c-2.5,2.5-5.5,7.2-7,10.3
				c-15.3-2.9-27.5-7.8-37.3-15.1c-10.3,7.2-22.8,12.1-37.1,15.6c-1.4-2.6-4.8-7.7-7-10.2c14.1-2.7,26-6.8,35.5-13.1
				c-5.7-6.2-10.5-13.6-14.2-22.1l10.4-3.2c2.9,7,7.1,13.3,12.4,18.5c5.5-5.2,9.8-11.5,12.6-19L268.6,45.3L268.6,45.3z M235.7,29.6
				c-6.6,8.5-17.1,17.2-25.7,22.4c-2.1-2.3-6.5-6.5-9.1-8.4c8.6-4.3,18.1-11.4,23.7-18.3L235.7,29.6L235.7,29.6z M286.7,24.5h-85.1
				V13.4h37.9c-1.4-3.2-3.2-6.6-4.9-9.5L245.5,0c2.6,4.1,5.8,9.6,7.1,13.3l-0.3,0.1h34.4L286.7,24.5L286.7,24.5z M262.5,24.8
				c8.4,5.7,19.6,14.1,25,20.3l-9.9,7.4c-4.8-6-15.5-15-24.2-21.3L262.5,24.8L262.5,24.8z"/>
			<path class="st0" d="M389.2,78.4v9.5h-85V4.2h83v9.5H349l7.1,2c-1.1,2.9-2.2,5.8-3.6,8.6h10.5c-0.9-2.4-1.9-4.9-2.9-6.9l10.2-3
				c1.6,3.1,3.4,6.7,4.4,9.9H386V33h-14.5v5.1h11.6v7.8h-11.6V51h11.6v7.9h-11.6v5.3h15.1v8.7H351v3.3h-10V42.6
				c-1.3,1.5-2.5,3-3.9,4.3c-0.8-1.3-2.5-3.8-4.3-5.9l-4.9,5.7c-2.5-2.8-8.1-6.7-12.4-9.3v41L389.2,78.4L389.2,78.4z M315.6,13.8v23
				l5.4-6.2c3.6,1.8,7.9,4.4,11,6.9c5.9-6.1,11.3-14.7,14.5-23.7h-20.2c4.4,2.2,9.9,5.5,12.6,8.2l-6.5,7.3c-2.5-2.8-8.2-6.6-12.5-9
				l5.8-6.4L315.6,13.8L315.6,13.8z M317.9,68.5c3.6-4.9,8.7-12.8,13-20.2l6.5,6.7c-3.4,6.6-7.8,14.1-11.8,20.7L317.9,68.5
				L317.9,68.5z M361.2,33H351v5.1h10.2V33z M361.2,45.9H351V51h10.2V45.9z M361.2,58.9H351v5.3h10.2V58.9z"/>
			<path class="st0" d="M450.3,53.2c-1.5,9.1-4.5,16.5-8.5,22.3c6.1,3.8,14,4.8,23.1,4.8c4.2,0,21.5,0,27-0.2
				c-1.5,2.2-2.9,6.6-3.4,9.3h-24.1c-11.9,0-21.4-1.4-28.6-7c-4.3,3.8-9.6,6.8-15.5,9c-1-2.3-3.2-6.1-5-7.9
				c5.6-1.6,10.4-4.3,14.5-7.9c-1.5-1.9-2.7-4.2-3.9-6.8c-1.3,1.7-2.7,3.4-4.2,4.7c-0.9-1.1-2.5-2.9-4.1-4.5c-1.5,8.2-4,16-8.1,22.2
				c-1.9-2-6.6-5.7-9-6.8c7.9-12.5,8.5-30.7,8.5-43.4V18.6h30.6V1.4h11.6v5h31.1v8h-31.1v4.2H480l1.9-0.5L490,20
				c-1.8,6.1-4.2,12.9-6.4,17.2l-9.6-2.7c0.8-1.9,1.8-4.5,2.5-7.3h-26.1v3.6l22.2-1.2l0.3,6.9l-22.5,1.2c0.1,2.2,0.7,3.2,4.1,3.2
				h18.6c3.6,0,9.7-0.3,12-0.9c0.3,3,0.6,5.8,1,8.2c-2.2,0.7-7.5,0.8-11.9,0.8h-21.1c-10.4,0-13.3-3.3-13.6-10.6l-15.9,0.9l-0.4-7
				l16.3-0.9v-4.1H420v13.9c0,6.5-0.3,14.4-1.5,22.5c4.8-5.1,8.5-11.8,10.9-18.8L438,47c-0.6,1.7-1.3,3.5-2,5h7.1l1.8-0.2
				L450.3,53.2L450.3,53.2z M431.4,61c1.2,3.2,2.4,5.9,3.9,8.2c1.8-2.8,3.3-6,4.4-9.4h-7.5L431.4,61L431.4,61z M476.5,77.1
				c-6.1,0-7.9-1.9-7.9-8.4v-8.1H463c-0.3,6.4-2.1,13.8-9,18.8c-1.4-1.6-5.2-4.9-7.1-6c6.2-4.4,7.1-9.9,7.1-14.5v-6.5H477v16.3
				c0,2.1,0.2,2.3,1.2,2.3h1.9c1.1,0,1.4-1.2,1.6-6.9c1.5,1.2,4.6,2.2,6.7,2.7c-0.6,7.9-2.5,10.3-7.2,10.3L476.5,77.1L476.5,77.1z"
				/>
			<path class="st0" d="M597.6,51.2c-5.3,8.5-11.8,16.6-18.1,23.6l39.3-2.3c-3.4-4.9-7-9.7-10.4-13.8l10.7-4.6
				c8.5,9.6,17.3,22.2,21.5,31l-11.3,5.8c-1.1-2.4-2.4-5.1-4.1-8c-48.9,3.8-55.7,4.1-60.6,6c-0.7-2.3-2.6-8.1-4-11.2
				c2.5-0.6,4.6-2.5,7.5-5.8c2.3-2.4,9.2-11.1,14.7-20.5h-27.3V39.7h37.8V26H563V14.4h30.4V1.1h12.2v13.3h31.3V26h-31.3v13.7h38.2
				v11.5L597.6,51.2L597.6,51.2z"/>
			<path class="st0" d="M666.9,66v9h-8.5V9.7H681V66H666.9z M666.9,20.2v35.4h5.4V20.2C672.4,20.2,666.9,20.2,666.9,20.2z
				 M713.7,5.5c0,0,0,3.8-0.1,4.9c-0.4,53-0.4,70.8-2.8,75.2c-1.8,3.1-3.4,4.1-6,4.7c-2.5,0.6-5.4,0.6-8.9,0.5
				c-0.1-3-1.1-7.2-2.5-10c2.5,0.2,4.8,0.2,6.2,0.2c1.3,0.1,1.9-0.4,2.7-2c0.9-1.6,1.4-6.9,1.7-18.8h-6.8
				c-2,11.2-5.9,22.6-13.6,31.1c-1.3-1.9-4.8-5.6-6.7-6.8c6.2-7,9.4-15.6,11.2-24.2h-4.4v-9.6h5.7c0.4-4.6,0.5-9,0.5-13.2h-6.1v-9.6
				h6.1V15.1h-6.1V5.5L713.7,5.5L713.7,5.5z M704.1,50.6c0-3.9,0.1-8.3,0.1-13.2h-5.2c0,4-0.2,8.5-0.6,13.2H704.1L704.1,50.6z
				 M699.1,27.8h5.2l0.1-12.7h-5.3L699.1,27.8L699.1,27.8z M745.3,9.1c-2.2,9.5-5.2,22.4-7.5,30.7c5,8.4,5.8,15.9,5.9,22.4
				c0,6.6-1.3,11-4,13.2c-1.2,1.1-2.9,1.7-5,2c-1.4,0.2-3.1,0.3-5,0.3c0-2.8-0.6-6.7-2-9.5h3c0.8,0,1.5-0.3,2.2-1
				c0.9-1,1.3-3.4,1.3-6.6c0-5.4-0.7-12.2-5.1-19.9c1.7-7.3,3.7-18.4,5-26H727v76.5h-9.4V5.5h19.2l1.4-0.3L745.3,9.1L745.3,9.1z"/>
			<path class="st0" d="M847.4,11.4c-3.5,9.2-7.8,20.1-11.8,28.6c8.2,8.6,9.9,16.2,9.9,22.3c0,7.2-1.5,11.9-5.4,14.4
				c-1.8,1.3-4.2,2.2-6.8,2.6c-2.2,0.3-5.4,0.3-8.5,0.1c-0.1-3.1-1.2-8-2.9-11.1c2.3,0.2,4.4,0.3,6.1,0.2c1.5,0,2.9-0.3,3.9-0.9
				c1.8-1.1,2.5-3.4,2.5-6.5c0-5.3-2.2-12.3-10-19.7c2.8-6.9,6.1-16.6,8.5-24h-12.3V91h-11.4V8.7c-2.9,7.3-6.3,14.2-10.4,20.5h7.2
				v10h-14.5c-2,2.5-4.1,4.7-6.2,7H803v43.4h-11v-3.7h-15.6v4.9h-10.5V61.7c-1.7,1.1-3.3,2-4.8,2.9c-1.3-2.4-4.6-7.2-6.7-9.5
				c8.6-4.1,16.4-9.4,23.2-15.9h-20.7v-10h16.9v-7.9H761v-9.8h12.7V2.1h10.7v9.3h10v4.9c1.8-3.4,3.3-7,4.8-10.8l10.2,2.8V6.6h28
				l1.8-0.4L847.4,11.4L847.4,11.4z M792,55.2h-15.6v6.2H792V55.2z M792,76.8v-6.8h-15.6v6.8H792z M786.4,29.2
				c1.8-2.5,3.6-5.1,5.3-7.9h-7.3v7.9H786.4z"/>
			<path class="st0" d="M896.7,27.9c-0.3,3.9-0.5,7.7-1,11.5h41.7c0,0-0.1,3.5-0.4,5c-1.8,26.1-3.8,36.8-7.8,40.9
				c-2.9,3.2-6,4-10.4,4.5c-3.8,0.4-10.2,0.3-16.8,0c-0.2-3.3-1.8-8.1-4.1-11.3c6.6,0.7,13.4,0.8,16.3,0.8c2.1,0,3.4-0.2,4.8-1.2
				c2.5-2.1,4.3-10.4,5.6-27.6H894c-3.3,16.1-10.5,31.1-28,41.1c-1.8-3.2-5.3-7.1-8.5-9.5c23.3-12.2,25.2-33.9,26.1-54.2h-24.5V16.6
				h41c-1.5-3.8-3.9-8.6-5.8-12.4L905.8,0c2.6,4.3,5.5,10.1,7,13.8l-6.7,2.9h39.8v11.2L896.7,27.9L896.7,27.9z"/>
			<path class="st0" d="M1021.7,60.6c-1.1,4.8-3,9.4-5.9,13.7c9.5,3.1,21.3,4.8,34.6,5.5c-2.5,2.6-5.5,7.5-7,10.7
				c-14.1-1.2-25.9-3.8-35.8-8.1c-4.8,3.5-11.1,6.4-19,8.8c-1.4-2.6-4.8-7.1-7-9.4c6.5-1.3,11.8-3.1,15.7-5.3
				c-4.4-3.1-8.3-6.8-11.5-11.2l10-3.5c2.6,3.2,5.9,5.8,9.9,8.1c2.4-2.9,3.8-6,4.7-9.3h-21.2V21.9h22.3v-5.8h-23.6V7.6
				c-2.2,5.9-5,12-8,17.9v65.4h-11.1V43.3c-1.7,2.3-3.3,4.3-5,6.2c-1.1-2.8-4.4-9-6.3-11.8c8.2-8.8,15.9-22.4,20.4-36.1l10.9,3.4
				l-0.5,1.2h58.9v10h-24.4v5.8h21.9v38.7H1021.7L1021.7,60.6z M999.8,37.3h11.7v-7h-11.7V37.3z M1011.3,52.2
				c0.1-1.2,0.1-2.6,0.1-3.8v-3.4h-11.7v7.1H1011.3L1011.3,52.2z M1033.7,45.1h-10.8v3.5c0,1.2,0,2.4-0.1,3.7h10.9L1033.7,45.1
				L1033.7,45.1z M1022.9,30.3v7h10.8v-7H1022.9z"/>
		</g>
	</g>
</g>
</svg>
