<?xml version="1.0" encoding="utf-8"?>
<!-- Generator: Adobe Illustrator 27.0.0, SVG Export Plug-In . SVG Version: 6.00 Build 0)  -->
<svg version="1.1" id="_圖層_2" xmlns="http://www.w3.org/2000/svg" xmlns:xlink="http://www.w3.org/1999/xlink" x="0px" y="0px"
	 viewBox="0 0 648.7 93.1" style="enable-background:new 0 0 648.7 93.1;" xml:space="preserve">
<style type="text/css">
	.st0{fill:#FFFFFF;}
</style>
<g id="_圖層_1-2">
	<g>
		<path class="st0" d="M301.7,14.2l-1.1-1.4c0.5-0.3,1-0.6,1.4-0.8V0.7h1.8v10.2c0.2-0.2,0.6-0.4,1.2-0.8c1-0.6,1.8-1.1,2.4-1.5
			c0.1,0.7,0.2,1.4,0.3,1.9c-1.1,0.6-2.8,1.6-4.9,2.9C302.4,13.8,302,14,301.7,14.2L301.7,14.2z M307.9,4.9c-0.8-1.4-1.5-2.7-2.2-4
			l1.4-0.8c0.4,0.6,1,1.6,1.7,2.8c0.3,0.5,0.5,0.9,0.7,1.1L307.9,4.9L307.9,4.9z M314.5,14.7c-0.9-1.2-1.8-2.3-2.7-3.4
			c-0.9,1.2-2.5,2.5-4.8,3.8c-0.4-0.5-0.8-1-1.2-1.5c4.2-1.7,6.2-4.6,6-8.8c0-0.8,0.1-2.3,0.1-4.4h1.8c0,1,0,2.2-0.1,3.9v0.5
			c-0.1,2.1-0.4,3.7-0.9,4.9c0.6,0.6,1.5,1.6,2.7,3c0.2,0.3,0.4,0.5,0.6,0.6L314.5,14.7L314.5,14.7z"/>
		<path class="st0" d="M318.5,2.1V0.8h8.5v1.3h-6.7V12c0,0.4,0.2,0.6,0.6,0.6h6V13c1.2-1.4,1.9-3.2,2.1-5.5c0.1-1,0.1-1.8,0.1-2.6
			h1.4c0,0.7-0.1,1.4-0.1,2c0.3,2.9,1.3,5.1,3,6.6c-0.1,0.2-0.2,0.4-0.4,0.8c-0.2,0.3-0.4,0.5-0.5,0.7c-1.5-1.5-2.4-3.2-2.7-5.1
			c-0.2,2-1.2,3.7-2.8,5.2c-0.3-0.5-0.6-0.9-0.9-1.2h-5.9c-0.8,0-1.2-0.4-1.2-1.2V2.1H318.5L318.5,2.1z M320.9,11.6v-4h2.6v4H320.9z
			 M321.6,6.7V3.1h4.6v3.7L321.6,6.7L321.6,6.7z M321.8,8.7v1.9h0.9V8.7H321.8z M322.8,4.2v1.5h2.3V4.2H322.8z M324.2,11.6v-4h2.6v4
			C326.9,11.6,324.2,11.6,324.2,11.6z M325.1,8.7v1.9h0.9V8.7H325.1z M332.4,6.6l-1.3-0.3l0.8-2.5H329c-0.4,1-0.8,2-1.3,3
			c-0.3-0.3-0.7-0.7-1.2-1.1c1-1.6,1.6-3.5,2.1-5.7l1.5,0.2c-0.2,0.8-0.4,1.4-0.6,2.1h3.8v1.4L332.4,6.6L332.4,6.6z"/>
		<path class="st0" d="M337.6,7.4c-0.2-0.3-0.5-0.7-0.9-1.2c-0.4-0.5-0.7-0.9-0.9-1.2l1.3-0.8c0.2,0.2,0.6,0.6,0.9,1.1
			c0.4,0.5,0.7,0.9,0.9,1.2L337.6,7.4L337.6,7.4z M337.6,14.8l-1.6-0.4c0.3-1.1,0.8-2.9,1.4-5.5c0.5,0.2,1,0.4,1.5,0.5
			c-0.2,0.7-0.4,1.7-0.8,3.1C337.9,13.5,337.7,14.3,337.6,14.8L337.6,14.8z M338.1,3.5c-0.2-0.3-0.6-0.8-1.1-1.4
			c-0.3-0.5-0.6-0.9-0.8-1.1l1.4-0.8c0.1,0.2,0.3,0.4,0.6,0.8c0.5,0.8,1,1.3,1.2,1.6L338.1,3.5L338.1,3.5z M339.9,8.7
			c-0.4-0.2-0.8-0.4-1.2-0.5c0.5-1.4,0.9-2.7,1.2-3.8l1.1,0.3c-0.2,0.7-0.4,1.7-0.8,3.1C340.1,8.2,340,8.5,339.9,8.7z M340.2,15.1
			c-0.1-0.1-0.2-0.2-0.4-0.4c-0.3-0.4-0.6-0.6-0.9-0.8c1-1,1.6-2,1.9-3.1c0.3-1,0.5-2.5,0.5-4.6V0.4h1.5v5.9c0,2.3-0.2,4-0.5,5.2
			C341.9,12.6,341.2,13.8,340.2,15.1L340.2,15.1z M344.1,8.4c0-0.2-0.1-0.4-0.2-0.7c-0.3-0.9-0.6-1.8-1.1-2.9l0.9-0.4
			c0.2,0.4,0.4,1,0.8,1.9c0.2,0.6,0.4,1.1,0.5,1.4V0.9h1.4V14H345V8L344.1,8.4L344.1,8.4z M347.8,8.3c-0.1-0.3-0.2-0.7-0.4-1.2
			c-0.1-0.4-0.4-1.2-0.8-2.3l0.9-0.4c0.2,0.5,0.4,1.2,0.8,2.1c0.2,0.6,0.4,1.1,0.5,1.4V0.4h1.5v14.4h-1.5V7.9L347.8,8.3L347.8,8.3z"
			/>
		<path class="st0" d="M358.2,11.2c-0.4-0.6-0.9-1.2-1.3-1.8v5.5h-1.4V9.6c-0.4,1.2-1,2.4-1.8,3.4c0-0.2-0.1-0.6-0.3-1.1
			c-0.1-0.3-0.1-0.6-0.2-0.7c0.9-1.1,1.6-2.5,2.1-4.2h-1.9V5.5h2.1V0.1h1.4v5.4h1.8v1.4h-1.8v1.7l0.6-0.5c0.8,0.9,1.4,1.6,1.8,2.1
			L358.2,11.2L358.2,11.2z M354.2,4.7c0-0.2-0.1-0.5-0.2-0.9c-0.2-0.9-0.5-1.7-0.7-2.2l0.9-0.3c0.4,1.1,0.8,2.1,1,3.1L354.2,4.7z
			 M358,4.7l-0.9-0.4c0.4-1.1,0.7-2.1,1.1-3.1l1,0.3C358.9,2.4,358.5,3.4,358,4.7L358,4.7z M359.4,2.4V1.3h3.4V0h1.5v1.3h3.8v1.1
			h-3.8v0.9h3.4v1.1h-3.4v0.9h4.1v1.1h-9.2V5.3h3.7V4.4h-3.2V3.3h3.2V2.4C362.9,2.4,359.4,2.4,359.4,2.4z M359.7,14.9V7.3h7.9v5.6
			c0,1.3-0.6,1.9-1.9,1.9h-2c0-0.2-0.1-0.5-0.2-0.9c0-0.2-0.1-0.4-0.1-0.4c0.4,0,1,0.1,1.8,0.1c0.6,0,0.9-0.2,0.9-0.8v-0.3h-4.9v2.5
			C361.2,14.9,359.7,14.9,359.7,14.9z M361.2,8.4v1h4.9v-1H361.2z M361.2,10.4v1h4.9v-1H361.2z"/>
		<path class="st0" d="M371.5,14.9v-7h6v7h-1.6v-0.9H373v0.9C373,14.9,371.5,14.9,371.5,14.9z M372.9,6.4V0.8h10.9v5.6
			C383.8,6.4,372.9,6.4,372.9,6.4z M373,9.4v3.4h2.9V9.4H373z M374.6,2.3v2.6h7.5V2.2L374.6,2.3L374.6,2.3z M379.2,14.9v-7h6.1v7
			h-1.6v-0.9h-2.9v0.9L379.2,14.9L379.2,14.9z M380.7,9.4v3.4h2.9V9.4H380.7z"/>
		<path class="st0" d="M398.2,14.8c0-0.2-0.1-0.6-0.2-1.1c0-0.1-0.1-0.2-0.1-0.3c0.2,0,0.6,0,1.2,0.1h0.9c0.8,0,1.1-0.3,1.2-0.9
			c0-0.3,0.1-0.9,0.1-1.7c0-0.4,0.1-0.7,0.1-0.9h-9.9c-0.7,0.8-1.5,1.6-2.4,2.4c0,0-0.1-0.1-0.1-0.2c-0.3-0.5-0.6-1-0.8-1.2
			c2.2-2,3.9-4.2,4.9-6.6h-4.3V3h4.8c0.2-0.5,0.5-1.3,0.8-2.4c0.1-0.2,0.1-0.4,0.2-0.6l1.7,0.1c0,0.2-0.1,0.4-0.2,0.8
			c-0.1,0.5-0.3,1.2-0.6,2.1h6l-0.5,2.8h1.3l-0.4,2.8h1.2c0,0.3,0,0.8-0.1,1.4c0,1.2-0.1,2.1-0.1,2.7c0,1.3-0.8,2-2.2,2
			C399.8,14.8,399,14.8,398.2,14.8L398.2,14.8z M391.6,14.2l-1.5-0.3c0.5-1,0.9-2,1.2-3l1.4,0.2C392.4,12.3,392,13.3,391.6,14.2
			L391.6,14.2z M392,2.9c-0.2-0.3-0.7-0.7-1.3-1.3c-0.2-0.2-0.4-0.4-0.5-0.5l0.9-0.9c0.8,0.7,1.4,1.2,1.9,1.8L392,2.9L392,2.9z
			 M393.5,7.1c-0.2,0.3-0.5,0.8-0.9,1.3c0,0.1-0.1,0.1-0.1,0.2h7.6l0.3-1.5L393.5,7.1L393.5,7.1z M394,13.9
			c-0.1-0.8-0.3-1.7-0.5-2.8l1.2-0.1c0.2,0.8,0.4,1.7,0.7,2.8L394,13.9L394,13.9z M394.9,4.3c0,0.1-0.1,0.3-0.2,0.4
			c-0.1,0.2-0.2,0.6-0.5,1.1h5.1l0.3-1.5H394.9L394.9,4.3z M396.8,13.4c-0.1-0.2-0.2-0.5-0.4-1.1c-0.2-0.6-0.3-1.1-0.4-1.4l1.2-0.2
			c0.1,0.2,0.3,0.6,0.5,1.2c0.2,0.5,0.4,0.9,0.4,1.2C398.1,13.2,396.8,13.4,396.8,13.4z M399.4,12.9c-0.2-0.6-0.6-1.4-1-2.2l1.1-0.4
			c0.1,0.2,0.2,0.4,0.4,0.8c0.3,0.7,0.5,1.1,0.6,1.4L399.4,12.9z"/>
		<path class="st0" d="M410.4,14.6v-0.9h-2.6v1.1h-1.4V1.7h1.6c0.1-0.2,0.2-0.6,0.2-1c0-0.2,0.1-0.4,0.1-0.6l1.6,0.1
			c-0.1,0.5-0.2,0.9-0.4,1.4h2.1v5.1h-3.8v1.7h4v6.1L410.4,14.6L410.4,14.6z M407.8,3.1v2.4h2.4V3.1C410.2,3.1,407.8,3.1,407.8,3.1z
			 M410.4,9.9h-2.6v2.5h2.6V9.9z M412.4,2.3V0.9h8.6v1.4h-3.6v2h3.1V11c0,1.1-0.4,1.6-1.3,1.7H418c0-0.2-0.1-0.4-0.1-0.8
			c-0.1-0.3-0.1-0.6-0.2-0.7h0.8c0.4,0,0.6-0.1,0.6-0.6v-5h-1.7V15h-1.6V5.8h-1.6v7.1h-1.4V4.3h3v-2L412.4,2.3L412.4,2.3z"/>
		<path class="st0" d="M432.2,4.6v2.1c0,1.6-0.6,2.8-2.1,3.6l-0.6-0.7c1-0.6,1.6-1.5,1.6-2.6h-1.2V4.6L432.2,4.6L432.2,4.6z"/>
		<path class="st0" d="M454.7,14.7c-3.5-1.9-5.6-4.6-6.2-8.1c-0.6,3.5-2.8,6.3-6.4,8.3c-0.3-0.5-0.7-1.1-1.2-1.6
			c4-2,6.1-5.2,6.4-9.4c0.1-1,0.1-2.2,0.1-3.8h1.9c0,0.1-0.1,0.5-0.1,1.1c0,0.5-0.1,0.9-0.1,1.1c0.4,5.4,2.6,9,6.8,10.7
			C455.4,13.7,455,14.2,454.7,14.7L454.7,14.7z"/>
		<path class="st0" d="M459.5,7.8c-0.4-0.1-0.8-0.2-1.2-0.2c0.1-0.6,0.3-1.6,0.4-3c0.1-0.6,0.1-1.1,0.2-1.3l1.1,0.1
			C459.9,4.8,459.7,6.2,459.5,7.8z M463.2,5.3c-0.4-0.4-0.8-0.7-1.1-1v10.6h-1.6V0.1h1.6v2.4c0.6,0.4,1.2,0.9,1.9,1.4L463.2,5.3
			L463.2,5.3z M464.8,7.2c-0.2-0.1-0.4-0.2-0.7-0.3c-0.3-0.1-0.6-0.2-0.8-0.2c0.8-1.6,1.4-3.4,1.7-5.5l1.6,0.2
			c0,0.2-0.1,0.6-0.2,1.1c-0.1,0.4-0.1,0.7-0.2,0.8h1.7V0.1h1.7v3.2h3.6v1.6h-3.6V8h3.3v1.6h-3.3v3.4h3.9v1.4h-10.1v-1.4h4.5V9.5
			h-3.6V8h3.6V4.9h-2.2C465.5,5.7,465.2,6.4,464.8,7.2L464.8,7.2z"/>
		<path class="st0" d="M476.2,4.2V2.8h1.9V0.1h1.6l-0.1,2.7h1.8v1.5h-1.8v2.4h2.1v1.5h-2.1l-0.1,0.8h0.1c0.8,0.8,1.6,1.8,2.5,2.8
			l-1.1,1.2c-0.1-0.1-0.3-0.3-0.5-0.6c-0.5-0.7-1-1.2-1.2-1.6c-0.3,1.3-1.1,2.7-2.4,4.3c-0.1-0.1-0.2-0.2-0.4-0.5
			c-0.3-0.4-0.5-0.7-0.7-0.9c1.5-1.5,2.2-3.3,2.3-5.4H476V6.6h2.1c0-0.1,0-0.2,0.1-0.4v-2L476.2,4.2L476.2,4.2z M482.4,10.1V0.7h7.7
			v9.4h-2v2.5c0,0.4,0.1,0.6,0.6,0.6h0.5c0.4,0,0.6-0.2,0.6-0.6c0.1-0.5,0.1-1,0.2-1.5c0.2,0.1,0.5,0.2,0.9,0.4
			c0.1,0,0.2,0.1,0.2,0.1c-0.1,0.9-0.2,1.5-0.2,1.7c-0.2,1-0.7,1.5-1.6,1.4h-0.9c-1.2,0-1.8-0.5-1.8-1.8v-2.8h-1.2
			c0.1,2.4-1.1,4-3.7,4.9c-0.3-0.4-0.6-0.8-0.9-1.2c2.2-0.6,3.3-1.9,3.2-3.7C483.9,10.1,482.4,10.1,482.4,10.1z M483.9,2v1.4h4.6V2
			H483.9z M483.9,4.7v1.4h4.6V4.7H483.9z M483.9,7.3v1.5h4.6V7.3C488.5,7.3,483.9,7.3,483.9,7.3z"/>
		<path class="st0" d="M493.5,14.6l-0.1-1.2c0.3,0,0.9,0,1.6-0.1c3.8,0,6.6-0.1,8.4-0.2v0.6c0,0.2-0.1,0.4-0.1,0.6
			C500.6,14.3,497.4,14.5,493.5,14.6L493.5,14.6z M493.4,3.5V2.6h4.1V1.9h-3.3V1h3.3V0h1.5v1h3.5v1.6h0.9v0.9h-0.9v1.6h-3.5v0.7h3.8
			v0.8h-3.8v0.8h4.4v0.9h-9.9V7.3h4.1V6.6H494V5.8h3.6V5.1h-3.4V4.2h3.4V3.5L493.4,3.5L493.4,3.5z M494.2,12.7V8.9h8.4v3.8
			C502.6,12.7,494.2,12.7,494.2,12.7z M495.6,9.7v0.8h2.2V9.7H495.6z M495.6,11.1v0.8h2.2v-0.8H495.6z M501.3,1.9h-2.2v0.7h2.2V1.9z
			 M499.1,3.5v0.8h2.2V3.5H499.1z M501.3,9.7h-2.2v0.8h2.2V9.7z M499.1,11.1v0.8h2.2v-0.8H499.1z M504.3,14.7c0-0.2-0.1-0.4-0.1-0.7
			c-0.1-0.3-0.1-0.6-0.2-0.8h1.6c0.7,0,1-0.2,1-0.7V0.1h1.3v12.8c0.1,1.2-0.5,1.9-1.7,1.9L504.3,14.7L504.3,14.7z M504.1,11.4v-10
			h1.2v10L504.1,11.4L504.1,11.4z"/>
		<path class="st0" d="M520.8,14.8c0-0.2-0.1-0.6-0.2-1.1c0-0.1-0.1-0.2-0.1-0.3c0.2,0,0.7,0,1.2,0.1h0.9c0.8,0,1.2-0.3,1.2-0.9
			c0-0.3,0.1-0.9,0.1-1.7c0-0.4,0.1-0.7,0.1-0.9h-9.9c-0.7,0.8-1.5,1.6-2.4,2.4c0,0-0.1-0.1-0.1-0.2c-0.3-0.5-0.6-1-0.8-1.2
			c2.2-2,3.9-4.2,4.9-6.6h-4.3V3h4.8c0.2-0.5,0.5-1.3,0.8-2.4c0.1-0.2,0.2-0.4,0.2-0.6l1.7,0.1c0,0.2-0.1,0.4-0.2,0.8
			c-0.1,0.5-0.3,1.2-0.6,2.1h6l-0.5,2.8h1.3l-0.4,2.8h1.2c0,0.3,0,0.8-0.1,1.4c0,1.2-0.1,2.1-0.1,2.7c0,1.3-0.8,2-2.2,2
			C522.4,14.8,521.6,14.8,520.8,14.8L520.8,14.8z M514.3,14.2l-1.5-0.3c0.5-1,0.8-2,1.2-3l1.4,0.2C515,12.3,514.7,13.3,514.3,14.2
			L514.3,14.2z M514.7,2.9c-0.2-0.3-0.7-0.7-1.3-1.3c-0.2-0.2-0.4-0.4-0.5-0.5l0.9-0.9c0.8,0.7,1.4,1.2,1.9,1.8L514.7,2.9L514.7,2.9
			z M516.2,7.1c-0.2,0.3-0.5,0.8-0.9,1.3c0,0.1-0.1,0.1-0.1,0.2h7.6l0.3-1.5L516.2,7.1L516.2,7.1z M516.6,13.9
			c-0.1-0.8-0.3-1.7-0.5-2.8l1.2-0.1c0.2,0.8,0.4,1.7,0.7,2.8L516.6,13.9L516.6,13.9z M517.5,4.3c0,0.1-0.1,0.3-0.2,0.4
			c-0.1,0.2-0.2,0.6-0.5,1.1h5.1l0.3-1.5H517.5L517.5,4.3z M519.4,13.4c-0.1-0.2-0.2-0.5-0.4-1.1c-0.2-0.6-0.3-1.1-0.4-1.4l1.2-0.2
			c0.1,0.2,0.3,0.6,0.5,1.2c0.2,0.5,0.3,0.9,0.4,1.2C520.7,13.2,519.4,13.4,519.4,13.4z M522,12.9c-0.2-0.6-0.6-1.4-1-2.2l1.1-0.4
			c0.1,0.2,0.2,0.4,0.4,0.8c0.3,0.7,0.5,1.1,0.6,1.4L522,12.9z"/>
		<path class="st0" d="M529,4.1V2.5h6.1V0.1h1.7v2.4h6.2v1.6h-5.4c1.3,2.7,3.3,4.8,5.9,6.4c-0.4,0.5-0.7,1.1-0.9,1.7
			c-2.8-1.9-4.7-4.2-5.9-6.8v5.3h3.2v1.5h-3.2v2.6h-1.7v-2.6h-3.2v-1.5h3.2V5.6c-1.1,2.6-3.1,4.9-5.9,6.9c-0.4-0.8-0.7-1.3-0.9-1.7
			c2.7-1.7,4.7-3.9,6-6.6L529,4.1L529,4.1z"/>
		<path class="st0" d="M546.6,14.8V2.5h1.7c0.1-0.5,0.3-1.1,0.5-1.9c0-0.2,0.1-0.4,0.1-0.6l1.8,0.2c-0.2,0.7-0.4,1.5-0.6,2.2h2.7
			v12.2h-1.6v-1.1h-2.9v1.2L546.6,14.8L546.6,14.8z M548.2,4.1v3.2h2.9V4.1H548.2z M548.2,8.9v3.2h2.9V8.9H548.2z M555,14.7
			c-0.1-0.6-0.2-1.1-0.3-1.6h1.1c0.5,0,1,0.1,1.2,0.1c1.1,0,1.7-0.5,1.7-1.6c0-0.7,0.1-2.1,0.1-4.2c0-1.5,0.1-2.6,0.1-3.2h-3.4
			c-0.4,0.8-0.8,1.6-1.1,2.3c-0.1,0-0.2-0.1-0.4-0.2c-0.2-0.1-0.6-0.3-1.1-0.6c1-1.8,1.7-3.6,2.2-5.5l1.7,0.4c0,0.2-0.1,0.4-0.2,0.7
			c-0.2,0.6-0.3,1-0.5,1.4h4.5c-0.1,4.5-0.2,7.7-0.2,9.4c0,1.9-0.8,2.8-2.7,2.8C556.8,14.7,555.9,14.7,555,14.7L555,14.7z
			 M556.3,10.5c-0.7-1.1-1.5-2.2-2.3-3.3l1.3-0.8c0.8,0.9,1.6,1.9,2.4,3.2L556.3,10.5L556.3,10.5z"/>
		<path class="st0" d="M577.6,1.6h-4.2v7.3h-1V0.6h5.2V1.6z"/>
		<path class="st0" d="M581.2,11.4V10h0.9V1.3c0.1,0,0.3-0.1,0.6-0.1c0.8-0.2,1.3-0.4,1.8-0.6l0.6,1.2c-0.6,0.2-1.2,0.4-1.6,0.5v1.6
			h1.3v1.4h-1.3v1.7h1.3v1.3h-1.3V10h1.9V0.7h6.4V10h1.9V8.2h-1.3V6.9h1.3V5.2h-1.3V3.9h1.3V2.2h-1.4V0.8h2.8V10h0.9v1.4H581.2
			L581.2,11.4z M582,15c-0.1-0.3-0.4-0.8-0.8-1.4c1.5-0.4,3.3-1,5.2-1.9l0.8,1.3c-0.3,0.1-0.8,0.3-1.5,0.6
			C584.1,14.3,582.9,14.7,582,15L582,15z M586.7,2v8h3.8V2H586.7z M587.2,4.1V2.9h2.7v1.1H587.2z M587.4,9V5h2.5v4H587.4z
			 M588.1,6.1v1.9h0.9V6.1H588.1z M595.2,15c-1.7-0.8-3.5-1.4-5.4-1.9l0.6-1.3c0.8,0.2,2,0.6,3.6,1.2c0.8,0.2,1.5,0.4,1.9,0.6
			L595.2,15L595.2,15z"/>
		<path class="st0" d="M603.4,4.8V3.6h3.7V2.4h-3V1.2h3V0h1.6v1.2h3.8v2.3h1.2v1.2h-1.2v2.3h-3.8v1.1h4v1.2h-4v1.1h4.4v1.2h-4.4v1.4
			h5.1c-0.2,0.3-0.3,0.8-0.4,1.4c-2.8,0-4.9,0-6.6-0.1c-2.5,0-4.2-0.5-5.4-1.4c-0.5,0.6-1.2,1.2-2,2c-0.3-0.7-0.6-1.2-0.8-1.4
			c0.7-0.5,1.2-1.1,1.8-1.8c-0.6-0.8-1.2-1.8-1.6-3.1l1.2-0.6c0.4,1.1,0.8,1.9,1.1,2.3c0.4-0.9,0.6-2,0.8-3.2h-1.2l-0.2,0.4
			l-1.8-0.1l3-5.1h-2.7V1.1h4.5v1.5l-1.9,3.2h1.9v0.7c-0.2,2.3-0.6,4.1-1.2,5.3c0.9,1,2.5,1.4,4.7,1.4h0.3v-1.4h-3.7v-1.2h3.7V9.4
			h-3.2V8.2h3.2V7.1H604V6h3.1V4.8L603.4,4.8L603.4,4.8z M610.9,2.4h-2.2v1.1h2.2V2.4z M608.6,4.8v1.2h2.2V4.8H608.6z"/>
		<path class="st0" d="M617.1,4.4c-0.1-0.1-0.2-0.2-0.4-0.4c-0.3-0.3-0.5-0.5-0.7-0.6c1.2-1,2.1-2.1,2.6-3.4l1.7,0.1
			c-0.2,0.4-0.4,0.8-0.6,1.1h3.9v1.2H621l1,1.3l-1.4,0.4c-0.4-0.5-0.8-1.1-1.2-1.6l0.2-0.1h-0.7C618.5,3.1,617.9,3.7,617.1,4.4
			L617.1,4.4z M616.6,5.8V4.6h5.4v1.2h-1.9v1.9l1.9-0.2c0,0.3-0.1,0.7-0.1,1c0.8-0.5,1.1-1.3,1-2.4V4.5h5.8v3c0,0.4,0.2,0.6,0.4,0.6
			h0.2c0.3,0,0.5-0.2,0.6-0.6c0.1-0.3,0.1-0.8,0.1-1.3c0.1,0,0.2,0.1,0.5,0.2c0.3,0.1,0.6,0.2,0.7,0.2c0,0.5-0.1,1-0.2,1.4
			c-0.2,0.9-0.7,1.3-1.7,1.3h-0.6c-1,0-1.4-0.5-1.4-1.5V5.7h-2.9v0.5c0.1,1.4-0.4,2.5-1.5,3.3h1.5v0.8h6.5v1.3h-5.3
			c1.2,0.9,3.1,1.5,5.6,1.9c-0.3,0.5-0.5,0.9-0.8,1.3c-2.8-0.7-4.8-1.5-6.1-2.6V15h-1.6v-2.9c-1.3,1.1-3.3,2-6,2.8
			c-0.1-0.2-0.4-0.6-0.8-1.3c2.5-0.4,4.4-1.1,5.6-2h-5.2v-1.3h6.4V9.6h-0.1c0,0-0.1-0.1-0.2-0.2c-0.4-0.3-0.7-0.6-0.9-0.7
			c-1.5,0.1-3.2,0.3-5.1,0.6L616.2,8l2.4-0.2v-2L616.6,5.8L616.6,5.8z M624.4,4.1c-0.1-0.1-0.3-0.2-0.6-0.4
			c-0.3-0.1-0.5-0.2-0.7-0.3c1.1-1.1,1.8-2.3,2.3-3.4l1.6,0.1c-0.1,0.2-0.2,0.4-0.3,0.6s-0.2,0.4-0.2,0.5h4.4v1.2h-3.1
			c0.1,0.1,0.2,0.3,0.4,0.5c0.2,0.3,0.4,0.6,0.6,0.8l-1.4,0.4c-0.3-0.5-0.7-1-1.1-1.6l0.1-0.1h-0.7C625.3,3.1,624.9,3.6,624.4,4.1
			L624.4,4.1z M626,8.8c-0.6-0.7-1.1-1.2-1.6-1.7l0.9-0.8l1.7,1.6L626,8.8L626,8.8z"/>
		<path class="st0" d="M634.6,14.1h4.1V6.9h1v8.2h-5.1V14.1z"/>
		<path class="st0" d="M1.5,29.6c0,0-0.1-0.1-0.2-0.3c-0.5-0.8-1-1.4-1.2-1.8l1-0.7c0.5,0.6,1,1.3,1.5,2v-2.8h1.4v4.1h1.2v-4.1h1.3
			v2.8c0.5-0.6,1-1.3,1.5-2l1.1,0.7c-0.2,0.3-0.6,0.8-1.2,1.6c-0.2,0.2-0.3,0.4-0.4,0.5l-1-0.8v1.2h2.4v1.3H6.3L7.5,32
			c-0.3,0.4-0.6,0.9-1,1.3h2.1v1.3H5.3V36h2.9v1.2H5.3v1.5c1,0,2.2,0,3.6-0.1c0,0.2,0,0.4-0.1,0.6v0.6C8.3,40,7.6,40,6.6,40
			c-2.9,0.1-5,0.2-6.4,0.3L0,39c1.2,0,2.4,0,3.7-0.1v-1.6H0.6V36h3.1v-1.4H0.2v-1.3h2.1c-0.4-0.6-0.8-1-1.1-1.3l1.1-0.6H0v-1.3h2.6
			v-1.2L1.5,29.6L1.5,29.6z M3.8,32.9l-0.9,0.4h2.6L5,33.2c0.5-0.6,0.9-1.2,1.2-1.8H2.6c0.1,0.1,0.2,0.2,0.4,0.4
			C3.3,32.3,3.6,32.6,3.8,32.9L3.8,32.9z M10.5,36.3c-0.2-0.7-0.7-1.8-1.3-3.4c0.1,0.1,0,0-0.1-0.4l1.3-0.4c0.6,1.4,1.1,2.6,1.5,3.7
			L10.5,36.3L10.5,36.3z M9.4,30.8v-1.5h2.9v-3.2h1.6v3.2h1.2v1.5h-1.2v8.1c0,1.2-0.6,1.8-1.9,1.8h-1.9c-0.1-0.5-0.2-1-0.3-1.6
			c0.4,0,1,0.1,1.6,0.1c0.7,0,1-0.2,0.9-0.9v-7.6L9.4,30.8L9.4,30.8z"/>
		<path class="st0" d="M17.7,29.8v-1.5h2.7v-2.2H22v2.2h2.7v1.5h-4c0,0.3,0,0.7-0.1,1.2V32h3.6c0,2.2,0,4.3-0.1,6.6
			c-0.1,1.4-0.7,2.1-1.9,2.1c-0.5,0-1,0.1-1.6,0.1c-0.1-0.5-0.2-1-0.3-1.5h1.2c0.8,0,1.1-0.3,1.1-1.1c0-0.6,0.1-1.6,0.1-3.1
			c0-0.8,0.1-1.3,0.1-1.6h-2.1c0,3.4-0.6,5.9-1.9,7.6c-0.1-0.2-0.4-0.5-0.8-0.9c-0.2-0.1-0.3-0.2-0.4-0.3c1.1-1.5,1.6-3.8,1.6-7.1
			l0.1-2.9H17.7L17.7,29.8z M32,32.8c-1.6-1.2-2.8-2.7-3.5-4.2c-0.8,1.6-2,3.1-3.4,4.4c-0.1-0.2-0.4-0.6-0.7-1.1
			c-0.1-0.2-0.2-0.3-0.2-0.4c1.8-1.5,3-3.3,3.8-5.4l1.6,0.2c0,0.1-0.1,0.2-0.1,0.4c-0.1,0.2-0.1,0.4-0.2,0.4
			c0.9,1.7,2.1,3.1,3.6,4.1c-0.1,0.2-0.2,0.5-0.4,0.9C32.2,32.4,32.1,32.6,32,32.8L32,32.8z M30.3,40.9c-1.7-1.2-3.4-2.3-5.3-3.4
			l1-1.3c0.6,0.3,1.5,0.9,2.7,1.6c1.2,0.8,2.1,1.3,2.7,1.6L30.3,40.9L30.3,40.9z M30.3,36.1c-0.9-0.6-2.2-1.5-3.9-2.6l0.9-1.2
			c0.3,0.2,0.8,0.5,1.4,0.9c1.1,0.7,2,1.2,2.6,1.6L30.3,36.1L30.3,36.1z"/>
		<path class="st0" d="M36.2,28.6v-1.2h6.2V26h1.6v1.3H50v1.2h-2.4l0.5,0.5c-0.8,0.4-1.6,0.7-2.4,1c0.5,0.1,1.2,0.2,2.1,0.5
			c0.4,0.1,0.7,0.2,0.8,0.2c-0.1,0.1-0.2,0.3-0.3,0.6c-0.1,0.1-0.2,0.2-0.2,0.3h2.1v1.2H38.1v1.5c0.1,2.7-0.5,4.9-1.6,6.7
			c-0.1-0.1-0.3-0.2-0.7-0.5c-0.3-0.2-0.5-0.4-0.7-0.6c1-1.2,1.5-3.1,1.4-5.6v-2.8h1.8l-0.6-1c1.4-0.2,2.6-0.4,3.7-0.6
			c-0.1,0-0.3-0.1-0.6-0.1c-0.6-0.2-1.4-0.4-2.4-0.6l0.5-0.8L36.2,28.6L36.2,28.6z M39.3,37.2c-0.2-0.2-0.5-0.5-1.1-0.9
			c0.9-1,1.6-2,2.1-3.1l1.4,0.2l-0.4,0.8h2.1V33h1.6v1.2h4.6v1.2h-4.6v1.2H49v1.2h-4.1v1.2h5.2v1.3H38.3v-1.3h5.1v-1.2h-3.6v-1.2
			h3.6v-1.2h-2.8C40.2,36.1,39.8,36.7,39.3,37.2L39.3,37.2z M47.2,31.7c-0.6-0.2-1.5-0.4-2.6-0.8c-0.4-0.1-0.7-0.2-0.9-0.2
			c-1.4,0.4-3,0.7-4.8,1C38.9,31.7,47.2,31.7,47.2,31.7z M39.6,28.6c0.5,0.1,1.4,0.3,2.6,0.6c0.7,0.2,1.2,0.3,1.5,0.4
			c0.5-0.1,1.2-0.3,2.1-0.6c0.4-0.2,0.7-0.3,0.8-0.3L39.6,28.6L39.6,28.6z"/>
		<path class="st0" d="M53.5,40.9v-7h6v7h-1.6v-0.9H55v0.9C55,40.9,53.5,40.9,53.5,40.9z M54.9,32.4v-5.6h10.9v5.6
			C65.8,32.4,54.9,32.4,54.9,32.4z M55,35.4v3.4h2.9v-3.4H55z M56.6,28.3v2.6h7.5v-2.6H56.6z M61.2,40.9v-7h6.1v7h-1.6v-0.9h-2.9
			v0.9C62.7,40.9,61.2,40.9,61.2,40.9z M62.7,35.4v3.4h2.9v-3.4C65.7,35.4,62.7,35.4,62.7,35.4z"/>
		<path class="st0" d="M70.8,29.3v-1.5h4.6c0.1-0.2,0.3-0.5,0.4-0.9c0.2-0.4,0.3-0.7,0.4-0.9l1.9,0.2c-0.1,0.2-0.2,0.4-0.4,0.8
			c-0.2,0.3-0.3,0.6-0.4,0.8h8.1v1.5h-8.8c-0.1,0.1-0.2,0.3-0.3,0.6c-0.2,0.4-0.4,0.7-0.6,0.9h8.1v8.1c0.1,1.3-0.6,1.9-2.1,1.9
			c-0.7,0-1.5,0.1-2.5,0.1c0-0.2-0.1-0.6-0.2-1c0-0.2-0.1-0.4-0.1-0.5H81c0.8,0.1,1.2-0.2,1.1-1v-0.6h-7.2v3.2h-1.7v-7
			c-0.7,0.7-1.4,1.4-2.1,2c-0.1-0.3-0.3-0.8-0.6-1.4c-0.1-0.1-0.1-0.2-0.1-0.2c1.9-1.5,3.3-3.2,4.2-4.9L70.8,29.3L70.8,29.3z
			 M74.9,32.2v1.4h7.2v-1.4H74.9z M74.9,34.9v1.4h7.2v-1.4H74.9z"/>
		<path class="st0" d="M89.7,31.2V30H94v-0.9h1.7V30H99v1.2h-3.3v1.2H97c1.3-0.7,2.7-1.6,4.3-2.8l1.1,1.1c-0.2,0.1-0.4,0.3-0.7,0.5
			c-0.5,0.3-1.1,0.7-2,1.2h3.4v1.2h-5.6c-0.8,0.4-1.6,0.8-2.4,1.2h6.1V41h-1.6v-0.6h-7.2V41h-1.6v-4.4c-0.2,0.1-0.5,0.2-0.9,0.3
			c-0.6,0.2-1,0.4-1.4,0.5c-0.2-0.5-0.3-1-0.5-1.4c2.4-0.6,4.6-1.4,6.6-2.3h-6.4v-1.2H94v-1.2L89.7,31.2L89.7,31.2z M88.1,28.4v-1.3
			h3.8V26h1.6v1.1h3.9V26h1.6v1.1h3.9v1.3h-3.9v0.9h-1.6v-0.9h-3.9v0.9h-1.6v-0.9H88.1z M92.4,36.1v1.1h7.2v-1.1H92.4z M92.4,38.2v1
			h7.2v-1H92.4z"/>
		<path class="st0" d="M119.7,27.6h-4.2v7.3h-1v-8.3h5.2C119.7,26.6,119.7,27.6,119.7,27.6z"/>
		<path class="st0" d="M123.6,37.1v-1.3h6.1c0.1-0.3,0.1-0.7,0.1-0.9h1.8c0,0.3,0,0.6-0.1,0.9h6.4v1.3h-6.1c0.8,1.3,2.9,2.1,6.4,2.2
			c-0.3,0.5-0.6,1.1-0.8,1.6c-3.4-0.4-5.6-1.3-6.7-2.8c-0.8,1.3-3.1,2.3-6.8,2.9c-0.1-0.3-0.4-0.8-0.8-1.6c3.7-0.3,5.8-1.1,6.2-2.4
			L123.6,37.1L123.6,37.1z M123.8,29.3v-1.3h3.9c-0.1-0.1-0.3-0.3-0.5-0.6c-0.3-0.5-0.6-0.8-0.8-1l1.7-0.4c0.3,0.3,0.7,0.8,1.3,1.6
			c0.1,0.1,0.1,0.2,0.2,0.2l-0.7,0.2h3.1c0-0.1,0.1-0.2,0.2-0.3c0.7-0.8,1.1-1.4,1.3-1.7l1.8,0.4c-0.5,0.6-0.9,1.1-1.3,1.6h3.8v1.3
			h-6.1v1.2h5.4v1.3h-5.4V33h6.5v1.3h-14.7V33h6.5v-1.2h-5.2v-1.3h5.2v-1.2L123.8,29.3L123.8,29.3z"/>
		<path class="st0" d="M140.8,38.2v-1.3h7.1v-0.2l2.2-1.2H144v-1.2h8.6v1.2l-2.7,1.4h6v1.3h-6.3v0.9c0,1.2-0.6,1.8-1.8,1.8
			c-0.5,0-1.4,0.1-2.8,0.1c-0.1-0.6-0.2-1.1-0.3-1.4c0.4,0,1.1,0.1,2.3,0.1c0.7,0,1-0.2,0.9-0.8v-0.6L140.8,38.2L140.8,38.2z
			 M151,29.4v-0.9h2.2v-0.9h-2.4v-1.1h3.9v5.7h0.9v2.9h-1.6v-1.8h-11.4v1.8h-1.5v-2.9h0.8v-5.4c1.4-0.2,2.5-0.5,3.4-0.7l0.5,1.2
			c-0.4,0.1-1,0.2-1.8,0.3c-0.3,0.1-0.5,0.1-0.6,0.1v0.8h2.3v0.9h-2.3v0.9h2.3v0.9h-2.3v0.9h9.8v-0.9h-2.3v-0.9h2.3v-0.9L151,29.4
			L151,29.4z M146.1,28.3c0.5-0.2,1-0.5,1.4-0.8c-0.4-0.3-0.9-0.6-1.3-0.8l0.6-0.8c0.2,0.1,0.4,0.2,0.8,0.4c0.4,0.2,0.6,0.4,0.8,0.5
			c0.5-0.3,0.9-0.6,1.3-1l0.8,0.7c-0.1,0.1-0.3,0.2-0.6,0.4c-0.3,0.2-0.5,0.4-0.6,0.5c0.2,0.1,0.4,0.2,0.7,0.4
			c0.3,0.2,0.5,0.4,0.6,0.4l-0.6,0.8l0.4,0.4c-0.4,0.3-0.8,0.6-1.1,0.9c0.1,0.1,0.3,0.2,0.5,0.3c0.3,0.2,0.6,0.4,0.8,0.5l-0.8,0.9
			c-0.5-0.4-1-0.7-1.4-1.1c-0.6,0.4-1.2,0.7-1.8,1.1c-0.2-0.3-0.4-0.6-0.6-0.9c0.5-0.2,1-0.5,1.4-0.8c-0.4-0.2-0.8-0.5-1.2-0.8
			l0.4-0.4l-0.1,0.1C146.5,28.9,146.3,28.6,146.1,28.3L146.1,28.3z M148.4,28.1c-0.4,0.2-0.8,0.5-1.3,0.8c0.1,0.1,0.3,0.2,0.6,0.4
			c0.4,0.2,0.6,0.4,0.8,0.5c0.3-0.2,0.7-0.5,1.1-0.9L148.4,28.1z"/>
		<path class="st0" d="M158.4,30.1v-1.3h5.9v1.3H158.4z M158.8,32.2v-1.2h5v1.2H158.8z M158.8,34.4v-1.2h5v1.2H158.8z M164.6,41
			c-0.1-0.2-0.2-0.5-0.5-0.9c-0.1-0.2-0.2-0.3-0.2-0.4v1.1h-1.4v-0.9h-2.2v0.8h-1.4v-5.2h4.9v4c1.3-0.3,2.5-0.8,3.6-1.4
			c-0.8-0.8-1.6-1.9-2.3-3.4l0.9-0.4h-1.3v-1.4h7.9v1.5c-0.8,1.5-1.6,2.8-2.6,3.7c0.9,0.5,2.1,1,3.6,1.3c-0.1,0.1-0.2,0.3-0.4,0.7
			c-0.2,0.4-0.4,0.6-0.5,0.8c-1.6-0.5-3-1.1-4-1.7C167.5,39.9,166.1,40.5,164.6,41L164.6,41z M159.2,27.8v-1.2h4.3v1.2H159.2z
			 M160.3,36.8v2h2.2v-2H160.3z M165.1,32.6c-0.2-0.4-0.5-0.9-0.9-1.3c1.3-0.5,1.9-1.5,1.8-3.1v-1.5h5.1v3c0,0.6,0.1,0.9,0.6,0.8
			h0.2c0.3,0,0.5-0.2,0.5-0.7c0.1-0.5,0.2-0.9,0.1-1.2c0.2,0.2,0.6,0.3,1.1,0.5c0,0,0.1,0.1,0.1,0.1v0.2c0,0.3-0.1,0.7-0.2,1.3
			c-0.1,0.9-0.6,1.4-1.5,1.3h-0.8c-1,0-1.5-0.6-1.5-1.8v-2h-2.2C167.5,30.2,166.8,31.7,165.1,32.6L165.1,32.6z M170.8,34.4h-4.2
			c0.6,1.1,1.3,2.1,2.1,2.8C169.5,36.4,170.2,35.5,170.8,34.4L170.8,34.4z"/>
		<path class="st0" d="M176,30.1v-1.3h6.8v1.3H176z M176.5,32.4v-1.2h5.8v1.2H176.5z M176.5,34.6v-1.2h5.8v1.2H176.5z M176.6,40.9
			v-5.2h5.6v5.2h-1.5v-0.7h-2.6v0.8H176.6z M176.8,27.8v-1.2h5.2v1.2H176.8z M178.1,36.9v2h2.6v-2H178.1z M182.9,32.8v-1.6h3.2v-5.2
			h1.7v5.2h3.2v1.6h-3.2v8.1h-1.7v-8.1H182.9z"/>
		<path class="st0" d="M194.6,40.1h4.1v-7.2h1v8.2h-5.1V40.1z"/>
		<path class="st0" d="M221.1,34.8l-1.3,1.2l-3.4-3.8l1.2-1.1L221.1,34.8z"/>
		<path class="st0" d="M242.9,27.6h-4.2v7.3h-1v-8.3h5.2C242.9,26.6,242.9,27.6,242.9,27.6z"/>
		<path class="st0" d="M251.3,37.2c-0.4-0.6-0.9-1.2-1.3-1.8v5.5h-1.4v-5.3c-0.4,1.2-1,2.4-1.8,3.4c0-0.2-0.1-0.6-0.3-1.1
			c-0.1-0.3-0.1-0.6-0.2-0.7c0.9-1.1,1.6-2.5,2.1-4.2h-1.9v-1.4h2.1v-5.4h1.4v5.4h1.8V33H250v1.7l0.6-0.5c0.8,0.9,1.4,1.6,1.8,2.1
			L251.3,37.2L251.3,37.2z M247.3,30.7c0-0.2-0.1-0.5-0.2-0.9c-0.2-0.9-0.5-1.7-0.7-2.2l0.9-0.3c0.4,1.1,0.8,2.1,1,3.1L247.3,30.7z
			 M251.1,30.7l-0.9-0.4c0.4-1.1,0.7-2.1,1.1-3.1l1,0.3C252,28.4,251.6,29.4,251.1,30.7L251.1,30.7z M252.5,28.4v-1.1h3.4V26h1.5
			v1.3h3.8v1.1h-3.8v0.9h3.4v1.1h-3.4v0.9h4.1v1.1h-9.2v-1.1h3.7v-0.9h-3.2v-1.1h3.2v-0.9H252.5z M252.8,40.9v-7.6h7.9v5.6
			c0,1.3-0.6,1.9-1.9,1.9h-2c0-0.2-0.1-0.5-0.2-0.9c0-0.2-0.1-0.3-0.1-0.4c0.4,0,1,0.1,1.8,0.1c0.6,0,0.9-0.2,0.9-0.8v-0.3h-4.9v2.5
			H252.8z M254.3,34.4v1h4.9v-1H254.3z M254.3,36.4v1h4.9v-1H254.3z"/>
		<path class="st0" d="M264.6,29.4v-2.4h6.2V26h1.7v1.1h6v2.4H277l-0.1,1h2.2v1.1h-2.2l-0.1,1.6H266l0.2-1.6H264v-1.1h2.3l0.1-1.5
			H277v-0.8h-10.9v1.2C266.1,29.4,264.6,29.4,264.6,29.4z M264.7,41.1c-0.2-0.5-0.4-0.8-0.6-1.1c0.5-0.1,1.1-0.2,2.1-0.3
			c0.6-0.1,1.8-0.2,3.6-0.5l0.6,0.9C268.4,40.5,266.5,40.8,264.7,41.1L264.7,41.1z M265.7,39v-5.2h11.6V39H265.7z M267.4,34.7v0.7
			h8.4v-0.7H267.4z M267.4,36.1v0.7h8.4v-0.7H267.4z M267.4,37.5v0.7h8.4v-0.7H267.4z M267.6,32.3h3.1l0.1-0.8h-3.1L267.6,32.3z
			 M267.9,29.8l-0.1,0.8h3.1l0.1-0.8H267.9z M272.2,32.3h3.1l0.1-0.8h-3.1L272.2,32.3z M275.5,29.8h-3.1l-0.1,0.8h3.1L275.5,29.8z
			 M278.4,41.1c-1.5-0.3-3.4-0.7-5.8-1l0.5-0.9c1.8,0.2,3.6,0.4,5.7,0.8L278.4,41.1L278.4,41.1z"/>
		<path class="st0" d="M291.4,38.2v-4.6l-1.6,0.4v4.1c0,0.8,0.4,1.2,1.2,1.1h2.8c0.9,0,1.4-0.2,1.4-0.8c0,0,0-0.2,0.1-0.3
			c0-0.2,0.1-0.6,0.2-1.1c0.5,0.2,0.9,0.4,1.3,0.5c0,0.6-0.2,1.2-0.4,1.6c-0.2,1-0.9,1.4-2.2,1.4h-3.8c-1.4,0-2.1-0.6-2.1-2v-4.3
			l-0.8,0.2l-0.1-1.4l0.9-0.2v-1.8c-0.1,0.1-0.2,0.2-0.3,0.4c-0.3-0.4-0.7-0.8-1.1-1.2c0-0.1,0.1-0.2,0.2-0.2
			c0.1-0.1,0.1-0.2,0.2-0.2h-3l-0.1,2.2h2.8c0,1.9,0,4-0.1,6.2c0,1.5-0.6,2.3-1.8,2.3h-1.2c0-0.1-0.1-0.3-0.2-0.7
			c-0.1-0.3-0.1-0.6-0.2-0.7h1.1c0.6,0,0.9-0.3,0.9-1.1c0.1-1.6,0.1-3.2,0.1-4.8h-1.4v0.1c0,3.2-0.6,5.7-1.8,7.4l-1.1-1.1
			c1-1.4,1.5-3.5,1.5-6.2v-1.6c0-0.9,0.1-1.6,0.1-2.1h-1.2v-1.4h2.1v-2.4h1.6v2.4h1.9v1.3c0.8-0.9,1.5-2.1,2.1-3.7l1.7,0.1
			c-0.2,0.6-0.5,1.1-0.8,1.6h6.1v1.4h-6.9c-0.4,0.6-0.8,1.2-1.4,1.8h1.4v1.5l1.6-0.3v-2.5h1.4v2.2l3.2-0.7c0,0.3,0,0.8-0.1,1.4
			c0,1.2-0.1,2.1-0.1,2.6c0,1.1-0.4,1.7-1.3,1.8c-0.3,0-0.7,0.1-1.3,0.1c-0.1-0.5-0.2-0.9-0.3-1.3h0.9c0.5,0,0.8-0.2,0.8-0.7
			c0.1-0.8,0.1-1.4,0.1-2.1l-1.8,0.4v4.8L291.4,38.2L291.4,38.2z"/>
		<path class="st0" d="M300.2,29v-1.7h13.1V29h-5.6v9.4h6.4v1.6h-14.8v-1.6h6.4V29H300.2L300.2,29z"/>
		<path class="st0" d="M317.8,40.1h4.1v-7.2h1v8.2h-5.1V40.1z"/>
		<path class="st0" d="M344.3,34.8l-1.3,1.2l-3.4-3.8l1.2-1.1L344.3,34.8z"/>
		<path class="st0" d="M366.1,27.6h-4.2v7.3h-1v-8.3h5.2C366.1,26.6,366.1,27.6,366.1,27.6z"/>
		<path class="st0" d="M370.7,41.1c-0.5-0.4-0.9-0.7-1.2-1.1c0.9-1.3,1.3-3.3,1.2-5.9v-3.9h13.9v1.1h-12.4v3.1
			C372.3,37.1,371.8,39.4,370.7,41.1L370.7,41.1z M370.9,29.5v-2.8h5.8v2.8H370.9z M376.9,41v-1.2c-1.7,0.1-3.2,0.3-4.4,0.5
			l-0.2-1.1l1.2-0.1v-4.6h-0.8v-1.1h2.5v-0.7h-1.8V32h4.9v0.8h-1.7v0.7h2.4v1.1h-0.8V41L376.9,41L376.9,41z M372.4,27.6v1.1h3v-1.1
			H372.4z M374.7,34.6v0.9h2.1v-0.9H374.7z M374.7,36.2v0.9h2.1v-0.9H374.7z M374.7,39l2.1-0.2V38h-2.1V39z M378,29.5v-2.8h5.9v2.8
			H378z M379.3,41c0-0.1-0.2-0.2-0.4-0.5c-0.2-0.3-0.3-0.5-0.4-0.7c1.2-0.6,2-1.1,2.4-1.6c-0.4-0.6-0.7-1.3-0.9-2.2
			c0,0-0.1,0.1-0.1,0.2c-0.1,0.2-0.2,0.4-0.5,0.8c-0.2-0.4-0.4-0.8-0.7-1.2c0.8-1.1,1.4-2.5,1.8-4.1l1.4,0.2
			c-0.1,0.4-0.3,0.8-0.4,1.2h3.2v1.2h-0.7c-0.2,1.7-0.7,3-1.2,4c0.4,0.4,1.1,0.9,2.2,1.4c0,0-0.1,0.2-0.2,0.3
			c-0.1,0.2-0.3,0.5-0.6,0.9c-0.8-0.5-1.5-1.1-2.2-1.7C381.2,39.8,380.4,40.4,379.3,41L379.3,41z M379.5,27.6v1.1h3v-1.1H379.5z
			 M380.9,34.2c0,0-0.1,0.1-0.1,0.2c0.2,1,0.5,1.9,0.9,2.7c0.4-0.7,0.7-1.7,0.9-2.9L380.9,34.2L380.9,34.2z"/>
		<path class="st0" d="M387.9,40.8l-0.8-1.6c0.2-0.2,0.5-0.4,0.9-0.8c0.4-0.4,0.7-0.7,0.9-0.8v-3.2h-1.6v-1.4h3.1v4.5
			c0.7,1.1,1.9,1.7,3.6,1.7c3.8,0,6.6,0,8.4-0.1c-0.1,0.2-0.2,0.6-0.4,1.1c0,0.1-0.1,0.2-0.1,0.2c-3.8,0-6.6,0-8.3-0.1
			c-1.9,0-3.2-0.5-4-1.6C389.1,39.4,388.5,40.1,387.9,40.8L387.9,40.8z M389.8,32.2c0,0-0.1-0.1-0.2-0.2c-1-0.8-1.8-1.3-2.4-1.6
			l0.9-1.1c1.1,0.7,2,1.2,2.6,1.7L389.8,32.2L389.8,32.2z M390.2,29.4c-0.7-0.5-1.5-1.1-2.6-1.8l0.8-1.1c0.2,0.2,0.6,0.4,1.1,0.7
			c0.7,0.5,1.2,0.8,1.6,1.1L390.2,29.4L390.2,29.4z M391.5,34.1v-1.1h2.1v-0.7h1.4v0.7h2.8v-0.7h1.4v0.7h2.2v1.1h-2.2v1.2h2.7v1.1
			h-11v-1.1h2.6v-1.2H391.5z M392,38.9c0-0.1-0.1-0.2-0.2-0.4c-0.2-0.3-0.3-0.5-0.4-0.7c1.4-0.4,2.6-0.8,3.8-1.2l0.6,1.1
			c-0.2,0-0.4,0.1-0.8,0.2C393.8,38.4,392.8,38.7,392,38.9L392,38.9z M393.3,31.9c-1.2,0-1.7-0.5-1.7-1.6v-3.7h4.4v3h-3.1v0.6
			c0,0.5,0.2,0.7,0.8,0.7h0.6c0.4,0,0.7-0.1,0.8-0.4c0.1-0.1,0.1-0.4,0.1-0.7c0.2,0.1,0.5,0.2,0.9,0.4c0.1,0,0.2,0.1,0.2,0.1
			c0,0.3-0.1,0.6-0.2,0.9c-0.2,0.6-0.8,0.9-1.6,0.9L393.3,31.9L393.3,31.9z M392.9,27.6v1.1h1.9v-1.1H392.9z M395.1,34.1v1.2h2.8
			v-1.2H395.1z M398.6,32c-1.1,0-1.7-0.5-1.6-1.6v-3.7h4.4v3h-3.1v0.5c0,0.5,0.2,0.8,0.8,0.8h0.8c0.4,0,0.7-0.1,0.8-0.4
			c0.1-0.1,0.1-0.4,0.2-0.7c0.4,0.2,0.8,0.3,1.1,0.4c0,0.3-0.1,0.6-0.2,0.9c-0.2,0.6-0.8,0.9-1.6,0.9L398.6,32L398.6,32z M401,39
			c-0.7-0.3-1.6-0.7-2.9-1.1c-0.4-0.1-0.7-0.2-0.9-0.3l0.6-1c1.2,0.3,2.5,0.7,3.9,1.2L401,39L401,39z M398.2,27.6v1.1h1.9v-1.1
			H398.2z"/>
		<path class="st0" d="M409.6,30.8v-1.2h3.7v-1.1h-3v-1.2h3V26h1.6v1.2h3.8v2.3h1.2v1.2h-1.2v2.3h-3.8v1.1h4v1.2h-4v1.1h4.4v1.2
			h-4.4v1.4h5.1c-0.2,0.3-0.3,0.8-0.4,1.4c-2.8,0-4.9,0-6.6-0.1c-2.5,0-4.2-0.5-5.4-1.4c-0.5,0.6-1.2,1.2-2,2
			c-0.3-0.7-0.6-1.2-0.8-1.4c0.7-0.5,1.2-1.1,1.8-1.8c-0.6-0.8-1.2-1.8-1.6-3.1l1.2-0.6c0.4,1.1,0.8,1.8,1.1,2.3
			c0.4-0.9,0.6-2,0.8-3.2h-1.2l-0.2,0.4l-1.8-0.1l3-5.1H405v-1.4h4.5v1.5l-1.9,3.2h1.9v0.7c-0.2,2.3-0.6,4.1-1.2,5.2
			c0.9,1,2.5,1.4,4.7,1.4h0.3v-1.4h-3.7v-1.2h3.7v-1.1h-3.2v-1.2h3.2v-1.1h-3.1V32h3.1v-1.2L409.6,30.8L409.6,30.8z M417.1,28.4
			h-2.2v1.1h2.2V28.4z M414.9,30.8v1.2h2.2v-1.2H414.9z"/>
		<path class="st0" d="M422.6,30.5v-1.6h2.2v-2.9h1.6v2.9h2.1v1.6h-2.1v2l0.6-0.6c1,0.8,1.8,1.5,2.3,2.1l-1.2,1.2
			c-0.3-0.4-0.9-1-1.7-1.8V41h-1.6v-7.1c-0.5,1.3-1.2,2.6-2,3.7c-0.2-1-0.4-1.8-0.5-2.2c1-1.2,1.8-2.8,2.4-4.8L422.6,30.5
			L422.6,30.5z M429.3,30.6v-1.6h4.7v-2.9h1.6v2.9h1.9v1.6h-1.9v8c0,1.5-0.7,2.2-2.2,2.2c-0.2,0-0.6,0-1.2,0.1H431
			c0-0.5-0.1-1.1-0.3-1.6h2.1c0.9,0,1.3-0.3,1.2-1.1v-6.2c-1.3,2.7-3.1,5.1-5.5,7c-0.1-0.2-0.3-0.4-0.6-0.6
			c-0.2-0.3-0.4-0.5-0.6-0.6c2.6-2,4.5-4.3,5.8-7.1L429.3,30.6L429.3,30.6z"/>
		<path class="st0" d="M441,40.1h4.1v-7.2h1v8.2H441V40.1z"/>
		<path class="st0" d="M467.5,34.8l-1.3,1.2l-3.4-3.8l1.2-1.1L467.5,34.8z"/>
		<path class="st0" d="M489.3,27.6h-4.2v7.3h-1v-8.3h5.2C489.3,26.6,489.3,27.6,489.3,27.6z"/>
		<path class="st0" d="M506.6,40.7c-3.5-1.9-5.6-4.6-6.2-8.1c-0.6,3.5-2.8,6.3-6.4,8.3c-0.3-0.5-0.7-1.1-1.2-1.6
			c4-2,6.1-5.2,6.4-9.4c0.1-1,0.1-2.2,0.1-3.8h1.9c0,0.1-0.1,0.5-0.1,1.1c0,0.5-0.1,0.9-0.1,1.1c0.4,5.4,2.6,9,6.8,10.7
			C507.3,39.7,506.9,40.2,506.6,40.7L506.6,40.7z"/>
		<path class="st0" d="M511.5,33.8c-0.4-0.1-0.8-0.2-1.2-0.2c0.1-0.6,0.3-1.6,0.4-3c0.1-0.6,0.1-1.1,0.2-1.3l1.1,0.1
			C511.9,30.8,511.7,32.2,511.5,33.8L511.5,33.8z M515.2,31.3c-0.4-0.4-0.8-0.7-1.1-1v10.6h-1.6V26h1.6v2.4c0.6,0.4,1.2,0.9,1.9,1.4
			L515.2,31.3L515.2,31.3z M516.8,33.2c-0.2-0.1-0.4-0.2-0.7-0.3c-0.3-0.1-0.6-0.2-0.8-0.2c0.8-1.6,1.3-3.4,1.7-5.5l1.6,0.2
			c0,0.2-0.1,0.6-0.2,1.1c-0.1,0.4-0.2,0.6-0.2,0.8h1.7v-3.2h1.7v3.2h3.6v1.6h-3.6V34h3.3v1.6h-3.3v3.4h3.9v1.4h-10.1v-1.4h4.5v-3.4
			h-3.6V34h3.6v-3.1h-2.2C517.5,31.7,517.2,32.4,516.8,33.2L516.8,33.2z"/>
		<path class="st0" d="M528.3,30.2v-1.5h1.9v-2.7h1.6l-0.1,2.7h1.8v1.5h-1.8v2.4h2.1v1.5h-2.1l-0.1,0.8h0.1c0.8,0.8,1.6,1.8,2.5,2.8
			l-1.1,1.2c-0.1-0.1-0.3-0.3-0.5-0.6c-0.5-0.7-1-1.2-1.2-1.6c-0.3,1.3-1.1,2.7-2.4,4.3c-0.1-0.1-0.2-0.2-0.4-0.5
			c-0.3-0.4-0.5-0.7-0.7-0.9c1.5-1.5,2.2-3.3,2.3-5.4h-2.1v-1.5h2.1c0-0.1,0-0.2,0.1-0.4v-2H528.3L528.3,30.2z M534.4,36.1v-9.4h7.7
			v9.4h-2v2.5c0,0.4,0.2,0.6,0.6,0.6h0.5c0.4,0,0.6-0.2,0.6-0.6c0.1-0.5,0.2-1,0.2-1.5c0.2,0.1,0.5,0.2,0.9,0.4
			c0.1,0,0.2,0.1,0.2,0.1c-0.1,0.9-0.2,1.5-0.2,1.7c-0.2,1-0.7,1.5-1.6,1.4h-0.9c-1.2,0-1.8-0.5-1.8-1.8v-2.8h-1.2
			c0.1,2.4-1.1,4-3.7,4.9c-0.3-0.4-0.6-0.8-0.9-1.2c2.2-0.6,3.3-1.8,3.2-3.7L534.4,36.1L534.4,36.1z M535.9,28v1.4h4.6V28H535.9z
			 M535.9,30.7v1.4h4.6v-1.4H535.9z M535.9,33.3v1.5h4.6v-1.5H535.9z"/>
		<path class="st0" d="M545.7,40.6l-0.1-1.2c0.3,0,0.9,0,1.6-0.1c3.8,0,6.6-0.1,8.4-0.2v0.6c0,0.2-0.1,0.4-0.1,0.6
			C552.8,40.3,549.5,40.5,545.7,40.6L545.7,40.6z M545.6,29.5v-0.9h4.1v-0.7h-3.3V27h3.3v-1h1.5v1h3.5v1.6h0.9v0.9h-0.9v1.6h-3.5
			v0.7h3.8v0.8h-3.8v0.8h4.4v0.9h-9.9v-0.9h4.1v-0.8h-3.6v-0.8h3.6v-0.7h-3.4v-0.9h3.4v-0.8L545.6,29.5L545.6,29.5z M546.3,38.7
			v-3.8h8.4v3.8H546.3z M547.7,35.7v0.8h2.2v-0.8H547.7z M547.7,37.1v0.8h2.2v-0.8H547.7z M553.4,27.9h-2.2v0.7h2.2V27.9z
			 M551.2,29.5v0.8h2.2v-0.8H551.2z M553.4,35.7h-2.2v0.8h2.2V35.7z M551.2,37.1v0.8h2.2v-0.8H551.2z M556.5,40.7
			c0-0.2-0.1-0.4-0.1-0.7c-0.1-0.3-0.2-0.6-0.2-0.8h1.6c0.7,0,1-0.2,1-0.7V26.1h1.3v12.8c0.1,1.2-0.5,1.9-1.7,1.9
			C558.3,40.8,556.5,40.8,556.5,40.7z M556.3,37.4v-10h1.2v10H556.3z"/>
		<path class="st0" d="M564.2,40.1h4.1v-7.2h1v8.2h-5.1V40.1z"/>
		<path class="st0" d="M581.7,40.9V27h13.5v13.9h-1.7v-0.9h-10.1v0.9H581.7z M591.2,35.9c-1.2,0-1.8-0.6-1.8-1.9v-5.5h-2v2.8
			c0.1,2.2-0.8,4.1-2.7,5.6c-0.4-0.4-0.8-0.8-1.2-1.2c1.7-1.2,2.5-2.7,2.4-4.6v-2.7h-2.4v10.1h10.1V28.5h-2.6v4.9
			c0,0.6,0.3,0.9,0.9,0.9h1.6c0,0.1,0,0.2-0.1,0.3c-0.1,0.3-0.2,0.8-0.2,1.2L591.2,35.9L591.2,35.9z"/>
		<path class="st0" d="M598.7,31.8v-1.7h6.3c0-0.9,0.1-2.2,0.1-3.9h1.9l-0.1,3.9h6.3v1.7h-6.2c0.5,3.6,2.7,6.1,6.6,7.4
			c-0.4,0.4-0.8,0.9-1.2,1.6c-3.5-1.5-5.6-3.7-6.3-6.6c-0.7,2.8-2.8,5.1-6.3,6.8c-0.1-0.2-0.3-0.5-0.7-0.9c-0.2-0.3-0.4-0.5-0.5-0.6
			c4-1.7,6.1-4.2,6.4-7.6L598.7,31.8L598.7,31.8z"/>
		<path class="st0" d="M617.1,37.5v-1.4h5.6v-1h1.8v1h5.6v1.4h-5.6v1.6h6.6v1.2H616v-1.2h6.6v-1.6H617.1L617.1,37.5z M616.7,34.8
			v-8.2h6.8v1.2h-1.9v1.2h1.9v3.3h-1.9v1.3h1.9v1.1L616.7,34.8L616.7,34.8z M618.2,27.8v1.2h2.1v-1.2H618.2z M622.1,30.1h-3.9v1.2
			h3.9V30.1z M618.2,32.4v1.3h2.1v-1.3H618.2z M624.3,34.8c0,0-0.1-0.1-0.1-0.2c-0.3-0.5-0.6-0.9-0.7-1.1c1.1-0.4,2-0.9,2.6-1.4
			c-0.8-0.9-1.4-2.1-1.8-3.6l0.6-0.2H624v-1.3h6.4v1.4c-0.6,1.6-1.3,2.8-2.1,3.7c0.8,0.5,1.7,1,2.8,1.3c-0.2,0.4-0.4,0.9-0.7,1.5
			c-1.2-0.5-2.3-1.1-3.2-1.8C626.4,33.7,625.5,34.2,624.3,34.8L624.3,34.8z M625.7,28.3c0.5,1.3,1,2.3,1.6,2.8
			c0.7-0.7,1.2-1.6,1.6-2.8H625.7L625.7,28.3z"/>
		<path class="st0" d="M633.8,30.4v-1.5h1.8v-2.9h1.6v2.9h1.6v1.5h-1.6v2.8c0.2,0,0.4-0.1,0.8-0.2c0.3,0,0.6-0.1,0.8-0.1
			c0,0.6,0,1.2,0.1,1.6l-1.6,0.3v4.3c0,1.1-0.5,1.7-1.6,1.7H634c-0.2-0.7-0.3-1.2-0.3-1.6h0.2c0.4,0,0.7,0,0.9,0
			c0.5,0,0.7-0.2,0.7-0.6v-3.4c-0.1,0-0.2,0-0.3,0.1c-0.4,0.1-0.9,0.2-1.5,0.4l-0.2-1.8l2-0.3v-3.1L633.8,30.4L633.8,30.4z
			 M639.5,29.4v-1.4h3.4v-1.9h1.6v1.9h3.5v1.4h-3.5v1.8h4.2v1.5h-9.9v-1.5h4.1v-1.8H639.5L639.5,29.4z M638.8,35.7v-1.5h6.1v-1.1
			h1.7v1.1h2v1.5h-2v3.1c0,1.3-0.7,2-2.1,2c-0.8,0-1.6,0.1-2.4,0.1c0-0.2-0.1-0.5-0.1-1c-0.1-0.3-0.1-0.5-0.1-0.6
			c0.3,0,1,0.1,1.9,0.1c0.8,0.1,1.2-0.2,1.1-1v-2.6L638.8,35.7L638.8,35.7z M641.5,39c-0.3-0.4-0.9-1-1.8-2c0.1,0.1,0,0-0.2-0.2
			l1.1-0.9c0.3,0.3,0.7,0.7,1.3,1.2c0.4,0.4,0.7,0.7,0.9,0.9C642.8,37.9,641.5,39,641.5,39z"/>
		<path class="st0" d="M282,62.8c-0.1-0.6-0.3-1.2-0.5-1.7c1.5-1.3,2.7-2.9,3.6-4.8l1.4,0.8c-0.5,0.9-1,1.7-1.6,2.4V67h-1.5v-5.6
			C283,61.8,282.5,62.3,282,62.8L282,62.8z M282.6,57.4c-0.2-0.6-0.5-1.1-0.7-1.6c1.3-1.1,2.4-2.3,3.3-3.8l1.4,0.9
			C285.5,54.6,284.1,56.1,282.6,57.4L282.6,57.4z M286.5,66.9c-0.3-0.3-0.8-0.7-1.2-1.1c1.4-1.3,2.1-3.3,2-6.1l1.6,0.1
			c0,0.7-0.1,1.5-0.2,2.5c0.5,1.2,1.2,2,2.1,2.4V59h1.6v1.7h3.8v1.4h-3.8v2.8c0.8,0,2.2,0.1,4.4,0.1c0,0,0,0.1-0.1,0.2
			c-0.2,0.5-0.3,1-0.3,1.2c-1.6,0-3,0-4.2-0.1c-1.8,0-3.1-0.7-3.9-2.1C287.9,65.1,287.3,66,286.5,66.9L286.5,66.9z M290.5,57
			c-0.3-0.3-0.7-0.8-1.3-1.2c-0.5,1.1-1.1,2.1-1.9,3.1c-0.1-0.1-0.4-0.3-0.9-0.6c-0.2-0.1-0.4-0.2-0.4-0.3c1.4-1.6,2.3-3.5,2.6-5.9
			l1.6,0.2c-0.1,0.7-0.3,1.4-0.5,2c0.6,0.5,1.2,1,1.8,1.4L290.5,57z M295.5,58.6c-0.3-0.5-0.9-1.2-1.8-2.3c-0.1-0.1-0.2-0.2-0.2-0.3
			c-0.4,1-1,2-1.8,2.9c-0.5-0.4-0.9-0.7-1.3-0.9c1.4-1.6,2.2-3.5,2.6-5.9l1.6,0.2c-0.2,0.8-0.4,1.5-0.6,2.1c0.1,0.1,0.2,0.2,0.4,0.4
			c1.1,1.3,1.8,2.2,2.2,2.8C296.7,57.6,295.5,58.6,295.5,58.6z"/>
		<path class="st0" d="M304,56.8v-1.2h3.7v-1.1h-3v-1.2h3V52h1.6v1.2h3.8v2.3h1.2v1.2H313v2.3h-3.8v1.1h4v1.2h-4v1.1h4.4v1.2h-4.4
			v1.4h5.1c-0.2,0.3-0.3,0.8-0.4,1.4c-2.8,0-4.9,0-6.6-0.1c-2.5,0-4.2-0.5-5.4-1.4c-0.5,0.6-1.2,1.2-2,2c-0.3-0.7-0.6-1.2-0.8-1.4
			c0.7-0.5,1.2-1.1,1.8-1.8c-0.6-0.8-1.2-1.8-1.6-3.1l1.2-0.6c0.4,1.1,0.8,1.8,1.1,2.3c0.4-0.9,0.6-2,0.8-3.2h-1.2l-0.2,0.4
			l-1.8-0.1l3-5.1h-2.7v-1.4h4.5v1.5l-1.9,3.2h1.9v0.7c-0.2,2.3-0.6,4.1-1.2,5.2c0.9,1,2.5,1.4,4.7,1.4h0.3v-1.4H304v-1.2h3.7v-1.1
			h-3.2v-1.2h3.2v-1.1h-3.1V58h3.1v-1.2L304,56.8L304,56.8z M311.5,54.4h-2.2v1.1h2.2V54.4z M309.3,56.8v1.2h2.2v-1.2H309.3z"/>
		<path class="st0" d="M317.9,56.4c-0.1-0.1-0.2-0.2-0.4-0.4c-0.3-0.3-0.5-0.5-0.7-0.6c1.2-1,2.1-2.1,2.6-3.4l1.7,0.1
			c-0.2,0.4-0.4,0.8-0.6,1.1h3.9v1.2h-2.7l1,1.3l-1.4,0.4c-0.4-0.5-0.8-1.1-1.2-1.6l0.2-0.1h-0.7C319.2,55.1,318.6,55.7,317.9,56.4
			L317.9,56.4z M317.3,57.8v-1.2h5.4v1.2h-1.9v1.9l1.9-0.2c0,0.3-0.1,0.7-0.1,1c0.8-0.5,1.1-1.3,1-2.4v-1.6h5.8v3
			c0,0.4,0.1,0.6,0.4,0.6h0.2c0.3,0,0.5-0.2,0.6-0.6c0.1-0.3,0.1-0.8,0.1-1.3c0.1,0,0.2,0.1,0.5,0.2c0.3,0.1,0.6,0.2,0.7,0.2
			c0,0.5-0.1,1-0.2,1.4c-0.2,0.9-0.7,1.3-1.7,1.3h-0.6c-1,0-1.4-0.5-1.4-1.5v-2.1h-2.9v0.5c0.1,1.4-0.4,2.5-1.5,3.3h1.5v0.8h6.5v1.3
			h-5.3c1.2,0.9,3.1,1.5,5.6,1.9c-0.3,0.5-0.5,0.9-0.8,1.3c-2.8-0.7-4.8-1.5-6.1-2.6V67h-1.6v-2.9c-1.3,1.1-3.3,2-6,2.8
			c-0.1-0.2-0.4-0.7-0.8-1.3c2.5-0.4,4.4-1.1,5.6-2h-5.2v-1.3h6.4v-0.6h-0.1c0,0-0.1-0.1-0.2-0.2c-0.4-0.3-0.7-0.6-0.9-0.7
			c-1.5,0.1-3.2,0.3-5.1,0.6l-0.3-1.3l2.4-0.2v-2L317.3,57.8L317.3,57.8z M325.1,56.1c-0.1-0.1-0.3-0.2-0.6-0.4
			c-0.3-0.1-0.5-0.2-0.7-0.3c1.1-1.1,1.9-2.3,2.3-3.4l1.6,0.1c-0.1,0.2-0.2,0.4-0.3,0.6s-0.2,0.4-0.2,0.5h4.4v1.2h-3.1
			c0.1,0.1,0.2,0.3,0.4,0.5c0.2,0.3,0.4,0.6,0.6,0.8l-1.4,0.4c-0.3-0.5-0.7-1-1.1-1.6l0.1-0.1h-0.7C326,55.1,325.6,55.6,325.1,56.1
			L325.1,56.1z M326.7,60.8c-0.6-0.7-1.1-1.2-1.6-1.7l0.9-0.8l1.7,1.6L326.7,60.8L326.7,60.8z"/>
		<path class="st0" d="M335.3,60.8c-0.1-0.1-0.3-0.3-0.6-0.7c-0.2-0.3-0.4-0.6-0.5-0.7c1.5-2,2.6-4.5,3.4-7.4l1.7,0.2
			c-0.2,0.8-0.5,1.6-0.8,2.3h3.9v1.6c-0.5,4.6-2.6,8.2-6.6,10.8c-0.1-0.1-0.3-0.4-0.7-0.8c-0.2-0.2-0.4-0.4-0.5-0.6
			c1.9-1.2,3.3-2.5,4.2-4c-0.2-0.1-0.4-0.3-0.8-0.6c-0.6-0.5-1.1-1-1.5-1.2l1-1.2l2.1,1.6c0.5-1.1,0.9-2.4,1.1-3.9h-2.9
			C337.1,57.8,336.3,59.3,335.3,60.8L335.3,60.8z M343.6,66.9V52h1.7v5.2l0.8-0.6c1.1,1,2.3,2.2,3.6,3.5l-1.2,1.1
			c-1-1.2-2.1-2.3-3.1-3.2v8.8L343.6,66.9L343.6,66.9z"/>
		<path class="st0" d="M352.2,62.8c0-0.2-0.1-0.4-0.2-0.8c0-0.2-0.1-0.4-0.1-0.6c0.8-0.8,1.5-1.8,1.9-2.9l1.3,0.2
			c-0.1,0.2-0.2,0.5-0.4,0.7h1.8l0.4-0.9l1.4,0.2l-0.4,0.7h2.4v1.1h-2.5v1h2.4v0.9h-2.4v1h2.3v0.9h-2.3v0.9h2.4v0.6
			c1.2-0.7,1.7-1.9,1.6-3.6h-0.9v-9.4h5.5v9.4h-1.2V65c0,0.2,0.1,0.4,0.3,0.4h0.2c0.2,0,0.4-0.1,0.4-0.4c0.1-0.6,0.1-1.1,0.1-1.6
			c0.3,0.1,0.6,0.2,0.9,0.3c0,0.5,0,1.1-0.1,1.8c-0.1,0.9-0.6,1.3-1.3,1.3h-0.5c-0.9,0-1.3-0.5-1.3-1.5v-3h-0.9
			c0.1,2.2-0.6,3.8-2.2,4.8c-0.2-0.2-0.4-0.5-0.7-0.8v0.1h-5.9V67H353v-5.1l-0.4,0.4C352.4,62.5,352.3,62.7,352.2,62.8L352.2,62.8z
			 M352.2,54.2v-1.1h2.2v-1h1.3v2.9h-1.3v-0.8L352.2,54.2L352.2,54.2z M352.6,58.3v-2.8h3.4v2.8H352.6z M353.6,56.4v1.1h1.3v-1.1
			H353.6z M354.3,60.4v1h2.1v-1H354.3z M354.3,62.4v1h2.1v-1H354.3z M354.3,64.3v0.9h2.1v-0.9H354.3z M356.7,58.3v-2.8h3.4v2.8
			H356.7z M357,55.1v-2.9h1.3v1h2v1.1h-2v0.8L357,55.1L357,55.1z M357.8,56.4v1.1h1.3v-1.1H357.8z M362.2,54v1.6h2.9V54H362.2z
			 M362.2,56.7v1.5h2.9v-1.5H362.2z M362.2,59.4v1.6h2.9v-1.6H362.2z"/>
		<path class="st0" d="M370,62.2v-1.5h3.2v-1.6h1.6v1.6h3.1v1.5h-3.1v2.2l3.5-0.3c0,0.5-0.1,1-0.1,1.4c-3.5,0.3-6.2,0.6-8.4,0.9
			l-0.2-1.6c0.3,0,0.9,0,1.6-0.1c0.8,0,1.5-0.1,1.9-0.1v-2.4L370,62.2L370,62.2z M369.8,54.3v-1.5h8.4v1.5h-4.1
			c-0.8,1.2-1.4,2.2-1.9,3l3.4-0.3l-0.9-1.3L376,55c0.3,0.5,0.8,1.2,1.4,2.2c0.5,0.7,0.8,1.2,0.9,1.4l-1.3,0.8l-0.6-1
			c-0.2,0-0.6,0.1-1.1,0.1c-2.6,0.2-4.4,0.4-5.4,0.5l-0.3-1.7h0.8c0.3-0.5,0.9-1.4,1.7-2.8c0.1-0.1,0.1-0.2,0.2-0.3L369.8,54.3
			L369.8,54.3z M379,63.2v-9.4h1.6v9.4H379z M379.6,66.8c-0.1-0.6-0.2-1.2-0.3-1.6h2.1c0.7,0,1-0.3,0.9-1V52.1h1.7v12.6
			c0.1,1.3-0.6,2-2,2.1h-1.1C380.3,66.8,379.9,66.8,379.6,66.8L379.6,66.8z"/>
		<path class="st0" d="M388.4,66.8V55.7h5.8c0-0.3,0-0.8-0.1-1.6c0.1,0.5,0.1,0.4,0-0.2h-3.2v-1.4h4.7c0,1.2,0,2.3,0.1,3.2h5.5v8.7
			c0,1.5-0.7,2.3-2.3,2.3c-0.3,0-0.8,0-1.4,0.1h-1.2c0-0.2-0.1-0.7-0.2-1.2c0-0.2-0.1-0.3-0.1-0.4c0.5,0,1.3,0.1,2.3,0.1
			c0.9,0,1.3-0.3,1.2-1.2v-6.7h-3.5c0.3,1.9,1.4,3.5,3.1,4.9c-0.4,0.5-0.8,0.9-1.1,1.4c-1.5-1.3-2.5-2.7-3-4.2
			c-0.8,1.5-1.9,2.9-3.4,4.1c-0.1-0.1-0.3-0.3-0.6-0.6c-0.3-0.3-0.5-0.6-0.6-0.7c1.8-1.3,3-2.9,3.8-4.9h-4v9.6L388.4,66.8
			L388.4,66.8z"/>
		<path class="st0" d="M404.8,59.3v-1.4h2.3c-0.5-0.7-0.9-1.3-1.3-1.9l1.3-0.6c0.5,0.6,1,1.3,1.4,1.9l-1.2,0.6h2.2
			c0.2-0.4,0.5-0.9,0.9-1.7c0.2-0.4,0.4-0.7,0.4-0.9l1.4,0.5c-0.4,0.7-0.8,1.3-1.2,2.1h2.2v1.4L404.8,59.3L404.8,59.3z M405.2,55.2
			v-1.4h3.1v-1.8h1.7v1.8h2.9v1.4H405.2z M405.7,66.9v-6.1h6.9v6.1H411v-0.9h-3.8v1H405.7L405.7,66.9z M407.2,62.1v2.5h3.8v-2.5
			H407.2z M414,67V52.9h5.6v1.5l-1.5,4.1c1.2,1.2,1.9,2.5,1.8,3.8c0,1.7-0.7,2.7-2.2,2.7c-0.3,0-0.8,0.1-1.6,0.1
			c-0.1-0.6-0.2-1.1-0.3-1.6h1.3c0.8,0,1.2-0.4,1.2-1.3c0-1.1-0.6-2.3-1.8-3.5l1.4-4.3h-2.4V67C415.5,67,414,67,414,67z"/>
		<path class="st0" d="M424.6,61.6v-1.5h10.8v1.5h-4.5v3.3h6.2v1.4h-14.2v-1.4h6.2v-3.3H424.6z M425,59.4c-0.3-0.5-0.6-0.9-0.8-1.2
			c2-0.5,3-1.5,3-2.9h-2.6V57h-1.7v-3.2h6.2v-1.7h1.7v1.7h6.2V57h-1c-0.1,1.2-0.7,1.9-1.7,1.9h-2.1c-0.9,0-1.3-0.5-1.3-1.4v-2.1
			h-2.4C428.5,57.4,427.4,58.7,425,59.4L425,59.4z M435.4,55.4h-3v1.8c0,0.3,0.2,0.5,0.5,0.5h1.1c0.4,0,0.6-0.3,0.6-1.1
			c0.2,0.1,0.5,0.2,0.8,0.2L435.4,55.4L435.4,55.4z"/>
		<path class="st0" d="M440.6,66.9V52.6h6.1v5.6h-4.6v8.8L440.6,66.9L440.6,66.9z M442.2,53.8v1.1h3.2v-1.1H442.2z M442.2,57h3.2
			v-1.1h-3.2V57z M444.1,65.2v-6h7v6H444.1z M445.5,60.3v1.3h4.1v-1.3H445.5z M445.5,64h4.1v-1.3h-4.1V64z M450.5,66.9
			c0-0.1-0.1-0.3-0.1-0.6c-0.1-0.4-0.2-0.7-0.2-0.9c0.2,0,0.5,0,0.9,0.1h0.9c0.6,0,0.9-0.3,0.9-0.9v-6.4h-4.6v-5.6h6.1v12.2
			c0,1.3-0.6,2-2,2C451.9,66.8,451.3,66.9,450.5,66.9L450.5,66.9z M449.8,53.8v1.1h3.2v-1.1H449.8z M449.8,55.9V57h3.2v-1.1H449.8z"
			/>
		<path class="st0" d="M458.3,59.1l-0.4-1.5l0.9-0.2v-5.3h1.6v1.6h4.1V55h-4.1v2c0.7-0.2,1.6-0.4,2.9-0.8c0.5-0.1,0.9-0.2,1.1-0.2
			c0,0.7,0,1.2,0.1,1.5C461.8,58.2,459.7,58.7,458.3,59.1L458.3,59.1z M459.3,67v-7.3h3.5c0.2-0.5,0.4-1,0.5-1.5l1.8,0.1
			c0,0.2-0.2,0.5-0.4,0.9c0,0.2-0.1,0.3-0.1,0.4h6.3V67h-1.6v-0.8h-8.3V67L459.3,67L459.3,67z M460.9,61v1.4h8.3V61H460.9z
			 M460.9,63.6v1.4h8.3v-1.4H460.9z M467.5,58.6c-1.4,0-2.1-0.7-2.1-2.1v-4.4h1.6v2.2c1.6-0.5,3-1,4.3-1.6l0.7,1.3
			c-1.6,0.6-3.3,1.2-5,1.7v0.4c0,0.7,0.3,1,1,0.9h1.7c0.7,0,1-0.2,1.1-0.8c0.1-0.5,0.2-0.9,0.2-1.3c0.4,0.2,0.9,0.4,1.5,0.5
			c0,0.1,0,0.2-0.1,0.4c-0.1,0.5-0.2,0.9-0.3,1.2c-0.2,1-1,1.4-2.2,1.4L467.5,58.6L467.5,58.6z"/>
		<path class="st0" d="M478.5,54.5h-2.9v-1.4h4.9v1.8l-2.1,3h2v1.4c-0.2,1.8-0.7,3.3-1.3,4.4c1,0.9,2.5,1.3,4.5,1.4h6.8
			c-0.2,0.5-0.4,1-0.4,1.4c-2.8,0-4.9,0-6.6-0.1c-2.2,0-3.9-0.5-5.2-1.5c-0.5,0.6-1.2,1.3-2.1,2.1c-0.1-0.1-0.2-0.3-0.4-0.7
			c-0.2-0.3-0.4-0.5-0.4-0.7c0.8-0.6,1.4-1.2,1.9-1.8c-0.6-0.7-1.1-1.7-1.7-3.1l1.2-0.7c0.4,1.1,0.8,1.9,1.2,2.4
			c0.5-0.8,0.8-1.9,0.9-3.2h-1.4l-0.4,0.5h-1.8L478.5,54.5L478.5,54.5z M480.6,63.4v-1.4h1.2v-5.4h1.6v5.4h1.6v-7.5
			c-1.1,0-2.3,0.1-3.6,0.2v-0.2c0-0.3-0.1-0.8-0.2-1.3c3-0.1,5.8-0.2,8.4-0.5l0.2,1.4c-1,0.1-2,0.2-3.1,0.2v2.9h2.9v1.4h-2.9V62h3.2
			v1.4L480.6,63.4L480.6,63.4z"/>
		<path class="st0" d="M492.7,56.1v-1.3h5.6v1.3H492.7z M493.2,58.2v-1.2h4.8v1.2H493.2z M493.2,60.5v-1.2h4.8v1.2H493.2z
			 M493.2,66.9v-5.4h4.6v5.3h-1.3v-0.8h-1.9v0.9H493.2L493.2,66.9z M493.5,53.8v-1.2h4.1v1.2H493.5z M494.6,62.8v2.1h1.9v-2.1
			C496.5,62.8,494.6,62.8,494.6,62.8z M498.8,54.4v-1.1h3.5v-1.2h1.6v1.2h3.8v1.1h-3.8v0.9h3.4v1.1h-3.4v0.9h4.1v1.1h-9.4v-1.1h3.8
			v-0.9H499v-1.1h3.2v-0.9H498.8L498.8,54.4z M499.2,66.9v-7.6h7.9v5.6c0,1.3-0.6,1.9-1.9,1.9h-0.8c-0.5,0-1,0.1-1.2,0.1
			c-0.1-0.5-0.2-0.9-0.3-1.4c0.4,0,1,0.1,1.8,0.1c0.6,0,0.9-0.2,0.9-0.8v-0.3h-4.9v2.5C500.7,66.9,499.2,66.9,499.2,66.9z
			 M500.7,60.4v0.9h4.9v-0.9H500.7z M500.7,62.4v1h4.9v-1H500.7z"/>
		<path class="st0" d="M511.6,57.7c-0.5-0.3-0.9-0.7-1.2-0.9c0.7-1.3,1.3-2.9,1.8-4.8l1.6,0.2c0,0.1-0.1,0.3-0.1,0.5
			c-0.2,0.5-0.3,1-0.4,1.2h4.2v1.5h-2.1c0,0.8,0,1.9-0.1,3.2h2.4v1.5h-2.5c0,0.4-0.1,0.7-0.2,1.1c1.2,1.3,2.2,2.4,3,3.3l-1.2,1.1
			c-0.2-0.2-0.4-0.4-0.7-0.8c-0.7-0.9-1.2-1.5-1.6-1.9c-0.5,1.3-1.5,2.6-3.1,4c-0.4-0.5-0.8-1-1.2-1.4c2-1.5,3.1-3.3,3.2-5.4h-3.1
			v-1.5h3.1c0-0.3,0.1-0.9,0.1-1.6c0-0.7,0.1-1.2,0.1-1.6h-1.1c-0.1,0.4-0.4,1-0.8,1.8C511.7,57.5,511.6,57.6,511.6,57.7L511.6,57.7
			z M518.4,66.4V53.4h6.5v12.9h-1.7v-1.4H520v1.4H518.4z M520,55v8.4h3.2V55H520z"/>
		<path class="st0" d="M528.8,62.3c-0.2-0.5-0.5-1-0.8-1.6c2.4-0.5,4.4-1.2,6.1-1.9c-0.8-0.8-1.6-1.4-2.4-2.1l1.2-1
			c0.2,0.2,0.5,0.4,0.9,0.8c0.8,0.6,1.4,1.1,1.9,1.5c1.4-0.8,2.7-1.8,3.9-2.9h-6.3c-1.1,1.1-2.5,2.1-4,3.1c-0.1-0.1-0.2-0.2-0.2-0.4
			c-0.2-0.2-0.5-0.6-0.8-0.9c2.5-1.5,4.4-3.2,5.7-4.9l1.8,0.3c0,0-0.1,0.1-0.1,0.2c-0.2,0.4-0.6,0.8-0.9,1.1h7.1v1.6
			c-1.9,2.1-4.3,3.8-7.1,5.1h7.2V67h-1.7v-0.9h-7.7V67h-1.7v-5.3c-0.2,0-0.5,0.2-1,0.3C529.3,62.1,529,62.2,528.8,62.3L528.8,62.3z
			 M532.4,61.7v3.1h7.7v-3.1C540.1,61.7,532.4,61.7,532.4,61.7z"/>
		<path class="st0" d="M546.3,67V52.7H560V67h-1.4v-0.6h-10.8V67H546.3z M547.8,53.9v11.3h10.8V53.9H547.8z M548.5,55.7v-0.9h4v-0.6
			h1.3v0.6h4.1v0.9h-4.1v0.6h3.4v3.4H557c0.2,0.2,0.4,0.4,0.6,0.7c0.3,0.3,0.5,0.6,0.6,0.8l-0.9,0.6l-0.4-0.6h-0.8V62h1.9v1h-1.9
			v0.4c0,1-0.5,1.4-1.6,1.4h-1.8c0-0.1-0.1-0.3-0.2-0.6c0-0.2-0.1-0.3-0.1-0.4c0.2,0,0.5,0,0.8,0.1h0.8c0.5,0,0.8-0.2,0.8-0.6V63
			h-4.4c0.5,0.3,1,0.6,1.4,0.9l-0.8,0.7c-0.5-0.5-1-0.9-1.6-1.2l0.5-0.4h-1.5v-1h6.5v-0.8c-2.1,0-4.2,0-6.2,0.1l-0.1-0.9h4.1v-0.7
			h-3.4v-3.4h3.4v-0.6H548.5L548.5,55.7z M550.3,57.1v0.6h2.1v-0.6H550.3z M550.3,58.4V59h2.1v-0.6H550.3z M555.9,57.1h-2.1v0.6h2.1
			V57.1z M553.8,59h2.1v-0.6h-2.1V59z M553.8,60.4h2.5l-0.5-0.6l0.2-0.1h-2.2C553.8,59.8,553.8,60.4,553.8,60.4z"/>
		<path class="st0" d="M563.8,67V52.8h4.5v1.6l-1.1,4c0.8,1.2,1.2,2.4,1.2,3.6c0,1.6-0.6,2.4-1.9,2.5c-0.2,0-0.5,0.1-0.9,0.1
			c-0.1-0.5-0.2-1.1-0.4-1.6V67L563.8,67L563.8,67z M565.2,54.3v8.5h0.9c0.6,0,0.9-0.3,0.9-1.2c0-1-0.5-2-1.3-3.1l1.1-4.2H565.2
			L565.2,54.3z M569,62.1c0-0.1-0.2-0.3-0.3-0.6c-0.2-0.3-0.3-0.5-0.4-0.7c1.3-0.5,2.5-1.3,3.6-2.2c-0.1-0.2-0.3-0.5-0.4-0.8
			c-0.7,0.5-1.5,0.9-2.6,1.4c-0.2-0.3-0.4-0.8-0.8-1.3c1.5-0.5,2.9-1.3,4.1-2.2h-3.4v-1.4h2.6c-0.2-0.2-0.5-0.7-0.9-1.2
			c-0.2-0.3-0.3-0.5-0.4-0.6l1.3-0.6c0,0,0.1,0.1,0.1,0.1c0.6,0.7,1,1.2,1.3,1.7l-1.2,0.6h2.1c0.6-0.9,1.2-1.7,1.6-2.4l1.5,0.5
			l-1.4,1.9h2.6v1.4h-3.8c-0.5,0.5-1,0.9-1.5,1.2c0.4,0.6,0.7,1.2,1,1.8c1-0.6,2.1-1.4,3.2-2.3l1,1.1c-0.6,0.5-1.3,1-1.9,1.4
			c0.3,2.2,1.1,3.8,2.4,5c-0.3,0.5-0.6,1-1,1.4c-1.4-1.5-2.3-3.4-2.6-5.8l-0.8,0.5c0.2,1,0.4,2.1,0.4,3.3c0.1,2.1-0.7,3.2-2.4,3.1
			H570c0-0.2-0.1-0.6-0.2-1.1c0-0.2-0.1-0.3-0.1-0.4c0.4,0,1,0.1,1.9,0.1c0.9,0.1,1.3-0.5,1.3-1.7v-1.2c-1.2,1.3-2.8,2.4-4.6,3.2
			c-0.1-0.2-0.2-0.5-0.4-0.8c-0.1-0.2-0.2-0.3-0.2-0.4c1.8-0.8,3.5-2,5.1-3.6c0-0.2-0.1-0.5-0.2-0.8c0-0.1-0.1-0.2-0.1-0.2
			C571.3,60.7,570.2,61.5,569,62.1L569,62.1z"/>
		<path class="st0" d="M581.1,66.9c0-0.2-0.1-0.6-0.2-1.1c0-0.2-0.1-0.4-0.1-0.6h0.4c0.2,0,0.4,0.1,0.6,0.1c0.5,0,0.7-0.2,0.7-0.6
			v-3.6c-0.6,0.2-1.2,0.4-1.7,0.5l-0.1-1.8c0.6-0.1,1.2-0.2,1.8-0.4v-3.1h-1.6v-1.5h1.6v-2.8h1.6v2.8h1.4v1.5h-1.4v2.7
			c0.2,0,0.4-0.1,0.7-0.2c0.3,0,0.6-0.1,0.7-0.1c0,0.6,0,1.1,0.1,1.6l-1.4,0.4v4.4c0,1.1-0.5,1.7-1.6,1.7
			C582,66.9,581.5,66.9,581.1,66.9L581.1,66.9z M588.5,66.5c-1.6,0-2.3-0.7-2.3-2.2V52.8h8.8v7.4h-7.1v3.9c0,0.8,0.3,1.1,1.2,1.1
			h3.6c0.9,0,1.3-0.3,1.4-1c0-0.3,0.1-0.8,0.2-1.4c0-0.4,0.1-0.7,0.1-0.9c0.3,0.1,0.8,0.3,1.4,0.4c0.1,0,0.2,0.1,0.2,0.1
			c0,0.2-0.1,0.5-0.1,0.9c-0.1,0.7-0.2,1.2-0.3,1.6c-0.2,1.2-1.2,1.8-2.7,1.8H588.5L588.5,66.5z M587.8,54.3v4.4h2.1v-4.4H587.8z
			 M593.4,54.3h-2.1v4.4h2.1V54.3z"/>
		<path class="st0" d="M599,67V52.7h6.2v4.4h-1.4l0.6,0.2l-1.4,1.4l0.6,0.4c0.6-0.6,1.1-1.1,1.3-1.4l0.9,0.4l0.4-0.5l0.4,0.4
			l0.9-0.9h-0.9v-4.4h6.2v12.1c0.1,1.4-0.5,2.1-2,2.1c-0.4,0-1,0.1-1.7,0.1c0-0.1-0.1-0.3-0.1-0.6c-0.1-0.3-0.2-0.5-0.2-0.7
			c0.4,0,0.8,0.1,1.4,0.1c0.8,0.1,1.2-0.3,1.1-1.1v-7.5h-3.1l0.5,0.2c-0.2,0.1-0.4,0.3-0.8,0.7c-0.2,0.2-0.4,0.4-0.6,0.5l0.8,0.6
			c0.5-0.5,0.9-0.9,1.3-1.4l0.9,0.6c-0.2,0.2-0.5,0.5-0.9,0.9c-0.8,0.8-1.4,1.3-1.8,1.6c0.2,0,0.4,0,0.8-0.1h0.6
			c-0.1-0.2-0.2-0.4-0.3-0.6l0.9-0.4c0.5,0.8,0.9,1.5,1.1,2l-1.1,0.4l-0.3-0.6c-1,0-2.2,0.2-3.4,0.3l0.1,0.1l-1.1,0.3l-0.2-0.7
			c-0.4,0-1,0.1-1.8,0.1c-0.8,0.1-1.5,0.2-1.9,0.2l-0.2-0.9l0.7-0.1c0.1-0.1,0.3-0.3,0.6-0.5l0.6-0.6c-0.2-0.2-0.5-0.4-0.9-0.7
			c-0.4-0.3-0.7-0.6-0.9-0.7l0.6-0.7l0.5,0.3c0-0.1,0.2-0.2,0.3-0.3c0.2-0.3,0.4-0.6,0.5-0.7h-2.5V67L599,67L599,67z M600.5,53.6
			v0.8h3.3v-0.8H600.5z M600.5,56.1h3.3v-0.9h-3.3V56.1z M601.6,65.1v-2.7h1.1v1.1h1.3v-0.6c0-0.3,0.1-0.5,0.1-0.7h1.3
			c0,0.2,0,0.5-0.1,0.9v0.8c0,1.3-1,2.3-2.9,3c-0.1-0.1-0.2-0.2-0.4-0.4l-0.5-0.5c1.3-0.5,2.1-1,2.3-1.6h-1.1V65L601.6,65.1
			L601.6,65.1z M605.7,58.5c-0.3,0.3-0.8,0.8-1.7,1.6c-0.4,0.3-0.7,0.6-0.8,0.8l1.3-0.1c0,0-0.1-0.1-0.1-0.2c0-0.1-0.1-0.3-0.2-0.5
			l1-0.3l0.8,1.7l-0.1-0.6h0.5c0.4-0.3,0.8-0.7,1.2-1.1c-0.1,0-0.2-0.2-0.4-0.3C606.5,59,606,58.7,605.7,58.5L605.7,58.5z
			 M609.1,65.1v-0.6h-1.3v2.2h-1.3v-4.5h1.3v1.2h1.3v-1.1h1.1v2.7L609.1,65.1L609.1,65.1z M608.1,53.6v0.8h3.4v-0.8H608.1z
			 M608.1,55.2v0.9h3.4v-0.9H608.1z"/>
		<path class="st0" d="M616,56.1v-1.3h5.9v1.3H616z M616.4,58.2v-1.2h5v1.2H616.4z M616.4,60.4v-1.2h5v1.2H616.4z M622.2,67
			c-0.1-0.2-0.2-0.5-0.5-0.9c-0.1-0.2-0.2-0.3-0.2-0.4v1.1h-1.4v-0.9h-2.2v0.8h-1.4v-5.2h4.9v4c1.3-0.3,2.5-0.8,3.6-1.4
			c-0.8-0.8-1.6-1.9-2.3-3.4l0.9-0.4h-1.3v-1.4h7.9v1.5c-0.8,1.5-1.7,2.8-2.6,3.7c0.9,0.5,2.1,1,3.6,1.3c-0.1,0.1-0.2,0.3-0.4,0.7
			c-0.2,0.4-0.4,0.6-0.5,0.8c-1.6-0.5-3-1.1-4-1.7C625.1,65.9,623.7,66.5,622.2,67L622.2,67z M616.8,53.8v-1.2h4.3v1.2H616.8z
			 M617.9,62.8v2h2.2v-2H617.9z M622.8,58.6c-0.2-0.4-0.5-0.8-0.9-1.3c1.3-0.5,1.9-1.5,1.8-3.1v-1.5h5.1v3c0,0.6,0.2,0.8,0.6,0.8
			h0.2c0.3,0,0.5-0.2,0.5-0.7c0.1-0.5,0.2-0.9,0.1-1.2c0.2,0.2,0.6,0.3,1.1,0.5c0,0,0.1,0.1,0.1,0.1v0.2c0,0.3-0.1,0.7-0.2,1.3
			c-0.1,0.9-0.6,1.3-1.5,1.3h-0.8c-1,0-1.5-0.6-1.5-1.8v-2H625C625.1,56.2,624.4,57.7,622.8,58.6L622.8,58.6z M628.4,60.4h-4.2
			c0.6,1.1,1.3,2.1,2.1,2.8C627.1,62.4,627.8,61.5,628.4,60.4L628.4,60.4z"/>
		<path class="st0" d="M633.6,56.1v-1.3h6.8v1.3H633.6z M634.1,58.4v-1.2h5.8v1.2H634.1z M634.1,60.6v-1.2h5.8v1.2H634.1z
			 M634.2,66.9v-5.2h5.6v5.2h-1.5v-0.7h-2.6v0.8H634.2z M634.4,53.7v-1.2h5.2v1.2H634.4z M635.7,62.9v2h2.6v-2H635.7z M640.5,58.8
			v-1.6h3.2v-5.2h1.7v5.2h3.2v1.6h-3.2v8.1h-1.7v-8.1H640.5z"/>
		<path class="st0" d="M106.7,92.9V80.7h5.6v-2.6h1.8v2.6h5.7v12.2H118v-0.9h-9.7v0.9H106.7L106.7,92.9z M108.4,82.3v3.3h3.9v-3.3
			H108.4z M108.4,87.1v3.4h3.9v-3.4H108.4z M118,82.3h-4v3.3h4V82.3z M114,87.1v3.4h4v-3.4H114z"/>
		<path class="st0" d="M124.6,93V79.9h4.1c0.2-0.7,0.4-1.3,0.5-1.9l2,0.2c-0.2,0.5-0.4,1.1-0.6,1.8h6.2V93h-1.8v-1h-8.8v1H124.6z
			 M126.4,81.4v2.1h8.8v-2.1H126.4z M126.4,85v2.1h8.8V85H126.4z M126.4,88.5v2.1h8.8v-2.1H126.4z"/>
		<path class="st0" d="M141.2,87.2c-0.2-0.8-0.4-1.5-0.6-2.1c1.6-2.3,2.8-4.7,3.5-7.1l1.8,0.4c-0.5,1.2-0.9,2.3-1.4,3.4V93h-1.6
			v-8.1C142.4,85.6,141.8,86.4,141.2,87.2L141.2,87.2z M145.9,82.4v-1.6h4.3c0-0.1-0.1-0.4-0.2-0.8c-0.2-0.8-0.4-1.4-0.6-1.8
			l1.8-0.2c0,0.2,0.1,0.4,0.2,0.8c0.3,0.8,0.5,1.3,0.6,1.7l-1.6,0.3h5.2v1.6h-3.9v3.2h3.6v1.6h-3.6v3.6h4.3v1.4h-10.4v-1.4h4.4v-3.6
			h-3.6v-1.6h3.6v-3.2H145.9z"/>
		<path class="st0" d="M159.6,83.9c-0.6-0.6-1-1-1.2-1.2c2-1.4,3.5-3,4.6-4.8l1.9,0.2l-0.8,1.1h5.9v1.3l-1.4,1.4h3.8v8.6
			c0,1.3-0.6,2-1.9,2c-0.5,0-1.2,0.1-2.1,0.1c0-0.4-0.1-0.9-0.3-1.5c0.3,0,0.9,0.1,1.8,0.1c0.7,0,1-0.2,1-0.9v-0.9h-9.1
			c-0.2,1.1-0.7,2.2-1.6,3.5c-0.6-0.5-1.1-0.8-1.6-1.1c0.8-0.9,1.3-1.7,1.5-2.5c0.2-0.8,0.3-2,0.3-3.8v-2.2
			C160.1,83.6,159.9,83.8,159.6,83.9L159.6,83.9z M167.8,80.7h-4.8c-0.4,0.5-0.8,0.9-1.2,1.4h4.7L167.8,80.7z M161.9,86.5
			c0,0.2,0,0.5-0.1,0.9v0.8h3.6v-1.8H161.9z M161.9,83.4v1.7h3.5v-1.7H161.9z M170.7,83.4H167v1.7h3.7V83.4z M167,86.5v1.8h3.7v-1.8
			H167z"/>
		<path class="st0" d="M177.3,93.1c-0.5-0.4-1-0.8-1.4-1.1c0.6-1,1-2,1.1-2.9c0.2-0.9,0.2-2.2,0.2-4.1v-5.6h6.4v-1.4h1.7v1.4h5.6
			v1.4h-12.1v4.2C178.9,88.7,178.4,91.3,177.3,93.1L177.3,93.1z M190.4,92.9c-2.2-0.3-4-0.8-5.6-1.4c-1.7,0.7-3.5,1.2-5.5,1.6
			c-0.1-0.2-0.3-0.5-0.5-1c-0.1-0.2-0.2-0.4-0.2-0.5c1.8-0.2,3.3-0.6,4.6-0.9c-1-0.6-1.8-1.4-2.6-2.4h-1v-1.3h9.8v1.4
			c-0.9,1-1.8,1.8-2.9,2.4c1.2,0.4,2.8,0.6,4.6,0.7C190.8,91.8,190.6,92.4,190.4,92.9L190.4,92.9z M179.1,83.6v-1.4h2.1V81h1.6v1.2
			h4.1V81h1.6v1.2h2.4v1.4h-2.4v2.3h-7.2v-2.3H179.1L179.1,83.6z M187.4,88.2h-5c0.7,0.7,1.5,1.3,2.4,1.8
			C185.8,89.4,186.7,88.8,187.4,88.2z M182.8,83.6v1.2h4.1v-1.2H182.8z"/>
		<path class="st0" d="M193.9,82.2v-1.5h1.9v-2.7h1.6l-0.1,2.7h1.8v1.5h-1.8v2.4h2.1v1.5h-2.1l-0.1,0.8h0.1c0.8,0.8,1.6,1.8,2.5,2.8
			l-1.1,1.2c-0.1-0.1-0.3-0.3-0.5-0.6c-0.5-0.7-1-1.2-1.2-1.6c-0.3,1.3-1.1,2.7-2.4,4.3c-0.1-0.1-0.2-0.2-0.4-0.5
			c-0.3-0.4-0.5-0.7-0.7-0.9c1.5-1.5,2.2-3.3,2.3-5.4h-2.1v-1.5h2.1c0-0.1,0-0.2,0.1-0.4v-2H193.9L193.9,82.2z M200,88.1v-9.4h7.7
			v9.4h-2v2.5c0,0.4,0.1,0.6,0.6,0.6h0.5c0.4,0,0.6-0.2,0.6-0.6c0.1-0.5,0.1-1,0.2-1.5c0.2,0.1,0.5,0.2,0.9,0.4
			c0.1,0,0.2,0.1,0.2,0.1c-0.1,0.9-0.2,1.5-0.2,1.7c-0.2,1-0.7,1.5-1.6,1.4H206c-1.2,0-1.8-0.5-1.8-1.8v-2.8H203
			c0.1,2.4-1.1,4-3.7,4.9c-0.3-0.4-0.6-0.8-0.9-1.2c2.2-0.6,3.3-1.8,3.2-3.7L200,88.1L200,88.1z M201.5,80v1.4h4.6V80H201.5z
			 M201.5,82.7v1.4h4.6v-1.4H201.5z M201.5,85.3v1.5h4.6v-1.5H201.5z"/>
		<path class="st0" d="M211.3,92.6l-0.1-1.2c0.3,0,0.9,0,1.6-0.1c3.8,0,6.6-0.1,8.4-0.2v0.6c0,0.2-0.1,0.4-0.1,0.6
			C218.4,92.3,215.1,92.4,211.3,92.6L211.3,92.6z M211.2,81.5v-0.9h4.1v-0.7H212V79h3.3v-1h1.5v1h3.5v1.6h0.9v0.9h-0.9v1.6h-3.5v0.7
			h3.8v0.8h-3.8v0.8h4.4v0.9h-9.9v-0.9h4.1v-0.8h-3.6v-0.8h3.6v-0.7h-3.4v-0.9h3.4v-0.8L211.2,81.5L211.2,81.5z M211.9,90.7v-3.8
			h8.4v3.8H211.9z M213.3,87.7v0.8h2.2v-0.8H213.3z M213.3,89.1v0.8h2.2v-0.8H213.3z M219,79.9h-2.2v0.7h2.2V79.9z M216.8,81.5v0.8
			h2.2v-0.8H216.8z M219,87.7h-2.2v0.8h2.2V87.7z M216.8,89.1v0.8h2.2v-0.8H216.8z M222.1,92.8c0-0.2-0.1-0.4-0.1-0.7
			c-0.1-0.3-0.1-0.6-0.2-0.8h1.6c0.7,0,1-0.2,1-0.7V78.1h1.3v12.8c0.1,1.2-0.5,1.9-1.7,1.9L222.1,92.8L222.1,92.8z M221.9,89.4v-10
			h1.2v10H221.9z"/>
		<path class="st0" d="M229,87.4l-0.4-1.5l1.1-0.1c0.3-0.3,0.7-0.9,1.2-1.8c0.1-0.2,0.2-0.3,0.3-0.4c-0.5-0.4-1.4-1-2.6-1.8l0.8-1
			c0,0,0.1,0.1,0.3,0.2c0.1,0,0.1,0.1,0.2,0.1c0.6-1,1.1-2,1.6-3.1l1.5,0.6c-0.5,0.9-1.2,1.9-2.1,3.2l1,0.7c0.5-0.8,0.9-1.5,1.3-2.1
			l1.3,0.7c-0.4,0.5-1,1.5-1.9,2.8c-0.6,0.9-1.1,1.5-1.4,1.9c0.2,0,0.5-0.1,1-0.1c0.4,0,0.7-0.1,0.9-0.1c0-0.2-0.1-0.4-0.2-0.6
			c-0.1-0.3-0.2-0.5-0.2-0.6l1.1-0.3c0.2,0.4,0.4,0.9,0.6,1.6c0.3,0.7,0.5,1.2,0.6,1.6l-1.1,0.4c0-0.1-0.1-0.2-0.1-0.4
			c-0.1-0.2-0.1-0.3-0.2-0.4c-0.1,0-0.3,0-0.6,0.1c-0.2,0-0.4,0-0.5,0.1v6h-1.4v-5.9c-0.2,0-0.6,0.1-1.1,0.1
			C229.6,87.3,229.2,87.4,229,87.4L229,87.4z M229.8,91.9l-1.1-0.3c0.2-0.5,0.5-1.6,0.9-3.1c0-0.1,0.1-0.2,0.1-0.3l1,0.2
			C230.3,90.1,230,91.3,229.8,91.9L229.8,91.9z M234.2,91.3c-0.1-0.2-0.3-0.8-0.6-1.7c-0.2-0.5-0.3-1-0.4-1.3l1-0.3
			c0.2,0.5,0.5,1.2,0.8,2.2c0.1,0.4,0.2,0.7,0.3,0.9L234.2,91.3L234.2,91.3z M235.4,92.9V79.1h7.8v13.8h-1.5v-1.1h-4.9v1.1
			L235.4,92.9L235.4,92.9z M236.9,80.6v4.1h1.8v-4.1H236.9z M236.9,86.2v4.2h1.8v-4.2H236.9z M241.8,80.6H240v4.1h1.8V80.6z
			 M240,86.2v4.2h1.8v-4.2H240z"/>
		<path class="st0" d="M247.5,82.7c-0.2-0.3-0.6-0.7-1.1-1.1c1.2-1.2,2.1-2.4,2.7-3.6l1.7,0.1c-0.1,0.2-0.2,0.5-0.4,0.8
			c-0.1,0.2-0.1,0.3-0.2,0.4h3.9v1.2H251c0.5,0.5,1,1,1.4,1.4l-1.1,0.9h2.6v5.7h-4.8v2.3c0.3-0.1,0.8-0.3,1.4-0.4
			c0.5-0.2,0.9-0.3,1.1-0.4l-0.6-0.9l1.2-0.6c0.6,0.8,1.4,1.8,2.2,3.1l-1.2,0.8c-0.2-0.5-0.5-0.8-0.8-1.2c-1.7,0.4-3.3,0.9-5,1.6
			l-0.6-1.4c0.2,0,0.5-0.1,0.8-0.1L247.5,82.7l3.8,0.1c-0.3-0.5-0.8-1-1.4-1.6l0.9-0.7h-1.4C248.9,81.4,248.2,82.1,247.5,82.7
			L247.5,82.7z M249.1,83.9v1.1h3.3v-1.1H249.1z M249.1,87.3h3.3v-1.2h-3.3V87.3z M254.6,82.6c-0.4-0.3-0.8-0.6-1.2-0.9
			c1.1-1.2,1.9-2.4,2.4-3.8l1.6,0.2c0,0.2-0.2,0.4-0.4,0.8c0,0.1-0.1,0.2-0.1,0.2h4.4v1.2h-3.4c0.6,0.5,1.1,1,1.6,1.6l-1.1,0.8
			c-0.5-0.6-1-1.1-1.5-1.6l0.9-0.8h-1.6C255.8,81.2,255.2,82,254.6,82.6L254.6,82.6z M255,93V83h5.6v6.2c0.1,1.3-0.6,1.9-1.9,1.9
			c-0.5,0-1,0.1-1.5,0.1c-0.1-0.3-0.2-0.8-0.3-1.4h1.3c0.7,0,1-0.3,0.9-0.9v-4.5h-2.5V93L255,93L255,93z"/>
		<path class="st0" d="M272.9,82.6v2.1c0,1.6-0.6,2.8-2.1,3.6l-0.6-0.7c1-0.6,1.6-1.5,1.6-2.6h-1.2v-2.4L272.9,82.6L272.9,82.6z"/>
		<path class="st0" d="M281.8,82.5v-1.6h2.2v-2.8h1.7v2.8h1.9v1.6h-1.9v2.8l2.1-0.5c0,0.2,0,0.5,0.1,0.9v0.7l-2.2,0.6V91
			c0,1.1-0.6,1.7-1.8,1.8c-0.3,0-1,0.1-1.9,0.1c-0.1-0.6-0.2-1.2-0.3-1.6h1.4c0.6,0,0.9-0.2,0.9-0.8v-3.1l-2.3,0.6l-0.2-1.8
			c0.8-0.2,1.6-0.4,2.6-0.6v-3.1L281.8,82.5L281.8,82.5z M288.2,80.8v-1.7h8.5v1.7h-2.5v9.6c0,1.6-0.8,2.4-2.4,2.4h-2.4
			c-0.1-0.4-0.2-0.9-0.4-1.6h2.1c0.9,0,1.3-0.4,1.2-1.2v-9.1L288.2,80.8L288.2,80.8z"/>
		<path class="st0" d="M299.9,92.9l-0.8-1.7l1.8-1.6v-3.4h-1.7v-1.5h3.3v4.8c0.8,1.2,1.9,1.8,3.6,1.8c3.9,0,6.6,0,8.2-0.1
			c-0.2,0.4-0.4,0.9-0.5,1.5c-2.7,0-5.4,0-8.2-0.1c-1.7,0-3-0.5-3.9-1.6C301,91.6,300.3,92.2,299.9,92.9L299.9,92.9z M302.1,84.3
			c-0.5-0.4-1.4-1.1-2.8-2.1l0.9-1.1c0.2,0.1,0.4,0.3,0.7,0.5c0.5,0.3,1.3,0.8,2.2,1.5L302.1,84.3L302.1,84.3z M302.4,81.3
			c-1-0.9-2-1.6-2.8-2.1l0.9-1.2c0.5,0.3,1.1,0.8,1.9,1.4c0.4,0.3,0.7,0.5,0.9,0.7L302.4,81.3L302.4,81.3z M305.2,82.6
			c-0.6-0.2-1.1-0.4-1.5-0.6c0.8-1,1.3-2.2,1.7-3.5l1.6,0.2c-0.1,0.2-0.2,0.5-0.4,0.9c0,0.2-0.1,0.3-0.1,0.3h1.8v-1.9h1.7V80h3.5
			v1.3H310v1.6h4.2v1.4h-10.6v-1.4h4.8v-1.6H306c0,0.1-0.1,0.2-0.2,0.4C305.5,82.1,305.4,82.4,305.2,82.6L305.2,82.6z M304.6,90
			v-4.5h8.4V90H304.6z M306.3,86.8v1.8h5.2v-1.8H306.3z"/>
		<path class="st0" d="M323.8,82.8c-0.9-1-1.9-1.9-3-2.8c-0.5,0.8-1.1,1.4-1.8,2.1h3.9v1.3h-1.6v1.4h2.8v1.3h-2.8v1.4h2.2v5.3h-1.4
			v-0.8H319v0.8h-1.4v-5.4h2.4V86H317v-1.3h2.9v-1.4h-1.6v-0.8c-0.4,0.3-0.8,0.6-1.1,0.9c0-0.2-0.1-0.4-0.3-0.8
			c-0.1-0.3-0.2-0.6-0.3-0.8c1.5-1,2.7-2.3,3.7-4l1.6,0.2l-0.3,0.6c0.9,0.7,1.9,1.5,3.1,2.6L323.8,82.8L323.8,82.8z M319,88.8v2.1
			h3.2v-2.1H319z M325,92.8c0-0.2,0-0.4-0.1-0.8c0-0.3-0.1-0.6-0.1-0.8h1.4c0.7,0,1-0.2,0.9-0.8v-4.9h-2.6v-1.4h3.1
			c-0.2-0.3-0.6-0.7-1.1-1.2c-0.5-0.5-0.9-0.9-1.2-1.2l1-0.9c0.1,0.1,0.3,0.3,0.5,0.5c0.4,0.4,0.8,0.8,1,1l2-2.1h-5.1v-1.4h6.6v1.7
			l-2.6,2.8c0.1,0,0.1,0.1,0.2,0.2l-0.7,0.7h3.7v1.2l-0.6,2.9l-1.4-0.2l0.6-2.5h-1.9v5.2c0,1.2-0.6,1.9-1.9,1.9H325L325,92.8z"/>
		<path class="st0" d="M336.8,84.2c-0.7-0.6-1.6-1.3-2.6-2.1l0.9-1c0.4,0.3,1,0.7,1.8,1.2c0.4,0.3,0.7,0.5,0.9,0.6L336.8,84.2
			L336.8,84.2z M335,92.9l-0.7-1.7c0.6-0.5,1.1-1,1.6-1.5v-3.2h-1.5v-1.5h3.1v4.6c0.6,1.1,1.8,1.7,3.6,1.7c3.6,0,6.4,0,8.5-0.1
			c-0.2,0.5-0.4,1-0.5,1.5H344c-1.2,0-2.3,0-3.2-0.1c-1.8,0-3.1-0.6-3.9-1.7C336.1,91.6,335.5,92.2,335,92.9L335,92.9z M337.2,81.1
			c-0.1-0.1-0.3-0.2-0.5-0.4c-0.9-0.7-1.5-1.2-2-1.6l0.9-1.1c0.3,0.2,0.8,0.6,1.5,1.1c0.5,0.4,0.8,0.7,1.1,0.8L337.2,81.1
			L337.2,81.1z M338.5,80.7v-1.2h4.6V78h1.6v1.4h4.5v1.2h-2c0,0.1-0.1,0.2-0.2,0.4c-0.1,0.2-0.4,0.5-0.8,1h2.5v7
			c0,1-0.5,1.6-1.6,1.6c-0.6,0-1.2,0.1-1.7,0.1c0-0.1,0-0.2-0.1-0.4c-0.1-0.3-0.1-0.6-0.2-0.8h-3.7v-3.2h1.8v-1H341v-1h2.2v-0.8h1.2
			v0.8h2.1v1h-2.1v1h1.7v3.1h0.4c0.5,0,0.7-0.2,0.7-0.7v-5.5h-6.9v7.4h-1.4V82h2.5c-0.3-0.5-0.6-0.9-1-1.3l0.3-0.1H338.5L338.5,80.7
			z M343,82l-0.3,0.1h1.8c0.3-0.4,0.6-0.8,0.9-1.4h-3.4L343,82L343,82z M342.6,87.3v1.2h2.3v-1.2H342.6z"/>
		<path class="st0" d="M357.7,91.4c-0.6-0.4-1.1-0.9-1.6-1.4c-0.5,0.8-1.5,1.7-3,2.8c-0.4-0.5-0.8-0.9-1.1-1.2
			c1.3-0.9,2.3-1.8,2.9-2.6l-1.2-1.1l-0.2,0.6l-1.4-0.6c0.5-1.8,1-3.5,1.4-5.2h-1.2v-1.6h1.6c0.2-1.1,0.3-2.2,0.4-3.2l1.7,0.1
			c-0.2,1-0.4,2-0.6,3.1h3.1v1.4c-0.2,2.5-0.7,4.5-1.4,6c0.6,0.5,1.2,1,1.8,1.6L357.7,91.4L357.7,91.4z M356.7,82.8h-1.8
			c-0.1,0.3-0.2,0.8-0.4,1.5c-0.2,1-0.4,1.7-0.5,2.1c0.1,0.1,0.3,0.2,0.5,0.4c0.2,0.2,0.6,0.5,1.1,0.9
			C356.2,86.4,356.6,84.8,356.7,82.8L356.7,82.8z M358.5,86.4v-1.6h3.6v-1.9l2.5-2.5h-5.6v-1.6h7.6v1.7l-2.8,2.9v1.4h3.2v1.6h-3.2
			v4.3c0,1.3-0.7,2-2.1,2c-0.5,0-1.2,0.1-2.1,0.1c0,0,0-0.1-0.1-0.2c-0.1-0.7-0.2-1.2-0.2-1.4h1.8c0.7,0,1-0.3,1-0.9v-3.8
			L358.5,86.4L358.5,86.4z"/>
		<path class="st0" d="M371.1,93.1c-0.2-0.1-0.4-0.2-0.8-0.4c-0.4-0.2-0.6-0.4-0.8-0.5c0.6-1,1-1.9,1.2-2.8c0.2-0.9,0.3-2.3,0.3-4.1
			v-6.4h12.8v11.9c0.1,1.4-0.6,2-2.1,2c-0.5,0-1.2,0.1-2,0.1c0-0.1-0.1-0.3-0.1-0.6c-0.1-0.5-0.2-0.8-0.2-1.1c0.2,0,0.5,0,0.9,0.1
			h0.8c0.8,0,1.1-0.2,1.1-0.8v-2.1h-3.9v4.2h-1.7v-4.2h-3.8C372.7,89.9,372.1,91.4,371.1,93.1L371.1,93.1z M372.9,85.2
			c0,0.2,0,0.5-0.1,0.9v0.8h3.8v-2.5h-3.7V85.2z M372.9,80.4v2.5h3.7v-2.5H372.9z M382.2,80.4h-3.9v2.5h3.9V80.4z M378.2,84.4v2.5
			h3.9v-2.5H378.2z"/>
		<path class="st0" d="M387.8,92.8V80.5h1.7c0.1-0.5,0.3-1.1,0.5-1.9c0-0.2,0.1-0.4,0.1-0.6l1.8,0.2c-0.2,0.8-0.4,1.5-0.6,2.2h2.7
			v12.2h-1.6v-1.1h-2.9v1.2L387.8,92.8L387.8,92.8z M389.4,82.1v3.2h2.9v-3.2H389.4z M389.4,86.9v3.2h2.9v-3.2H389.4z M396.2,92.7
			c-0.1-0.6-0.2-1.2-0.3-1.6h1.1c0.5,0,1,0.1,1.2,0.1c1.1,0,1.7-0.5,1.7-1.6c0-0.7,0.1-2.1,0.1-4.2c0-1.5,0.1-2.6,0.1-3.2h-3.4
			c-0.4,0.8-0.8,1.6-1.1,2.3c-0.1,0-0.2-0.1-0.4-0.2c-0.2-0.1-0.6-0.3-1.1-0.6c1-1.8,1.7-3.6,2.2-5.5l1.7,0.4c0,0.2-0.1,0.4-0.2,0.7
			c-0.2,0.6-0.3,1-0.5,1.4h4.5c-0.1,4.5-0.2,7.7-0.2,9.4c0,1.9-0.9,2.8-2.7,2.8C398,92.7,397.1,92.7,396.2,92.7L396.2,92.7z
			 M397.5,88.5c-0.7-1.1-1.5-2.2-2.3-3.3l1.3-0.8c0.8,0.9,1.6,1.9,2.4,3.2L397.5,88.5L397.5,88.5z"/>
		<path class="st0" d="M418.6,92.7c-3.5-1.9-5.6-4.6-6.2-8.1c-0.6,3.5-2.8,6.3-6.4,8.3c-0.3-0.5-0.7-1.1-1.2-1.6
			c4-2,6.1-5.2,6.4-9.4c0.1-1,0.1-2.2,0.1-3.8h1.9c0,0.1-0.1,0.5-0.1,1.1c0,0.5-0.1,0.9-0.1,1.1c0.4,5.4,2.6,9,6.8,10.7
			C419.3,91.7,418.9,92.2,418.6,92.7L418.6,92.7z"/>
		<path class="st0" d="M423.5,85.8c-0.4-0.1-0.8-0.2-1.2-0.2c0.1-0.6,0.3-1.6,0.4-3c0.1-0.6,0.1-1.1,0.2-1.3l1.1,0.1
			C423.9,82.8,423.7,84.2,423.5,85.8z M427.2,83.3c-0.4-0.4-0.8-0.7-1.1-1v10.6h-1.6V78.1h1.6v2.4c0.6,0.4,1.2,0.9,1.9,1.4
			L427.2,83.3L427.2,83.3z M428.8,85.2c-0.2-0.1-0.4-0.2-0.7-0.3c-0.3-0.1-0.6-0.2-0.8-0.2c0.8-1.6,1.4-3.4,1.7-5.5l1.6,0.2
			c0,0.2-0.1,0.6-0.2,1.1c-0.1,0.4-0.1,0.7-0.2,0.8h1.7v-3.2h1.7v3.2h3.6v1.6h-3.6V86h3.3v1.6h-3.3v3.4h3.9v1.4h-10.1v-1.4h4.5v-3.4
			h-3.6V86h3.6v-3.1h-2.2C429.5,83.7,429.2,84.4,428.8,85.2L428.8,85.2z"/>
		<path class="st0" d="M440.5,87.4l-0.6-2.1c1.6-2,2.9-4.3,3.9-7.1l1.8,0.6c-0.5,1.3-1.1,2.5-1.8,3.7v10.6h-1.6v-7.9
			c-0.2,0.2-0.4,0.6-0.8,1.1C441,86.7,440.7,87.1,440.5,87.4L440.5,87.4z M449.9,92.6c-1.7,0.1-2.5-0.7-2.4-2.4V78.2h1.8v5.9
			c1.3-1,2.7-2.3,4.1-4.1l1.4,1.2c-1.8,2.1-3.6,3.8-5.5,5.1v3.6c0,0.8,0.4,1.1,1.2,1.1h1.3c0.8,0,1.3-0.3,1.4-1
			c0-0.4,0.1-1.2,0.3-2.6c0.2,0,0.5,0.2,0.9,0.3c0.4,0.1,0.6,0.2,0.8,0.3c-0.1,1.1-0.3,2.1-0.4,2.8c-0.2,1.2-1.1,1.7-2.8,1.7
			L449.9,92.6L449.9,92.6z"/>
		<path class="st0" d="M459.8,87.6v-1.5h10.8v1.5H466v3.3h6.2v1.4H458v-1.4h6.2v-3.3H459.8z M460.2,85.4c-0.3-0.5-0.6-0.9-0.8-1.2
			c2-0.5,3-1.5,3-2.9h-2.6V83h-1.7v-3.2h6.2v-1.7h1.7v1.7h6.2V83h-1c-0.1,1.2-0.7,1.9-1.7,1.9h-2.1c-0.9,0-1.3-0.5-1.3-1.4v-2.1
			h-2.4C463.7,83.4,462.6,84.7,460.2,85.4L460.2,85.4z M470.6,81.4h-3v1.8c0,0.3,0.2,0.5,0.5,0.5h1.1c0.4,0,0.6-0.3,0.6-1.1
			c0.2,0.1,0.5,0.2,0.8,0.2L470.6,81.4L470.6,81.4z"/>
		<path class="st0" d="M475.8,92.9V78.6h6.1v5.6h-4.6v8.8L475.8,92.9L475.8,92.9z M477.4,79.8v1.1h3.2v-1.1H477.4z M477.4,83h3.2
			v-1.1h-3.2V83z M479.3,91.2v-6h7v6H479.3z M480.7,86.3v1.3h4.1v-1.3H480.7z M480.7,90h4.1v-1.3h-4.1V90z M485.7,92.9
			c0-0.1-0.1-0.3-0.1-0.6c-0.1-0.4-0.2-0.7-0.2-0.9c0.2,0,0.5,0,0.9,0.1h0.9c0.6,0,0.9-0.3,0.9-0.9v-6.4h-4.6v-5.6h6.1v12.2
			c0,1.3-0.6,2-2,2C487.1,92.9,486.5,92.9,485.7,92.9L485.7,92.9z M485,79.8v1.1h3.2v-1.1H485z M485,81.9V83h3.2v-1.1H485z"/>
		<path class="st0" d="M501.7,82.6v2.1c0,1.6-0.6,2.8-2.1,3.6l-0.6-0.7c1-0.6,1.6-1.5,1.6-2.6h-1.2v-2.4L501.7,82.6L501.7,82.6z"/>
		<path class="st0" d="M511,88.2l0.8-5.8h5.5v-2.2h-6.2v-1.5h7.9V84h-5.7l-0.3,2.1h6.1c0,0.5-0.1,1.3-0.1,2.4
			c-0.1,0.7-0.1,1.2-0.1,1.5c-0.1,1.8-1,2.7-2.9,2.6c-1,0-2,0.1-3.1,0.1c-0.1-0.5-0.2-1-0.4-1.6h2.8c1.2,0,1.8-0.5,1.8-1.5
			c0-0.3,0.1-0.8,0.2-1.7c0,0.1,0,0,0-0.4h-4.5l-0.1,0.6L511,88.2L511,88.2z M522.4,92.9V78.1h1.8v14.8H522.4z"/>
		<path class="st0" d="M528.5,84.7c0-0.1-0.1-0.3-0.2-0.6c0-0.2-0.2-0.5-0.4-0.9c1.3-1.4,2.3-3.1,3.1-5l1.6,0.2l-0.4,0.8
			c1,1.1,2,2.2,2.8,3.2l-1.1,1.2l-0.5-0.7v1.3h-3.5V83C529.4,83.5,529,84.1,528.5,84.7L528.5,84.7z M532.5,92.9
			c-0.8-0.9-2.1-2.2-3.9-3.8l1-1c0.2,0.2,0.4,0.4,0.8,0.7c0.3,0.3,0.6,0.6,0.8,0.8l1.5-2.7h-4.2v-1.4h5.9v1.5l-2.1,3.7l1.3,1.2
			C533.6,91.8,532.5,92.9,532.5,92.9z M533.3,82.8c-0.6-0.9-1.2-1.7-1.8-2.4c-0.4,0.8-0.9,1.6-1.5,2.4H533.3z M534.9,93.1
			c-0.1-0.1-0.2-0.3-0.5-0.7c-0.2-0.2-0.3-0.4-0.4-0.6c1.2-0.6,2.3-1.2,3.3-1.7l0.9,1.1c-0.4,0.2-1,0.5-1.9,1
			C535.8,92.6,535.2,92.8,534.9,93.1L534.9,93.1z M534.7,80.1v-1.3h8.3v1.3h-3.6l-0.2,1.3h3.4V90h-7.3v-8.6h2.4l0.2-1.3H534.7
			L534.7,80.1z M536.6,82.7v1.2h4.4v-1.2H536.6z M536.6,85.1v1.2h4.4v-1.2H536.6z M536.6,87.4v1.3h4.4v-1.3H536.6z M542.2,93
			c-0.9-0.6-1.9-1.2-2.9-1.9l0.9-1c1.2,0.7,2.2,1.2,2.9,1.6L542.2,93L542.2,93z"/>
		<path class="st0" d="M546.1,83.2v-3h2.9c-0.5-0.5-1.1-1-1.7-1.5l1.6-0.4c0.8,0.8,1.5,1.4,2,1.9l-0.2,0.1h1.6v-2.2h1.8v2.2h1.2
			c0.7-0.5,1.4-1.2,2.1-1.9l1.6,0.4c-0.2,0.2-0.5,0.5-0.9,0.9c-0.3,0.2-0.6,0.5-0.8,0.6h2.9v3h-1.6v-1.8h-10.9v1.8L546.1,83.2
			L546.1,83.2z M547,92.9v-6.1h12.4v6.1h-1.7v-0.6h-9v0.6H547z M548.2,85.9v-3.4h9.9v3.4H548.2z M548.7,88v1.1h3.7V88H548.7z
			 M548.7,90.2v1.1h3.7v-1.1H548.7z M549.8,83.6v1.2h6.8v-1.2H549.8z M557.7,88H554v1.1h3.7V88z M554,90.2v1.1h3.7v-1.1H554z"/>
		<path class="st0" d="M565.2,92.9v-8.1c-0.5,0.8-1.1,1.6-1.7,2.3c-0.2-0.7-0.3-1.4-0.4-2.1c1.5-2.2,2.7-4.5,3.4-6.9l1.8,0.5
			c-0.4,1.1-0.9,2.2-1.4,3.2v11.1L565.2,92.9L565.2,92.9z M567.9,85l-0.2-1.7l3.2-0.4c0-0.4,0-1-0.1-1.9c0-1.3-0.1-2.3-0.1-3h1.8
			c0,1.6,0.1,3.2,0.2,4.7l5.3-0.6l0.2,1.6l-5.4,0.7c0.2,2.3,0.6,4.1,1.2,5.3c0.5,1,1,1.4,1.6,1.4c0.5,0,0.8-0.3,0.9-1
			c0-0.1,0-0.2,0.1-0.3c0.2-0.8,0.3-1.4,0.3-1.8c0.1,0,0.3,0.1,0.5,0.2c0.5,0.2,0.8,0.3,1,0.4c0,0.5-0.2,1.3-0.4,2.2
			c-0.3,1.3-1.1,2-2.2,1.9c-1.4,0-2.4-0.8-3.2-2.2c-0.7-1.3-1.2-3.3-1.4-6L567.9,85L567.9,85z M576,81.8c0,0-0.1-0.1-0.2-0.2
			c-0.9-0.8-1.7-1.5-2.2-1.9l1.1-1.1c1.1,0.9,2,1.6,2.6,2.1L576,81.8L576,81.8z"/>
		<path class="st0" d="M581.4,81.4v-1.4h1.8v-2h1.4v2h1.6v1.4h-1.6v1.9h1.9v1.4h-1.4v2.1h1.2v1.4h-1.2v2.7c0.6,0.2,1.6,0.3,3,0.3
			c1.1,0,3,0,5.8,0h2.1c-0.2,0.5-0.3,1-0.4,1.4c-3.4,0-5.8,0-7.4-0.1c-2.8,0.1-4.7-0.7-5.6-2.4c-0.1,0.8-0.4,1.8-0.9,2.8
			c0,0-0.1-0.1-0.1-0.2c-0.4-0.5-0.7-0.8-0.8-0.9c0.7-1.2,1-3.2,0.9-6.2l1.2,0.1c0,0.3,0,0.7-0.1,1.3v1c0.3,0.8,0.7,1.3,1.1,1.8
			v-5.1H581v-1.4h2.2v-1.9L581.4,81.4L581.4,81.4z M591.6,84.2l-0.2-0.9h1.5c0.5,0,0.8-0.2,0.8-0.7c0.1-0.8,0.1-1.6,0.1-2.5h-5.1
			l-0.2,0.2l-0.6,0.6h0.7v0.9h0.9c0-0.2,0.1-0.7,0.1-1.3h1.2c0,0.5,0,0.9-0.1,1.3h1.1v-1.1h1v2h-2.2c-0.2,0.7-0.6,1.2-1.4,1.4
			l0.8,0.1l-0.3,0.5h5.5c0,0.5,0,1.3-0.1,2.3V89c-0.1,1.2-0.7,1.8-1.8,1.8c-0.5,0-1,0.1-1.8,0.1c0,0,0-0.2-0.1-0.3
			c0-0.4-0.1-0.7-0.2-0.9c0.3,0,0.8,0.1,1.6,0.1c0.5,0,0.8-0.3,0.9-0.8c0-0.6,0.1-1.6,0.1-2.9h-4.9l-0.9,0.9h0.6v1.1h1v-1.5h1.2
			c0,0.2,0,0.5-0.1,0.9v0.6h1.1v-1.2h1.1v2.1h-2.2c-0.2,1.2-1.5,1.9-3.8,2.2c-0.1-0.4-0.3-0.7-0.5-1.1c1.8-0.2,2.8-0.6,3-1.1h-1.9
			v-1.6l-0.6,0.4c0-0.1-0.1-0.3-0.2-0.6c-0.1-0.3-0.2-0.5-0.2-0.6c0.9-0.5,1.6-1.2,2.1-2c-0.4,0.1-0.9,0.2-1.4,0.3
			c-0.1-0.3-0.2-0.7-0.4-1.1c1.5-0.2,2.4-0.5,2.6-0.9h-1.8v-1.6c-0.1,0.1-0.2,0.2-0.4,0.4l-0.3,0.3c0-0.2-0.2-0.5-0.4-0.9
			c0-0.1-0.1-0.2-0.1-0.3c1-0.7,1.8-1.6,2.4-2.7l1.4,0.2c0,0.1-0.1,0.2-0.2,0.4c-0.1,0.2-0.2,0.3-0.3,0.4h5.7c0,1.4,0,2.6-0.1,3.7
			c0,1-0.6,1.5-1.7,1.5L591.6,84.2L591.6,84.2z"/>
		<path class="st0" d="M606.5,92.7c-0.1-0.5-0.2-1-0.3-1.4h1.1c0.7,0,1.2,0.1,1.6,0.1c0.9,0.1,1.4-0.2,1.4-1c0-0.1,0.1-0.3,0.1-0.6
			c0-0.2,0.1-0.4,0.1-0.6h-4.9c-0.4,1.9-2.4,3.2-6.2,3.9c-0.2-0.5-0.5-0.9-0.8-1.4c3.2-0.4,4.9-1.2,5.3-2.4h-4.4v-1.3h4.8
			c0-0.1,0.1-0.2,0.1-0.4c0-0.2,0.1-0.3,0.1-0.4h1.6l-0.1,0.9h6.2c0,1-0.1,1.8-0.2,2.5c0,1.6-0.9,2.3-2.8,2.3L606.5,92.7L606.5,92.7
			z M601.8,78.1h1.4V79h2.2v1.1h-2.2v0.8h2.7v1h-1.8v0.4c0,0.3,0.1,0.5,0.4,0.4h0.2c0.2,0,0.4-0.2,0.4-0.6c0,0,0.1,0,0.2,0.1
			c0.3,0.1,0.5,0.2,0.6,0.2c-0.1,0.8-0.5,1.2-1.2,1.1h-0.6c-0.8,0-1.1-0.3-1.1-1.1v-0.5h-1.4c0,1-0.8,1.7-2.4,2.1
			c-0.1-0.2-0.3-0.5-0.6-0.9c1.3-0.1,2-0.5,2-1.2h-1.9v-1h2.9v-0.8h-2.4V79h2.4L601.8,78.1L601.8,78.1z M599.6,84.8v-0.9h2.2V83h1.3
			v0.9h2.1v0.9h-2.1v0.8l2.5-0.1c0,0.4-0.1,0.7-0.1,1.1c-0.9,0-2.5,0.1-4.9,0.2c-0.8,0-1.3,0.1-1.7,0.1l-0.2-1.1l3-0.2v-0.9
			L599.6,84.8L599.6,84.8z M609.6,85.6c-0.4-0.2-0.8-0.5-1.1-0.9c-0.3,0.8-0.9,1.6-1.8,2.4c-0.1-0.1-0.3-0.4-0.6-0.8
			c-0.1-0.2-0.2-0.3-0.3-0.4c0.8-0.8,1.3-1.5,1.6-2.1c-0.1,0-0.2-0.1-0.3-0.2c-0.2-0.2-0.5-0.4-0.9-0.7l0.6-0.9l0.9,0.6
			c0-0.2,0.1-0.6,0.1-1.1c0-0.2,0.1-0.4,0.1-0.5h-1.6v-1.3h1.6v-1.7h1.4v1.7h2.5c-0.1,2.7,0,4.5,0.1,5.4c0.1,0.3,0.2,0.4,0.3,0.4
			s0.2-0.2,0.2-0.4c0.1-0.4,0.2-1,0.2-1.8c0.1,0,0.2,0.1,0.4,0.1c0.1,0,0.3,0.1,0.6,0.2c0,0.8-0.1,1.5-0.2,2.1
			c-0.2,0.8-0.6,1.2-1.2,1.2c-0.8,0-1.3-0.5-1.5-1.4c-0.1-0.5-0.2-2-0.2-4.6h-1.2c0,0.9-0.2,1.7-0.3,2.4l1.4,0.9L609.6,85.6
			L609.6,85.6z"/>
		<path class="st0" d="M620.8,82.8v-1.2h3.7v-1.1h-3v-1.2h3V78h1.6v1.2h3.8v2.3h1.2v1.2h-1.2v2.3h-3.8v1.1h4v1.2h-4v1.1h4.4v1.2
			h-4.4v1.4h5.1c-0.2,0.3-0.3,0.8-0.4,1.4c-2.8,0-4.9,0-6.6-0.1c-2.5,0-4.2-0.5-5.4-1.4c-0.5,0.6-1.2,1.2-2,2
			c-0.3-0.7-0.6-1.2-0.8-1.4c0.7-0.5,1.2-1.1,1.8-1.8c-0.6-0.8-1.2-1.8-1.6-3.1l1.2-0.6c0.4,1.1,0.8,1.8,1.1,2.3
			c0.4-0.9,0.6-2,0.8-3.2h-1.2l-0.2,0.4l-1.8-0.1l3-5.1h-2.7v-1.4h4.5v1.5l-1.9,3.2h1.9v0.7c-0.2,2.3-0.6,4.1-1.2,5.2
			c0.9,1,2.5,1.4,4.7,1.4h0.3v-1.4h-3.7v-1.2h3.7v-1.1h-3.2v-1.2h3.2v-1.1h-3.1V84h3.1v-1.2L620.8,82.8L620.8,82.8z M628.3,80.4
			h-2.2v1.1h2.2V80.4z M626.1,82.8v1.2h2.2v-1.2H626.1z"/>
		<path class="st0" d="M634.7,82.4c-0.1-0.1-0.2-0.2-0.4-0.4c-0.3-0.3-0.5-0.5-0.7-0.6c1.2-1,2.1-2.1,2.6-3.4l1.7,0.1
			c-0.2,0.4-0.4,0.8-0.6,1.1h3.9v1.2h-2.7l1,1.3l-1.4,0.4c-0.4-0.5-0.8-1.1-1.2-1.6l0.2-0.1h-0.7C636,81.1,635.4,81.7,634.7,82.4
			L634.7,82.4z M634.1,83.8v-1.2h5.4v1.2h-1.9v1.9l1.9-0.2c0,0.3-0.1,0.7-0.1,1c0.8-0.5,1.1-1.3,1-2.4v-1.6h5.8v3
			c0,0.4,0.2,0.6,0.4,0.6h0.2c0.3,0,0.5-0.2,0.6-0.6c0.1-0.3,0.1-0.8,0.1-1.3c0.1,0,0.2,0.1,0.5,0.2c0.3,0.1,0.6,0.2,0.7,0.2
			c0,0.5-0.1,1-0.2,1.4c-0.2,0.9-0.7,1.3-1.7,1.3h-0.6c-1,0-1.4-0.5-1.4-1.5v-2.1h-2.9v0.5c0.1,1.4-0.4,2.5-1.5,3.3h1.5v0.8h6.5v1.3
			h-5.3c1.2,0.9,3.1,1.5,5.6,1.9c-0.3,0.5-0.5,0.9-0.8,1.3c-2.8-0.7-4.8-1.5-6.1-2.6V93h-1.6v-2.9c-1.3,1.1-3.3,2-6,2.8
			c-0.1-0.2-0.4-0.7-0.8-1.3c2.5-0.4,4.4-1.1,5.6-2h-5.2v-1.3h6.4v-0.6h-0.1c0,0-0.1-0.1-0.2-0.2c-0.4-0.3-0.7-0.6-0.9-0.7
			c-1.5,0.1-3.2,0.3-5.1,0.6l-0.3-1.3l2.4-0.2v-2L634.1,83.8L634.1,83.8z M641.9,82.1c-0.1-0.1-0.3-0.2-0.6-0.4
			c-0.3-0.1-0.5-0.2-0.7-0.3c1.1-1.1,1.8-2.3,2.3-3.4l1.6,0.1c-0.1,0.2-0.2,0.4-0.3,0.6s-0.2,0.4-0.2,0.5h4.4v1.2h-3.1
			c0.1,0.1,0.2,0.3,0.4,0.5c0.2,0.3,0.4,0.6,0.6,0.8l-1.4,0.4c-0.3-0.5-0.7-1-1.1-1.6l0.1-0.1h-0.7
			C642.8,81.1,642.4,81.6,641.9,82.1L641.9,82.1z M643.5,86.8c-0.6-0.7-1.1-1.2-1.6-1.7l0.9-0.8l1.7,1.6L643.5,86.8L643.5,86.8z"/>
	</g>
</g>
</svg>
