<?xml version="1.0" encoding="utf-8"?>
<!-- Generator: Adobe Illustrator 27.0.0, SVG Export Plug-In . SVG Version: 6.00 Build 0)  -->
<svg version="1.1" id="_圖層_2" xmlns="http://www.w3.org/2000/svg" xmlns:xlink="http://www.w3.org/1999/xlink" x="0px" y="0px"
	 viewBox="0 0 468.1 152.2" style="enable-background:new 0 0 468.1 152.2;" xml:space="preserve">
<style type="text/css">
	.st0{fill:#FFFFFF;}
</style>
<g id="_圖層_1-2">
	<g>
		<path class="st0" d="M56.9,30.9h33.4V2.5h16.2v28.5h33.4V46h-33.4v40.1H90.3V46H56.9V30.9z"/>
		<path class="st0" d="M223.9,73.5c-0.5,7.3-4.3,11-11.6,11.2c-2.6,0.2-6.8,0.3-12.6,0.3c-0.2-1.2-0.6-3.3-1.1-6.3
			c-0.2-1.2-0.5-2-0.7-2.5c-3.5,3.5-8.2,7.2-14.1,10.9c-0.9-0.9-2.4-2.5-4.2-4.6c-1.9-1.9-3.3-3.4-4.2-4.6c0,4-2.1,6.2-6.3,6.7
			c-0.9,0.2-2.5,0.3-4.6,0.3c-1.6,0.2-3.1,0.3-4.2,0.3c-0.2-0.7-0.6-2.1-1.1-4.2c-0.7-2.8-1.3-4.7-1.8-5.6
			c-0.7,3.3-1.9,7.2-3.5,11.6c-3.1-4-5.9-7.6-8.4-10.9c2.6-7,3.8-17.8,3.5-32.3V5.3h26.7v43.6c4.2-2.1,7.9-4.5,10.9-7h-9.5V31.3H194
			c0.2-0.5,0.5-1,0.7-1.8c0.2-0.9,0.4-1.5,0.4-1.8h-15.8V17.2h6c-0.7-0.9-1.8-2.3-3.2-4.2c-1.2-1.4-2.1-2.6-2.8-3.5l8.4-5.6
			c1.6,1.6,3.5,3.8,5.6,6.3c1.2,1.4,2.1,2.5,2.8,3.2l-6,3.9h6.7c0.2-4.2,0.4-9.1,0.4-14.8h11.6c0,5.6-0.2,10.5-0.7,14.8h7.4
			l-4.9-3.9c3-3.3,5.7-6.4,8.1-9.5l9.1,5.6c-2.3,2.8-4.6,5.4-6.7,7.7h7v10.5h-12.6c0.2,0.2,0.5,0.8,0.7,1.8c0.2,0.7,0.4,1.3,0.4,1.8
			h14.1v10.5h-9.5c2.8,3.8,6.7,6.3,11.6,7.7c-2.6,4.7-4.2,8.2-4.9,10.5c-0.2-0.2-0.6-0.3-1.1-0.3c-0.7-0.5-1.4-0.9-2.1-1.4
			c0,0.7-0.1,1.6-0.4,2.8C224,65.1,223.9,69.2,223.9,73.5L223.9,73.5z M162.4,74.5c1.6,0,2.5-0.9,2.5-2.8V59.4h-5.3
			c0,5.2-0.6,10.2-1.8,15.1H162.4L162.4,74.5z M164.9,16.2h-4.9v10.5h4.9V16.2z M159.9,43.9v4.6h4.9V38h-4.9V43.9L159.9,43.9z
			 M175.8,75.2c0,0.7-0.1,1.4-0.4,2.1c8.7-3.8,14.1-7.8,16.2-12.3h-9.1v-5.6c-1.4,0.7-2.8,1.3-4.2,1.8c0-0.2-0.1-0.8-0.4-1.8
			c-0.5-0.9-1.2-2.7-2.1-5.3L175.8,75.2L175.8,75.2z M195.1,54.5l0.7-4.2c-0.7,0.9-1.9,2-3.5,3.2c-0.7,0.5-1.2,0.8-1.4,1L195.1,54.5
			L195.1,54.5z M208.1,47.4c0,2.6-0.2,4.9-0.7,7H219c-3.8-2.8-6.6-7-8.4-12.7h-8.8c-0.9,2.1-2.1,4-3.5,5.6L208.1,47.4L208.1,47.4z
			 M212.3,65h-7.4c-0.9,3.5-2.7,6.7-5.3,9.5h7.7c2.8,0.2,4.3-0.9,4.6-3.5C212,69.1,212.1,67.1,212.3,65z M208.1,31.3
			c-0.5-1.2-0.7-2.3-0.7-3.5h-0.7c0,0.2-0.1,0.8-0.4,1.8c0,0.7-0.1,1.3-0.4,1.8L208.1,31.3L208.1,31.3z"/>
		<path class="st0" d="M243.2,2.5h11.2v15.1h4.6v12.6h-4.6v5.6c1.2,0.7,2.7,2,4.6,3.9c1.2,0.9,2,1.6,2.5,2.1l-3.9,12.3l-3.2-3.5
			v35.8h-11.2V55.2c-1.6,4.7-3.5,9.1-5.6,13.4c-0.2-0.9-0.5-2.5-0.7-4.6c-0.7-6.3-1.3-11-1.8-14.1c2.6-4,5-10.5,7.4-19.7h-6V17.6
			h6.7V2.5z M260.1,47.5h24.6l-0.7-6l-4.2,2.1c0-0.2-0.1-0.7-0.4-1.4c-0.2-0.5-0.5-0.8-0.7-1c-6.6,0.5-12,0.9-16.2,1.4l-3.5-8.1h4.2
			c1.2-1.6,2.6-4,4.2-7c0.7-1.2,1.3-2,1.8-2.5c-3.5-4-6.9-7.6-10.2-10.9l4.9-4.9c0.5,0.5,0.9,0.9,1.4,1.4c0.2-0.7,0.7-1.6,1.4-2.8
			c1.2-2.1,2-3.8,2.5-4.9l9.1,3.5c-0.7,1.2-1.8,2.7-3.2,4.6c-1.9,2.3-3.2,4.2-3.9,5.6l1.8,2.1l3.2-5.3l6.7,3.9V2.5h11.6v9.1l3.5-3.5
			l2.5,2.8c1.6-2.8,2.9-5.4,3.9-7.7l8.8,2.8l-7.4,9.8l2.1,2.5l3.5-6l7.4,3.5c-0.7,1.2-2,3.2-3.9,6c-1.9,3-3.3,5.3-4.2,6.7l4.6-2.1
			c0.9,2.1,2.6,6.1,4.9,11.9c-0.2-0.7,0,0,0.7,2.1l-6.7,2.5c0-0.5-0.1-0.9-0.4-1.4c-0.2-0.7-0.5-1.2-0.7-1.4c-0.9,0-2.7,0.1-5.3,0.3
			c-4.5,0.2-7.9,0.5-10.2,0.7l-2.5-7.7h3.9c0.9-1.6,2.2-3.8,3.9-6.3l1-2.1c-3-3.5-6.2-6.9-9.5-10.2c0,7.3,0.2,14.4,0.7,21.4
			c0,1.4,0.1,3.3,0.4,5.6c0,2.6,0.1,4.5,0.4,5.6h6l-1.8-4.6l10.2-1.4l2.8,6h7V58h-9.8l6,4.9c-3.3,3.1-7.6,6.6-13,10.5
			c0.9,1.2,2.1,1.8,3.5,1.8s2.5-0.7,3.2-2.1c0.5-0.7,1-1.9,1.8-3.5c0.5-0.9,0.8-1.6,1-2.1c2.6,2.1,5.5,4,8.8,5.6
			c-1.2,3.3-2.8,6.2-4.9,8.8c-2.1,3-5.4,4.6-9.8,4.6c-5.4,0-9.8-2.5-13.4-7.4c-4.2,2.6-8.9,5-14.1,7.4c-0.5-0.7-1.3-1.9-2.5-3.5
			c-1.6-2.6-2.9-4.4-3.9-5.6l6.7-2.5c-1.9-1.4-3.9-2.7-6-3.9c-1.4,4.9-4.7,10.5-9.8,16.9c-1.9-2.6-4.8-5.6-8.8-9.1
			c6.1-5.4,9.3-12.3,9.5-20.7h-4.6L260.1,47.5L260.1,47.5z M275.6,34.1l-1.8-3.9l-2.8,4.2C271,34.4,275.6,34.1,275.6,34.1z
			 M279.8,27.1c0.2,0.9,0.8,2.2,1.8,3.9c0.9,2.1,1.6,3.8,2.1,4.9c0-3-0.2-8.3-0.7-15.8c0.5,5.2,0.5,4.5,0-2.1l-8.4,11.6L279.8,27.1
			L279.8,27.1z M275.9,58v3.2c3,1.4,6.3,2.8,9.8,4.2l-4.9,9.1c2.8-1.4,5.5-2.8,8.1-4.2c-0.9-2.3-1.9-6.1-2.8-11.2
			c0,0.5-0.1,0.1-0.4-1L275.9,58L275.9,58z M298.8,64c1.4-0.7,3.3-2.1,5.6-4.2c1.2-0.7,2-1.3,2.5-1.8h-9.5c0.2,0.7,0.5,1.9,0.7,3.5
			C298.5,62.7,298.8,63.5,298.8,64L298.8,64z M310.4,33l-1-2.8c-0.7,1.2-1.4,2.1-2.1,2.8H310.4L310.4,33z"/>
		<path class="st0" d="M402.8,4.2l7.4,9.8c-4.5,2.1-11.2,4.9-20.4,8.4c-1.6,0.7-2.9,1.3-3.9,1.8v3.5c0,2.6,1.3,3.9,3.9,3.9h3.9
			c2.1,0,3.4-1.2,3.9-3.5c0-0.7,0.2-1.8,0.7-3.2c0.2-2.1,0.5-3.8,0.7-4.9c0.9,0.2,2.3,0.7,4.2,1.4c3.3,0.9,5.7,1.8,7.4,2.5
			c-0.5,3.3-1.2,6.9-2.1,10.9c-1.6,5.6-5.6,8.4-12,8.4h-12c-8,0-12-4.3-12-13v-1l-8.4,5.3l-3.2-4.9c-3.3,0.2-8.2,0.6-14.8,1
			c-9.6,0.7-16.6,1.2-21.1,1.4l-1.4-11.2h4.2C333.5,13,338,6.1,341.3,0l13.4,4.6c-1.2,1.4-3.2,4-6,7.7c-2.8,3.5-4.8,6.1-6,7.7
			l11.6-0.7c-0.7-0.7-1.6-1.9-2.8-3.5c-0.5-0.9-0.8-1.6-1-2.1l9.1-5.3c2.8,3.3,6.3,7.7,10.5,13.4c1.2,1.6,2,2.8,2.5,3.5V3.2h13.4
			v9.1c0.2,0,0.6-0.1,1-0.4C393.3,9.1,398.6,6.6,402.8,4.2L402.8,4.2z M340.9,85.8h-12V35.2h39.7v39.7c0,6.6-3.2,10.1-9.5,10.5h-4.9
			c-2.8,0.2-4.9,0.3-6.3,0.3c0-0.5-0.1-1.2-0.4-2.1c-0.7-3.5-1.4-6.2-2.1-8.1h7.4c2.3,0,3.5-1.1,3.5-3.2v-0.7h-15.5L340.9,85.8
			L340.9,85.8z M340.9,45.4v3.9h15.5v-3.9H340.9z M340.9,58.7v3.9h15.5v-3.9H340.9z M402.5,45.4l7.4,9.8c-8.4,4-16.4,7.5-23.9,10.5
			v4.6c0,2.6,1.3,3.9,3.9,3.9h3.9c2.6,0,4-1.2,4.2-3.5c0.5-2.6,0.8-5.6,1-9.1c3.3,1.4,7.1,2.7,11.6,3.9c-0.7,5.2-1.4,9-2.1,11.6
			c-0.9,5.4-4.8,8.1-11.6,8.1h-12c-8.2,0-12.3-4-12.3-11.9V45.4h13.4v8.1c1.6-0.7,2.2-0.9,1.8-0.7C393.8,49.9,398.7,47.5,402.5,45.4
			L402.5,45.4z"/>
		<path class="st0" d="M49.8,107c-0.6,1-1.6,2.7-3,5.2c-0.2,0.4-0.3,0.7-0.4,0.9h4.1v8.4h-7.6v-2.4H24.2v1.9h2.2l-0.6,2.2h7.1v5.4
			c-0.4,2.3-0.9,4.5-1.3,6.5h2.2v-10.6h6.5V122h6.5v2.6h4.3v6.1h-4.3v4.5h5v6.1h-5v7.8h-6.5v-7.8h-9.3v-4.1
			c-1.7,4.5-5.5,8.6-11.5,12.6c-1-1.4-2.5-3-4.3-4.5H6.7v2.8H0v-48h16v30.7c1.6-2.2,2.9-5.2,3.9-9.1h-2.8v-8.4h3.5l-2.2-5l6.7-1.7
			c0.3,0.4,0.8,1.3,1.5,2.6c0.6,1.3,1,2.2,1.3,2.8l-4.3,1.3h8c-0.9-2.3-1.6-4.2-2.2-5.8l6.7-1.3c0.9,1.6,1.7,3.5,2.6,5.6l-6.5,1.5
			h6.7c0.4-0.7,1-1.9,1.7-3.5c0.7-1.6,1.2-2.7,1.5-3.5L49.8,107L49.8,107z M6.7,107.5v5.4h3v-5.4C9.7,107.5,6.7,107.5,6.7,107.5z
			 M6.7,120v5.4h3V120C9.7,120,6.7,120,6.7,120z M6.7,132.3v5.6h3v-5.6H6.7z M16,143.4c2.9-1.1,5-2.7,6.5-4.8
			c-0.3-0.3-0.7-0.7-1.3-1.3c-0.6-0.4-1-0.8-1.3-1.1l-1.5,1.9l-2.4-3.9V143.4z M17.1,99.7c9.2,0,19.8-0.4,31.8-1.1l1.3,6.5
			c-9.4,0.4-20,0.8-31.8,1.1C18,103.4,17.5,101.3,17.1,99.7z M26.8,128.2h-2.6c-0.1,0.3-0.3,0.7-0.4,1.3c-0.3,0.7-0.5,1.2-0.6,1.5
			l2.6,1.9C26.2,131.5,26.5,130,26.8,128.2z M38.3,130.6v4.5h2v-4.5H38.3z"/>
		<path class="st0" d="M55.6,98.8h22.7v21H63.4v29h-7.8C55.6,148.8,55.6,98.8,55.6,98.8z M63.4,104.6v2.6H71v-2.6
			C71,104.6,63.4,104.6,63.4,104.6z M63.4,114.2H71v-2.6h-7.6C63.4,111.6,63.4,114.2,63.4,114.2z M92.8,122v19.9h1.3
			c1.7,0,2.6-0.9,2.6-2.6v-19.5H82v-21h22.5v42c0.3,5.2-2.1,7.8-7.1,7.8c-1.9,0.1-4.3,0.2-7.1,0.2c-0.2-0.6-0.4-1.6-0.7-3
			c-0.2-0.9-0.3-1.6-0.4-2.2H67.3V122L92.8,122L92.8,122z M74.9,127.6v2.8H85v-2.8H74.9z M74.9,138.4H85v-2.8H74.9V138.4z
			 M89.1,104.6v2.6h7.6v-2.6H89.1z M89.1,111.6v2.6h7.6v-2.6H89.1z"/>
		<path class="st0" d="M125.7,120.7c3.2,1,5.6,1.7,7.1,1.9c-0.3,4.6-0.6,8.2-0.9,10.8c-0.9,4.8-3.5,7.1-7.8,7.1h-3
			c-4.8,0-7.1-2.6-7.1-7.8v-13.6l-5,0.4l-0.4-8.7l5.4-0.4V97.3h8.4v12.3l6.5-0.4l0.4,8.4l-6.9,0.7v11.2c0,1.4,0.4,2.2,1.1,2.2h0.7
			c0.6,0,0.9-0.6,1.1-1.9c0.1-0.6,0.2-2.1,0.2-4.5C125.6,123.4,125.7,121.8,125.7,120.7L125.7,120.7z M159.2,138
			c0.3,6.3-2.4,9.5-8.2,9.5c-2.3,0.1-5.1,0.2-8.2,0.2c-0.1-1-0.4-2.6-0.9-4.8c-0.4-1.6-0.7-2.7-0.9-3.5c-1.7,3.3-4.1,6.7-7.1,10.2
			c-2-2-4.2-4.1-6.7-6.3c3.6-3.2,6-6.6,7.1-10.2c1.1-3.2,1.9-9,2.2-17.5v-2.6c0.1-2.3,0.2-4,0.2-5.2h-7.6v-8.4h30.9
			C159.6,119.1,159.3,131.9,159.2,138L159.2,138z M151.2,107.9h-6.3c0,3.6-0.1,5.9-0.2,6.9c-0.1,11.4-1.3,19.5-3.5,24.4h5.4
			c3,0.4,4.4-1.1,4.1-4.5C150.9,130.5,151.1,121.6,151.2,107.9L151.2,107.9z"/>
		<path class="st0" d="M216.7,136.4h-13.6c2.4,2.7,7.1,4.5,14.1,5.4c-0.6,0.9-1.4,2.4-2.4,4.5c-0.4,1-0.8,1.7-1.1,2.2
			c-7.9-1.6-13.1-4.2-15.6-7.8c-2,3.3-7.4,6.1-16,8.4c-0.1-0.3-0.4-0.7-0.9-1.3c-1.4-2.6-2.5-4.3-3.2-5.2c8.2-1.7,13.2-3.8,14.9-6.3
			h-12.8V130h14.1v-3.9c-0.4,0.4-1.1,0.8-1.9,1.1c-0.9-1.2-1.9-2.2-3-3.2v4.3h-6.9v-13.8l-1.7-3v3.5h-3.5v6.7l3.2-0.4
			c-0.1,3.2-0.1,5.9,0,8.2c-1,0.1-2.1,0.4-3.2,0.6v11c0.1,4.6-1.8,7.1-5.8,7.6c-1.4,0.1-3.2,0.2-5.4,0.2c-0.1-2.7-0.6-5.3-1.3-7.8
			h2.6c1.4,0,2.2-0.8,2.2-2.4v-6.9l-4.1,0.9l-0.9-8.9l5-0.7v-8.2H165v-8h4.3v-9.3h7.8v9.3h3.5v1.7c3.8-3.2,6.9-6.9,9.3-11.2h9.3
			c-0.6,1.3-1.2,2.4-1.9,3.5h14.5v5.4l-3,3.5h5.8v18.6h-6.9v-5l-3,3.7c-1.3-1-3.3-2.4-6.1-4.1c-0.4,0.4-1.2,1.1-2.4,1.9
			c0.7-0.6,0.6-0.4-0.4,0.4h6.3c0,1.9-0.1,3.5-0.2,4.8h14.9L216.7,136.4L216.7,136.4z M195.1,115.9l6.7,0.4c0,0.2-0.1,0.4-0.2,0.7
			c-0.1,0.7-0.3,1.2-0.4,1.3c3.2,1.7,5.3,2.9,6.5,3.5v-6.1h-18.4v6.5C192.4,120.7,194.4,118.6,195.1,115.9L195.1,115.9z
			 M192.7,106.6c-0.9,1.2-1.7,2.2-2.6,3h9.5l2.6-3H192.7z"/>
		<path class="st0" d="M268.2,123.7c-0.9,15.4-8.7,23.6-23.6,24.4c-15-0.9-22.9-9-23.8-24.4c0.7-16,8.6-24.3,23.8-24.9
			C259.3,99.7,267.2,108,268.2,123.7z M256.3,123.7c-0.3-9.9-4.2-15.1-11.9-15.6c-7.8,0.4-11.9,5.6-12.3,15.6
			c0.3,9.8,4.3,14.9,12.1,15.4C252,138.8,256,133.6,256.3,123.7L256.3,123.7z"/>
		<path class="st0" d="M316.2,147.3h-11l-18.8-29.8c-1.3-2.2-2.2-3.7-2.6-4.5c0.1,2.2,0.2,4.9,0.2,8.2v26.2h-10.2V99.5h11.7
			l18.2,29.4c1.3,1.9,2.2,3.5,2.6,4.8v-0.2c-0.1-1.6-0.2-4-0.2-7.3V99.5h10.2V147.3L316.2,147.3z"/>
		<path class="st0" d="M338.7,96.7l-11,55.6h-7.6l11-55.6C331.1,96.7,338.7,96.7,338.7,96.7z"/>
		<path class="st0" d="M388.7,123.7c-0.9,15.4-8.7,23.6-23.6,24.4c-15-0.9-22.9-9-23.8-24.4c0.7-16,8.6-24.3,23.8-24.9
			C379.8,99.7,387.7,108,388.7,123.7z M376.8,123.7c-0.3-9.9-4.2-15.1-11.9-15.6c-7.8,0.4-11.9,5.6-12.3,15.6
			c0.3,9.8,4.3,14.9,12.1,15.4C372.5,138.8,376.5,133.6,376.8,123.7L376.8,123.7z"/>
		<path class="st0" d="M428.5,108.3h-23.4v11.5h20.3v8.9h-20.3v18.6h-10.8V99.5h34.2C428.5,99.5,428.5,108.3,428.5,108.3z"/>
		<path class="st0" d="M468.1,108.3h-23.4v11.5H465v8.9h-20.3v18.6h-10.8V99.5h34.2C468.1,99.5,468.1,108.3,468.1,108.3z"/>
	</g>
</g>
</svg>
