<?xml version="1.0" encoding="utf-8"?>
<!-- Generator: Adobe Illustrator 27.0.0, SVG Export Plug-In . SVG Version: 6.00 Build 0)  -->
<svg version="1.1" id="_圖層_2" xmlns="http://www.w3.org/2000/svg" xmlns:xlink="http://www.w3.org/1999/xlink" x="0px" y="0px"
	 viewBox="0 0 469.7 152.5" style="enable-background:new 0 0 469.7 152.5;" xml:space="preserve">
<style type="text/css">
	.st0{fill:#FFFFFF;}
</style>
<g id="_圖層_1-2">
	<g>
		<path class="st0" d="M124.9,12.6c-2.3,0.5-4.8,1.1-7.4,1.8l0.3,5.3h5.3v11.2h-4.9v5.6h4.9v11.6h-4.6l0.3,6.3h6V2.1h39.4v52.4h6
			l0.4-6h-4.6V37.3h4.9l0.4-5.6h-5.3V20.4h5.6v-5.6h-5.6V3.5h17.6l-1.8,51h4.6v11.6h-30.9c6.3,1.4,15.5,3.6,27.4,6.7
			c1.6,0.5,2.8,0.8,3.5,1.1l-5.3,11.2c-5.4-1.6-13.7-4.1-25-7.4c-2.8-0.9-5-1.6-6.7-2.1l4.6-9.5h-20.4l5.6,9.5
			c-6.3,2.3-15.2,5.2-26.7,8.4c-1.9,0.7-3.3,1.2-4.2,1.4l-5.3-11.2c10.3-2.6,19.7-5.3,28.1-8.1h-28.5V54.5h4.2L106,6.3
			c4.4-0.9,9.1-2.2,14.1-3.9L124.9,12.6L124.9,12.6z M153.4,13.3h-17.6v41.1h17.6L153.4,13.3L153.4,13.3z M137.6,16.9h13.7V26h-13.7
			C137.6,26,137.6,16.9,137.6,16.9z M138,28.8h13.4v22.5H138V28.8L138,28.8z M146.4,43.2v-6h-3.5v6H146.4z"/>
		<path class="st0" d="M204,16.2h-10.5v-12h25.7v12l-7,13.7h7.4v2.8c-0.2,14.1-2.2,24.8-6,32.3c4.4,4,11.7,5.9,21.8,5.6h1.8v-3.9
			h-18.3v-9.5h18.3v-3.2h-15.8v-9.8h15.8v-3.2h-15.5v-9.5h15.5v-3.5h-18.3v-9.5h18.3v-3.5h-14.8V5.3h14.8V0h13.4v5.3h20.7v13.4h6.3
			v9.5h-6.3v13h-20.7v3.2h21.8v9.8h-21.8v3.2h23.9v9.5h-23.9v3.9c5.9,0.2,13.7,0.2,23.5,0h3.5L274,82.6c-8,0-21.1-0.2-39.4-0.7
			c-13.1,0-22.1-2.5-27.1-7.4c-3.1,3.8-6.2,7.1-9.5,10.2c-1.9-4.2-4-8.1-6.3-11.6c1.4-1.2,3.3-3.2,5.6-6c0.7-0.7,1.2-1.3,1.4-1.8
			c-3.5-5.2-6-10-7.4-14.4l9.5-5.6c1.4,3.3,2.7,6,3.9,8.1c1.4-3.8,2.1-7.7,2.1-12h-1.1l-1.1,2.1H190L204,16.2L204,16.2z M258.5,15.1
			h-8.1v3.5h8.1C258.5,18.6,258.5,15.1,258.5,15.1z M250.4,28.1v3.5h8.1v-3.5H250.4z"/>
		<path class="st0" d="M359,32.7c0.9,0.5,3.2,1.4,6.7,2.8c0.9,0.5,1.5,0.7,1.8,0.7c-0.2,1.9-0.5,4.1-0.7,6.7c0-0.5-0.1,0-0.4,1.4
			c-0.9,6.1-4.3,8.9-10.2,8.4H352c-4.9,0-7.7-2-8.4-6l-6.7,4.9c-0.7-0.9-2.1-2.7-4.2-5.3c-1.2-1.4-2.1-2.6-2.8-3.5
			c-0.9,3.3-3.2,6.7-6.7,10.2h8.1v3.5h34.1v10.2H340c5.4,3.5,14.8,6.1,28.1,7.7c-2.4,3.3-4.5,6.6-6.3,9.8
			c-13.4-2.8-23.5-6.7-30.6-11.6v11.9h-13.4V72.8c-6.6,4.4-16.8,8.4-30.6,11.9c-0.9-1.6-2.5-4.2-4.6-7.7c-0.7-1.2-1.3-2-1.8-2.5
			c12.6-1.6,21.9-4.2,27.8-7.7h-25V56.6h34.1v-3.5h2.5c-1.4-1.4-3.5-3-6.3-4.9v2.1c-11.7,0.9-21.3,1.9-28.8,2.8l-2.1-10.2
			c1.2-0.2,3-0.3,5.6-0.3c2.3-0.2,4.1-0.3,5.3-0.3v-8.1h-8.8v-9.5h4.6c-2.8-2.6-5.6-5-8.4-7.4c5.6-4.9,9.8-10.4,12.6-16.5l13.7,0.7
			c-0.7,1.6-1.5,3.2-2.5,4.6h20v8.1c2.6-3.7,5-8.3,7.4-13.7l13,1c-0.2,0.2-0.5,0.7-0.7,1.4c-0.2,0.7-0.6,1.8-1,3.2H365v10.2h-11.2
			c1.2,1.6,2.2,3.4,3.2,5.3l-12.3,1.4c-0.5-0.9-1.3-2.2-2.5-3.9c-0.5-1.2-0.9-2.1-1.4-2.8h-2.5c-1.6,2.8-3.5,5.4-5.6,7.7
			c-1.6-0.9-3.9-2-6.7-3.2c-1.9-0.9-3.3-1.6-4.2-2.1c0.7-0.9,1.3-1.8,1.8-2.5h-9.8c1.2,1.6,2.2,3.4,3.2,5.3l-12.3,1.4
			c-0.9-2.1-2.1-4.3-3.5-6.7h-2.1c-1.6,2.1-4.2,4.9-7.7,8.4h23.2v9.5h-7.7v7c3,0,5.6-0.2,7.7-0.7c0,1.6-0.1,3.4-0.4,5.3
			c3.3-3,4.8-6.9,4.6-11.6v-9.5h36.5v16.5c0,0.9,0.5,1.4,1.4,1.4s1.4-0.6,1.4-1.8c0.2-0.5,0.5-2.5,0.7-6
			C358.9,33.9,359,33.1,359,32.7L359,32.7z M336.2,35.5c2.8,3.3,5,5.8,6.7,7.4v-8.8h-12.3v5.3L336.2,35.5L336.2,35.5z"/>
		<path class="st0" d="M18.7,151.8H9.2v-21.4c-0.9,1.1-2.4,2.5-4.4,4.1c-0.8,0.6-1.3,1.1-1.6,1.4c-0.6-2.1-1.7-5.4-3.2-9.9
			c6-5.2,10.4-10.4,13.1-15.7H0.9V102H17c0.1-0.8,0.5-1.9,1.1-3.5c0.3-0.9,0.5-1.6,0.7-2.1l10.6,0.7c-0.5,1.5-1.1,3.2-1.8,4.8H56
			v8.3H24c-0.3,0.6-0.8,1.4-1.4,2.3l-0.2,0.5h28.8v30.2c0.5,5.7-2.5,8.4-8.8,8.3c-2.8,0.1-6.2,0.2-10.4,0.2
			c-0.6-3.1-1.3-5.6-2.1-7.6h7.6c2.8,0.3,4.2-0.8,4.2-3.2H18.7V151.8L18.7,151.8z M18.7,120.9v3h23.1v-3H18.7z M18.7,131v2.8h23.1
			V131H18.7z"/>
		<path class="st0" d="M65.2,112.1c2.2,2,5,4.8,8.5,8.3l-7.1,6c-0.8-0.8-1.9-2.1-3.5-3.9c-2-2.2-3.5-3.8-4.4-4.8
			C58.8,117.7,65.2,112.1,65.2,112.1z M63.6,128.3l8.3,2.3c-1.1,5.2-2.6,12.1-4.6,20.5L59,149C61.2,140.2,62.7,133.3,63.6,128.3
			L63.6,128.3z M67.1,97.1c0.8,0.6,1.8,1.5,3.2,2.8c2.6,2.5,4.4,4.2,5.5,5.3l-6.9,6.2c-0.8-0.8-2.1-2.2-3.9-4.2
			c-1.8-2-3.2-3.5-4.2-4.4L67.1,97.1z M70.8,149.9v-6.7h3V126h38.7v17.3h2.8v6.7H70.8L70.8,149.9z M76.3,123.9V98.5h33.9v25.3
			C110.2,123.9,76.3,123.9,76.3,123.9z M82.3,132.9v10.4H85v-10.4H82.3z M84.6,105.4v6.4c2.9-1.8,4.8-4,5.5-6.4H84.6z M84.6,117
			h17.1v-5.1l-3.7,4.8c-0.5-0.5-1.2-1.2-2.3-2.1c-1.1-0.8-1.9-1.4-2.5-1.8c-0.9,1.4-2.3,2.7-4.2,3.9c-2-2-3.5-3.4-4.4-4.2L84.6,117
			L84.6,117z M91.7,132.9v10.4h2.8v-10.4H91.7z M101.6,105.4H97c-0.2,0.9-0.4,1.6-0.7,2.1c2,1.5,3.8,2.8,5.3,3.9V105.4z
			 M104.2,132.9h-3v10.4h3V132.9z"/>
		<path class="st0" d="M153.7,96.9v3.9h20.1v7.4h-8.1v3h7.6v7.1h-7.6v8.3h-29.3v-8.3h-5.8v5.1c0,8.9-0.8,16.1-2.3,21.4
			c5.1-0.6,9.7-1.4,13.8-2.3c-2.8-1.8-5.1-4.1-7.1-6.9h-3.7v-6.9h37.8v7.1c-2.5,2.5-5.1,4.7-7.8,6.7c3.7,0.8,8,1.1,12.9,1.1
			c-1.4,2.5-2.6,5.1-3.7,7.8c-7.8-0.6-14.3-2.1-19.4-4.4c-5.1,2-11.5,3.7-19.4,5.1c-1.4-3.1-2.5-5.4-3.5-6.9
			c-0.3,0.5-0.7,1.3-1.2,2.5c-0.6,2-1.2,3.5-1.6,4.6c-2.2-1.8-4.7-3.9-7.6-6.2c2.9-5.4,4.3-13.2,4.2-23.5v-21.9H144v-3.9L153.7,96.9
			L153.7,96.9z M130.7,108.2v3h5.8v-3H130.7z M158.3,135.6h-13.6c1.8,1.4,4.1,2.7,6.7,3.9C154.2,138.3,156.5,137,158.3,135.6
			L158.3,135.6z M145,108.2v3h12.2v-3H145z M145,118.3v2.5h12.2v-2.5H145z"/>
		<path class="st0" d="M231.2,139.6c0,7.4-3.4,11.1-10.1,11.3c-2.8,0.1-6.3,0.2-10.6,0.2c-0.1-0.6-0.3-1.5-0.5-2.8
			c-0.3-1.8-0.8-3.9-1.4-6.2c1.8,0.1,4.6,0.2,8.3,0.2c3.4,0.3,5.1-1.3,5.1-4.8v-9.7c0.1-6.4,0.2-11,0.2-13.6h-8.1
			c-0.9,2.5-2,4.8-3.2,7.1c-2.3-1.2-4.7-2.5-7.1-3.9v33.4h-9v-3.2h-6.7v3.5h-9v-45.6h6.4c0.8-3.1,1.3-5.9,1.6-8.5l10.1,1.2
			c-0.1,0.5-0.3,1.1-0.5,1.8c-0.3,1.7-0.8,3.5-1.4,5.5h8.3v9.7c3.1-6.6,5.4-12.8,6.9-18.4l9.2,2.1c-0.1,0.8-0.5,1.8-0.9,3.2
			c-0.5,1.5-0.9,2.7-1.1,3.5h14.1C231.5,122.3,231.3,133.7,231.2,139.6L231.2,139.6z M188.1,114.2v8.1h6.7v-8.1H188.1z M188.1,131
			v8.1h6.7V131L188.1,131L188.1,131z M212.9,120.4c1.4,1.7,3.4,4.3,6,7.8c1.1,1.5,1.9,2.7,2.5,3.5l-7.8,5.1
			c-3.2-4.9-5.9-8.8-8.1-11.8L212.9,120.4L212.9,120.4z"/>
		<path class="st0" d="M258.6,100.4h11.8v-3.7h8.3v3.7h12.5v5.8h-12.5v1.8h11.3v5.3h-11.3v1.8H292v5.8h-34.3v-5.8h12.7v-1.8h-11.1
			V108h11.1v-1.8h-11.8V102c-0.3,1.1-0.8,2.7-1.4,4.8c-0.9,3.2-1.6,5.7-2.1,7.4l-4.1-1.6v3.5h5.5v7.6H251v5.3l2.5-2.3l2.1,2.1
			c1.7,2,2.9,3.5,3.7,4.4v-10.4h30.4V143c0.3,5.4-2.1,8.1-7.4,8.3h-3c-1.8,0.1-3.5,0.2-5.1,0.2c-0.1-0.9-0.5-2.5-1.1-4.6
			c-0.1-0.8-0.3-1.3-0.5-1.6h6c1.7,0,2.6-0.7,2.8-2.1h-13.8v8.5h-8.3v-17.1l-4.8,4.1c-0.1-0.1-0.5-0.5-0.9-0.9
			c-1.1-1.5-1.9-2.7-2.5-3.5v17.3h-7.6v-15.2c-1.5,3.4-3.3,6.3-5.3,8.8c-0.5-2.5-1.2-5.8-2.3-9.9c2.8-3.1,5-7,6.7-11.8h-5.8v-7.6
			h6.7v-3.5l-4.8,1.6c-0.3-1.5-0.8-3.6-1.4-6.2c-0.6-2.8-1.1-4.8-1.4-6.2l4.8-1.4c0.3,1.2,0.8,3.1,1.4,5.5c0.6,2.3,1.1,4.2,1.4,5.5
			V97h7.6v13.8c0.6-1.8,1.4-4.4,2.3-7.6c0.3-1.2,0.5-2.2,0.7-2.8l4.6,1.4L258.6,100.4L258.6,100.4z M267.6,128.7v2.1h14.1v-2.1
			H267.6z M267.6,135.9v2.3h14.1v-2.3H267.6z"/>
		<path class="st0" d="M297.3,151.5V125H321v26.5h-8.3V149h-7.1v2.5H297.3z M302.1,99.4h42.2v21.9h-42.2V99.4z M305.6,132.6v9h7.1
			v-9H305.6z M311.8,113.5h22.8v-6h-22.8V113.5z M324.7,151.5V125h24.2v26.3h-8.3V149h-7.4v2.5L324.7,151.5L324.7,151.5z
			 M333.3,132.6v9h7.4v-9H333.3z"/>
		<path class="st0" d="M362.1,107.1h-6.9v-7.8H372v7.8l-4.6,9h4.8v1.8c-0.1,9.2-1.5,16.3-3.9,21.2c2.9,2.6,7.7,3.8,14.3,3.7h1.1
			v-2.5h-12V134h12v-2.1h-10.4v-6.4h10.4v-2.1h-10.1v-6.2h10.1v-2.3h-12v-6.2h12v-2.3h-9.7v-6.4h9.7v-3.5h8.8v3.5h13.6v8.8h4.1v6.2
			h-4.1v8.5h-13.6v2.1h14.3v6.5h-14.3v2.1h15.7v6.2h-15.7v2.5c3.8,0.1,9,0.1,15.4,0h2.3l-2.3,7.8c-5.2,0-13.8-0.2-25.8-0.5
			c-8.6,0-14.5-1.6-17.8-4.8c-2,2.5-4.1,4.7-6.2,6.7c-1.2-2.8-2.6-5.3-4.1-7.6c0.9-0.8,2.1-2.1,3.7-3.9c0.5-0.5,0.8-0.8,0.9-1.1
			c-2.3-3.4-3.9-6.5-4.8-9.4l6.2-3.7c0.9,2.1,1.8,3.9,2.5,5.3c0.9-2.5,1.4-5.1,1.4-7.8h-0.7l-0.7,1.4h-9.7L362.1,107.1L362.1,107.1z
			 M397.8,106.4h-5.3v2.3h5.3V106.4z M392.5,114.9v2.3h5.3v-2.3H392.5z"/>
		<path class="st0" d="M463.7,117.9c0.6,0.3,2.1,0.9,4.4,1.8c0.6,0.3,1,0.5,1.1,0.5c-0.1,1.2-0.3,2.7-0.5,4.4c0-0.3-0.1,0-0.2,0.9
			c-0.6,4-2.8,5.8-6.7,5.5h-2.8c-3.2,0-5.1-1.3-5.5-3.9l-4.4,3.2c-0.5-0.6-1.4-1.8-2.8-3.5c-0.8-0.9-1.4-1.7-1.8-2.3
			c-0.6,2.2-2.1,4.4-4.4,6.7h5.3v2.3h22.4v6.7h-16.6c3.5,2.3,9.7,4,18.4,5.1c-1.5,2.1-2.9,4.3-4.1,6.4c-8.8-1.8-15.4-4.4-20-7.6v7.8
			h-8.8v-7.8c-4.3,2.9-11,5.5-20,7.8c-0.6-1.1-1.6-2.8-3-5.1c-0.5-0.8-0.9-1.3-1.1-1.6c8.3-1.1,14.4-2.8,18.2-5.1h-16.4v-6.7h22.4
			v-2.3h1.6c-0.9-0.9-2.3-2-4.1-3.2v1.4c-7.7,0.6-14,1.2-18.9,1.8l-1.4-6.7c0.8-0.2,2-0.2,3.7-0.2c1.5-0.2,2.7-0.2,3.5-0.2v-5.3
			h-5.8v-6.2h3c-1.8-1.7-3.7-3.3-5.5-4.8c3.7-3.2,6.5-6.8,8.3-10.8l9,0.5c-0.5,1.1-1,2.1-1.6,3h13.1v5.3c1.7-2.5,3.3-5.4,4.8-9
			l8.5,0.7c-0.1,0.2-0.3,0.5-0.5,0.9s-0.4,1.2-0.7,2.1h13.8v6.7h-7.4c0.8,1.1,1.5,2.2,2.1,3.5l-8.1,0.9c-0.3-0.6-0.9-1.5-1.6-2.5
			c-0.3-0.8-0.6-1.4-0.9-1.8h-1.6c-1.1,1.8-2.3,3.5-3.7,5.1c-1.1-0.6-2.5-1.3-4.4-2.1c-1.2-0.6-2.1-1.1-2.8-1.4
			c0.5-0.6,0.8-1.2,1.1-1.6H434c0.8,1.1,1.5,2.2,2.1,3.5l-8.1,0.9c-0.6-1.4-1.4-2.8-2.3-4.4h-1.4c-1.1,1.4-2.8,3.2-5.1,5.5h15.2v6.2
			h-5.1v4.6c2,0,3.7-0.2,5.1-0.5c0,1.1-0.1,2.2-0.2,3.5c2.1-2,3.1-4.5,3-7.6v-6.2h24v10.8c0,0.6,0.3,0.9,0.9,0.9s0.9-0.4,0.9-1.2
			c0.1-0.3,0.3-1.6,0.5-3.9C463.7,118.6,463.7,118.2,463.7,117.9L463.7,117.9z M448.7,119.7c1.8,2.2,3.3,3.8,4.4,4.8v-5.8H445v3.5
			C445,122.3,448.7,119.7,448.7,119.7z"/>
	</g>
</g>
</svg>
