<?xml version="1.0" encoding="utf-8"?>
<!-- Generator: Adobe Illustrator 27.0.0, SVG Export Plug-In . SVG Version: 6.00 Build 0)  -->
<svg version="1.1" id="_圖層_2" xmlns="http://www.w3.org/2000/svg" xmlns:xlink="http://www.w3.org/1999/xlink" x="0px" y="0px"
	 viewBox="0 0 625.3 193.4" style="enable-background:new 0 0 625.3 193.4;" xml:space="preserve">
<style type="text/css">
	.st0{fill:#19AF88;}
</style>
<g id="_圖層_1-2">
	<g>
		<path class="st0" d="M139.9,13l2.1,1.4c1.9-3.3,4.2-8.1,7-14.4l12.3,3.9c-0.9,1.4-2.4,3.6-4.2,6.7c-3.1,4.4-5.3,7.6-6.7,9.5
			c1.4,1.2,2.8,2.1,4.2,2.8c0.7-0.9,1.5-2.3,2.5-4.2c1.6-2.3,2.8-4.1,3.5-5.3l10.5,5.3c-2.6,3.8-7.1,10.3-13.7,19.7l6.7-2.5
			l4.6,13.4l6.7-6.3c3.3,1.9,6.9,4.3,10.9,7.4l-7.4,8.1c-2.1-1.6-5-3.9-8.8-6.7c0.5,0.5,0.1,0.2-1.1-0.7c0.2,0.5,0.6,1.2,1.1,2.1
			c0.2,0.9,0.5,1.6,0.7,2.1l-9.1,2.8v-0.7c-0.2-1.2-0.7-2.5-1.4-3.9h-2.8V85h-10.9V54.1h-1.1c-1.2,0.2-2.6,0.5-4.2,0.7
			c-1.2,0.2-2.1,0.3-2.8,0.3L134.9,45c0.7,0,1.6-0.1,2.8-0.3h2.5c0.5-0.7,1.2-1.8,2.1-3.2c2.6-4,4.7-7.1,6.3-9.5l-15.5-10.9
			L139.9,13L139.9,13z M145.2,60.8c-0.2,5.4-0.8,12-1.8,19.7l-8.4-1.1c0.9-4.7,1.8-11.1,2.5-19.3L145.2,60.8L145.2,60.8z
			 M156.4,39.7c-0.7,0.7-1.4,1.6-2.1,2.8c-0.5,0.7-0.8,1.2-1.1,1.4l4.2-0.3L156.4,39.7L156.4,39.7z M165.9,58.3
			c1.2,3.8,2.5,8.6,3.9,14.4c0.5,1.4,0.8,2.5,1.1,3.2l-8.1,1.8c-0.5-2.1-1.3-6-2.5-11.6c-0.7-2.8-1.2-4.9-1.4-6.3L165.9,58.3
			L165.9,58.3z M170.1,29.5L175,0.7h12.6L187,5.3H214l-2.8,27.1h8.4v10.2h-6l7,8.4c-3.8,3-7.6,5.9-11.6,8.4
			c2.6,3.3,6.6,6.4,11.9,9.5c-0.7,1.2-1.9,2.9-3.5,5.3c-1.4,2.3-2.6,4.1-3.5,5.3c-6.1-4.9-10.8-10-14.1-15.1v9.1
			c0,6.6-3.1,10.1-9.1,10.5c-1.4,0-3.3,0.1-5.6,0.3h-5.6c-1.2-4-2.1-7.6-2.8-10.9h7c2.8,0.2,4.1-0.9,3.9-3.5v-3.9
			c-0.9,0.7-2.6,1.6-4.9,2.8c-4,2.6-7.3,4.5-9.8,5.6l-4.6-10.5c4.4-2.1,10.9-5.4,19.3-9.8V42.5h-20.4V32.3h31.3l0.4-4.6h-15.5v1.8
			L170.1,29.5L170.1,29.5z M200.4,15.1h-14.8l-0.7,3.5H200L200.4,15.1L200.4,15.1z M213.4,42.5H200c1.2,3,2.2,5.7,3.2,8.1
			c1.2-0.9,2.9-2.3,5.3-4.2C210.5,44.8,212.2,43.5,213.4,42.5L213.4,42.5z"/>
		<path class="st0" d="M233.4,24.2c0.9,0.7,2.3,1.8,4.2,3.2c2.3,1.6,5.6,4.3,9.8,8.1l-9.1,10.2c-1.4-1.4-3.6-3.4-6.7-6
			c-3.1-2.8-5.4-4.8-7-6L233.4,24.2L233.4,24.2z M232.7,49.6l13.4,3.9c-3.3,12.6-5.9,22.9-7.7,30.6L225,80.5
			C227.8,71.6,230.4,61.3,232.7,49.6z M234.8,0.7c5.6,4.2,10.3,7.7,14.1,10.5l-9.1,10.9c-2.4-2.3-6-5.5-10.9-9.5
			c-1.2-1.2-2.1-2-2.8-2.5L234.8,0.7z M260.8,0l15.1,0.7c-0.2,0.5-0.6,1.2-1,2.1c-0.5,0.7-1,1.9-1.8,3.5h35.1v11.2h-41.8
			c-0.7,1.2-1.6,2.3-2.8,3.5h41.1c-0.2,6.8-0.4,13.6-0.4,20.4h6v11.2H304v8.8h5.3v11.3h-6c-0.5,7.5-5.2,11.1-14.1,10.9L273.1,84
			c-0.9-3.1-2.1-6.3-3.5-9.8c4.9,0.2,10,0.3,15.1,0.3c2.8,0,4.6-0.6,5.3-1.8h-28.8l-0.4,2.5h-13.7l2.8-22.5h-4.6V41.5h6l1.1-9.5
			c-2.4-3-5-6.1-8.1-9.1C251.3,17,256.8,9.4,260.8,0L260.8,0z M274.9,61.5l-5.6-4.2l4.6-4.6h-10.2l-1,8.8H274.9L274.9,61.5z
			 M275.6,41.5c-0.7-0.7-1.8-1.5-3.2-2.5c-1.2-0.9-2.1-1.6-2.8-2.1l4.9-4.6h-8.8l-1,9.1H275.6L275.6,41.5z M286.8,56.9l-4.6,4.6h8.8
			v-3.9c0.2-2.1,0.4-3.8,0.4-4.9h-11.6C279.8,52.7,286.8,56.9,286.8,56.9z M287.5,36.5l-4.6,4.9h8.4c0-3.3,0.1-6.3,0.4-9.1h-10.9
			C280.8,32.3,287.5,36.6,287.5,36.5z"/>
		<path class="st0" d="M316.3,30.2h12v-7.4c-0.7,0.7-2,1.9-3.9,3.5c-1.6,1.4-2.9,2.6-3.9,3.5c-0.5-0.7-1-2-1.8-3.9
			c-2.1-4.2-3.5-6.9-4.2-8.1c7.7-5.1,13.2-10.9,16.5-17.2l14.4,0.7c-1.4,2.3-2.9,4.6-4.6,6.7h56.6V20h-7.4v10.2h9.5v11.2h-9.5V52
			h7.4v11.6h-78V52h8.8V41.5h-12L316.3,30.2L316.3,30.2z M323.7,65.4l13.4,1.8l-7.4,17.2c-2.4-0.5-5.3-0.9-8.8-1.4
			c-2.1-0.2-3.8-0.5-4.9-0.7c0.7-1.4,1.8-3.8,3.2-7C321.5,70.8,323,67.5,323.7,65.4L323.7,65.4z M351.8,66.4
			c1.4,5.2,2.8,10.3,4.2,15.5L342,83c-0.5-2.8-1.4-7.5-2.8-14.1c-0.2-0.7-0.4-1.3-0.4-1.8L351.8,66.4L351.8,66.4z M339.9,20v10.2
			h4.9V20H339.9z M339.9,41.5V52h4.9V41.5H339.9z M356.4,20v10.2h5.3V20C361.7,20,356.4,20,356.4,20z M356.4,41.5V52h5.3V41.5H356.4
			z M371.2,66.1l6.3,15.1l-14.1,1.4c-0.7-2.3-1.8-5.5-3.2-9.5c-0.9-2.6-1.6-4.6-2.1-6L371.2,66.1z M373.3,20v10.2h5.3V20H373.3z
			 M373.3,41.5V52h5.3V41.5H373.3z M391.2,65c0.9,1.6,2.1,4,3.5,7c2.1,3.8,3.8,6.8,4.9,9.1l-14.1,2.1l-8.1-16.5L391.2,65L391.2,65z"
			/>
		<path class="st0" d="M405.6,35.2V21.4h7V0.3h13.7v21.1h6.7v13.7h-6.7v23.5l7-1.4c0,3.5,0.2,8.1,0.7,13.7c-0.5,0.2-1.3,0.5-2.5,0.7
			c-10.8,2.3-19.1,4.6-25,6.7l-2.1-14.8l8.1-1.8V35.1L405.6,35.2L405.6,35.2z M434.1,85.1l-2.8-12.3l4.6-0.7V3.5h49.9v46.8h-2.1
			l6.3,8.1c-0.9,0.5-2.1,1.2-3.5,2.1c-1.9,1.2-4.6,2.7-8.1,4.6c3.5,2.1,7.7,4.1,12.6,6c-1.9,3.1-4.1,7-6.7,11.9
			c-9.1-3.8-16.3-8.4-21.4-14.1v9.5C451.7,80.2,442.1,82.5,434.1,85.1L434.1,85.1z M448.9,15.8v5.3h23.9v-5.3H448.9z M448.9,38h23.9
			v-5.3h-23.9V38z M461.1,66.4c-3.3-4.5-6-9.8-8.1-16.2h-4.2v19c1.2-0.2,2.8-0.6,4.9-1.1C455.2,68,457.6,67.4,461.1,66.4L461.1,66.4
			z M469.9,57.3c2.8-2.1,5.7-4.5,8.8-7h-12.6C467.3,52.8,468.5,55.2,469.9,57.3L469.9,57.3z"/>
		<path class="st0" d="M8.8,131.5c0.5,0.2,1.1,0.7,1.8,1.4c5.4,4.2,9.7,7.7,13,10.5l-9.5,10.9c-4.4-4.4-9.1-8.8-14.1-13L8.8,131.5
			L8.8,131.5z M9.8,157.2l13.4,3.9c-1.9,5.9-3.5,11.9-4.9,18.3c9.8-11.9,14.5-30,14.1-54.1h-7v-13h52v13.4l-7.4,9.8h13v13
			c-3.3,9.4-7.2,16.9-11.6,22.5c4.2,2.8,9.1,5.8,14.8,8.8c-1.9,2.3-4.3,6-7.4,10.9c0.2-0.5,0-0.1-0.7,1.1c-6.3-4-11.8-7.5-16.5-10.5
			c-5.6,3.8-12.4,7.6-20.4,11.6c-1.9-3.5-4.5-7.1-7.7-10.9c-0.5,0.5-1.2,1.3-2.1,2.5c-0.7,1.2-2.5,3.5-5.3,7
			c-3-4.9-5.7-8.7-8.1-11.2l-3.2,11.6l-13.4-4.6C5.2,175.8,8,165.9,9.8,157.2L9.8,157.2z M10.9,108.7c4.9,3.5,9.7,7.2,14.4,10.9
			l-9.5,10.5c-1.6-1.4-4-3.5-7-6.3c-2.8-2.3-5-4.2-6.7-5.6C2.1,118.2,10.9,108.7,10.9,108.7z M42.5,159.3
			c-1.6,7.7-4.5,14.9-8.4,21.4c6.6-2.8,12.3-5.9,17.2-9.1C47.8,167.9,44.9,163.8,42.5,159.3L42.5,159.3z M45.7,125.2
			c0,3.5-0.1,6.9-0.3,10.2h10.2l7-10.2H45.7z M68.5,148.1H50.2c2.6,5.4,6.1,10.2,10.5,14.4C64.1,158.3,66.6,153.5,68.5,148.1
			L68.5,148.1z"/>
		<path class="st0" d="M91.4,124.5v-11.9h42.9v11.9h-3.2V192h-12.3v-11.6c-2.3,0.2-5.5,0.7-9.5,1.4c-6.6,0.5-12.3,1.2-17.2,2.1
			l-2.5-12.3l6-0.7v-46.4L91.4,124.5L91.4,124.5z M107.6,124.5v7.7h11.2v-7.7C118.8,124.5,107.6,124.5,107.6,124.5z M107.6,142.4
			v8.1h11.2v-8.1H107.6z M107.6,169.5l11.2-1.4v-7.4h-11.2V169.5L107.6,169.5z M147.6,128.4c1.9,11.9,4,20.9,6.3,26.7
			c2.6-5.1,4.6-14.2,6-27.1h-24.2v-13h37.3v12.7c-1.9,18.3-5.5,32-10.9,41.1c3.8,3.8,8.4,7.4,14.1,10.9c-1.2,1.6-2.8,4.3-4.9,8.1
			c-1.2,1.9-2,3.3-2.5,4.2c-5.6-4.2-10.4-8.2-14.4-11.9c-5.6,5.4-10.5,9.8-14.8,13.4c-2.4-4.4-4.9-8.4-7.7-11.9
			c5.9-4.2,10.5-8.4,14.1-12.6c-4.9-9.1-8.4-21.7-10.5-37.6L147.6,128.4L147.6,128.4z"/>
		<path class="st0" d="M182.8,129.4h32c0.5-10.3,0.7-17.2,0.7-20.7h15.8c-0.5,8.4-0.7,15.3-0.7,20.7h32.3v14.1h-32.3
			c3.8,17.8,15.3,29.3,34.8,34.4c-0.9,1.2-2.4,2.8-4.2,4.9c-3,3.8-5.2,6.6-6.3,8.4c-15.9-6.1-26.6-16.2-32-30.2
			c-4,12.2-15,22.6-33,31.3c-3.1-4.9-6.3-9.1-9.8-12.6c20.6-8,31.9-20,33.7-36.2h-30.9L182.8,129.4L182.8,129.4z"/>
		<path class="st0" d="M300.9,108l17.6,1.1c-0.5,1.2-1.2,3.3-2.1,6.3c-0.2,1.2-0.5,2-0.7,2.5h33V192h-14.8v-4.9h-42.2v4.9H277v-74.2
			h21.8C299.9,114.1,300.6,110.8,300.9,108z M333.9,130.1h-42.2v7.7h42.2V130.1z M291.7,149.1v7.4h42.2v-7.4H291.7z M291.7,167.7
			v7.7h42.2v-7.7H291.7z"/>
		<path class="st0" d="M382.4,129.4c0.5,0.2,1.3,0.7,2.5,1.4c1.2,0.7,2.9,1.9,5.3,3.5c0.2-0.5,0.6-1.3,1-2.5
			c0.7-2.1,1.2-3.6,1.4-4.6h-12.3c-4.2,7-9.5,13.7-15.8,20c-0.7-4.4-1.9-9.4-3.5-14.8c6.6-6.3,11.4-14.6,14.4-25l13.4,2.1
			c-0.9,1.9-1.8,3.9-2.5,6h18.3V128h6.7v-8.1c0.2-5.2,0.4-9,0.4-11.6h13c0,2.1-0.1,5.4-0.4,9.8c0,4.4-0.1,7.7-0.4,9.8h19V140h-15.1
			c2.8,8.4,8.9,14.8,18.3,19c-3,3.8-5.9,7.5-8.4,11.2c-9.4-6.1-15.6-13.1-18.6-21.1c-2.6,8.7-8.7,16.3-18.3,22.9
			c-1.9-2.3-4.7-5.6-8.4-9.8l-0.4-0.7c10.8-6.6,16.8-13.7,17.9-21.4h-7v-5.6c-4.7,14.8-14.4,26.9-29.2,36.6l9.5,2.5
			c-0.7,1.6-1.8,4.1-3.2,7.4c-1.4,3-3.2,6.9-5.3,11.6c-3.3-0.9-7.9-2.2-13.7-3.9c0.7-1.6,2-4,3.9-7c1.9-3.8,3.4-6.8,4.6-9.1
			c-0.9-0.9-2.4-2.5-4.2-4.6c-2.1-2.1-3.6-3.6-4.6-4.6c4.9-2.3,9.1-4.9,12.6-7.7c-0.7-0.7-1.9-1.6-3.5-2.8c-1.6-1.4-2.9-2.3-3.9-2.8
			l7.7-8.4c0.9,0.7,2.5,1.6,4.6,2.8c1.9,1.2,3.3,2.1,4.2,2.8c0.2-0.5,0.7-1.1,1.4-1.8c0.5-0.5,0.8-0.9,1-1.4
			c-2.8-2.1-5.9-4.2-9.1-6.3L382.4,129.4L382.4,129.4z M397.2,172.3c1.9,5.9,3.3,11.5,4.2,16.9l-14.1,1.4c-0.7-5.2-1.9-11-3.5-17.6
			L397.2,172.3L397.2,172.3z M416.5,171.2c0.9,2.6,2.3,6.2,4.2,10.9c0.9,2.6,1.6,4.4,2.1,5.6l-14.1,2.1c-1.2-4.2-3-10-5.6-17.2
			L416.5,171.2L416.5,171.2z M435.5,169.1c3.3,6.1,6.4,12.2,9.5,18.3l-13.7,3.5c-2.4-5.6-5.2-11.8-8.4-18.6L435.5,169.1L435.5,169.1
			z M434.1,111.1c3.3,4.2,5.9,7.8,7.7,10.9l-10.2,5.6c-1.6-2.8-4-6.7-7-11.6C424.6,116.1,434.1,111.1,434.1,111.1z"/>
		<path class="st0" d="M527.2,110.1l7.4,9.8c-4.5,2.1-11.2,4.9-20.4,8.4c-1.6,0.7-2.9,1.3-3.9,1.8v3.5c0,2.6,1.3,3.9,3.9,3.9h3.9
			c2.1,0,3.4-1.2,3.9-3.5c0-0.7,0.2-1.8,0.7-3.2c0.2-2.1,0.5-3.8,0.7-4.9c0.9,0.2,2.3,0.7,4.2,1.4c3.3,0.9,5.7,1.8,7.4,2.5
			c-0.5,3.3-1.2,6.9-2.1,10.9c-1.6,5.6-5.6,8.4-12,8.4h-12c-8,0-12-4.3-12-13v-1.1l-8.4,5.3l-3.2-4.9c-3.3,0.2-8.2,0.6-14.8,1.1
			c-9.6,0.7-16.6,1.2-21.1,1.4l-1.4-11.2h4.2c5.6-7.7,10.1-14.6,13.4-20.7l13.4,4.6c-1.2,1.4-3.2,4-6,7.7c-2.8,3.5-4.8,6.1-6,7.7
			l11.6-0.7c-0.7-0.7-1.6-1.9-2.8-3.5c-0.5-0.9-0.8-1.6-1-2.1l9.1-5.3c2.8,3.3,6.3,7.7,10.5,13.4c1.2,1.6,2,2.8,2.5,3.5v-22.1h13.4
			v9.1c0.2,0,0.6-0.1,1-0.3C517.7,115.1,523,112.5,527.2,110.1L527.2,110.1z M465.4,191.6h-12V141h39.7v39.7
			c0,6.6-3.2,10.1-9.5,10.5h-4.9c-2.8,0.2-4.9,0.4-6.3,0.4c0-0.5-0.1-1.2-0.4-2.1c-0.7-3.5-1.4-6.2-2.1-8.1h7.4
			c2.3,0,3.5-1.1,3.5-3.2v-0.7h-15.5L465.4,191.6L465.4,191.6z M465.4,151.2v3.9h15.5v-3.9H465.4z M465.4,164.6v3.9h15.5v-3.9H465.4
			z M526.9,151.2l7.4,9.8c-8.4,4-16.4,7.5-23.9,10.5v4.6c0,2.6,1.3,3.9,3.9,3.9h3.9c2.6,0,4-1.2,4.2-3.5c0.5-2.6,0.8-5.6,1-9.1
			c3.3,1.4,7.2,2.7,11.6,3.9c-0.7,5.2-1.4,9-2.1,11.6c-0.9,5.4-4.8,8.1-11.6,8.1h-12c-8.2,0-12.3-4-12.3-11.9v-27.8h13.4v8.1
			c1.6-0.7,2.2-0.9,1.8-0.7C518.2,155.8,523.2,153.3,526.9,151.2L526.9,151.2z"/>
		<path class="st0" d="M547.6,146.3h70.3v25h-28.1v2.5h29.9v7h-29.9v1.8h35.5v7.4h-85.1v-7.4h35.5v-1.8h-29.9v-7h29.9v-2.5h-28.1
			V146.3L547.6,146.3z M540.6,143.8v-7.4h84.4v7.4H540.6z M547.3,134.3v-24.2h71v24.2H547.3z M561.3,117.5v2.5h42.9v-2.5H561.3z
			 M561.3,127.7h42.9v-2.5h-42.9V127.7z M561.3,152.6v3.2h14.4v-3.2H561.3z M561.3,161.8v3.2h14.4v-3.2H561.3z M604.2,152.6h-14.4
			v3.2h14.4V152.6z M604.2,164.9v-3.2h-14.4v3.2H604.2z"/>
	</g>
</g>
</svg>
